<?xml version="1.0" encoding="UTF-8"?>
<svg id="Layer_2" data-name="Layer 2" xmlns="http://www.w3.org/2000/svg" xmlns:xlink="http://www.w3.org/1999/xlink" viewBox="0 0 444.87 533.04">
  <defs>
    <style>
      .cls-1 {
        fill: none;
      }

      .cls-1, .cls-2 {
        stroke-width: 0px;
      }

      .cls-3 {
        clip-path: url(#clippath);
      }

      .cls-2 {
        fill: #f2f2f2;
      }
    </style>
    <clipPath id="clippath">
      <path class="cls-1" d="m431.31,382.5V79.52C370.23,35.44,296.83,11.72,221.51,11.72S72.8,35.44,11.72,79.52v303.18c8.62,6.23,17.45,11.99,26.49,17.36l.85.58c54.71,33.66,117.65,51.52,181.89,51.63,64.22.09,127.22-17.56,182.04-51.05l.99-.65c9.28-5.52,18.42-11.4,27.39-17.83l-.07-.24Z"/>
    </clipPath>
  </defs>
  <g id="Layer_1-2" data-name="Layer 1">
    <g class="cls-3">
      <circle id="Head" class="cls-2" cx="218.55" cy="141.31" r="74.89"/>
      <path class="cls-2" d="m221.47,464c-.18,0-.35,0-.53,0-66.44-.11-131.45-18.57-188.02-53.37l-.47-.3-.55-.37c-9.42-5.6-18.52-11.57-27.06-17.75l-4.85-3.51V73.52l4.86-3.51c31.39-22.65,65.98-40.17,102.81-52.08C144.5,6.04,182.81,0,221.51,0s77.01,6.04,113.84,17.94c36.83,11.9,71.42,29.42,102.81,52.08l4.86,3.51v307.37l1.84,6.59-6.66,4.78c-8.73,6.26-17.89,12.23-28,18.25l-1.1.71c-56.52,34.53-121.39,52.77-187.63,52.77Zm-176.02-73.19c52.82,32.44,113.51,49.64,175.53,49.75.16,0,.33,0,.5,0,61.87,0,122.45-17.02,175.25-49.23l1.27-.82c7.71-4.58,14.82-9.13,21.59-13.79V85.58c-58.4-40.67-126.75-62.13-198.07-62.13S81.84,44.91,23.45,85.58v291.07c6.64,4.61,13.6,9.09,20.76,13.34l.63.4.62.42Z"/>
      <path class="cls-2" d="m355.38,481.58v-190.33l-3.01-2.17c-19.44-14.03-40.86-24.87-63.67-32.24-22.8-7.37-46.52-11.11-70.49-11.11s-47.68,3.74-70.49,11.11c-22.81,7.37-44.23,18.21-63.66,32.24l-3.01,2.17v195.16l3,2.17c5.29,3.83,10.92,7.53,16.76,10.99l.33.24.3.19c35.02,21.55,75.28,32.97,116.42,33.04h.33c41.02,0,81.19-11.29,116.18-32.67l.68-.44c6.26-3.73,11.94-7.43,17.34-11.3l4.13-2.96-1.14-4.09Zm-108.69-161.4l-7.7,7.5c-1.04,1.01-1.52,2.48-1.27,3.91l1.82,10.59c.62,3.62-3.18,6.37-6.42,4.67l-9.51-5c-1.29-.68-2.83-.68-4.12,0l-9.51,5c-3.25,1.7-7.04-1.05-6.42-4.67l1.81-10.59c.25-1.43-.23-2.9-1.27-3.91l-7.69-7.5c-2.63-2.56-1.18-7.02,2.45-7.55l10.63-1.55c1.44-.21,2.69-1.11,3.33-2.42l4.76-9.63c1.62-3.29,6.31-3.29,7.94,0l4.75,9.63c.64,1.31,1.89,2.21,3.33,2.42l10.63,1.55c3.63.53,5.08,4.99,2.46,7.55Zm70,0l-7.7,7.5c-1.04,1.01-1.52,2.48-1.27,3.91l1.82,10.59c.62,3.62-3.18,6.37-6.42,4.67l-9.51-5c-1.29-.68-2.83-.68-4.12,0l-9.51,5c-3.25,1.7-7.04-1.05-6.42-4.67l1.81-10.59c.25-1.43-.23-2.9-1.27-3.91l-7.69-7.5c-2.63-2.56-1.18-7.02,2.45-7.55l10.63-1.55c1.44-.21,2.69-1.11,3.33-2.42l4.76-9.63c1.62-3.29,6.31-3.29,7.94,0l4.75,9.63c.64,1.31,1.89,2.21,3.33,2.42l10.63,1.55c3.63.53,5.08,4.99,2.46,7.55Z"/>
    </g>
  </g>
</svg>