<?xml version="1.0" encoding="utf-8"?>
<!-- Generator: Adobe Illustrator 26.3.1, SVG Export Plug-In . SVG Version: 6.00 Build 0)  -->
<svg version="1.1" id="Layer_1" xmlns="http://www.w3.org/2000/svg" xmlns:xlink="http://www.w3.org/1999/xlink" x="0px" y="0px"
	 viewBox="0 0 2905.9 1346.2" style="enable-background:new 0 0 2905.9 1346.2;" xml:space="preserve">
<style type="text/css">
	.st0{clip-path:url(#SVGID_00000061468185567641292630000016940005562254836888_);}
	
		.st1{fill:url(#SVGID_00000056391770736451162230000013059774842873477010_);stroke:url(#SVGID_00000141429302870684693450000002055594586594421436_);stroke-miterlimit:10;}
	.st2{opacity:0.24;fill:#0F0300;enable-background:new    ;}
	.st3{fill:#FFFFFF;}
	.st4{fill:url(#SVGID_00000132787629396003184260000000913316303266342300_);}
	.st5{fill:none;stroke:#CBE4F7;stroke-width:20;stroke-linecap:round;stroke-miterlimit:10;}
	.st6{fill:none;stroke:#CBE4F7;stroke-width:20;stroke-linecap:round;stroke-miterlimit:10;stroke-dasharray:24.5466,34.7743;}
	.st7{fill:none;stroke:#EF9A9A;stroke-width:20;stroke-linecap:round;stroke-miterlimit:10;stroke-dasharray:24,34;}
	.st8{fill:none;stroke:#CBE4F7;stroke-width:20;stroke-linecap:round;stroke-miterlimit:10;stroke-dasharray:23.8183,33.7426;}
</style>
<g id="Moon">
	<g>
		<defs>
			<rect id="SVGID_1_" x="-32.5" y="-536.4" width="2953.5" height="1915.7"/>
		</defs>
		<clipPath id="SVGID_00000041276617833656993630000018159223565347618724_">
			<use xlink:href="#SVGID_1_"  style="overflow:visible;"/>
		</clipPath>
		<g style="clip-path:url(#SVGID_00000041276617833656993630000018159223565347618724_);">
			<g>
				
					<linearGradient id="SVGID_00000052792253260304644950000018335364102411374000_" gradientUnits="userSpaceOnUse" x1="633.7757" y1="776.9681" x2="611.7996" y2="258.3303" gradientTransform="matrix(0.9874 0.1581 0.1581 -0.9874 57.953 1087.3275)">
					<stop  offset="0" style="stop-color:#69E9F1"/>
					<stop  offset="1" style="stop-color:#FF03F8"/>
				</linearGradient>
				
					<linearGradient id="SVGID_00000175294382519366757650000013859400651360471439_" gradientUnits="userSpaceOnUse" x1="-235.2769" y1="-42.1917" x2="1433.4084" y2="-42.1917" gradientTransform="matrix(0.9874 0.1581 0.1581 -0.9874 57.953 1087.3275)">
					<stop  offset="0" style="stop-color:#FFFFFF"/>
					<stop  offset="1" style="stop-color:#000000"/>
				</linearGradient>
				
					<circle style="fill:url(#SVGID_00000052792253260304644950000018335364102411374000_);stroke:url(#SVGID_00000175294382519366757650000013859400651360471439_);stroke-miterlimit:10;" cx="642.8" cy="1223.7" r="833.7"/>
				<path class="st2" d="M753.7,774.1c-0.2,0.1-0.8,0.6-1.1,0.8c2.1-2.3-16.9,16.4-7.9,6.8c-0.1,0-0.2,0.1-0.2,0.1
					c1.9-2.1,5.5-6.1,5.5-6.1c1.1-1.1,3.3-3.3,3.3-3.3c-0.1,0.1-0.4,0.3-0.4,0.3c7.9-8.3,42.4-38.5,44.6-42.6
					c-2.1-1-38.8,12.8-42.9,14.3c-7,7.7-20.2,20-26.6,25.8c0.9-1,2.7-2.9,2.7-2.9c-0.1,0.1-0.2,0.3-0.2,0.3c1.9-2.1,5.5-6.1,5.5-6.1
					c-0.1,0-0.2,0.1-0.2,0.1c2.4-2.4,2.9-3.1,2.9-3.1c4.1-4.4,8.4-8.9,12.6-13.1v-0.1c0.8-0.9,8-9.1,8.4-9.8
					c-10.4,2.7-52.6,28.8-64.8,36.4c1.7,0.5,21.9-7.9,35.6-13.7c-2.8,2.3-10.2,7.4-11.4,9.4c26.4-15.7-19.1,17.5-27.8,24.7
					c0-3.1,1.1-6.7,2.7-10.7c-0.3,0.6-0.8,1.2-1.3,1.6c-4.1,10-14.5,5.5,0.1-0.9c0.5-1.2,1-2.7,1.6-3.6c-0.1,0.6,0.4,0.2,0.4,0.8
					c1.5-1.1-0.3-1.3-0.3-1.4c0.3-0.1,1-0.2,1-0.2c0.6-0.8,0.6-0.9,0.7-1.5c-22.5,18.9-21.4,12-38.1,15.8c3.8,1.4,12.5,1.3,17.5,1.4
					c-4.5,3.4-9.3,6.8-13.8,9.8c2,2.6,3.6,5.6,4.6,9.1c-3.2,2.6-7.2,6.1-11.8,10.3l-0.1-0.7c-5.7,3-12.3,5.1-2.4-3.7
					c-0.2-1.1-0.5-3.2-0.5-3.2c-2.5,2.6-7.5,7.6-7.5,7.6c0.4,2.3,1,6.3,1.3,8.3c-5.3,4.7-27.9,23.4-27.9,23.4
					c-2.4,2.5-3.3,3.4-1.4,1c-2.9,2.4-5.9,4.7-8.3,7.6c-16.8,6.1-37.6,30.8-58.4,40.2c3.8-4.4,4.5-5.9,5-10.1
					c3.3-0.2,5.6-0.3,5.6-0.3c12.9-13.1,19.3-16.5,31.1-28.6l-1.8,1.2c7.1-8.6,17.7-14.5,25.7-22.2c-1.7,0.6-15.5,10.9-18.6,13.1
					c2.4-2.7,5-5.8,7.2-8.7c-10.5,7.5-14.5,10.2-25.1,20.3c1.2-1.5,3.5-4.3,3.5-4.3c-10.4,7.3-17.5,11.7-27.9,20.7v-0.3l2.3-2.8
					l-2.4,1.8c-0.1-1.3-0.2-2.8-0.2-4.1c0.4-0.4,0.8-0.8,1.2-1.2c-0.3,0.2-0.7,0.5-1.2,0.8c0-1.9,0-3.7,0.2-5.4
					c23.2-20.2,27.8-25.9,48.6-44.9c-2.2-16.4-22.9,8.5-44.6,27.6c3.8-4.1,21.5-22.6,31.1-34.9c7.1-3.8,7.2-5.6,3.5-4.7
					c1.7-2.6,2.7-4.5,2.7-5.6c-1,0.3-2.3,0.9-3.8,1.9c1.3-1.5,14.3-16.3,14.5-14.9c2.1-2.2,4.1-4.3,6.2-6.5l0,0l-0.2,3.3
					c11.1-1.3,21.2-8.7,35.7-17c-3,2.5-8.8,7.2-8.8,7.2c0.4-0.3,1.1-0.8,1.1-0.8c-3.8,3.1-11.6,9.4-11.6,9.4
					c15.5-9.4,32.3-34.9,48.2-40.2c1-1,2.9-3.1,2.9-3.1v0.1c0.2-0.1,0.5-0.4,0.5-0.4c3-5.9,4.1-3.8,4.1-3.8
					c-1.6,1.2-0.7,0.6-0.3,0.4c-0.5,0.5-1.1,1.1-1.6,1.7c11.9-9.9,51.4-41.2,51.4-41.2c8.4-8,19-15.3,26-23.7
					c-10,2.6-30.7,20.7-42.5,26.6c7.3-6.9,15.5-14.2,17.1-16.9c-2.9,1.3,0.3-0.4,0.3-0.4c1.1-1.5,3.2-3.6,4.4-5
					c-1.3,0.3-2.3,1.3-3.6,2.6c0.6-0.7,1.9-2.2,1.9-2.2c-0.1,0.1-0.2,0.1-0.2,0c-0.2,0.2-0.4,0.4-0.6,0.6c0.1-0.2,0.5-0.6,0.5-0.6
					c-0.4,0.1,2.3-2.6,1-0.8c2.1-1.1,8-6.7,7.3-5.5c10.4-8.5,4.6-2.3-0.8,1.3c-0.1,0.2-0.3,0.5-0.5,0.6c0.8-0.5,2.4-1.5,2.4-1.5
					c-0.8,0.8-2.4,2.4-2.4,2.4c3.2-1.6,9.3-7.2,9.3-7.2c2-2.8,3.8-5.3,6.4-7.6c-1.6,1.2-11.4,7.8-4.9,1c2.4-0.6,6.7-3.4,2-2
					c1.6-1.6,6.2-6,5-5c0.3-0.4,0.7-0.9,1-1.3c6.6-3.5,12.4-6.8,12.4-6.8c0.6-1.1,1.7-2,2.5-2.7c-0.7-1.6-2.1-4.7-2.1-4.7
					c-0.9,0.7-2.8,2.2-2.8,2.2c-0.5,0.1-0.9,0.3-1.4,0.4c0.6-0.7,1.1-1.3,1.2-1.4c-1,0.5-2.9,1.9-4.1,2.3l0.5-0.3l0.1-4.8
					c6.2-3.9,12.2-7.7,12.2-7.7c0-0.4,0.1-1.1,0.1-1.1c-4.1,1.8-8.2,3.4-12.2,5l0.3-21.6c4.9-4.1,9.8-8,14.7-12.2
					c0-0.5,0.1-1.6,0.1-1.6c-4.8,3.7-9.8,7.5-14.7,11.4l0.2-11.6c0.8-0.7,1.6-1.5,2.5-2.5c-0.7,0.5-1.6,1.1-2.5,1.8v-1.4
					c-0.2,0.1-0.7,0.5-1,0.7c0.3-0.3,0.8-1,0.8-1c-2,2-4.9,5.3-7,6.8c0.2-0.4,0.7-1.1,0.7-1.1l-0.2,0.1l5.8-6.9
					c3.8-4.2,37.6-37.4,38.2-38.5c-1.3-0.7-14.2,3.3-24.7,6.9c4.5-4,61.4-64.8,63.2-61.4c15.7-14.2,46.2-39.3,46.2-39.3
					c9.2-9.4,21.8-19.7,29.2-29.2C898,451.8,822,528.1,822,528.1c-2.6,4.8-6.6,7.9-10.5,11.9c0.9-1.2,2.8-3.6,2.8-3.6
					c1-0.8,3.2-2.4,4.1-3.3c-0.6,0.3-2.7,1.8-3.5,2.4c1-1.3,3.1-3.6,3.1-3.6c-13.1,12.7-39.6,37.9-39.6,37.9c3-3.4,9-10.4,9-10.4
					c-0.2,0.4-0.7,1.1-0.7,1.1c3.4-3.9,10-11.7,10-11.7c-39.2,34.6,14.6-16.6,20.2-22.5c-0.4,0.4-1.3,1-1.3,1
					c5-5.9,20.4-21.8,21.8-28.8c-18.5,10-76.5,65.9-91.9,87.9l0.4,3c0.5-0.2,1-0.3,1.5-0.5c-2.2,1.9-8.3,6.3-9.2,8.1
					c7.8-4.7-66.2,58.9-94.8,87.1c5.2-6.2-10.1,8.7-10.1,8.7c-1.2,0.7-3.7,2-3.7,2c-35.3,28.3-94.1,83.6-127.4,106.2
					c-1.6,2.7-2.8,3.5-4.8,5.8c0.9-1.2,2.7-3.1,1.5-2c0.9-1.1,1.8-2.4,2.7-3.4c-8.9,5.9-12.3,8.5-20.2,17.5
					c-0.8-0.2-1.2-0.7-1.4-1.3c1.1-1.2,2.2-2.4,3.3-3.5l-3.1,2.2c0.8-2.7,4.4-7.2,12.6-14.7c-22.2,6.1-84.9,44.8-50.9,13.4
					c-8.9,2.6-19.8,5.9-28.4,10c8.1-34.9-16.9-5.4-11.2-35.8c25.6-15.7,2.7-14.9,31.4-42.9c-0.1,0-0.2,0-0.4,0
					c3.7-4,7.2-8.4,9.6-10.5c4.8,3.4,2.5-0.7-1.4,0.4c1-0.7,2-1.4,3-2.4c1.6-1.6,3.4-3.6,4.1-5.5c-1.4-1.1,2.5-3.5,3.8-4.7
					c-0.6,0.7-1.3,1.6-1.9,2.3c0.7-0.1,2-0.3,2.5-0.1c-0.6,0.3-2.4,0.7-3,0.8c0,0.1-0.5,0.6-0.5,0.6s11.4-13.4-2.7-0.9
					c-0.2-0.6-3-0.4-3.6,0.3c0.5,1,0.1,2.2,3,0.2c-7.6,6.3-6.9,4.7-18,18.3c-4.6-1.9-9.4-6-7.5-12.5c-13.3,9.7-29,11.6-41.1,25.8
					c4-1.9,12.1-5.5,12.1-5.5c3.3-6.5,8.1-5.9,8.1-5.9c5.2-0.2,6.3-0.6,10.8-2.1c-5.9,4.2-13,5.4-18.9,8
					c-2.2,4.7-44.1,44.3-44.2,44.4c-1.4-0.7-6.4-0.2-6.4-0.2c-1.6,0.8-3.1,2-4.1,3.4c-1.6-0.5-2.9-1.4-3.5-3.1
					c-4.2,3.2-8.6,6.5-12.8,9.6c-1.7-6.4-3.9-12.5-5-15.3c-8.7,9.4-14.2,10.2-14.2,10.2c2.4-1.2,5.8-2.9,8.3-4.3
					c-1.5,0.4-5.1,2.2-6.9,3c3.9-3.8,7.9-7.6,11.9-11.1c-2.2-4.6-4.3-9.2-6.7-13.7c13.4-8.4,25.5-16.7,39-26.5
					c-0.6,0.6-1.7,1.8-1.7,1.8c0.1-0.1,0.2-0.2,0.2-0.2c-2.8,2.7-3.1,2.8-4.8,4.7c6.6-4,23.6-14.8,28.3-19.7
					c-13.4,1-45.6,26.3-21.1,2.9c-7.7,1.4-15.4,3-23.3,4.9c1.6-0.6,6.3-3.8,8.1-5.2c-0.9,0.1-3.8,0.5-4.4,0.1
					c0.8-0.8,9.3-4.5,11.8-7c11.5-0.9,6.3,3.4,9.9-6.4c1.5,0.7,4.4,2.3,4.4,2.3c-0.8,1.4-1.9,2.8-3.2,3.5c2-0.1,5.8-0.1,5.8-0.1
					c13.1-9.2,10.7-4.2,2.6,0.1c2,0,5.8,0.1,5.8,0.1c3.8-3.9,8.8-5.3,10.6-6c-1.2,1.1-3.5,3.2-3.5,3.2c-1-0.1-3.1-0.4-4.2-0.1
					c-0.1,0.3,3.1,0.8,3.6,0.9c-0.8,0.8-1.8,1.6-2.6,2.3c1.2,0.1,3.7,0.2,3.7,0.2c6-5.9,14.4-14.5,20.5-19.7
					c-0.2,0.1-0.8,0.5-0.8,0.5c-5.5,2.9,34.1-28.4,35.9-30c5-17.1,10.2-33.2,23.2-52.9c-7.5,3.9-15.7,10.2-23.5,15.7
					c-4.2,6.2-22.1,32.4-27.4,35.7c2.1-6.4,4.4-10.5,5.9-14.9c5-4.4,12.4-11.1,17.3-16c2.3-10,4-20.4,1.2-25.5
					c5.9-5.6,1.6-3.2-1.1-1.5c-1.9-2-5.6-2.5-10.2-1c2.3-2.6,4.5-5.2,7-7.3c0,0,0.4,1.5-4.5,4.5c-3,6.1-7.2,12.1-10.4,18.3
					c-1.7,1.1-3.6,2.3-4.9,2.9c11.4-41.4,1.5-27.3-1.8-36.6c-5.3,4-4.4,3.7-8.9,6.5c0,1.8,0.1,4.2-0.1,6.1c-2-5.7-90.5,78.7-116,97
					c4.9-2-15,22.3-20.3,28c0.3,0.1,0.8,0.3,0.8,0.3c-1.4,1.1-4.1,3.1-4.1,3.1c0.2,0,0.6,0,0.6,0c-1.4,1.2-4.2,3.6-4.2,3.6
					c2.6-0.9,7.6-2.7,7.6-2.7c-6,5.5-4.2,0.7-8.3,3.4c0.9,0.4,2.4,0.7,3.5,0.9c-1.6,1.2-9.6,6.3-10,5.4c1.7-2.1,5-6.3,5-6.3
					c-2.8,1,8.2-10.1,11-13.4c-6.4,4.7-47.8,40.3-41.8,32.2c-4.4,9.4,10.1-19.8-2,1.2c-1.1,0.5-0.4,0.4-0.3,0.4
					c-2.2,4.1-6.4,12.4-6.4,12.4c6.8-6.1,26.6-29.4,17.3-15.6c2.7-2.9,3.1-2.7,5.5-4.1c-2.4,2.6-4.6,4.5-6.7,6
					c-1.8,2.7-2,2.6-3.9,4.7c1.8-1,5.2-3.1,5.2-3.1c-2.7,2.3-6.3,4.6-7.4,6.4c-1.9,1.5-5.6,4.6-5.6,4.6c-1.1,2.4-6.6,8.7-6.4,8.5
					c-2.9,2.9-6.2,4.8-9.1,6.8c2.6-3.1,5.9-7.4,8.6-10.2c-6,3.7-1.1-0.9,1.5-3.1c2.4-5,7-15.2,7-15.2c-4.7,3.1-1.2-1.9,2.4-5
					c0.1-0.3,0.4-0.9,0.4-0.9c-5.2,4.4-15.7,13.4-15.7,13.4c8.5-10.4,5.7-8.6,14.2-13.4c0.1-0.4,0.5-0.8,0.8-1.2
					c-1.9,1-5.5,2.9-5.5,2.9c1-1.2,3-3.5,3-3.5c-1.3,1.2-3.9,3.6-3.9,3.6c-1.7,0.6-7.3,3.3-7.3,1.4c2.4-3.4,9.8-8.4,12.7-10.4
					c-22.4,11.7-51.3,35.6-75.3,50.9l4-4c-0.5,0.3-2.1,1.6-1.4,0.4c-0.5,0.2-1.4,0.5-1.4,0.5c0.6-0.3,1.7-0.9,1.7-0.9
					c1.1-1.4,3.2-3.5,4.4-4.8c-1.3,0.2-2.2,1.1-3.4,2.3c0.6-0.7,1.9-2.1,1.9-2.1c-0.1,0.1-0.2,0.1-0.1,0c-0.2,0.2-0.4,0.4-0.6,0.6
					c0.1-0.2,0.5-0.6,0.5-0.6c-0.4,0.1,2.3-2.4,0.9-0.7c2-0.9,7.8-6.2,7.1-4.9c2.1-1.7,6.3-4.9,6.3-4.9c-3.8,3.8-3.3,3.8-7.1,6.1
					c-0.1,0.2-0.3,0.5-0.5,0.6c0.8-0.4,2.3-1.2,2.3-1.2c-0.8,0.7-2.4,2.3-2.4,2.3c2.8-1.2,8.9-6.5,8.9-6.5c2-2.7,3.9-5.2,6.3-7.3
					c-11.1,7.3,2.4-6.2,2.4-6.2c0.6-0.8,1.3-1.6,1.9-2.3c-17,15.8,4.8-5.2,7-8.3c-0.3,0.1-2.2,1.5-2.6,1.8c0.5-0.6,4.3-4.7,4.5-4.9
					c-0.6,0.2-5.8,4.8-5.8,4.8c-0.3,0.3-1,1-1,1c0.1-0.1,0.2-0.2,0.2-0.2c-4.5,3.7-8.8,6.8-12.9,11.5c9-8.3,2.7-0.8-1.5,3.6
					c0,0-21.3,19.6-23.5,21.7c0.7-0.9,2.3-2.6,2.3-2.6c-0.1,0.1-0.3,0.2-0.3,0.2c5.8-6.5,11.4-12.7,17.3-19
					c-2.1,1.6-6.2,4.7-6.2,4.7c0.9-1,2-2.3,2.9-3.2c-10.1,9.2-32.2,31.1-39.5,37.3c11.4-13,12.8-10.6,22.9-20.2
					c-12.7,7.1-9.4,8.1-6.7,1.6c-0.3,0.2-31.4,25-12.3,8.2c-0.6-0.5,1.1-1.1,2.2-1.9c0.2-0.4,0.4-0.8,0.4-1c6.1-3.1,50-39.4,50-39.4
					c2.7-1.9,8-5.5,8-5.5l4.1-48.7c-0.2,0.1-0.7,0.4-0.9,0.6c4.6-5.3-8.6,7.9-8.6,7.9c0.7-0.8,2.1-2.3,2.1-2.3l-0.2,0.1l7-8
					c3.8-4,37-35,37.5-36.1c-1.8-1.5-31.3,6.4-35.1,7.3c-4.1,4.7-20,19.7-20,19.7c1.6-1.8,4.6-5.3,4.6-5.3l-0.2,0.1
					c4.2-4.4,7.7-8.6,12.9-14v-0.1c0.7-0.8,6.8-8.1,7.1-8.7c-1.9,0.3-32,23.2-33.7,26.4c10.4-5.6-60,49.5-82.9,73.2
					c0.5-0.6,1.4-1.8,1.4-1.8c-2.8,2.3-8.5,7.9-8.5,7.9c-0.9,0.4-2.7,1.1-2.7,1.1c-31.8,24.6-93.7,81-122.7,101.1
					c-1.8,2.9-3.3,4-5.5,6.4c1.1-1.4,3-3.1,1.7-2.2c1-1.3,2.1-2.6,3.2-3.7c-4.7,3.2-45.4,39.8-44.4,40.3c0.7-0.7,3.5-3.6,2.6-3
					c1.9-2.1,5.6-6.3,5.6-6.3l-0.2,0.2c1.2-1.3,3.5-3.7,3.5-3.7c-2.9,2.3,11.4-12.3,11.4-12.3c-10.2,7.3-21.2,18.8-21.2,18.8
					c-1.5,1.3-15,12.8-15,12.7c-23.1,18.3-221.9,187.7-170.3,152.3c2.2-2,10.9-10.4,12.1-10.2c-0.3,1-1,1.7-1.8,2.9
					c7.1-5.4,21.2-16.2,21.2-16.2c-1.8,1.6-5.4,4.8-5.4,4.8c0.9-0.8,3.3-2.9,3.9-2.9c5.5-5.6,11.7-12.2,17.5-16.4
					c2.9,2.4-22.4,22.9-21.8,22.3c-1.9,2.3-3.8,4.2-5.6,6.2c1.6-0.8,8.6-7.3,3.9-1.9c1.5-0.7,4.5-2.1,4.5-2.1
					c2.9-3.1,8.5-9.4,8.5-9.4c5.7-4.9,11.4-9.6,17.2-14.8c-4.3,3.2-10.2,8.3-14.6,12c9.7-10.4,22.8-24.5,32.8-33.6
					c2.4,2.5-41.3,44-41.3,44c16.7-15.5,23.4-20.2,38.8-31.9c-0.1,1.1,0.8,2,3,2.7c-8.2,7.2-14.8,13.9-22.9,21.1l0.4-0.2
					c-4,3.1-7.8,4.5-11.8,7.3c1-0.5,2.6-1.5,3.7-2.1c-2.1,2-4.7,3.4-6.6,5.1c1.9-1.9,4.4-4.2,6-5.5c-2.6,1.2-7.7,3.6-7.7,3.6
					c-5.8,4-12.2,11.5-18.7,16.3c-0.5-0.9,10-11,12-13.1c-1.5,0.7-3,1.4-4.3,2c-1.6,1.8-3,3.3-4.5,5c0,0-10.1,9.2-12,10.3
					c1.6-1.8,4.7-5.3,4.7-5.3c2.2-1.7,5.1-3.1,7-4.8c-8.8,5.3-5,2.6,1-3.4c-0.4,0.2-1.3,0.6-1.3,0.6c-4.6,3.8-14,11.6-14,11.6
					c0.1-0.2,0.4-0.5,0.4-0.5c-6.7,3.4-9.1,7.2-16,13.4c6.3-1.3,15.7-13,4.5-0.8c8.7-0.9-0.1,4.9-6.7,10.2
					c7.4-3.1,10.2-6.5,17.9-12.7c-2.9,2.9-9.4,7.1-10.6,8.8c1.3-0.7,3.6-2.3,5-3.2c-2.6,2.5-2.9,3.1-2.9,3.1c2-2,5.9-6,5.9-6
					c0.1,0.3,0.2,0.9,0.2,0.9c10.1-9.4,17.5-15.1,27.5-22.9c-1.7,2.3-10.6,13.5-10.9,14.4c0.3,0,0.6-0.2,1-0.4
					c-2.2,3-15,19.2-17.9,17.6c-5.8,5.2-17.7,15.7-17.7,15.7c0.6-0.2,1.7-0.5,1.7-0.5c-4.4,5.5-8,6-12.4,9.8c1-1.1,3.1-3.3,3.1-3.3
					c-3.8-2.9,20.7-18.6,28-24.6c-4.4,2.8-11.4,7.9-16.1,11.2c2.5-2.6,7.4-7.8,7.4-7.8c-1.3,0.6-3.6,1.6-4.3,1.2
					c-3.3,3.1-7.6,7.3-10.9,9.7c-0.2-0.8,6.7-7.4,7.9-8.5c2.3-4.4,4.1-1.8-2,0.8c0.5-0.9,1.6-1.9,2.2-2.6
					c-5.5,3.1-16.7,9.3-16.7,9.3c2,1.3-6.8,9.8-24.6,24.5c6.2-6.8,6-7,9.5-10.5c-2.4-0.5,18.7-18.1,18.7-18.1
					c-49.1,19.8-127.6,94-127.7,106.5c1.3-1.3,5.5-6.8,6.3-7.2c0,0.7-3.2,4.1-3.8,4.8c3.5-3.1,10.3-9.4,10.3-9.4
					c4.2-5,8.8-8.8,10.2-11.5c-2.3,2.1-5.5,5.7-7.8,8.2c4-5.5,3-4.6,8-9.1c0-0.1,0-0.2,0-0.2c-1,0.9-3,2.5-3,2.5
					c1.7-2.2,11.1-13.7,12.6-14.2c-0.5,1.5-4.1,6.1-5.2,7.6c4.7-5.2,10.7-11.6,15.6-16.2c-0.4,0.9-13,18.7-14.7,21.1
					c3.7-2.8,11-8.3,11-8.3c-8.8,8-15.2,16.6-22.1,23.9c4.4-4,14.7-9.4,15.3-9.7c-2.6,2.3-7.6,6.9-7.6,6.9c0.1,0,0.2-0.1,0.4-0.2
					c-19.9,16.1-14.2,8.3,0.8-6.3c-1.5,1.1-4.2,3.5-5.8,4.8c1.4-1.9,3.7-4.5,4.6-6.5c-0.9-0.5-16,15.2-18.1,17.2
					c1.4-1.9,3.7-4.7,4.9-6.7c-4.2,4.5-7.4,7.7-11.7,11.5c0.5-0.6,1.5-2,1.5-2c-6.9,5.7-7.2,8.4-13.6,16.1c0,0,23.4-21.6,16.9-12.6
					c0.3-0.3,1-0.8,1-0.8c-17.6,16.4-31.9,28.6-48.6,47.2c1,0.1,3.1,0.3,3.1,0.3c-1.6,0.8-4.7,0.8-5.9,1.8c1.5-0.1,3.4-0.5,4.9-0.9
					c-3,2.6-6.1,5-9.1,7.1c-0.2,1.3-6.9,9.4-6.6,9.1c-3.3,2.7-9.7,7.9-9.7,7.9c1.3-1.7,3.9-5,3.9-5c1.7-0.9,4.4-2.3,6.1-3.4
					c-1.3,0.4-3.9,1.8-5.3,2.6c2.9-3.3,6.1-6.8,9.3-9.6c-0.3,0-0.9,0-0.9,0c0.2-0.9,5.9-7.4,5.6-7.1c-0.8-0.9,2.8-3.7,4.1-5.4
					c-0.1-0.1,0.1-0.1,0.1-0.1c1.1-1.7,5.3-7.7,5.4-9.2l-17.1,14.6c1.8-0.3,6.1-3.2,8.2-4.7c-26.1,23.7-24.4,27.9-24.4,27.9
					c-0.3,0.3-2.3,2.1-1.6,1.5c-1.2,1.2-3.6,3.4-3.6,3.4c0.9-0.7-2,1.8-2,1.8c0.1-0.1,0.2-0.2,0.2-0.2c-3.4,3.1-7.4,6.7-10.8,9.3
					c-0.6,4.4-11.5,16-15.2,20.4c2.3-3.6,8.2-9.2,8.6-10.1c-1,0.7-3.2,2.6-4.2,3.4c2.8-4,6.8-9.7,10.2-13.2c-3.2,2-0.5-0.5-1.2-0.2
					c7.6-9.9,8.7-8.9,14.8-14.7c-2.6,1.6-5,3.1-7.6,4.6c3.5-4.4,2.9-4.8,2.9-4.8c-0.5,0-0.9-0.3-1.2-0.7c-0.9,1.4-4.3,6.1-4.1,6.9
					l-0.9,0.8c0.1-0.1,0.2-0.1,0.3-0.1c-1.3,1.6-5.7,7.5-5.1,8.4c-0.4,0.4-29.4,41-18.6,17.6c-0.2,0.1-0.5,0.4-0.5,0.4
					c-1.9,3.8-6.3,12.8-7.7,16.5c0.6-1.2,1.2-2.6,1.8-3.7c0.3-0.2-1.1,3.1-1.1,3.1c1.5,4.1,5.3,5.3,9.7,6c-1.7,1-3.5,2.5-3.1,3.9
					c-3.8,1.3-8.6-4.3-8.1-8.9c-5.5,15.8-7,25.2-7.7,38.3c6.4-5.7,8.7-6.5,14.7-10.1c-1.7,1.7-5,4.8-5,4.8c-1.3,0.3-3.7,0.8-5.1,1.3
					c0.7,0.2,3.1-0.2,4.1-0.4c-3,2.8-5.7,4.9-8.7,7c0,1,0.1,2.9,0.1,2.9c1.5-1.6,1.9-1.4,3.3-2.2c-0.4,0.5-1.2,1.4-1.2,1.4
					c-1.3,0.3-0.6,0.3-0.3,0.3c-0.6,0.6-1.2,1.2-1.9,1.7c0.4,8.5,1.4,15.8,3,23.3c-4.6,6.8-11.4,17.1-12.7,18.9
					c10.6-4,20.9-7.8,31.4-11.3c-1.6,1.2-7.1,5.3-5.6,6.4c-3.6,2.4-29.1,10.6-34.6,12.5c-2.8,9.1,5.5,24.8,7.9,29.3
					c7.8-7.8,24.5-20.1,28.4-23c-3.1,3-9.1,8.8-9.1,8.8c-3.4,2-7.7,4.2-11.2,6.5c2.3-0.9,6.7-3.4,9.3-4.8c-5.4,5-11,9.9-16.5,14.6
					c4.6,7,9.6,13.8,14.5,20.5c3-3.9-0.7-0.9,4-4.7c0.2,0.5-3.2,4-3.8,4.7c0.3,0.5,0.6,2.6,2.1,0.8l-0.3,0.4c1.9-3,7.6-9.9,9.1-11.7
					c-15.2-8.6-10.3-11.6,6.9-8.5c0.9-1,5.4-6.5,6.1-6.3c-0.4,1.3-3.5,5.2-4.4,6.6c1.5,0.3,4.2,0.9,4.2,0.9c2.6-3.4,3.7-4.2,0.9,0.3
					c0.8,0.2,2.3,0.6,2.3,0.6c2-3.2,2.6-3.2,5.1-5.9c-0.7,0.5-2.4,2.1-3.2,2.8c4.2-6.5,3-2.3,3-2.3c-1.5,1.8-4.5,5.3-4.5,5.3
					c4.9,1.1,10.5,2.5,16.2,2.5c0.4-0.4,1.7-1.4,2.1-1.9c-0.1,0-1.8,1.4-2.1,1.7c5.3-8.1,5.4-5.4,0.7,0.2c4.7-0.7,8.4-6.5,12.3-11.6
					c-0.2,0.1-2.5,2.2-2.7,2.4c1.4-2.2,3-4.4,4.8-6.4c1,1-4.3,8.4-6,10.5c9.3-7.5,12.3-6.9,20.1-19.2c-0.5-3.6,16.3-24.5,20.3-28.3
					c-1.3,8.7-3.2,17.7-5.9,28l21.8-21c1.6-3.4,10.9-27.1,12.4-27.8c0.7,10.3,4,19.9,2.6,32.1c3.2,0.3-2.6,6.8-5.6,8.8
					c0.2,0,0.5,0,0.5,0c-1.9,3.1-5.1,7.2-1.9,0.9c-0.5,0.3-1.4,0.8-1.4,0.8c-1.3-1.8-2.8-9.8-3.5-12.9c-0.2,2.7-1,15.6-2.3,17.8
					c-10.7,8.9-13,20.8-13.4,28.2c13.5-17.3,27.1-26.8,27.1-26.8c2-1,5.8-2.9,5.8-2.9c-2.9,3.6-3.9,3.1-6.1,3.5
					c0.3,0.2,0.8,0.4,1.3,0.6c-6.1,3.9-11.7,7.9-14.2,10.6c-0.4,1.4-0.3,0.8,0.3,1.4l8.8-5.5c-3.1,9.1-5.4,11.8-4.3,14.9
					c-8.6,10.9-8.1,9.7,0.2,5.3c-1.1,0-3.3,0.5-4.8,2c0.1-0.2,0.4-0.7,0.4-0.7c0.4-0.3,2-2.3,1.9-1.6c0.9-0.8,2-1.7,3.1-2.7
					c0.1,0.7,0.2,1.4,0.3,2.3c-13.6,12.4-39.5,36.2-47.7,42.3c0,0.1-8.4,5.8-8.4,5.8h0.1c-2.2,1.9-2.7,1.9-4,4.6
					c-13.2,8.9-23.5,15.8-27.8,19c0.4,0.1,9.8-5.3,21.2-12.2c-1.2,1.9,0.5,0,0.5,0c-0.3,0-0.1,0,0.1-0.1l0.2-0.4l14.8-9
					c0.2,0.5,0,1.4,0,1.8c-27.2,18.6-72.9,47.2-97.9,67.4c6.6-2.3,58.8-36,70.4-43.2c-4.4,4.7-10.9,7.4-14.5,11.5
					c0.1,0.2,2.9-1.5,3-1.6c-2.4,1.8-7,5.4-7,5.4c0.8-0.8,2.3-2.3,2.3-2.3c-1.8,1-4.7,4.3-7,6.1c0.7-1.1,2.2-3.3,3-4.2
					c-1.4,0.5-4.5,2.6-4.5,2.6c-0.1,0.4-0.2,0.8-0.3,1.2c-0.8-0.9-0.7-0.5-2.1,0.6c-0.2,0.4-0.1,0-0.1-0.1c-0.4,0.3-1.2,0.9-1.2,0.9
					c-0.2-0.8-1,0.3-1.8,1.3c-0.7-0.1-2.2,2.6-2.1,1.3c-5.6,4-19.8,15.7-22.4,17.6l0,0c-4.7,3.4-12.9,11.2-15.9,16.6
					c0.6,0.5,34.5-22,34.5-22l-0.2,0.3c1.4-1.9,13.6-8.2,15.2-9.1c-0.2,0.3-0.1,0.2,0.1,0.1c-3,2.1-5.9,4.1-8.9,6.2
					c0.1-0.2,0.4-0.7,0.4-0.7c-11.3,9.8-34.9,24-45.3,30.2c3.5-0.3,10.3-5.3,14.5-8.1c-4.6,3.1-7.7,5-12.1,7.7
					c1.1,1.2,29.3-19,33-19.5c-9.3,6.6-49,29.7-52.9,35.1c0.6,1.8,3,0.8,5.3,0.5c-2.7,1.3-4.6,0.8-7.2,2.1c0.5,1.2,5.3,1,6,1
					c-4.7,2.6-2.4,2.4-7,4.8c0.3-0.3,0.9-0.8,0.9-0.8h-0.1c0.6-0.7,1.9-2,1.9-2c-0.4,0.3,0.6-0.6,0.6-0.6c-1,0.2-17.4,2.9-18.4,3.8
					c0.2,0.7,7.5,0,4.5,3.3c1.6,1.6,3.3,3,5,4.3c-2.2,0.8-4.2,1.7-6.5,2.7c-0.2-0.4-0.4-0.9-0.6-1.1c0.4-0.4,0.9-0.8,1.4-1.2
					c-0.5-0.7-1.5-2.1-1.5-2.1c-8.4,6.4-28.3,10.6-30.8,12.4c6.1,2.3,13.2-0.1,20.9-1c0.2,3.4-23.1,14.3-23.2,14.3
					c3.1-0.9,4.8-0.9,8.6-2.2c-5.7,6.7-12.7,16-18.1,22.6c2.1-2.1,4.7-4.2,6.8-5.8c-1.1,1.2-3.3,3.5-3.3,3.5
					c-8.1,8,20.2-12.7,25.6-14.2c-0.1,0.1-0.3,0.4-0.3,0.4c-0.2,0.2,0.6,0.9,0.6,0.9c-0.1-0.2,0.4-1,0.4-1.2l-0.1,0.1
					c-0.2-0.1-0.5-0.2-0.5-0.2c0.7-0.6,2.3-2.1,1-0.5c0,0.1,0.1,0.2,0.1,0.2l-0.1,0.1c-0.1,0.1-0.3,0.4-0.3,0.4
					c0.2,0,0.4,0.1,0.6,0.2c-0.2,0.2-0.6,0.6-0.6,0.6c2.8,3.1-1.2,4.6-3.7,8.2c0.3-1,0.5-1.9,0.7-2.8c-1.1,0.1-6.9,11.2-7.6,12.5
					c2.2-3.1,6.6-9.3,6.6-9.3c-1.9,3.5-3.8,8.4-5.3,11.8c-3.4,3-3.3,3-0.5,1.1c-1.3,3.1-0.8,2.6-2.9,4.4c0.4-0.3,1.3-0.9,1.3-0.9
					c-0.6,1.9-4.6,5.2-6.1,6.6c1.6,3-6.5,5.8,1.5,1.9c0,0,1.3,1.3,1.3,1.6c-1.6,1.7-0.3,0.5,0,0.2l0.1,0.3c0.6-0.4,0.8-0.6,1.3-1.3
					c0.9-0.6,1.7-1,2.7-1.7c0.1,0.1,0.2,0.3,0.2,0.3c0-0.2,0-0.2,0-0.4l0.1-0.1c-0.1,1.3-0.1,2.4,1.2,0
					c-1.1,2.6-26.7,24.6-26.6,24.7c0-0.4,0.7-1.7,1-1.5c2.4-2.4,19.5-15.7,22.7-18.2c-2.3,3.2-4.9,6.7-7.8,9.4
					c0.2,1.6-6,14.4,0.6,4.4c3-1.2,1.7,2.3,1.8,4.2c2.2-1.6,1.4-3.6,3-5.4c1-0.3,0.8,2.9,1.3,2.7c0.2-1.7,0.6-5,0.6-5l0.1-0.1
					c-0.2,1.8-0.6,5.4-0.6,5.4c-0.1,2.2,0.6,0.2,1.2-0.9c4.9-3.9,7-3.8,10.7-7.3c-0.6,0.6-1.9,1.9-1.9,1.9c5.5-2.9,2.9-4.5,6.6-7.2
					c-0.4,0.9-0.7,1.3-1.5,1.8l0.9-0.7c-4.6,9.4-30.1,27.9-38.5,35.7c14.7-12.5,29.1-24.3,43.8-36.3c-0.6,0,4.4-8.5,5.2-9.6
					c0.8-0.6,1.5-1.2,2.2-1.8c-0.7,0.7-0.6,0.8-0.3,1c0.1,0,0.2-0.1,0.2-0.1c0,0.1-0.1,0.2-0.2,0.3c-0.2,0.8-0.4,1.7-0.6,2.6
					c0-0.1-0.1-0.3-0.1-0.3c-0.3,0.5-0.9,1.6-0.9,1.6h0.1c-2.5,4.2,4.6-4.2,3.7-3.1c-0.1,0-0.2,0-0.2,0c10.9-9.7,34.6-30,44.5-34.6
					c-7,10.7-31.1,33.8-39.9,42.7c10-9.3,26.7-23,35.3-31.6c-0.2,0.1-0.6,0.4-0.6,0.4c-2.9,2.6-1.9,1.4,0-0.4l0.1,0.1
					c2.3-2.1,17.9-16.5,19.6-17.1c-8.5,10.5-23,18.4-28.5,31.4c22.7-15.7,99.7-112.9,120-116.7c-18.9,22-79,81-101.8,103.9
					c0.5,0.2,0.9-0.4,1.5-0.9c0.1-0.4,0.7-1.2,1-1.5c-0.5,0.7-0.3,0.6-0.3,0.6c-0.2,0.3-0.4,0.5-0.6,0.8
					c16.1-13.8,28.1-23.7,42.3-39.6c-11.4,13.4-20.9,22.4-33.7,34.9c14.1-13.2,28.1-25.4,42.3-38.3c-0.2,0.3-0.4,0.5-0.6,0.8
					c1.7,0.5,4.6-2.1,2.6,0.8c0.1,0.1,0.2,0.1,0.2,0.2c-24.7,22.1-49.4,42.1-74.2,63c3.3-2.7,34.6-28.3,34.6-28.3
					c3.8-2.7,12.1-9.9,12.4-10.1c-5,4.8-15.3,14.1-15.3,14.1c-15.6,13.5-31.3,27-46.9,40.9c1.2-0.6,4.6-3.4,9.2-7.3
					c-1.3,1.1-2.4,2.2-3.3,3.1c1.2-0.7,11.8-9.6,12.9-10.6l-5,5.2c16.7-17,63.1-52.1,63-52c-17.2,15.7-58.6,53-74.9,69.9
					c25.5-23.9,57.6-57.9,83.3-76.6c-50.3,46.2,15.6-10.2,22.3-18.1c0,0,29.5-24,27.6-24.9c1.7-0.5,0.4,0.3,3.7-2.5
					c-0.2-0.1-0.6,0-0.8-0.2c0.3,0,1,0,1,0c0.6-0.5,4.4-3.7,4-4.2c1.3-1.1,3.8-3.3,3.8-3.3c-0.5-0.1-1,0.1-1.5,0.1
					c1.4-1,9.3-6.3,8.8-6.6l42.8-34.4c-0.1-0.1-0.1-0.2-0.1-0.3c3-1.2,18.2-13.9,19.2-14.7c-4.4,3.9-10.8,9-17.3,14.1
					c6.5-1.3,10.2-3,18-7.7c30.4-42.3-26,12.9-39.2,24c5.1-3.9,12.4-9.6,19.7-15.3c1.1,0.5,3.7,0.8,6.4,1
					c-12.6,10.9-34.1,32.3-34.1,32.3c11.4-8.5,35.7-32,43.3-31.7c-11.6,9.3-41.2,32.4-44.3,36c7.3-5.3,31.5-20.1,49.8-33.9l0.8,0.4
					c1.7-4.2,19-14.9,21.2-15.9c-6.9,6.7-49,39.9-55.7,43.8c4.6-4.5,13.3-11.5,17.8-15.2c-8.7,7-25.3,18-33.5,26.6
					c0.1,0,0.4,0,0.7,0c-6.5,5.3-13,10.7-19.3,16.1c10.9-8,42-23.3,48.2-31.2c-7.9,3.7-9,4.1-18.5,8.9
					c27.1-20.9,56.8-44.8,84.4-67.1c-0.5,0.9-1.1,2.4-2,3.1l0.3-0.2c-0.7,1.2-1.3,2.3-2,3.3c-1.5,0.7-3.2,1.7-5.1,3.2
					c3.8-1.5,11.8-4.8,11.8-4.8c-5.8,5-53.6,42.2-41.5,29.1c-9.7,7.8-18.9,13.8-28.3,23.2c3.2,0.9,6.1,2.2,9.5,2.9
					c8.8-8.5,8.9-9.7,11.4-11.8c1.2,0,4-0.9,5.4-1.3c-1.3,1.1-2.6,2.5-3.8,3.7c1.3,0.8-6.1,11.4-6.1,11.3c2.5,0.8,4.9,1.5,7.1,2.7
					c5.2-6,24.2-27.4,27.8-25.5c6.8-7.8,12.3-13.8,19.6-20.8c-8.2,2.4,0.1-6.3,7.9-13.4c18,4.8,36.8-27.8,56.2-46.5
					c0.3,0.8-0.8,3.1-2.5,6.1c-0.6,0.3-1.3,0.5-1.9,0.8c3-3.3,2-2,3.3-4.8c-3.1,3.4-8.8,9.3-10.7,12.8c1.8-1.9,4.5-4.8,6.6-7.2
					c0.6-0.2,1.4-0.4,2.1-0.6c-18.5,30.9-45.7,62.1-71.9,83.3c0.4-0.3,1.3-0.2,1.3-0.2c4.3-4.1,9-8.2,9.8-7.7
					c-35.1,34.7-24.9,24.3-2,4.1c-0.9,1.3-2,2.9-3.6,4.8c30.8-22.5,70.8-65.5,99.5-84.1c-1.9,2.4-21.1,24.4-21,24.1
					c-2.9,2-5.5,3.1-8.2,4.4c0.6,0.8,1.6,4.8,3.6,3.5c1.4-2.3,4-6.9,4-6.9c0.5,1.7,1.4,5.1,1.4,5.1c-2.3,2-12.1,11.8-15.2,13.4
					c0.2-0.2,0.4-0.5,0.7-0.8c-2.7,1.3-22.7,10.4-25.5,12.5c2.8-0.3,15.5-6.5,21.6-8.6c-9.5,8.6-19.7,17.8-28.9,26
					c1.7-2.1,2.7-3.3,2.7-3.3c-3.1,0.5-4.7-0.3-1-5.6c-4.3,3.7-8.9,7.7-13.5,11.5c0.9-1.9,1.9-3.7,2.7-5.1
					c-12.3,12.6-23.8,22.3-36.4,31.1c2.4,0.4,4.6,0.9,6.8,1.4c-6.6,5.6-13.2,17.8-13.2,17.8c-0.9,0.4-2.7,1.1-2.7,1.1
					c2-4.3,6-13,6-13c-0.6-1-3,2.8-3.8,3.8c0.8-6.2-4-1.2-1.6,1.8l-6.3,12.4c-3.8,2-8.9,4.8-10,5.3c1.8,0.9,2.2,1,5.5-1.2
					c-4.1,4.7-16.8,14.4-20.7,16.8c-1.1-0.9-2.6-7.3-3-9.3c-2.3,18-8.9,14.3-15.4,28.6c-3.2,1.8-5.5,3.3-6.4,4.2
					c0.3,0.4,2.6-0.4,5.5-1.6c-6.5,22.6,4.2,20.6,4.7,30.4c-7.6,4.6-14.9,9.3-16.6,10.9c1.5-0.2,8.7-4,16.8-8.6
					c0.1,2.6,0.2,5.5-0.3,8.9c-20.6,12.9-53.4,34.7-61.1,40c17.8-5.3,20.5-8.1,48.7-27.9c0.2,2.5,0.9,5.3,1.1,6.2
					c-0.1-0.7-1-4.7-1-6.2c0.8-0.5,1.5-1.1,2.3-1.6c0.6,0.6,1.6,1.6,2.8,2.4c-1,0.7-1.7,1.2-1.9,1.4c2.4-1.1,5.8,0.8,6.6-1.2
					c-0.6,0.9-0.8-1-0.8-1.9c1.2-0.7,1.2,0.8,0.8,1.9c0.3-0.2,0.7-0.9,0.7-0.9c1.3,1.4,2.3,3.4,2.3,6.1c-2.7,1.7-6.4,3.8-10.4,6.2
					l-1.4-6.2c0.2,0.9,0.5,2.6,0.5,2.6c0.2,1.1,0.9,2.4,0.6,3.8c-7.5,4.5-16,9.7-20.5,13.3c5.4-1.4,13.1-6.8,19.8-11.5
					c-2.3,3.7-14.1,16.5-17.2,19.7c-0.7-0.9-2-2.8-2-2.8c0.2,3.8,0.5,2.9,3,2.7c-0.8,0.5-1.5,1-2.2,1.8c-1.3,1.4-3.7,4.2-3.3,5.3
					c-0.6,0.6-1.2,1.1-1.7,1.7c-0.3-0.2-1.1-0.6-1.1-0.9c0.3-0.1,1.2,0.2,1.4,0.3c0.5-0.9,1.5-2.8,1.5-2.8c-0.9,0.7-2.7,2.2-2.7,2.2
					c-0.4,0.8-1.4,2.6-2,3.9c-1.5,1.3-2.9,2.6-4.3,3.7l0,0c-0.3,0.2-0.8,0.6-0.8,0.6l-0.1,0.2c-5.1,4.1-10.8,8.1-19.2,14.6
					c5.1-1.4,15.5-4.2,15.5-4.2c6.4-4.1-2,13,36.2-23.5c-0.1,1.1-0.2,2.3-0.2,3.5c5.3-6.6,5.9-4.8,6.8-2.3
					c-5.9,5.5-10.4,11.9-15.8,18.5c13.3-11.9,25-21.6,38.3-31.7c0-4.6,10.7-15.8,22.4-26.9c0.6,0.9,0.9,2.1,1.1,3.3
					c7.8-5.8,16.9-11.3,24.5-19.1c-1.6,3-4.8,9-4.8,9c5.5-3.5,9.5-9.8,14.6-13.6c0.7,0.6,2.2,1.7,2.2,1.7
					c7.6-5.1,29.1-30.6,30.9-29.3c1.2-1,2.7-2.3,4-3.4c-10.1,9.5-22.3,28-34.3,35.4c0.4,0,0.9,0,1.3,0l-19.3,19
					c2.2-1.3,6.4-3.9,6.4-3.9c2-2.9,3.1-3,5.1-4.4c-0.5,0.6-1.3,1.7-1.3,1.7c-0.5,0.1-1.2,0.2-0.2,0.1c-0.6,0.6-1.3,1.1-1.9,1.6
					c6.1-3.8,18.4-11.4,18.4-11.4c-1.6,1.4-4.6,4.2-4.6,4.2c0.1,0,0.2-0.1,0.2-0.1c-2.2,2-6.5,5.8-6.5,5.8c10.7-6.4,32-19.3,32-19.3
					c-33.9,29.9-3.7,7,4.9,1.7c-5.3,4.7-16.1,14.3-16.1,14.3c-5.6,3.3-7.5,1.5-13,5.8c3.3-0.9,10-3.1,10-3.1
					c-3.7,3.1-49.5,38.5-36,24c-8.9,6.9-17,11.7-25.7,20.3c2.7,1.4,5.1,3.1,8,4.3c8-7.5,8.2-8.9,10.4-10.8c0.6,0.2,4.1-0.5,4.7-0.6
					c-1.2,1-2.4,2.2-3.4,3.4c1.1,1-5.9,11.1-5.9,11c2.1,1.2,4,2.3,5.9,3.7c4.6-5.3,22-25,24.9-22.5c6-7,10.9-12.3,17.4-18.5
					c-9.4,1.6,20-20.7,20-20.7c1.6-2.6,3.4-4.7,5.2-7.2c-33,24.3-8.1,3.3,5.2-12.6c-0.2,0.2-0.4,0.5-0.7,0.7
					c4.9-6.2,14.8-18.5,14.8-18.5c-0.2,0.1-0.6,0.4-0.6,0.4c1.9-2.3,5.5-6.9,5.5-6.9c-13.9,8.6-16.8,6.8-4.6-5.1
					c5.1-1,13.5-0.9,20.1-5.5c-34.6,32.4-34,40.2-45,57.5c3.5-1.1,10.4-3.1,10.4-3.1c6.5-6.2,14.6-21.1,24.1-30.4
					c0.9,3.3-14.5,24.4-14.5,24.4c-16.6,24-30.3,41-50.6,57.2c0.3-0.2,1.1,0,1.1,0c4.1-4,7.8-7,8.4-6.5l-22.7,22.5
					c6.9-6.3,13.9-12.5,20.8-18.6c-0.8,1.2-1.8,2.7-3.2,4.4c0.5-0.4,1.2-0.8,1.9-1.4c-2.3,2.5-4.4,4.9-4.4,4.9
					c19.4-18.6,30.6-24.6,45.4-25.1c0.1-1.2,0.3-3,0.5-4.4c4.9-1.7,6.8-0.8,10.9-5.8l-10.8,4.1l0.1-0.8c-2.4,1.1-5.8,2.8-8.9,4.2
					c6.2-4.2,11.6-9.4,17.7-15.9c5-0.8,10.3-1.1,16.2-3.6c0.5-0.2,1.1-0.5,1.7-0.9c0.1-0.3,0.2-0.9,0.2-0.9c-2.1,0-4.1,0-6.3,0.2
					l7.9-3.9l-0.8,1.1c1.4-0.6,3.1-1.3,4.9-2c-14.8,15.7,7.7-2.8,16.5-6.2c0,0.1-0.1,0.1-0.1,0.2c1.2-0.7,2.2-1,3.2-1.4
					c-0.1,0.2-0.2,0.4-0.3,0.7c1.4,0.2,4.1,0.7,4.1,0.7c0.7-0.9-0.1-1.1,0.9-2.4c-0.8,0.1-1.4,0-2.1,0c3.7-1.5,3.2,0.9,4.9,2.8
					c-1.4,2.2-2.9,4.3-3.8,5.7c-1.6,0-3.1-0.1-4.2-0.1c0.4-0.5,0.7-0.9,1.1-1.4c-2,1.7-4,1.3-4.3,1.3
					c-10.7,10.7-18.6,15.7-29.4,27.1l1.7-1.1c-9.5,11.6-39.9,28.5-14.4,5.1c-1.5,1-3,1.9-4.3,2.6c0.3-0.2,0.8-0.7,1.1-1
					c-7.5,7.1-14,12.5-21.5,19.9h-0.1c5.3-5.4,16.8-16,19.3-19.2c-6.8,5.5-22.7,20.9-30.8,28.4l-0.1-0.5l15.8-20.1
					c-2.7,0-3.7-1.3-0.5-6c-12.7,11.1-28,23.1-40.6,31.5c1.7,0.7,3.3,1.4,4.7,2.2c-0.7,0.7-6,5.9-7.5,7.4c-0.8-2.5-1.9-4.6-3.4-6.7
					l0.2,0.1c-0.1-0.1-1.1-1.2-1.1-1.2c0.3,0.4,0.6,0.8,0.9,1.1l-3.8-1.8c0.4,0.5,2.9,3.2,2.1,4.4c-0.7,0.6-2-0.5-2.3-0.7
					c2,2.3,3.4,4.7,4.2,7.6c-3.7,3.5-7.3,7-11.1,10.5c0.3,0.8,0.5,1.7,0.5,2.6c-2.8,1.3-5.5,2.7-6.2,3.1c1.7,1.5,2.1,1.1,6.2-1.4
					c-0.2,2.7-1.1,5.9-2.6,9.6c0.3-0.6,0.8-1.2,1.3-1.7c3.9-9.7,13.5-5.2-0.1,0.9c-0.5,1.2-0.9,2.7-1.6,3.6c0-0.6-0.4-0.1-0.4-0.8
					c-1.5,1.1,0.3,1.3,0.3,1.3c-0.4,0.1-1.1,0.2-1.1,0.2c-0.6,0.8-0.6,0.9-0.7,1.6c1.9-1.6,15.5-13.1,15.3-13.1l0.4-0.3h0.5
					c-0.7,6.3-2.9,14.1-5.8,21.9c-7.7,7.7-12,13.3-19.6,22.2c4.8-2.7,9.2-5.6,14.1-9.8c-5.3,10.6-12.3,21.9-20.3,32.2
					c-1.2,0.6-2.7,1.5-6,3.8l-0.1,0.1c-4.1,4.6-4.5,7.2-7.1,10.1c-0.5,0.1-0.2-1.4-0.1-1.9c-4.2,7.9,11.5-9.6,13.4-12.1
					c1.2-0.6,2.1-0.9,4-2.3c-4.8,6.5-13,15.2-17.5,20.9c4.4-2.4,9.3-5.6,13.6-7.4c13.6-16.2,28.7-30.9,42.3-45.2
					c-2.8,3.7-2.4,2.6-5.1,5.2c0.4-0.1,1.9-1,2.5-1.3c-0.8,1-2.4,2.9-2.4,2.9c9.9-9.3,19.6-18.4,29.5-27.5c-2.4,2.8-7,8.3-7,8.3
					c0.2-0.3,0.6-0.9,0.6-0.9c-2.6,3.1-7.8,9.4-7.8,9.4c29.6-24.7-12,13.9-15.5,17.5c2.9-2-19.2,21.2-16.1,22.6
					c8.7-0.9,122.3-101.3,37.1-52.6c2-1.7,10.7-8.5,6.8-5.9c3.5-2.9,10.4-8.5,10.4-8.5c-8.3,4.9-58.1,52-58.1,52
					c-7.4,6.1-11.1,9-13.3,10.5c8-10.8,15-22.4,20.2-33.4c4.4-3.7,8.2-6.1,12.2-7.8c1-1.2,1.7-2.3,2.7-3.3c-2.5,1.4-7.3,4-7.3,4
					c2.7-2.1,8-6.1,8-6.1c-0.5,0.1-1.2,0.3-1.9,0.8c13.6-11.1,5.8-6.7,16.3-18c-0.8,0.6-3.1,2.2-3.1,1.3
					c-12.8,10.8-13.8,9-21.6,16.4c2.3-6.4,3.9-12.5,4.8-18c4.9,0.1,9.6,0.8,15.2-0.2c-3.1-1.6-10.5-2.2-14.8-2.6c0-0.2,0-0.3,0-0.5
					c3.8-3.1,7.8-5.9,11.6-8.6c-2.8-4.4-4.2-8.6-5.1-14.8c1,0.5,2,1,3,1.6c3.9-4.2,5.9-5.5,8.5-7c0.2,0.9,0.3,1.9,0.3,1.9l0.3-0.2
					l-0.9,1.1c-1.4,0.3-3.4,0.6-4.9,1.1c0.6,0.1,3.8-0.7,3.8-0.1c-1.2,1.3-2.4,2.6-3.7,3.8c2.6,1,5.2,1.7,8.1,2.2v0.2
					c1.7-1.1,5.6-0.6,8.1-2.2c-1.1,1-3.2,3-3.2,3c1,0,4.4,0.1,7-0.1l-0.5,3.1c0.7-1.1,2.4-3.1,3.1-3.6v-0.1c0.2-0.2,0.3-0.4,0.5-0.6
					c-0.1,0-0.3,0.1-0.6,0.1c0.1-0.4,0.5-0.4,0.6-0.4l0.3-0.3v0.1c1.4-0.4,2.7-0.8,3.9-1.2c0.5-0.8,1.1-1.3,1.2-1.9
					c-1.4,0.5-2.7,1.3-4,1.7c0.5-0.5,1.6-1.6,1.6-1.6l-0.8,0.5c4.8-5.7,10.2-13.1,15.2-15.9c0-0.2,0.1-0.6,0.1-0.6l-1.3-0.1
					c3.4-3.9,6.6-7.9,10.1-11.8c-0.4,0.2-0.8,0.4-1.2,0.5c3.9-2.9,8.4-6.1,10-7.2c-2.3,2.5-4.7,5.6-6.8,8.3
					c9.9-7,13.4-9.4,23.4-18.9c-1.1,1.4-3.4,4.2-3.4,4.2c4-2.9,15.5-12.1,17.6-11.4l-0.2,0.2c0,0.1-9.5,7.1-9.5,7.1l0.1-0.1l-3,2.7
					c-0.5,0.8-3.7,6.5-1.7,4.9c-0.2,0.9,1.2,0,1.2,0c7-4.6,16.9-8.4,19-13c1.5,0.4,2.8,0.8,3.8,1.1c-22.4,19.5-27.1,25-47,43.3
					c1.3,15.4,14.1-0.1,35.7-19.8c-8.3,13.6-29.9,31-29.8,38.6c1.3-0.3,4.7-1.8,6.3-3l-5.8,6.7c-6.4,6.4-7.5,11.5-12.9,17.8
					c2-1.5,6-4.3,6-4.3c-0.3,0.4-1,1.2-1,1.2l0.1-0.1c-1.7,1.9-1.9,2.4-3.3,3.6c1.9-1.6-6.5,6.7-6.5,6.7l0,0
					c-0.3,0.2-0.6,0.4-0.8,0.7c0.1-0.2,0.2-0.3,0.4-0.5c-2.6,2.2,2.5-7.5,2.5-7.5c1.3-0.8,4.7-3,5.9-4c-0.9,0.2-4,2-5.2,2.7
					c2.1-4,2-7.5-2.1,1.2c0.1-0.1,0.4-0.3,0.4-0.3c-0.2,0.2-0.5,0.7-0.5,0.7c0.1-0.1,0.2,0,0.2,0c-0.7,1.1-4.9,8.9-2.9,7.5
					c-0.3,0.3-0.9,1-0.9,1s0.2,0.1,0.3,0c-0.3,0.5-0.6,1.1-0.9,1.6c-8.3,6.1-27.2,24.3-33,30.9c4.2-3.1,12.7-9.1,12.7-9.1
					c-0.3,0-0.7,0-1.1,0.2c0.7-0.7,5.3-4.9,5.5-4.3c-4.7,7-16.8,18-22.8,24.7c8-6.5,13.4-10.7,21.9-18.1c-0.6,2.9-1,5-1.9,7.9
					c4.8,0.1,9.4,0.5,13.9,1.1c-1.9,1.4-2.3,2.6-1.7,3.4c-0.7,0.5-12.9-1.2-15-1.3c1.3,6.9,9,19.3,11.8,24.9
					c0.5-1.1,1.1-2.2,1.8-3.2c1.9-1.3,5.6-3.8,5.6-3.8c-0.8,1.2-2.4,3.6-2.4,3.6c-0.8,0.1-2.6,0.4-3.5,0.7c0,0.2,2.6,0,3,0
					c-1.1,1.6-2.4,3.3-3.7,4.7c3.8,7.4,7.1,15,10.3,23c0.4-4.5-0.1,2.3,1,1.9v0.2c0-0.7,0.3-2.4,0.3-2.4c0.8-5.1-6.3-11.9-5.4-16
					c1.1-0.1,6.3,8.3,7,9.4c0.2-0.6,0.7-2.1,1.2-2.7l1.2,6.5c0.3-0.6,1.2,2.2,1.3,2.4c0.1-0.5,0.2-1.5,0.2-1.5
					c0.7-1.3,0.2-0.7,0-0.5c1-4.9,0.9-0.6,0.9-0.6c-0.3,0.9-1,2.6-1,2.6c2,3.3,3.9,7,6.3,10c0.6-0.7,0.1-0.3,0-0.2
					c0.2-0.7,0.6-2.5,1-3.1c0.4-0.3,0,1.3,0,1.3c-0.3,1.1-0.2,1.4-0.7,2.5c2.4,2.3,2.9-5.3,4.4-7.8c11.8-3.2-1.3-8,26.2-32.5
					c0.2-3.4-1.6-0.6,2.9-6.7c1.1,0.3,8.6-6.7,10.9-8c-0.8,1.2-1.7,2.1-2.7,3.1c0.6-0.5-1.2,1.2-1.2,1.2s0.1,0.2,0.1,0.1l-0.1,0.1
					c0.1,0.6-0.8,2.5-0.8,2.5c4.7-4,8.6-10.3,11.9-15.6c-0.9,0.9-2.6,2.7-2.6,2.7c3.8-6.5,5.1-6.9,6.9-10.1
					c-0.4,0.2-1.3,0.6-1.3,0.6c0.6-0.9,1.9-2.7,1.9-2.7c-0.8,0.9-2.5,2.6-2.5,2.6c-1.5,0.5-4,1.2-5.7,2c1,0,3.5-0.7,4.7-1
					c-21.7,22-13.1,8.7,1.5-5.5c0.1-0.5-3.1,0.6-3.5,0.7c-0.4,0.6-1.1,1.9-1.1,1.9c-0.8,0.6-2.2,1.7-2.5,1.9l0,0
					c-0.2,0-0.5,0.2-0.6,0.1c10.5-16.6,23.1-39.9-2.8-14c0.5-0.9,1.5-2.7,1.5-2.7c-5,4.2,4-6.7,4-6.7l0.2-0.1
					c-3.6,2.2-11.2,13-11.4,13.3c0.9-0.7,2.7-2.1,2.7-2.1c-0.1,0.1-0.3,0.4-0.3,0.4c-1.3,0.6-0.3,0.2-0.1,0.1
					c-0.2,0.1-0.3,0.4-0.4,0.6c1.5-1,4.4-3.1,4.4-3.1c-0.3,0.4-1.3,1.5-1,1.2c-0.8,0.8-2.3,2.5-2.3,2.5l0.1-0.1
					c-0.4,0.5-0.9,0.9-1.4,1.3l0.1-0.1c-13.6,14.1-4.6,3.8-0.9-2.6c-0.3,0.4-1.6,2.1-2,2.3c1.9-4.7,6.8-8.6,10.3-12.1
					c-1.6,1.3-4.6,3.8-4.6,3.8c0.4-0.8,1-1.7,1.5-2.4c-0.8,0.6-1.4,1.1-2.2,1.5c-1.2,1.7-3.5,4.3-4.9,5.5c-0.2,0-0.3,0-0.2-0.3
					c-0.3,0.4-6.2,7.8-4.3,4c-0.4,0.2-1.2,0.6-1.2,0.6c-0.6,0.4-2.4,2-2.8,1.9c0.5-1.3,4.1-4.1,5.2-4.8c-0.1,0.1,1.5-0.7-0.6-0.4
					c2.9-4.6,8.8-10.7,4.5-3c3.5-5.3,12-13.6,12-13.6s10.4-17.1,8.4-11.9c1.1-0.8,3.2-2.5,3.2-2.5c-1.4,1.9-3.8,3.7-3.8,4
					c0.4-0.1,1.1-0.4,1.1-0.4c-2.3,3-3.7,5.4-5.3,8.5c0.9-0.6,2.7-1.7,2.7-1.7c2.5-3,7.6-10.6,9.3-13.8c-1.1,0.4-3.3,1.3-3.3,1.3
					c-0.7-1.1,4.3-6.9,5.6-8.9c-1.3,1.6-3.8,4.6-3.8,4.6c3.7-5.5,8.8-10.5,11-13.8c-1.6,1.2-4.7,3.8-4.7,3.8
					c0.9-1.3,2.8-3.9,2.8-3.9c-3.2,3.1-5.9,5.9-9.2,8.7c-0.4,0.8-1.4,2.3-1.4,2.3c2.6-1.8-2.6,6-3.4,7.4c-1.9,1.3-7.1,7.2-9.1,9.5
					c3.1-5.2,5.8-9.6,9.6-14.9c-1,0.9-3.1,2.6-3.1,2.6c4.2-8,8.1-10.7,14.4-15c2.2-3.5,3.4-4.6,1.6-1c0.5-0.3,1.5-0.9,1.5-0.9
					c1.6-2.5,8.7-12.7,12.2-17.3c0.4-0.2,0.8-0.4,1.1-0.7c-2.1,4.8-12.1,20.5-14.4,23.5c1.9-3.7-6.6,6-4.9,6.8
					c12.1-11.8,45.7-33.4,45.7-33.4c-0.8,0.6-2.4,2-2.4,2c4.8-8.1,2.2-4.3,10.2-12.3c-0.5,1.3-5.6,9.6-6.8,11.7
					c0.6-0.3,1.7-0.8,1.7-0.8c-2.6,2.5-8.1,7.9-6.9,6.1c-0.3,0.1-1,0.4-1,0.4c0.1-0.1,0.3-0.4,0.3-0.4c-0.6,0-4.6,0-5.3,0.3
					c0.1,0.1,4.2,1.2,4.9,1.5c-0.1,0.1-3,2.9-3,3l3.4,0.8c-4.1,3.8-6.3,6.4-8.9,9.7c1.3-2.4,1.4-2.8,3.4-4.7
					c-2.1,1.8-5.8,2.9-5.8,2.9c-2.7,4.8-3.8,5.4-5.3,7.9c0.1,0.4,0.2,0.7,0.2,1.1c-0.6,0.1-3.2,0.3-3.8,0.6c-0.2,1,6.3,0.7,6.3,0.7
					c-0.5,0.5-1.1,1-1.6,1.4c0.7,1.4,2.2,1.1,2.6,1.5c-0.3,0.1-1.7,0.3-2,0.3c-5.9,11.3-4,13.6,1.1,3.5c1,3,2,5.7,3.2,8.5
					c0.3-0.2,1.2-1.3,0.4-0.7c0.3-0.5,1.6-2.6,1.5-1.8c1.6-2.2,2.4-4,2.4-4c0.1,0.1,0.4,0.4,0.4,0.4c5.3-6.4,5.4-5.7,1,1.2
					c1.7,2.5,3.2,2.5,1.8,3.1c2.3-3.1,1.1,0.1,1.1,0.1c-0.7,0.9-2.2,2.7-2.2,2.7c0.1-0.3,0.4-0.9,0.4-0.9c-2.8,4.1-4.4,4.5-3.8,1
					c-0.5,0.7-1.6,2.2-1.6,2.2c26.3,14.5,10.5-37.3,61.4-81.3c0.8-1.1,8.7-10.7,8.9-11c-4.5,1.7-6.8-2-9-3.6
					c-0.6,1.1-1.2,1.8-1.9,2.9c-3.8,1.4-19.9,14.7-20.8,12.3c1.8-2.7,21.7-22.5,20.9-20.8c2,1.2,6,3.5,6,3.5
					c6.1-7.5,10.9-10.2,16-12.4c0-0.8,0.1-2.4,0.1-2.4l-3.9,2.1c11.5-13.7,15.3,20.6,55.3-36.1c-1.1,1.1-3.3,3.3-3.3,3.3
					c5.1-6.8,5.3-8.2,9.7-11.2c-4.3,0.8-6.3,0.7-11.4,8.6c1.9-1.9-3.7,6.7-10.8,10.9c2.3-3,4.6-5.9,7-8.8c-1.2,0.8-2.2,1.4-3.2,2.1
					c4-4.9,7.5-9.2,10.6-12.7c4.2-0.4,8.2-1.2,11.8-2.2c-1.6,1.2-7.2,6.6-7.7,7.1c-0.3,0.6-0.7,1.8-0.7,1.8c6-5.2,16.4-9.3,18.3-10
					c-10,9.1-7.6,2.8-15,7.4c1.4,0.4,4.7,0.3,6.4,0.3c-1.4,1.2-13,9.6-13,9.6c-4.2,3.5-10.4,8.1-14.4,13.3
					c7.6,0,41.3-24.8,41.3-24.8c2.1-4.1,6.4-9.7,4.6-6.4c3.4-3.3,12-13,5.5-2.7c0.8,0,1.3,2.2,2.2,1.2c1.2-5.9,4.8-6.8,5.7-8.3
					c-1.3,0.2-7.9,2.7-9.4,3.1c-3.5,4.5-4.6,5.3-8.1,9.3c0.4-0.2-0.2,0.3-0.4,0.5c-0.5-0.1-4.6,4.7-5.8,5.8c0.9-1.2,6.1-7.6,6.2-8.2
					c10.7-13.5,16.4-15.7,27.4-24.1l0.3-1.1c7.5-5.9,20.3-14,29.5-22.1c-0.4,0.5-1.1,1.5-1.1,1.5c-0.2,0.1-2.1,1.2-0.7,1
					c-0.3,0.2-1,0.8-1,0.8c0.7-0.2,1.3-0.2,1.8-0.3c-2.3,2.7-10,8.6-11,11.5c1.3,0.2,7.9-5,9.7-6.4c-15.6,18-2.8,11.9,2.5-4.4
					c0.2,0.1,0.3,0.2,0.4,0.3c0.4-0.5,0.7-0.9,1-1.3c0.6-0.1,1.2-0.2,1.8-0.3c-0.8,0.7-1.5,1.4-2.3,2c5.2,5.1,4.3,6.3,13.8-3.8
					c1.9-0.3,3.8-0.4,6-2.2c-0.4,0.5-1.1,1.5-1.1,1.5c1.6-0.4,4.1-1.1,5.5-1c-1.7-1.5-4.7-1.4-7.9-1c3.5-3.5,6.9-6.8,11.3-10.8
					c-4.3,3.1-7,5.8-3.8,1.5c-1.6,1.4-9.7,8.5-9.5,7.7c-0.7,0.8-1.4,1.6-2,2.3h-0.3c-1.3,1.3-2.3,2.4-3.4,2.9c0-0.3,0.6-1.1,1.9-2.8
					c-0.3,0-0.5,0-0.8,0c0.5-0.1,1.7-0.9,1.8-0.9c-0.6,0-1.2,0.1-1.9,0.3c0.7-1,3.4-4.5,3.8-3.9c2.5-3.5,7.7-8,2,0.5
					c3-3.7,7-7.9,10.7-11.3c22.7,2,19.9-11.6,42.9-32.8c0.3-2.1,0.9-5.2,1.3-7.7c1.4-1.3,2.8-2.6,4.1-3.8c4.5-0.6,11.6-1.6,18-3.1
					l-2.1,2c0.9-0.3,2.6-0.8,2.6-0.8c-2.1,2-6.2,5.9-6.2,5.9c-0.5,0-0.8-0.3-1.3,0.1c1.8-2.1,3.3-3.1,2.5-3.6c-2.7,2.1-5,3.4-7,3.4
					c-1.4,2.3-10.4,17-12.4,17.6c0-2.3,9.6-16.9,11.4-19.9c-7.1,7.4-13.1,15.1-15.1,22.9c8.3,2.2,24.6-15.5,32.6-20.7
					c-1-1,5.2-6.4,5.2-6.4c2-0.4,5.9-1.3,5.9-1.3c-0.9,0.9-2.8,2.6-2.8,2.6c2.6-1.4,2.9-2.7,5.2-5.8c2.3-9.8,2.7-11.6,4.5-5.5
					c0.4-0.5,1.8-2.3,2-1.8c0.3-0.1-0.1,0.2,0.3,0.2c-2.4,3.5-7.6,11-7.6,11c1.7-0.9,5-3,5-3c0.1-0.4,0.2-0.9,0.4-1.3
					c4.4,3.1,71.3-55.1,79.1-70.5c4.8-3.3,8.9-5.9,13.2-7.7l3.5-1.8c3.9-4.2,9.9-9,4.4-2.7c-0.7,0.3-3,1.4-3.8,1.9
					c8.8,0.7,22.5-11.7,32.5-18.4c-0.4,0.5-1.3,1.4-1.3,1.4l0.2-0.1c-1,0.9-2.9,2.8-2.9,2.8c-0.3,0.2-0.7,0.6-0.9,0.9
					c5.8-3,17.3-9.1,21.7-13.9c-4-0.6-12.2-1.6-12.2-1.6c-21.2,18-9.7,6,6.1-5.3c1.5,0.5,3.6,1.2,3.6,1.2c2.9-3.1,8.1-4,8.1-4
					c-0.9,0.9-2.7,2.7-2.7,2.7c-0.8-0.3-2.3-0.9-3.2-1c-0.1,0.3,2.3,1.4,2.7,1.6c-0.6,0.6-1.4,1.3-2,1.8c1,0.3,2.9,0.9,2.9,0.9
					c7-7.3,11.2-11.6,17.5-17.7c-4.6,3,18.4-18.1,25.3-26.3c9.2-4.1,6.2,1.2-14.2,17.8c0,0-0.9,6.2,11.1-6.7c-2.4,2.4-5.8,4-8.3,5.6
					c4.7-4.7,5.2-3.1,9.1-6.6c-1.3,0.5-2.9,1.3-4.1,2c25.8-23.1,52.4-43.2,78.6-64.9c-20.4,23.1,5.9-2.1,1.4,4.6
					c1,5.5-46.2,39.3-46.2,39.3c3.7-2.1,7.3-4.1,11-6.1c-10.7,11.4-11.3,12.4-17.5,18.6c26.7-19,58.9-54.7,85.6-79.8
					c-3.1,2.1-9.2,6.2-9.2,6.2c-2.7,3.4-4.4,4.1-7.3,6.1c0.6-0.7,1.8-2.1,1.8-2.1c0.8-0.3,1.7-0.6,2.6-1c-0.7,0.2-1.5,0.5-2.3,0.8
					c0.9-0.8,1.8-1.6,2.7-2.2c-8.8,5.9-26.4,17.6-26.4,17.6c32.9-28.6-16.8,7.6-30.5,16.2c8.6-7.1,25.9-21.6,25.9-21.6
					c-11.1,7.3-33.2,21.6-33.2,21.6c21.7-18.1,24.4-15.7,41.4-29c-4.7,2.1-14.4,6.5-14.4,6.5c7.7-6.3,64.2-49.2,50.8-35.5
					c11.9-9.5,23.6-17.4,35.3-28.8c-4.2,0-8.2-0.5-12.4-0.4c-15.4,14.4-10.8,12.5-20.7,16.2c1.6-1.3,3.1-2.9,4.5-4.4
					c-1.7-0.5,7.3-12.3,7.2-12.2c-3.2-0.2-6.1-0.5-9-1.2c-6.4,7-29,31.1-33.6,29.6c-8.2,8.8-15,15.6-23.7,23.2
					c13.6-4.6-20.4,23.4-27.8,26.1c-15.2,20.6,10.8-7.3,18.2-6.3c-1.9,5.5-26.1,22-32.4,28.6c0.3-0.3,0.6-0.6,0.9-0.9
					c-4.2,4.6-11.2,12-15.9,17c-0.3-1.2-0.7-2.4-1.1-3.4c16-17.9,19.2-23.2,30.1-37.8c-4.9,2.1-14.8,6.1-14.8,6.1
					c-6.4,5.5-13.6,15.2-21.8,24.4c-0.2-0.1-0.4-0.2-0.6-0.2c1.2-1.3,2.2-2.6,2.8-3.5c-1,0.9-2.2,2.1-3.5,3.3
					c-0.8-0.3-1.8-0.5-2.8-0.6c24.5-32.7,53-62.7,81.7-84.8c-0.5,0.3-1.6,0.4-1.6,0.4c-4.1,4.2-10.9,9.1-11.5,8.8
					c10.2-9.4,20.3-18.9,30.5-28.4c-9.4,8.3-18.7,16.2-28,24.1c1-1.4,2.4-3.1,4.1-5.2c-25.5,18.1-57.2,39.8-84,64.6
					c0.2-1.4,4.1-10.8-1.7-1.4c-1.3,0.9-3.6,1.9-3.6,0.5c3.2-3.4,1.5-3.2,0.2-4.4c2.9-4.8,8.7-14.4,8.7-14.4
					c19-14.5,31-29,35.4-15.5c2.3-15.2,12.9-25.3,28-38.4c-7.7,8.7-23.2,26-23.2,26c3.3-0.7,5.5,0,0.9,5.8
					c17.6-14.3,37.9-29.9,55.2-41.8c-3.8-0.2-7.5-0.6-11.1-1.3c-7.5,7.5-10.1,8.1-17,12.5c2-2.1,5.8-6.1,5.8-6.1
					c2.1-0.7,4.6-1.5,6.7-2.4c-0.9,0.1-5.1,1.7-5.3,1.2c1.6-1.6,3.2-3.1,4.8-4.7c-6.2-0.3-13.4-1.6-22.2,4.1
					c1.4-1.2,4.2-3.6,4.2-3.6c-0.7,0.1-2.4,0.4-4.1,0.8c1.3-21.1-10.5-1.8-8.9-23.3c0.7-0.4,1.3-0.8,1.8-1.1c0.7-2,0.9-3.1,0.8-4.4
					c-0.6,0.4-1.3,0.8-2.1,1.4c0.1-0.3,0.1-0.7,0.2-1c12.6-7.2,16.7-7.4,13.6-17.8c4.5,16.4-8.6,1.4-10.8,6.6c1-1.1,1,1.7,1.1,2.1
					c-0.9-0.4-1.7-0.2-1.1-2.1c-0.3,0.3-0.6,0.7-0.9,1c-9.6-6.9,10.1-27.3,9.8-41c-8.4,9.5-16.9,1.7-27.8,15.2
					c3.2-1.1,6.4-2.1,9.7-3.2c4.4-9.2,12.2-4.1,12.2-4.1c2-0.1,2.9-1.2,4-1.5c-4.2,3-16.4,5.6-16.4,5.6c-0.3,0.7-0.9,2-0.9,2
					c-3.5,1.4-10.2,6.8-10.2,6.8c-5.8,11.3-23.8,26.7-24.8,28c-0.1-0.2-0.3-0.5-0.5-0.8l0.1-0.1l1.2-1.3c1.5-2.3,5.7-9.8,4.5-5.1
					c11.9-13.7,5.6-5.1,11-9.7c0.9-1.8,1.7-5.8,2.2-6.7c0.4,0,0.5,1.1,0.6,1.5c1.1-4,0.9-3.2-2.1-3.4c1.4-3.3-3.8,0.9-5.9,1.5
					c-3.4,8-6.9,13.8-13,21.8c-1-0.8-5.3,2.8-5.3,2.8c-0.5-0.5-0.9-1-1.2-1.7c0.4-0.5,0.8-1.1,1.3-1.8c-0.2,0.2-0.6,0.5-0.6,0.5
					c26.1-41.3-15.8,6.2-30.6,19.7c6.4-10.2,16.2-17.4,21.2-25.2c-1.8,1.5-10.8,9.1-7.1,6.5c-7.7,9.4,3.3-5.9,4.8-8.3
					c12.9-9.3,20.9-19.9,32.9-27.9c-0.9,0.5-1.9,1.2-2.8,1.6c25-19,61.5-47.4,85.4-69.8c-1.3,0.6-3,1.3-4.7,2
					c3.8-3.3,7.1-6.1,10.9-9.5c2,0.4,26-19.3,30.3-22.4c-1.5,0.2-3.4,0.7-5,1c2.1-1.7,4.1-3.3,6.2-5c-2.2,1-10.7,6-10.7,6
					c-1.2,1.1-6.5,5.9-7.8,6.1c0.3-0.9,4.4-4.9,5.1-5.6c-1.8,0.7-3,1.4-3.9,2.1c11-11.7,21.7-22.4,33.2-33.5
					c-3.1,2.1-11.6,8.4-14,8.1c5.7-9.9,65.2-60.3,77.4-71.1c-0.4-0.8-0.9-1.5-1.5-1.9c6.6-5.4,10.4-7.9,13.6-13.3
					c17.6-6.3,13.3-9.3,4.2-5.6c0.6-0.6,18.2-20.7,18.2-18.7c5-5.2,9.4-9.6,14.2-13.1c-0.8,1.2-2.4,3.4-2.4,3.4
					c-0.6,0.6-1.7,1.8-1.7,1.8c2.2-1.3,6.4-3.7,6.4-3.7c0.3-1.2-1.4,0.1-2.4,0.6c0.9-0.9,2.5-2.1,3.5-2.9c0.2-0.6,0.4-1.7,0.6-2.3
					c2.8-2.2,5.7-4.6,9.8-8.1c1.1-0.1,5.4-4.9,3.4-1.2c0.2-0.1,1.1-0.7,2-1.3c-0.1,0.1-0.2,0.2-0.3,0.3c9.3-5,12.8-5.8,22-14.4
					c-5.6,3.3-9.9,5.3-14.8,8.8c0.4-1,2-2.5,2.8-3.2c-4.3,3.2,1.2-2.3,2.2-3.1c-0.1-0.7,0.1-1.5,0.5-2.5c-3.8,5-7.4,8.2-11.4,12.7
					c1.7-2.8,6.9-6.9,7.4-7.8c-1.2,0.9-3.3,2.6-4.5,3.5c1.5-1.8,9.5-10,9.5-10c1.1,0,3.5,0.4,4.8-0.4c-1,0.7,0.5,0.2,0.5,0.2
					c3.2-3.1,6.2-6.1,9.4-9.2c-7.6,3.9,7-6.4,7.5-6.9c-11.8,6.2,5.6-7.5,7.7-8.6c-1.3,2.2-5.5,6.4-7.2,8.2c5.7-3.5,9.3-7.1-2.8,6.5
					c0.7,0.4,1.1,1.3,0.5,2.9c-7.6,3.7-10,7.8-17.6,14.2c0.1,0.6,0.2,1.8,0.2,1.8c-4.7,2.1-4.8,1.6-10.1,5.8
					c0.2-0.1,0.5,0.5,0.5,0.5c-1.2,1-3.7,2.9-3.7,2.9c7.6-3.5,10.3-5.9,18.1-11.7c-6,5.9-6.7,5.7-12.3,9.6c1.4-0.6,4.1-2.3,5.8-3.2
					c-0.8,0.7-2.4,2.2-2.4,2.2c5.5-1.9,6-1.3,10.1-5.2c0.9-2.9,2.8-8.7,2.8-8.7c0.3,0,0.9-0.2,0.9-0.2c6-6.6,9.1-8.5,15.2-13
					c-1.4,1.4-4.1,4-4.1,4c-1.6,1-3.8,2.3-5.3,3.4c1.2-0.6,3.3-1.8,4.5-2.6c-3,2.8-6.4,5.8-9.4,8.2c2.7,0,4.4,0.1,5.1,0.5
					c-14.6,12-7,7.9-21.8,22.1c1-0.7,5.3-3.9,5.5-3.2c27.9-22.7,43.9-33.2,69.8-61.3c-1,0.6-2,1.2-2.9,1.8h0.1
					c-2.7,2.1-6.3,3.7-9.1,6c0.4-0.5,0.7-0.8,0.7-0.8L667,905.2c-4.1,4-7.6,5.7-13,9c1.6-1.4,3.3-2.4,4.8-3.4
					c-0.2,0.2-0.6,0.6-0.6,0.6c1.2-0.7,1.6-0.8,2.8-2c-12.6,6.5,13.1-12.9,13.1-12.9c0.1,1-4,5.4-4.9,6.4
					c8.3-8.4,31.7-27.8,31.7-27.8c3-2.9,8.7-8.5,8.7-8.5c-0.6,0.3-2.6,2-1.7,0.7c-0.6,0.3-1.7,0.8-1.7,0.8c3.1-1.7,4.5-3.9,7.5-6.9
					c-1.5,0.4-2.9,1.7-4.2,3c0.8-0.8,2.4-2.4,2.4-2.4c-0.1,0.1-0.2,0.1-0.2,0c-0.3,0.2-0.5,0.5-0.8,0.7c0.2-0.2,0.6-0.7,0.6-0.7
					c-0.4,0.1,2.3-2.7,1.2-0.9c1.2-0.6,8.8-6.5,8.8-6.3c2.7-2.1,7.9-6.1,7.9-6.1c-4.7,4.6-4,4.4-8.9,7.5c-0.2,0.2-0.4,0.5-0.6,0.7
					c1-0.6,2.9-1.7,2.9-1.7c-4.3,3.8-1,1.9-1,1.9c5.1-4.4,6.8-6.5,9.3-7.5c2.6-3.1,4.8-6,7.8-8.5c-14.8,10.2,2.8-6.5,2.8-6.5
					c0.8-0.9,1.6-1.8,2.4-2.7c-20.6,18.9,5.4-5.4,8.5-9.6c-0.4,0.1-2.7,2-3.2,2.3c0.6-0.6,5.3-5.5,5.5-5.8c-0.1,0-0.2,0.2-0.5,0.3
					c0.4-0.4,0.7-0.8,1.1-1.2c-1.4,0.2-3.3,1.6-5,2.7L753.7,774.1z"/>
				<g>
					<path class="st3" d="M307.4,1247.8c-5,3.6-10.4-3.9-5.4-7.5C307.1,1236.7,312.5,1244.2,307.4,1247.8"/>
					<path class="st3" d="M298.8,1248.3c-2.3-3.3-1.5-7.8,1.7-10.1c3.3-2.3,7.8-1.6,10.2,1.7c2.3,3.3,1.5,7.8-1.7,10.1
						C305.7,1252.3,301.1,1251.6,298.8,1248.3z M306.3,1242.9c-0.6-0.9-1.9-1.1-2.8-0.5s-1.1,1.9-0.5,2.8s1.9,1.1,2.8,0.5
						S307,1243.8,306.3,1242.9z"/>
					<path class="st3" d="M1044,1292c-2.5-3.6-1.7-8.5,1.9-11.1s8.5-1.7,11.1,1.8c2.5,3.6,1.7,8.5-1.9,11.1S1046.6,1295.5,1044,1292
						z M1052.7,1285.8c-0.8-1.2-2.5-1.4-3.7-0.6s-1.5,2.5-0.6,3.7c0.8,1.2,2.5,1.4,3.7,0.6C1053.2,1288.6,1053.5,1287,1052.7,1285.8
						z"/>
					<path class="st3" d="M98.8,1361.7c-23,16.5-47.6-17.9-24.6-34.4C97.2,1310.8,121.8,1345.2,98.8,1361.7"/>
					<path class="st3" d="M67,1358.4c-7.6-10.7-5.1-25.6,5.6-33.2s25.6-5.2,33.3,5.4s5.1,25.6-5.6,33.2S74.7,1369.1,67,1358.4z
						 M101.6,1333.7c-5.9-8.3-17.5-10.2-25.9-4.2s-10.3,17.5-4.4,25.8s17.5,10.2,25.9,4.2C105.6,1353.6,107.5,1342,101.6,1333.7z"/>
					<path class="st3" d="M1154.5,968.8c4.9,6.8,14.4,8.4,21.3,3.5s8.5-14.4,3.6-21.2s-14.4-8.4-21.3-3.5
						C1151.3,952.5,1149.6,962,1154.5,968.8z"/>
					<path class="st3" d="M1132.5,995.1c-4.9-6.8-14.4-8.4-21.3-3.5s-8.5,14.4-3.6,21.2s14.4,8.4,21.3,3.5
						C1135.8,1011.4,1137.4,1001.9,1132.5,995.1z"/>
					<path class="st3" d="M1128.8,1244.4c-6.1-8.6-18.2-10.5-26.8-4.4c-8.6,6.2-10.7,18.2-4.5,26.8c6.1,8.6,18.2,10.5,26.8,4.4
						C1132.9,1264.9,1134.9,1252.9,1128.8,1244.4z"/>
					<path class="st3" d="M643.7,641.1c-11.5,8.2-23.8-9-12.3-17.2C642.9,615.6,655.2,632.8,643.7,641.1"/>
					<path class="st3" d="M131.7,844c-8.6,6.2-10.7,18.2-4.5,26.8c6.1,8.6,18.2,10.5,26.8,4.4c8.6-6.2,10.7-18.2,4.5-26.8
						C152.4,839.8,140.3,837.8,131.7,844z"/>
					<path class="st3" d="M303,934.1c7.4-5.3,9.2-15.7,3.9-23.1c-5.3-7.4-15.6-9.1-23.1-3.8c-7.4,5.3-9.2,15.7-3.9,23.1
						C285.2,937.7,295.6,939.4,303,934.1z"/>
					<path class="st3" d="M585.3,726.1c-11,7.9-22.8-8.6-11.8-16.5C584.6,701.7,596.3,718.2,585.3,726.1"/>
					<path class="st3" d="M671.3,793.8c-10.6,7.5-21.8-8.2-11.3-15.7S681.8,786.3,671.3,793.8"/>
					<path class="st3" d="M174.7,1287.9c-11.5,8.2-23.8-9-12.3-17.2C174,1262.5,186.2,1279.6,174.7,1287.9"/>
					<path class="st3" d="M286.7,1200.1c-7.9,5.7-16.4-6.1-8.4-11.8C286.2,1182.6,294.7,1194.4,286.7,1200.1"/>
					<path class="st3" d="M139.7,1256.3c-13.9,9.9-28.6-10.7-14.8-20.7C138.8,1225.7,153.6,1246.4,139.7,1256.3"/>
					<path class="st3" d="M228,1129.3c-5.5-7.7-16.3-9.5-24-3.9c-7.7,5.5-9.6,16.3-4.1,24s16.3,9.5,24,3.9S233.5,1137,228,1129.3z"
						/>
					<path class="st3" d="M121.2,1080.3c-14.4,10.3-29.8-11.2-15.4-21.5S135.6,1070.1,121.2,1080.3"/>
					<path class="st3" d="M262.3,1240.7c-7.2,5.1-14.9-5.6-7.7-10.7C261.8,1224.8,269.5,1235.5,262.3,1240.7"/>
					<path class="st3" d="M914.1,1133.4c-13,9.3-26.8-10.1-13.8-19.3S927,1124.2,914.1,1133.4"/>
					<path class="st3" d="M1019.4,1150c7-5,8.7-14.8,3.7-21.8c-5-7-14.8-8.6-21.9-3.6c-7,5-8.7,14.8-3.7,21.9
						C1002.6,1153.4,1012.4,1155,1019.4,1150z"/>
					<path class="st3" d="M896.9,1261.6c-8.6,6.2-17.9-6.7-9.2-12.9C896.4,1242.6,905.6,1255.5,896.9,1261.6"/>
					<path class="st3" d="M877.2,989.1c3.9,5.5,11.7,6.8,17.2,2.8c5.6-4,6.9-11.7,2.9-17.2c-3.9-5.5-11.7-6.8-17.2-2.8
						C874.6,975.8,873.3,983.5,877.2,989.1z M893.1,977.7c2.3,3.2,1.5,7.6-1.7,9.9c-3.2,2.3-7.6,1.6-9.9-1.6
						c-2.3-3.2-1.5-7.6,1.7-9.9C886.4,973.8,890.8,974.6,893.1,977.7z"/>
					<path class="st3" d="M605.9,1091.9c6.8,9.5,20,11.6,29.6,4.8c9.5-6.8,11.8-20.1,5-29.5c-6.8-9.5-20-11.6-29.6-4.8
						C601.3,1069.1,599.1,1082.4,605.9,1091.9z"/>
					<path class="st3" d="M195.8,1327.9c-11.9,8.5-24.5-9.2-12.7-17.7C195.1,1301.7,207.7,1319.4,195.8,1327.9"/>
					<path class="st3" d="M906.9,1365.7c7-5,8.7-14.8,3.7-21.8s-14.8-8.6-21.9-3.6c-7,5-8.7,14.8-3.7,21.8
						C890.1,1369.1,899.9,1370.7,906.9,1365.7z M891.8,1344.5c4.7-3.3,11.2-2.3,14.5,2.4c3.3,4.6,2.2,11.1-2.4,14.5
						c-4.7,3.3-11.2,2.3-14.5-2.4S887.1,1347.9,891.8,1344.5z"/>
					<path class="st3" d="M1309.2,741.5c-107.5-150.3-256.7-253.6-421-305.5c-52.9,26.1-107.4,51.5-127.7,59.5
						c-23.1,9-50.3,22.3-60.5,29.6c-11,7.8-19.3,19.9-19,27.5c0.3,7.9,13.6,19,29,25.1c14.9,5.9,36.6,13.8,48.5,17.5
						c9.4,3,20.4,9.4,26.3,15.1l16.2-18.2c-2.9-3.3-4.6-7.7-4.4-12.4c0.4-9.7,8.6-17.2,18.3-16.8s17.1,8.7,16.7,18.4
						c-0.4,9.7-8.6,17.2-18.3,16.8c-3.4-0.2-6.6-1.3-9.2-3.2l-16.5,18.5c4.5,6.3,6.5,19,4.4,27.9c-2.5,10.5,3,29,12.3,42.1
						c9.4,13.1,27.7,22,40.8,20c12.6-2,28.4-7.6,35.3-12.5c6.4-4.6,20.6-12,31.6-16.5c10.5-4.3,21.3-4.1,23.8-1
						c3.8,4.5,16.5,16,28.3,25.6c5.1,4.1,10.5,10.1,15.3,16.7c5.4,7.6,9.4,15.3,10.9,21.1c3.2,12.1,8.4,30.4,11.6,40.7
						c2.7,8.7,4,23.4,3.3,34.8L927.7,937c-5.2-2.2-11.4-1.8-16.3,1.8c-7.5,5.4-9.3,15.9-4,23.4c5.4,7.5,15.9,9.2,23.4,3.8
						c2.7-2,4.7-4.6,5.8-7.5l42.3,11.9c-11.7,15.9-21.8,36.2-24.6,50.5c-2.2,11.2-0.7,21.5,4.2,28.2c3.4,4.7,8.1,7.3,13.5,7.2
						c12.1-0.1,29.5-3.6,38.9-7.9c8.3-3.8,21.4-4.3,28.5-1.3c2.6,1.1,6.2,4.7,9.8,9.8c5.8,8,11.4,19.3,15.2,30.1
						c6.7,19.4,13.5,46.8,15.1,61.1c1.7,14.7,9,33.3,16.4,41.1c2,2.1,3.9,4.4,5.5,6.7c4.2,5.8,5.1,9.4,4.9,10.2
						c-0.5,1.8-4.7,5.4-10.2,6.7c-6.1,1.5-15.6,6.1-21.4,10.2c-6.2,4.4-11.2,12.1-11.3,17.4c-0.1,4.9,1.8,13.6,4.4,19.9
						c2.3,5.7,4.8,13.1,5.5,16.2c0.6,2.7,1,11.6,0.6,20.3c-0.2,5.6-2,9.5-3.5,10.7c-0.5,0.4-0.8,0.4-1,0.3c-4.3-0.9-13.7,0-21.4,2
						c-7.8,2-16.7,6.9-20.2,11.1c-3.4,4-7.3,11.1-8.8,16c-1.1,3.7-6.1,8.5-10.6,10.2c-5.2,2-12.9,4.6-17.1,5.8
						c-4.8,1.4-10.9,5.7-13.8,9.9c-3.3,4.6-5.7,15.7-6.2,23.9c-0.5,9.2-2,18.6-2.9,21.5c-1.3,3.9-2,10.8-1.6,15.7
						c0.4,4.4,1.8,10.6,3.9,13.4c1.3,2.1,8.8,24,17.4,51.9c8.3,27,17.6,54.7,20.7,61.9c3.1,7,8.1,18.7,11.2,26
						c3.1,7.4,4.6,15.5,4.1,18.1c-0.7,3.3-1.9,7.7-2.7,9.7c-0.3,0.6-2.8,1.8-6.2,1.5c-3.5-0.3-9-2.6-12-5c-4.4-3.6-14.4-4-21.5-2.4
						c-7,1.6-18.3,2.5-24.6,2.1c-6.6-0.4-35-2.4-63-4.2c-29.9-2-56.2-9.2-62-14.7c-6.6-6.2-16.8-12.6-22.9-12.3
						c-4.9,0.3-14.8,3.8-22.5,8c-7.1,3.9-22.6,10.2-34.5,14c-12.6,4-24.3,6.8-26.9,6.7c-2.1,0-8.7-3.2-14.7-8.2
						c-5.1-4.3-11-12.5-12.2-17c-1.3-4.7-0.1-15,2.7-22.5c2.8-7.7,8.4-14.5,11.5-15.4c6.2-1.9,10.5-12.2,11.4-21
						c1-9.7-1.6-22-5.9-28c-4-5.6-12.5-14.5-19-20c-2.6-2.2-5-4.7-6.6-6.9c-1.6-2.2-1.9-3.5-2-3.4c0.8-1.4,6.6-5.8,13.8-9.6
						c7.2-3.8,17.2-10.9,22.4-16c6-5.9,13.9-26,18.1-42.1c4.4-16.8,17.3-37.6,28.3-45.4c12.1-8.6,24.2-20.3,27.5-26.5
						c2.9-5.3,8.2-8.7,11.2-8.5c3.6,0.3,8.3,2.7,10,5c2.1,2.9,6.3,9.1,9.6,13.9c4,5.6,15.2,6.5,26.1,2.1c9.2-3.7,21.5-7.2,26.8-7.6
						c5.8-0.5,14-2.1,18.2-3.7c5.4-2,8.6-7,7.2-11.3c-1.2-3.8-6.5-8.1-12-9.8c-3.7-1.2-13.7-10.7-22.2-22.5
						c-8.1-11.4-20-30.9-26.6-43.5c-6.2-12-10.4-28-9.1-34.9c1.4-7.7,2.4-21.5,2.1-30.8c-0.3-9.1,1.1-26.9,3.1-39.8
						c1.9-12.2,8.6-26.1,14.6-30.4l36.2-25.9c6-4.3,7.9-14.1,4.3-22.3c-3.6-8.2-22-14.5-42.1-14.8c-18.7-0.3-41.8-3.1-51.5-6.3
						c-9.9-3.2-25.8-9.2-35.4-13.2c-9.8-4.2-25.9-9.6-35.9-12.2c-10.1-2.6-26.4-4.1-36.4-3.4c-9.9,0.7-24.4,3.7-32.4,6.8
						c-7.9,3-20.2,9.6-27.5,14.8c-8.2,5.8-12.1,16-9,23.3c2.6,6.1,11.5,18.5,19.1,26.8c7.8,8.5,20.3,19.2,27.8,23.9
						c7.7,4.8,19.7,8.8,26.8,8.8c6,0,14.4,2.5,18.4,5.3c3.7,2.7,8.9,9.9,10.6,14.8c1.9,5.4,3.7,17.8,4,27.1
						c0.3,9.1-1.2,20.5-3.1,24.9c-2,4.5-7.2,12.3-11.3,17c-4.3,5-10.3,12.2-13.4,16.3c-3.3,4.2-7.5,13.9-9.5,22.1
						c-1.8,7.3-7.2,13.3-10.9,14.2c-3.7,0.9-13.3-3.9-20.6-11.7c-1.6-1.8-3.2-3.6-4.6-5.6c-5-7-6.4-12.4-5.9-14
						c1.6-4.5,2.8-12,2.8-17.1s-3.1-17.1-6.9-27.4c-3.8-10.1-12-25.4-18.3-34.3c-6.4-8.9-16.7-19.3-23-23.2c-6.4-3.9-17-7.5-23.8-8
						c-6.9-0.5-15.7,0.5-20.1,2.3c-4.2,1.7-13.4,7.2-20.5,12.3c-6.7,4.8-13.9,12.8-14.3,18.4c-0.3,3.9-1.2,12.3-2,18.7
						c-0.8,6.3-2.4,15.5-3.6,20.4c-0.9,4.1-6.7,9.6-12.3,11.7c-6.2,2.3-17.4,4.2-24.5,4c-5.9-0.2-11.2-5-11.3-10.3
						c-0.1-6.6,0.3-14.6,0.9-17.5c0.8-3.9,0-11.8-1.2-17.3c-1.5-6.7-9.3-13.8-16.9-15.7c-7.1-1.8-19.4-3.9-27.6-4.8
						c-8.1-0.9-18.8-1.8-23.9-2s-16.2-0.1-24.8,0.2c-9.3,0.3-20,4.3-24.3,9.1c-3.9,4.4-10,13.2-13.6,19.7c-3.5,6.4-9,15.7-12.1,20.9
						c-3.4,5.6-6.3,15.7-6.4,22.9c-0.1,6.4-1.3,15.2-2.7,19.3c-1,3.2-5.4,6.1-9.4,6.1c-5.6,0-14.2,2.2-19.6,4.9
						c-5.8,2.9-11.3,10.1-12.4,16.3c-1.2,6.2,0.5,14.5,3.7,19s8.7,8.6,12.6,9.4c2.6,0.5,6.1,2.7,7.5,4.7c0.8,1.2,0.4,4.8-2.1,7.9
						c-2.7,3.3-8.3,7.3-12.1,8.7c-4,1.5-12.3,3.2-18.1,3.8c-6,0.6-14.2,1-18.2,0.9c-3.8-0.1-11.3-1.5-16.3-3.2
						c-5.7-1.9-13.3-3.2-17.3-3c-5.1,0.3-11.8,5.4-15.5,10.1c-4.2,5.4-6.5,14.3-5.2,20.2c1,4.5,0.5,11.6-1.2,15.5
						c-1.8,4.1-7.2,12-11.6,17.3c-4.5,5.3-11,11.7-14.2,13.9c-3.1,2.2-9.1,4.6-13.2,5.4c-4,0.7-10.8-0.4-14.9-2.3
						c-4.2-2-11.3-8.8-15.7-14.9l-23.7-33.2c-2.9-4-9.9-8.7-15.9-10.8c-5.8-1.9-15.4-3.3-21.5-3c-5.4,0.2-12.6-0.7-15.7-2
						c-3-1.3-9.4-5.9-14.3-10.2c13.6-47.9,33.2-86.8,58.4-115.9c6.2,4.4,14.8,4.6,21.4-0.1c8.3-6,10.3-17.6,4.4-25.9
						c-5.9-8.3-17.5-10.2-25.9-4.2c-8.3,6-10.3,17.6-4.4,25.8c0.2,0.2,0.4,0.4,0.6,0.7c-25.4,29.2-45.2,68.1-59,115.9
						c-4.2-3.2-9.6-6.6-14.6-9.2c19.9-66.6,50.7-117.2,91.5-150.7c5,4.4,12.5,5,18.2,1c6.5-4.7,8.1-13.8,3.4-20.3
						c-4.7-6.5-13.8-8-20.3-3.3c-6,4.3-7.7,12.2-4.5,18.5c-41.5,34.1-72.8,85.3-93.1,152.6c0,0-0.1,0-0.1-0.1
						c-7.5-3.2-17.9-6.5-23.2-7.4c-5.1-0.8-13.4-2-18.5-2.6c-3.8-0.4-11.4-5.7-16.4-12.6c-5.1-7.2-9.3-15.3-9.8-18.1
						c-0.6-3.4-1.2-10.8-1.3-16.3c-0.1-5.3,1.1-14,2.6-19c1.6-5.2,5.1-10.8,7.2-12.6c2.2-1.8,13.8-5.9,26.8-8.9
						c12.7-2.9,29.8-7.9,38.1-11.2c8.6-3.4,20-11.5,25.3-18.1c5-6.2,16.8-16.7,26.3-23.6c10.8-7.7,15.5-21.3,10.4-30.1
						c-4.4-7.6-10.6-20.9-13.9-29.6c-1-2.5-2.3-4.9-3.8-7.1c-4.5-6.3-10.4-9.8-15.5-9.2c-5.9,0.7-19.1,4.1-29.3,7.4
						c-10.3,3.4-24.9,10.7-32.7,16.2l-24.2,17.3c-5,3.6-14.7,3.8-21.3,0.4c-5.2-2.6-11.4-8.2-15.5-13.9c-1.2-1.6-2.1-3.1-2.7-4.5
						c-3-6.5-2.5-22.1,1.1-34.1c3.8-12.8,8.6-29.5,10.7-37.2c1.9-7,10.8-16.9,19.4-21.7c9.1-5,19.7-10.5,23.1-11.9
						c3.6-1.4,7.1-1.8,7.8-1.6s2.3,1.5,2.7,2.6c0.8,2,2.5,5.1,3.9,7c1.4,2,4.4,4.9,6.8,6.4c2.1,1.4,6.5,4.1,9.7,6
						c3.4,2.1,8.1,4.1,10.6,4.5c2.8,0.5,6.9,0,9.6-1.3c2.1-1,6.2-2.7,9.1-3.7c3.3-1.2,8.3-4.6,11.4-7.7c2.9-2.9,7.2-7.8,9.6-11
						c2.3-3.1,6.9-9.6,10.3-14.5c3.5-5,8.2-14.1,10.5-20.3c2.3-6.1,5.7-17.5,7.6-25.5c1.8-7.4,6.4-17.6,10.2-22.2
						c4.4-5.4,2.9-8.8,2-10c-0.9-1.3-2.8-2.7-6.7-2.4c-5.3,0.4-12.7,1.2-16.5,1.7c-2.1,0.3-6.4-2.2-8.7-6.3c-2.2-4-2.7-10.9-1-14.7
						c2.1-4.9,3.8-13.9,3.9-20.1c0.1-6.3-1.2-14.2-2.8-17.9c-1.6-3.5-5.6-11-9-16.7c-3.3-5.6-7.2-12.7-8.7-15.8
						C31.5,762-14.3,758.5-57.5,770c-184.2,278.3-189.7,652.1,14.8,938l0,0c265,370.7,783.9,455.5,1156.6,189
						S1574.2,1112.2,1309.2,741.5z M1004.9,1420.6c-5.7,4-13.5,2.8-17.5-2.9c-4-5.6-2.7-13.5,3-17.5s13.5-2.8,17.5,2.9
						C1011.9,1408.6,1010.5,1416.5,1004.9,1420.6z M757,1189.4c6.6-4.7,15.8-3.2,20.5,3.4s3.2,15.8-3.5,20.5
						c-6.6,4.7-15.8,3.2-20.5-3.4C748.9,1203.3,750.4,1194.1,757,1189.4z M51.2,917.8c9.1,12.7,6.1,30.5-6.7,39.7
						s-30.6,6.2-39.7-6.5s-6.1-30.5,6.7-39.7C24.3,902.2,42.1,905.1,51.2,917.8z M13.2,826.5c5.6-4.1,13.5-2.8,17.5,2.9
						c4,5.6,2.7,13.5-3,17.5c-5.6,4-13.5,2.8-17.5-2.9C6.2,838.4,7.5,830.5,13.2,826.5z M566,1130.7c3.8-2.7,9.2-1.9,11.9,1.9
						s1.8,9.2-2,11.9c-3.8,2.7-9.2,1.9-11.9-1.9C561.3,1138.8,562.2,1133.4,566,1130.7z M450.5,1153.7c4.7-3.3,11.2-2.3,14.5,2.4
						c3.3,4.6,2.2,11.1-2.4,14.5c-4.7,3.3-11.2,2.3-14.5-2.4C444.8,1163.5,445.9,1157,450.5,1153.7z M375.8,1151.1
						c6-4.3,14.3-2.9,18.5,3s2.8,14.2-3.1,18.5c-6,4.3-14.3,2.9-18.5-3C368.4,1163.7,369.8,1155.4,375.8,1151.1z M561.2,1771
						c-10.7,7.7-25.6,5.2-33.2-5.4c-2.1-3-3.4-6.3-4-9.6c-267.1,12.3-458-204.9-490.2-244.1c-14.4,9.1-32.6,8-45.5-2l-35.6,38.6
						c0.5,0.6,1,1.1,1.5,1.7c6.3,8.9,4.3,21.3-4.7,27.7c-8.9,6.4-21.3,4.4-27.7-4.5c-6.3-8.9-4.3-21.3,4.7-27.7
						c6.8-4.9,15.6-4.8,22.2-0.6l35.6-38.7c-1.4-1.5-2.8-3-4.1-4.8c-6.8-9.6-8.7-21.2-6.3-31.9l-24.8-9.9c-1.8,4.3-4.7,8.2-8.7,11.2
						c-11.5,8.2-27.4,5.6-35.6-5.8s-5.4-27.3,6-35.5c11.5-8.2,27.4-5.6,35.6,5.8c4.1,5.8,5.5,12.8,4.3,19.3l24.8,9.9
						c2.7-7.1,7.5-13.6,14.1-18.4c1.6-1.1,3.3-2.1,5-3c0.2-22.2,2.6-89.9,23.4-160.4l5.1,1.5C3,1351.9,0.2,1416.9-0.1,1440.9
						c5.7-2,11.7-2.5,17.5-1.8c0.2-21.7,2.4-81.6,19.7-143.8l5.1,1.4c-17.5,62.5-19.4,122.8-19.6,143.3c2.3,0.6,4.5,1.4,6.6,2.4
						c13.8-36.3,53.2-96.6,55-99.4l4.4,2.9c-0.4,0.7-41.3,63.3-54.7,99c4.2,2.6,8,6.1,11,10.4c2.1,2.9,3.6,6,4.8,9.1
						c253.6-18.2,398-62.6,417.3-68.9c-1.9-9.8,1.9-20.3,10.6-26.6c11.9-8.5,28.5-5.8,36.9,6c8.5,11.9,5.7,28.4-6.2,36.9
						c-11.9,8.5-28.5,5.8-36.9-6c-1.2-1.7-2.1-3.5-2.9-5.3c-20,6.5-164.4,50.8-417.2,69c0.4,2,0.7,4,0.8,6
						c49.4,15.4,346,101.9,526.5,25.2c-3.7-11.7,0.4-25,10.9-32.5c13.1-9.4,31.3-6.4,40.6,6.6s6.2,31.2-6.9,40.6
						c-13.1,9.4-31.3,6.4-40.6-6.6c-0.7-1-1.4-2.1-2-3.2c-180.2,76.5-474.2-7.8-528.5-24.6c-0.1,0.8-0.2,1.6-0.3,2.4
						c43.6,30.5,312.7,209.2,584,170.6c0.4-2.6,1.7-5.2,4.1-6.8c4.5-3.2,10.7-2.2,13.8,2.3c3.2,4.4,2.1,10.6-2.3,13.8
						c-4.5,3.2-10.7,2.2-13.8-2.3c-0.4-0.6-0.7-1.2-1-1.8C367,1697.5,100.1,1523.3,50.7,1489c-2.1,7.4-6.4,14.3-12.7,19.5
						c32.3,39.3,221.4,254.1,485.6,242c0.4-7.1,3.7-13.9,9.9-18.3c10.7-7.7,25.6-5.2,33.3,5.4C574.4,1748.4,571.9,1763.3,561.2,1771
						z M676.8,1783.3c-26.5,19-63.4,12.9-82.2-13.4s-12.6-63.2,13.9-82.1s63.4-12.9,82.2,13.4
						C709.5,1727.5,703.3,1764.3,676.8,1783.3z M895.3,1737c5-3.5,11.9-2.4,15.4,2.5s2.4,11.8-2.6,15.4c-5,3.5-11.9,2.4-15.4-2.5
						C889.1,1747.4,890.3,1740.5,895.3,1737z M929.9,1926.1c-19.1,13.6-45.6,9.3-59.1-9.7c-11-15.3-10.1-35.5,0.7-49.9l-78.5-61.9
						c-0.7,0.7-1.5,1.4-2.3,2c-9.2,6.6-22.1,4.5-28.6-4.7c-6.6-9.2-4.4-22,4.8-28.6s22.1-4.5,28.6,4.7c4.9,6.8,4.9,15.7,0.8,22.4
						l78.6,62c1.8-1.8,3.7-3.6,5.9-5.1c0.7-0.5,1.4-0.9,2.1-1.4l-22.8-40.7c-3.5,0.8-7.4-0.5-9.6-3.6c-3-4.1-2-9.9,2.2-12.9
						s10-2,12.9,2.1c2.6,3.7,2.1,8.7-0.9,11.8l22.8,40.8c3.3-1.5,6.7-2.6,10.2-3.2l-3.6-26.8c-2.4-0.4-4.6-1.7-6.1-3.7
						c-3-4.1-2-9.9,2.2-12.9s10-2,12.9,2.1c3,4.1,2,9.9-2.2,12.9c-0.5,0.4-1,0.7-1.6,0.9l3.6,26.9c14-0.8,28.1,5.3,36.9,17.5
						C953.4,1886,948.9,1912.5,929.9,1926.1z M992.1,1684.5c-5.2,3.7-11.4,4.6-17.1,3.1l-11.7,33.1c0.9,0.6,1.8,1.3,2.4,2.2
						c2.5,3.5,1.7,8.5-1.9,11.1c-3.6,2.5-8.5,1.7-11.1-1.8c-2.5-3.6-1.7-8.5,1.9-11.1c1-0.7,2.2-1.2,3.4-1.3l12.1-34
						c-2.5-1.4-4.8-3.4-6.6-5.9c-6.6-9.2-4.4-22,4.8-28.6c9.3-6.6,22.1-4.5,28.6,4.7C1003.5,1665.1,1001.3,1677.9,992.1,1684.5z
						 M1155,943.2c9.2-6.6,22.1-4.5,28.6,4.7c6.6,9.2,4.4,22-4.8,28.6c-9.2,6.6-22.1,4.5-28.6-4.7
						C1143.6,962.6,1145.8,949.8,1155,943.2z M1002.9,1830.9c-3.3,2.3-7.8,1.6-10.2-1.7c-2.3-3.3-1.6-7.8,1.7-10.1
						c3.3-2.3,7.8-1.6,10.2,1.7C1007,1824,1006.2,1828.6,1002.9,1830.9z M1130.4,1279.7c-13.4,9.6-32.1,6.5-41.6-6.8s-6.4-32,7-41.5
						c13.4-9.6,32.1-6.5,41.6,6.8C1147,1251.5,1143.8,1270.1,1130.4,1279.7z M1375.4,1153.3c-3.6-5-2.4-12.1,2.7-15.7
						s12.1-2.5,15.7,2.6c3.6,5,2.4,12.1-2.7,15.7C1386,1159.4,1379,1158.3,1375.4,1153.3z"/>
					<path class="st3" d="M38.3,949c-19.4,13.9-40.2-15.1-20.7-29C37,906.1,57.8,935.1,38.3,949"/>
					<g>
						<path class="st3" d="M525.3,959.4c-0.2,3.6-5.5,3.4-5.4-0.2C520.1,955.6,525.5,955.8,525.3,959.4"/>
						<path class="st3" d="M522.4,963.6c-2.3-0.1-4.1-2.1-4-4.4c0.1-2.3,2.1-4.2,4.4-4.1c2.3,0.1,4.1,2.1,4,4.4
							C526.7,961.9,524.8,963.7,522.4,963.6z M522.7,958.2c-0.6,0-1.2,0.5-1.2,1.1s0.5,1.2,1.1,1.2s1.2-0.5,1.2-1.1
							C523.8,958.7,523.3,958.2,522.7,958.2z"/>
						<path class="st3" d="M810.4,637.8c-2.5-0.1-4.5-2.3-4.4-4.8c0.1-2.6,2.3-4.5,4.8-4.4s4.5,2.3,4.4,4.8
							C815.2,635.9,813,637.9,810.4,637.8z M810.7,631.6c-0.8,0-1.6,0.6-1.6,1.5c0,0.8,0.6,1.6,1.5,1.6c0.8,0,1.6-0.6,1.6-1.5
							S811.6,631.6,810.7,631.6z"/>
						<path class="st3" d="M502.4,1096c-0.7,16.5-25.3,15.4-24.6-1.1C478.6,1078.4,503.2,1079.5,502.4,1096"/>
						<path class="st3" d="M489.5,1109.4c-7.6-0.3-13.5-6.9-13.2-14.5c0.3-7.7,6.8-13.6,14.4-13.3c7.6,0.3,13.5,6.9,13.2,14.5
							S497.1,1109.7,489.5,1109.4z M490.6,1084.6c-5.9-0.3-11,4.4-11.2,10.3c-0.3,6,4.3,11,10.3,11.3c5.9,0.3,11-4.4,11.2-10.3
							C501.2,1090,496.6,1084.9,490.6,1084.6z"/>
						<path class="st3" d="M702.1,470.9c4.9,0.2,9-3.6,9.2-8.5s-3.6-9.1-8.4-9.3c-4.9-0.2-9,3.6-9.2,8.5
							C693.4,466.5,697.2,470.7,702.1,470.9z"/>
						<path class="st3" d="M706.2,490.4c-4.9-0.2-9,3.6-9.2,8.5s3.6,9.1,8.4,9.3c4.9,0.2,9-3.6,9.2-8.5
							C714.9,494.8,711.1,490.6,706.2,490.4z"/>
						<path class="st3" d="M368.2,587.1c-0.4,8.2-12.7,7.7-12.3-0.5C356.3,578.3,368.5,578.9,368.2,587.1"/>
						<path class="st3" d="M277,894.7c-0.3,6.2,4.5,11.4,10.6,11.7s11.4-4.5,11.6-10.7c0.3-6.2-4.5-11.4-10.6-11.7
							S277.3,888.5,277,894.7z"/>
						<path class="st3" d="M380,848.6c0.2-5.3-3.9-9.8-9.2-10.1c-5.3-0.2-9.8,3.9-10,9.2s3.9,9.8,9.2,10.1
							C375.2,858.1,379.7,854,380,848.6z"/>
						<path class="st3" d="M481.3,1195.5c-6.5-0.3-12,4.8-12.2,11.3c-0.3,6.5,4.7,12,11.2,12.3s12-4.8,12.2-11.3
							C492.8,1201.3,487.8,1195.8,481.3,1195.5z"/>
						<path class="st3" d="M669.7,926.2c0.3-6.8-5-12.6-11.7-12.9c-6.8-0.3-12.5,5-12.8,11.8s5,12.6,11.7,12.9
							C663.6,938.3,669.4,933,669.7,926.2z"/>
						<path class="st3" d="M533,1234.1v-0.2c-2.9,1.2-5,4-5.1,7.4c-0.2,4.7,3.4,8.7,8.1,8.9c4.7,0.2,8.6-3.4,8.8-8.1
							s-3.4-8.7-8.1-8.9c-0.2,0-0.5,0-0.7,0l0.1,0.4L533,1234.1z"/>
						<path class="st3" d="M1034.6,935.6c10.2,0.5,18.8-7.5,19.3-17.7s-7.4-18.9-17.6-19.4s-18.8,7.5-19.3,17.7
							S1024.4,935.1,1034.6,935.6z"/>
						<path class="st3" d="M758.6,910.8c0.3-7.7-5.6-14.2-13.2-14.5c-7.6-0.3-14.1,5.6-14.4,13.3s5.6,14.2,13.2,14.5
							C751.7,924.5,758.2,918.5,758.6,910.8z"/>
						<path class="st3" d="M959.4,811.1c4.9,0.2,9-3.6,9.2-8.5s-3.6-9.1-8.4-9.3c-4.9-0.2-9,3.6-9.2,8.5
							C950.7,806.7,954.5,810.9,959.4,811.1z"/>
						<path class="st3" d="M386.1,644.5c-0.4,7.9-12.1,7.4-11.8-0.5S386.5,636.6,386.1,644.5"/>
						<path class="st3" d="M448.1,629.4c-0.3,7.6-11.6,7-11.3-0.5C437.2,621.4,448.5,621.9,448.1,629.4"/>
						<path class="st3" d="M784.6,610.5L641.1,771.6c-4.1-3.7-9.3-6.2-15-7.3l9.7-83.5c4.3-0.5,7.7-4.1,7.9-8.5
							c0.2-5-3.6-9.2-8.6-9.4c-4.9-0.2-9.2,3.6-9.4,8.6c-0.2,4,2.3,7.5,5.9,8.8l-9.7,83.5c-9.5-0.4-18.3,3.6-24.3,10.1l-46.3-46.2
							c0.8-1.3,1.4-2.9,1.4-4.5c0.2-5.2-3.8-9.6-8.9-9.8c-5.3-0.2-9.6,3.8-9.9,9l0,0c-0.2,5.2,3.8,9.6,8.9,9.8
							c2,0.1,3.8-0.5,5.4-1.5l46.6,46.5c-3.3,4.7-5.3,10.3-5.6,16.5c0,0.9,0,1.8,0,2.7l-105.1,12.8c-2.4-19.9-18.7-35.7-39.3-36.6
							c-10.7-0.5-20.7,3.2-28.3,9.6l-42.3-35c0.8-1.4,1.3-3.1,1.4-4.8c0.3-6.1-4.5-11.3-10.5-11.6c-6.1-0.3-11.3,4.5-11.5,10.6
							c-0.3,6.1,4.5,11.3,10.5,11.6c2.9,0.1,5.5-0.9,7.5-2.6l41.9,34.7c-5.8,5.9-9.9,13.6-11.3,22.2l-82.5-21.2c0-0.1,0-0.2,0.1-0.3
							c0.3-6.5-4.7-12-11.2-12.3s-12,4.8-12.3,11.3s4.7,12,11.2,12.3c4.9,0.2,9.3-2.7,11.2-6.9l83,21.3c0,0.3-0.1,0.6-0.1,0.9
							c-0.7,16.7,8.5,31.6,22.5,38.9l-23,59.6c-1.2-0.3-2.5-0.5-3.8-0.6c-10-0.4-18.5,7.4-18.9,17.4s7.3,18.6,17.3,19
							s18.5-7.4,18.9-17.4c0.3-7.3-3.7-13.7-9.7-16.9l23-59.4c4.2,1.7,8.6,2.7,13.4,2.9c22.9,1,42.3-16.8,43.3-39.8
							c0-0.9,0-1.8,0-2.7l105.3-12.9c1.7,9.3,7.5,17.3,15.6,21.8l-17.6,44.8c-0.2,0-0.4-0.1-0.6-0.1c-4.6-0.2-8.5,3.4-8.7,8
							s3.3,8.5,7.9,8.7c4.6,0.2,8.5-3.4,8.7-8c0.1-2.9-1.2-5.5-3.4-7.1l17.5-44.5c3.1,1.2,6.4,2,9.9,2.1c5,0.2,9.8-0.8,14.2-2.8
							l28.2,73.8c-2.2,1.5-3.7,4-3.8,6.9c-0.2,4.9,3.6,9,8.4,9.2c4.9,0.2,9-3.6,9.2-8.5s-3.6-9-8.4-9.2c-0.5,0-1,0-1.5,0.1
							L637,821.5c3.4-2.1,6.3-4.9,8.7-8.1l82,35.6c-0.4,1.4-0.7,2.8-0.8,4.4c-0.4,10,7.3,18.4,17.2,18.8s18.3-7.3,18.8-17.2
							c0.4-10-7.3-18.4-17.1-18.8c-6.9-0.3-13,3.4-16.3,9L648,809.8c2.1-4,3.5-8.5,3.7-13.4c0.4-8.4-2.6-16.1-7.7-21.9l143.3-160.8
							 M441.7,847.5c-18.3-0.8-32.5-16.4-31.7-34.8c0.8-18.4,16.4-32.6,34.6-31.8c18.3,0.8,32.5,16.4,31.7,34.8
							C475.5,834.1,459.9,848.4,441.7,847.5L441.7,847.5z M621.5,772.2c12.6,0.6,22.3,11.3,21.8,23.9c-0.6,12.6-11.2,22.4-23.8,21.9
							c-12.6-0.6-22.3-11.3-21.8-23.9C598.3,781.4,609,771.6,621.5,772.2z"/>
						<path class="st3" d="M574.2,446.5c4.8,0.2,8.8-3.5,9-8.3s-3.5-8.9-8.3-9.1s-8.8,3.5-9,8.3c0,0.6,0,1.1,0.1,1.7l-66,37.2
							c-4.3-3.9-9.8-6.4-16.1-6.7c-14.3-0.6-26.5,10.5-27.1,24.9s10.5,26.6,24.8,27.2c3.7,0.2,7.2-0.5,10.4-1.7l23.9,44.1
							c-1.4,1.5-2.3,3.5-2.4,5.7c-0.2,5.1,3.7,9.4,8.7,9.6s9.3-3.7,9.6-8.8c0.2-5.1-3.7-9.4-8.7-9.6c-0.6,0-1.3,0-1.9,0.1l-23.9-44
							c2.7-1.9,5-4.2,6.9-7l72.8,46.7c-0.2,0.6-0.2,1.3-0.3,1.9c-0.2,5.4,3.9,9.9,9.2,10.1c5.3,0.2,9.9-3.9,10.1-9.3
							c0.2-5.4-3.9-9.9-9.2-10.1c-2.5-0.1-4.7,0.7-6.5,2.2L507,504.7c0.9-2.4,1.5-5,1.7-7.7l130.4-35.8c1.6,2.5,4.4,4.2,7.6,4.3
							c5.3,0.2,9.9-3.9,10.1-9.3c0.2-5.4-3.9-9.9-9.2-10.1s-9.8,3.9-10.1,9.2l-129.3,35.5c-0.7-3.6-2.1-6.8-4.1-9.7l64.9-36.6
							C570.5,445.6,572.2,446.4,574.2,446.5L574.2,446.5z M481.9,515.6c-10.9-0.5-19.4-9.8-18.9-20.8s9.8-19.5,20.7-19
							s19.4,9.8,18.9,20.8C502.2,507.6,492.9,516.1,481.9,515.6z"/>
						<path class="st3" d="M495.9,1034.6c-0.4,8.2-12.7,7.7-12.3-0.5S496.3,1026.4,495.9,1034.6"/>
						<path class="st3" d="M496,951.7c-0.3,5.7-8.7,5.3-8.4-0.4C487.8,945.7,496.2,946.1,496,951.7"/>
						<path class="st3" d="M468.9,1039.3c-0.4,9.9-15.2,9.3-14.8-0.7C454.5,1028.8,469.3,1029.4,468.9,1039.3"/>
						<path class="st3" d="M442.4,953.2c-5.5-0.2-10.2,4.1-10.4,9.6c-0.2,5.5,4,10.2,9.5,10.5s10.2-4.1,10.4-9.6
							C452.2,958.1,448,953.4,442.4,953.2z"/>
						<path class="st3" d="M381.6,984.6c-0.5,10.3-15.8,9.6-15.4-0.7C366.7,973.6,382,974.3,381.6,984.6"/>
						<path class="st3" d="M505.8,977.5c-0.2,5.1-7.9,4.8-7.7-0.3S506,972.4,505.8,977.5"/>
						<path class="st3" d="M848,839c-0.3,7.6-11.6,7-11.3-0.5S848.4,831.4,848,839"/>
						<path class="st3" d="M691,640.3c-0.4,9.3-14.3,8.7-13.8-0.6C677.6,630.4,691.5,631,691,640.3"/>
						<path class="st3" d="M736.5,598c0.2-5-3.7-9.3-8.7-9.6c-5-0.2-9.3,3.7-9.5,8.7s3.7,9.3,8.7,9.5C732,606.9,736.3,603,736.5,598
							z"/>
						<path class="st3" d="M864.4,741.8c-0.4,9.3-14.2,8.7-13.8-0.6C851,731.9,864.8,732.6,864.4,741.8"/>
						<path class="st3" d="M743.6,694.3c-0.3,6.2-9.5,5.8-9.2-0.4C734.7,687.7,743.9,688.1,743.6,694.3"/>
						<path class="st3" d="M611.6,605.3c4,0.2,7.3-2.9,7.5-6.9s-2.9-7.4-6.8-7.5c-4-0.2-7.3,2.9-7.5,6.9S607.7,605.1,611.6,605.3z
							 M612.2,593.9c2.3,0.1,4,2,3.9,4.3s-2,4-4.3,3.9s-4-2-3.9-4.3S609.9,593.8,612.2,593.9z"/>
						<path class="st3" d="M525.9,715.9c6.8,0.3,12.5-5,12.8-11.8s-5-12.6-11.7-12.9c-6.8-0.3-12.5,5-12.8,11.8
							C513.8,709.8,519.1,715.6,525.9,715.9z"/>
						<path class="st3" d="M521.9,1039.4c-0.4,8.5-13.1,7.9-12.7-0.6S522.3,1030.9,521.9,1039.4"/>
						<path class="st3" d="M856.9,779.3c-0.2,4.8-7.4,4.5-7.2-0.3S857.1,774.5,856.9,779.3"/>
						<path class="st3" d="M783.2,694.6c0.2-5-3.7-9.3-8.7-9.6s-9.3,3.7-9.5,8.7s3.7,9.3,8.7,9.5C778.7,703.6,783,699.7,783.2,694.6
							z M768.1,693.9c0.1-3.3,3-5.9,6.3-5.8c3.3,0.1,5.9,3,5.7,6.3s-3,5.9-6.3,5.8S767.9,697.3,768.1,693.9z"/>
						<path class="st3" d="M820,765.8c-0.4,8.9-13.7,8.3-13.3-0.6C807.1,756.2,820.4,756.8,820,765.8"/>
						<path class="st3" d="M909.6,769.8c-0.3,6.2-9.5,5.8-9.2-0.4C900.7,763.2,909.9,763.6,909.6,769.8"/>
						<path class="st3" d="M764.1,770.8c-0.2,5.1-7.9,4.8-7.7-0.3C756.6,765.3,764.3,765.6,764.1,770.8"/>
						<path class="st3" d="M782.8,802.8c-3.8-0.2-7.1,2.8-7.2,6.6c-0.2,3.8,2.8,7.1,6.6,7.3s7.1-2.8,7.2-6.6
							C789.5,806.2,786.6,802.9,782.8,802.8z M782.3,813.6c-2.1-0.1-3.8-1.9-3.7-4s1.9-3.8,4-3.7s3.8,1.9,3.7,4
							S784.4,813.7,782.3,813.6z"/>
						<path class="st3" d="M511.1,1176.9c-0.3,7.7,5.6,14.2,13.2,14.5s14.1-5.6,14.4-13.3c0.3-7.7-5.6-14.2-13.2-14.5
							C518,1163.3,511.5,1169.2,511.1,1176.9z"/>
						
							<linearGradient id="SVGID_00000025430390683528114520000016945191249703634088_" gradientUnits="userSpaceOnUse" x1="876.5768" y1="639.4648" x2="876.5768" y2="273.3262" gradientTransform="matrix(0.9874 0.1581 0.1581 -0.9874 57.953 1087.3275)">
							<stop  offset="0" style="stop-color:#69E9F1"/>
							<stop  offset="1" style="stop-color:#FF03F8"/>
						</linearGradient>
						<path style="fill:url(#SVGID_00000025430390683528114520000016945191249703634088_);" d="M993.5,644.3c-3.9-0.2-7-3.4-6.9-7.1
							s3.5-6.6,7.5-6.4c3.9,0.2,7,3.4,6.9,7.1S997.5,644.5,993.5,644.3z M897.9,515c-3.5-0.2-6.3-3-6.1-6.3c0.1-3.3,3.2-5.9,6.7-5.8
							c3.5,0.2,6.3,3,6.1,6.3S901.4,515.1,897.9,515z M1118.6,707.6c2.3,0.1,4.1,1.9,4,4.1c-0.1,2.2-2,3.8-4.3,3.7s-4.1-1.9-4-4.1
							S1116.3,707.5,1118.6,707.6z M1146.2,920.4c6.5,0.3,11.5,5.5,11.2,11.5c-0.2,3.4-2,6.3-4.6,8.2l10.8,15.9
							c0.6-0.2,1.2-0.3,1.8-0.3c2.5,0.1,4.4,2.1,4.3,4.5s-2.2,4.2-4.7,4.1c-2.5-0.1-4.4-2.1-4.3-4.5c0-0.7,0.2-1.3,0.6-1.9
							l-11.1-16.4c-1.5,0.6-3.2,0.9-5,0.8c-6.5-0.3-11.5-5.5-11.2-11.5C1134.3,924.8,1139.8,920.1,1146.2,920.4L1146.2,920.4z
							 M1071.4,724.7c-0.1,3.3-3.1,5.8-6.6,5.6s-6.2-2.9-6-6.2c0.1-3.3,3.1-5.8,6.5-5.6C1068.8,718.7,1071.5,721.5,1071.4,724.7z
							 M989,1007.5c4.8,0.2,8.8,3.1,10.4,7.1l55.6-12.5c-0.2-1.4-0.3-2.7-0.2-4.2c0-0.5,0.1-0.9,0.1-1.4l-26.4-3.9
							c-0.9,1.7-2.8,2.9-5,2.8c-2.9-0.1-5.2-2.5-5.1-5.2c0.1-2.7,2.6-4.9,5.5-4.7c2.6,0.1,4.7,2,5,4.3l26.4,3.9
							c0.5-1.9,1.2-3.7,2.1-5.4l-13.3-7.4c-1,0.9-2.4,1.4-3.8,1.3c-2.9-0.1-5.2-2.5-5.1-5.2s2.6-4.9,5.5-4.7s5.2,2.5,5.1,5.2
							c0,0.3-0.1,0.7-0.2,1l13.4,7.4c4.6-6.2,12.3-10.1,20.8-9.7c13.3,0.6,23.7,11.3,23.1,23.8s-11.8,22.3-25.2,21.7
							c-10.8-0.5-19.6-7.6-22.3-16.9l-55.5,12.5c0.1,0.5,0.1,1.1,0.1,1.7c-0.3,6.1-5.7,10.8-12.2,10.5s-11.5-5.5-11.2-11.5
							C977.1,1011.9,982.5,1007.2,989,1007.5L989,1007.5z M1017,863.4c18.5,0.8,32.9,15.7,32.1,33.1c-0.8,17.4-16.5,31-35,30.1
							c-18.5-0.8-32.9-15.7-32.1-33.1C982.8,876.1,998.5,862.5,1017,863.4z M809.6,665.3c0.2-4.4,4.1-7.7,8.7-7.5
							c4.6,0.2,8.2,3.9,8,8.3c-0.2,4.4-4.1,7.7-8.7,7.5C813,673.4,809.4,669.7,809.6,665.3z M1100.7,699.4
							c-2.9,8.1-11.7,30.1-26.1,50.6l-1.6-1.3c14.5-20.7,23.2-42.9,26-50.5c-0.7-0.6-1.4-1.2-2-1.9c-9.7,11.5-31.8,28-32.8,28.7
							l-1.2-1.7c0.2-0.2,23.1-17.3,32.6-28.6c-1.1-1.6-2-3.5-2.6-5.5c-0.4-1.4-0.5-2.8-0.5-4.1c-92.9-31.7-150.3-37-158-37.6
							c-0.6,3.9-3.4,7.3-7.3,8.3c-5.4,1.4-10.9-2.2-12.4-7.9s1.7-11.5,7.1-12.8c5.4-1.4,10.9,2.2,12.4,7.9c0.2,0.8,0.3,1.6,0.3,2.4
							c8,0.6,65.4,6,158,37.5c0.1-0.8,0.3-1.6,0.5-2.4c-15.6-13.2-110-90.5-184.5-89.3c-0.2,4.9-3.4,9.3-8.2,10.5
							c-5.9,1.5-12-2.4-13.6-8.6c-1.6-6.3,1.9-12.6,7.8-14.1c5.9-1.5,12,2.4,13.6,8.6c0.1,0.5,0.2,1,0.3,1.5
							c74.4-1.2,168.2,74.8,185.3,89.3c0.1-0.3,0.3-0.6,0.4-0.9c-11.5-18-83.9-125.5-185.8-152.2c-0.5,0.9-1.3,1.7-2.4,1.9
							c-2,0.5-4.1-0.8-4.6-2.9c-0.5-2.1,0.7-4.3,2.7-4.8s4.1,0.8,4.6,2.9c0.1,0.3,0.1,0.5,0.1,0.8
							c101.3,26.6,173.4,132.1,186.5,152.4c1.7-2.4,4.2-4.3,7.1-5.4c-6.3-19.5-45.3-128.4-141.2-163.9c-1.1,2.6-3.2,4.6-6,5.3
							c-4.8,1.2-9.8-1.9-11.1-7.1s1.6-10.3,6.4-11.5c4.8-1.2,9.8,1.9,11.1,7.1c0.4,1.4,0.4,2.8,0.1,4.2
							c96.9,35.9,136.3,145.9,142.6,165.4c6.3-1.2,12.7,2,16,7.6l17.8-9c-0.1-0.3-0.2-0.6-0.3-0.9c-1.1-4.3,1.3-8.6,5.3-9.6
							s8.2,1.6,9.3,5.9c1.1,4.3-1.3,8.6-5.3,9.6c-3.1,0.8-6.2-0.6-8-3.1l-17.8,9c0.3,0.8,0.6,1.6,0.8,2.4c1.2,4.6,0.3,9.2-2,12.8
							l7.5,7.5c1.2-1.3,2.8-2.4,4.6-2.8c5.2-1.3,10.5,2.1,11.9,7.6s-1.7,11-6.8,12.3c-5.2,1.3-10.5-2.1-11.9-7.6
							c-0.7-2.8-0.3-5.6,1-7.8l-7.5-7.5c-1.9,2.3-4.5,4-7.5,4.7C1110.8,701.2,1102.7,700.6,1100.7,699.4z M1076.5,751.4
							c-0.4,2.4-2.6,4-5,3.6s-4-2.6-3.6-5s2.6-4,5-3.6S1076.9,749.1,1076.5,751.4z"/>
						<path class="st3" d="M291.6,975.3c-0.6,13.9-21.4,13-20.8-0.9S292.2,961.4,291.6,975.3"/>
					</g>
					<path class="st3" d="M762.9,854.9c0.4-10-7.3-18.4-17.1-18.8c-6.9-0.3-13,3.4-16.3,9L648,809.8c2.1-4,3.5-8.5,3.7-13.4
						c0.4-8.4-2.6-16.1-7.7-21.9l143.5-161.1c-0.7-1-1.7-2.1-2.8-3.1L641.1,771.6c-4.1-3.7-9.3-6.2-15-7.3l9.7-83.5
						c4.3-0.5,7.7-4.1,7.9-8.5c0.2-5-3.6-9.2-8.6-9.4c-4.9-0.2-9.2,3.6-9.4,8.6c-0.2,4,2.3,7.5,5.9,8.8l-9.7,83.5
						c-9.5-0.4-18.3,3.6-24.3,10.1l-46.3-46.2c0.8-1.3,1.4-2.9,1.4-4.5c0.2-5.2-3.8-9.6-8.9-9.8c-5.3-0.2-9.6,3.8-9.9,9
						c-0.2,5.2,3.8,9.6,8.9,9.8c2,0.1,3.8-0.5,5.4-1.5l46.6,46.5c-3.3,4.7-5.3,10.3-5.6,16.5c0,0.9,0,1.8,0,2.7l-105.1,12.8
						c-2.4-19.9-18.7-35.7-39.3-36.6c-10.7-0.5-20.7,3.2-28.3,9.6l-42.3-35c0.8-1.4,1.3-3.1,1.4-4.8c0.3-6.1-4.5-11.3-10.6-11.6
						s-11.3,4.5-11.5,10.6c-0.3,6.1,4.5,11.3,10.5,11.6c2.9,0.1,5.5-0.9,7.5-2.6l41.9,34.7c-5.8,5.9-9.9,13.6-11.3,22.2l-82.5-21.2
						c0-0.1,0.1-0.2,0.1-0.3c0.3-6.5-4.7-12-11.2-12.3s-12,4.8-12.3,11.3s4.7,12,11.2,12.3c4.9,0.2,9.3-2.7,11.2-6.9l83,21.3
						c0,0.3-0.1,0.6-0.1,0.9c-0.7,16.7,8.5,31.6,22.5,38.9l-23,59.6c-1.2-0.3-2.5-0.5-3.8-0.6c-10-0.4-18.5,7.4-18.9,17.4
						c-0.5,10,7.3,18.6,17.3,19c10,0.5,18.5-7.4,18.9-17.4c0.3-7.3-3.7-13.7-9.7-16.9l23-59.4c4.2,1.7,8.6,2.7,13.4,2.9
						c22.9,1,42.3-16.8,43.3-39.8c0-0.9,0-1.8,0-2.7l105.3-12.9c1.7,9.3,7.5,17.3,15.6,21.8l-17.6,44.8c-0.2,0-0.4-0.1-0.6-0.1
						c-4.6-0.2-8.5,3.4-8.7,8s3.3,8.5,7.9,8.7c4.6,0.2,8.5-3.4,8.7-8c0.1-2.9-1.2-5.5-3.4-7.1l17.5-44.5c3.1,1.2,6.4,2,9.9,2.1
						c5,0.2,9.8-0.8,14.2-2.8l28.2,73.8c-2.2,1.5-3.7,4-3.8,6.9c-0.2,4.9,3.6,9,8.4,9.2c4.9,0.2,9-3.6,9.2-8.5s-3.6-9-8.4-9.2
						c-0.5,0-1,0-1.5,0.1L637,821.5c3.4-2.1,6.3-4.9,8.7-8.1l82,35.6c-0.4,1.4-0.7,2.8-0.8,4.4c-0.4,10,7.3,18.4,17.2,18.8
						C754.1,872.6,762.5,864.9,762.9,854.9z M441.7,847.5c-18.3-0.8-32.5-16.4-31.7-34.8c0.8-18.4,16.4-32.6,34.6-31.8
						c18.3,0.8,32.5,16.4,31.7,34.8C475.5,834.1,459.9,848.4,441.7,847.5z M619.5,817.9c-12.6-0.6-22.3-11.3-21.8-23.9
						c0.6-12.6,11.2-22.4,23.8-21.9c12.6,0.6,22.3,11.3,21.8,23.9C642.7,808.7,632,818.5,619.5,817.9z"/>
				</g>
			</g>
			<g>
				<g>
					<path class="st5" d="M78.7,591.8c0.1-4,0.1-8,0.3-12"/>
					<path class="st6" d="M80.6,545.1c11.6-180.4,75.4-324.5,190-397.6"/>
					<path class="st5" d="M285.5,138.5c3.5-2,7-3.9,10.6-5.7"/>
				</g>
			</g>
			<circle class="st7" cx="644.3" cy="1226.7" r="951.3"/>
			<circle class="st7" cx="654.4" cy="1199.6" r="1037.6"/>
			<g>
				<g>
					<path class="st5" d="M296,132.9c3.6-1.8,7.2-3.6,10.8-5.3"/>
					<path class="st8" d="M338.1,114.9c273.6-94,669.8,184.3,908.9,649.2c193.6,376.5,227.7,765.6,108.5,989.1"/>
				</g>
			</g>
		</g>
	</g>
</g>
</svg>
