<?xml version="1.0" encoding="utf-8"?>
<!-- Generator: Adobe Illustrator 26.3.1, SVG Export Plug-In . SVG Version: 6.00 Build 0)  -->
<svg version="1.1" id="Layer_1" xmlns="http://www.w3.org/2000/svg" xmlns:xlink="http://www.w3.org/1999/xlink" x="0px" y="0px"
	 viewBox="0 0 1454.9 1090.7" style="enable-background:new 0 0 1454.9 1090.7;" xml:space="preserve">
<style type="text/css">
	.st0{opacity:0.39;fill:#010102;}
	.st1{fill:#010102;}
</style>
<path id="Brush_Effect_00000124133419446937845430000014527639809264800691_" class="st0" d="M1172.5,110.1
	c-0.5,0.4-1.1,0.7-1.8,0.9C1171.3,110.6,1171.9,110.4,1172.5,110.1 M1425.7,309.1c0.4,0.7,0.5,1.1,1.1,1.6
	C1429.7,311.3,1426.4,309.5,1425.7,309.1z M1375.5,200.4c-6.8-9.4-14.2-10.4-23.8-15.6C1358.2,195.5,1363.4,195.3,1375.5,200.4z
	 M1349.7,243.3c-2.9-0.7-5.1-1.3-8-2.5c2,1.7,3,3.9,4.2,6.1C1347.1,245.3,1348.6,244.6,1349.7,243.3z M1400.9,342.7
	c0,0-1.6-0.4-2.4-0.6C1398.4,342.1,1416.4,367.1,1400.9,342.7z M1430.9,248.6c0,0-1.2-1-1.8-1.4c0,0,1.6,0.4,2.4,0.5
	c0,0-7-5.5-10.1-6.7c0,0,2.9,4.1,4.3,6.1C1427.2,247,1429.2,248.1,1430.9,248.6z M1382.5,293.7c0,0-1.2-1-1.8-1.5
	c0,0-0.4,0.6-0.6,0.9C1380.1,293.1,1381.7,293.5,1382.5,293.7z M1391.3,273.1c-3-1.3-6.1-2.6-6.9-2.9c0,0,0.2,1.1,0.3,1.6
	c0,0-8.8-6.2-13.3-9.4c3.9,6.7,11.3,9.8,18.1,12l-5,4c0,0,13.1,9.2,19.7,13.7c0,0-5.3-15.9-7-23.9l-2.3,1.9L1391.3,273.1z
	 M1104.7,224.7c-12.9-18.4-48.4-36.9-66-49.2c-7.3,0.9-13.5,0.9-21.1,0.6C1030,183.8,1095,224.4,1104.7,224.7z M1087.4,116.8
	c0,0-16.3-0.1-24.5-0.2c24.4,21.3,25.3,18.1,34.5,49.7l13.5-4.4c0,0,1.1,0,1.7,0.1c-1.9-5.3-6-14,1.3-1c8.1-1.2,15.7-2.8,23.9-3.8
	c0,0-9.7-15.7-14.5-23.5C1094.1,74,1103.5,126,1087.4,116.8z M1210.1,270.7c4.2,2.7,14.5,7.7,19,10c0,0-0.1-2-0.2-2.9
	C1225.1,276.6,1211.2,270.9,1210.1,270.7z M1315.1,266.2l-0.2-0.5l0.4,0.5C1315.2,266.2,1315.2,266.2,1315.1,266.2z M1251.4,279.8
	 M1359.6,433.7 M1436.5,315c-1.9-3.1-9.7-11-12.2-13.7c0,0-2.4,0.2-3.7,0.3C1423.2,303.9,1433.9,313.9,1436.5,315z M1297.5,385.8
	c-0.1,1.7,4.8,10.8,5.7,12.6c0,0,1-1.9,1.5-2.9C1303.2,393.3,1299.5,387.6,1297.5,385.8z M1250.6,283.8c-2.4-3.1-10.4-3.6-13.2-3.5
	C1240.4,281.3,1247.7,284.3,1250.6,283.8z M1160.2,278.5c0,0,3.7,6.4,5.6,9.7c-11.3-8.3-15.9-11.8-18.3-14.4
	C1150.8,275.4,1157.4,277.5,1160.2,278.5z M1449.7,414.9c-3.8,0.2-6.1-1.5-9.3-4.1C1443.5,412.1,1446.6,413.5,1449.7,414.9z
	 M1300.9,404.8c-0.4,5.6,5.4,14.8,8.3,21c0.1-1,0.8-2.8,0.8-3.5C1310,422.3,1304.3,410.4,1300.9,404.8z M1052,223
	c7.1,11,45.7,24.7,57.1,30.3C1103.5,238.3,1063.1,222.1,1052,223z M957,38.4c9.6,3.8,68.3,7.6,78,8.4c-1.5-3.5-4.2-6.5-4.6-9.5
	C1018.6,37.1,963.8,35.4,957,38.4z M1067.9,48.7c0,0-3.8,4.2-5.7,6.2C1083,72.8,1083.5,79.1,1067.9,48.7z M1205.3,231.9
	c0,0-45.9-71-36.2-83.1c-13.7-11.9-23.2-22.4-34.1-36.9C1143.6,146.8,1173.7,168.6,1205.3,231.9z M1200.9,237.5
	c-0.7-2.9-18.1-21.6-20.5-24.3c2,4,3.5,7.9,5.1,12C1187.8,227.3,1198.5,236.9,1200.9,237.5z M1236.5,157.4
	c11.8,6.4,28.3,15.1,31.5,14.9c-17.8-25.6-71.2-43.8-94.1-70.1c0.9,2.1,1,4.2,0.2,5.9c-1.9-1.1-3.7-1.7-5.8-2.1c0.6-0.2,1.5-3,0.8-3
	c-0.7,1.8-1,3.4-1,5.5c7.7,8.1,16.1,15.2,24.9,21.6c-5.2-2.1-9.3-3.5-10.3-3c10.4,13.2,44.2,26.9,58.2,34.7
	C1239.3,160.4,1237.8,158.9,1236.5,157.4z M1082.2,93.8c0.2,0.8,12.4,6.7,13.3,7.1c-0.8-1.4-1.7-2.1-2.9-3.2
	C1090.5,96.8,1084.2,94.1,1082.2,93.8z M1084.6,196.4c1.2,2.1,41.3,23.7,44,25.1c0,0-3.2-5.1-4.8-7.6
	C1117.1,210.9,1089.7,197.7,1084.6,196.4z M990.8,95c3,3.8,52.9,27.5,57.6,29.9c-0.1-3.9-2.7-5.5-3.6-9.3
	C1037.6,112.7,995.7,95.2,990.8,95z M1073.2,166.6c5.1,4.3,30.6,17,36.6,20.1c0,0-13.3-9.6-20-14.4
	C1086.6,171,1076.1,166.6,1073.2,166.6z M1195.5,412.8c5.1,2.8,10.3,5.9,15.3,9c0,0-36.7-33.9-45.4-52.3
	c11.7,8.6,26.5,19.3,28.3,19.5c-8.3-9.7-19.9-17.4-29.7-25.5c-0.8-9.6,12.8,5.3,15.2,8.4c0,0-4-10.3-6-15.5
	c3.5,4,61.1,67.8,79.6,94.4c-2-0.6-4.1-1.2-6.1-1.8c1.3,1.7,2.7,3.5,4,5.3c-0.9-0.8-1.6-1.7-2.1-2.7c1.4,3.6,3.2,6.2,5.4,8.3
	c-2.9-0.7-12-5.9-14.6-6.7c5.5,3.3,12.3,6.8,17.9,9.8c0,0,5.8,9.1,8.7,13.7c-15.1-12.8-22.6-16.1-34.7-33.4
	c-8.3-1.8-16.5-3.7-24.7-5.8C1206.5,434.7,1200.2,423.7,1195.5,412.8z M1363.3,520.4 M693.3,4c20.1,13.8,102.5,49.1,124.2,58.8
	c-2.8-4.7-8.5-11.3-9.9-15.4C791.7,41.1,702.1,4.2,693.3,4z M861.7,89.4 M1060.8,246.7c21.1,24.9,67.3,52.6,92.9,71.5
	C1136.2,301.3,1083,245.4,1060.8,246.7z M902.9,151.7c0.6,1.3,20.4,15.4,22,16.5c-1.6-2.3-3.2-3.8-5.2-5.7
	C915.7,159.9,906.8,153.6,902.9,151.7z M763.6,101.3c20.7,24.6,71.5,54.3,96.9,72.8c-1.3-5.1-5.8-9-8.1-14.3
	C841,152.1,771.5,104.5,763.6,101.3z M767.8,456.8c-6.5-9.7-57.6-47.5-67.1-54.9c-7.5,0.4-13.9-0.2-21.7-1
	C691.7,409.7,757.5,455.5,767.8,456.8z M729,345.7c24,22.9,24.6,19.5,32.9,51.7l14.2-3.3c0,0,1.2,0.1,1.7,0.2c0,0-2-6.2-3-9.3
	c0,0,2.9,5.6,4.4,8.4c8.5-0.5,16.5-1.5,25.1-1.8c0,0-9.5-16.5-14.3-24.7C767.9,317.4,761.2,348.1,729,345.7z M881.1,515.1
	c4.9,3.6,15.7,9.5,21,12.7c0,0-0.2-2.1-0.3-3.1C897.6,523,882.7,515.5,881.1,515.1z M926.7,529.5
	C926.7,529.5,926.7,529.5,926.7,529.5L926.7,529.5z M1055.8,706.8c0,0-0.7,0.8,0.2,1.6C1056.2,708.6,1057.3,709.6,1055.8,706.8z
	 M982.4,647.8c0,1.8,6.2,12.4,7.2,14.3c0,0,1-1.9,1.5-2.9C990.3,658.1,983.4,647.9,982.4,647.8z M925.8,533.6
	c-2.7-3.5-11.3-5-14.6-5.3C914.3,529.7,922.7,533.8,925.8,533.6z M826.9,517.5c0,0,4.1,7.1,6.2,10.6c-12.8-10.2-17.7-14.2-20.1-17.1
	C816.5,513.2,823.6,516,826.9,517.5z M616.3,251.9c10.7,5.5,75,18.5,86.2,20.9c-1.5-3.7-4.6-7.4-5-10.6
	C684.8,260.3,623.9,249.9,616.3,251.9z M735.1,288c5.5,5.3,10.3,10.1,15.3,15.9c-4-8.1-7.4-15.8-11.5-23.9c0,0-4.2,3.7-6.3,5.6
	C732.6,285.6,735.1,288,735.1,288z M875.4,474.3c-3.4-21.5-52.6-72.7-38-88.4c-13.9-13-23.5-24.2-34.3-39.7
	C812,389.2,849.2,434.2,875.4,474.3z M870.7,479.7c-0.8-3-19.6-24.3-22.1-27.1c2.1,4.3,3.8,8.5,5.5,12.8
	C856.5,467.7,868.1,478.7,870.7,479.7z M750,324.6c0.2,0.8,12.2,7.3,13.1,7.8c-0.8-1.4-1.6-2.2-2.7-3.3
	C758.3,328.2,752,325.1,750,324.6z M747.4,426.4c1.3,2.3,43.1,27.7,45.8,29.4c0,0-3.3-5.5-5-8.2
	C781.1,443.9,752.9,428.2,747.4,426.4z M693.5,335.6c-4.9-2.5-36.7-19.5-40.3-19.7c1.9,3,33.4,21.8,36.8,23.8
	c0,0,21.8,12.1,23.7,13.1c0.1-3.8-2.4-5.5-3-9.3C711.1,343.8,693.5,335.6,693.5,335.6z M736.7,395.7c5.1,4.8,31.2,19.5,37.4,23.1
	c0,0-13.6-10.7-20.4-16.1C750.4,401.2,739.7,395.9,736.7,395.7z M1116.7,765.1c0,0,0.2,0.2,0.3,0.2
	C1117.2,765.3,1117.9,764.9,1116.7,765.1z M1116,331.2c0,0,2-1.8,3-2.8c0,0,0.7,0.9,1,1.4c-0.6-9.3-5.1-9.1-5.4,2.8
	c1.2-1.3,3.7-1.6,5.5-2.3c-1.4-1.2-3.7,0.6-4.6,1.4C1114.8,331.8,1115.9,331.2,1116,331.2z M429.8,519.2c0,0-0.1-0.5-0.1-0.7
	c-0.1,0-0.7,0,0.3-0.3c0,0.1-0.4-1-0.7-1.2C428.2,517.1,429.1,518.5,429.8,519.2z M442.9,529.7c0,0,2.1,1.3,3.2,1.9
	c0,0,0-1.5-0.1-2.3c-0.9,0-2.1,0.1-0.2-0.2c0,0-0.5-3.9-1.9-4.2C442.4,525.3,442.7,528.2,442.9,529.7z M1438.1,336.3
	c0,0-0.1-0.5-0.1-0.7c-0.1,0-0.7-0.1,0.3-0.3c0,0.1-0.4-1-0.7-1.3C1436.4,334.1,1437.5,335.6,1438.1,336.3z M1451.8,348.5
	c0,0,2.2,1.6,3.3,2.3c0,0,0-1.6,0-2.4c-1-0.1-2.3-0.1-0.2-0.2c0,0-0.5-4-2-4.5C1451.3,344,1451.6,347,1451.8,348.5z M1431.1,332.9
	c0,0,0.1-1.1,0.1-1.6c-0.5-0.2-1-0.3-0.1-0.1c0,0-0.2-2.6-1-2.8C1428.3,328.2,1430.4,331.9,1431.1,332.9z M1226.3,464.2
	c-6-3.2-7.8-5.7-12.2-11.5C1218.1,456.5,1222.2,460.3,1226.3,464.2z M1203.5,436.7L1203.5,436.7L1203.5,436.7L1203.5,436.7z
	 M1060.6,313c-1.5-1.3-11.1,2-12.2,2.8c0,0-20.9-29.9-19.4-44.4C1038.4,283.9,1049.4,298.2,1060.6,313z M1018.6,257.8
	c-4.1-1.4-4.5-0.8-3.6-4.7L1018.6,257.8z M1014.8,252.8c-7.5-2.9-19-9.3-26.1-8.8l-0.7-0.9c5.7,2,11.9,0.1,20.6,1.6L1014.8,252.8z
	 M949.6,270.2c15.1-9.9,13.1-10,1.2-15.6c0.7,0,14.8,2.4,13.5,1.1c0,0,1.7,0.6,2.5,0.9c0,0-4.8-8.9-7.2-13.3c0,0,5.9,8.5,8.8,12.7
	c2.8,0.6,5.7,1.2,8.5,1.8c0,9,0.6,17.7-9.7,27.5C963.9,282.5,956.7,276.4,949.6,270.2z M945.8,478.2c7.1,8.9,17.2,14.9,27.3,23.8
	c-1-0.1-1.9-0.2-2.9-0.3c1.8,2.7,4.4,5.4,3.9,8.2C965.3,508.3,951.3,486.7,945.8,478.2z M972.8,515.5c0.3-0.8,0.6-2,0.8-2.8
	c0,0-0.9-1.1-2.3-2.9c0.9,0.4,1.8,0.7,2.7,1.1c-0.1,0.7-0.3,1.3-0.4,1.8l6.7,8.3C977.5,518.8,975,517.1,972.8,515.5z M1096.9,784.6
	c0,0-2.2-1-3.2-1.5c0,0,23,32.1,37.5,52.2c-1,1-1.9,1.8-2.5,2.4c-16.1-17.4-35.4-56.8-10.1-10.6c-18.2-19-28.9-26.7-37.6-47.8
	c1.7-3,7.6-0.4,11.7,1.3L1096.9,784.6z M1077,726.1c-5.5-3.9-16.9-4.3-23.1-5.3c-67.5-79.8,3.5-37.5,38.5-4.5
	c-6.9,12.7,11.2,44.3,26.3,36c0,0,1.7,2.3,2.6,3.4c0.2-0.1,0.9-0.4,0.2,0.2c6,10.8-3.1,8.1-6.7,3.9c0,0,4.5-2.5,6.7-3.9
	c-1.2-0.3-5.2,2.9-6.9,3.2c0,0-0.9-2.3-1.4-3.4c0,0-3.9,1-5.8,1.4c0,0,5.4,4.7,8,7.1c0,0,1.6,0,2.4-0.1c0,0,0.9,1.6,1.4,2.3
	c0,0,3.5,1.2,5.2,1.9c0,0-1.8,1.7-2.7,2.5c0.6,3.3,2.3,6.8,7,7.2c0,0-0.6-3.1-0.9-4.6c0,0,3.1-4.6,5.4-4.4c-4,8,3.9,15,4.7,23.7
	c-12-6.1-27.5-13.9-38.1-19.3c-7.8-15.2-14.9-30.3-22.8-45.7C1075.7,727.3,1075.7,726.7,1077,726.1z M1005,752.2
	c-2.1-1-16.1-18.2-17.4-19.7C994.6,738.8,999,744.5,1005,752.2z M1065.4,802.4c1.6,2.8,3.2,5.6,4.6,8.4c-0.9-0.4-1.8-0.8-2.8-1.2
	C1066.1,807.5,1063.9,803.8,1065.4,802.4z M1073.9,821.1c-1.2-1.5-2.5-3.6-4.2-6.7c0.8,0.4,1.5,0.7,2.3,1.1
	C1072.8,817.3,1073.4,819.2,1073.9,821.1z M1201,880.9l5.5,7.7c-0.4,0-0.7,0.1-1.1,0.1C1203.9,886.2,1202.5,883.6,1201,880.9z
	 M1190.1,887.5L1190.1,887.5c-2.3-4.2-4.5-8.3-6.3-11.8c0.9,0.8,2,1.9,3.2,3.2c-0.4-0.8-0.7-1.5-1.1-2.3c3.9,3.8,8.9,8.6,13.9,13.3
	c-2.6,0.7-5,1.6-7.2,2.4L1190.1,887.5z M1116.6,851.6L1116.6,851.6c0,0-16-30-23.6-45.1c21.8,21,35.3,38.3,49.9,65.2
	c-5.8-3-11.6-5.9-16.7-8.5C1122.2,858.9,1119,856.2,1116.6,851.6z M779,538.7l9.3,9.6c-3.8-3.3-7.6-6.5-11.3-9.6H779z M822,538.1
	c0,0-4.2,3.7-6.3,5.5C830.7,558.9,827.2,560.5,822,538.1z M870.6,592.9c6.1,3.1,12.4,5,19.7,10.7c0,0,18.2,22.2,27.3,33.2
	c0,0-20-16.1-36.6-29.4C877.4,602.9,874,598.2,870.6,592.9z M892.5,626.1c2.2,2.7,4.4,5.2,6.2,7.5l-6.4-6.7
	C892.3,626.6,892.4,626.4,892.5,626.1z M943.2,622.7c3.9,16.4,5.9,24.9,11.4,44c-0.7,0.1-1.3,0.3-2,0.4c0.5,0.3,1.4,0.8,2.6,1.5
	c3.5,11.4,10,26.7,25.2,49.7c-1.6,0.1-3.1,0.1-4.7,0.2c-22.8-26.9-23.2-29.7-37.2-60.7c0.3,0.5,0.6,1,0.9,1.5
	c-5.8-11.6-40-42.2-36.7-50.1c9.5,0.3,32.4,21.1,40.3,28.6c-1.9-4.8-3.8-9.4-4.9-14.3c-10.3-4.5-15.2-6.9-25.3-19.3
	C918.7,608.6,931.9,616.3,943.2,622.7z M1201.3,887.4c-5.9-6.1-17.4-14.7-20-21.9c7.8,6.5,14,11.2,17.4,12.8
	C1199.4,880.5,1200.3,883.9,1201.3,887.4z M1170.3,843.9c-0.2,0-0.4,0-0.7,0c-2.7-5.8-5.6-11.9-7.9-16.9c0.3,0,0.5,0,0.7,0
	c6.4,5.7,21.5,30,34.3,47.9c-4.7-6-14.2-16.4-24.9-27.8C1171.4,845.4,1170.5,844.9,1170.3,843.9z M1151.8,876.4
	c-13.6-7.5-18.8-25.5-26-38.6c4.1,3.7,7.9,7,11.2,9.6c-0.1-0.7-3.3-4.4-8.2-9.6c0.9-0.4,2-0.8,3.2-1.3c6.1,8.5,3.4,5.1,11.2,21.7
	c-4.4-3-7.7-5-9-5.4c1,1.9,5.7,6.4,12.2,12.1C1148.2,869,1150.1,873,1151.8,876.4z M1094.2,705.8c0.4,3.1,0,6.1-1,8.7
	c-2.6-4.9-6.8-12.6-11-20C1085.5,697.7,1089.7,701.6,1094.2,705.8z M1314.7,511.8c128.2,161.3,75.2,47.5-46,13.4
	c0,0-0.1-0.1-0.1-0.1c6.6,1.8,14.1,3.3,21.2,3.6c41.9,45.1,3.1-32.1-6.3-49C1361.5,572.1,1405.8,635.5,1314.7,511.8z M1452.7,642.9
	c-2.3-1.4-4-1.7-6.4-3.4c0.4,0.2,0.8,0.4,1.2,0.6c-0.3-0.8-0.6-1.5-1-2.1l3.2-1.3c0.4,0.8,0.7,1.6,1.1,2.4c-0.3,0-0.6,0-0.8,0
	c0.3,0.5,0.9,1.2,1.7,2C1452.1,641.8,1452.4,642.4,1452.7,642.9z M1453.4,268.4c1.6,1.8,3.1,3.2,4.5,4.5v1
	C1455.6,271,1453.4,268.4,1453.4,268.4z M1457.9,137.6c-3.3,1.7-6.1,3.3-8.3,4.8c1.4,0.2,4.4,0.5,8.3,0.9V137.6z M1457.9,172.9
	c-1.1-1-2.3-2.1-3.4-3.2c1.2-0.6,2.4-0.9,3.4-0.6v-19.8c-1.7-0.3-3.5-0.5-5.2-0.8c-1.7,4.6-4,7.9-6.5,12.4
	c-12.7-14.8-21.7-23.5-34.2-36.8c6.9,12.6,23.9,34.4,26.9,46.8c-1.4,0.8-8-7.7-8.9-8.9c0.7,0.6,2,0.8,2.7,0.9c0,0-14.7-12.9-22-19.3
	c6.3,12.4,32.1,47.8,46.1,60.8c-0.1,0.9-0.1,1.8,0,2.7c-0.2-0.2-0.5-0.2-0.7-0.2c0,0,0.7,1.3,1,1.9c-3.6-3-3.4,10.3-3.2,12.2
	c0,0-0.5,0-0.6-0.1c0,0,0.3,0.8,0.4,1.2c0,0-0.4-0.5-0.6-0.7c-1.6,14.4,3.8,9.6,4,2.7l0.8,0.5v-2.5c-0.2-0.2-0.4-0.3-0.6-0.5
	c0,0,0.1-3.7,0.6-7.2V172.9z M1457.9,285.8c-10.8-10.2-20.8-12.5-34.4-1.3c15.6,20.1,24.1,32.2,34.4,45.7V285.8z M1457.9,351.2
	c-4.8-3.1-9.6-6.3-13.6-9.4c0,0-2.6-2-3.3-0.6c-3.2-3.1-2.7,6.6-2.5,8l4.4,5.2c0,0-0.1-0.1-0.1-0.1c0,0,12.1,11,15.2,14V351.2z
	 M1457.9,398.1v-28.7c-7.5-1.8-24-19.1-30.8-24.9c0,0,2,5.2,3,7.7c-13.7-18.6-20.1-23.8-37.1-38.7c1.7,4.8,4,10.6,6.6,15.3
	c-2.5-2.3-10-9.2-16.9-15.3c0.8,0.4,1.7,0.9,2.6,1.3c-3.6-7.4-7-14.7-10.4-22l3.8,0.4c0,0,0.4-0.6,0.6-0.9
	c-9.5-6.6-13.6-19.8-18.6-30.5l1.6,1.1c0,0-1.4-2.1-2.1-3.1c3.1,1.3,5.7,3.1,8.8,4.4c0.5-0.9-0.3-1.9-0.6-3.2
	c-3.2-1.1-6.3-2.3-9.4-3.6l-0.2,0.1l-0.3-0.6c-0.3-0.1-1.4-0.2-1-0.8c0.6,0.2,1.2,0.4,1.4,0.4c-0.2-0.4-0.4-0.7-0.6-1.1l0.1-0.1
	c-1.3-1-2.9-4.9-3.3-6.7l-3.1,4.7c-6.8-1.5-16.6-3-19.4-3.5c0,0,2.9,3.9,4.4,5.8c-4.5-3.5-16.2-4.6-19.2-7l-0.2,0.3
	c-8.6-0.6-17-0.9-25.6-0.7c1.6,2.4,3.1,4.8,4.5,7.3c-1.2,0.8-8.6-1.8-10.6-1.9c3.5,1.4,8.5,2.8,12,3.9l0.9,1.9l-0.6-0.4
	c0,0-1.9,1.3-3.6,2.5c-5.1-3.4-8.8-6.2-13.4-14.3c-3.5,0.3-7,0.6-10.5,0.9c11.7-8.5,22.1-13.9,36.2-19c-6.7-5.7-13.5-11.7-19.8-18
	c0.2-0.2,0.4-0.4,0.5-0.7c12.8,1.4,34.2,4.2,45,3.3c-14-4.2-28-5.4-41.9-7.6c5.7-8.4,10.2-18.1,13.2-28.5
	c10.7,14.7,16.1,12.4,35.9,34.3c1.3-1.2,5.1,2.2,6.6,3.4c-12.2-21.6,2.8-11.3-18.6-34.1c1.2,1,2.7,1.6,4,2c0,0-8.9-8.4-13.3-12.6
	c0,0,9.5,6.2,14.3,9.3c-1-2.1-1.4-4.1-2.4-6.2c-8.7-4.4-15.7-9.6-22.5-17.1c1.6-18.3-0.7-38.7-7-58.2c4,3.3,10.1,9.3,21.5,21.7
	c0,0,69.1,92.3,84.9,103.5c0,0-10.9-11.6-16.4-17.4c6.8,5.5-7.3-8.5-10.3-11.8c165.2,111.7-2.6-88.8-25.4-94.2
	c-10.9,0.8,16.3,44.9,11.3,40.7c4.2,6.9,63.1,82.9,17.2,32.9c0,0,5.2,11.6,7.8,17.3c0,0-0.2-1.1-0.3-1.6c0,0,4.8,10.3,7.3,15.5
	c-14.1-17.9-27.9-35.9-41.5-54.1c0,0,1.6,3.5,2.3,5.3c-1.1-0.8-3.8-2.7-4.8-3c3.9,5.2,4.6,3.3,6.6,10c-16.9-27.4-37.1-55.9-51-86
	c-9.5-4.7-18.1-11.8-27-17.3c4,10.4,14,26.9,17.8,38.6c-3.5-3-5.4-3.8-7.9-5.2c-1.6-4.5-19.6-37.6-19.3-24.1c0.5-0.7,1.7-3,3.1-2.6
	c2.8,5.5,0,9.5,4.9,18.1l0.1,0.1c5.8,5.1,8.8,7.1,11.2,8.5c6.8,18.9,9.7,38.6,8.9,56.6c-7.5-8.6-15.2-14.9-24.7-21.1
	c7.7,16.6,11.8,26.8,21.7,41.7c-3.2,12.7-8.9,25-16.1,34.5l-1.5-0.2c0,0-0.5-0.6-0.5-0.6c0.3,0-20.5-23.2-23.3-26.4
	c-0.7,1-0.6,1.1-0.2,2.6c0,0,1.7,0.5,2.6,0.8c-0.1,0-5.3-0.6-2.8,1.8c0.8-0.9,1.4,0,2.2-0.9c0.3,1.7-0.8,4.1-1.1,6
	c29.1,15.3-4.3,17.3-0.9,1.3c-0.8-0.8-1-2-1.1-3c-1.6,6.2-3.7,11.3-7.3,15.3c-7.9-5.6-8.4-6.3-15.4-4.9c1.5,0.8,7.1,4.1,12.9,7.4
	c-1.5,1.3-3.2,2.4-5.2,3.5c5.1,6.8,10.3,13.6,15.2,20.5c-6.7,3.8-14,6.6-22.9,9c1.1-0.1,6.1-1,7.3,0.2c0.2,2.1-10.7,5-12.4,5.4
	l12.9-0.7c-1.3,0.4-2.7,0.8-4.1,1.2c0,0,4.2-1.1,4.7-1.2l-0.5,0c7.1-2.2,13.4-4.8,19.2-8.1c2,2.8,9.2,13,10.1,14.3
	c-5.4,0.4-10.9,0.7-16.5,0.9c22.6,18.1,47.3,42.9,66.3,65.2c-2-8.4,2.9-9.9,10.2-8.6l-14.1-36.7l0.9-0.7
	c11.2,14.9,33,44.7,43.6,56.1c-2.7-5.9-18.8-26.8-25.6-37.2l0.1,0c10.1,14.2,20.1,25.2,30.5,39.2c-0.4-0.6-0.9-1.5-1.5-1.9
	c2.9,1.7,5.8,3.6,8.4,5.8c-36.1-46.3,23.6-7.2,32.7,14.3l-3.1-2.4c13.5,21.8,28.2,32.8,41.9,53.4c0.9,0.1,7,0.6,10.1,4
	c-0.3-0.9-0.7-1.7-1-2.6L1457.9,398.1L1457.9,398.1z M1457.9,1094.7V635c-9.3-11.9-9.9-17.5,0-12.5v-5.9
	c-17.8-14.4-17.7-2.3-10.5,15c-38.2-31.8-35.9-53.5-61.1-111.3c9,8.5,26.8,25.8,35.7,32.2c0,0-62.8-74.9-50.2-71.6
	c0,0-5-12.1-7.5-18.2c6.6,10,12.2,21,20.9,29.7c0,0,1.4,2.8,5.8,7c0,0-1.8-0.6-2.7-1c0,0,40.9,76.2,57.9,92.7
	c2.7-2,7.1-1.1,11.7,0.9v-35.5c-10.1-14.7-12.9-18.1,0-0.9v-31.3c-4-3.8-7.8-13.8-20.1-21.6c0,0,2.6,3.2,4,4.8
	c0,0-50.3-21.7-65.1-39.9c-105.1-129.5,57.5,25.2-10.3-77.8c2,1.1,7.1,3.8,9.9,5.3c0.3,1-18-18.1-21.8-24.7l13.1,3.1
	c0.2,0.4,0.2,0.9,0.1,1.3l-0.4,0.6l-0.1,0.1l-0.1,0.1l-0.1,0.1c8.7,5.3,17.2,10.7,25.7,16.2c19,69.5,34,73.3,65.3,114.4v-93.9
	c-2.2,0.4-4.7,0.2-8.3-1.6c1.8,0.2,3.7,0.5,5.7,0.9c-0.7-2.4,1.7-2.3,1.1-3.9c0,0-8.3-0.7-12.5-1c0,0.5,0,0.9-0.1,1.2
	c-2.3-1.1-4.6-2-6.8-3.6c0,0.1,0.1,0.2,0.1,0.4c-19.4-9.3-54.7-46.8-36.6-16.9c-4.1-2-7.8-3.8-10.7-5.3l0.6,1.9l-16.2-9.5
	c5.8,1.2,11.5,2.3,17.3,3.3c0,0,0.6-0.9,0.8-1.4c-1-0.8-2.2-1.4-3.3-2c-12.7-6.6-26.7-9.5-39.5-13.1c-6.9-12.3-14.4-22.4-25.5-31.6
	c6.4,3.6,13.6,7.7,18.5,10.5l0.9-1.2l23.7,11.1c-3.8-9.3-10.4-8.9-21.7-13.6c1.7-2.2,3.8-4.9,5.2-6.7c-40.3-7.9-62.5-22-89.1-58.3
	c0,0,2.6,4.6,5.2,9.3c-1.2-1.1-2.2-2-3.1-2.8c1.1,3.2,1.8,5.9,2.2,8c-10.3-12.2-20.5-24.6-30.4-37l29.7,43.7
	c-2.4,0.6-8.2-5.6-13.8-13.4c-0.1,0-2.5,0-3-0.5c32.7,33.2,45.8,64.5,56.4,107.4c0,0,11.6,38,4.3,42.5
	c-12.6-18.2-13.2-43.6-22.1-55.8c0,0-16-6.4-24-9.5c4.9,30.5-8.3,41.4,40.2,105.2c-11.6-9.9-34.9-13.8-47.9-17.7
	c-16.3-23.2-5.6-24.3,20.4-5.2c0,0-3.1-8.5-5.1-12.7c0,0,0.7,0.6,1.1,0.9c0,0-9.2-22.7-13.8-34c0.3,0.4,0.5,0.9,0.8,1.3
	c-13.3-29.5-51.7-71.9,4.1-20.7c-1.5-4.4-3.1-8.5-3.8-13c0,0-48.9-46.5-25.2-39.7c-8.9-12.1-14.5-22.2-20.9-35.3
	c-11.6,2.3-30.9-34.8-35.9-44.7c-7.3,1.3-14.4,2-21.9,2.6c0-0.2,4.6,17.9,0.1,18.8c1.2,2.3,2.7,4.6,4.4,6.6c-1.4-0.4-10.4-3-12.3-3
	c-3.3-3.8-2-5.9-13-20.7c-9.7,0.4-19.1,1.7-28.7,2.4c11.6,16.7,26.8,27.5,41.4,41.8c-15.8-27.4,59.3,46,64.8,52.2
	c0,0-15.3-6.5-23-9.4c9,9.1,17,7.1,27.7,14.8c0,0,15.7,19,23.5,28.5c-15.9-11.8-66.2-59.6-16.1,0.1c0,0-40.2-28.9-60.3-43.4
	c0,0,6.3,7.7,9.4,11.5c0,0-0.2-0.2-0.4-0.3c0,0,4.4,5.6,6.5,8.4c0,0-22.9-16.9-34.4-25.3c1,0.9,2.1,2,2.9,3.2
	c-2.6-0.5-1-0.1,0.4,0.3c0,0,0.8,2.1,1.2,3.1c-3.8-3-6.6-3.8-7.9-8.9c0,0-8-5.9-11.9-8.9l25.6,36.9c-1.2-0.2-2.4-0.4-3.6-0.6
	c22.5,16.6,29.3,49.3,43.3,68c-2.3-2.3-4.5-4.9-6.3-6.9c-6.9,1.1-28.9-46.3-42.6-57.4c0,0-5.6,0.9-8.4,1.3
	c-8.7-7.8-10.4-18.9-20.6-26.7c0,0,0.1,10.2,0.1,15.3c-9.9-14.9-27-27.3-40-39.5c-2.3,1.9-5,3.3-7.9,4.4
	c-16.5-21.7-29.5-43-22.6-49.8c-22.2-21.2-40.2-40.8-59.7-64.5c5.4,12.2,8.2,23.5,16.5,34.4c-6.3,3.2-10.6,5.6-15.6-6.6
	c-1.8,1.8-3.4,3.5-4.6,5.2c-52.3-71.5-54.2-42.5-65.9-51.6c0,0-24.6-9-36.9-13.5c14,13.5,23.8,21.8,32,30.4l0,0.3
	c0,0,0.9,0.8,1.4,1.2v0c2.3,2.4,4.4,4.9,6.5,7.5c-0.4,2.3-0.4,5.3-0.3,6.6c0,0,2.9,2.9,4.4,4.4c0,0,0.1-3.2,0.1-4.8
	c-0.8,0-3.6,0.1-4.4-0.2c0.2-0.3,3.1-0.6,4.2-0.7c0.7,1,1.5,2.1,2.2,3.2c-2.6,1.3-0.4,6.6,1.2,9.3c1,1.5,2.2,2.5,3.5,3.6
	c-6.4-1.5-5.8-3.1-12,2.5c0,0,6.3-2,9.5-3.1c4.1,6,17.9,30.4,18.8,36.9c-11.7-10.1-24.9-21.6-38.1-26.2c7.7,7.3,23.4,18.9,37.6,29.1
	c-1.1,2.3-5,3.9-7.2,5.3c0,0-3.4,2.3-5.2,3.4l12.9-8.3c7.5,5.4,14.4,10.3,19.6,14c-4,3.8-9.7,6.4-15.4,7.8c0,0-0.2-1.2-0.6-1.6
	c-0.6,1.7-2.6,3.8-5,2.3c1.3-1.2,4.5-3.8,5-2.3c0.8-3.1-11.4-2.1-16.5-4.8c0.3,0.5,1.5,1.5,3.2,2.9c-4.3,0.7-8.6,1.6-11.1,2.1
	c-1.3-1.1-2.6-2.3-3.9-3.4c2.1-2.2,10.5-7.7,11.8-8.6c-1.8,1.2-7.8,5-12,8.5c-48.8-42.2-52.6-47.6-94.1-63.8
	c13.9,11.2,72.5,58.7,110.9,87.3c-3.7,5.1-8.1,9.3-12.2,13c-15.9-10.4-30.4-19.4-34-20.4c2.4,3.2,15.9,13.4,30.2,23.8
	c-15.9,14-42.9,5.9-58.1,41.9c-6.5-3.2-11.7-5.4-12.9-5c1.3,1.7,5.7,5,11.7,9.2c-3.1,24.1,20.7,21.8,0.5,49
	c4.3-2.7,17.7-11.4,22.1-12.1c7.3,5.5,28.2,25.5,32.6,34.4c-6.3-4.8-7.4-4.9-13.6-4.4c2.1,1.3,11.9,7.8,19.8,12.5l-0.9,21.1
	c-11,3.2-5.1,12.6,1.9,3.3c0.5,1.9,1.7,8.5,4.7,7.4c0,0,1.7-14.5,2.5-21.7c0,0,3.9,1.9,5.8,2.9c0,0,0.3,21.1,10.4,32.3
	c-7-0.2-13.9-0.6-21-1.2c22.1,18.9,39.5,38.4,55.2,62.7c-0.3-2.4-0.2-5.6,0.1-8.8c7.2,7.8,14.1,15.6,20.5,23.2
	c-2.7-9.5,3.2-10,11-7.7c0,0-1-2.4-2.6-6.1c13.2,16.3,28.1,34.7,41.9,51.7c-14-5.9-40.2-21.1-47.5-22.8c4.6,4.3,46.8,27.3,52.3,30.4
	c-0.2-0.5-0.5-1-0.7-1.4c6.3,3.7,19.4,22.7,22.6,26.7c0,0-7.6,4.5-11.4,6.8c0,0-0.8-8-1.2-11.9c-3.5-2.8-12.4,2.7-15.2,3.5
	c5.5,3.1,11.2,6.2,16.2,10.4c0.3-0.4,21.3,40.9,22.9,45.2c-52.3-40.9-100.2-122.5-152.5-170c1.3,3.6,2.2,6.4,2.7,8.6
	c-33.8-40.3-46.9-60.4-0.5,6.9c-2.8,0.3-9.9-7.8-15.7-15.8c-0.1,0-2.7-0.3-3.4-0.9c41.5,43.3,71,101.8,76.7,155.5
	c-1.5-0.6-3.3-1.3-4.8-1.9c-2.4-4.4-5.6-10.1-7.9-13.7c-0.1,6,7.3,17.2,10.7,23.7c0.4-4.7,1.4-2.3-2-8.6c1.3,0.7,2.8,1.4,4.1,2
	c0.4,5.2,0,9.1-2.1,10.1c-26.3-36.4-30.4-92.8-87.5-94.4c-11.1-14.1-21.5-30.7-2.2-23.2c-10.1-13.6-16.6-24.9-24-39.6
	c-12.9,1-34-39.3-39.7-50.4c-7.9,0.6-15.6,0.5-23.7,0.4c0-0.1,5,18.9,0.2,19.4c1.3,2.5,2.9,5,4.8,7.3c-3.3-1.2-10.1-3.9-13.3-4.5
	c-3.5-4.2-2-6.2-13.9-22.7c-10.4-0.6-20.4-0.2-30.7-0.4c12.3,18.3,29,31.4,44.5,47.3c-14.3-24.9,63.4,52.1,72.2,62.2
	c0,0-17.1-8.7-25.7-12.7c3.1,3.3,6.2,5.5,9.3,7.2c0.2,1.8,0.3,3.8,0.4,5.8l-0.5-0.4c1.2,1.5,0.7,4.1,0.7,5.5
	C825.4,557,778.2,508,733.8,464.6c19.4,11.3,21.9,12.4,38.3,21.7c-5.3-14.4-69.3-51.8-87.7-68.5c9.6,10.9,19.6,21.9,29.8,32.8
	c-0.7-0.2-1.4-0.3-1.8-0.3c9.9,16.4,40,40.3,53.7,54.7c-6.8-7.4-20.8-21.6-26.9-30.5c12.8,8.9,80.8,77.3,90,90.4
	c-4.6-2.7-37.1-26.5-35.4-33.4l-2.6,0.2c-30.7-28.7-76-61.8-88.5-73.1c3.3,6.8,51.1,54.7,70,73.7c-21.7-3.2-54.4-49.2-73.7-66.9
	c0,0,27.9,41.3,47,63.2c-8.1-1-15.7-1.7-19.5-1.6c-11.9-11.8-24.1-23.5-32.4-31.7c20.2,22.5,95.3,129.9,73.3,53.7
	c-14.8-10.6-22.5-14.7-38.6-19.8c10.6,10.5,20.7,20.9,27.2,28.7c-1.9-1.6-25.6-27.3-32-30.5c0.1-0.1,0.4-0.2,0.7-0.3L656,456.7
	c1.9-0.1-12.2-11.7-14.6-13.7c1.4,0.3,2.6,0.7,3.9,0.9c0,0-3.8-4.5-5.7-6.8c2-0.6-4-7.2-4.8-8.1c0,0-1.9-0.3-2.9-0.4
	c0.9,0,1.7,0.2,2.6,0.2c-4.8-5.6-2.6-3.8-6.5-5.3c6.4-0.5-40.1-49.5-40.1-49.5c-7-14.7-107-128.4-35.3-37.1
	c-43.9-39.5-83.3-104.3-118.6-151.3c20.4,32.4,80.7,106.4,105.1,137.5c0.1,0.1-77-73-98.4-105.8l6.4,9.9c-1.7-1.9-18.1-20-20.4-21.6
	c1.3,1.8,2.9,3.8,4.7,6c-7-7.9-12.5-13.7-14.8-15.1c22.9,27.5,46.6,54.7,70.1,81.8c0,0,14.6,18.4,21.6,27.8
	c-0.3-0.4-13.1-14.9-19.6-20.7c-0.1,0.1-49.6-52.2-54.7-57.6c38.2,42.3,77.2,83.1,113.2,127.1c-0.3,0.1-0.6,0.1-0.9,0.2
	c1.5,5.3-3,0.1-8.3,0c0.1,0.6,0.3,0.8,0.4,1.4c-20.3-25.5-41.1-50-61.1-75.9c16.9,24.2,30.2,42,42,66.9c-16-29.9-34.8-50-59.1-77.9
	c0.1,0.5,0.2,1,0.4,1.4c-0.2-0.1-0.4-0.2-0.1,1c-0.5-0.6-0.9-2-0.6-2.6c-1.1-1.1-1.2-2.1-2.9-2.1c29.6,44.3,109.4,158.9,129.3,199.9
	C535.4,451.8,465,273.5,425,239.8c-3.7,21.6,25,39.9,33,59.3c-4.3-1.6-26.2-30.2-29.4-34.3c0,0-0.3,0.1-0.5,0.1
	c-2.7-3.4-3.5-5.7,0.6-0.5c0,0,0.6,0.6,1,0.9c-11.1-16.7-37.3-44.7-51.5-62.9c11.4,17.1,44,62.2,47.8,81.2
	c-20.6-11.4-56.9-52.4-72.6-71.7c0,0,0.4,0,0.6,0c0.8,2.2-6.5-13.4-5.8-6.2c0,0-0.1-0.1-0.1-0.1c0,0,0,1.8,0.1,2.7
	c0,0,0.4-0.3,0.7-0.5c-0.5,1.4-1.3,2.8-2,4c0.2,0.2,0.1,0.4,0.1,0.6c0,0-0.2-0.2-0.3-0.3c-1.2,0.1-1.6,0.1-0.7,1.5
	c-1.3-1.2-2.3-2.5-3.6-3.6c-0.4-2.1-2-16.8-0.2-16.6c-23.1-24.5-45.9-48.6-68.3-73.8c11.6,15.5,55.3,54.4,54.1,70.4l-1.6-1.4
	c1.2,1.2,1.5,1.9,1.4,3.3c-6.4-5.6,3.4-6.8-7.7-13.5c0,0,1.6,2.5,2.5,3.7c-5.1-6.7-11.1-7.6-18.9-15.7c-0.1-1.9,0.7-5.1-2.1-1.8
	c0,0-4.3,5.4-6.4,8.1c0,0-0.1-0.1-0.2-0.1c0,0,3.9-5,5.9-7.5c-1.1-0.5-5.1,4.2-7.4,3.3c-1.8-3.3,3.6-5.9-0.2-9.2
	c-3.2,2.8-4.7,8.4-11.1,5.2c-3.9-17.6-5.3,3.9-8.2,6.1c3.8,5.4,6.2,11.6,7.6,17.5c-5-5.1-33-32.8-36.2-37.3
	c-1.1,0.2-1.4-1.9-0.7-2.6c-0.6,0,38.1,44.4,37.5,48.7c0-4.1-1.7-2.5-3.3-0.6c0,0-0.1-0.1-0.2-0.2c0.2-0.3,0.3-0.4,0.5-0.6
	c0,0-0.6,0.2-0.9,0.3c-1.6-1.3-3.3-2.3-4.9-3.6c-0.2-1.2-0.7-1.6-1.7-2.5l-0.8,0.4c-0.4-0.5-2.2-2.8-0.3,0.3c-0.6,0.4-6,1.7-6,1.7
	c-16.6-9.6,1.7-1.5-6.9,2c2.1,2.6,8.5,9.4,7.3,12.4c0,0-1.5-1.3-2.3-2c2.9,3.7,2.2,2.7,1.2,7.9c-4.9-4.1-5.3-4-0.4,1.8
	c-1.1,5.7-2.6,13.6-2.7,19.7c0,0-3.5-11.1-4.8-16.7c0,2.2,0,21.1,2.8,21.8c0.8-1.5,1.6-2.8,2.3-4.3c1.8,6.3,10.3,10.3-1.9,13.6
	c0,0,0.5,0.8,0.7,1.1c-0.6,0-1.1,0.1-1.8,0c0,0,0.2,0.5,0.2,0.7c0,0,0.1,0.1,0.2,0.1c0,0-0.3,0.1-0.4,0.2c1.2,2.9-1-0.1-2-1.2
	c0,0,1.2,0,1.8,0c0,0,0.1,0.1,0.2,0.1c0.5-0.4,0.2-1.7,0.8-2c0,0-3.4,0.7-3,1.1c0,0,0.1,0.4,0.2,0.7c-12.8-4.6-61.2-48.3-50.3-32.8
	c0,0,2.5,4.5,3.8,6.7c-3.4-3.3-7.8-7.7-10.4-11.7c5.2,12.2,11,29,16.9,41.5c-8.5-3.6-13.2-4.6-20.6-7.3c0.1,0.1,48.9,27,43.3,31.9
	c-20-4.9-36.5-11.7-56.7-11.4c4.3,3.7,53.5,19.3,67.4,32.7c0,0,4.7-1.5,7.1-2.3c-0.8-0.7-1.5-1.5-2-2.3c1.2-0.2,2.4-0.8,3.4-1.3
	c4.8,2.6,9.3,4.9,14.2,7.1c-7,1-13.7,2.3-20.5,3.8c3.4,6.2-15.8,1.8-17.5,2.6c1.4,1.8,43.1,13.6,45.5,14.4c0,0-1.4-1.7-0.7-1.2
	c0,0-1.6-2.5-2.4-3.7c0,0,0.1,0.1,0.1,0.1c0,0-0.8-1.1-1.2-1.6c9.4,5.7,2.9,4.4,12.5,10.4c-2.2-0.3-15.2-2.9-18.4-1.4
	c5,3.1,11.4,3.3,16.9,6.5c-6-1.5-11.3-4-15.5-1.8c2.8,9.7,79,62.3,95.1,76.4c-9.4-2.5-58.2-45.4-63-44.1c8.1,6,14.1,10.2,22.2,17
	c-7.7-5.9-19.3-16.5-28.3-18.7c19.6,14,64.6,46,81.2,65.7c0,0-0.1-0.8-0.2-1.2c5.1,4.5,10.3,8.9,15.5,13.3c-0.4-0.3-0.7-0.4-0.4,0.1
	c-3-2-27.7-17.1-28.8-20.4l0,0.5c0,0-61-48.8-63.5-48.5c0.1,9.3,11.4,24.6,19.6,31.8v0c4.2,4,26.7,27.8,36.2,36.4
	c1.5-1.9,1.7,2.7,3.9,2.9c0.7,1.7,1.4,3.7,3,2.7c0,0,1.4,1.2,2.1,1.9c0.1-0.2,0.5-0.7,0.5-0.1c2.3,2.2,1.6,2.7,5,1.8
	c-0.2,0.7-0.5,1.4-0.8,1.9c0,0,5.8,4.4,8.9,5.8c-0.7-1.8-1.5-5.7-2-7.6c3.9,3.6,7.1,9.9,10.7,12.2c0,0-2-2.9-3-4.3
	c0,0,7.6,7.5,11.4,11.3c-0.2-0.2-5.2-4-5.9-3.7c4,7.7,18,14.6,23.4,23.6c-21.5-16.1-116.9-90.1-131.9-96.6
	c39.3,41.4,124.2,104.8,172.6,144.9c-0.9,0.7-1.6,2-2.7,2.6l-28.1-20.1l0-0.6c-0.4-0.1-1-0.2-0.1-0.1c0,0-1.8-3.5-1.3-0.3
	c-21.8-15.5-39.7-27.9-41-28c7.6,6.6,25.9,21.7,49.4,41c-0.1,4.7,1,5,4.4,8.7c0,0-0.1-0.1-0.1-0.1c0,0,15,12.3,14.9,12.5
	c13.9,12.8,50.5,59.8,70.2,84.3c-1.4,1.2-2.9,2.2-4.2,3.1c-1.7-1.9-3.3-3.7-4.7-5.3c-0.9,1.1-2.3-2.6-2.9-3.1c0,0-0.1-0.8-0.1-1.2
	c2.3,2.9,7.6,4.6,10.5,5.2c-16.4-10.5-15.8-12.4-8.2,7.6c-7.6,3.8-5.1,9.1-10,23.7l-16.4-12.2c-2.6,0.6-1.8-0.4-2.8,1.8
	c2.8,5.1,12.6,13.6,23.8,22.2c-1.7,0-3.3,0-4.4,0.2c5.4,1.6,9.4,1.3,11.9,8.1c0,0-8-4.6-12-6.9c0,0-24.1-20.4-36.1-52
	c-9.7,10.9-20.5,29.3-4.1,47.3c0.4,4-16.5,23.1-20,27.1c6.2-4.1,22.3-15.2,28.6-17.2c0,0,1.7,1.2,2.5,1.8c0.4-10.8,3.5-3.2,4.1,2.2
	c0,0-0.9-0.1-1.4-0.2c5.5,4.2,11.9,16.5,2.6,15.4c-14,18.5-37.5,30.7-54.6,45.4c-3.3-1.7,5.7-40.6,6.4-46.3l-29.7-40.9
	c-7.4,16.2-15.4,30.3-24.8,43.5c-5.6-7.5-21.4-45.9-14.7-51c-3.5-21.5-12.9-22.1-27.6-37.5c1.8,3.9,5.5,17.2,1.4,18.2
	c-2.3-3.7-3.4-7.8-4-11.6c0.3,0.4,3.5,4.5,3.9,4.7c-3.4-9.4-5-19.5-17.1-22.8c4.9,10.4,0.4,14.3-2.4,0c0.5,0.5,3.1,3.3,3.4,3.4
	c-0.5-0.8-2.5-2.9-3.1-3.7c-15.6-2.8-33.2-3.4-48.5-4.2c0,0,3.1,6.6,4.7,9.9c0,0-2.7,6.8-5.1-4.7c1.2,1.4,3.6,4.4,4.9,5.5
	c-2.9-5.1-4.7-5.4-5.4-11.1c0,0-4.9-0.1-7.3-0.2c0.9,7.9-1,6.3-3,0c0,0-8.8-0.5-13.2-0.8c0.7,2.4,3.3,9.6,2.5,11.7
	c-2.1-0.1-6.8-10.3-7.6-12.1c-52.5-3.7-61.5-10.6-6.7-15.7c-1.4-3.3-7-16.2-8-21.4l0.1,0.7c-1.5-3.2-5.4-0.4-6.9,0.2
	c0.9,1.3,4.8,8,3.6,8.7c-7.5-7.8-2-1.8-4.3-8.9c-23.5,7.4-47.5,14.9-70.6,22.9c8.4,9.4,16.5,19.1,24.2,29c-5.2-3.3-13.7-9-18.7-11.4
	c6.3,5,14.8,10.4,21.4,14.8c0,0,8.2,11.4,12.3,17.1c-6.7-6.1-34.8-32.1-45.1-47.1c-13.4,5.4-59.6,24.3-65.4,38.9
	c12.5,5.4,71.4,29.7,77.8,34.8c-5.9,0.9,3.4,9.5,6.2,12c-23.6-10.1-47-20.6-70.5-31.4c1.2,3.1,4.8,21.4,7.6,33.6
	c-15.2,10.1-29,20.3-42.5,32.5c1,1,1.9,2.1,2.6,3.3c-1-0.1-2.7-0.5,0.3,0.6c0,0,0.8,1.8,1.2,2.6c-2.7-1.7-4-1.7-5.9-4.7
	c0,0-2.9,2.7-4.4,4.1c5.4,4.4,9.7,8.9,13.9,14.3c-2.6-0.8-8.6-2.5-10.9-2.5c3.1,1.5,9,3.3,12.3,4.4c0,0,4.5,6.3,6.8,9.5
	c-11.3-8.2-16.4-10.4-25.9-21.8C22.4,735,13,749.2,4.8,775c5.2-6.8,27.1-12.6,35.5-9c-3.5,2-0.6,4.9,2.6,7.2
	c-12.9-1.1-25.4-1.2-35.7,4.1c0,0-1,5.3-1.6,4.9c0-2,0.4-4.2,0.5-6.3C4.4,782,3.4,797.3,3,803.7c0,0,0.6,0.5,0.9,0.8
	C8.3,765.2,29,838.3,29.4,839c-2.9,0.9,0.6,11.7,1.8,14.6c-0.2,0-0.5-0.1-0.6-0.3l1.2,1.6c-1.9,0.9,0.8,9.6,1.3,11.9
	c1.2-0.5,2.7-0.7,4.2-0.5c0,0,2.2-0.1-0.8-8.3c4.9,3.5,9.4,6.9,14.3,10.4c-8.6-11.3-13.1-10.2-19.6-28.4c1.4,0.9-2.2-4,3.6,0.3
	c-4.2-6.7-7.2-16.9-8.8-24.1c1.7,1.9,5,5.6,6.8,7.1c0.3-1.7-8-12.5-8.9-18.9c3.8,8.1,17.2,30.2,12.4,36.9
	c5.7,5.2,11.6,12.3,16.3,18.5c0,0-0.2-0.2-0.3-0.3c0,0,4.3,5,2.8,3.5c0,0,3.3,4.4,4.9,6.7c-1.1-1.1,1.8,2.4,2.2,2.9
	c0,0-10.8,5.2,26.8,52.2c-3.6-3.1-11.4-9.5-15.9-10.8L99,943.5c1.9-2.2-1-12.9-1.6-15.9c-0.1,0-0.7-0.2-0.2-0.2
	c-1.3-3.1-7.1-8.8-3.6-9.8c0.3,0.6-5.9-11.6-5.3-12.9c0,0,1.7,0.3,2.5,0.4c-4.6-5.6-8.4-12.2-11.5-18.5c3,1.7,8.4,5.1,11.2,6.2
	c-3-2.5-8.6-5.9-11.9-8c0,0-2.3-6.2-3.5-9.2c0,0,10.2,10.7,15.3,16.1c-0.2-0.6,6.4,14.3,5.1,16.3c5.3,4.4,10.2,9.4,14.8,14.6
	c-3.9-1.2-8.6-2.7-12.5-3.6c1.9,2,10.6,3.5,13.9,5.4c0,0-5.9-0.7-8.9-1c19,34.9,40.7,59.4,65.3,91.8c0,0-1.1-1.1-1.6-1.6
	c5.1,16-28.3-26.5-28.3-26.5c6.2,14.4,3.2,18.4,14,30c0,0-0.8-2.3-1.3-3.5c6.3,7.5,10.5,13.6,15.7,22.3c-0.7-3.3-2.7-8.7-3.9-12
	c2.8,4,21.6,34,24.8,33.8c0.3-3.2-2-8.3-3.2-11.6c2.4,2.7,6.5,7.6,9,9.9c-20-28.4-24.2-42.7,7.2-9.6c-0.2-0.2-0.5-0.3-0.7-0.4
	c0,0,7.4,9.1,11.1,13.6c-1-0.8-21.5-13.6-28-21.6c8.5,13.8,13.7,29.5,26.2,45.3c0,0-12.1-11.5-18.1-17.3c0.9,2.9,5.2,18.5,7.9,28.7
	H1457.9z M194.5,1094.7c-4.8-7.3-9.3-15.3-13.2-22.2c0.9,2.6,4.2,11.2,3.4,13.5c-3.6-1.5-12.5-22.7-14.1-26.7c0,0,3.1,3.3,4.5,5
	c0,0,0.2-0.2,0.4-0.4c-7.2-8.9-5.6-7.1-8.7-17c2.6,4.7,6.2,11.5,9.5,15.7c0.3-4.6-6.8-12.3-11.4-21.6c0,0-9.8-12.4-14.6-18.6
	c0.7,1.3,4.3,7.9,3.4,8.9c-1.7-0.9-5.1-11-6.8-13.5c-7.8,7.8,8,39.3,37,76.8H194.5z M1220.7,203.9l-1.5,0 M1220.7,203.9l-1.5,0
	 M1220.7,203.9l-1.5,0 M1220.7,203.9l-1.5,0 M1220.7,203.9l-1.5,0 M1220.7,203.9l-1.5,0 M1220.7,203.9l-1.5,0 M1220.7,203.9l-1.5,0
	 M1220.7,203.9l-1.5,0 M1220.7,203.9l-1.5,0 M1220.7,203.9l-1.5,0 M1220.7,203.9l-1.5,0 M1220.7,203.9l-1.5,0 M1220.7,203.9l-1.5,0
	 M1220.7,203.9l-1.5,0 M1220.7,203.9l-1.5,0 M1220.7,203.9l-1.5,0 M1220.7,203.9l-1.5,0 M1220.7,203.9l-1.5,0 M1397,331.2
	c0.1,0.1,0.3,0.2,0.4,0.4 M1402.8,338c0,0.1,0.1,0.1,0.1,0.2 M1404.8,343.3l0.7,1.6 M1406.6,347.5c3.6,7.6,12.4,17.5,13.9,18.6
	 M1432.7,378.3c3.4,5.2,8.5,12.9,11.6,17.6c0,0,2.9,0.5,7.4,1.2 M1453.4,397.4l4.6,0.7 M1456.1,368.9c-9-8.2-18-15.1-29-24.4
	c0,0,2,5.2,3,7.7c-13.7-18.6-20.1-23.8-37.1-38.7c1.7,4.8,4,10.6,6.6,15.3c-2.5-2.3-10-9.2-16.9-15.3 M1376,310.4
	c12.4,13.2,23.2,18.9,29,33.5 M1220.7,203.9l-1.5,0 M1220.7,203.9l-1.5,0 M1220.7,203.9l-1.5,0 M1220.7,203.9l-1.5,0 M1220.7,203.9
	l-1.5,0 M1220.7,203.9l-1.5,0 M1220.7,203.9l-1.5,0 M1220.7,203.9l-1.5,0 M1220.7,203.9l-1.5,0 M1220.7,203.9l-1.5,0 M1220.7,203.9
	l-1.5,0 M1220.7,203.9l-1.5,0 M1220.7,203.9l-1.5,0 M1220.7,203.9l-1.5,0 M1220.7,203.9l-1.5,0 M1220.7,203.9l-1.5,0 M1220.7,203.9
	l-1.5,0 M1220.7,203.9l-1.5,0 M1367,375.8C1367,375.8,1367,375.8,1367,375.8 M1220.7,203.9l-1.5,0 M1220.7,203.9l-1.5,0
	 M1220.7,203.9l-1.5,0 M1220.7,203.9l-1.5,0 M1220.7,203.9l-1.5,0 M1220.7,203.9l-1.5,0 M1220.7,203.9l-1.5,0 M1220.7,203.9l-1.5,0
	 M1220.7,203.9l-1.5,0 M1285.7,201.1l-0.1,0.1 M1295.4,181.8c14.7-37.8-21.9-112.2-21.9-112.2c0.5-0.7,1.7-3,3.1-2.6
	c2.8,5.5,0,9.5,4.9,18.1l0.1,0.1c18.5,16.3,19.5,12.6,40.6,35.4c0,0,69.1,92.3,84.9,103.5c0,0-10.9-11.6-16.4-17.4
	c6.8,5.5-7.3-8.5-10.3-11.8c165.2,111.7-2.6-88.8-25.4-94.2c-10.9,0.8,16.3,44.9,11.3,40.7c4.2,6.9,63.1,82.9,17.2,32.9
	c0,0,5.2,11.6,7.8,17.3c0,0-0.2-1.1-0.3-1.6c0,0,4.8,10.3,7.3,15.5c-14.1-17.9-27.9-35.9-41.5-54.1c0,0,1.6,3.5,2.3,5.3
	c-1.1-0.8-3.8-2.7-4.8-3c3.9,5.2,4.6,3.3,6.6,10c-16.9-27.4-37.1-55.9-51-86c-9.5-4.7-18.1-11.8-27-17.3
	c20.6,53.8,34.1,107.9,7.7,146.3c13.8,2.2,27.8,3.4,41.9,7.6c-10.8,0.8-32.3-1.9-45-3.3l-0.5,0.7c6.3,6.2,13.1,12.3,19.8,18
	c-14.1,5.1-24.4,10.5-36.2,19 M1270.4,248.5c-0.9-1.3-8.1-11.5-10.1-14.3c-7.2,4-15.1,7-23.3,9.2c0,0,4.2-1.1,4.7-1.2l-13.5,0.8
	c1.7-0.5,12.6-3.3,12.4-5.4c-1.2-1.1-6.2-0.3-7.3-0.2c8.1-2.2,15.9-5.1,22.9-9c-4.9-6.9-10.1-13.7-15.2-20.5c2-1,3.7-2.2,5.2-3.5
	 M1248.7,202c3.6-4,5.6-9.1,7.3-15.3c0,0.9,0.2,2.1,1.1,3c-3.4,16,30.1,14,0.9-1.3c0.2-1.9,1.3-4.3,1.1-6c-0.8,0.9-1.4,0-2.2,0.9
	c-2.4-2.4,2.7-1.8,2.8-1.8c-0.9-0.3-2.6-0.8-2.6-0.8c-0.3-1.5-0.5-1.6,0.2-2.6c2.8,3.2,23.6,26.4,23.3,26.4c0,0,0.6,0.7,0.5,0.6
	l1.5,0.2l2.9-4.1 M1286,200.7c-0.1,0.2-0.2,0.3-0.3,0.5c3.9-5.9,7.1-12.5,9.7-19.3 M1457.9,330.3c-10.2-13.5-18.8-25.6-34.4-45.7
	c13.6-11.2,23.5-9,34.4,1.3 M1220.7,203.9l-1.5,0 M1416.8,346.5L1416.8,346.5 M1416.8,346.5L1416.8,346.5 M1416.8,346.5
	L1416.8,346.5 M1416.8,346.5L1416.8,346.5 M1416.8,346.5L1416.8,346.5 M1416.8,346.5L1416.8,346.5 M1416.8,346.5L1416.8,346.5
	 M1416.8,346.5L1416.8,346.5 M1416.8,346.5L1416.8,346.5 M1416.8,346.5L1416.8,346.5 M1416.8,346.5L1416.8,346.5 M1416.8,346.5
	L1416.8,346.5 M1416.8,346.5L1416.8,346.5 M1416.8,346.5L1416.8,346.5 M1416.8,346.5L1416.8,346.5 M1416.8,346.5L1416.8,346.5
	 M1416.8,346.5L1416.8,346.5 M1416.8,346.5L1416.8,346.5 M1416.8,346.5L1416.8,346.5 M1416.8,346.5L1416.8,346.5 M1416.8,346.5
	L1416.8,346.5 M1416.8,346.5L1416.8,346.5 M1416.8,346.5L1416.8,346.5 M1261.5,324.5l0.4,0.3 M939.3,577.8l0.4,0.4 M1180.4,894.2
	l-2.5-2.9 M1159.7,870.1c-25.7-30.2-50.9-60.9-75.6-92 M1038.7,719.4c-18.7-24.6-36.9-49.7-55.1-74.7 M363.9,416.7L363.9,416.7
	 M934.5,279.9l0.1-0.1 M470.9,673.7l-0.1,0 M1089.6,638.9L1089.6,638.9 M776,958.2l-0.1,0 M507.5,1017L507.5,1017 M979.4,794.3
	l0.4,0.3 M1416.8,346.5L1416.8,346.5"/>
<path id="Brush_Effect_00000037694537303794081470000011394166036683533699_" class="st1" d="M1351.6,748.9
	c-0.2,0.1-0.4,0.2-0.7,0.3C1351.2,749.1,1351.4,749,1351.6,748.9 M1445.9,818.8c0.1,0.2,0.2,0.4,0.4,0.5
	C1447.4,819.6,1446.2,818.9,1445.9,818.8z M1427.2,780.6c-2.5-3.3-5.3-3.7-8.8-5.5C1420.8,778.9,1422.7,778.8,1427.2,780.6z
	 M1417.6,795.7c-1.1-0.2-1.9-0.5-3-0.9c0.7,0.6,1.1,1.4,1.5,2.2C1416.6,796.4,1417.2,796.2,1417.6,795.7z M1436.7,830.6
	c0,0-0.6-0.1-0.9-0.2C1435.8,830.4,1442.5,839.2,1436.7,830.6z M1447.9,797.5c0,0-0.5-0.3-0.7-0.5c0,0,0.6,0.1,0.9,0.2
	c0,0-2.6-1.9-3.7-2.3c0,0,1.1,1.4,1.6,2.2C1446.5,797,1447.2,797.4,1447.9,797.5z M1429.9,813.4c0,0-0.5-0.3-0.7-0.5
	c0,0-0.1,0.2-0.2,0.3C1429,813.2,1429.6,813.3,1429.9,813.4z M1433.1,806.2c-1.1-0.5-2.3-0.9-2.6-1c0,0,0.1,0.4,0.1,0.6
	c0,0-3.3-2.2-4.9-3.3c1.4,2.3,4.2,3.4,6.7,4.2l-1.9,1.4c0,0,4.9,3.2,7.3,4.8c0,0-2-5.6-2.6-8.4l-0.9,0.7L1433.1,806.2z
	 M1326.4,789.2c-4.8-6.4-18-13-24.6-17.3c-2.7,0.3-5,0.3-7.8,0.2C1298.5,774.8,1322.7,789.1,1326.4,789.2z M1319.9,751.3
	c0,0-6.1,0-9.1-0.1c9.1,7.5,9.4,6.4,12.9,17.5l5-1.5c0,0,0.4,0,0.6,0c-0.7-1.9-2.2-4.9,0.5-0.3c3-0.4,5.8-1,8.9-1.3
	c0,0-3.6-5.5-5.4-8.3C1322.4,736.2,1325.9,754.5,1319.9,751.3z M1365.6,805.3c1.6,1,5.4,2.7,7.1,3.5c0,0,0-0.7-0.1-1
	C1371.2,807.4,1366,805.4,1365.6,805.3z M1404.7,803.7l-0.1-0.2L1404.7,803.7C1404.8,803.7,1404.8,803.7,1404.7,803.7z M1381,808.5
	 M1421.3,862.5 M1450,820.9c-0.7-1.1-3.6-3.9-4.6-4.8c0,0-0.9,0.1-1.4,0.1C1445,817,1449,820.5,1450,820.9z M1398.2,845.7
	c0,0.6,1.8,3.8,2.1,4.4c0,0,0.4-0.7,0.6-1C1400.3,848.4,1398.9,846.4,1398.2,845.7z M1380.7,809.9c-0.9-1.1-3.9-1.3-4.9-1.2
	C1376.9,809,1379.6,810.1,1380.7,809.9z M1347,808c0,0,1.4,2.3,2.1,3.4c-4.2-2.9-5.9-4.1-6.8-5C1343.5,807,1346,807.7,1347,808z
	 M1454.9,855.9c-1.4,0.1-2.3-0.5-3.4-1.4C1452.5,855,1453.7,855.5,1454.9,855.9z M1399.4,852.4c-0.1,2,2,5.2,3.1,7.4
	c0.1-0.4,0.3-1,0.3-1.2C1402.8,858.5,1400.7,854.4,1399.4,852.4z M1306.7,788.6c2.6,3.9,17,8.7,21.3,10.6
	C1325.9,793.9,1310.9,788.2,1306.7,788.6z M1271.3,723.7c3.6,1.3,25.4,2.7,29.1,3c-0.5-1.2-1.6-2.3-1.7-3.3
	C1294.3,723.3,1273.8,722.7,1271.3,723.7z M1312.6,727.4c0,0-1.4,1.5-2.1,2.2C1318.3,735.8,1318.4,738,1312.6,727.4z M1363.8,791.7
	c0,0-17.1-24.9-13.5-29.2c-5.1-4.2-8.6-7.9-12.7-12.9C1340.9,761.8,1352.1,769.5,1363.8,791.7z M1362.2,793.7
	c-0.3-1-6.7-7.6-7.6-8.5c0.8,1.4,1.3,2.8,1.9,4.2C1357.3,790.1,1361.3,793.4,1362.2,793.7z M1375.4,765.5c4.4,2.3,10.5,5.3,11.7,5.2
	c-6.6-9-26.5-15.4-35.1-24.6c0.3,0.7,0.4,1.5,0.1,2.1c-0.7-0.4-1.4-0.6-2.2-0.7c0.2-0.1,0.6-1,0.3-1c-0.3,0.6-0.4,1.2-0.4,1.9
	c2.9,2.8,6,5.3,9.3,7.6c-1.9-0.7-3.5-1.2-3.8-1.1c3.9,4.6,16.5,9.5,21.7,12.2C1376.5,766.6,1375.9,766,1375.4,765.5z M1318,743.2
	c0.1,0.3,4.6,2.3,5,2.5c-0.3-0.5-0.6-0.7-1.1-1.1C1321.1,744.3,1318.7,743.3,1318,743.2z M1318.9,779.2c0.5,0.7,15.4,8.3,16.4,8.8
	c0,0-1.2-1.8-1.8-2.7C1331,784.3,1320.7,779.7,1318.9,779.2z M1283.9,743.6c1.1,1.3,19.7,9.7,21.5,10.5c0-1.4-1-1.9-1.3-3.3
	C1301.4,749.8,1285.7,743.7,1283.9,743.6z M1314.6,768.7c1.9,1.5,11.4,6,13.6,7c0,0-5-3.4-7.4-5
	C1319.6,770.3,1315.7,768.7,1314.6,768.7z M1360.2,855.2c1.9,1,3.8,2.1,5.7,3.1c0,0-13.7-11.9-16.9-18.3c4.4,3,9.9,6.8,10.5,6.8
	c-3.1-3.4-7.4-6.1-11-9c-0.3-3.4,4.8,1.8,5.7,2.9c0,0-1.5-3.6-2.2-5.5c1.3,1.4,22.8,23.8,29.7,33.2c-0.8-0.2-1.5-0.4-2.3-0.6
	c0.5,0.6,1,1.2,1.5,1.9c-0.3-0.3-0.6-0.6-0.8-0.9c0.5,1.3,1.2,2.2,2,2.9c-1.1-0.2-4.5-2.1-5.5-2.4c2.1,1.2,4.6,2.4,6.7,3.5
	c0,0,2.2,3.2,3.3,4.8c-5.6-4.5-8.4-5.7-12.9-11.7c-3.1-0.6-6.1-1.3-9.2-2C1364.3,862.9,1361.9,859,1360.2,855.2z M1422.7,893
	 M1173.1,711.7c7.5,4.8,38.2,17.3,46.3,20.7c-1-1.7-3.2-4-3.7-5.4C1209.8,724.7,1176.4,711.7,1173.1,711.7z M1235.8,741.7
	 M1310,796.9c7.9,8.7,25.1,18.5,34.6,25.1C1338.1,816.1,1318.3,796.4,1310,796.9z M1251.2,763.5c0.2,0.5,7.6,5.4,8.2,5.8
	c-0.6-0.8-1.2-1.3-1.9-2C1256,766.4,1252.6,764.2,1251.2,763.5z M1199.3,745.8c7.7,8.6,26.7,19.1,36.1,25.6c-0.5-1.8-2.1-3.1-3-5
	C1228.1,763.7,1202.2,747,1199.3,745.8z M1200.8,870.7c-2.4-3.4-21.4-16.7-25-19.3c-2.8,0.1-5.2-0.1-8.1-0.3
	C1172.5,854.1,1197,870.2,1200.8,870.7z M1186.4,831.7c8.9,8,9.2,6.8,12.2,18.2l5.3-1.1c0,0,0.4,0,0.7,0.1c0,0-0.8-2.2-1.1-3.3
	c0,0,1.1,2,1.6,2.9c3.2-0.2,6.1-0.5,9.3-0.6c0,0-3.6-5.8-5.3-8.7C1200.9,821.7,1198.4,832.5,1186.4,831.7z M1243.1,891.1
	c1.8,1.3,5.8,3.3,7.8,4.5c0,0-0.1-0.7-0.1-1.1C1249.2,893.9,1243.6,891.3,1243.1,891.1z M1260,896.2
	C1260,896.2,1260,896.2,1260,896.2L1260,896.2z M1308.1,958.4c0,0-0.2,0.3,0.1,0.6C1308.3,959.1,1308.7,959.4,1308.1,958.4z
	 M1280.8,937.8c0,0.6,2.3,4.4,2.7,5c0,0,0.4-0.7,0.6-1C1283.7,941.3,1281.2,937.8,1280.8,937.8z M1259.7,897.6
	c-1-1.2-4.2-1.8-5.4-1.9C1255.4,896.3,1258.6,897.7,1259.7,897.6z M1222.9,892c0,0,1.5,2.5,2.3,3.7c-4.8-3.6-6.6-5-7.5-6
	C1219,890.5,1221.7,891.5,1222.9,892z M1144.4,798.7c4,1.9,27.9,6.5,32.1,7.3c-0.6-1.3-1.7-2.6-1.9-3.7
	C1169.9,801.6,1147.2,798,1144.4,798.7z M1188.7,811.4c2.1,1.9,3.8,3.5,5.7,5.6c-1.5-2.9-2.8-5.5-4.3-8.4c0,0-1.6,1.3-2.3,2
	C1187.8,810.5,1188.7,811.4,1188.7,811.4z M1240.9,876.8c-1.3-7.6-19.6-25.5-14.2-31.1c-5.2-4.6-8.7-8.5-12.8-13.9
	C1217.3,846.9,1231.2,862.7,1240.9,876.8z M1239.2,878.7c-0.3-1.1-7.3-8.5-8.2-9.5c0.8,1.5,1.4,3,2,4.5
	C1233.9,874.5,1238.2,878.4,1239.2,878.7z M1194.2,824.3c0.1,0.3,4.6,2.6,4.9,2.7c-0.3-0.5-0.6-0.8-1-1.2
	C1197.3,825.5,1195,824.4,1194.2,824.3z M1193.2,860c0.5,0.8,16,9.7,17.1,10.3c0,0-1.2-1.9-1.9-2.9
	C1205.8,866.1,1195.3,860.6,1193.2,860z M1173.2,828.1c-1.8-0.9-13.7-6.9-15-6.9c0.7,1,12.5,7.6,13.7,8.4c0,0,8.1,4.3,8.8,4.6
	c0.1-1.3-0.9-1.9-1.1-3.3C1179.7,831,1173.2,828.1,1173.2,828.1z M1189.3,849.2c1.9,1.7,11.6,6.8,13.9,8.1c0,0-5.1-3.8-7.6-5.6
	C1194.4,851.1,1190.4,849.3,1189.3,849.2z M1330.8,978.9c0,0,0.1,0.1,0.1,0.1C1331,979,1331.3,978.9,1330.8,978.9z M1330.6,826.6
	c0,0,0.8-0.6,1.1-1c0,0,0.2,0.3,0.4,0.5c-0.2-3.2-1.9-3.2-2,1c0.4-0.5,1.4-0.6,2-0.8c-0.5-0.4-1.4,0.2-1.7,0.5
	C1330.1,826.8,1330.5,826.6,1330.6,826.6z M1074.9,892.6c0,0,0-0.2-0.1-0.2c0,0-0.3,0,0.1-0.1c0,0-0.2-0.3-0.2-0.4
	C1074.3,891.9,1074.7,892.3,1074.9,892.6z M1079.8,896.2c0,0,0.8,0.5,1.2,0.7c0,0,0-0.5,0-0.8c-0.3,0-0.8,0-0.1-0.1
	c0,0-0.2-1.4-0.7-1.5C1079.6,894.7,1079.7,895.7,1079.8,896.2z M1450.6,828.4c0,0,0-0.2-0.1-0.3c0,0-0.3,0,0.1-0.1
	c0,0-0.2-0.4-0.3-0.5C1449.9,827.6,1450.3,828.1,1450.6,828.4z M1455.7,832.6c0,0,0.8,0.5,1.2,0.8c0,0,0-0.6,0-0.8
	c-0.4,0-0.9-0.1-0.1-0.1c0,0-0.2-1.4-0.7-1.6C1455.5,831.1,1455.6,832.1,1455.7,832.6z M1447.9,827.2c0,0,0-0.4,0-0.6
	c-0.2-0.1-0.4-0.1,0,0c0,0-0.1-0.9-0.4-1C1446.9,825.5,1447.7,826.8,1447.9,827.2z M1371.6,873.3c-2.2-1.1-2.9-2-4.6-4.1
	C1368.6,870.6,1370.1,871.9,1371.6,873.3z M1363.2,863.6L1363.2,863.6L1363.2,863.6L1363.2,863.6z M1309.9,820.2
	c-0.6-0.5-4.1,0.7-4.6,1c0,0-7.8-10.5-7.2-15.6C1301.7,809.9,1305.7,815,1309.9,820.2z M1294.3,800.8c-1.5-0.5-1.7-0.3-1.3-1.7
	L1294.3,800.8z M1292.9,799c-2.8-1-7.1-3.3-9.7-3.1l-0.2-0.3c2.1,0.7,4.4,0,7.7,0.6L1292.9,799z M1268.6,805.1
	c5.6-3.5,4.9-3.5,0.5-5.5c0.3,0,5.5,0.8,5,0.4c0,0,0.6,0.2,0.9,0.3c0,0-1.8-3.1-2.7-4.7c0,0,2.2,3,3.3,4.5c1.1,0.2,2.1,0.4,3.2,0.6
	c0,3.1,0.2,6.2-3.6,9.7C1273.9,809.5,1271.2,807.3,1268.6,805.1z M1267.1,878.2c2.6,3.1,6.4,5.2,10.2,8.4c-0.4,0-0.7-0.1-1.1-0.1
	c0.7,0.9,1.6,1.9,1.5,2.9C1274.4,888.8,1269.2,881.2,1267.1,878.2z M1277.2,891.3c0.1-0.3,0.2-0.7,0.3-1c0,0-0.3-0.4-0.9-1
	c0.3,0.1,0.7,0.3,1,0.4c-0.1,0.2-0.1,0.5-0.1,0.6l2.5,2.9C1279,892.4,1278,891.8,1277.2,891.3z M1323.4,985.8c0,0-0.8-0.3-1.2-0.5
	c0,0,8.6,11.3,14,18.3c-0.4,0.4-0.7,0.6-0.9,0.8c-6-6.1-13.2-19.9-3.8-3.7c-6.8-6.7-10.8-9.4-14-16.8c0.6-1,2.8-0.1,4.4,0.5
	L1323.4,985.8z M1316,965.2c-2-1.4-6.3-1.5-8.6-1.9c-25.1-28,1.3-13.2,14.4-1.6c-2.6,4.4,4.2,15.6,9.8,12.7c0,0,0.7,0.8,1,1.2
	c0.1,0,0.3-0.1,0.1,0.1c2.2,3.8-1.2,2.8-2.5,1.4c0,0,1.7-0.9,2.5-1.4c-0.4-0.1-1.9,1-2.6,1.1c0,0-0.3-0.8-0.5-1.2
	c0,0-1.4,0.3-2.2,0.5c0,0,2,1.7,3,2.5c0,0,0.6,0,0.9,0c0,0,0.3,0.5,0.5,0.8c0,0,1.3,0.4,1.9,0.6c0,0-0.7,0.6-1,0.9
	c0.2,1.2,0.9,2.4,2.6,2.5c0,0-0.2-1.1-0.3-1.6c0,0,1.2-1.6,2-1.5c-1.5,2.8,1.5,5.3,1.7,8.3c-4.5-2.1-10.2-4.9-14.2-6.8
	c-2.9-5.3-5.6-10.6-8.5-16C1315.5,965.6,1315.5,965.5,1316,965.2z M1289.2,974.4c-0.8-0.4-6-6.4-6.5-6.9
	C1285.3,969.7,1287,971.7,1289.2,974.4z M1311.7,992c0.6,1,1.2,2,1.7,3c-0.3-0.1-0.7-0.3-1-0.4C1312,993.8,1311.2,992.5,1311.7,992z
	 M1314.9,998.6c-0.4-0.5-0.9-1.3-1.6-2.4c0.3,0.1,0.6,0.3,0.9,0.4C1314.5,997.3,1314.7,997.9,1314.9,998.6z M1362.2,1019.6l2.1,2.7
	c-0.1,0-0.3,0-0.4,0C1363.3,1021.4,1362.8,1020.5,1362.2,1019.6z M1358.2,1021.9L1358.2,1021.9c-0.9-1.5-1.7-2.9-2.3-4.2
	c0.3,0.3,0.7,0.7,1.2,1.1c-0.1-0.3-0.3-0.5-0.4-0.8c1.5,1.3,3.3,3,5.2,4.7c-1,0.2-1.9,0.5-2.7,0.8L1358.2,1021.9z M1330.8,1009.3
	L1330.8,1009.3c0,0-6-10.5-8.8-15.8c8.1,7.4,13.2,13.5,18.6,22.9c-2.2-1.1-4.3-2.1-6.2-3C1332.9,1011.9,1331.7,1010.9,1330.8,1009.3
	z M1205,899.4l3.5,3.4c-1.4-1.2-2.8-2.3-4.2-3.4H1205z M1221,899.2c0,0-1.6,1.3-2.4,1.9C1224.3,906.5,1223,907.1,1221,899.2z
	 M1239.1,918.5c2.3,1.1,4.6,1.8,7.3,3.7c0,0,6.8,7.8,10.2,11.7c0,0-7.4-5.6-13.6-10.3C1241.7,922,1240.4,920.3,1239.1,918.5z
	 M1247.3,930.1c0.8,0.9,1.6,1.8,2.3,2.6l-2.4-2.4C1247.2,930.3,1247.3,930.2,1247.3,930.1z M1266.2,928.9c1.4,5.8,2.2,8.8,4.3,15.4
	c-0.3,0-0.5,0.1-0.7,0.1c0.2,0.1,0.5,0.3,1,0.5c1.3,4,3.7,9.4,9.4,17.5c-0.6,0-1.2,0-1.7,0.1c-8.5-9.4-8.7-10.4-13.9-21.3
	c0.1,0.2,0.2,0.4,0.3,0.5c-2.1-4.1-14.9-14.8-13.7-17.6c3.5,0.1,12.1,7.4,15,10c-0.7-1.7-1.4-3.3-1.8-5c-3.8-1.6-5.7-2.4-9.4-6.8
	C1257.1,924,1262,926.7,1266.2,928.9z M1362.3,1021.9c-2.2-2.1-6.5-5.2-7.5-7.7c2.9,2.3,5.2,3.9,6.5,4.5
	C1361.6,1019.5,1362,1020.7,1362.3,1021.9z M1350.8,1006.6c-0.1,0-0.2,0-0.3,0c-1-2-2.1-4.2-3-5.9c0.1,0,0.2,0,0.3,0
	c2.4,2,8,10.5,12.8,16.8c-1.7-2.1-5.3-5.8-9.3-9.8C1351.2,1007.1,1350.9,1006.9,1350.8,1006.6z M1343.9,1018
	c-5.1-2.6-7-8.9-9.7-13.6c1.5,1.3,2.9,2.5,4.2,3.4c0-0.2-1.2-1.6-3-3.4c0.3-0.1,0.7-0.3,1.2-0.4c2.3,3,1.2,1.8,4.2,7.6
	c-1.6-1-2.9-1.8-3.4-1.9c0.4,0.7,2.1,2.3,4.5,4.3C1342.6,1015.4,1343.3,1016.8,1343.9,1018z M1322.5,958.1c0.1,1.1,0,2.1-0.4,3.1
	c-1-1.7-2.5-4.4-4.1-7C1319.2,955.3,1320.7,956.6,1322.5,958.1z M1404.6,890c47.8,56.6,28,16.7-17.1,4.7c0,0,0,0,0,0
	c2.5,0.6,5.2,1.2,7.9,1.3c15.6,15.8,1.1-11.3-2.4-17.2C1422,911.2,1438.5,933.4,1404.6,890z M1456,936c-0.9-0.5-1.5-0.6-2.4-1.2
	c0.2,0.1,0.3,0.1,0.5,0.2c-0.1-0.3-0.2-0.5-0.4-0.7l1.2-0.5c0.1,0.3,0.3,0.6,0.4,0.8c-0.1,0-0.2,0-0.3,0c0.1,0.2,0.3,0.4,0.7,0.7
	C1455.8,935.6,1455.9,935.8,1456,936z M1456.3,804.5c0.6,0.6,1.1,1.1,1.7,1.6v0.4C1457.1,805.4,1456.3,804.5,1456.3,804.5z
	 M1457.9,758.6c-1.2,0.6-2.3,1.2-3.1,1.7c0.5,0.1,1.7,0.2,3.1,0.3V758.6z M1457.9,771c-0.4-0.4-0.8-0.7-1.3-1.1
	c0.5-0.2,0.9-0.3,1.3-0.2v-7c-0.6-0.1-1.3-0.2-1.9-0.3c-0.6,1.6-1.5,2.8-2.4,4.3c-4.7-5.2-8.1-8.3-12.7-12.9
	c2.6,4.4,8.9,12.1,10,16.4c-0.5,0.3-3-2.7-3.3-3.1c0.3,0.2,0.7,0.3,1,0.3c0,0-5.5-4.5-8.2-6.8c2.3,4.3,11.9,16.8,17.2,21.3
	c0,0.3,0,0.6,0,1c-0.1-0.1-0.2-0.1-0.3-0.1c0,0,0.3,0.4,0.4,0.7c-1.4-1.1-1.3,3.6-1.2,4.3c0,0-0.2,0-0.2,0c0,0,0.1,0.3,0.2,0.4
	c0,0-0.1-0.2-0.2-0.2c-0.6,5.1,1.4,3.4,1.5,0.9l0.3,0.2v-0.9c-0.1-0.1-0.2-0.1-0.2-0.2c0,0,0-1.3,0.2-2.5V771z M1457.9,810.6
	c-4-3.6-7.8-4.4-12.8-0.4c5.8,7.1,9,11.3,12.8,16.1V810.6z M1457.9,833.6c-1.8-1.1-3.6-2.2-5.1-3.3c0,0-1-0.7-1.2-0.2
	c-1.2-1.1-1,2.3-0.9,2.8l1.6,1.8c0,0,0,0,0,0c0,0,4.5,3.8,5.7,4.9V833.6z M1457.9,850V840c-2.8-0.6-8.9-6.7-11.5-8.7
	c0,0,0.8,1.8,1.1,2.7c-5.1-6.5-7.5-8.3-13.8-13.6c0.6,1.7,1.5,3.7,2.4,5.4c-0.9-0.8-3.7-3.2-6.3-5.4c0.3,0.1,0.6,0.3,1,0.5
	c-1.4-2.6-2.6-5.2-3.9-7.7l1.4,0.1c0,0,0.1-0.2,0.2-0.3c-3.6-2.3-5.1-7-6.9-10.7l0.6,0.4c0,0-0.5-0.7-0.8-1.1
	c1.2,0.5,2.1,1.1,3.3,1.6c0.2-0.3-0.1-0.7-0.2-1.1c-1.2-0.4-2.3-0.8-3.5-1.2l-0.1,0l-0.1-0.2c-0.1,0-0.5-0.1-0.4-0.3
	c0.2,0.1,0.4,0.1,0.5,0.2c-0.1-0.1-0.1-0.3-0.2-0.4l0,0c-0.5-0.3-1.1-1.7-1.2-2.4l-1.2,1.7c-2.5-0.5-6.2-1.1-7.2-1.2
	c0,0,1.1,1.4,1.6,2c-1.7-1.2-6-1.6-7.1-2.5l-0.1,0.1c-3.2-0.2-6.3-0.3-9.5-0.3c0.6,0.8,1.1,1.7,1.7,2.6c-0.5,0.3-3.2-0.6-3.9-0.7
	c1.3,0.5,3.2,1,4.5,1.4l0.3,0.7l-0.2-0.1c0,0-0.7,0.5-1.3,0.9c-1.9-1.2-3.3-2.2-5-5c-1.3,0.1-2.6,0.2-3.9,0.3
	c4.4-3,8.2-4.9,13.5-6.7c-2.5-2-5-4.1-7.4-6.3c0.1-0.1,0.1-0.2,0.2-0.2c4.8,0.5,12.7,1.5,16.8,1.2c-5.2-1.5-10.4-1.9-15.6-2.7
	c2.1-2.9,3.8-6.4,4.9-10c4,5.2,6,4.4,13.4,12c0.5-0.4,1.9,0.8,2.4,1.2c-4.6-7.6,1.1-4-6.9-12c0.4,0.3,1,0.6,1.5,0.7c0,0-3.3-3-5-4.4
	c0,0,3.5,2.2,5.3,3.3c-0.4-0.7-0.5-1.4-0.9-2.2c-3.3-1.5-5.9-3.4-8.4-6c0.6-6.4-0.3-13.6-2.6-20.4c1.5,1.2,3.8,3.3,8,7.6
	c0,0,25.8,32.4,31.6,36.3c0,0-4.1-4.1-6.1-6.1c2.5,1.9-2.7-3-3.8-4.2c61.5,39.2-1-31.2-9.5-33.1c-4.1,0.3,6.1,15.8,4.2,14.3
	c1.6,2.4,23.5,29.1,6.4,11.5c0,0,1.9,4.1,2.9,6.1c0,0-0.1-0.4-0.1-0.6c0,0,1.8,3.6,2.7,5.4c-5.2-6.3-10.4-12.6-15.5-19
	c0,0,0.6,1.2,0.8,1.9c-0.4-0.3-1.4-1-1.8-1.1c1.5,1.8,1.7,1.1,2.5,3.5c-6.3-9.6-13.8-19.6-19-30.2c-3.5-1.6-6.8-4.1-10.1-6.1
	c1.5,3.7,5.2,9.4,6.6,13.6c-1.3-1-2-1.3-2.9-1.8c-0.6-1.6-7.3-13.2-7.2-8.5c0.2-0.2,0.6-1,1.1-0.9c1,1.9,0,3.3,1.8,6.4l0,0
	c2.2,1.8,3.3,2.5,4.2,3c2.5,6.6,3.6,13.5,3.3,19.9c-2.8-3-5.7-5.2-9.2-7.4c2.9,5.8,4.4,9.4,8.1,14.7c-1.2,4.5-3.3,8.8-6,12.1
	l-0.6-0.1c0,0-0.2-0.2-0.2-0.2c0.1,0-7.6-8.2-8.7-9.3c-0.3,0.3-0.2,0.4-0.1,0.9c0,0,0.6,0.2,1,0.3c0,0-2-0.2-1,0.6
	c0.3-0.3,0.5,0,0.8-0.3c0.1,0.6-0.3,1.4-0.4,2.1c10.9,5.4-1.6,6.1-0.3,0.5c-0.3-0.3-0.4-0.7-0.4-1c-0.6,2.2-1.4,4-2.7,5.4
	c-2.9-2-3.1-2.2-5.7-1.7c0.5,0.3,2.7,1.5,4.8,2.6c-0.6,0.5-1.2,0.9-1.9,1.2c1.9,2.4,3.8,4.8,5.6,7.2c-2.5,1.3-5.2,2.3-8.5,3.2
	c0.4,0,2.3-0.3,2.7,0.1c0.1,0.7-4,1.7-4.6,1.9l4.8-0.3c-0.5,0.1-1,0.3-1.5,0.4c0,0,1.6-0.4,1.7-0.4l-0.2,0c2.7-0.8,5-1.7,7.1-2.8
	c0.7,1,3.4,4.6,3.8,5c-2,0.1-4.1,0.2-6.1,0.3c8.4,6.4,17.6,15.1,24.7,22.9c-0.8-3,1.1-3.5,3.8-3l-5.3-12.9l0.3-0.2
	c4.2,5.2,12.3,15.7,16.3,19.7c-1-2.1-7-9.4-9.5-13.1l0.1,0c3.8,5,7.5,8.9,11.4,13.8c-0.1-0.2-0.3-0.5-0.5-0.7c1.1,0.6,2.1,1.3,3.1,2
	c-13.4-16.3,8.8-2.5,12.2,5l-1.1-0.8c5,7.7,10.5,11.5,15.6,18.8c0.3,0,2.6,0.2,3.8,1.4c-0.1-0.3-0.3-0.6-0.4-0.9L1457.9,850
	L1457.9,850z M1457.9,1094.7V933.3c-3.5-4.2-3.7-6.1,0-4.4v-2.1c-6.6-5.1-6.6-0.8-3.9,5.3c-14.2-11.2-13.4-18.8-22.8-39.1
	c3.4,3,10,9,13.3,11.3c0,0-23.4-26.3-18.7-25.2c0,0-1.9-4.3-2.8-6.4c2.5,3.5,4.5,7.4,7.8,10.4c0,0,0.5,1,2.2,2.5c0,0-0.7-0.2-1-0.3
	c0,0,15.2,26.8,21.6,32.5c1-0.7,2.6-0.4,4.4,0.3v-12.5c-3.8-5.2-4.8-6.4,0-0.3v-11c-1.5-1.3-2.9-4.9-7.5-7.6c0,0,1,1.1,1.5,1.7
	c0,0-18.7-7.6-24.2-14c-39.2-45.5,21.4,8.8-3.8-27.3c0.7,0.4,2.6,1.3,3.7,1.9c0.1,0.3-6.7-6.3-8.1-8.7l4.9,1.1
	c0.1,0.2,0.1,0.3,0,0.5l-0.2,0.2l0,0l-0.1,0l0,0c3.2,1.9,6.4,3.8,9.6,5.7c7.1,24.4,12.7,25.7,24.3,40.2v-33
	c-0.8,0.2-1.7,0.1-3.1-0.6c0.7,0.1,1.4,0.2,2.1,0.3c-0.3-0.8,0.7-0.8,0.4-1.4c0,0-3.1-0.2-4.6-0.3c0,0.2,0,0.3,0,0.4
	c-0.9-0.4-1.7-0.7-2.5-1.3c0,0,0,0.1,0,0.1c-7.2-3.3-20.4-16.4-13.6-5.9c-1.5-0.7-2.9-1.3-4-1.8l0.2,0.7l-6-3.4
	c2.1,0.4,4.3,0.8,6.4,1.1c0,0,0.2-0.3,0.3-0.5c-0.4-0.3-0.8-0.5-1.2-0.7c-4.7-2.3-9.9-3.3-14.7-4.6c-2.6-4.3-5.4-7.9-9.5-11.1
	c2.4,1.3,5.1,2.7,6.9,3.7l0.3-0.4l8.8,3.9c-1.4-3.3-3.9-3.1-8.1-4.8c0.6-0.8,1.4-1.7,1.9-2.4c-15-2.8-23.3-7.7-33.2-20.5
	c0,0,1,1.6,2,3.3c-0.4-0.4-0.8-0.7-1.2-1c0.4,1.1,0.7,2.1,0.8,2.8c-3.9-4.3-7.6-8.6-11.3-13l11.1,15.3c-0.9,0.2-3-2-5.1-4.7
	c0,0-0.9,0-1.1-0.2c12.2,11.7,17.1,22.7,21,37.7c0,0,4.3,13.3,1.6,14.9c-4.7-6.4-4.9-15.3-8.2-19.6c0,0-6-2.2-9-3.3
	c1.8,10.7-3.1,14.5,15,36.9c-4.3-3.5-13-4.9-17.8-6.2c-6.1-8.1-2.1-8.5,7.6-1.8c0,0-1.2-3-1.9-4.5c0,0,0.3,0.2,0.4,0.3
	c0,0-3.4-8-5.1-11.9c0.1,0.2,0.2,0.3,0.3,0.5c-5-10.4-19.3-25.2,1.5-7.3c-0.6-1.6-1.1-3-1.4-4.6c0,0-18.2-16.3-9.4-13.9
	c-3.3-4.3-5.4-7.8-7.8-12.4c-4.3,0.8-11.5-12.2-13.4-15.7c-2.7,0.5-5.4,0.7-8.2,0.9c0-0.1,1.7,6.3,0.1,6.6c0.4,0.8,1,1.6,1.6,2.3
	c-0.5-0.1-3.9-1.1-4.6-1.1c-1.2-1.3-0.7-2.1-4.8-7.3c-3.6,0.1-7.1,0.6-10.7,0.9c4.3,5.9,10,9.6,15.4,14.7
	c-5.9-9.6,22.1,16.1,24.1,18.3c0,0-5.7-2.3-8.6-3.3c3.3,3.2,6.3,2.5,10.3,5.2c0,0,5.8,6.7,8.8,10c-5.9-4.2-24.7-20.9-6,0
	c0,0-15-10.2-22.4-15.2c0,0,2.3,2.7,3.5,4.1c0,0-0.1-0.1-0.1-0.1c0,0,1.6,2,2.4,2.9c0,0-8.5-5.9-12.8-8.9c0.4,0.3,0.8,0.7,1.1,1.1
	c-1-0.2-0.4,0,0.1,0.1c0,0,0.3,0.7,0.4,1.1c-1.4-1.1-2.5-1.3-2.9-3.1c0,0-3-2.1-4.4-3.1l9.6,13c-0.4-0.1-0.9-0.1-1.4-0.2
	c8.4,5.8,10.9,17.3,16.1,23.9c-0.8-0.8-1.7-1.7-2.4-2.4c-2.6,0.4-10.8-16.3-15.9-20.2c0,0-2.1,0.3-3.1,0.5c-3.2-2.7-3.9-6.6-7.7-9.4
	c0,0,0,3.6,0,5.4c-3.7-5.2-10.1-9.6-14.9-13.9c-0.9,0.6-1.9,1.2-2.9,1.5c-6.1-7.6-11-15.1-8.4-17.5c-8.3-7.4-15-14.3-22.2-22.7
	c2,4.3,3.1,8.3,6.2,12.1c-2.3,1.1-3.9,2-5.8-2.3c-0.7,0.6-1.3,1.2-1.7,1.8c-19.5-25.1-20.2-14.9-24.6-18.1c0,0-9.2-3.2-13.7-4.7
	c5.2,4.7,8.9,7.7,11.9,10.7l0,0.1c0,0,0.4,0.3,0.5,0.4v0c0.8,0.9,1.7,1.7,2.4,2.6c-0.2,0.8-0.1,1.9-0.1,2.3c0,0,1.1,1,1.6,1.5
	c0,0,0-1.1,0-1.7c-0.3,0-1.3,0-1.6-0.1c0.1-0.1,1.1-0.2,1.6-0.3c0.3,0.4,0.6,0.7,0.8,1.1c-1,0.5-0.1,2.3,0.4,3.3
	c0.4,0.5,0.8,0.9,1.3,1.3c-2.4-0.5-2.2-1.1-4.5,0.9c0,0,2.4-0.7,3.5-1.1c1.5,2.1,6.7,10.7,7,13c-4.4-3.5-9.3-7.6-14.2-9.2
	c2.9,2.6,8.7,6.6,14,10.2c-0.4,0.8-1.8,1.4-2.7,1.9c0,0-1.3,0.8-1.9,1.2l4.8-2.9c2.8,1.9,5.4,3.6,7.3,4.9c-1.5,1.3-3.6,2.3-5.7,2.7
	c0,0-0.1-0.4-0.2-0.6c-0.2,0.6-1,1.3-1.9,0.8c0.5-0.4,1.7-1.3,1.9-0.8c0.3-1.1-4.3-0.7-6.2-1.7c0.1,0.2,0.6,0.5,1.2,1
	c-1.6,0.2-3.2,0.6-4.1,0.8c-0.5-0.4-1-0.8-1.5-1.2c0.8-0.8,3.9-2.7,4.4-3c-0.7,0.4-2.9,1.8-4.5,3c-18.2-14.8-19.6-16.7-35.1-22.4
	c5.2,3.9,27,20.6,41.3,30.7c-1.4,1.8-3,3.3-4.6,4.6c-5.9-3.6-11.3-6.8-12.7-7.2c0.9,1.1,5.9,4.7,11.2,8.4c-5.9,4.9-16,2.1-21.6,14.7
	c-2.4-1.1-4.4-1.9-4.8-1.8c0.5,0.6,2.1,1.8,4.4,3.2c-1.1,8.5,7.7,7.7,0.2,17.2c1.6-1,6.6-4,8.2-4.2c2.7,1.9,10.5,9,12.2,12.1
	c-2.4-1.7-2.7-1.7-5.1-1.6c0.8,0.5,4.4,2.7,7.4,4.4l-0.3,7.4c-4.1,1.1-1.9,4.4,0.7,1.2c0.2,0.7,0.6,3,1.7,2.6c0,0,0.6-5.1,0.9-7.6
	c0,0,1.4,0.7,2.2,1c0,0,0.1,7.4,3.9,11.3c-2.6-0.1-5.2-0.2-7.8-0.4c8.2,6.6,14.7,13.5,20.6,22c-0.1-0.9-0.1-2,0-3.1
	c2.7,2.7,5.3,5.5,7.6,8.1c-1-3.3,1.2-3.5,4.1-2.7c0,0-0.4-0.8-1-2.1c4.9,5.7,10.5,12.2,15.6,18.1c-5.2-2.1-15-7.4-17.7-8
	c1.7,1.5,17.5,9.6,19.5,10.7c-0.1-0.2-0.2-0.3-0.3-0.5c2.3,1.3,7.2,8,8.4,9.4c0,0-2.8,1.6-4.2,2.4c0,0-0.3-2.8-0.5-4.2
	c-1.3-1-4.6,0.9-5.7,1.2c2.1,1.1,4.2,2.2,6,3.7c0.1-0.1,7.9,14.4,8.5,15.9c-19.5-14.4-37.3-43-56.8-59.7c0.5,1.2,0.8,2.2,1,3
	c-12.6-14.2-17.5-21.2-0.2,2.4c-1,0.1-3.7-2.7-5.9-5.6c0,0-1-0.1-1.3-0.3c15.4,15.2,26.5,35.7,28.6,54.6c-0.6-0.2-1.2-0.5-1.8-0.7
	c-0.9-1.6-2.1-3.5-2.9-4.8c0,2.1,2.7,6.1,4,8.3c0.2-1.7,0.5-0.8-0.7-3c0.5,0.2,1,0.5,1.5,0.7c0.1,1.8,0,3.2-0.8,3.6
	c-9.8-12.8-11.3-32.6-32.6-33.2c-4.1-4.9-8-10.8-0.8-8.2c-3.7-4.8-6.2-8.8-9-13.9c-4.8,0.4-12.7-13.8-14.8-17.7
	c-2.9,0.2-5.8,0.2-8.8,0.1c0,0,1.8,6.6,0.1,6.8c0.5,0.9,1.1,1.8,1.8,2.5c-1.2-0.4-3.8-1.4-5-1.6c-1.3-1.5-0.8-2.2-5.2-8
	c-3.9-0.2-7.6-0.1-11.4-0.2c4.6,6.4,10.8,11,16.6,16.6c-5.3-8.7,23.6,18.3,26.9,21.9c0,0-6.4-3.1-9.6-4.5c1.2,1.2,2.3,1.9,3.5,2.5
	c0.1,0.6,0.1,1.3,0.2,2l-0.2-0.2c0.5,0.5,0.3,1.4,0.3,1.9c-16.3-16.1-33.9-33.2-50.4-48.5c7.2,4,8.2,4.4,14.3,7.6
	c-2-5.1-25.8-18.2-32.7-24c3.6,3.8,7.3,7.7,11.1,11.5c-0.3-0.1-0.5-0.1-0.7-0.1c3.7,5.8,14.9,14.2,20,19.2c-2.5-2.6-7.7-7.6-10-10.7
	c4.8,3.1,30.1,27.1,33.5,31.7c-1.7-0.9-13.8-9.3-13.2-11.7l-1,0.1c-11.4-10.1-28.3-21.7-33-25.7c1.2,2.4,19,19.2,26.1,25.9
	c-8.1-1.1-20.3-17.3-27.5-23.5c0,0,10.4,14.5,17.5,22.2c-3-0.3-5.8-0.6-7.3-0.6c-4.4-4.1-9-8.3-12.1-11.1
	c7.5,7.9,35.5,45.6,27.3,18.9c-5.5-3.7-8.4-5.2-14.4-6.9c3.9,3.7,7.7,7.4,10.1,10.1c-0.7-0.6-9.5-9.6-11.9-10.7c0,0,0.1-0.1,0.3-0.1
	l-25.5-24.7c0.7,0-4.5-4.1-5.4-4.8c0.5,0.1,1,0.3,1.5,0.3c0,0-1.4-1.6-2.1-2.4c0.8-0.2-1.5-2.5-1.8-2.9c0,0-0.7-0.1-1.1-0.2
	c0.4,0,0.6,0.1,1,0.1c-1.8-2-1-1.3-2.4-1.9c2.4-0.2-14.9-17.4-14.9-17.4c-2.6-5.2-39.9-45.1-13.2-13c-16.4-13.9-31-36.6-44.2-53.1
	c7.6,11.4,30.1,37.4,39.1,48.3c0,0-28.7-25.6-36.6-37.1l2.4,3.5c-0.6-0.7-6.8-7-7.6-7.6c0.5,0.6,1.1,1.3,1.7,2.1
	c-2.6-2.8-4.7-4.8-5.5-5.3c8.5,9.7,17.4,19.2,26.1,28.7c0,0,5.4,6.5,8.1,9.8c-0.1-0.1-4.9-5.2-7.3-7.3c0,0-18.5-18.3-20.4-20.2
	c14.2,14.9,28.7,29.2,42.2,44.6c-0.1,0.1-0.2,0-0.3,0.1c0.6,1.9-1.1,0-3.1,0c0,0.2,0.1,0.3,0.1,0.5c-7.6-9-15.3-17.6-22.7-26.7
	c6.3,8.5,11.3,14.8,15.6,23.5c-5.9-10.5-13-17.6-22-27.3c0,0.2,0.1,0.3,0.2,0.5c-0.1,0-0.2-0.1,0,0.3c-0.2-0.2-0.3-0.7-0.2-0.9
	c-0.4-0.4-0.5-0.7-1.1-0.7c11,15.5,40.8,55.8,48.2,70.2c-19-5.4-45.2-68-60.1-79.8c-1.4,7.6,9.3,14,12.3,20.8
	c-1.6-0.6-9.8-10.6-11-12c0,0-0.1,0-0.2,0c-1-1.2-1.3-2,0.2-0.2c0,0,0.2,0.2,0.4,0.3c-4.1-5.9-13.9-15.7-19.2-22.1
	c4.2,6,16.4,21.9,17.8,28.5c-7.7-4-21.2-18.4-27-25.2c0,0,0.2,0,0.2,0c0.3,0.8-2.4-4.7-2.2-2.2c0,0,0,0,0,0c0,0,0,0.6,0,1
	c0,0,0.2-0.1,0.3-0.2c-0.2,0.5-0.5,1-0.8,1.4c0.1,0.1,0,0.1,0,0.2c0,0-0.1-0.1-0.1-0.1c-0.4,0-0.6,0-0.2,0.5
	c-0.5-0.4-0.9-0.9-1.3-1.3c-0.1-0.7-0.8-5.9-0.1-5.8c-8.6-8.6-17.1-17.1-25.4-25.9c4.3,5.4,20.6,19.1,20.2,24.7l-0.6-0.5
	c0.5,0.4,0.6,0.7,0.5,1.2c-2.4-2,1.3-2.4-2.9-4.8c0,0,0.6,0.9,0.9,1.3c-1.9-2.4-4.2-2.7-7-5.5c-0.1-0.7,0.3-1.8-0.8-0.6
	c0,0-1.6,1.9-2.4,2.9c0,0,0,0-0.1,0c0,0,1.5-1.8,2.2-2.7c-0.4-0.2-1.9,1.5-2.7,1.2c-0.7-1.2,1.4-2.1-0.1-3.2c-1.2,1-1.7,3-4.1,1.8
	c-1.5-6.2-2,1.4-3.1,2.1c1.4,1.9,2.3,4.1,2.8,6.1c-1.9-1.8-12.3-11.5-13.5-13.1c-0.4,0.1-0.5-0.7-0.2-0.9c-0.2,0,14.2,15.6,14,17.1
	c0-1.4-0.6-0.9-1.2-0.2c0,0-0.1,0-0.1-0.1c0.1-0.1,0.1-0.1,0.2-0.2c0,0-0.2,0.1-0.3,0.1c-0.6-0.5-1.2-0.8-1.8-1.3
	c-0.1-0.4-0.3-0.6-0.6-0.9l-0.3,0.1c-0.2-0.2-0.8-1-0.1,0.1c-0.2,0.1-2.2,0.6-2.2,0.6c-6.2-3.4,0.6-0.5-2.6,0.7
	c0.8,0.9,3.2,3.3,2.7,4.4c0,0-0.6-0.5-0.9-0.7c1.1,1.3,0.8,0.9,0.5,2.8c-1.8-1.4-2-1.4-0.1,0.6c-0.4,2-1,4.8-1,6.9
	c0,0-1.3-3.9-1.8-5.9c0,0.8,0,7.4,1,7.7c0.3-0.5,0.6-1,0.8-1.5c0.7,2.2,3.8,3.6-0.7,4.8c0,0,0.2,0.3,0.3,0.4c-0.2,0-0.4,0-0.7,0
	c0,0,0.1,0.2,0.1,0.3c0,0,0,0,0.1,0c0,0-0.1,0-0.1,0.1c0.4,1-0.4,0-0.8-0.4c0,0,0.4,0,0.7,0c0,0,0,0,0.1,0c0.2-0.1,0.1-0.6,0.3-0.7
	c0,0-1.3,0.3-1.1,0.4c0,0,0,0.2,0.1,0.2c-4.8-1.6-22.8-16.9-18.7-11.5c0,0,0.9,1.6,1.4,2.3c-1.3-1.2-2.9-2.7-3.9-4.1
	c1.9,4.3,4.1,10.2,6.3,14.6c-3.2-1.3-4.9-1.6-7.7-2.5c0,0,18.2,9.5,16.1,11.2c-7.5-1.7-13.6-4.1-21.1-4c1.6,1.3,19.9,6.8,25.1,11.5
	c0,0,1.8-0.5,2.6-0.8c-0.3-0.2-0.5-0.5-0.8-0.8c0.4-0.1,0.9-0.3,1.3-0.4c1.8,0.9,3.5,1.7,5.3,2.5c-2.6,0.4-5.1,0.8-7.6,1.3
	c1.3,2.2-5.9,0.6-6.5,0.9c0.5,0.6,16,4.8,17,5c0,0-0.5-0.6-0.3-0.4c0,0-0.6-0.9-0.9-1.3c0,0,0,0,0,0c0,0-0.3-0.4-0.5-0.6
	c3.5,2,1.1,1.5,4.6,3.6c-0.8-0.1-5.7-1-6.8-0.5c1.9,1.1,4.2,1.2,6.3,2.3c-2.2-0.5-4.2-1.4-5.8-0.6c1,3.4,29.4,21.9,35.4,26.8
	c-3.5-0.9-21.7-15.9-23.5-15.5c3,2.1,5.3,3.6,8.3,6c-2.9-2.1-7.2-5.8-10.6-6.6c7.3,4.9,24.1,16.1,30.3,23.1c0,0,0-0.3-0.1-0.4
	c1.9,1.6,3.8,3.1,5.8,4.7c-0.1-0.1-0.3-0.1-0.2,0c-1.1-0.7-10.3-6-10.7-7.2l0,0.2c0,0-22.7-17.1-23.6-17c0,3.3,4.3,8.6,7.3,11.2v0
	c1.6,1.4,9.9,9.8,13.5,12.8c0.6-0.7,0.6,1,1.4,1c0.3,0.6,0.5,1.3,1.1,0.9c0,0,0.5,0.4,0.8,0.7c0.1-0.1,0.2-0.2,0.2,0
	c0.9,0.8,0.6,0.9,1.9,0.6c-0.1,0.2-0.2,0.5-0.3,0.7c0,0,2.2,1.5,3.3,2c-0.3-0.6-0.6-2-0.7-2.7c1.5,1.2,2.6,3.5,4,4.3
	c0,0-0.8-1-1.1-1.5c0,0,2.8,2.6,4.3,4c-0.1-0.1-2-1.4-2.2-1.3c1.5,2.7,6.7,5.1,8.7,8.3c-8-5.6-43.6-31.7-49.1-33.9
	c14.6,14.5,46.3,36.8,64.3,50.9c-0.3,0.2-0.6,0.7-1,0.9l-10.5-7.1l0-0.2c-0.2,0-0.4-0.1,0,0c0,0-0.7-1.2-0.5-0.1
	c-8.1-5.4-14.8-9.8-15.3-9.8c2.8,2.3,9.7,7.6,18.4,14.4c0,1.7,0.4,1.8,1.6,3.1c0,0,0,0,0,0c0,0,5.6,4.3,5.5,4.4
	c5.2,4.5,18.8,21,26.1,29.6c-0.5,0.4-1.1,0.8-1.6,1.1c-0.6-0.7-1.2-1.3-1.7-1.9c-0.3,0.4-0.8-0.9-1.1-1.1c0,0,0-0.3,0-0.4
	c0.9,1,2.8,1.6,3.9,1.8c-6.1-3.7-5.9-4.4-3.1,2.7c-2.8,1.4-1.9,3.2-3.7,8.3l-6.1-4.3c-1,0.2-0.7-0.1-1.1,0.6c1,1.8,4.7,4.8,8.9,7.8
	c-0.6,0-1.2,0-1.6,0.1c2,0.6,3.5,0.5,4.4,2.8c0,0-3-1.6-4.5-2.4c0,0-9-7.2-13.4-18.2c-3.6,3.8-7.6,10.3-1.5,16.6
	c0.1,1.4-6.2,8.1-7.4,9.5c2.3-1.4,8.3-5.4,10.6-6c0,0,0.6,0.4,0.9,0.6c0.1-3.8,1.3-1.1,1.5,0.8c0,0-0.3,0-0.5-0.1
	c2.1,1.5,4.4,5.8,1,5.4c-5.2,6.5-14,10.8-20.3,16c-1.2-0.6,2.1-14.2,2.4-16.2l-11.1-14.4c-2.7,5.7-5.7,10.6-9.2,15.3
	c-2.1-2.6-8-16.1-5.5-17.9c-1.3-7.5-4.8-7.8-10.3-13.2c0.7,1.4,2,6.1,0.5,6.4c-0.9-1.3-1.3-2.7-1.5-4.1c0.1,0.1,1.3,1.6,1.5,1.7
	c-1.3-3.3-1.9-6.9-6.4-8c1.8,3.7,0.2,5-0.9,0c0.2,0.2,1.2,1.2,1.3,1.2c-0.2-0.3-0.9-1-1.2-1.3c-5.8-1-12.4-1.2-18.1-1.5
	c0,0,1.2,2.3,1.8,3.5c0,0-1,2.4-1.9-1.6c0.4,0.5,1.3,1.6,1.8,1.9c-1.1-1.8-1.7-1.9-2-3.9c0,0-1.8,0-2.7-0.1c0.3,2.8-0.4,2.2-1.1,0
	c0,0-3.3-0.2-4.9-0.3c0.3,0.9,1.2,3.4,0.9,4.1c-0.8,0-2.5-3.6-2.8-4.3c-19.5-1.3-22.9-3.7-2.5-5.5c-0.5-1.2-2.6-5.7-3-7.5l0,0.3
	c-0.5-1.1-2-0.2-2.6,0.1c0.3,0.5,1.8,2.8,1.3,3.1c-2.8-2.8-0.7-0.6-1.6-3.1c-8.7,2.6-17.7,5.2-26.3,8c3.1,3.3,6.2,6.7,9,10.2
	c-1.9-1.1-5.1-3.2-7-4c2.4,1.8,5.5,3.7,8,5.2c0,0,3.1,4,4.6,6c-2.5-2.2-13-11.3-16.8-16.5c-5,1.9-22.2,8.5-24.4,13.7
	c4.7,1.9,26.6,10.4,29,12.2c-2.2,0.3,1.3,3.3,2.3,4.2c-8.8-3.6-17.5-7.2-26.3-11c0.4,1.1,1.8,7.5,2.8,11.8
	c-5.7,3.5-10.8,7.1-15.8,11.4c0.4,0.4,0.7,0.7,1,1.2c-0.4-0.1-1-0.2,0.1,0.2c0,0,0.3,0.6,0.5,0.9c-1-0.6-1.5-0.6-2.2-1.6
	c0,0-1.1,1-1.6,1.4c2,1.5,3.6,3.1,5.2,5c-1-0.3-3.2-0.9-4.1-0.9c1.2,0.5,3.4,1.1,4.6,1.5c0,0,1.7,2.2,2.5,3.3
	c-4.2-2.9-6.1-3.6-9.6-7.6c-6.5,6.8-10,11.8-13,20.8c2-2.4,10.1-4.4,13.2-3.2c-1.3,0.7-0.2,1.7,1,2.5c-4.8-0.4-9.4-0.4-13.3,1.4
	c0,0-0.4,1.9-0.6,1.7c0-0.7,0.2-1.5,0.2-2.2c-0.6,2.1-1,7.5-1.2,9.7c0,0,0.2,0.2,0.3,0.3c1.6-13.8,9.4,11.9,9.5,12.1
	c-1.1,0.3,0.2,4.1,0.7,5.1c-0.1,0-0.2,0-0.2-0.1l0.5,0.6c-0.7,0.3,0.3,3.4,0.5,4.2c0.5-0.2,1-0.2,1.6-0.2c0,0,0.8,0-0.3-2.9
	c1.8,1.2,3.5,2.4,5.3,3.7c-3.2-4-4.9-3.6-7.3-10c0.5,0.3-0.8-1.4,1.4,0.1c-1.6-2.3-2.7-5.9-3.3-8.4c0.6,0.7,1.9,2,2.5,2.5
	c0.1-0.6-3-4.4-3.3-6.6c1.4,2.8,6.4,10.6,4.6,12.9c2.1,1.8,4.3,4.3,6.1,6.5c0,0-0.1-0.1-0.1-0.1c0,0,1.6,1.8,1,1.2
	c0,0,1.2,1.6,1.8,2.3c-0.4-0.4,0.7,0.8,0.8,1c0,0-4,1.8,10,18.3c-1.3-1.1-4.2-3.3-5.9-3.8l9.6,10.3c0.7-0.8-0.4-4.5-0.6-5.6
	c0,0-0.2-0.1-0.1-0.1c-0.5-1.1-2.6-3.1-1.3-3.4c0.1,0.2-2.2-4.1-2-4.5c0,0,0.6,0.1,0.9,0.1c-1.7-2-3.1-4.3-4.3-6.5
	c1.1,0.6,3.1,1.8,4.2,2.2c-1.1-0.9-3.2-2.1-4.4-2.8c0,0-0.9-2.2-1.3-3.2c0,0,3.8,3.8,5.7,5.7c-0.1-0.2,2.4,5,1.9,5.7
	c2,1.5,3.8,3.3,5.5,5.1c-1.5-0.4-3.2-1-4.7-1.3c0.7,0.7,3.9,1.2,5.2,1.9c0,0-2.2-0.2-3.3-0.4c7.1,12.3,15.2,20.9,24.3,32.2
	c0,0-0.4-0.4-0.6-0.6c1.9,5.6-10.5-9.3-10.5-9.3c2.3,5.1,1.2,6.5,5.2,10.5c0,0-0.3-0.8-0.5-1.2c2.4,2.6,3.9,4.8,5.8,7.8
	c-0.3-1.2-1-3-1.5-4.2c1,1.4,8,11.9,9.2,11.9c0.1-1.1-0.8-2.9-1.2-4.1c0.9,1,2.4,2.7,3.4,3.5c-7.5-10-9-15,2.7-3.4
	c-0.1-0.1-0.2-0.1-0.3-0.1c0,0,2.7,3.2,4.1,4.8c-0.4-0.3-8-4.8-10.4-7.6c3.1,4.9,5.1,10.4,9.8,15.9c0,0-4.5-4-6.8-6.1
	c0.3,1,1.9,6.5,2.9,10.1H1457.9z M987.3,1094.7c-1.8-2.6-3.5-5.4-4.9-7.8c0.3,0.9,1.6,3.9,1.3,4.7c-1.3-0.5-4.6-8-5.2-9.4
	c0,0,1.2,1.2,1.7,1.8c0,0,0.1-0.1,0.1-0.1c-2.7-3.1-2.1-2.5-3.3-6c1,1.6,2.3,4,3.6,5.5c0.1-1.6-2.5-4.3-4.2-7.6c0,0-3.6-4.3-5.4-6.5
	c0.3,0.4,1.6,2.8,1.3,3.1c-0.6-0.3-1.9-3.9-2.5-4.7c-2.9,2.7,3,13.8,13.8,27H987.3z M1369.6,781.9l-0.6,0 M1369.6,781.9l-0.6,0
	 M1369.6,781.9l-0.6,0 M1369.6,781.9l-0.6,0 M1369.6,781.9l-0.6,0 M1369.6,781.9l-0.6,0 M1369.6,781.9l-0.6,0 M1369.6,781.9l-0.6,0
	 M1369.6,781.9l-0.6,0 M1369.6,781.9l-0.6,0 M1369.6,781.9l-0.6,0 M1369.6,781.9l-0.6,0 M1369.6,781.9l-0.6,0 M1369.6,781.9l-0.6,0
	 M1369.6,781.9l-0.6,0 M1369.6,781.9l-0.6,0 M1369.6,781.9l-0.6,0 M1369.6,781.9l-0.6,0 M1369.6,781.9l-0.6,0 M1435.3,826.6
	c0,0,0.1,0.1,0.1,0.1 M1437.4,828.9C1437.4,829,1437.4,829,1437.4,828.9 M1438.1,830.8l0.2,0.6 M1438.8,832.3
	c1.3,2.7,4.6,6.1,5.2,6.5 M1448.5,843.1c1.3,1.8,3.2,4.5,4.3,6.2c0,0,1.1,0.2,2.8,0.4 M1456.2,849.8l1.7,0.3 M1457.3,839.8
	c-3.4-2.9-6.7-5.3-10.8-8.6c0,0,0.8,1.8,1.1,2.7c-5.1-6.5-7.5-8.3-13.8-13.6c0.6,1.7,1.5,3.7,2.4,5.4c-0.9-0.8-3.7-3.2-6.3-5.4
	 M1427.4,819.2c4.6,4.6,8.6,6.7,10.8,11.8 M1369.6,781.9l-0.6,0 M1369.6,781.9l-0.6,0 M1369.6,781.9l-0.6,0 M1369.6,781.9l-0.6,0
	 M1369.6,781.9l-0.6,0 M1369.6,781.9l-0.6,0 M1369.6,781.9l-0.6,0 M1369.6,781.9l-0.6,0 M1369.6,781.9l-0.6,0 M1369.6,781.9l-0.6,0
	 M1369.6,781.9l-0.6,0 M1369.6,781.9l-0.6,0 M1369.6,781.9l-0.6,0 M1369.6,781.9l-0.6,0 M1369.6,781.9l-0.6,0 M1369.6,781.9l-0.6,0
	 M1369.6,781.9l-0.6,0 M1369.6,781.9l-0.6,0 M1424.1,842.2C1424.1,842.2,1424.1,842.2,1424.1,842.2 M1369.6,781.9l-0.6,0
	 M1369.6,781.9l-0.6,0 M1369.6,781.9l-0.6,0 M1369.6,781.9l-0.6,0 M1369.6,781.9l-0.6,0 M1369.6,781.9l-0.6,0 M1369.6,781.9l-0.6,0
	 M1369.6,781.9l-0.6,0 M1369.6,781.9l-0.6,0 M1393.8,780.9L1393.8,780.9 M1397.4,774.1c5.5-13.3-8.1-39.4-8.1-39.4
	c0.2-0.2,0.6-1,1.1-0.9c1,1.9,0,3.3,1.8,6.4l0,0c6.9,5.7,7.3,4.4,15.1,12.4c0,0,25.8,32.4,31.6,36.3c0,0-4.1-4.1-6.1-6.1
	c2.5,1.9-2.7-3-3.8-4.2c61.5,39.2-1-31.2-9.5-33.1c-4.1,0.3,6.1,15.8,4.2,14.3c1.6,2.4,23.5,29.1,6.4,11.5c0,0,1.9,4.1,2.9,6.1
	c0,0-0.1-0.4-0.1-0.6c0,0,1.8,3.6,2.7,5.4c-5.2-6.3-10.4-12.6-15.5-19c0,0,0.6,1.2,0.8,1.9c-0.4-0.3-1.4-1-1.8-1.1
	c1.5,1.8,1.7,1.1,2.5,3.5c-6.3-9.6-13.8-19.6-19-30.2c-3.5-1.6-6.8-4.1-10.1-6.1c7.7,18.9,12.7,37.9,2.9,51.4
	c5.2,0.8,10.4,1.2,15.6,2.7c-4,0.3-12-0.7-16.8-1.2l-0.2,0.2c2.3,2.2,4.9,4.3,7.4,6.3c-5.2,1.8-9.1,3.7-13.5,6.7 M1388.1,797.5
	c-0.3-0.5-3-4-3.8-5c-2.7,1.4-5.6,2.5-8.7,3.2c0,0,1.6-0.4,1.7-0.4l-5,0.3c0.6-0.2,4.7-1.2,4.6-1.9c-0.4-0.4-2.3-0.1-2.7-0.1
	c3-0.8,5.9-1.8,8.5-3.2c-1.8-2.4-3.8-4.8-5.6-7.2c0.7-0.4,1.4-0.8,1.9-1.2 M1380,781.2c1.3-1.4,2.1-3.2,2.7-5.4c0,0.3,0.1,0.8,0.4,1
	c-1.3,5.6,11.2,4.9,0.3-0.5c0.1-0.7,0.5-1.5,0.4-2.1c-0.3,0.3-0.5,0-0.8,0.3c-0.9-0.8,1-0.6,1-0.6c-0.3-0.1-1-0.3-1-0.3
	c-0.1-0.5-0.2-0.6,0.1-0.9c1.1,1.1,8.8,9.3,8.7,9.3c0,0,0.2,0.2,0.2,0.2l0.6,0.1l1.1-1.5 M1393.9,780.7c0,0.1-0.1,0.1-0.1,0.2
	c1.5-2.1,2.6-4.4,3.6-6.8 M1457.9,826.2c-3.8-4.7-7-9-12.8-16.1c5-3.9,8.8-3.1,12.8,0.4 M1369.6,781.9l-0.6,0 M1442.6,831.9
	L1442.6,831.9 M1442.6,831.9L1442.6,831.9 M1442.6,831.9L1442.6,831.9 M1442.6,831.9L1442.6,831.9 M1442.6,831.9L1442.6,831.9
	 M1442.6,831.9L1442.6,831.9 M1442.6,831.9L1442.6,831.9 M1442.6,831.9L1442.6,831.9 M1442.6,831.9L1442.6,831.9 M1442.6,831.9
	L1442.6,831.9 M1442.6,831.9L1442.6,831.9 M1442.6,831.9L1442.6,831.9 M1442.6,831.9L1442.6,831.9 M1442.6,831.9L1442.6,831.9
	 M1442.6,831.9L1442.6,831.9 M1442.6,831.9L1442.6,831.9 M1442.6,831.9L1442.6,831.9 M1442.6,831.9L1442.6,831.9 M1442.6,831.9
	L1442.6,831.9 M1442.6,831.9L1442.6,831.9 M1442.6,831.9L1442.6,831.9 M1442.6,831.9L1442.6,831.9 M1442.6,831.9L1442.6,831.9
	 M1384.8,824.2l0.1,0.1 M1264.7,913.2l0.2,0.1 M1354.6,1024.3l-0.9-1 M1346.9,1015.8c-9.6-10.6-19-21.4-28.1-32.3 M1301.8,962.9
	c-7-8.6-13.8-17.4-20.5-26.2 M1050.4,856.6L1050.4,856.6 M1262.9,808.6L1262.9,808.6 M1090.3,946.8L1090.3,946.8 M1320.7,934.6
	L1320.7,934.6 M1203.9,1046.7L1203.9,1046.7 M1103.9,1067.4L1103.9,1067.4 M1279.7,989.2l0.1,0.1 M1442.6,831.9L1442.6,831.9"/>
</svg>
