<?xml version="1.0" encoding="utf-8"?>
<!-- Generator: Adobe Illustrator 28.0.0, SVG Export Plug-In . SVG Version: 6.00 Build 0)  -->
<svg version="1.1" id="Layer_1" xmlns="http://www.w3.org/2000/svg" xmlns:xlink="http://www.w3.org/1999/xlink" x="0px" y="0px"
	 viewBox="0 0 927.4 1035.1" style="enable-background:new 0 0 927.4 1035.1;" xml:space="preserve">
<style type="text/css">
	.st0{fill:#FFFFFF;}
</style>
<g>
	<path class="st0" d="M598.3,131.2l32.6-118C568.7-3.9,503.2-4.4,440.8,11.8C378.4,28,321.4,60.3,275.4,105.5S196.2,207.2,179,269.4
		c-17.2,62.1-17.8,127.7-1.7,190.1L59.2,490.1c16.1,62.4,48.5,119.5,93.7,165.5c45.2,46,101.7,79.3,163.9,96.5
		c62.2,17.2,127.7,17.8,190.2,1.7c62.4-16.1,119.5-48.4,165.5-93.6l86,87.3c46-45.3,79.3-101.9,96.5-164.1
		c17.2-62.2,17.7-127.9,1.4-190.3c-16.2-62.5-48.6-119.6-94-165.5C717.1,181.6,660.5,148.4,598.3,131.2z M736.5,550.6
		c-11.3,41.3-33.4,78.8-63.9,108.9l-85.9-87.2c-30.6,30.1-68.6,51.7-110.2,62.5c-41.6,10.8-85.3,10.5-126.7-0.9
		c-41.4-11.4-79.1-33.5-109.3-64.1c-30.2-30.6-51.8-68.6-62.6-110.1L296,428.9c-10.8-41.6-10.5-85.3,0.9-126.8
		c11.4-41.4,33.6-79.1,64.2-109.3c30.6-30.2,68.7-51.7,110.3-62.5c41.6-10.8,85.3-10.5,126.8,1l-32.6,118
		c31,8.5,60.1,23.1,85.4,42.9c25.4,19.8,46.6,44.3,62.5,72.3c15.9,28,26.1,58.8,30.1,90.8s1.6,64.3-7,95.4H736.5z"/>
</g>
<g>
	<path class="st0" d="M0,916.3c-0.3-22.3,7.1-41.3,22.3-56.7c15.2-15.5,34.2-23.1,56.9-22.7c17.6,0,32.6,4.3,45.2,12.9
		c12.1,8.1,21,20.1,25.1,34.1l-29.8,11.6c-7.3-20.8-20.9-31.1-40.9-31.1c-13.8,0-24.6,4.6-32.4,13.7c-7.8,9.1-11.8,21.9-11.8,38.3
		c0,16.5,3.9,29.4,11.7,38.5c7.8,9.1,18.6,13.7,32.5,13.7c20.3,0,34.2-10.5,41.8-31.4l29.2,11.8c-5.6,15.2-14.4,26.9-26.3,35.1
		c-11.9,8.2-26.8,12.2-44.5,12.2c-23.5,0-42.5-7.5-57-22.4C7.3,958.9,0,939.7,0,916.3z"/>
	<path class="st0" d="M163.2,992.7v-80.4c0-3.7,0.7-7.4,2.2-10.8c1.4-3.4,3.6-6.5,6.2-9c2.7-2.6,5.8-4.6,9.3-5.9
		c3.5-1.3,7.1-1.9,10.8-1.8l46.4,1.7l-1,26.4l-43-1.7v81.5H163.2z"/>
	<path class="st0" d="M333.2,883.8h32.4l-45.4,126.1c-3.2,8.9-7.4,15.3-12.6,19.3c-5.2,4-12.4,6-21.6,6h-32.4v-24.6h28.3
		c3.1,0.2,6.1-0.7,8.5-2.6c2.6-2.9,4.5-6.3,5.6-9.9l2-5.6l-52.7-108.4h33.1l18.1,41.6c5.5,13.3,10,23.3,13.5,30.3
		c2.2-6.2,5.7-17.1,10.7-32.4L333.2,883.8z"/>
	<path class="st0" d="M371.5,938.3c0-17.1,5.4-31,16.1-41.8c10.7-10.7,24.5-16,41.2-15.9c16.8,0,30.6,5.3,41.3,15.9
		c10.7,10.6,16,24.5,16,41.8c0,17.4-5.3,31.4-15.9,42s-24.4,15.9-41.4,15.9c-16.4,0-30-5.5-40.9-16.4
		C377,968.9,371.5,955,371.5,938.3z M447.1,963.3c4.4-5.6,6.7-13.7,6.6-24.5s-2.2-19.1-6.6-24.9c-2.2-2.8-5-5-8.2-6.5
		c-3.2-1.5-6.7-2.3-10.2-2.3c-3.5,0-7,0.8-10.2,2.3s-6,3.8-8.2,6.5c-4.4,5.9-6.6,14.2-6.6,24.9c0,10.7,2.2,18.9,6.6,24.5
		c2.3,2.6,5.1,4.7,8.3,6.2c3.2,1.4,6.6,2.2,10.1,2.2s6.9-0.7,10.1-2.2C442,968,444.8,965.9,447.1,963.3z"/>
	<path class="st0" d="M508.5,992.7V840.3H562c21.8,0,39.4,7,53,20.9c13.6,13.9,20.4,32.1,20.4,54.7c0,23.9-6.7,42.6-20.1,56.3
		c-13.4,13.7-31.6,20.5-54.4,20.6H508.5z M530.2,972.7h27.2c36.7,0,55.1-18.9,55.1-56.6c0-17.4-4.6-31.1-13.7-40.9
		c-9.1-9.9-22.4-14.8-39.8-14.8h-28.7L530.2,972.7z"/>
	<path class="st0" d="M753,992.7l-14.2-40.3h-67.1l-14.4,40.3h-23.5l57.3-152.4h30l56.2,152.4H753z M678.9,932.6h52.9L717,891
		c-3.5-10.6-7.3-21.5-11.5-32.7l-2.2,5.4L694,891L678.9,932.6z"/>
	<path class="st0" d="M774.7,916.5c-0.3-23.1,7-42.1,21.9-57.2c14.9-15,33.2-22.4,54.9-22.1c21.8-0.3,39.9,7.1,54.5,22.1
		c14.6,15,21.7,34.1,21.4,57.2c0.3,23.1-6.9,42.1-21.5,57.1s-32.8,22.4-54.5,22.1c-21.8,0.3-40.1-7.1-54.9-22.1
		C781.7,958.6,774.4,939.5,774.7,916.5z M904.3,916.5c0-17.2-4.8-31.5-14.5-42.7c-9.7-11.2-22.6-16.8-38.7-16.7
		c-16.3,0-29.2,5.6-38.8,16.7c-9.6,11.1-14.3,25.4-14.3,42.7c0,17.6,4.8,31.9,14.4,42.9c9.6,11,22.5,16.5,38.8,16.5
		c16.3,0,29.2-5.5,38.8-16.5S904.3,934,904.3,916.5z"/>
</g>
</svg>
