<?xml version="1.0" encoding="UTF-8"?>
<svg id="Layer_2" data-name="Layer 2" xmlns="http://www.w3.org/2000/svg" viewBox="0 0 995.4 963.12">
  <defs>
    <style>
      .cls-1 {
        fill: #fff;
        stroke-width: 0px;
      }
    </style>
  </defs>
  <g id="Layer_1-2" data-name="Layer 1">
    <g>
      <path class="cls-1" d="m490.93,706.19c-72.95-123.28-145.35-245.62-218.05-368.48,15.37-5,30.16-9.83,44.96-14.63,21.34-6.92,42.64-13.95,64.05-20.64,4.03-1.26,4.42-2.99,3.86-6.77-4.25-28.78-3.67-57.27,9.4-83.93,20.49-41.8,53.78-64.58,101.04-64.83,28.13-.15,56.27.27,84.4.63,2.01.03,4.82,1.03,5.88,2.54,7.91,11.28,15.46,22.81,23.91,35.43-21.36-1.07-41.7-2.09-62.04-3.11-.6.87-1.19,1.74-1.79,2.61,1.27.39,2.82.43,3.75,1.21,23.68,19.69,41.01,43.44,47.1,74.29,2.38,12.08,2,24.18-.1,36.22-.64,3.68.16,5.18,3.81,6.35,33.54,10.78,67.01,21.77,100.5,32.71,1.7.56,3.39,1.16,5.86,2-72.17,122.76-144.1,245.11-216.57,368.39Zm-206.82-362.34c-.28.29-.57.59-.85.88,68.2,115.11,136.41,230.22,204.97,345.93,0-15.38.06-29.66-.01-43.94-.17-33.79-.41-67.58-.61-101.36-.21-34.95-.51-69.91-.51-104.86,0-4.54-1.42-6.68-5.53-8.51-55.6-24.69-111.11-49.56-166.64-74.38-10.27-4.59-20.55-9.17-30.82-13.76Zm1.65-4.87c2.96,1.38,4.58,2.18,6.23,2.89,64.45,27.74,128.92,55.44,193.32,83.3,3.4,1.47,6.03,1.32,9.33-.06,65.77-27.61,131.58-55.1,197.38-82.62,1.45-.61,2.82-1.38,5.35-2.63-34.46-10.83-67.77-21.3-101.21-31.81-.5,1.19-.87,1.92-1.12,2.68-14.74,45.52-44.82,72.77-93.39,76.59-46.4,3.65-83.88-13.45-105.66-58.24-3.39-6.97-5.71-14.45-8.58-21.85-33.37,10.42-66.79,20.86-101.67,31.75Zm267.44-51.61c1.43-9.78,1.3-18.83-.13-27.9-3.69-23.34-12.22-44.44-28.56-61.95-17.47-18.72-42.72-20.13-62.05-3.43-16.18,13.97-25.59,32.04-31.33,52.24-3.75,13.22-4.43,26.68-2.49,40.63,1.68-.41,2.96-.64,4.19-1.04,17.86-5.78,35.68-11.68,53.6-17.28,2.62-.82,5.93-.95,8.52-.13,19.17,6.01,38.24,12.34,58.25,18.86Zm-122.92,6.09c6.83,26.93,17.79,50.53,41.66,65.67,13.74,8.71,28.32,8.72,41.87-.36,22.98-15.4,31.94-39.25,38.11-65.04-18.07-5.93-35.6-11.54-53.01-17.5-5.25-1.8-9.97-2.07-15.35-.21-17.4,6-34.97,11.49-53.28,17.44Z"/>
      <path class="cls-1" d="m.51,819.7c23.04,0,45.67-.49,68.26.12,32.54.87,54.12,21.62,57.78,54.07,1.57,13.88,1.32,27.63-2.59,41.02-7.32,25.09-24.1,41.23-49.94,44.01-24.18,2.6-48.75,1.55-73.95,2.13,0-5.08-.29-9.2.18-13.23.13-1.16,2.29-2.52,3.77-3.01,10.95-3.65,10.97-3.59,10.97-15.3,0-28.3-.07-56.59.11-84.89.03-4-1.03-5.88-5.05-6.87-10.26-2.52-10.22-2.71-10.02-13.19.02-1.13.21-2.26.46-4.86Zm43.08,119.91c6.52,0,12.47.13,18.42-.03,15.32-.39,25.67-7.45,30.36-22.04,6.05-18.83,5.94-37.98-.1-56.83-3.52-10.98-11.22-18.18-22.9-19.63-7.55-.93-15.26-.51-22.9-.72-3.05-.08-2.88,2.01-2.88,4.07.01,12.31,0,24.62,0,36.93,0,19.12,0,38.24,0,58.24Z"/>
      <path class="cls-1" d="m785.92,806.41c13.03-.56,25.64-1.11,38.25-1.64.8-.03,1.6.11,2.95.21v57.81c2.13-1.44,3.42-2.3,4.7-3.18,14.82-10.21,32.42-11.41,45.46-2.93,9.45,6.15,14.5,15.42,17.26,25.96,3.46,13.22,3.65,26.7.94,40.04-4.48,22.05-19.34,35.5-41.92,38.86-17.34,2.57-34.47.9-51.59-2.01-3.07-.52-3.05-2.4-3.04-4.67.04-9.15.03-18.3.03-27.46,0-32.62-.02-65.23.04-97.85,0-2.9-.24-4.89-3.66-5.87-9.8-2.83-9.75-2.99-9.62-13.1.02-1.15.1-2.29.19-4.16Zm41.39,103.92h-.04c0,8.15.29,16.31-.11,24.44-.24,4.92,1.07,7.5,6.3,7.44,3.65-.05,7.33.54,10.94.18,8.7-.86,15.66-4.87,19.08-13.19,6.36-15.49,6.28-31.16-.8-46.35-4.86-10.42-13.89-13.41-24.6-9.04-2.44,1-4.69,2.48-7.03,3.72-2.76,1.47-3.89,3.59-3.81,6.86.22,8.64.07,17.29.07,25.94Z"/>
      <path class="cls-1" d="m256.67,916.83h16.56c1,5.48,1.88,11.01,3.1,16.46.35,1.54,1.41,3.67,2.66,4.13,12.31,4.57,24.84,6.28,37.45,1.24,7.81-3.12,11.44-9.18,10.83-17.17-.47-6.19-4.33-10.14-9.34-12.64-5.77-2.87-11.97-4.87-18-7.22-8.03-3.13-16.32-5.73-24.07-9.45-15.08-7.25-20.99-19.91-20.07-36.32.88-15.95,8.86-26.85,23.15-33.23,15.84-7.08,32.41-6.51,48.96-3.4,7.8,1.47,15.39,4.03,23.41,6.18-.78,12.15-1.53,23.71-2.32,35.89-5.19,0-10.15.15-15.08-.13-.94-.05-2.29-1.73-2.56-2.87-.98-4.02-1.65-8.13-2.3-12.23-.51-3.24-1.87-5.15-5.44-5.91-8.91-1.9-17.77-2.51-26.66-.28-7.89,1.98-12.75,6.8-13.42,13.63-.72,7.31,3.44,12.07,9.49,14.96,6.43,3.07,13.24,5.32,19.84,8.05,8.27,3.42,16.77,6.42,24.68,10.54,25.27,13.12,24.09,52.75-.31,66.76-11.81,6.78-24.57,9.25-37.81,9.31-13.52.06-26.76-2.4-39.64-6.73-3.41-1.15-4.62-2.88-4.42-6.49.61-10.92.89-21.85,1.31-33.07Z"/>
      <path class="cls-1" d="m576.35,125.78c-2.19-1.04-4.39-2.03-6.56-3.12-24.81-12.44-49.56-25-74.49-37.17-2.35-1.15-6.3-.78-8.79.4-26.46,12.47-52.78,25.24-79.14,37.93-1.46.7-2.96,1.33-5.63,2.53,1.47-2.32,2.24-3.66,3.12-4.91,27.45-39.06,54.9-78.12,82.36-117.18,3.98-5.66,4.26-5.67,8.09,0,26.84,39.67,53.68,79.35,80.52,119.03.36.54.69,1.09,1.04,1.64-.17.28-.34.57-.52.85Z"/>
      <path class="cls-1" d="m685.92,858.86c19.78-5.35,39.28-10.36,59.63-6.25,16.09,3.25,24.22,13.63,24.27,29.99.05,18.31.07,36.61-.04,54.92-.02,2.88.64,4.37,3.67,5.32,11.08,3.47,11.68,4.8,9.18,17.47-11.29.56-22.69,1.12-34.41,1.71-1.15-5.27-2.24-10.24-3.51-16.06-1.86,1.75-3.23,3.07-4.63,4.35-8.5,7.86-18.39,12.33-30.12,12.5-16.98.24-29.1-11.05-29.99-28.04-1.11-21.23,8.94-32.48,31.24-34.01,9.9-.68,19.89-.11,31.1-.11-.69-7.3-.88-13.39-1.94-19.32-.79-4.41-4.28-7.05-8.51-8.3-7.64-2.27-15.2-.84-22.59,1.21-1.18.33-2.1,3.01-2.43,4.73-1.78,9.34-1.71,9.35-10.85,9.35-8.76,0-8.7,0-9.03-8.84-.25-6.64-.66-13.27-1.04-20.6Zm55.84,66.31c0-2.85.34-4.92-.12-6.8-.29-1.18-1.78-2.91-2.76-2.93-6.63-.15-13.29-.26-19.88.32-6.6.58-10,4.6-10.55,11.14-.65,7.69,2.08,12.98,8.07,14.81,7.87,2.4,13.98-1.85,20.34-5.54,4.88-2.83,5.6-6.94,4.9-10.99Z"/>
      <path class="cls-1" d="m170.57,912.52c1.37,22.1,13.45,32.55,33.26,28.43,8.02-1.67,15.65-5.23,24.25-8.2,2.62,4.19,5.64,9.03,8.9,14.25-14.88,10.28-30.68,16.03-48.39,15.77-29.03-.42-47.04-19.39-47.69-50.11-.23-10.87.65-21.56,5.06-31.73,9.12-21.02,27.7-30.67,49.13-29.63,7.29.35,15.02,1.92,21.57,5,13.38,6.3,18.92,18.62,20.52,32.67.71,6.22.01,12.58.19,18.87.1,3.75-1.45,4.78-5.07,4.74-18.47-.16-36.95-.08-55.42-.08-1.97,0-3.94,0-6.31,0Zm37.83-17.08c1.04-13.57-5.19-23.11-15.21-23.8-12.86-.89-21.16,7.85-22.43,23.8h37.64Z"/>
      <path class="cls-1" d="m614.2,939.41h35.55c1.09-6.17,2.03-12.21,3.32-18.17.27-1.24,1.76-3.08,2.79-3.16,4.76-.34,9.55-.15,14.63-.15v42.19h-99.92c0-4.28-.23-8.4.16-12.47.1-1.06,2.02-2.36,3.35-2.82,11.03-3.76,11.05-3.7,11.05-15.16,0-28.64-.05-57.28.08-85.92.02-3.33-.74-5-4.2-5.91-10.95-2.87-10.92-3.02-10.47-14.32.03-.8.22-1.59.44-3.14h58.62v13.79c-4.92,1.57-10.07,3.22-15.41,4.92v100.31Z"/>
      <path class="cls-1" d="m990.02,883.68h-17.79c-.36-1.36-.71-2.59-1-3.84-2.09-8.98-2.06-9.44-11.38-9.82-4.95-.2-10.43.58-14.86,2.65-6.95,3.24-7.08,11.86-.35,15.5,5.78,3.13,12.25,4.98,18.45,7.33,4.81,1.82,9.78,3.27,14.47,5.35,10.93,4.84,17.6,13.01,17.84,25.33.23,12.01-4.61,21.64-14.84,28.2-10.31,6.61-21.92,8.96-33.86,8.26-10.73-.63-21.39-2.57-32.02-4.27-1.2-.19-2.89-2.55-2.93-3.94-.27-8.78-.14-17.58-.14-26.75h18.61c.48,3.11,1.4,6.05,1.28,8.94-.19,4.53,1.83,6.61,6.04,6.47,7.06-.23,14.2-.2,21.12-1.38,4.49-.77,7.98-4.02,8.23-9.38.24-5.14-2.74-8.15-7.01-9.82-7.25-2.84-14.69-5.22-22.01-7.88-2.96-1.08-5.9-2.26-8.72-3.64-12.23-5.99-17.84-15.74-16.92-29.44.9-13.33,7.97-21.89,20.02-26.57,13.64-5.29,27.73-4.48,41.78-2.05,5.38.93,12.53.93,15.41,4.31,2.74,3.21,1.06,10.28,1.11,15.66.03,3.46-.32,6.91-.52,10.77Z"/>
      <path class="cls-1" d="m458.25,888.28h-18.6c-.82-4.04-1.4-8.13-2.57-12.03-.45-1.5-2.05-3.36-3.48-3.75-18.16-4.95-31.73,4.21-34.51,22.78-1.37,9.18-1.36,18.23,1.15,27.17,4.38,15.54,16.66,22.74,32.25,18.36,6.96-1.96,13.54-5.29,21.09-8.32,2.59,3.86,5.68,8.46,9.01,13.43-13.98,11.06-29.27,17.45-46.99,16.85-25.47-.85-45.03-20.02-46.21-45.88-.42-9.2-.23-18.74,1.74-27.67,4.69-21.24,21.11-35.03,42.64-37.53,14-1.63,27.46.58,40.62,5.38,3.09,1.13,4.21,2.62,4.01,6.18-.44,8.11-.14,16.26-.14,25.02Z"/>
      <path class="cls-1" d="m469.64,960.19c0-4.24-.28-8.22.17-12.11.14-1.22,2.07-2.76,3.48-3.24,9.68-3.23,9.7-3.15,9.7-13.21,0-18.14-.06-36.28.05-54.41.02-3.2-.49-5.02-4.18-5.94-9.43-2.33-9.38-2.59-9.2-12.43.03-1.45.2-2.9.37-5.25h41.03c0,1.34,0,3.12,0,4.9,0,26.29.06,52.58-.07,78.87-.02,3.3.66,4.99,4.15,5.92,9.68,2.59,9.64,2.78,9.4,12.77-.03,1.29-.23,2.58-.37,4.11h-54.52Z"/>
      <path class="cls-1" d="m512.55,821c0,10.31-6.03,16.29-16.45,16.33-10.34.03-16.57-6.13-16.48-16.31.09-10.55,6.35-16.77,16.76-16.66,10.33.11,16.18,6.12,16.17,16.64Z"/>
    </g>
  </g>
</svg>