<?xml version="1.0" encoding="utf-8"?>
<!-- Generator: Adobe Illustrator 26.3.1, SVG Export Plug-In . SVG Version: 6.00 Build 0)  -->
<svg version="1.1" id="Layer_1" xmlns="http://www.w3.org/2000/svg" xmlns:xlink="http://www.w3.org/1999/xlink" x="0px" y="0px"
	 viewBox="0 0 490 490" style="enable-background:new 0 0 490 490;" xml:space="preserve">
<style type="text/css">
	.st0{fill:#FFFFFF;}
</style>
<g>
	<path class="st0" d="M386,213.1l-1-3.1h-35l-1.1,3.1L245,490h37.4l26.2-70h117.7l26.2,70H490L386,213.1z M321.8,385l45.7-122.1
		L413.2,385H321.8z"/>
	<path class="st0" d="M245,70h70V35H175V0h-35v35H0v35h210c0,56.2-31.8,109.3-70,153.2c-29.9-34.4-56.3-74.8-66-118.2H38.5
		c10.1,53.9,42,103,77.7,143.6C64.1,300.6,9.4,334.4,8.4,335l18.2,30c4.5-2.7,59.9-36.8,113.8-90.5c20.7,20.7,41.4,38.6,58.8,52.2
		l21.6-27.5c-16.7-13-36.7-30.2-56.6-50.1C207.8,199.5,245,137.7,245,70L245,70z"/>
</g>
</svg>
