<?xml version="1.0" encoding="utf-8"?>
<!-- Generator: Adobe Illustrator 26.3.1, SVG Export Plug-In . SVG Version: 6.00 Build 0)  -->
<svg version="1.1" id="Layer_1" xmlns="http://www.w3.org/2000/svg" xmlns:xlink="http://www.w3.org/1999/xlink" x="0px" y="0px"
	 viewBox="0 0 3974.2 4276.4" style="enable-background:new 0 0 3974.2 4276.4;" xml:space="preserve">
<g>
	<path d="M1151.9,1433.2c407.5,0,737.9-320.8,737.9-716.6C1889.8,320.8,1559.4,0,1151.9,0C744.4,0,414,320.8,414,716.6
		C414,1112.4,744.4,1433.2,1151.9,1433.2z"/>
	<path d="M3974.2,3634.8c-2898.8-329.7-1814.3-1251.2-1661.9-1342.2C2203.7,2355.6,0,3634.2,0,3634.2l259.4,165.6
		c517.6,310.7,1113.9,475.7,1722.5,476.6c608.5,0.9,1205.3-162.4,1723.9-471.5l268.1-170.3L3974.2,3634.8z"/>
	<path d="M2506.5,2172.3c0,0,192.6-148.3,194.5-253.8c3.2-116.8-227-461.9-227-461.9c162.1,213.8,264.2,298.8,264.2,298.8
		c150.4,136,466.5-61.4,781.4-256.6c0,0-372.2,256.6-531.7,449.3c-67.8,81.9,1.9,228.6,64.8,328.4c0,0-132.6-194.9-265.2-201.8
		C2667,2068.7,2506.5,2172.3,2506.5,2172.3z"/>
</g>
<polygon points="3974.2,3634.8 3974.2,4282.6 -9.6,4282.6 -9.6,3638.7 "/>
</svg>
