<?xml version="1.0" encoding="utf-8"?>
<!-- Generator: Adobe Illustrator 26.3.1, SVG Export Plug-In . SVG Version: 6.00 Build 0)  -->
<svg version="1.1" id="Layer_1" xmlns="http://www.w3.org/2000/svg" xmlns:xlink="http://www.w3.org/1999/xlink" x="0px" y="0px"
	 viewBox="0 0 150 150" style="enable-background:new 0 0 150 150;" xml:space="preserve">
<style type="text/css">
	.st0{fill:#FFFFFF;}
</style>
<path id="Twitter_Icon" class="st0" d="M140.1,34.6c-4.8,2.1-9.9,3.6-15.3,4.2c5.5-3.3,9.7-8.5,11.7-14.8c-5.2,3.1-10.9,5.3-17,6.5
	c-4.9-5.2-11.8-8.4-19.5-8.4c-14.7,0-26.7,12-26.7,26.7c0,2.1,0.2,4.1,0.7,6.1C51.8,53.8,32.2,43.2,19,27c-2.3,3.9-3.6,8.5-3.6,13.4
	c0,9.3,4.7,17.4,11.9,22.2c-4.4-0.1-8.5-1.3-12.1-3.3c0,0.1,0,0.2,0,0.3c0,12.9,9.2,23.7,21.4,26.2c-2.2,0.6-4.6,0.9-7,0.9
	c-1.7,0-3.4-0.2-5-0.5c3.4,10.6,13.3,18.3,24.9,18.5c-9.1,7.2-20.6,11.4-33.2,11.4c-2.2,0-4.3-0.1-6.4-0.4c11.8,7.6,25.8,12,40.9,12
	c49.1,0,75.9-40.7,75.9-75.9c0-1.2,0-2.3-0.1-3.5C132,44.7,136.5,40,140.1,34.6z"/>
</svg>
