<svg id="moondao-animated-logo-white-version" xmlns="http://www.w3.org/2000/svg" xmlns:xlink="http://www.w3.org/1999/xlink" viewBox="195 250 475 475" shape-rendering="geometricPrecision" text-rendering="geometricPrecision" project-id="9af360b66c3842f3887397fe3bbb5165" export-id="adb32fbd33cb47798a9281ba76ccfa49" cached="false">
<style><![CDATA[
#moondao-animated-logo-white-version-s-rect1_to {animation: moondao-animated-logo-white-version-s-rect1_to__to 900ms linear 1 normal forwards}@keyframes moondao-animated-logo-white-version-s-rect1_to__to { 0% {transform: translate(2364.114524px,607.159362px)} 100% {transform: translate(1786.4434px,607.159362px)}} #moondao-animated-logo-white-version-u-icon_to {animation: moondao-animated-logo-white-version-u-icon_to__to 900ms linear 1 normal forwards}@keyframes moondao-animated-logo-white-version-u-icon_to__to { 0% {transform: translate(1011.814091px,606.199997px)} 100% {transform: translate(1011.814091px,606.199997px)}} #moondao-animated-logo-white-version-u-icon_ts {animation: moondao-animated-logo-white-version-u-icon_ts__ts 900ms linear 1 normal forwards}@keyframes moondao-animated-logo-white-version-u-icon_ts__ts { 0% {transform: scale(0.680535,0.680535);animation-timing-function: cubic-bezier(0.175,0.885,0.32,1.275)} 100% {transform: scale(1,1)}} #moondao-animated-logo-white-version-u-icon {animation: moondao-animated-logo-white-version-u-icon_c_o 900ms linear 1 normal forwards}@keyframes moondao-animated-logo-white-version-u-icon_c_o { 0% {opacity: 0;animation-timing-function: cubic-bezier(0.075,0.82,0.165,1)} 100% {opacity: 1}} #moondao-animated-logo-white-version-u-moon_to {animation: moondao-animated-logo-white-version-u-moon_to__to 900ms linear 1 normal forwards}@keyframes moondao-animated-logo-white-version-u-moon_to__to { 0% {transform: translate(125.1px,618.364021px)} 23.333333% {transform: translate(125.1px,618.364021px);animation-timing-function: cubic-bezier(0.075,0.82,0.165,1)} 100% {transform: translate(272.957149px,532.642352px)}} #moondao-animated-logo-white-version-u-moon {animation: moondao-animated-logo-white-version-u-moon_c_o 900ms linear 1 normal forwards}@keyframes moondao-animated-logo-white-version-u-moon_c_o { 0% {opacity: 0} 23.333333% {opacity: 0;animation-timing-function: cubic-bezier(0.075,0.82,0.165,1)} 100% {opacity: 1}} #moondao-animated-logo-white-version-u-path_to {animation: moondao-animated-logo-white-version-u-path_to__to 900ms linear 1 normal forwards}@keyframes moondao-animated-logo-white-version-u-path_to__to { 0% {transform: translate(222.875487px,858.150006px)} 1.111111% {transform: translate(222.875487px,858.150006px);animation-timing-function: cubic-bezier(0.075,0.82,0.165,1)} 67.777778% {transform: translate(436.15004px,718.599976px)} 100% {transform: translate(436.15004px,718.599976px)}} #moondao-animated-logo-white-version-u-path {animation: moondao-animated-logo-white-version-u-path_c_o 900ms linear 1 normal forwards}@keyframes moondao-animated-logo-white-version-u-path_c_o { 0% {opacity: 0} 1.111111% {opacity: 0;animation-timing-function: cubic-bezier(0.075,0.82,0.165,1)} 67.777778% {opacity: 1} 100% {opacity: 1}} #moondao-animated-logo-white-version-u-star_to {animation: moondao-animated-logo-white-version-u-star_to__to 900ms linear 1 normal forwards}@keyframes moondao-animated-logo-white-version-u-star_to__to { 0% {transform: translate(249.825517px,706.750103px)} 1.111111% {transform: translate(249.825517px,706.750103px);animation-timing-function: cubic-bezier(0.075,0.82,0.165,1)} 66.666667% {transform: translate(461.400024px,567.200073px)} 100% {transform: translate(461.400024px,567.200073px)}} #moondao-animated-logo-white-version-u-star {animation: moondao-animated-logo-white-version-u-star_c_o 900ms linear 1 normal forwards}@keyframes moondao-animated-logo-white-version-u-star_c_o { 0% {opacity: 0} 1.111111% {opacity: 0;animation-timing-function: cubic-bezier(0.075,0.82,0.165,1)} 66.666667% {opacity: 1} 100% {opacity: 1}} #moondao-animated-logo-white-version-s-g4_to {animation: moondao-animated-logo-white-version-s-g4_to__to 900ms linear 1 normal forwards}@keyframes moondao-animated-logo-white-version-s-g4_to__to { 0% {transform: translate(408.850006px,59.199993px)} 88.888889% {transform: translate(408.850006px,59.199993px);animation-timing-function: cubic-bezier(0.42,0,0.58,1)} 100% {transform: translate(423.13572px,59.199993px)}} #moondao-animated-logo-white-version-s-g4 {animation: moondao-animated-logo-white-version-s-g4_c_o 900ms linear 1 normal forwards}@keyframes moondao-animated-logo-white-version-s-g4_c_o { 0% {opacity: 0} 88.888889% {opacity: 0;animation-timing-function: cubic-bezier(0.42,0,0.58,1)} 100% {opacity: 0.142857}}
]]></style>
<defs><path id="moondao-animated-logo-white-version-u-clipping_mask" d="M559.6,750.2v-289.3c-58-42.1-127.8-64.7-199.5-64.7s-141.5,22.7-199.5,64.7v289.3c58,42.1,127.8,64.7,199.5,64.7s141.5-22.6,199.5-64.7v0Z"/></defs><g id="moondao-animated-logo-white-version-s-g1" transform="translate(-599.999999 0.000001)"><g id="moondao-animated-logo-white-version-u-moondao_logo" transform="translate(62.099823-119.342048)"><g id="moondao-animated-logo-white-version-u-clip-group" mask="url(#moondao-animated-logo-white-version-u-clipping-paths)"><mask id="moondao-animated-logo-white-version-u-clipping-paths"><g id="moondao-animated-logo-white-version-s-rect1_to" transform="translate(2364.114524,607.159362)"><rect id="moondao-animated-logo-white-version-s-rect1" width="1220.203567" height="492.320987" rx="0" ry="0" transform="translate(-610.101783,-246.160493)" fill="#fff" stroke-width="0"/></g></mask></g><g id="moondao-animated-logo-white-version-u-icon_to" transform="translate(1011.814091,606.199997)"><g id="moondao-animated-logo-white-version-u-icon_ts" transform="scale(0.680535,0.680535)"><g id="moondao-animated-logo-white-version-u-icon" transform="translate(-404.800026,-606.199997)" opacity="0"><g id="moondao-animated-logo-white-version-s-g2" clip-path="url(#moondao-animated-logo-white-version-u-clipping_mask_00000107560708361877207170000002067515856354354048)"><g id="moondao-animated-logo-white-version-u-moon_to" transform="translate(125.1,618.364021)"><path id="moondao-animated-logo-white-version-u-moon" d="M275.1,605.5c40.9,0,74.1-33.2,74.1-74.1s-33.2-74.1-74.1-74.1-74.1,33.2-74.1,74.1s33.2,74.1,74.1,74.1Z" transform="translate(-275.1,-536.256)" opacity="0" fill="#fff"/></g><g id="moondao-animated-logo-white-version-u-path_to" transform="translate(222.875487,858.150006)"><g id="moondao-animated-logo-white-version-u-path" transform="translate(-436.15004,-718.599976)" opacity="0"><path id="moondao-animated-logo-white-version-u-original_path" d="M559.6,750.1C268.6,716,377.3,620.8,392.8,611.4c-10.9,6.5-232.2,138.7-232.2,138.7l1,72.8c.8.8,397.6,2.8,396.8,2.8l1.2-75.6v0Z" fill="#fff"/></g></g><g id="moondao-animated-logo-white-version-u-star_to" transform="translate(249.825517,706.750103)"><path id="moondao-animated-logo-white-version-u-star" d="M412.2,598.9c0,0,19.5-15.3,19.5-26.2.3-12.1-22.8-47.8-22.8-47.8c16.3,22.1,26.6,30.9,26.6,30.9c15.1,14.1,46.8-6.5,78.4-26.6c0,0-37.4,26.5-53.4,46.4-6.8,8.5.2,23.7,6.3,33.9c0,0-13.3-20.1-26.6-20.8-11.9-.5-28,10.2-28,10.2Z" transform="translate(-461.400024,-567.200073)" opacity="0" fill="#fff"/></g><clipPath id="moondao-animated-logo-white-version-u-clipping_mask_00000107560708361877207170000002067515856354354048"><use id="moondao-animated-logo-white-version-s-use1" width="399" height="418.700012" xlink:href="#moondao-animated-logo-white-version-u-clipping_mask"/></clipPath></g><path id="moondao-animated-logo-white-version-u-moondao-logo-frame" d="M153.8,0C98.6,0,44.8,17.4,0,49.6L0,274c44.8,32.2,98.6,49.6,153.8,49.6s109-17.3,153.8-49.6v-224.4C262.8,17.4,209,0,153.8,0ZM300.4,270.3c-42.9,30.2-94.1,46.3-146.6,46.2-52.5.1-103.8-16-146.8-46.2L7,53.2C50,23,101.3,6.9,153.8,7c52.5-.1,103.7,16,146.6,46.2v217.1Z" transform="matrix(1.336984 0 0 1.336981 154.38025 388.176474)" fill="#fff"/></g></g></g></g><g id="moondao-animated-logo-white-version-u-moondao-text" transform="translate(697.299823 428.299999)" mask="url(#moondao-animated-logo-white-version-u-clippath)"><g id="moondao-animated-logo-white-version-s-g3"><g id="moondao-animated-logo-white-version-s-g4_to" transform="translate(408.850006,59.199993)"><g id="moondao-animated-logo-white-version-s-g4" transform="translate(-508.850006,-59.199993)" opacity="0"><path id="moondao-animated-logo-white-version-u-m2" d="M32.8,0C42.7,0,46,2.2,50.5,12.6L84.9,92.1c.5,1.2,1.2,1.5,2.3,1.5h2c1.2,0,1.8-.3,2.3-1.5L126,12.6C130.5,2.2,133.8,0,143.5,0h17.7c11.6,0,14.6,4.6,14.6,17.2v95c0,2.5-1.3,3.6-3.8,3.6h-16.9c-2.5,0-3.6-1.2-3.6-3.6v-86.4c0-1.2-.3-1.7-1.3-1.7h-1.5c-1.2,0-1.8.3-2.2,1.3L113.1,99.6c-5.5,11.9-10.1,16.2-21.2,16.2h-7.9c-11.1,0-15.7-4.3-21.2-16.2L29.3,25.5c-.3-1-1-1.3-2.2-1.3h-1.5c-1,0-1.3.5-1.3,1.7v86.4c0,2.5-1.2,3.6-3.6,3.6h-16.9c-2.5,0-3.8-1.2-3.8-3.6v-95.1C0,4.6,3,0,14.7,0h18h.1Z" fill="#fff"/><path id="moondao-animated-logo-white-version-u-o12" d="M269.8,26h-38.6c-26.6,0-37.4,10.3-37.4,35.4v21.5c0,25.2,10.8,35.4,37.4,35.4h38.6c26.6,0,37.4-10.3,37.4-35.4v-21.5c0-25.2-10.8-35.4-37.4-35.4Zm13.3,36.8v18.7c0,11.8-2.6,14.5-14.1,14.5h-37.1c-11.5,0-14.1-2.7-14.1-14.5v-18.7c0-11.8,2.6-14.5,14.1-14.5h37.1c11.5,0,14.1,2.7,14.1,14.5Z" fill="#fff"/><path id="moondao-animated-logo-white-version-u-o22" d="M392.7,26h-38.6c-26.6,0-37.4,10.3-37.4,35.4v21.5c0,25.2,10.9,35.4,37.4,35.4h38.6c26.6,0,37.4-10.3,37.4-35.4v-21.5c0-25.2-10.9-35.4-37.4-35.4ZM406,81.6c0,11.8-2.6,14.5-14.1,14.5h-37.1c-11.5,0-14.1-2.7-14.1-14.5v-18.7c0-11.8,2.6-14.5,14.1-14.5h37.1c11.5,0,14.1,2.7,14.1,14.5v18.7Z" fill="#fff"/><path id="moondao-animated-logo-white-version-u-n2" d="M551,31.3v71.6c0,10.9-4.1,15.5-13.7,15.5h-10.7c-8.6,0-11.1-1.2-16.5-8.3L464.3,50.2v63c0,3.2-2,5.2-5.2,5.2h-13.1c-3.3,0-5.4-2-5.4-5.2v-71.7c0-10.9,4.1-15.5,13.7-15.5h11c8.7,0,11.2,1.2,16.5,8.4l45.7,59.9v-63c0-3.2,2-5.2,5.2-5.2h13.1c3.2,0,5.2,2,5.2,5.2Z" fill="#fff"/><path id="moondao-animated-logo-white-version-u-d" d="M655.7,0c35.9,0,50.7,14.4,50.7,46.7v22.5c0,32.3-14.7,46.7-50.7,46.7h-77.5c-3.3,0-5-1.7-5-5v-105.9c0-3.3,1.7-5,5-5h77.5ZM598.6,90.7c0,1.5.7,2.2,2.2,2.2h54.3c19.5,0,26-6.3,26-25.8v-18.2c0-19.5-6.5-25.8-26-25.8h-54.3c-1.5,0-2.2.7-2.2,2.3v65.4-.1Z" fill="#fff"/><path id="moondao-animated-logo-white-version-u-a" d="M793.9,0c8.4,0,13.6,2.6,19,12.6l54.8,99.5c1.2,2.2.7,3.8-2,3.8h-21c-2.2,0-3-.5-3.8-2.2L829.1,92.3h-77.8l-11.4,21.4c-.8,1.7-1.8,2.2-3.8,2.2h-21.5c-2.8,0-3.3-1.7-2.2-3.8l54.3-99.5C772.2,2.7,777.1,0,784.1,0h9.8ZM761.8,73.2h56.9L792.4,24.7c-.5-.8-1-1.2-1.8-1.2h-1c-.8,0-1.3.3-1.8,1.2l-26,48.5Z" fill="#fff"/><path id="moondao-animated-logo-white-version-u-o" d="M971.4,0c33.6,0,46.3,11.9,46.3,43.7v28.5c0,31.8-12.7,43.7-46.3,43.7h-51.1c-33.4,0-46.3-11.9-46.3-43.7v-28.5C874,11.9,886.9,0,920.3,0h51.1ZM899.2,70.3c0,17.4,5,22.5,22,22.5h49.2c17,0,22-5.1,22-22.5v-24.8c0-17.4-5-22.5-22-22.5h-49.2c-17,0-22,5.1-22,22.5v24.8Z" fill="#fff"/></g></g></g><mask id="moondao-animated-logo-white-version-u-clippath"><rect id="moondao-animated-logo-white-version-s-rect2" width="1017.7" height="180" rx="0" ry="0" transform="matrix(1.134794 0 0 1.171405 1091.410073-49.045773)" fill="#fff" stroke-width="0"/></mask></g></g></svg>
