<svg width="341" height="341" viewBox="0 0 341 341" fill="none" xmlns="http://www.w3.org/2000/svg">
<path fill-rule="evenodd" clip-rule="evenodd" d="M332.44 119.06C331.361 115.653 328.965 113.41 325.489 112.571C322.013 111.715 318.846 112.605 316.312 115.122L315.473 115.961C312.819 118.615 311.963 122.108 313.093 125.754C317.579 140.068 319.839 155.014 319.839 170.149C319.839 209.956 304.225 247.519 275.855 275.872C247.554 304.224 210.024 319.839 170.149 319.839C130.274 319.839 92.7963 304.224 64.4438 275.872C36.0741 247.554 20.4597 209.99 20.4597 170.149C20.4597 130.309 36.0741 92.8476 64.4438 64.4437C92.7449 36.0741 130.291 20.4597 170.149 20.4597C203.57 20.4597 236.494 31.9651 262.843 52.8357C266.712 55.9004 272.277 55.575 275.769 52.0994L276.488 51.3804C278.577 49.2916 279.519 46.8604 279.33 43.9669C279.159 41.0392 277.944 38.7279 275.649 36.8788C245.688 13.0976 208.209 0 170.149 0C124.898 0 82.2326 17.7546 49.9936 49.9936C17.7546 82.2155 0 124.881 0 170.149C0 215.417 17.7546 258.083 49.9936 290.322C82.2326 322.561 124.898 340.316 170.149 340.316C215.4 340.316 258.066 322.561 290.305 290.322C322.544 258.083 340.299 215.4 340.299 170.149C340.299 152.754 337.662 135.582 332.44 119.06Z" fill="white"/>
<path fill-rule="evenodd" clip-rule="evenodd" d="M330.078 66.0015L161.606 235.243C159.466 237.384 156.607 238.565 153.542 238.565C150.478 238.565 147.618 237.384 145.478 235.243L78.3294 168.095C74.9394 164.722 74.1518 160.681 76.0351 156.418C76.6344 155.014 77.576 153.627 78.6889 152.549C79.9216 151.333 81.3256 150.374 82.7295 149.758C84.2019 149.107 85.6572 148.782 87.0611 148.782C89.6806 148.782 92.1974 149.912 94.3376 152.069L152.669 210.401L313.179 49.1201C316.809 45.5076 320.952 44.6686 325.506 46.6375C326.996 47.3053 328.434 48.2983 329.65 49.4968C330.9 50.7638 331.893 52.219 332.543 53.6743C334.512 58.1772 333.656 62.4404 330.078 66.0015Z" fill="white"/>
</svg>
