<svg width="29" height="33" viewBox="0 0 29 33" fill="none" xmlns="http://www.w3.org/2000/svg">
<path fill-rule="evenodd" clip-rule="evenodd" d="M21.053 28.3111C24.6172 26.0655 26.983 22.0961 26.983 17.5773C26.983 12.1623 23.5836 7.54048 18.8039 5.72747V4.49476C18.8039 2.01217 16.7917 0 14.3091 0C11.8265 0 9.81435 2.01217 9.81435 4.49476V5.72747C5.03459 7.54048 1.63519 12.1623 1.63519 17.5773C1.63519 22.0961 4.00104 26.0655 7.56525 28.3111L5.26465 30.6083C4.78736 31.089 4.78736 31.8651 5.26465 32.3424C5.74537 32.8231 6.5214 32.8231 6.99869 32.3424L9.88646 29.458C11.2634 29.9696 12.7536 30.2512 14.3091 30.2512C15.8646 30.2512 17.3548 29.9696 18.7318 29.458L21.6195 32.3424C22.0968 32.8231 22.8728 32.8231 23.3536 32.3424C23.8309 31.8651 23.8309 31.089 23.3536 30.6083L21.053 28.3111ZM12.266 4.49476C12.266 3.36849 13.1794 2.45169 14.3091 2.45169C15.4388 2.45169 16.3522 3.36849 16.3522 4.49476V4.90681H12.266V4.49476ZM4.09031 17.5773C4.09031 11.9322 8.66405 7.35849 14.3091 7.35849C19.9542 7.35849 24.5279 11.9357 24.5279 17.5773C24.5279 23.2189 19.9542 27.7995 14.3091 27.7995C8.66405 27.7995 4.09031 23.2223 4.09031 17.5773Z" fill="white"/>
<path fill-rule="evenodd" clip-rule="evenodd" d="M24.2017 5.15062C24.7443 4.74544 25.5134 4.85532 25.9186 5.39442L28.3703 8.66333C28.7755 9.20586 28.6656 9.97502 28.1265 10.3802C27.584 10.7854 26.8148 10.6755 26.4096 10.1364L23.9579 6.86749C23.5528 6.32496 23.6626 5.5558 24.2017 5.15062Z" fill="white"/>
<path fill-rule="evenodd" clip-rule="evenodd" d="M4.41654 5.15062C3.87401 4.74544 3.10486 4.85532 2.69968 5.39442L0.244556 8.66677C-0.160625 9.2093 -0.0507457 9.97845 0.488351 10.3836C1.03088 10.7888 1.80004 10.6789 2.20522 10.1398L4.65691 6.87092C5.06209 6.32839 4.95221 5.55924 4.41311 5.15406L4.41654 5.15062Z" fill="white"/>
<path fill-rule="evenodd" clip-rule="evenodd" d="M14.3091 9.81018C14.9856 9.81018 15.535 10.3596 15.535 11.036V11.6781H16.7608C17.4373 11.6781 17.9867 12.2275 17.9867 12.904C17.9867 13.5804 17.4373 14.1298 16.7608 14.1298H14.3091C13.6327 14.1298 13.0833 14.6792 13.0833 15.3557V16.348H16.7642C17.4407 16.348 17.9901 16.8974 17.9901 17.5739V19.792C17.9901 21.3922 16.9668 22.7554 15.5384 23.2601V24.1117C15.5384 24.7881 14.989 25.3375 14.3126 25.3375C13.6361 25.3375 13.0867 24.7881 13.0867 24.1117V23.4696H11.8609C11.1844 23.4696 10.635 22.9202 10.635 22.2437C10.635 21.5673 11.1844 21.0179 11.8609 21.0179H14.3126C14.989 21.0179 15.5384 20.4685 15.5384 19.792V18.7997H11.8574C11.181 18.7997 10.6316 18.2503 10.6316 17.5739V15.3557C10.6316 13.7555 11.6548 12.3923 13.0833 11.8876V11.036C13.0833 10.3596 13.6327 9.81018 14.3091 9.81018Z" fill="white"/>
</svg>
