<svg width="203" height="247" viewBox="0 0 203 247" fill="none" xmlns="http://www.w3.org/2000/svg">
<path d="M177.47 45.269C170.661 45.269 165.121 39.7296 165.121 32.9226C165.121 26.1156 170.661 20.5761 177.47 20.5761C184.279 20.5761 189.819 26.1156 189.819 32.9226C189.819 39.7296 184.279 45.269 177.47 45.269ZM177.47 28.8071C175.202 28.8071 173.354 30.6549 173.354 32.9226C173.354 35.1902 175.202 37.0381 177.47 37.0381C179.738 37.0381 181.586 35.1902 181.586 32.9226C181.586 30.6549 179.738 28.8071 177.47 28.8071Z" fill="white"/>
<path d="M152.771 82.3083C145.962 82.3083 140.422 76.7689 140.422 69.9619C140.422 63.1549 145.962 57.6154 152.771 57.6154C159.58 57.6154 165.12 63.1549 165.12 69.9619C165.12 76.7689 159.58 82.3083 152.771 82.3083ZM152.771 65.8464C150.503 65.8464 148.655 67.6942 148.655 69.9619C148.655 72.2295 150.503 74.0774 152.771 74.0774C155.039 74.0774 156.888 72.2295 156.888 69.9619C156.888 67.6942 155.039 65.8464 152.771 65.8464Z" fill="white"/>
<path d="M189.82 135.81C183.011 135.81 177.47 130.27 177.47 123.463C177.47 116.656 183.011 111.117 189.82 111.117C196.628 111.117 202.169 116.656 202.169 123.463C202.169 130.27 196.628 135.81 189.82 135.81ZM189.82 119.348C187.551 119.348 185.703 121.196 185.703 123.463C185.703 125.731 187.551 127.579 189.82 127.579C192.088 127.579 193.936 125.731 193.936 123.463C193.936 121.196 192.088 119.348 189.82 119.348Z" fill="white"/>
<path d="M12.8113 135.81C6.00268 135.81 0.461914 130.27 0.461914 123.463C0.461914 116.656 6.00268 111.117 12.8113 111.117C19.62 111.117 25.1607 116.656 25.1607 123.463C25.1607 130.27 19.62 135.81 12.8113 135.81ZM12.8113 119.348C10.5431 119.348 8.69485 121.196 8.69485 123.463C8.69485 125.731 10.5431 127.579 12.8113 127.579C15.0795 127.579 16.9278 125.731 16.9278 123.463C16.9278 121.196 15.0795 119.348 12.8113 119.348Z" fill="white"/>
<path d="M25.1609 45.269C18.3523 45.269 12.8115 39.7296 12.8115 32.9226C12.8115 26.1156 18.3523 20.5761 25.1609 20.5761C31.9696 20.5761 37.5103 26.1156 37.5103 32.9226C37.5103 39.7296 31.9696 45.269 25.1609 45.269ZM25.1609 28.8071C22.8928 28.8071 21.0445 30.6549 21.0445 32.9226C21.0445 35.1902 22.8928 37.0381 25.1609 37.0381C27.4291 37.0381 29.2774 35.1902 29.2774 32.9226C29.2774 30.6549 27.4291 28.8071 25.1609 28.8071Z" fill="white"/>
<path d="M82.96 36.2149C76.1514 36.2149 70.6106 30.6754 70.6106 23.8684C70.6106 17.0614 76.1514 11.522 82.96 11.522C89.7686 11.522 95.3094 17.0614 95.3094 23.8684C95.3094 30.6754 89.7686 36.2149 82.96 36.2149ZM82.96 19.7529C80.6918 19.7529 78.8435 21.6008 78.8435 23.8684C78.8435 26.1361 80.6918 27.9839 82.96 27.9839C85.2282 27.9839 87.0765 26.1361 87.0765 23.8684C87.0765 21.6008 85.2282 19.7529 82.96 19.7529Z" fill="white"/>
<path d="M171.304 214.004C164.495 214.004 158.954 208.465 158.954 201.657C158.954 194.85 164.495 189.311 171.304 189.311C178.112 189.311 183.653 194.85 183.653 201.657C183.653 208.465 178.112 214.004 171.304 214.004ZM171.304 197.542C169.035 197.542 167.187 199.39 167.187 201.657C167.187 203.925 169.035 205.773 171.304 205.773C173.572 205.773 175.42 203.925 175.42 201.657C175.42 199.39 173.572 197.542 171.304 197.542Z" fill="white"/>
<path d="M132.843 246.928C126.035 246.928 120.494 241.388 120.494 234.581C120.494 227.774 126.035 222.235 132.843 222.235C139.652 222.235 145.193 227.774 145.193 234.581C145.193 241.388 139.652 246.928 132.843 246.928ZM132.843 230.466C130.575 230.466 128.727 232.314 128.727 234.581C128.727 236.849 130.575 238.697 132.843 238.697C135.111 238.697 136.96 236.849 136.96 234.581C136.96 232.314 135.111 230.466 132.843 230.466Z" fill="white"/>
<path d="M165.018 102.886H146.185C143.913 102.886 142.069 101.042 142.069 98.7703C142.069 96.4985 143.913 94.6548 146.185 94.6548H165.018C169.616 94.6548 173.354 90.9179 173.354 86.3209V41.1535C173.354 38.8817 175.198 37.038 177.47 37.038C179.743 37.038 181.587 38.8817 181.587 41.1535V86.3209C181.587 95.4532 174.153 102.886 165.018 102.886Z" fill="white"/>
<path d="M152.771 65.8464C150.499 65.8464 148.655 64.0027 148.655 61.731V32.9226C148.655 30.6508 150.499 28.8071 152.771 28.8071C155.044 28.8071 156.888 30.6508 156.888 32.9226V61.731C156.888 64.0027 155.044 65.8464 152.771 65.8464Z" fill="white"/>
<path d="M111.607 61.731C109.335 61.731 107.49 59.8872 107.49 57.6155V24.6916C107.49 22.4198 109.335 20.5761 111.607 20.5761C113.879 20.5761 115.723 22.4198 115.723 24.6916V57.6155C115.723 59.8872 113.879 61.731 111.607 61.731Z" fill="white"/>
<path d="M58.0925 74.6741C55.8203 74.6741 53.9761 72.8304 53.9761 70.5587V4.71088C53.9761 2.43914 55.8203 0.595398 58.0925 0.595398C60.3648 0.595398 62.209 2.43914 62.209 4.71088V70.5587C62.209 72.8304 60.3648 74.6741 58.0925 74.6741Z" fill="white"/>
<path d="M82.9605 79.016C80.6882 79.016 78.844 77.1722 78.844 74.9005V32.0994C78.844 29.8277 80.6882 27.9839 82.9605 27.9839C85.2328 27.9839 87.0769 29.8277 87.0769 32.0994V74.9005C87.0769 77.1722 85.2328 79.016 82.9605 79.016Z" fill="white"/>
<path d="M132.189 69.9619C129.917 69.9619 128.073 68.1182 128.073 65.8464V45.269C128.073 42.9972 129.917 41.1535 132.189 41.1535C134.461 41.1535 136.305 42.9972 136.305 45.269V65.8464C136.305 68.1182 134.461 69.9619 132.189 69.9619Z" fill="white"/>
<path d="M181.587 127.579H152.771C150.499 127.579 148.655 125.735 148.655 123.463C148.655 121.191 150.499 119.348 152.771 119.348H181.587C183.859 119.348 185.703 121.191 185.703 123.463C185.703 125.735 183.859 127.579 181.587 127.579Z" fill="white"/>
<path d="M49.8595 127.579H21.0442C18.7719 127.579 16.9277 125.735 16.9277 123.463C16.9277 121.191 18.7719 119.348 21.0442 119.348H49.8595C52.1318 119.348 53.976 121.191 53.976 123.463C53.976 125.735 52.1318 127.579 49.8595 127.579Z" fill="white"/>
<path d="M57.2694 102.886H37.6132C28.4788 102.886 21.0444 95.4532 21.0444 86.3209V41.1535C21.0444 38.8817 22.8886 37.038 25.1609 37.038C27.4332 37.038 29.2774 38.8817 29.2774 41.1535V86.3209C29.2774 90.9179 33.0151 94.6548 37.6132 94.6548H57.2694C59.5417 94.6548 61.3858 96.4985 61.3858 98.7703C61.3858 101.042 59.5417 102.886 57.2694 102.886Z" fill="white"/>
<path d="M172.119 195.896C169.846 195.896 168.002 194.052 168.002 191.78V154.844C168.002 150.247 164.265 146.51 159.666 146.51H151.536C149.264 146.51 147.42 144.666 147.42 142.395C147.42 140.123 149.264 138.279 151.536 138.279H159.666C168.801 138.279 176.235 145.712 176.235 154.844V191.78C176.235 194.052 174.391 195.896 172.119 195.896Z" fill="white"/>
<path d="M132.189 227.997C129.917 227.997 128.073 226.153 128.073 223.881V162.56C128.073 160.289 129.917 158.445 132.189 158.445C134.461 158.445 136.305 160.289 136.305 162.56V223.881C136.305 226.153 134.461 227.997 132.189 227.997Z" fill="white"/>
<path d="M111.607 222.235C109.335 222.235 107.49 220.391 107.49 218.119V185.196C107.49 182.924 109.335 181.08 111.607 181.08C113.879 181.08 115.723 182.924 115.723 185.196V218.119C115.723 220.391 113.879 222.235 111.607 222.235Z" fill="white"/>
<path d="M99.2576 222.235C96.9853 222.235 95.1411 220.391 95.1411 218.119V185.196C95.1411 182.924 96.9853 181.08 99.2576 181.08C101.53 181.08 103.374 182.924 103.374 185.196V218.119C103.374 220.391 101.53 222.235 99.2576 222.235Z" fill="white"/>
<path d="M78.6748 201.658C76.4025 201.658 74.5583 199.814 74.5583 197.542V176.965C74.5583 174.693 76.4025 172.849 78.6748 172.849C80.9471 172.849 82.7913 174.693 82.7913 176.965V197.542C82.7913 199.814 80.9471 201.658 78.6748 201.658Z" fill="white"/>
<path d="M31.7473 193.427C29.475 193.427 27.6309 191.583 27.6309 189.311V152.375C27.6309 143.242 35.0652 135.81 44.1996 135.81H52.3297C54.602 135.81 56.4461 137.653 56.4461 139.925C56.4461 142.197 54.602 144.041 52.3297 144.041H44.1996C39.6016 144.041 35.8638 147.778 35.8638 152.375V189.311C35.8638 191.583 34.0196 193.427 31.7473 193.427Z" fill="white"/>
<path d="M31.7469 209.888C24.9382 209.888 19.3975 204.349 19.3975 197.542C19.3975 190.735 24.9382 185.196 31.7469 185.196C38.5555 185.196 44.0963 190.735 44.0963 197.542C44.0963 204.349 38.5555 209.888 31.7469 209.888ZM31.7469 193.427C29.4787 193.427 27.6304 195.274 27.6304 197.542C27.6304 199.81 29.4787 201.658 31.7469 201.658C34.015 201.658 35.8633 199.81 35.8633 197.542C35.8633 195.274 34.015 193.427 31.7469 193.427Z" fill="white"/>
<path d="M101.727 175.318C72.2201 175.318 48.2129 151.317 48.2129 121.817C48.2129 92.3173 72.2201 68.3158 101.727 68.3158C131.234 68.3158 155.241 92.3173 155.241 121.817C155.241 151.317 131.234 175.318 101.727 175.318ZM101.727 76.5467C76.7606 76.5467 56.4458 96.8567 56.4458 121.817C56.4458 146.778 76.7606 167.087 101.727 167.087C126.693 167.087 147.008 146.778 147.008 121.817C147.008 96.8567 126.693 76.5467 101.727 76.5467Z" fill="white"/>
<path d="M136.182 112.368C134.354 112.368 132.617 111.281 131.88 109.487C126.833 97.2353 115.007 89.3212 101.756 89.3212C89.3859 89.3212 78.2385 96.1858 72.6607 107.232C71.504 109.524 68.7048 110.446 66.4119 109.29C64.119 108.133 63.1969 105.335 64.3537 103.042C71.5246 88.8438 85.854 80.0202 101.756 80.0202C118.794 80.0202 133.996 90.1978 140.484 105.944C141.463 108.318 140.331 111.039 137.956 112.014C137.376 112.253 136.775 112.368 136.186 112.368H136.182Z" fill="white"/>
<path d="M101.752 163.742C99.183 163.742 97.1001 161.659 97.1001 159.091C97.1001 156.523 99.183 154.441 101.752 154.441C114.315 154.441 125.891 147.09 131.242 135.715C132.337 133.39 135.107 132.39 137.433 133.484C139.759 134.579 140.759 137.349 139.664 139.674C132.786 154.297 117.905 163.742 101.752 163.742Z" fill="white"/>
<path d="M109.392 119.669H105.708V112.973H114.562C115.575 112.973 117.053 112.561 117.715 111.899C118.378 111.236 118.79 110.318 118.79 109.302C118.79 107.277 117.147 105.631 115.118 105.631H105.708V99.3629C105.708 97.4163 104.131 95.8401 102.184 95.8401C100.237 95.8401 98.6602 97.4163 98.6602 99.3629V105.631H93.9427C86.8377 105.631 82.96 109.862 82.96 115.496C82.96 121.13 87.1299 125.422 93.8274 125.422H98.6602V132.53H87.1588C86.1296 132.53 85.1952 132.949 84.5201 133.62C83.845 134.295 83.4292 135.229 83.4292 136.258C83.4292 138.32 85.1005 139.987 87.1588 139.987H98.6602V144.263C98.6602 146.21 100.237 147.786 102.184 147.786C104.131 147.786 105.708 146.21 105.708 144.263V139.987H109.392C116.913 139.987 120.494 135.579 120.494 129.706C120.494 122.776 116.559 119.665 109.392 119.665V119.669ZM93.9427 119.669C91.9462 119.669 90.596 118.434 90.596 116.261C90.596 114.208 91.8886 112.973 93.9427 112.973H98.6602V119.669H93.9427ZM109.392 132.53H105.708V125.422H109.392C112.035 125.422 113.504 126.657 113.504 129.064C113.504 131.237 112.035 132.53 109.392 132.53Z" fill="white"/>
<path d="M65.9134 88.8931H54.4902C45.3557 88.8931 37.9214 81.4606 37.9214 72.3283V51.8538C37.9214 49.582 39.7656 47.7383 42.0379 47.7383C44.3101 47.7383 46.1543 49.582 46.1543 51.8538V72.3283C46.1543 76.9253 49.8921 80.6622 54.4902 80.6622H65.9134C68.1857 80.6622 70.0299 82.5059 70.0299 84.7777C70.0299 87.0494 68.1857 88.8931 65.9134 88.8931Z" fill="white"/>
</svg>
