<svg width="21" height="25" viewBox="0 0 21 25" fill="none" xmlns="http://www.w3.org/2000/svg">
<g clip-path="url(#clip0_639_2)">
<path d="M17.9249 6.81798C16.7214 5.59762 15.2772 4.70992 13.7009 4.20035C13.2398 4.05135 12.8528 3.72815 12.6109 3.3032L10.8459 0.202568C10.7745 0.0774259 10.6427 0 10.4998 0C10.3569 0 10.2255 0.0774259 10.1541 0.202568L8.38908 3.3032C8.14721 3.72815 7.76022 4.05135 7.29912 4.20035C5.72275 4.70992 4.27864 5.59762 3.07507 6.81798C1.09218 8.8297 0 11.5045 0 14.3494C0 17.1944 1.09218 19.8687 3.07507 21.8805C5.05839 23.8922 7.69543 25 10.4998 25C13.3041 25 15.9416 23.8922 17.9249 21.8805C19.9078 19.8687 21 17.1939 21 14.3494C21 11.5049 19.9078 8.8297 17.9249 6.81798ZM17.36 21.3074C15.5409 23.1526 13.1266 24.1749 10.5566 24.1897C8.09351 24.2041 5.70722 23.266 3.90319 21.5649C1.85285 19.632 0.742471 16.9684 0.801052 14.137C0.853864 11.572 1.90122 9.1214 3.70614 7.3244C4.7717 6.26339 6.03652 5.48148 7.41495 5.01468C7.56806 4.96291 7.7225 4.91474 7.87827 4.87063C8.29589 4.75269 8.6487 4.46819 8.86528 4.08737L9.02726 3.80242L10.4998 1.21541L11.9727 3.80242L12.1352 4.08782C12.3517 4.46864 12.7046 4.75269 13.1217 4.87063C13.2775 4.91474 13.4319 4.96291 13.585 5.01468C15.011 5.49814 16.3162 6.31831 17.4044 7.43603C19.2119 9.2929 20.2203 11.8146 20.2012 14.4242C20.1821 17.0247 19.1751 19.4663 17.3604 21.3074H17.36Z" fill="#6869F7"/>
<path d="M10.4998 6.32776C6.13951 6.32776 2.5918 9.92626 2.5918 14.3494C2.5918 18.7726 6.13951 22.3711 10.4998 22.3711C14.8601 22.3711 18.4087 18.7726 18.4087 14.3494C18.4087 9.92626 14.8605 6.32776 10.4998 6.32776ZM10.4998 21.5608C6.57975 21.5608 3.39063 18.3256 3.39063 14.3494C3.39063 10.3733 6.57975 7.13803 10.4998 7.13803C14.4199 7.13803 17.6099 10.3728 17.6099 14.3494C17.6099 18.3261 14.4203 21.5608 10.4998 21.5608Z" fill="#6869F7"/>
<path d="M13.7106 14.7546H7.2898C7.06923 14.7546 6.89038 14.5732 6.89038 14.3495C6.89038 14.1257 7.06923 13.9443 7.2898 13.9443H13.7106C13.9312 13.9443 14.1101 14.1257 14.1101 14.3495C14.1101 14.5732 13.9312 14.7546 13.7106 14.7546Z" fill="#6869F7"/>
</g>
<defs>
<clipPath id="clip0_639_2">
<rect width="21" height="25" fill="white"/>
</clipPath>
</defs>
</svg>
