<svg width="321" height="322" viewBox="0 0 321 322" fill="none" xmlns="http://www.w3.org/2000/svg">
<path d="M160.508 0H160.492C72.0013 0 0 72.0013 0 160.508C0 249.014 72.0013 321.016 160.492 321.016C248.983 321.016 321 248.999 321 160.508C320.906 72.095 248.905 0.109306 160.508 0ZM200.92 54.8715C206.01 47.8603 203.231 37.6324 202.294 34.7436C200.951 30.1684 201.903 25.2028 204.761 21.4552C249.858 35.9148 284.929 70.9863 299.436 115.958C292.284 115.068 285.116 117.441 279.62 119.268C278.652 119.596 277.512 119.971 276.544 120.252C271.25 115.396 264.442 112.601 257.275 112.351C251.825 112.007 246.485 114.318 242.987 118.487C239.427 122.672 238.037 128.372 239.286 133.79C239.864 136.008 240.676 138.178 241.706 140.239C241.909 140.63 242.081 141.02 242.253 141.426C240.145 141.395 238.068 140.786 236.257 139.677C232.478 136.663 227.481 135.664 222.828 136.976L222.625 137.054C217.003 139.224 212.897 144.268 211.928 150.093C209.914 159.43 215.098 164.958 219.283 169.408C219.892 170.064 220.517 170.736 221.251 171.548C225.654 175.904 231.104 179.121 237.038 180.87C236.71 181.416 236.382 181.963 236.069 182.525L235.976 182.666C234.929 184.446 233.836 186.288 232.743 187.912C231.369 189.927 229.823 191.91 228.199 194.002C223.733 199.14 220.173 204.917 217.581 211.21L217.503 211.382C215.738 216.925 214.739 222.687 214.521 228.465C214.333 232.072 213.833 235.695 213.068 239.239C212.022 242.362 210.273 245.282 207.978 247.765C203.481 252.934 198.343 257.525 192.628 261.428C189.63 263.599 185.586 265.707 183.415 263.443C179.34 258.758 176.638 253.027 175.608 246.859C175.061 243.768 174.78 240.598 174.764 237.475C174.827 232.337 174.171 227.2 172.734 222.109C172.094 220.251 171.298 218.44 170.361 216.722L170.236 216.535C169.362 215.239 168.862 213.724 168.768 212.163C169.643 202.856 167.254 195.579 161.663 190.52C152.201 181.963 137.194 183.962 133.931 184.524C128.747 184.821 124.234 182.712 118.534 180.027L117.004 179.308C108.213 175.217 105.012 167.987 106.245 155.23C107.947 141.91 117.394 130.902 130.246 127.216C142.129 124.187 153.871 127.216 167.987 131.542C171.454 132.604 178.699 133.337 192.206 134.009L192.956 134.04C200.92 134.462 207.103 132.697 211.335 128.856C214.286 126.295 216.129 122.735 216.504 118.894C217.394 111.617 215.083 104.325 210.133 98.8281C201.373 89.5215 186.32 88.6002 175.733 88.7251C173.016 88.7563 170.189 88.9593 167.457 89.1623C162.179 89.5527 156.76 89.9587 152.357 89.0218C152.966 88.5533 153.856 87.9443 154.98 87.1948C157.307 85.8363 159.43 84.1499 161.351 82.1043C166.488 76.1705 166.988 67.348 167.16 64.4592V64.3031C167.441 62.195 177.138 59.6029 188.131 60.493C188.396 60.5242 188.662 60.5242 188.787 60.5242C193.534 60.7896 198.062 58.6972 200.92 54.8715ZM72.1262 44.4875C72.4698 46.7361 72.7196 49.0002 72.8445 50.0933C73.0475 51.889 73.2037 53.3412 73.3911 54.3875L73.4223 54.5592C74.328 58.1038 74.3436 61.8671 73.4847 65.4274C72.2668 68.7846 69.378 71.3142 63.8658 73.8751C63.007 74.2811 62.1482 74.6715 61.305 75.0462L60.8365 75.2649C53.7941 78.4503 46.5018 81.7608 40.3495 88.9437C36.6955 93.2223 31.8392 97.0011 28.5288 98.344C38.5381 77.1855 53.513 58.6972 72.1262 44.4875ZM56.9796 219.205C55.9334 221.891 55.0589 224.655 54.4031 227.497L54.3094 227.903C52.9352 232.853 52.5761 237.943 53.2788 243.143C54.2313 248.468 53.4974 252.169 52.3263 253.558C51.3894 254.277 50.2495 254.636 49.0783 254.589C22.3608 223.062 10.3372 181.776 15.8806 140.88C21.3146 141.442 31.4645 143.269 31.9954 149.124C31.402 156.417 31.4957 163.803 32.2921 171.079C33.6037 182.369 41.8173 189.333 48.4069 194.939C54.2157 199.873 58.8065 203.777 59.275 209.258C59.1969 212.678 58.4474 215.988 56.9796 219.205ZM165.348 306.337C163.615 306.415 162.054 306.447 160.43 306.447C143.503 306.447 126.935 303.527 111.102 297.796C123.313 293.174 145.002 289.098 165.348 306.337ZM184.102 304.526C167.394 285.179 148.812 279.495 132.775 279.495C113.584 279.495 98.0161 287.63 93.6439 290.16C81.2923 283.774 69.9557 275.685 59.884 266.097C60.9458 265.395 61.9452 264.583 62.8196 263.661C69.581 256.51 68.4411 245.251 67.6291 240.629C67.3012 237.459 67.5978 234.305 68.4879 231.26L68.6284 230.604C69.1437 228.465 69.8152 226.357 70.5803 224.405C72.7977 219.408 73.9064 213.865 73.8127 208.274C72.9382 196.657 64.5685 189.552 57.8384 183.837C52.014 178.887 47.4231 174.983 46.7829 169.44C46.0646 162.928 46.0021 156.339 46.5643 149.811C46.5643 149.53 46.5955 149.265 46.5643 148.984C46.1739 136.835 35.7742 128.559 18.582 126.498C19.6751 121.938 20.9867 117.394 22.517 112.944C23.5632 113.225 24.6407 113.366 25.7181 113.413C37.2577 113.834 48.3444 101.998 51.405 98.4221C55.4493 93.6907 60.7272 91.3016 66.8327 88.5377C67.8789 88.0536 68.9407 87.5696 70.0026 87.0855C75.7958 84.3841 83.8844 79.6995 87.2885 70.0182C88.9906 64.0844 89.1311 57.7759 87.7413 51.9202C87.6008 51.1551 87.4759 50.0465 87.3354 48.7816V48.5786C87.023 44.2064 86.2579 39.8654 85.0243 35.6649C100.702 26.1241 117.8 19.7375 135.883 16.6457C135.914 17.2703 135.914 17.8949 135.898 18.5351V19.4252C135.914 23.8131 135.727 26.1085 134.54 27.1235C132.76 28.3258 130.808 29.2627 128.622 29.9342C127.326 30.4026 125.858 30.9491 124.577 31.5269C117.847 34.1502 111.695 37.9135 106.23 42.8167C100.218 48.766 100.764 53.9659 102.295 57.2763C103.965 60.9302 108.306 62.5385 111.96 60.8677C114.818 59.5404 116.473 56.5267 116.161 53.4818C116.223 53.4037 116.301 53.3256 116.364 53.2632C120.502 49.7029 125.186 46.8922 130.402 44.8779C131.37 44.4406 132.401 44.0659 133.494 43.6599L133.556 43.6286C137.132 42.5043 140.489 40.8179 143.597 38.5381C150.545 32.9479 150.499 24.75 150.467 19.3627V18.6757C150.499 17.4421 150.467 16.1929 150.374 14.9593C153.965 14.6938 157.291 14.5689 160.477 14.5689C170.423 14.5845 180.355 15.5995 190.098 17.6295C186.991 24.1097 186.288 31.5582 188.193 38.4913C188.24 38.6943 188.303 38.8972 188.365 39.1002C189.255 41.7548 189.458 44.7685 189.24 45.9397C189.177 45.9553 189.099 45.9553 189.021 45.9553C183.118 45.5025 154.98 44.3469 152.7 62.5073L152.435 64.8496H152.513C152.076 69.8308 150.936 71.8139 150.389 72.501C149.421 73.4067 148.344 74.203 147.11 74.937C142.925 77.654 135.914 82.2136 136.851 91.6451C137.226 95.4083 139.256 100.358 146.782 102.638C153.918 104.777 161.679 104.2 168.534 103.684C171.157 103.497 173.625 103.31 175.873 103.294C188.006 103.138 195.923 105.012 199.452 108.744C201.529 111.164 202.45 114.349 201.997 117.457C201.81 118.128 199.967 119.815 193.69 119.487L192.909 119.456C176.716 118.644 172.984 117.832 172.235 117.597C159.384 113.694 143.394 108.806 126.576 113.116C107.729 118.347 94.0499 134.274 91.7388 153.746C89.865 172.969 96.1111 185.648 110.836 192.519L112.32 193.206C119.159 196.423 126.217 199.764 135.414 199.015C135.695 198.999 135.976 198.952 136.226 198.905C139.006 198.359 147.844 197.656 151.888 201.326C153.918 203.184 154.683 206.323 154.231 211.023C154.028 215.473 155.167 219.798 157.432 223.484C157.994 224.483 158.478 225.545 158.868 226.622C159.805 230.245 160.258 233.993 160.196 237.787C160.211 241.8 160.586 245.829 161.304 249.733C162.85 258.555 166.816 266.737 172.797 273.436C176.076 276.965 180.714 278.98 185.617 278.98H185.726C191.395 278.714 196.751 276.716 201.201 273.202C207.868 268.611 213.927 263.162 219.174 257.056C222.812 253.027 225.56 248.14 227.153 242.94L227.184 242.768C228.168 238.427 228.793 233.961 229.027 229.464C229.183 224.983 229.917 220.548 231.229 216.254C233.29 211.476 236.069 207.072 239.505 203.168L239.614 203.028C241.347 200.81 243.127 198.531 244.783 196.095C246.126 194.112 247.328 192.082 248.515 190.052C249.092 189.083 249.655 188.115 250.232 187.178C251.934 184.399 254.511 180.214 252.856 175.248C251.684 172.079 249.186 169.658 246.094 168.659C244.876 168.175 243.643 167.738 242.409 167.285C238.099 165.739 234.367 164.396 232.009 161.741C231.291 160.945 230.573 160.18 229.886 159.43C225.92 155.199 225.826 154.637 226.154 153.153L226.185 152.966C226.279 152.263 226.607 151.607 227.106 151.123C227.325 151.248 227.622 151.435 228.012 151.701C231.916 154.355 240.77 157.666 247.921 155.277C251.7 154.246 254.854 151.638 256.619 148.016C258.883 142.785 256.572 137.757 254.854 134.009C254.277 132.853 253.793 131.62 253.465 130.496C253.246 129.59 253.496 128.622 254.12 127.872C254.683 127.185 255.541 126.81 256.447 126.888C260.132 127.091 265.082 128.637 267.206 131.573C271.391 137.351 278.199 135.086 284.226 133.088C288.942 131.526 296.047 129.153 299.857 131.058C302.106 132.541 303.683 134.915 304.183 137.569L304.245 137.819C304.401 138.319 304.604 138.787 304.87 139.24C316.44 217.893 262.428 291.69 184.087 304.526H184.102Z" fill="white"/>
<path d="M276.2 227.902C274.014 231.572 268.159 240.238 260.851 241.769C260.351 241.878 259.851 241.925 259.352 241.925C255.916 241.925 252.918 239.489 252.216 236.147C251.825 234.242 252.184 232.29 253.246 230.666C254.23 229.167 255.682 228.105 257.384 227.621C260.039 225.857 262.178 223.437 263.615 220.595L263.771 220.313C265.426 217.924 266.488 215.161 266.847 212.287C265.676 208.899 267.159 205.136 270.392 203.465C271.453 202.903 272.609 202.637 273.733 202.637C276.372 202.637 278.917 204.089 280.213 206.588C283.852 213.646 278.621 223.843 276.2 227.902Z" fill="white"/>
</svg>
