<svg width="473" height="462" viewBox="0 0 473 462" fill="none" xmlns="http://www.w3.org/2000/svg">
<path d="M255.679 462C250.05 462 245.209 457.756 244.591 452.03C243.928 445.894 248.359 440.384 254.495 439.722C295.714 435.254 334.34 418.761 366.198 392.015C397.705 365.567 420.552 330.877 432.266 291.703C434.031 285.791 440.257 282.433 446.169 284.205C452.082 285.97 455.441 292.195 453.668 298.107C440.696 341.472 415.422 379.864 380.563 409.126C345.302 438.724 302.542 456.981 256.901 461.926C256.491 461.97 256.089 461.993 255.687 461.993L255.679 462Z" fill="white"/>
<path d="M45.6864 361.286C42.0002 361.286 38.3885 359.462 36.2587 356.126C12.5405 318.97 0 275.925 0 231.644C0 169.768 24.098 111.6 67.8556 67.8477C111.613 24.0952 169.795 0 231.671 0C274.207 0 315.806 11.6306 351.967 33.6334C357.24 36.8427 358.908 43.7153 355.698 48.9796C352.489 54.2513 345.615 55.9192 340.35 52.71C307.696 32.8367 270.112 22.3305 231.671 22.3305C175.753 22.3305 123.186 44.1025 83.6503 83.6331C44.1151 123.164 22.3405 175.732 22.3405 231.637C22.3405 271.651 33.6672 310.534 55.0917 344.101C58.413 349.298 56.8864 356.208 51.6885 359.521C49.8268 360.713 47.7491 361.278 45.6864 361.278V361.286Z" fill="white"/>
<path d="M447.178 268.35C461.083 268.35 472.356 257.078 472.356 243.175C472.356 229.271 461.083 218 447.178 218C433.272 218 422 229.271 422 243.175C422 257.078 433.272 268.35 447.178 268.35Z" fill="white"/>
</svg>
