<svg width="526" height="664" viewBox="0 0 526 664" fill="none" xmlns="http://www.w3.org/2000/svg">
<path d="M112.154 519.411C108.079 515.336 107.647 508.761 111.344 504.17C115.305 499.25 122.5 498.469 127.42 502.43C160.485 529.028 200.377 545.047 242.79 548.746C284.735 552.408 326.377 543.836 363.206 523.963C368.762 520.962 375.698 523.037 378.695 528.599C381.697 534.155 379.622 541.091 374.061 544.087C333.287 566.084 287.21 575.577 240.803 571.527C193.862 567.428 149.702 549.695 113.091 520.241C112.763 519.977 112.455 519.702 112.164 519.411L112.154 519.411Z" fill="#1B1C4B"/>
<path d="M33.065 294.541C30.3972 291.873 29.1036 287.938 29.9764 283.983C39.7014 239.926 61.7787 199.697 93.8266 167.649C138.609 122.867 198.147 98.2097 261.482 98.2134C324.816 98.2171 384.363 122.887 429.145 167.669C459.93 198.454 481.618 236.977 491.866 279.073C493.359 285.212 489.592 291.393 483.459 292.88C477.321 294.372 471.139 290.605 469.652 284.472C460.401 246.456 440.804 211.651 412.983 183.83C372.513 143.36 318.711 121.072 261.488 121.069C204.265 121.066 150.461 143.352 110.001 183.812C81.0406 212.773 61.0972 249.111 52.3097 288.91C50.9519 295.075 44.8462 298.971 38.6862 297.607C36.4766 297.122 34.5633 296.028 33.0704 294.535L33.065 294.541Z" fill="#1B1C4B"/>
<path d="M398.116 504.542C421.643 528.069 459.785 528.071 483.309 504.547C506.833 481.023 506.831 442.881 483.304 419.354C459.777 395.827 421.635 395.825 398.111 419.349C374.587 442.873 374.589 481.015 398.116 504.542Z" fill="#1B1C4B"/>
</svg>
