<svg width="826" height="840" viewBox="0 0 826 840" fill="none" xmlns="http://www.w3.org/2000/svg">
<path d="M464.661 839.62C454.43 839.62 445.633 831.907 444.51 821.5C443.305 810.35 451.358 800.336 462.509 799.132C537.418 791.013 607.616 761.039 665.513 712.433C722.774 664.367 764.295 601.321 785.583 530.13C788.79 519.385 800.104 513.282 810.85 516.503C821.596 519.71 827.699 531.023 824.478 541.767C800.903 620.577 754.97 690.348 691.619 743.529C627.538 797.319 549.828 830.499 466.881 839.484C466.136 839.566 465.406 839.606 464.675 839.606L464.661 839.62Z" fill="white"/>
<path d="M83.0285 656.586C76.3294 656.586 69.7656 653.271 65.895 647.208C22.7905 579.684 0 501.455 0 420.98C0 308.53 43.7947 202.818 123.318 123.304C202.841 43.7896 308.579 0 421.03 0C498.333 0 573.932 21.137 639.651 61.124C649.233 66.9563 652.264 79.4464 646.431 89.0135C640.598 98.5941 628.107 101.625 618.539 95.793C559.194 59.6761 490.89 40.5825 421.03 40.5825C319.406 40.5825 223.872 80.15 152.023 151.991C80.1729 223.833 40.6007 319.369 40.6007 420.967C40.6007 493.688 61.1853 564.352 100.121 625.354C106.157 634.8 103.383 647.357 93.9366 653.379C90.5532 655.544 86.7773 656.573 83.0285 656.573V656.586Z" fill="white"/>
<path d="M689 173C711.091 173 729 155.091 729 133C729 110.909 711.091 93 689 93C666.909 93 649 110.909 649 133C649 155.091 666.909 173 689 173Z" fill="white"/>
<path d="M133 781C189.885 781 236 734.885 236 678C236 621.115 189.885 575 133 575C76.1147 575 30 621.115 30 678C30 734.885 76.1147 781 133 781Z" fill="white"/>
</svg>
