<svg width="203" height="247" viewBox="0 0 203 247" fill="none" xmlns="http://www.w3.org/2000/svg">
<g filter="url(#filter0_d_443_13)">
<path d="M103.303 135.134C105.494 135.134 107.278 133.28 107.278 131.003V114.424C107.278 112.147 105.494 110.293 103.303 110.293C101.112 110.293 99.3286 112.147 99.3286 114.424V130.976C99.3286 133.254 101.112 135.107 103.303 135.107V135.134Z" fill="white"/>
</g>
<g filter="url(#filter1_d_443_13)">
<path d="M197.537 204.688H180.967C178.687 204.688 176.832 206.471 176.832 208.663C176.832 210.854 178.687 212.637 180.967 212.637H197.537C199.817 212.637 201.672 210.854 201.672 208.663C201.672 206.471 199.817 204.688 197.537 204.688Z" fill="white"/>
</g>
<g filter="url(#filter2_d_443_13)">
<path d="M25.6384 204.688H9.06906C6.78912 204.688 4.93335 206.471 4.93335 208.663C4.93335 210.854 6.78912 212.637 9.06906 212.637H25.6384C27.9184 212.637 29.7741 210.854 29.7741 208.663C29.7741 206.471 27.9184 204.688 25.6384 204.688Z" fill="white"/>
</g>
<g filter="url(#filter3_d_443_13)">
<path d="M166.808 139.262L155.181 150.348C153.577 151.877 153.577 154.335 155.181 155.865C155.997 156.643 157.023 156.994 158.101 156.994C159.18 156.994 160.205 156.592 161.021 155.865L172.647 144.78C174.252 143.25 174.252 140.792 172.647 139.262C171.043 137.732 168.465 137.732 166.86 139.262H166.808Z" fill="white"/>
</g>
<g filter="url(#filter4_d_443_13)">
<path d="M45.5849 260.546L33.9585 272.214C32.354 273.825 32.354 276.412 33.9585 278.022C34.774 278.841 35.7998 279.21 36.8783 279.21C37.9567 279.21 38.9826 278.788 39.798 278.022L51.4243 266.354C53.0289 264.743 53.0289 262.156 51.4243 260.546C49.8198 258.935 47.242 258.935 45.6375 260.546H45.5849Z" fill="white"/>
</g>
<g filter="url(#filter5_d_443_13)">
<path d="M160.968 260.546C159.364 258.935 156.786 258.935 155.181 260.546C153.577 262.156 153.577 264.743 155.181 266.354L166.808 278.022C167.623 278.841 168.649 279.21 169.728 279.21C170.806 279.21 171.832 278.788 172.647 278.022C174.252 276.412 174.252 273.825 172.647 272.214L161.021 260.546H160.968Z" fill="white"/>
</g>
<g filter="url(#filter6_d_443_13)">
<path d="M45.5662 156.799C46.3838 157.618 47.4123 157.987 48.4937 157.987C49.575 157.987 50.6036 157.565 51.4212 156.799C53.03 155.189 53.03 152.602 51.4212 150.991L39.764 139.323C38.1552 137.712 35.5705 137.712 33.9617 139.323C32.3529 140.933 32.3529 143.52 33.9617 145.131L45.6189 156.799H45.5662Z" fill="white"/>
</g>
<g filter="url(#filter7_d_443_13)">
<path d="M168.83 208.833C168.83 190.71 161.619 173.823 148.561 161.276C135.502 148.729 118.275 142.337 100.182 143.152C66.5398 144.704 39.1382 172.376 37.7747 206.15C37.0405 224.694 44.1728 242.765 57.3622 255.707C64.9402 263.151 69.4504 272.673 70.3157 282.8C65.8842 282.879 62.2919 286.535 62.2919 291.006V299.213C62.2919 303.738 65.9891 307.42 70.473 307.42V315.627H66.3824C64.1274 315.627 62.2919 317.468 62.2919 319.73C62.2919 321.992 64.1274 323.834 66.3824 323.834H70.473V327.937C70.473 334.724 76.0057 340.274 82.7709 340.274H83.1904C85.0784 349.638 93.3644 356.714 103.276 356.714C113.188 356.714 121.421 349.638 123.362 340.274H123.781C130.547 340.274 136.079 334.724 136.079 327.937V323.834H140.17C142.425 323.834 144.26 321.992 144.26 319.73C144.26 317.468 142.425 315.627 140.17 315.627H136.079V307.42C140.589 307.42 144.26 303.711 144.26 299.213V291.006C144.26 286.535 140.694 282.905 136.263 282.8C137.154 272.725 141.743 263.124 149.531 255.391C161.986 242.976 168.882 226.404 168.882 208.78V208.833H168.83ZM103.276 348.559C97.9532 348.559 93.3644 345.114 91.6862 340.353H114.866C113.188 345.114 108.625 348.559 103.276 348.559ZM127.872 328.016C127.872 330.278 126.036 332.119 123.781 332.119H82.8233C80.5683 332.119 78.7328 330.278 78.7328 328.016V323.913H127.898V328.016H127.872ZM127.872 315.68H78.7066V307.473H127.872V315.68ZM131.963 299.266H70.4992V291.059H136.053V299.266H131.963ZM127.977 282.8H78.5755C77.6839 270.463 72.2561 258.889 63.131 249.867C51.5673 238.53 45.3527 222.695 46.0083 206.466C47.1883 176.926 71.1548 152.701 100.575 151.359C116.466 150.623 131.464 156.252 142.897 167.22C154.33 178.189 160.649 192.946 160.649 208.859C160.649 224.773 154.618 238.741 143.736 249.63C134.427 258.916 128.895 270.595 128.003 282.826V282.773L127.977 282.8Z" fill="white"/>
</g>
<g filter="url(#filter8_d_443_13)">
<path d="M119.807 196.739C113.005 196.739 107.442 202.247 107.442 208.982V213.054H99.2168V208.982C99.2168 202.247 93.6541 196.739 86.8523 196.739C80.0505 196.739 74.4878 202.247 74.4878 208.982C74.4878 215.717 80.0505 221.225 86.8523 221.225H90.965V270.17C90.965 272.415 92.8104 274.242 95.0777 274.242C97.3449 274.242 99.1904 272.415 99.1904 270.17V221.225H107.416V270.17C107.416 272.415 109.261 274.242 111.529 274.242C113.796 274.242 115.641 272.415 115.641 270.17V221.225H119.754C126.556 221.225 132.118 215.717 132.118 208.982C132.118 202.247 126.556 196.739 119.754 196.739H119.807ZM82.7396 208.982C82.7396 206.737 84.585 204.91 86.8523 204.91C89.1195 204.91 90.965 206.737 90.965 208.982V213.054H86.8523C84.585 213.054 82.7396 211.227 82.7396 208.982ZM119.807 213.054H115.694V208.982C115.694 206.737 117.539 204.91 119.807 204.91C122.074 204.91 123.919 206.737 123.919 208.982C123.919 211.227 122.074 213.054 119.807 213.054Z" fill="white"/>
</g>
<defs>
<filter id="filter0_d_443_13" x="95.3286" y="110.293" width="15.949" height="32.8408" filterUnits="userSpaceOnUse" color-interpolation-filters="sRGB">
<feFlood flood-opacity="0" result="BackgroundImageFix"/>
<feColorMatrix in="SourceAlpha" type="matrix" values="0 0 0 0 0 0 0 0 0 0 0 0 0 0 0 0 0 0 127 0" result="hardAlpha"/>
<feOffset dy="4"/>
<feGaussianBlur stdDeviation="2"/>
<feComposite in2="hardAlpha" operator="out"/>
<feColorMatrix type="matrix" values="0 0 0 0 0 0 0 0 0 0 0 0 0 0 0 0 0 0 0.25 0"/>
<feBlend mode="normal" in2="BackgroundImageFix" result="effect1_dropShadow_443_13"/>
<feBlend mode="normal" in="SourceGraphic" in2="effect1_dropShadow_443_13" result="shape"/>
</filter>
<filter id="filter1_d_443_13" x="172.832" y="204.688" width="32.8408" height="15.949" filterUnits="userSpaceOnUse" color-interpolation-filters="sRGB">
<feFlood flood-opacity="0" result="BackgroundImageFix"/>
<feColorMatrix in="SourceAlpha" type="matrix" values="0 0 0 0 0 0 0 0 0 0 0 0 0 0 0 0 0 0 127 0" result="hardAlpha"/>
<feOffset dy="4"/>
<feGaussianBlur stdDeviation="2"/>
<feComposite in2="hardAlpha" operator="out"/>
<feColorMatrix type="matrix" values="0 0 0 0 0 0 0 0 0 0 0 0 0 0 0 0 0 0 0.25 0"/>
<feBlend mode="normal" in2="BackgroundImageFix" result="effect1_dropShadow_443_13"/>
<feBlend mode="normal" in="SourceGraphic" in2="effect1_dropShadow_443_13" result="shape"/>
</filter>
<filter id="filter2_d_443_13" x="0.93335" y="204.688" width="32.8408" height="15.949" filterUnits="userSpaceOnUse" color-interpolation-filters="sRGB">
<feFlood flood-opacity="0" result="BackgroundImageFix"/>
<feColorMatrix in="SourceAlpha" type="matrix" values="0 0 0 0 0 0 0 0 0 0 0 0 0 0 0 0 0 0 127 0" result="hardAlpha"/>
<feOffset dy="4"/>
<feGaussianBlur stdDeviation="2"/>
<feComposite in2="hardAlpha" operator="out"/>
<feColorMatrix type="matrix" values="0 0 0 0 0 0 0 0 0 0 0 0 0 0 0 0 0 0 0.25 0"/>
<feBlend mode="normal" in2="BackgroundImageFix" result="effect1_dropShadow_443_13"/>
<feBlend mode="normal" in="SourceGraphic" in2="effect1_dropShadow_443_13" result="shape"/>
</filter>
<filter id="filter3_d_443_13" x="149.978" y="138.115" width="27.8726" height="26.879" filterUnits="userSpaceOnUse" color-interpolation-filters="sRGB">
<feFlood flood-opacity="0" result="BackgroundImageFix"/>
<feColorMatrix in="SourceAlpha" type="matrix" values="0 0 0 0 0 0 0 0 0 0 0 0 0 0 0 0 0 0 127 0" result="hardAlpha"/>
<feOffset dy="4"/>
<feGaussianBlur stdDeviation="2"/>
<feComposite in2="hardAlpha" operator="out"/>
<feColorMatrix type="matrix" values="0 0 0 0 0 0 0 0 0 0 0 0 0 0 0 0 0 0 0.25 0"/>
<feBlend mode="normal" in2="BackgroundImageFix" result="effect1_dropShadow_443_13"/>
<feBlend mode="normal" in="SourceGraphic" in2="effect1_dropShadow_443_13" result="shape"/>
</filter>
<filter id="filter4_d_443_13" x="28.7551" y="259.338" width="27.8726" height="27.8726" filterUnits="userSpaceOnUse" color-interpolation-filters="sRGB">
<feFlood flood-opacity="0" result="BackgroundImageFix"/>
<feColorMatrix in="SourceAlpha" type="matrix" values="0 0 0 0 0 0 0 0 0 0 0 0 0 0 0 0 0 0 127 0" result="hardAlpha"/>
<feOffset dy="4"/>
<feGaussianBlur stdDeviation="2"/>
<feComposite in2="hardAlpha" operator="out"/>
<feColorMatrix type="matrix" values="0 0 0 0 0 0 0 0 0 0 0 0 0 0 0 0 0 0 0.25 0"/>
<feBlend mode="normal" in2="BackgroundImageFix" result="effect1_dropShadow_443_13"/>
<feBlend mode="normal" in="SourceGraphic" in2="effect1_dropShadow_443_13" result="shape"/>
</filter>
<filter id="filter5_d_443_13" x="149.978" y="259.338" width="27.8726" height="27.8726" filterUnits="userSpaceOnUse" color-interpolation-filters="sRGB">
<feFlood flood-opacity="0" result="BackgroundImageFix"/>
<feColorMatrix in="SourceAlpha" type="matrix" values="0 0 0 0 0 0 0 0 0 0 0 0 0 0 0 0 0 0 127 0" result="hardAlpha"/>
<feOffset dy="4"/>
<feGaussianBlur stdDeviation="2"/>
<feComposite in2="hardAlpha" operator="out"/>
<feColorMatrix type="matrix" values="0 0 0 0 0 0 0 0 0 0 0 0 0 0 0 0 0 0 0.25 0"/>
<feBlend mode="normal" in2="BackgroundImageFix" result="effect1_dropShadow_443_13"/>
<feBlend mode="normal" in="SourceGraphic" in2="effect1_dropShadow_443_13" result="shape"/>
</filter>
<filter id="filter6_d_443_13" x="28.7551" y="138.115" width="27.8726" height="27.8726" filterUnits="userSpaceOnUse" color-interpolation-filters="sRGB">
<feFlood flood-opacity="0" result="BackgroundImageFix"/>
<feColorMatrix in="SourceAlpha" type="matrix" values="0 0 0 0 0 0 0 0 0 0 0 0 0 0 0 0 0 0 127 0" result="hardAlpha"/>
<feOffset dy="4"/>
<feGaussianBlur stdDeviation="2"/>
<feComposite in2="hardAlpha" operator="out"/>
<feColorMatrix type="matrix" values="0 0 0 0 0 0 0 0 0 0 0 0 0 0 0 0 0 0 0.25 0"/>
<feBlend mode="normal" in2="BackgroundImageFix" result="effect1_dropShadow_443_13"/>
<feBlend mode="normal" in="SourceGraphic" in2="effect1_dropShadow_443_13" result="shape"/>
</filter>
<filter id="filter7_d_443_13" x="33.7231" y="143.083" width="139.159" height="221.631" filterUnits="userSpaceOnUse" color-interpolation-filters="sRGB">
<feFlood flood-opacity="0" result="BackgroundImageFix"/>
<feColorMatrix in="SourceAlpha" type="matrix" values="0 0 0 0 0 0 0 0 0 0 0 0 0 0 0 0 0 0 127 0" result="hardAlpha"/>
<feOffset dy="4"/>
<feGaussianBlur stdDeviation="2"/>
<feComposite in2="hardAlpha" operator="out"/>
<feColorMatrix type="matrix" values="0 0 0 0 0 0 0 0 0 0 0 0 0 0 0 0 0 0 0.25 0"/>
<feBlend mode="normal" in2="BackgroundImageFix" result="effect1_dropShadow_443_13"/>
<feBlend mode="normal" in="SourceGraphic" in2="effect1_dropShadow_443_13" result="shape"/>
</filter>
<filter id="filter8_d_443_13" x="70.4878" y="196.739" width="65.6306" height="85.5032" filterUnits="userSpaceOnUse" color-interpolation-filters="sRGB">
<feFlood flood-opacity="0" result="BackgroundImageFix"/>
<feColorMatrix in="SourceAlpha" type="matrix" values="0 0 0 0 0 0 0 0 0 0 0 0 0 0 0 0 0 0 127 0" result="hardAlpha"/>
<feOffset dy="4"/>
<feGaussianBlur stdDeviation="2"/>
<feComposite in2="hardAlpha" operator="out"/>
<feColorMatrix type="matrix" values="0 0 0 0 0 0 0 0 0 0 0 0 0 0 0 0 0 0 0.25 0"/>
<feBlend mode="normal" in2="BackgroundImageFix" result="effect1_dropShadow_443_13"/>
<feBlend mode="normal" in="SourceGraphic" in2="effect1_dropShadow_443_13" result="shape"/>
</filter>
</defs>
</svg>
