<svg width="506" height="398" viewBox="0 0 506 398" fill="none" xmlns="http://www.w3.org/2000/svg">
<path d="M476.84 335.864V331.136C476.84 330.997 476.845 330.845 476.856 330.68C476.867 330.515 476.883 330.347 476.904 330.176L472.728 335.864H476.84ZM479.824 335.864V336.68C479.824 336.765 479.797 336.837 479.744 336.896C479.696 336.955 479.619 336.984 479.512 336.984H478.088V340H476.84V336.984H471.752C471.645 336.984 471.552 336.955 471.472 336.896C471.397 336.832 471.349 336.755 471.328 336.664L471.184 335.936L476.76 328.536H478.088V335.864H479.824Z" fill="white"/>
<path d="M79.8 334.272C79.8 335.275 79.6907 336.144 79.472 336.88C79.2587 337.611 78.9653 338.216 78.592 338.696C78.2187 339.176 77.776 339.533 77.264 339.768C76.7573 340.003 76.2133 340.12 75.632 340.12C75.0453 340.12 74.4987 340.003 73.992 339.768C73.4907 339.533 73.0533 339.176 72.68 338.696C72.3067 338.216 72.0133 337.611 71.8 336.88C71.5867 336.144 71.48 335.275 71.48 334.272C71.48 333.269 71.5867 332.4 71.8 331.664C72.0133 330.928 72.3067 330.32 72.68 329.84C73.0533 329.355 73.4907 328.995 73.992 328.76C74.4987 328.525 75.0453 328.408 75.632 328.408C76.2133 328.408 76.7573 328.525 77.264 328.76C77.776 328.995 78.2187 329.355 78.592 329.84C78.9653 330.32 79.2587 330.928 79.472 331.664C79.6907 332.4 79.8 333.269 79.8 334.272ZM78.32 334.272C78.32 333.397 78.2453 332.664 78.096 332.072C77.952 331.475 77.7547 330.995 77.504 330.632C77.2587 330.269 76.9733 330.011 76.648 329.856C76.3227 329.696 75.984 329.616 75.632 329.616C75.28 329.616 74.9413 329.696 74.616 329.856C74.2907 330.011 74.0053 330.269 73.76 330.632C73.5147 330.995 73.3173 331.475 73.168 332.072C73.024 332.664 72.952 333.397 72.952 334.272C72.952 335.147 73.024 335.88 73.168 336.472C73.3173 337.064 73.5147 337.541 73.76 337.904C74.0053 338.267 74.2907 338.528 74.616 338.688C74.9413 338.843 75.28 338.92 75.632 338.92C75.984 338.92 76.3227 338.843 76.648 338.688C76.9733 338.528 77.2587 338.267 77.504 337.904C77.7547 337.541 77.952 337.064 78.096 336.472C78.2453 335.88 78.32 335.147 78.32 334.272Z" fill="white"/>
<path d="M179.144 338.912V340H173V338.912H175.456V331.096C175.456 330.861 175.464 330.624 175.48 330.384L173.44 332.136C173.371 332.195 173.301 332.232 173.232 332.248C173.163 332.259 173.099 332.259 173.04 332.248C172.981 332.237 172.925 332.216 172.872 332.184C172.824 332.152 172.787 332.117 172.76 332.08L172.312 331.464L175.728 328.512H176.888V338.912H179.144Z" fill="white"/>
<path d="M278.896 338.648C279.051 338.648 279.173 338.693 279.264 338.784C279.355 338.875 279.4 338.992 279.4 339.136V340H271.752V339.512C271.752 339.411 271.773 339.307 271.816 339.2C271.859 339.093 271.925 338.995 272.016 338.904L275.688 335.216C275.992 334.907 276.269 334.611 276.52 334.328C276.771 334.04 276.984 333.752 277.16 333.464C277.336 333.176 277.472 332.885 277.568 332.592C277.664 332.293 277.712 331.976 277.712 331.64C277.712 331.304 277.659 331.011 277.552 330.76C277.445 330.504 277.299 330.293 277.112 330.128C276.931 329.963 276.715 329.84 276.464 329.76C276.213 329.675 275.944 329.632 275.656 329.632C275.363 329.632 275.093 329.675 274.848 329.76C274.603 329.845 274.384 329.965 274.192 330.12C274.005 330.269 273.848 330.448 273.72 330.656C273.592 330.864 273.501 331.093 273.448 331.344C273.384 331.531 273.296 331.656 273.184 331.72C273.077 331.779 272.925 331.795 272.728 331.768L271.984 331.64C272.059 331.117 272.203 330.656 272.416 330.256C272.635 329.851 272.907 329.512 273.232 329.24C273.563 328.968 273.939 328.763 274.36 328.624C274.781 328.48 275.237 328.408 275.728 328.408C276.213 328.408 276.667 328.48 277.088 328.624C277.509 328.768 277.875 328.979 278.184 329.256C278.493 329.528 278.736 329.861 278.912 330.256C279.088 330.651 279.176 331.099 279.176 331.6C279.176 332.027 279.112 332.424 278.984 332.792C278.856 333.155 278.683 333.501 278.464 333.832C278.245 334.163 277.992 334.485 277.704 334.8C277.421 335.115 277.12 335.432 276.8 335.752L273.776 338.84C273.989 338.781 274.205 338.736 274.424 338.704C274.643 338.667 274.853 338.648 275.056 338.648H278.896Z" fill="white"/>
<path d="M372.04 331.64C372.115 331.117 372.259 330.656 372.472 330.256C372.685 329.851 372.955 329.512 373.28 329.24C373.611 328.968 373.987 328.763 374.408 328.624C374.835 328.48 375.293 328.408 375.784 328.408C376.269 328.408 376.717 328.477 377.128 328.616C377.539 328.755 377.891 328.952 378.184 329.208C378.483 329.464 378.715 329.773 378.88 330.136C379.045 330.499 379.128 330.901 379.128 331.344C379.128 331.707 379.08 332.032 378.984 332.32C378.893 332.603 378.76 332.851 378.584 333.064C378.413 333.277 378.205 333.459 377.96 333.608C377.715 333.757 377.44 333.88 377.136 333.976C377.883 334.168 378.443 334.499 378.816 334.968C379.195 335.432 379.384 336.013 379.384 336.712C379.384 337.24 379.283 337.715 379.08 338.136C378.883 338.557 378.611 338.917 378.264 339.216C377.917 339.509 377.512 339.736 377.048 339.896C376.589 340.051 376.096 340.128 375.568 340.128C374.96 340.128 374.44 340.053 374.008 339.904C373.576 339.749 373.211 339.539 372.912 339.272C372.613 339.005 372.368 338.691 372.176 338.328C371.984 337.96 371.821 337.563 371.688 337.136L372.304 336.88C372.464 336.811 372.619 336.792 372.768 336.824C372.923 336.856 373.035 336.944 373.104 337.088C373.173 337.237 373.259 337.416 373.36 337.624C373.467 337.832 373.611 338.032 373.792 338.224C373.973 338.416 374.203 338.579 374.48 338.712C374.763 338.845 375.12 338.912 375.552 338.912C375.952 338.912 376.301 338.848 376.6 338.72C376.904 338.587 377.155 338.416 377.352 338.208C377.555 338 377.707 337.768 377.808 337.512C377.909 337.256 377.96 337.003 377.96 336.752C377.96 336.443 377.92 336.16 377.84 335.904C377.76 335.648 377.611 335.427 377.392 335.24C377.173 335.053 376.872 334.907 376.488 334.8C376.109 334.693 375.621 334.64 375.024 334.64V333.608C375.515 333.603 375.931 333.549 376.272 333.448C376.619 333.347 376.899 333.208 377.112 333.032C377.331 332.856 377.488 332.645 377.584 332.4C377.685 332.155 377.736 331.883 377.736 331.584C377.736 331.253 377.683 330.965 377.576 330.72C377.475 330.475 377.333 330.272 377.152 330.112C376.971 329.952 376.755 329.832 376.504 329.752C376.259 329.672 375.992 329.632 375.704 329.632C375.416 329.632 375.147 329.675 374.896 329.76C374.651 329.845 374.432 329.965 374.24 330.12C374.053 330.269 373.896 330.448 373.768 330.656C373.64 330.864 373.549 331.093 373.496 331.344C373.427 331.531 373.339 331.656 373.232 331.72C373.131 331.779 372.981 331.795 372.784 331.768L372.04 331.64Z" fill="white"/>
<path d="M6.72257 228.441L6.72257 232.153L16.8826 232.153L16.8826 233.697L6.72257 233.697L6.72257 237.417L5.41857 237.417L5.41857 228.441L6.72257 228.441ZM8.65057 225.613C8.65057 225.021 8.74923 224.488 8.94657 224.013C9.1439 223.539 9.4239 223.133 9.78657 222.797C10.1492 222.461 10.5892 222.205 11.1066 222.029C11.6186 221.848 12.1919 221.757 12.8266 221.757C13.4666 221.757 14.0426 221.848 14.5546 222.029C15.0666 222.205 15.5039 222.461 15.8666 222.797C16.2292 223.133 16.5092 223.539 16.7066 224.013C16.8986 224.488 16.9946 225.021 16.9946 225.613C16.9946 226.211 16.8986 226.749 16.7066 227.229C16.5092 227.704 16.2292 228.109 15.8666 228.445C15.5039 228.781 15.0666 229.04 14.5546 229.221C14.0426 229.397 13.4666 229.485 12.8266 229.485C12.1919 229.485 11.6186 229.397 11.1066 229.221C10.5892 229.04 10.1492 228.781 9.78657 228.445C9.4239 228.109 9.1439 227.704 8.94657 227.229C8.74923 226.749 8.65057 226.211 8.65057 225.613ZM15.8826 225.613C15.8826 224.813 15.6159 224.216 15.0826 223.821C14.5439 223.427 13.7946 223.229 12.8346 223.229C11.8692 223.229 11.1172 223.427 10.5786 223.821C10.0399 224.216 9.77057 224.813 9.77057 225.613C9.77057 226.019 9.8399 226.373 9.97857 226.677C10.1172 226.976 10.3172 227.227 10.5786 227.429C10.8399 227.627 11.1626 227.776 11.5466 227.877C11.9252 227.973 12.3546 228.021 12.8346 228.021C13.7946 228.021 14.5439 227.824 15.0826 227.429C15.6159 227.029 15.8826 226.424 15.8826 225.613ZM5.09857 218.519L12.0346 218.519L12.0346 218.151C12.0346 218.044 12.0212 217.956 11.9946 217.887C11.9626 217.812 11.9012 217.735 11.8106 217.655L9.06657 215.095C8.9759 215.02 8.90657 214.943 8.85857 214.863C8.80523 214.778 8.77857 214.666 8.77857 214.527L8.77857 213.239L11.9546 216.223C12.1359 216.367 12.2772 216.522 12.3786 216.687C12.4426 216.591 12.5172 216.506 12.6026 216.431C12.6826 216.351 12.7759 216.276 12.8826 216.207L16.8826 213.039L16.8826 214.311C16.8826 214.434 16.8639 214.54 16.8266 214.631C16.7839 214.716 16.7092 214.791 16.6026 214.855L13.2826 217.519C13.1706 217.599 13.0986 217.679 13.0666 217.759C13.0292 217.834 13.0106 217.951 13.0106 218.111L13.0106 218.519L16.8826 218.519L16.8826 219.951L5.09857 219.951L5.09857 218.519ZM11.9466 206.855C11.6159 206.855 11.3146 206.903 11.0426 206.999C10.7652 207.09 10.5279 207.226 10.3306 207.407C10.1279 207.583 9.97323 207.799 9.86657 208.055C9.75457 208.311 9.69857 208.602 9.69857 208.927C9.69857 209.61 9.89857 210.151 10.2986 210.551C10.6932 210.946 11.2426 211.191 11.9466 211.287L11.9466 206.855ZM15.7466 205.703C15.9599 205.879 16.1466 206.09 16.3066 206.335C16.4612 206.581 16.5892 206.845 16.6906 207.127C16.7919 207.405 16.8666 207.693 16.9146 207.991C16.9679 208.29 16.9946 208.586 16.9946 208.879C16.9946 209.439 16.9012 209.957 16.7146 210.431C16.5226 210.901 16.2452 211.309 15.8826 211.655C15.5146 211.997 15.0612 212.263 14.5226 212.455C13.9839 212.647 13.3652 212.743 12.6666 212.743C12.1012 212.743 11.5732 212.658 11.0826 212.487C10.5919 212.311 10.1679 212.061 9.81057 211.735C9.4479 211.41 9.16523 211.013 8.96257 210.543C8.75457 210.074 8.65057 209.546 8.65057 208.959C8.65057 208.474 8.73323 208.026 8.89857 207.615C9.05857 207.199 9.29323 206.842 9.60257 206.543C9.90657 206.239 10.2852 206.002 10.7386 205.831C11.1866 205.661 11.6986 205.575 12.2746 205.575C12.4986 205.575 12.6479 205.599 12.7226 205.647C12.7972 205.695 12.8346 205.786 12.8346 205.919L12.8346 211.335C13.3466 211.319 13.7919 211.25 14.1706 211.127C14.5492 210.999 14.8666 210.823 15.1226 210.599C15.3732 210.375 15.5626 210.109 15.6906 209.799C15.8132 209.49 15.8746 209.143 15.8746 208.759C15.8746 208.402 15.8346 208.095 15.7546 207.839C15.6692 207.578 15.5786 207.354 15.4826 207.167C15.3866 206.981 15.2986 206.826 15.2186 206.703C15.1332 206.575 15.0906 206.466 15.0906 206.375C15.0906 206.258 15.1359 206.167 15.2266 206.103L15.7466 205.703ZM9.95457 202.482C9.75723 202.306 9.57857 202.119 9.41857 201.922C9.25857 201.725 9.12257 201.517 9.01057 201.298C8.89323 201.074 8.80523 200.839 8.74657 200.594C8.68257 200.343 8.65057 200.074 8.65057 199.786C8.65057 199.343 8.72523 198.954 8.87457 198.618C9.01857 198.277 9.22657 197.994 9.49857 197.77C9.76523 197.541 10.0879 197.367 10.4666 197.25C10.8452 197.133 11.2639 197.074 11.7226 197.074L16.8826 197.074L16.8826 198.506L11.7226 198.506C11.1092 198.506 10.6346 198.647 10.2986 198.93C9.95723 199.207 9.78657 199.631 9.78657 200.202C9.78657 200.623 9.8879 201.018 10.0906 201.386C10.2932 201.749 10.5679 202.085 10.9146 202.394L16.8826 202.394L16.8826 203.826L8.77857 203.826L8.77857 202.97C8.77857 202.767 8.87723 202.642 9.07457 202.594L9.95457 202.482ZM10.1146 190.184C10.2319 190.248 10.2906 190.347 10.2906 190.48C10.2906 190.56 10.2612 190.651 10.2026 190.752C10.1439 190.854 10.0799 190.979 10.0106 191.128C9.9359 191.272 9.86923 191.446 9.81057 191.648C9.74657 191.851 9.71457 192.091 9.71457 192.368C9.71457 192.608 9.74657 192.824 9.81057 193.016C9.86923 193.208 9.9519 193.374 10.0586 193.512C10.1652 193.646 10.2906 193.75 10.4346 193.824C10.5732 193.894 10.7252 193.928 10.8906 193.928C11.0986 193.928 11.2719 193.87 11.4106 193.752C11.5492 193.63 11.6692 193.47 11.7706 193.272C11.8719 193.075 11.9626 192.851 12.0426 192.6C12.1172 192.35 12.1999 192.094 12.2906 191.832C12.3759 191.566 12.4719 191.307 12.5786 191.056C12.6852 190.806 12.8186 190.582 12.9786 190.384C13.1386 190.187 13.3359 190.03 13.5706 189.912C13.7999 189.79 14.0772 189.728 14.4026 189.728C14.7759 189.728 15.1226 189.795 15.4426 189.928C15.7572 190.062 16.0319 190.259 16.2666 190.52C16.4959 190.782 16.6772 191.102 16.8106 191.48C16.9439 191.859 17.0106 192.296 17.0106 192.792C17.0106 193.358 16.9199 193.87 16.7386 194.328C16.5519 194.787 16.3146 195.176 16.0266 195.496L15.4826 195.16C15.4132 195.118 15.3599 195.067 15.3226 195.008C15.2852 194.95 15.2666 194.875 15.2666 194.784C15.2666 194.688 15.3039 194.587 15.3786 194.48C15.4532 194.374 15.5359 194.246 15.6266 194.096C15.7172 193.942 15.7999 193.755 15.8746 193.536C15.9492 193.318 15.9866 193.046 15.9866 192.72C15.9866 192.443 15.9519 192.2 15.8826 191.992C15.8079 191.784 15.7092 191.611 15.5866 191.472C15.4639 191.334 15.3226 191.232 15.1626 191.168C15.0026 191.099 14.8319 191.064 14.6506 191.064C14.4266 191.064 14.2426 191.126 14.0986 191.248C13.9492 191.366 13.8239 191.523 13.7226 191.72C13.6159 191.918 13.5252 192.144 13.4506 192.4C13.3706 192.651 13.2879 192.91 13.2026 193.176C13.1172 193.438 13.0212 193.696 12.9146 193.952C12.8026 194.203 12.6639 194.427 12.4986 194.624C12.3332 194.822 12.1306 194.982 11.8906 195.104C11.6452 195.222 11.3492 195.28 11.0026 195.28C10.6932 195.28 10.3972 195.216 10.1146 195.088C9.82657 194.96 9.5759 194.774 9.36257 194.528C9.1439 194.283 8.97057 193.982 8.84257 193.624C8.71457 193.267 8.65057 192.859 8.65057 192.4C8.65057 191.867 8.7359 191.39 8.90657 190.968C9.0719 190.542 9.30123 190.174 9.59457 189.864L10.1146 190.184ZM5.41856 174.811L16.8826 179.483L16.8826 180.875L5.41857 185.547L5.41857 184.307C5.41857 184.168 5.45323 184.056 5.52257 183.971C5.5919 183.885 5.6799 183.821 5.78657 183.779L13.8746 180.547C14.0559 180.477 14.2532 180.411 14.4666 180.347C14.6799 180.277 14.9039 180.216 15.1386 180.163C14.9039 180.109 14.6799 180.053 14.4666 179.995C14.2532 179.936 14.0559 179.872 13.8746 179.803L5.78657 176.579C5.6959 176.547 5.61323 176.485 5.53856 176.395C5.45856 176.299 5.41856 176.184 5.41856 176.051L5.41856 174.811ZM11.9466 169.418C11.6159 169.418 11.3146 169.466 11.0426 169.562C10.7652 169.652 10.5279 169.788 10.3306 169.97C10.1279 170.146 9.97323 170.362 9.86657 170.618C9.75457 170.874 9.69856 171.164 9.69856 171.49C9.69857 172.172 9.89857 172.714 10.2986 173.114C10.6932 173.508 11.2426 173.754 11.9466 173.85L11.9466 169.418ZM15.7466 168.266C15.9599 168.442 16.1466 168.652 16.3066 168.898C16.4612 169.143 16.5892 169.407 16.6906 169.69C16.7919 169.967 16.8666 170.255 16.9146 170.554C16.9679 170.852 16.9946 171.148 16.9946 171.442C16.9946 172.002 16.9012 172.519 16.7146 172.994C16.5226 173.463 16.2452 173.871 15.8826 174.218C15.5146 174.559 15.0612 174.826 14.5226 175.018C13.9839 175.21 13.3652 175.306 12.6666 175.306C12.1012 175.306 11.5732 175.22 11.0826 175.05C10.5919 174.874 10.1679 174.623 9.81057 174.298C9.4479 173.972 9.16523 173.575 8.96256 173.106C8.75457 172.636 8.65057 172.108 8.65057 171.522C8.65057 171.036 8.73323 170.588 8.89857 170.178C9.05857 169.762 9.29323 169.404 9.60257 169.106C9.90657 168.802 10.2852 168.564 10.7386 168.394C11.1866 168.223 11.6986 168.138 12.2746 168.138C12.4986 168.138 12.6479 168.162 12.7226 168.21C12.7972 168.258 12.8346 168.348 12.8346 168.482L12.8346 173.898C13.3466 173.882 13.7919 173.812 14.1706 173.69C14.5492 173.562 14.8666 173.386 15.1226 173.162C15.3732 172.938 15.5626 172.671 15.6906 172.362C15.8132 172.052 15.8746 171.706 15.8746 171.322C15.8746 170.964 15.8346 170.658 15.7546 170.402C15.6692 170.14 15.5786 169.916 15.4826 169.73C15.3866 169.543 15.2986 169.388 15.2186 169.266C15.1332 169.138 15.0906 169.028 15.0906 168.938C15.0906 168.82 15.1359 168.73 15.2266 168.666L15.7466 168.266ZM10.1146 161.669C10.2319 161.733 10.2906 161.831 10.2906 161.965C10.2906 162.045 10.2612 162.135 10.2026 162.237C10.1439 162.338 10.0799 162.463 10.0106 162.613C9.9359 162.757 9.86923 162.93 9.81056 163.133C9.74656 163.335 9.71456 163.575 9.71456 163.853C9.71456 164.093 9.74656 164.309 9.81056 164.501C9.86923 164.693 9.9519 164.858 10.0586 164.997C10.1652 165.13 10.2906 165.234 10.4346 165.309C10.5732 165.378 10.7252 165.413 10.8906 165.413C11.0986 165.413 11.2719 165.354 11.4106 165.237C11.5492 165.114 11.6692 164.954 11.7706 164.757C11.8719 164.559 11.9626 164.335 12.0426 164.085C12.1172 163.834 12.1999 163.578 12.2906 163.317C12.3759 163.05 12.4719 162.791 12.5786 162.541C12.6852 162.29 12.8186 162.066 12.9786 161.869C13.1386 161.671 13.3359 161.514 13.5706 161.397C13.7999 161.274 14.0772 161.213 14.4026 161.213C14.7759 161.213 15.1226 161.279 15.4426 161.413C15.7572 161.546 16.0319 161.743 16.2666 162.005C16.4959 162.266 16.6772 162.586 16.8106 162.965C16.9439 163.343 17.0106 163.781 17.0106 164.277C17.0106 164.842 16.9199 165.354 16.7386 165.813C16.5519 166.271 16.3146 166.661 16.0266 166.981L15.4826 166.645C15.4132 166.602 15.3599 166.551 15.3226 166.493C15.2852 166.434 15.2666 166.359 15.2666 166.269C15.2666 166.173 15.3039 166.071 15.3786 165.965C15.4532 165.858 15.5359 165.73 15.6266 165.581C15.7172 165.426 15.7999 165.239 15.8746 165.021C15.9492 164.802 15.9866 164.53 15.9866 164.205C15.9866 163.927 15.9519 163.685 15.8826 163.477C15.8079 163.269 15.7092 163.095 15.5866 162.957C15.4639 162.818 15.3226 162.717 15.1626 162.653C15.0026 162.583 14.8319 162.549 14.6506 162.549C14.4266 162.549 14.2426 162.61 14.0986 162.733C13.9492 162.85 13.8239 163.007 13.7226 163.205C13.6159 163.402 13.5252 163.629 13.4506 163.885C13.3706 164.135 13.2879 164.394 13.2026 164.661C13.1172 164.922 13.0212 165.181 12.9146 165.437C12.8026 165.687 12.6639 165.911 12.4986 166.109C12.3332 166.306 12.1306 166.466 11.8906 166.589C11.6452 166.706 11.3492 166.765 11.0026 166.765C10.6932 166.765 10.3972 166.701 10.1146 166.573C9.82657 166.445 9.5759 166.258 9.36256 166.013C9.1439 165.767 8.97056 165.466 8.84257 165.109C8.71456 164.751 8.65056 164.343 8.65056 163.885C8.65056 163.351 8.7359 162.874 8.90656 162.453C9.0719 162.026 9.30123 161.658 9.59456 161.349L10.1146 161.669ZM17.0106 156.979C17.0106 157.619 16.8319 158.112 16.4746 158.459C16.1172 158.8 15.6026 158.971 14.9306 158.971L9.97056 158.971L9.97056 159.947C9.97056 160.032 9.94656 160.104 9.89856 160.163C9.84523 160.221 9.76523 160.251 9.65856 160.251L9.09056 160.251L8.92256 158.923L6.41856 158.595C6.33856 158.579 6.27456 158.544 6.22656 158.491C6.17323 158.432 6.14656 158.357 6.14656 158.267L6.14656 157.547L8.93856 157.547L8.93856 155.203L9.97056 155.203L9.97056 157.547L14.8346 157.547C15.1759 157.547 15.4292 157.464 15.5946 157.299C15.7599 157.133 15.8426 156.92 15.8426 156.659C15.8426 156.509 15.8239 156.381 15.7866 156.275C15.7439 156.163 15.6986 156.067 15.6506 155.987C15.6026 155.907 15.5599 155.84 15.5226 155.787C15.4799 155.728 15.4586 155.677 15.4586 155.635C15.4586 155.56 15.5039 155.493 15.5946 155.435L16.2746 155.019C16.5039 155.264 16.6852 155.56 16.8186 155.907C16.9466 156.253 17.0106 156.611 17.0106 156.979ZM11.9466 148.355C11.6159 148.355 11.3146 148.403 11.0426 148.499C10.7652 148.59 10.5279 148.726 10.3306 148.907C10.1279 149.083 9.97323 149.299 9.86656 149.555C9.75456 149.811 9.69856 150.102 9.69856 150.427C9.69856 151.11 9.89856 151.651 10.2986 152.051C10.6932 152.446 11.2426 152.691 11.9466 152.787L11.9466 148.355ZM15.7466 147.203C15.9599 147.379 16.1466 147.59 16.3066 147.835C16.4612 148.081 16.5892 148.345 16.6906 148.627C16.7919 148.905 16.8666 149.193 16.9146 149.491C16.9679 149.79 16.9946 150.086 16.9946 150.379C16.9946 150.939 16.9012 151.457 16.7146 151.931C16.5226 152.401 16.2452 152.809 15.8826 153.155C15.5146 153.497 15.0612 153.763 14.5226 153.955C13.9839 154.147 13.3652 154.243 12.6666 154.243C12.1012 154.243 11.5732 154.158 11.0826 153.987C10.5919 153.811 10.1679 153.561 9.81056 153.235C9.4479 152.91 9.16523 152.513 8.96256 152.043C8.75456 151.574 8.65056 151.046 8.65056 150.459C8.65056 149.974 8.73323 149.526 8.89856 149.115C9.05856 148.699 9.29323 148.342 9.60256 148.043C9.90656 147.739 10.2852 147.502 10.7386 147.331C11.1866 147.161 11.6986 147.075 12.2746 147.075C12.4986 147.075 12.6479 147.099 12.7226 147.147C12.7972 147.195 12.8346 147.286 12.8346 147.419L12.8346 152.835C13.3466 152.819 13.7919 152.75 14.1706 152.627C14.5492 152.499 14.8666 152.323 15.1226 152.099C15.3732 151.875 15.5626 151.609 15.6906 151.299C15.8132 150.99 15.8746 150.643 15.8746 150.259C15.8746 149.902 15.8346 149.595 15.7546 149.339C15.6692 149.078 15.5786 148.854 15.4826 148.667C15.3866 148.481 15.2986 148.326 15.2186 148.203C15.1332 148.075 15.0906 147.966 15.0906 147.875C15.0906 147.758 15.1359 147.667 15.2266 147.603L15.7466 147.203ZM10.7066 140.046C10.3492 140.313 10.1012 140.601 9.96256 140.91C9.81856 141.219 9.74656 141.566 9.74656 141.95C9.74656 142.702 10.0159 143.281 10.5546 143.686C11.0932 144.091 11.8612 144.294 12.8586 144.294C13.3866 144.294 13.8399 144.249 14.2186 144.158C14.5919 144.067 14.9012 143.934 15.1466 143.758C15.3866 143.582 15.5626 143.366 15.6746 143.11C15.7866 142.854 15.8426 142.563 15.8426 142.238C15.8426 141.769 15.7359 141.361 15.5226 141.014C15.3092 140.662 15.0079 140.339 14.6186 140.046L10.7066 140.046ZM5.09856 138.622L16.8826 138.622L16.8826 139.47C16.8826 139.673 16.7839 139.801 16.5866 139.854L15.6026 139.982C16.0186 140.329 16.3546 140.723 16.6106 141.166C16.8666 141.609 16.9946 142.121 16.9946 142.702C16.9946 143.166 16.9066 143.587 16.7306 143.966C16.5492 144.345 16.2852 144.667 15.9386 144.934C15.5919 145.201 15.1599 145.406 14.6426 145.55C14.1252 145.694 13.5306 145.766 12.8586 145.766C12.2612 145.766 11.7066 145.686 11.1946 145.526C10.6772 145.366 10.2292 145.137 9.85056 144.838C9.4719 144.539 9.1759 144.174 8.96256 143.742C8.7439 143.305 8.63456 142.814 8.63456 142.27C8.63456 141.774 8.7199 141.35 8.89056 140.998C9.0559 140.641 9.2879 140.323 9.58656 140.046L5.09856 140.046L5.09856 138.622ZM11.8506 131.447C12.9919 131.447 14.1012 131.303 15.1786 131.015C16.2559 130.722 17.2799 130.295 18.2506 129.735C18.4159 129.65 18.5412 129.629 18.6266 129.671C18.7172 129.714 18.7892 129.775 18.8426 129.855L19.2266 130.487C18.6132 130.887 18.0052 131.229 17.4026 131.511C16.7999 131.789 16.1946 132.015 15.5866 132.191C14.9786 132.362 14.3679 132.487 13.7546 132.567C13.1359 132.647 12.5012 132.687 11.8506 132.687C11.2052 132.687 10.5732 132.647 9.95456 132.567C9.3359 132.487 8.72523 132.362 8.12256 132.191C7.51456 132.015 6.90923 131.789 6.30656 131.511C5.7039 131.229 5.09323 130.887 4.47456 130.487L4.86656 129.855C4.9199 129.775 4.9919 129.714 5.08256 129.671C5.1679 129.629 5.29056 129.65 5.45056 129.735C6.42123 130.295 7.44523 130.722 8.52256 131.015C9.5999 131.303 10.7092 131.447 11.8506 131.447ZM7.21056 121.814C7.29056 121.862 7.3519 121.915 7.39456 121.974C7.4319 122.027 7.45056 122.094 7.45056 122.174C7.45056 122.264 7.40523 122.371 7.31456 122.494C7.2239 122.616 7.12523 122.771 7.01856 122.958C6.90656 123.139 6.80523 123.36 6.71456 123.622C6.6239 123.878 6.57856 124.19 6.57856 124.558C6.57856 124.904 6.62656 125.211 6.72256 125.478C6.81323 125.739 6.93856 125.96 7.09856 126.142C7.25856 126.318 7.4479 126.451 7.66656 126.542C7.8799 126.632 8.1119 126.678 8.36256 126.678C8.68256 126.678 8.94923 126.6 9.16256 126.446C9.37056 126.286 9.54923 126.078 9.69856 125.822C9.8479 125.56 9.97856 125.267 10.0906 124.942C10.1972 124.611 10.3092 124.275 10.4266 123.934C10.5439 123.587 10.6772 123.251 10.8266 122.926C10.9706 122.595 11.1546 122.302 11.3786 122.046C11.6026 121.784 11.8772 121.576 12.2026 121.422C12.5279 121.262 12.9279 121.182 13.4026 121.182C13.9039 121.182 14.3759 121.267 14.8186 121.438C15.2559 121.608 15.6372 121.859 15.9626 122.19C16.2879 122.515 16.5439 122.918 16.7306 123.398C16.9172 123.872 17.0106 124.414 17.0106 125.022C17.0106 125.768 16.8772 126.446 16.6106 127.054C16.3386 127.662 15.9732 128.182 15.5146 128.614L14.7786 128.166C14.7199 128.123 14.6719 128.072 14.6346 128.014C14.5919 127.95 14.5706 127.88 14.5706 127.806C14.5706 127.736 14.5999 127.659 14.6586 127.574C14.7119 127.483 14.7812 127.382 14.8666 127.27C14.9519 127.158 15.0452 127.03 15.1466 126.886C15.2479 126.742 15.3412 126.579 15.4266 126.398C15.5119 126.211 15.5839 126 15.6426 125.766C15.6959 125.531 15.7226 125.267 15.7226 124.974C15.7226 124.606 15.6719 124.278 15.5706 123.99C15.4692 123.702 15.3279 123.459 15.1466 123.262C14.9599 123.059 14.7386 122.904 14.4826 122.798C14.2266 122.691 13.9412 122.638 13.6266 122.638C13.2799 122.638 12.9972 122.718 12.7786 122.878C12.5546 123.032 12.3679 123.238 12.2186 123.494C12.0692 123.75 11.9439 124.043 11.8426 124.374C11.7359 124.704 11.6292 125.04 11.5226 125.382C11.4106 125.723 11.2826 126.059 11.1386 126.39C10.9946 126.72 10.8079 127.014 10.5786 127.27C10.3492 127.526 10.0639 127.734 9.72256 127.894C9.3759 128.048 8.94923 128.126 8.44256 128.126C8.03723 128.126 7.64523 128.048 7.26656 127.894C6.8879 127.734 6.5519 127.504 6.25856 127.206C5.96523 126.902 5.73056 126.531 5.55456 126.094C5.37856 125.651 5.29056 125.144 5.29056 124.574C5.29056 123.934 5.3919 123.352 5.59456 122.83C5.79723 122.302 6.09056 121.838 6.47456 121.438L7.21056 121.814ZM11.1546 118.11C11.8586 118.11 12.4906 118.014 13.0506 117.822C13.6052 117.63 14.0772 117.358 14.4666 117.006C14.8506 116.649 15.1466 116.219 15.3546 115.718C15.5572 115.217 15.6586 114.659 15.6586 114.046C15.6586 113.427 15.5572 112.867 15.3546 112.366C15.1466 111.865 14.8506 111.438 14.4666 111.086C14.0772 110.734 13.6052 110.462 13.0506 110.27C12.4906 110.078 11.8586 109.982 11.1546 109.982C10.4506 109.982 9.81856 110.078 9.25856 110.27C8.69856 110.462 8.22656 110.734 7.84256 111.086C7.45323 111.438 7.15456 111.865 6.94656 112.366C6.73856 112.867 6.63456 113.427 6.63456 114.046C6.63456 114.659 6.73856 115.217 6.94656 115.718C7.15456 116.219 7.45323 116.649 7.84256 117.006C8.22656 117.358 8.69856 117.63 9.25856 117.822C9.81856 118.014 10.4506 118.11 11.1546 118.11ZM19.2506 107.862L19.2506 109.142C19.2506 109.334 19.2239 109.505 19.1706 109.654C19.1172 109.803 19.0239 109.939 18.8906 110.062L16.6986 112.07C16.9012 112.678 17.0026 113.337 17.0026 114.046C17.0026 114.889 16.8612 115.657 16.5786 116.35C16.2906 117.043 15.8879 117.638 15.3706 118.134C14.8532 118.63 14.2372 119.014 13.5226 119.286C12.8026 119.558 12.0132 119.694 11.1546 119.694C10.2959 119.694 9.50923 119.558 8.79456 119.286C8.07456 119.014 7.4559 118.63 6.93856 118.134C6.4159 117.638 6.01056 117.043 5.72256 116.35C5.43456 115.657 5.29056 114.889 5.29056 114.046C5.29056 113.203 5.43456 112.435 5.72256 111.742C6.01056 111.043 6.4159 110.446 6.93856 109.95C7.4559 109.454 8.07456 109.07 8.79456 108.798C9.50923 108.526 10.2959 108.39 11.1546 108.39C11.6932 108.39 12.2052 108.446 12.6906 108.558C13.1759 108.665 13.6292 108.822 14.0506 109.03C14.4666 109.238 14.8452 109.491 15.1866 109.79C15.5279 110.089 15.8239 110.425 16.0746 110.798L19.2506 107.862ZM10.4426 104.634L10.4426 104.05C10.4426 103.847 10.4186 103.684 10.3706 103.562C10.3172 103.439 10.2292 103.327 10.1066 103.226L5.78656 99.4096C5.64789 99.3029 5.55189 99.1909 5.49856 99.0736C5.44523 98.9563 5.41856 98.8123 5.41856 98.6416L5.41856 97.3296L10.3546 101.698C10.4826 101.804 10.5892 101.908 10.6746 102.01C10.7546 102.106 10.8212 102.21 10.8746 102.322C10.9226 102.178 10.9946 102.047 11.0906 101.93C11.1812 101.812 11.3012 101.698 11.4506 101.586L16.8826 97.0256L16.8826 98.3696C16.8826 98.4709 16.8772 98.5589 16.8666 98.6336C16.8506 98.7029 16.8292 98.7643 16.8026 98.8176C16.7706 98.8709 16.7359 98.9189 16.6986 98.9616C16.6559 98.9989 16.6079 99.0363 16.5546 99.0736L12.0026 103.026C11.8692 103.132 11.7759 103.247 11.7226 103.37C11.6639 103.492 11.6346 103.679 11.6346 103.93L11.6346 104.634L16.8826 104.634L16.8826 106.178L5.41856 106.178L5.41856 104.634L10.4426 104.634ZM11.8506 94.7359C10.7092 94.7359 9.59989 94.8825 8.52256 95.1759C7.44523 95.4639 6.42123 95.8879 5.45056 96.4479C5.37056 96.4905 5.30123 96.5172 5.24256 96.5279C5.17856 96.5385 5.12523 96.5359 5.08256 96.5199C5.03456 96.5039 4.99456 96.4799 4.96256 96.4479C4.92523 96.4105 4.89323 96.3705 4.86656 96.3279L4.47456 95.6959C5.09323 95.2959 5.7039 94.9572 6.30656 94.6799C6.90923 94.3972 7.51456 94.1705 8.12256 93.9999C8.72523 93.8239 9.33589 93.6959 9.95456 93.6159C10.5732 93.5359 11.2052 93.4959 11.8506 93.4959C12.5012 93.4959 13.1359 93.5359 13.7546 93.6159C14.3679 93.6959 14.9786 93.8239 15.5866 93.9999C16.1946 94.1705 16.7999 94.3972 17.4026 94.6799C18.0052 94.9572 18.6132 95.2959 19.2266 95.6959L18.8426 96.3279C18.8159 96.3705 18.7839 96.4105 18.7466 96.4479C18.7146 96.4799 18.6746 96.5039 18.6266 96.5199C18.5839 96.5359 18.5306 96.5385 18.4666 96.5279C18.4026 96.5172 18.3306 96.4905 18.2506 96.4479C17.2799 95.8879 16.2559 95.4639 15.1786 95.1759C14.1012 94.8825 12.9919 94.7359 11.8506 94.7359Z" fill="white"/>
<path d="M45.7058 18.8991V19.7151H41.0978V18.8991H42.9398V13.0371C42.9398 12.8611 42.9458 12.6831 42.9578 12.5031L41.4278 13.8171C41.3758 13.8611 41.3238 13.8891 41.2718 13.9011C41.2198 13.9091 41.1718 13.9091 41.1278 13.9011C41.0838 13.8931 41.0418 13.8771 41.0018 13.8531C40.9658 13.8291 40.9378 13.8031 40.9178 13.7751L40.5818 13.3131L43.1438 11.0991H44.0138V18.8991H45.7058ZM53.1587 15.4191C53.1587 16.1711 53.0767 16.8231 52.9127 17.3751C52.7527 17.9231 52.5327 18.3771 52.2527 18.7371C51.9727 19.0971 51.6407 19.3651 51.2567 19.5411C50.8767 19.7171 50.4687 19.8051 50.0327 19.8051C49.5927 19.8051 49.1827 19.7171 48.8027 19.5411C48.4267 19.3651 48.0987 19.0971 47.8187 18.7371C47.5387 18.3771 47.3187 17.9231 47.1587 17.3751C46.9987 16.8231 46.9187 16.1711 46.9187 15.4191C46.9187 14.6671 46.9987 14.0151 47.1587 13.4631C47.3187 12.9111 47.5387 12.4551 47.8187 12.0951C48.0987 11.7311 48.4267 11.4611 48.8027 11.2851C49.1827 11.1091 49.5927 11.0211 50.0327 11.0211C50.4687 11.0211 50.8767 11.1091 51.2567 11.2851C51.6407 11.4611 51.9727 11.7311 52.2527 12.0951C52.5327 12.4551 52.7527 12.9111 52.9127 13.4631C53.0767 14.0151 53.1587 14.6671 53.1587 15.4191ZM52.0487 15.4191C52.0487 14.7631 51.9927 14.2131 51.8807 13.7691C51.7727 13.3211 51.6247 12.9611 51.4367 12.6891C51.2527 12.4171 51.0387 12.2231 50.7947 12.1071C50.5507 11.9871 50.2967 11.9271 50.0327 11.9271C49.7687 11.9271 49.5147 11.9871 49.2707 12.1071C49.0267 12.2231 48.8127 12.4171 48.6287 12.6891C48.4447 12.9611 48.2967 13.3211 48.1847 13.7691C48.0767 14.2131 48.0227 14.7631 48.0227 15.4191C48.0227 16.0751 48.0767 16.6251 48.1847 17.0691C48.2967 17.5131 48.4447 17.8711 48.6287 18.1431C48.8127 18.4151 49.0267 18.6111 49.2707 18.7311C49.5147 18.8471 49.7687 18.9051 50.0327 18.9051C50.2967 18.9051 50.5507 18.8471 50.7947 18.7311C51.0387 18.6111 51.2527 18.4151 51.4367 18.1431C51.6247 17.8711 51.7727 17.5131 51.8807 17.0691C51.9927 16.6251 52.0487 16.0751 52.0487 15.4191ZM60.1197 15.4191C60.1197 16.1711 60.0377 16.8231 59.8737 17.3751C59.7137 17.9231 59.4937 18.3771 59.2137 18.7371C58.9337 19.0971 58.6017 19.3651 58.2177 19.5411C57.8377 19.7171 57.4297 19.8051 56.9937 19.8051C56.5537 19.8051 56.1437 19.7171 55.7637 19.5411C55.3877 19.3651 55.0597 19.0971 54.7797 18.7371C54.4997 18.3771 54.2797 17.9231 54.1197 17.3751C53.9597 16.8231 53.8797 16.1711 53.8797 15.4191C53.8797 14.6671 53.9597 14.0151 54.1197 13.4631C54.2797 12.9111 54.4997 12.4551 54.7797 12.0951C55.0597 11.7311 55.3877 11.4611 55.7637 11.2851C56.1437 11.1091 56.5537 11.0211 56.9937 11.0211C57.4297 11.0211 57.8377 11.1091 58.2177 11.2851C58.6017 11.4611 58.9337 11.7311 59.2137 12.0951C59.4937 12.4551 59.7137 12.9111 59.8737 13.4631C60.0377 14.0151 60.1197 14.6671 60.1197 15.4191ZM59.0097 15.4191C59.0097 14.7631 58.9537 14.2131 58.8417 13.7691C58.7337 13.3211 58.5857 12.9611 58.3977 12.6891C58.2137 12.4171 57.9997 12.2231 57.7557 12.1071C57.5117 11.9871 57.2577 11.9271 56.9937 11.9271C56.7297 11.9271 56.4757 11.9871 56.2317 12.1071C55.9877 12.2231 55.7737 12.4171 55.5897 12.6891C55.4057 12.9611 55.2577 13.3211 55.1457 13.7691C55.0377 14.2131 54.9837 14.7631 54.9837 15.4191C54.9837 16.0751 55.0377 16.6251 55.1457 17.0691C55.2577 17.5131 55.4057 17.8711 55.5897 18.1431C55.7737 18.4151 55.9877 18.6111 56.2317 18.7311C56.4757 18.8471 56.7297 18.9051 56.9937 18.9051C57.2577 18.9051 57.5117 18.8471 57.7557 18.7311C57.9997 18.6111 58.2137 18.4151 58.3977 18.1431C58.5857 17.8711 58.7337 17.5131 58.8417 17.0691C58.9537 16.6251 59.0097 16.0751 59.0097 15.4191ZM64.8126 13.1931C64.8126 13.5291 64.7606 13.8311 64.6566 14.0991C64.5526 14.3631 64.4126 14.5871 64.2366 14.7711C64.0646 14.9511 63.8626 15.0891 63.6306 15.1851C63.4026 15.2811 63.1606 15.3291 62.9046 15.3291C62.6366 15.3291 62.3866 15.2811 62.1546 15.1851C61.9226 15.0891 61.7206 14.9511 61.5486 14.7711C61.3806 14.5871 61.2486 14.3631 61.1526 14.0991C61.0566 13.8311 61.0086 13.5291 61.0086 13.1931C61.0086 12.8491 61.0566 12.5431 61.1526 12.2751C61.2486 12.0071 61.3806 11.7811 61.5486 11.5971C61.7206 11.4131 61.9226 11.2731 62.1546 11.1771C62.3866 11.0811 62.6366 11.0331 62.9046 11.0331C63.1766 11.0331 63.4286 11.0811 63.6606 11.1771C63.8926 11.2731 64.0946 11.4131 64.2666 11.5971C64.4386 11.7811 64.5726 12.0071 64.6686 12.2751C64.7646 12.5431 64.8126 12.8491 64.8126 13.1931ZM63.9846 13.1931C63.9846 12.9291 63.9566 12.7051 63.9006 12.5211C63.8446 12.3371 63.7666 12.1871 63.6666 12.0711C63.5706 11.9511 63.4566 11.8651 63.3246 11.8131C63.1926 11.7611 63.0526 11.7351 62.9046 11.7351C62.7566 11.7351 62.6186 11.7611 62.4906 11.8131C62.3626 11.8651 62.2506 11.9511 62.1546 12.0711C62.0586 12.1871 61.9826 12.3371 61.9266 12.5211C61.8706 12.7051 61.8426 12.9291 61.8426 13.1931C61.8426 13.4531 61.8706 13.6751 61.9266 13.8591C61.9826 14.0391 62.0586 14.1871 62.1546 14.3031C62.2506 14.4151 62.3626 14.4971 62.4906 14.5491C62.6186 14.5971 62.7566 14.6211 62.9046 14.6211C63.0526 14.6211 63.1926 14.5971 63.3246 14.5491C63.4566 14.4971 63.5706 14.4151 63.6666 14.3031C63.7666 14.1871 63.8446 14.0391 63.9006 13.8591C63.9566 13.6751 63.9846 13.4531 63.9846 13.1931ZM67.8546 11.2971C67.8946 11.2491 67.9406 11.2071 67.9926 11.1711C68.0486 11.1351 68.1226 11.1171 68.2146 11.1171H68.9886L62.7006 19.5411C62.6646 19.5931 62.6186 19.6351 62.5626 19.6671C62.5066 19.6991 62.4386 19.7151 62.3586 19.7151H61.5726L67.8546 11.2971ZM69.5706 17.6871C69.5706 18.0231 69.5186 18.3231 69.4146 18.5871C69.3106 18.8511 69.1706 19.0751 68.9946 19.2591C68.8226 19.4391 68.6206 19.5771 68.3886 19.6731C68.1606 19.7691 67.9186 19.8171 67.6626 19.8171C67.3906 19.8171 67.1386 19.7691 66.9066 19.6731C66.6786 19.5771 66.4786 19.4391 66.3066 19.2591C66.1386 19.0751 66.0066 18.8511 65.9106 18.5871C65.8146 18.3231 65.7666 18.0231 65.7666 17.6871C65.7666 17.3431 65.8146 17.0371 65.9106 16.7691C66.0066 16.4971 66.1386 16.2691 66.3066 16.0851C66.4786 15.9011 66.6786 15.7611 66.9066 15.6651C67.1386 15.5691 67.3906 15.5211 67.6626 15.5211C67.9306 15.5211 68.1806 15.5691 68.4126 15.6651C68.6486 15.7611 68.8506 15.9011 69.0186 16.0851C69.1906 16.2691 69.3246 16.4971 69.4206 16.7691C69.5206 17.0371 69.5706 17.3431 69.5706 17.6871ZM68.7426 17.6871C68.7426 17.4231 68.7146 17.1991 68.6586 17.0151C68.6026 16.8271 68.5246 16.6751 68.4246 16.5591C68.3286 16.4431 68.2146 16.3591 68.0826 16.3071C67.9506 16.2551 67.8106 16.2291 67.6626 16.2291C67.5146 16.2291 67.3746 16.2551 67.2426 16.3071C67.1146 16.3591 67.0026 16.4431 66.9066 16.5591C66.8106 16.6751 66.7346 16.8271 66.6786 17.0151C66.6266 17.1991 66.6006 17.4231 66.6006 17.6871C66.6006 17.9471 66.6266 18.1671 66.6786 18.3471C66.7346 18.5271 66.8106 18.6751 66.9066 18.7911C67.0026 18.9031 67.1146 18.9851 67.2426 19.0371C67.3746 19.0851 67.5146 19.1091 67.6626 19.1091C67.8106 19.1091 67.9506 19.0851 68.0826 19.0371C68.2146 18.9851 68.3286 18.9031 68.4246 18.7911C68.5246 18.6751 68.6026 18.5271 68.6586 18.3471C68.7146 18.1671 68.7426 17.9471 68.7426 17.6871Z" fill="white"/>
<path d="M46.0838 88.1171V88.5971C46.0838 88.7331 46.0678 88.8451 46.0358 88.9331C46.0078 89.0211 45.9798 89.0951 45.9518 89.1551L42.3878 96.3371C42.3358 96.4411 42.2638 96.5311 42.1718 96.6071C42.0798 96.6791 41.9578 96.7151 41.8058 96.7151H41.0378L44.6498 89.6231C44.7018 89.5231 44.7558 89.4311 44.8118 89.3471C44.8678 89.2631 44.9278 89.1831 44.9918 89.1071H40.5038C40.4358 89.1071 40.3758 89.0811 40.3238 89.0291C40.2718 88.9731 40.2458 88.9111 40.2458 88.8431V88.1171H46.0838ZM48.7307 91.3631C49.1787 91.2671 49.5907 91.2191 49.9667 91.2191C50.4147 91.2191 50.8107 91.2851 51.1547 91.4171C51.4987 91.5491 51.7847 91.7311 52.0127 91.9631C52.2447 92.1951 52.4187 92.4691 52.5347 92.7851C52.6547 93.1011 52.7147 93.4451 52.7147 93.8171C52.7147 94.2731 52.6347 94.6851 52.4747 95.0531C52.3187 95.4211 52.1007 95.7371 51.8207 96.0011C51.5447 96.2611 51.2187 96.4611 50.8427 96.6011C50.4667 96.7411 50.0607 96.8111 49.6247 96.8111C49.3727 96.8111 49.1307 96.7851 48.8987 96.7331C48.6667 96.6851 48.4487 96.6191 48.2447 96.5351C48.0447 96.4511 47.8587 96.3551 47.6867 96.2471C47.5147 96.1391 47.3627 96.0251 47.2307 95.9051L47.5607 95.4491C47.6327 95.3451 47.7267 95.2931 47.8427 95.2931C47.9227 95.2931 48.0127 95.3251 48.1127 95.3891C48.2127 95.4491 48.3347 95.5171 48.4787 95.5931C48.6227 95.6691 48.7907 95.7391 48.9827 95.8031C49.1787 95.8631 49.4107 95.8931 49.6787 95.8931C49.9787 95.8931 50.2487 95.8451 50.4887 95.7491C50.7287 95.6531 50.9347 95.5171 51.1067 95.3411C51.2787 95.1611 51.4107 94.9471 51.5027 94.6991C51.5947 94.4511 51.6407 94.1731 51.6407 93.8651C51.6407 93.5971 51.6007 93.3551 51.5207 93.1391C51.4447 92.9231 51.3267 92.7391 51.1667 92.5871C51.0107 92.4351 50.8147 92.3171 50.5787 92.2331C50.3427 92.1491 50.0667 92.1071 49.7507 92.1071C49.5347 92.1071 49.3087 92.1251 49.0727 92.1611C48.8407 92.1971 48.6027 92.2551 48.3587 92.3351L47.6867 92.1371L48.3767 88.1171H52.4507V88.5851C52.4507 88.7371 52.4027 88.8631 52.3067 88.9631C52.2147 89.0591 52.0547 89.1071 51.8267 89.1071H49.1267L48.7307 91.3631ZM57.8517 90.1931C57.8517 90.5291 57.7997 90.8311 57.6957 91.0991C57.5917 91.3631 57.4517 91.5871 57.2757 91.7711C57.1037 91.9511 56.9017 92.0891 56.6697 92.1851C56.4417 92.2811 56.1997 92.3291 55.9437 92.3291C55.6757 92.3291 55.4257 92.2811 55.1937 92.1851C54.9617 92.0891 54.7597 91.9511 54.5877 91.7711C54.4197 91.5871 54.2877 91.3631 54.1917 91.0991C54.0957 90.8311 54.0477 90.5291 54.0477 90.1931C54.0477 89.8491 54.0957 89.5431 54.1917 89.2751C54.2877 89.0071 54.4197 88.7811 54.5877 88.5971C54.7597 88.4131 54.9617 88.2731 55.1937 88.1771C55.4257 88.0811 55.6757 88.0331 55.9437 88.0331C56.2157 88.0331 56.4677 88.0811 56.6997 88.1771C56.9317 88.2731 57.1337 88.4131 57.3057 88.5971C57.4777 88.7811 57.6117 89.0071 57.7077 89.2751C57.8037 89.5431 57.8517 89.8491 57.8517 90.1931ZM57.0237 90.1931C57.0237 89.9291 56.9957 89.7051 56.9397 89.5211C56.8837 89.3371 56.8057 89.1871 56.7057 89.0711C56.6097 88.9511 56.4957 88.8651 56.3637 88.8131C56.2317 88.7611 56.0917 88.7351 55.9437 88.7351C55.7957 88.7351 55.6577 88.7611 55.5297 88.8131C55.4017 88.8651 55.2897 88.9511 55.1937 89.0711C55.0977 89.1871 55.0217 89.3371 54.9657 89.5211C54.9097 89.7051 54.8817 89.9291 54.8817 90.1931C54.8817 90.4531 54.9097 90.6751 54.9657 90.8591C55.0217 91.0391 55.0977 91.1871 55.1937 91.3031C55.2897 91.4151 55.4017 91.4971 55.5297 91.5491C55.6577 91.5971 55.7957 91.6211 55.9437 91.6211C56.0917 91.6211 56.2317 91.5971 56.3637 91.5491C56.4957 91.4971 56.6097 91.4151 56.7057 91.3031C56.8057 91.1871 56.8837 91.0391 56.9397 90.8591C56.9957 90.6751 57.0237 90.4531 57.0237 90.1931ZM60.8937 88.2971C60.9337 88.2491 60.9797 88.2071 61.0317 88.1711C61.0877 88.1351 61.1617 88.1171 61.2537 88.1171H62.0277L55.7397 96.5411C55.7037 96.5931 55.6577 96.6351 55.6017 96.6671C55.5457 96.6991 55.4777 96.7151 55.3977 96.7151H54.6117L60.8937 88.2971ZM62.6097 94.6871C62.6097 95.0231 62.5577 95.3231 62.4537 95.5871C62.3497 95.8511 62.2097 96.0751 62.0337 96.2591C61.8617 96.4391 61.6597 96.5771 61.4277 96.6731C61.1997 96.7691 60.9577 96.8171 60.7017 96.8171C60.4297 96.8171 60.1777 96.7691 59.9457 96.6731C59.7177 96.5771 59.5177 96.4391 59.3457 96.2591C59.1777 96.0751 59.0457 95.8511 58.9497 95.5871C58.8537 95.3231 58.8057 95.0231 58.8057 94.6871C58.8057 94.3431 58.8537 94.0371 58.9497 93.7691C59.0457 93.4971 59.1777 93.2691 59.3457 93.0851C59.5177 92.9011 59.7177 92.7611 59.9457 92.6651C60.1777 92.5691 60.4297 92.5211 60.7017 92.5211C60.9697 92.5211 61.2197 92.5691 61.4517 92.6651C61.6877 92.7611 61.8897 92.9011 62.0577 93.0851C62.2297 93.2691 62.3637 93.4971 62.4597 93.7691C62.5597 94.0371 62.6097 94.3431 62.6097 94.6871ZM61.7817 94.6871C61.7817 94.4231 61.7537 94.1991 61.6977 94.0151C61.6417 93.8271 61.5637 93.6751 61.4637 93.5591C61.3677 93.4431 61.2537 93.3591 61.1217 93.3071C60.9897 93.2551 60.8497 93.2291 60.7017 93.2291C60.5537 93.2291 60.4137 93.2551 60.2817 93.3071C60.1537 93.3591 60.0417 93.4431 59.9457 93.5591C59.8497 93.6751 59.7737 93.8271 59.7177 94.0151C59.6657 94.1991 59.6397 94.4231 59.6397 94.6871C59.6397 94.9471 59.6657 95.1671 59.7177 95.3471C59.7737 95.5271 59.8497 95.6751 59.9457 95.7911C60.0417 95.9031 60.1537 95.9851 60.2817 96.0371C60.4137 96.0851 60.5537 96.1091 60.7017 96.1091C60.8497 96.1091 60.9897 96.0851 61.1217 96.0371C61.2537 95.9851 61.3677 95.9031 61.4637 95.7911C61.5637 95.6751 61.6417 95.5271 61.6977 95.3471C61.7537 95.1671 61.7817 94.9471 61.7817 94.6871Z" fill="white"/>
<path d="M41.7698 169.363C42.2178 169.267 42.6298 169.219 43.0058 169.219C43.4538 169.219 43.8498 169.285 44.1938 169.417C44.5378 169.549 44.8238 169.731 45.0518 169.963C45.2838 170.195 45.4578 170.469 45.5738 170.785C45.6938 171.101 45.7538 171.445 45.7538 171.817C45.7538 172.273 45.6738 172.685 45.5138 173.053C45.3578 173.421 45.1398 173.737 44.8598 174.001C44.5838 174.261 44.2578 174.461 43.8818 174.601C43.5058 174.741 43.0998 174.811 42.6638 174.811C42.4118 174.811 42.1698 174.785 41.9378 174.733C41.7058 174.685 41.4878 174.619 41.2838 174.535C41.0838 174.451 40.8978 174.355 40.7258 174.247C40.5538 174.139 40.4018 174.025 40.2698 173.905L40.5998 173.449C40.6718 173.345 40.7658 173.293 40.8818 173.293C40.9618 173.293 41.0518 173.325 41.1518 173.389C41.2518 173.449 41.3738 173.517 41.5178 173.593C41.6618 173.669 41.8298 173.739 42.0218 173.803C42.2178 173.863 42.4498 173.893 42.7178 173.893C43.0178 173.893 43.2878 173.845 43.5278 173.749C43.7678 173.653 43.9738 173.517 44.1458 173.341C44.3178 173.161 44.4498 172.947 44.5418 172.699C44.6338 172.451 44.6798 172.173 44.6798 171.865C44.6798 171.597 44.6398 171.355 44.5598 171.139C44.4838 170.923 44.3658 170.739 44.2058 170.587C44.0498 170.435 43.8538 170.317 43.6178 170.233C43.3818 170.149 43.1058 170.107 42.7898 170.107C42.5738 170.107 42.3478 170.125 42.1118 170.161C41.8798 170.197 41.6418 170.255 41.3978 170.335L40.7258 170.137L41.4158 166.117H45.4898V166.585C45.4898 166.737 45.4418 166.863 45.3458 166.963C45.2538 167.059 45.0938 167.107 44.8658 167.107H42.1658L41.7698 169.363ZM53.1587 170.419C53.1587 171.171 53.0767 171.823 52.9127 172.375C52.7527 172.923 52.5327 173.377 52.2527 173.737C51.9727 174.097 51.6407 174.365 51.2567 174.541C50.8767 174.717 50.4687 174.805 50.0327 174.805C49.5927 174.805 49.1827 174.717 48.8027 174.541C48.4267 174.365 48.0987 174.097 47.8187 173.737C47.5387 173.377 47.3187 172.923 47.1587 172.375C46.9987 171.823 46.9187 171.171 46.9187 170.419C46.9187 169.667 46.9987 169.015 47.1587 168.463C47.3187 167.911 47.5387 167.455 47.8187 167.095C48.0987 166.731 48.4267 166.461 48.8027 166.285C49.1827 166.109 49.5927 166.021 50.0327 166.021C50.4687 166.021 50.8767 166.109 51.2567 166.285C51.6407 166.461 51.9727 166.731 52.2527 167.095C52.5327 167.455 52.7527 167.911 52.9127 168.463C53.0767 169.015 53.1587 169.667 53.1587 170.419ZM52.0487 170.419C52.0487 169.763 51.9927 169.213 51.8807 168.769C51.7727 168.321 51.6247 167.961 51.4367 167.689C51.2527 167.417 51.0387 167.223 50.7947 167.107C50.5507 166.987 50.2967 166.927 50.0327 166.927C49.7687 166.927 49.5147 166.987 49.2707 167.107C49.0267 167.223 48.8127 167.417 48.6287 167.689C48.4447 167.961 48.2967 168.321 48.1847 168.769C48.0767 169.213 48.0227 169.763 48.0227 170.419C48.0227 171.075 48.0767 171.625 48.1847 172.069C48.2967 172.513 48.4447 172.871 48.6287 173.143C48.8127 173.415 49.0267 173.611 49.2707 173.731C49.5147 173.847 49.7687 173.905 50.0327 173.905C50.2967 173.905 50.5507 173.847 50.7947 173.731C51.0387 173.611 51.2527 173.415 51.4367 173.143C51.6247 172.871 51.7727 172.513 51.8807 172.069C51.9927 171.625 52.0487 171.075 52.0487 170.419ZM57.8517 168.193C57.8517 168.529 57.7997 168.831 57.6957 169.099C57.5917 169.363 57.4517 169.587 57.2757 169.771C57.1037 169.951 56.9017 170.089 56.6697 170.185C56.4417 170.281 56.1997 170.329 55.9437 170.329C55.6757 170.329 55.4257 170.281 55.1937 170.185C54.9617 170.089 54.7597 169.951 54.5877 169.771C54.4197 169.587 54.2877 169.363 54.1917 169.099C54.0957 168.831 54.0477 168.529 54.0477 168.193C54.0477 167.849 54.0957 167.543 54.1917 167.275C54.2877 167.007 54.4197 166.781 54.5877 166.597C54.7597 166.413 54.9617 166.273 55.1937 166.177C55.4257 166.081 55.6757 166.033 55.9437 166.033C56.2157 166.033 56.4677 166.081 56.6997 166.177C56.9317 166.273 57.1337 166.413 57.3057 166.597C57.4777 166.781 57.6117 167.007 57.7077 167.275C57.8037 167.543 57.8517 167.849 57.8517 168.193ZM57.0237 168.193C57.0237 167.929 56.9957 167.705 56.9397 167.521C56.8837 167.337 56.8057 167.187 56.7057 167.071C56.6097 166.951 56.4957 166.865 56.3637 166.813C56.2317 166.761 56.0917 166.735 55.9437 166.735C55.7957 166.735 55.6577 166.761 55.5297 166.813C55.4017 166.865 55.2897 166.951 55.1937 167.071C55.0977 167.187 55.0217 167.337 54.9657 167.521C54.9097 167.705 54.8817 167.929 54.8817 168.193C54.8817 168.453 54.9097 168.675 54.9657 168.859C55.0217 169.039 55.0977 169.187 55.1937 169.303C55.2897 169.415 55.4017 169.497 55.5297 169.549C55.6577 169.597 55.7957 169.621 55.9437 169.621C56.0917 169.621 56.2317 169.597 56.3637 169.549C56.4957 169.497 56.6097 169.415 56.7057 169.303C56.8057 169.187 56.8837 169.039 56.9397 168.859C56.9957 168.675 57.0237 168.453 57.0237 168.193ZM60.8937 166.297C60.9337 166.249 60.9797 166.207 61.0317 166.171C61.0877 166.135 61.1617 166.117 61.2537 166.117H62.0277L55.7397 174.541C55.7037 174.593 55.6577 174.635 55.6017 174.667C55.5457 174.699 55.4777 174.715 55.3977 174.715H54.6117L60.8937 166.297ZM62.6097 172.687C62.6097 173.023 62.5577 173.323 62.4537 173.587C62.3497 173.851 62.2097 174.075 62.0337 174.259C61.8617 174.439 61.6597 174.577 61.4277 174.673C61.1997 174.769 60.9577 174.817 60.7017 174.817C60.4297 174.817 60.1777 174.769 59.9457 174.673C59.7177 174.577 59.5177 174.439 59.3457 174.259C59.1777 174.075 59.0457 173.851 58.9497 173.587C58.8537 173.323 58.8057 173.023 58.8057 172.687C58.8057 172.343 58.8537 172.037 58.9497 171.769C59.0457 171.497 59.1777 171.269 59.3457 171.085C59.5177 170.901 59.7177 170.761 59.9457 170.665C60.1777 170.569 60.4297 170.521 60.7017 170.521C60.9697 170.521 61.2197 170.569 61.4517 170.665C61.6877 170.761 61.8897 170.901 62.0577 171.085C62.2297 171.269 62.3637 171.497 62.4597 171.769C62.5597 172.037 62.6097 172.343 62.6097 172.687ZM61.7817 172.687C61.7817 172.423 61.7537 172.199 61.6977 172.015C61.6417 171.827 61.5637 171.675 61.4637 171.559C61.3677 171.443 61.2537 171.359 61.1217 171.307C60.9897 171.255 60.8497 171.229 60.7017 171.229C60.5537 171.229 60.4137 171.255 60.2817 171.307C60.1537 171.359 60.0417 171.443 59.9457 171.559C59.8497 171.675 59.7737 171.827 59.7177 172.015C59.6657 172.199 59.6397 172.423 59.6397 172.687C59.6397 172.947 59.6657 173.167 59.7177 173.347C59.7737 173.527 59.8497 173.675 59.9457 173.791C60.0417 173.903 60.1537 173.985 60.2817 174.037C60.4137 174.085 60.5537 174.109 60.7017 174.109C60.8497 174.109 60.9897 174.085 61.1217 174.037C61.2537 173.985 61.3677 173.903 61.4637 173.791C61.5637 173.675 61.6417 173.527 61.6977 173.347C61.7537 173.167 61.7817 172.947 61.7817 172.687Z" fill="white"/>
<path d="M45.5198 253.701C45.6358 253.701 45.7278 253.735 45.7958 253.803C45.8638 253.871 45.8978 253.959 45.8978 254.067V254.715H40.1618V254.349C40.1618 254.273 40.1778 254.195 40.2098 254.115C40.2418 254.035 40.2918 253.961 40.3598 253.893L43.1138 251.127C43.3418 250.895 43.5498 250.673 43.7378 250.461C43.9258 250.245 44.0858 250.029 44.2178 249.813C44.3498 249.597 44.4518 249.379 44.5238 249.159C44.5958 248.935 44.6318 248.697 44.6318 248.445C44.6318 248.193 44.5918 247.973 44.5118 247.785C44.4318 247.593 44.3218 247.435 44.1818 247.311C44.0458 247.187 43.8838 247.095 43.6958 247.035C43.5078 246.971 43.3058 246.939 43.0898 246.939C42.8698 246.939 42.6678 246.971 42.4838 247.035C42.2998 247.099 42.1358 247.189 41.9918 247.305C41.8518 247.417 41.7338 247.551 41.6378 247.707C41.5418 247.863 41.4738 248.035 41.4338 248.223C41.3858 248.363 41.3198 248.457 41.2358 248.505C41.1558 248.549 41.0418 248.561 40.8938 248.541L40.3358 248.445C40.3918 248.053 40.4998 247.707 40.6598 247.407C40.8238 247.103 41.0278 246.849 41.2718 246.645C41.5198 246.441 41.8018 246.287 42.1178 246.183C42.4338 246.075 42.7758 246.021 43.1438 246.021C43.5078 246.021 43.8478 246.075 44.1638 246.183C44.4798 246.291 44.7538 246.449 44.9858 246.657C45.2178 246.861 45.3998 247.111 45.5318 247.407C45.6638 247.703 45.7298 248.039 45.7298 248.415C45.7298 248.735 45.6818 249.033 45.5858 249.309C45.4898 249.581 45.3598 249.841 45.1958 250.089C45.0318 250.337 44.8418 250.579 44.6258 250.815C44.4138 251.051 44.1878 251.289 43.9478 251.529L41.6798 253.845C41.8398 253.801 42.0018 253.767 42.1658 253.743C42.3298 253.715 42.4878 253.701 42.6398 253.701H45.5198ZM48.7307 249.363C49.1787 249.267 49.5907 249.219 49.9667 249.219C50.4147 249.219 50.8107 249.285 51.1547 249.417C51.4987 249.549 51.7847 249.731 52.0127 249.963C52.2447 250.195 52.4187 250.469 52.5347 250.785C52.6547 251.101 52.7147 251.445 52.7147 251.817C52.7147 252.273 52.6347 252.685 52.4747 253.053C52.3187 253.421 52.1007 253.737 51.8207 254.001C51.5447 254.261 51.2187 254.461 50.8427 254.601C50.4667 254.741 50.0607 254.811 49.6247 254.811C49.3727 254.811 49.1307 254.785 48.8987 254.733C48.6667 254.685 48.4487 254.619 48.2447 254.535C48.0447 254.451 47.8587 254.355 47.6867 254.247C47.5147 254.139 47.3627 254.025 47.2307 253.905L47.5607 253.449C47.6327 253.345 47.7267 253.293 47.8427 253.293C47.9227 253.293 48.0127 253.325 48.1127 253.389C48.2127 253.449 48.3347 253.517 48.4787 253.593C48.6227 253.669 48.7907 253.739 48.9827 253.803C49.1787 253.863 49.4107 253.893 49.6787 253.893C49.9787 253.893 50.2487 253.845 50.4887 253.749C50.7287 253.653 50.9347 253.517 51.1067 253.341C51.2787 253.161 51.4107 252.947 51.5027 252.699C51.5947 252.451 51.6407 252.173 51.6407 251.865C51.6407 251.597 51.6007 251.355 51.5207 251.139C51.4447 250.923 51.3267 250.739 51.1667 250.587C51.0107 250.435 50.8147 250.317 50.5787 250.233C50.3427 250.149 50.0667 250.107 49.7507 250.107C49.5347 250.107 49.3087 250.125 49.0727 250.161C48.8407 250.197 48.6027 250.255 48.3587 250.335L47.6867 250.137L48.3767 246.117H52.4507V246.585C52.4507 246.737 52.4027 246.863 52.3067 246.963C52.2147 247.059 52.0547 247.107 51.8267 247.107H49.1267L48.7307 249.363ZM57.8517 248.193C57.8517 248.529 57.7997 248.831 57.6957 249.099C57.5917 249.363 57.4517 249.587 57.2757 249.771C57.1037 249.951 56.9017 250.089 56.6697 250.185C56.4417 250.281 56.1997 250.329 55.9437 250.329C55.6757 250.329 55.4257 250.281 55.1937 250.185C54.9617 250.089 54.7597 249.951 54.5877 249.771C54.4197 249.587 54.2877 249.363 54.1917 249.099C54.0957 248.831 54.0477 248.529 54.0477 248.193C54.0477 247.849 54.0957 247.543 54.1917 247.275C54.2877 247.007 54.4197 246.781 54.5877 246.597C54.7597 246.413 54.9617 246.273 55.1937 246.177C55.4257 246.081 55.6757 246.033 55.9437 246.033C56.2157 246.033 56.4677 246.081 56.6997 246.177C56.9317 246.273 57.1337 246.413 57.3057 246.597C57.4777 246.781 57.6117 247.007 57.7077 247.275C57.8037 247.543 57.8517 247.849 57.8517 248.193ZM57.0237 248.193C57.0237 247.929 56.9957 247.705 56.9397 247.521C56.8837 247.337 56.8057 247.187 56.7057 247.071C56.6097 246.951 56.4957 246.865 56.3637 246.813C56.2317 246.761 56.0917 246.735 55.9437 246.735C55.7957 246.735 55.6577 246.761 55.5297 246.813C55.4017 246.865 55.2897 246.951 55.1937 247.071C55.0977 247.187 55.0217 247.337 54.9657 247.521C54.9097 247.705 54.8817 247.929 54.8817 248.193C54.8817 248.453 54.9097 248.675 54.9657 248.859C55.0217 249.039 55.0977 249.187 55.1937 249.303C55.2897 249.415 55.4017 249.497 55.5297 249.549C55.6577 249.597 55.7957 249.621 55.9437 249.621C56.0917 249.621 56.2317 249.597 56.3637 249.549C56.4957 249.497 56.6097 249.415 56.7057 249.303C56.8057 249.187 56.8837 249.039 56.9397 248.859C56.9957 248.675 57.0237 248.453 57.0237 248.193ZM60.8937 246.297C60.9337 246.249 60.9797 246.207 61.0317 246.171C61.0877 246.135 61.1617 246.117 61.2537 246.117H62.0277L55.7397 254.541C55.7037 254.593 55.6577 254.635 55.6017 254.667C55.5457 254.699 55.4777 254.715 55.3977 254.715H54.6117L60.8937 246.297ZM62.6097 252.687C62.6097 253.023 62.5577 253.323 62.4537 253.587C62.3497 253.851 62.2097 254.075 62.0337 254.259C61.8617 254.439 61.6597 254.577 61.4277 254.673C61.1997 254.769 60.9577 254.817 60.7017 254.817C60.4297 254.817 60.1777 254.769 59.9457 254.673C59.7177 254.577 59.5177 254.439 59.3457 254.259C59.1777 254.075 59.0457 253.851 58.9497 253.587C58.8537 253.323 58.8057 253.023 58.8057 252.687C58.8057 252.343 58.8537 252.037 58.9497 251.769C59.0457 251.497 59.1777 251.269 59.3457 251.085C59.5177 250.901 59.7177 250.761 59.9457 250.665C60.1777 250.569 60.4297 250.521 60.7017 250.521C60.9697 250.521 61.2197 250.569 61.4517 250.665C61.6877 250.761 61.8897 250.901 62.0577 251.085C62.2297 251.269 62.3637 251.497 62.4597 251.769C62.5597 252.037 62.6097 252.343 62.6097 252.687ZM61.7817 252.687C61.7817 252.423 61.7537 252.199 61.6977 252.015C61.6417 251.827 61.5637 251.675 61.4637 251.559C61.3677 251.443 61.2537 251.359 61.1217 251.307C60.9897 251.255 60.8497 251.229 60.7017 251.229C60.5537 251.229 60.4137 251.255 60.2817 251.307C60.1537 251.359 60.0417 251.443 59.9457 251.559C59.8497 251.675 59.7737 251.827 59.7177 252.015C59.6657 252.199 59.6397 252.423 59.6397 252.687C59.6397 252.947 59.6657 253.167 59.7177 253.347C59.7737 253.527 59.8497 253.675 59.9457 253.791C60.0417 253.903 60.1537 253.985 60.2817 254.037C60.4137 254.085 60.5537 254.109 60.7017 254.109C60.8497 254.109 60.9897 254.085 61.1217 254.037C61.2537 253.985 61.3677 253.903 61.4637 253.791C61.5637 253.675 61.6417 253.527 61.6977 253.347C61.7537 253.167 61.7817 252.947 61.7817 252.687Z" fill="white"/>
<path d="M46.1978 326.419C46.1978 327.171 46.1158 327.823 45.9518 328.375C45.7918 328.923 45.5718 329.377 45.2918 329.737C45.0118 330.097 44.6798 330.365 44.2958 330.541C43.9158 330.717 43.5078 330.805 43.0718 330.805C42.6318 330.805 42.2218 330.717 41.8418 330.541C41.4658 330.365 41.1378 330.097 40.8578 329.737C40.5778 329.377 40.3578 328.923 40.1978 328.375C40.0378 327.823 39.9578 327.171 39.9578 326.419C39.9578 325.667 40.0378 325.015 40.1978 324.463C40.3578 323.911 40.5778 323.455 40.8578 323.095C41.1378 322.731 41.4658 322.461 41.8418 322.285C42.2218 322.109 42.6318 322.021 43.0718 322.021C43.5078 322.021 43.9158 322.109 44.2958 322.285C44.6798 322.461 45.0118 322.731 45.2918 323.095C45.5718 323.455 45.7918 323.911 45.9518 324.463C46.1158 325.015 46.1978 325.667 46.1978 326.419ZM45.0878 326.419C45.0878 325.763 45.0318 325.213 44.9198 324.769C44.8118 324.321 44.6638 323.961 44.4758 323.689C44.2918 323.417 44.0778 323.223 43.8338 323.107C43.5898 322.987 43.3358 322.927 43.0718 322.927C42.8078 322.927 42.5538 322.987 42.3098 323.107C42.0658 323.223 41.8518 323.417 41.6678 323.689C41.4838 323.961 41.3358 324.321 41.2238 324.769C41.1158 325.213 41.0618 325.763 41.0618 326.419C41.0618 327.075 41.1158 327.625 41.2238 328.069C41.3358 328.513 41.4838 328.871 41.6678 329.143C41.8518 329.415 42.0658 329.611 42.3098 329.731C42.5538 329.847 42.8078 329.905 43.0718 329.905C43.3358 329.905 43.5898 329.847 43.8338 329.731C44.0778 329.611 44.2918 329.415 44.4758 329.143C44.6638 328.871 44.8118 328.513 44.9198 328.069C45.0318 327.625 45.0878 327.075 45.0878 326.419ZM50.8907 324.193C50.8907 324.529 50.8387 324.831 50.7347 325.099C50.6307 325.363 50.4907 325.587 50.3147 325.771C50.1427 325.951 49.9407 326.089 49.7087 326.185C49.4807 326.281 49.2387 326.329 48.9827 326.329C48.7147 326.329 48.4647 326.281 48.2327 326.185C48.0007 326.089 47.7987 325.951 47.6267 325.771C47.4587 325.587 47.3267 325.363 47.2307 325.099C47.1347 324.831 47.0867 324.529 47.0867 324.193C47.0867 323.849 47.1347 323.543 47.2307 323.275C47.3267 323.007 47.4587 322.781 47.6267 322.597C47.7987 322.413 48.0007 322.273 48.2327 322.177C48.4647 322.081 48.7147 322.033 48.9827 322.033C49.2547 322.033 49.5067 322.081 49.7387 322.177C49.9707 322.273 50.1727 322.413 50.3447 322.597C50.5167 322.781 50.6507 323.007 50.7467 323.275C50.8427 323.543 50.8907 323.849 50.8907 324.193ZM50.0627 324.193C50.0627 323.929 50.0347 323.705 49.9787 323.521C49.9227 323.337 49.8447 323.187 49.7447 323.071C49.6487 322.951 49.5347 322.865 49.4027 322.813C49.2707 322.761 49.1307 322.735 48.9827 322.735C48.8347 322.735 48.6967 322.761 48.5687 322.813C48.4407 322.865 48.3287 322.951 48.2327 323.071C48.1367 323.187 48.0607 323.337 48.0047 323.521C47.9487 323.705 47.9207 323.929 47.9207 324.193C47.9207 324.453 47.9487 324.675 48.0047 324.859C48.0607 325.039 48.1367 325.187 48.2327 325.303C48.3287 325.415 48.4407 325.497 48.5687 325.549C48.6967 325.597 48.8347 325.621 48.9827 325.621C49.1307 325.621 49.2707 325.597 49.4027 325.549C49.5347 325.497 49.6487 325.415 49.7447 325.303C49.8447 325.187 49.9227 325.039 49.9787 324.859C50.0347 324.675 50.0627 324.453 50.0627 324.193ZM53.9327 322.297C53.9727 322.249 54.0187 322.207 54.0707 322.171C54.1267 322.135 54.2007 322.117 54.2927 322.117H55.0667L48.7787 330.541C48.7427 330.593 48.6967 330.635 48.6407 330.667C48.5847 330.699 48.5167 330.715 48.4367 330.715H47.6507L53.9327 322.297ZM55.6487 328.687C55.6487 329.023 55.5967 329.323 55.4927 329.587C55.3887 329.851 55.2487 330.075 55.0727 330.259C54.9007 330.439 54.6987 330.577 54.4667 330.673C54.2387 330.769 53.9967 330.817 53.7407 330.817C53.4687 330.817 53.2167 330.769 52.9847 330.673C52.7567 330.577 52.5567 330.439 52.3847 330.259C52.2167 330.075 52.0847 329.851 51.9887 329.587C51.8927 329.323 51.8447 329.023 51.8447 328.687C51.8447 328.343 51.8927 328.037 51.9887 327.769C52.0847 327.497 52.2167 327.269 52.3847 327.085C52.5567 326.901 52.7567 326.761 52.9847 326.665C53.2167 326.569 53.4687 326.521 53.7407 326.521C54.0087 326.521 54.2587 326.569 54.4907 326.665C54.7267 326.761 54.9287 326.901 55.0967 327.085C55.2687 327.269 55.4027 327.497 55.4987 327.769C55.5987 328.037 55.6487 328.343 55.6487 328.687ZM54.8207 328.687C54.8207 328.423 54.7927 328.199 54.7367 328.015C54.6807 327.827 54.6027 327.675 54.5027 327.559C54.4067 327.443 54.2927 327.359 54.1607 327.307C54.0287 327.255 53.8887 327.229 53.7407 327.229C53.5927 327.229 53.4527 327.255 53.3207 327.307C53.1927 327.359 53.0807 327.443 52.9847 327.559C52.8887 327.675 52.8127 327.827 52.7567 328.015C52.7047 328.199 52.6787 328.423 52.6787 328.687C52.6787 328.947 52.7047 329.167 52.7567 329.347C52.8127 329.527 52.8887 329.675 52.9847 329.791C53.0807 329.903 53.1927 329.985 53.3207 330.037C53.4527 330.085 53.5927 330.109 53.7407 330.109C53.8887 330.109 54.0287 330.085 54.1607 330.037C54.2927 329.985 54.4067 329.903 54.5027 329.791C54.6027 329.675 54.6807 329.527 54.7367 329.347C54.7927 329.167 54.8207 328.947 54.8207 328.687Z" fill="white"/>
<path d="M258.099 381.84H254.387V392H252.843V381.84H249.123V380.536H258.099V381.84ZM260.921 383.896V392H259.497V383.896H260.921ZM261.225 381.352C261.225 381.491 261.196 381.621 261.137 381.744C261.084 381.861 261.009 381.968 260.913 382.064C260.822 382.155 260.713 382.227 260.585 382.28C260.462 382.333 260.332 382.36 260.193 382.36C260.054 382.36 259.924 382.333 259.801 382.28C259.684 382.227 259.58 382.155 259.489 382.064C259.398 381.968 259.326 381.861 259.273 381.744C259.22 381.621 259.193 381.491 259.193 381.352C259.193 381.213 259.22 381.083 259.273 380.96C259.326 380.832 259.398 380.723 259.489 380.632C259.58 380.536 259.684 380.461 259.801 380.408C259.924 380.355 260.054 380.328 260.193 380.328C260.332 380.328 260.462 380.355 260.585 380.408C260.713 380.461 260.822 380.536 260.913 380.632C261.009 380.723 261.084 380.832 261.137 380.96C261.196 381.083 261.225 381.213 261.225 381.352ZM263.261 392V383.896H264.117C264.319 383.896 264.445 383.995 264.493 384.192L264.597 385.024C264.895 384.656 265.231 384.355 265.605 384.12C265.978 383.885 266.41 383.768 266.901 383.768C267.445 383.768 267.885 383.92 268.221 384.224C268.562 384.528 268.807 384.939 268.957 385.456C269.074 385.163 269.223 384.909 269.405 384.696C269.591 384.483 269.799 384.307 270.029 384.168C270.258 384.029 270.501 383.928 270.757 383.864C271.018 383.8 271.282 383.768 271.549 383.768C271.975 383.768 272.354 383.837 272.685 383.976C273.021 384.109 273.303 384.307 273.533 384.568C273.767 384.829 273.946 385.152 274.069 385.536C274.191 385.915 274.253 386.349 274.253 386.84V392H272.821V386.84C272.821 386.205 272.682 385.725 272.405 385.4C272.127 385.069 271.727 384.904 271.205 384.904C270.97 384.904 270.746 384.947 270.533 385.032C270.325 385.112 270.141 385.232 269.981 385.392C269.821 385.552 269.693 385.755 269.597 386C269.506 386.24 269.461 386.52 269.461 386.84V392H268.029V386.84C268.029 386.189 267.898 385.704 267.637 385.384C267.375 385.064 266.994 384.904 266.493 384.904C266.141 384.904 265.815 385 265.517 385.192C265.218 385.379 264.943 385.635 264.693 385.96V392H263.261ZM281.841 387.064C281.841 386.733 281.793 386.432 281.697 386.16C281.606 385.883 281.47 385.645 281.289 385.448C281.113 385.245 280.897 385.091 280.641 384.984C280.385 384.872 280.094 384.816 279.769 384.816C279.086 384.816 278.545 385.016 278.145 385.416C277.75 385.811 277.505 386.36 277.409 387.064H281.841ZM282.993 390.864C282.817 391.077 282.606 391.264 282.361 391.424C282.116 391.579 281.852 391.707 281.569 391.808C281.292 391.909 281.004 391.984 280.705 392.032C280.406 392.085 280.11 392.112 279.817 392.112C279.257 392.112 278.74 392.019 278.265 391.832C277.796 391.64 277.388 391.363 277.041 391C276.7 390.632 276.433 390.179 276.241 389.64C276.049 389.101 275.953 388.483 275.953 387.784C275.953 387.219 276.038 386.691 276.209 386.2C276.385 385.709 276.636 385.285 276.961 384.928C277.286 384.565 277.684 384.283 278.153 384.08C278.622 383.872 279.15 383.768 279.737 383.768C280.222 383.768 280.67 383.851 281.081 384.016C281.497 384.176 281.854 384.411 282.153 384.72C282.457 385.024 282.694 385.403 282.865 385.856C283.036 386.304 283.121 386.816 283.121 387.392C283.121 387.616 283.097 387.765 283.049 387.84C283.001 387.915 282.91 387.952 282.777 387.952H277.361C277.377 388.464 277.446 388.909 277.569 389.288C277.697 389.667 277.873 389.984 278.097 390.24C278.321 390.491 278.588 390.68 278.897 390.808C279.206 390.931 279.553 390.992 279.937 390.992C280.294 390.992 280.601 390.952 280.857 390.872C281.118 390.787 281.342 390.696 281.529 390.6C281.716 390.504 281.87 390.416 281.993 390.336C282.121 390.251 282.23 390.208 282.321 390.208C282.438 390.208 282.529 390.253 282.593 390.344L282.993 390.864ZM289.796 386.968C289.796 388.109 289.94 389.219 290.228 390.296C290.521 391.373 290.948 392.397 291.508 393.368C291.593 393.533 291.614 393.659 291.572 393.744C291.529 393.835 291.468 393.907 291.388 393.96L290.756 394.344C290.356 393.731 290.014 393.123 289.732 392.52C289.454 391.917 289.228 391.312 289.052 390.704C288.881 390.096 288.756 389.485 288.676 388.872C288.596 388.253 288.556 387.619 288.556 386.968C288.556 386.323 288.596 385.691 288.676 385.072C288.756 384.453 288.881 383.843 289.052 383.24C289.228 382.632 289.454 382.027 289.732 381.424C290.014 380.821 290.356 380.211 290.756 379.592L291.388 379.984C291.468 380.037 291.529 380.109 291.572 380.2C291.614 380.285 291.593 380.408 291.508 380.568C290.948 381.539 290.521 382.563 290.228 383.64C289.94 384.717 289.796 385.827 289.796 386.968ZM300.065 383.896L295.545 394.392C295.497 394.499 295.436 394.584 295.361 394.648C295.292 394.712 295.183 394.744 295.033 394.744H293.977L295.457 391.528L292.113 383.896H293.345C293.468 383.896 293.564 383.928 293.633 383.992C293.708 384.051 293.759 384.117 293.785 384.192L295.953 389.296C296.039 389.52 296.111 389.755 296.169 390C296.244 389.749 296.324 389.512 296.409 389.288L298.513 384.192C298.545 384.107 298.599 384.037 298.673 383.984C298.753 383.925 298.841 383.896 298.937 383.896H300.065ZM306.528 387.064C306.528 386.733 306.48 386.432 306.384 386.16C306.294 385.883 306.158 385.645 305.976 385.448C305.8 385.245 305.584 385.091 305.328 384.984C305.072 384.872 304.782 384.816 304.456 384.816C303.774 384.816 303.232 385.016 302.832 385.416C302.438 385.811 302.192 386.36 302.096 387.064H306.528ZM307.68 390.864C307.504 391.077 307.294 391.264 307.048 391.424C306.803 391.579 306.539 391.707 306.256 391.808C305.979 391.909 305.691 391.984 305.392 392.032C305.094 392.085 304.798 392.112 304.504 392.112C303.944 392.112 303.427 392.019 302.952 391.832C302.483 391.64 302.075 391.363 301.728 391C301.387 390.632 301.12 390.179 300.928 389.64C300.736 389.101 300.64 388.483 300.64 387.784C300.64 387.219 300.726 386.691 300.896 386.2C301.072 385.709 301.323 385.285 301.648 384.928C301.974 384.565 302.371 384.283 302.84 384.08C303.31 383.872 303.838 383.768 304.424 383.768C304.91 383.768 305.358 383.851 305.768 384.016C306.184 384.176 306.542 384.411 306.84 384.72C307.144 385.024 307.382 385.403 307.552 385.856C307.723 386.304 307.808 386.816 307.808 387.392C307.808 387.616 307.784 387.765 307.736 387.84C307.688 387.915 307.598 387.952 307.464 387.952H302.048C302.064 388.464 302.134 388.909 302.256 389.288C302.384 389.667 302.56 389.984 302.784 390.24C303.008 390.491 303.275 390.68 303.584 390.808C303.894 390.931 304.24 390.992 304.624 390.992C304.982 390.992 305.288 390.952 305.544 390.872C305.806 390.787 306.03 390.696 306.216 390.6C306.403 390.504 306.558 390.416 306.68 390.336C306.808 390.251 306.918 390.208 307.008 390.208C307.126 390.208 307.216 390.253 307.28 390.344L307.68 390.864ZM313.95 388.352C313.294 388.373 312.734 388.427 312.27 388.512C311.811 388.592 311.435 388.699 311.142 388.832C310.854 388.965 310.643 389.123 310.51 389.304C310.382 389.485 310.318 389.688 310.318 389.912C310.318 390.125 310.352 390.309 310.422 390.464C310.491 390.619 310.584 390.747 310.702 390.848C310.824 390.944 310.966 391.016 311.126 391.064C311.291 391.107 311.467 391.128 311.654 391.128C311.904 391.128 312.134 391.104 312.342 391.056C312.55 391.003 312.744 390.928 312.926 390.832C313.112 390.736 313.288 390.621 313.454 390.488C313.624 390.355 313.79 390.203 313.95 390.032V388.352ZM309.35 385.04C309.798 384.608 310.28 384.285 310.798 384.072C311.315 383.859 311.888 383.752 312.518 383.752C312.971 383.752 313.374 383.827 313.726 383.976C314.078 384.125 314.374 384.333 314.614 384.6C314.854 384.867 315.035 385.189 315.158 385.568C315.28 385.947 315.342 386.363 315.342 386.816V392H314.71C314.571 392 314.464 391.979 314.39 391.936C314.315 391.888 314.256 391.797 314.214 391.664L314.054 390.896C313.84 391.093 313.632 391.269 313.43 391.424C313.227 391.573 313.014 391.701 312.79 391.808C312.566 391.909 312.326 391.987 312.07 392.04C311.819 392.099 311.539 392.128 311.23 392.128C310.915 392.128 310.619 392.085 310.342 392C310.064 391.909 309.822 391.776 309.614 391.6C309.411 391.424 309.248 391.203 309.126 390.936C309.008 390.664 308.95 390.344 308.95 389.976C308.95 389.656 309.038 389.349 309.214 389.056C309.39 388.757 309.675 388.493 310.07 388.264C310.464 388.035 310.979 387.848 311.614 387.704C312.248 387.555 313.027 387.469 313.95 387.448V386.816C313.95 386.187 313.814 385.712 313.542 385.392C313.27 385.067 312.872 384.904 312.35 384.904C311.998 384.904 311.702 384.949 311.462 385.04C311.227 385.125 311.022 385.224 310.846 385.336C310.675 385.443 310.526 385.541 310.398 385.632C310.275 385.717 310.152 385.76 310.03 385.76C309.934 385.76 309.851 385.736 309.782 385.688C309.712 385.635 309.654 385.571 309.606 385.496L309.35 385.04ZM318.863 385.52C319.119 384.965 319.433 384.533 319.807 384.224C320.18 383.909 320.636 383.752 321.175 383.752C321.345 383.752 321.508 383.771 321.663 383.808C321.823 383.845 321.964 383.904 322.087 383.984L321.983 385.048C321.951 385.181 321.871 385.248 321.743 385.248C321.668 385.248 321.559 385.232 321.415 385.2C321.271 385.168 321.108 385.152 320.927 385.152C320.671 385.152 320.441 385.189 320.239 385.264C320.041 385.339 319.863 385.451 319.703 385.6C319.548 385.744 319.407 385.925 319.279 386.144C319.156 386.357 319.044 386.603 318.943 386.88V392H317.511V383.896H318.327C318.481 383.896 318.588 383.925 318.647 383.984C318.705 384.043 318.745 384.144 318.767 384.288L318.863 385.52ZM328.012 385.232C327.948 385.349 327.849 385.408 327.716 385.408C327.636 385.408 327.545 385.379 327.444 385.32C327.343 385.261 327.217 385.197 327.068 385.128C326.924 385.053 326.751 384.987 326.548 384.928C326.345 384.864 326.105 384.832 325.828 384.832C325.588 384.832 325.372 384.864 325.18 384.928C324.988 384.987 324.823 385.069 324.684 385.176C324.551 385.283 324.447 385.408 324.372 385.552C324.303 385.691 324.268 385.843 324.268 386.008C324.268 386.216 324.327 386.389 324.444 386.528C324.567 386.667 324.727 386.787 324.924 386.888C325.121 386.989 325.345 387.08 325.596 387.16C325.847 387.235 326.103 387.317 326.364 387.408C326.631 387.493 326.889 387.589 327.14 387.696C327.391 387.803 327.615 387.936 327.812 388.096C328.009 388.256 328.167 388.453 328.284 388.688C328.407 388.917 328.468 389.195 328.468 389.52C328.468 389.893 328.401 390.24 328.268 390.56C328.135 390.875 327.937 391.149 327.676 391.384C327.415 391.613 327.095 391.795 326.716 391.928C326.337 392.061 325.9 392.128 325.404 392.128C324.839 392.128 324.327 392.037 323.868 391.856C323.409 391.669 323.02 391.432 322.7 391.144L323.036 390.6C323.079 390.531 323.129 390.477 323.188 390.44C323.247 390.403 323.321 390.384 323.412 390.384C323.508 390.384 323.609 390.421 323.716 390.496C323.823 390.571 323.951 390.653 324.1 390.744C324.255 390.835 324.441 390.917 324.66 390.992C324.879 391.067 325.151 391.104 325.476 391.104C325.753 391.104 325.996 391.069 326.204 391C326.412 390.925 326.585 390.827 326.724 390.704C326.863 390.581 326.964 390.44 327.028 390.28C327.097 390.12 327.132 389.949 327.132 389.768C327.132 389.544 327.071 389.36 326.948 389.216C326.831 389.067 326.673 388.941 326.476 388.84C326.279 388.733 326.052 388.643 325.796 388.568C325.545 388.488 325.287 388.405 325.02 388.32C324.759 388.235 324.5 388.139 324.244 388.032C323.993 387.92 323.769 387.781 323.572 387.616C323.375 387.451 323.215 387.248 323.092 387.008C322.975 386.763 322.916 386.467 322.916 386.12C322.916 385.811 322.98 385.515 323.108 385.232C323.236 384.944 323.423 384.693 323.668 384.48C323.913 384.261 324.215 384.088 324.572 383.96C324.929 383.832 325.337 383.768 325.796 383.768C326.329 383.768 326.807 383.853 327.228 384.024C327.655 384.189 328.023 384.419 328.332 384.712L328.012 385.232ZM331.038 386.968C331.038 385.827 330.892 384.717 330.598 383.64C330.31 382.563 329.886 381.539 329.326 380.568C329.284 380.488 329.257 380.419 329.246 380.36C329.236 380.296 329.238 380.243 329.254 380.2C329.27 380.152 329.294 380.112 329.326 380.08C329.364 380.043 329.404 380.011 329.446 379.984L330.078 379.592C330.478 380.211 330.817 380.821 331.094 381.424C331.377 382.027 331.604 382.632 331.774 383.24C331.95 383.843 332.078 384.453 332.158 385.072C332.238 385.691 332.278 386.323 332.278 386.968C332.278 387.619 332.238 388.253 332.158 388.872C332.078 389.485 331.95 390.096 331.774 390.704C331.604 391.312 331.377 391.917 331.094 392.52C330.817 393.123 330.478 393.731 330.078 394.344L329.446 393.96C329.404 393.933 329.364 393.901 329.326 393.864C329.294 393.832 329.27 393.792 329.254 393.744C329.238 393.701 329.236 393.648 329.246 393.584C329.257 393.52 329.284 393.448 329.326 393.368C329.886 392.397 330.31 391.373 330.598 390.296C330.892 389.219 331.038 388.109 331.038 386.968Z" fill="white"/>
<path opacity="0.5" d="M495.349 327.208H77.6133V14.9348" stroke="white" stroke-width="3" stroke-miterlimit="10"/>
<path d="M76.4439 334C80.0027 334 82.8877 331.114 82.8877 327.553C82.8877 323.993 80.0027 321.107 76.4439 321.107C72.885 321.107 70 323.993 70 327.553C70 331.114 72.885 334 76.4439 334Z" fill="white"/>
<path d="M76.4439 19.9133C80.0027 19.9133 82.8877 17.027 82.8877 13.4667C82.8877 9.90628 80.0027 7.02002 76.4439 7.02002C72.885 7.02002 70 9.90628 70 13.4667C70 17.027 72.885 19.9133 76.4439 19.9133Z" fill="white"/>
<path d="M76.4439 176.956C80.0027 176.956 82.8877 174.07 82.8877 170.51C82.8877 166.949 80.0027 164.063 76.4439 164.063C72.885 164.063 70 166.949 70 170.51C70 174.07 72.885 176.956 76.4439 176.956Z" fill="white"/>
<path d="M76.4439 255.478C80.0027 255.478 82.8877 252.592 82.8877 249.032C82.8877 245.471 80.0027 242.585 76.4439 242.585C72.885 242.585 70 245.471 70 249.032C70 252.592 72.885 255.478 76.4439 255.478Z" fill="white"/>
<path d="M76.4439 98.4348C80.0027 98.4348 82.8877 95.5485 82.8877 91.9881C82.8877 88.4278 80.0027 85.5415 76.4439 85.5415C72.885 85.5415 70 88.4278 70 91.9881C70 95.5485 72.885 98.4348 76.4439 98.4348Z" fill="white"/>
<path opacity="0.3" d="M103.389 13.4663H458.727" stroke="white" stroke-miterlimit="10"/>
<path opacity="0.3" d="M103.389 91.9883H458.727" stroke="white" stroke-miterlimit="10"/>
<path opacity="0.3" d="M103.389 170.51H458.727" stroke="white" stroke-miterlimit="10"/>
<path opacity="0.3" d="M103.389 249.032H458.727" stroke="white" stroke-miterlimit="10"/>
<path d="M506 8.89651C506 13.8041 502.021 17.7852 497.107 17.7852C495.797 17.7852 494.556 17.5025 493.442 16.9921L184.945 323.863H98.5225V318.366H182.677L489.376 13.278C488.646 11.9903 488.222 10.4905 488.222 8.89651C488.222 3.98105 492.202 0 497.107 0C502.013 0 506 3.98105 506 8.89651Z" fill="url(#paint0_linear_756_2)"/>
<defs>
<linearGradient id="paint0_linear_756_2" x1="98.5225" y1="161.928" x2="506" y2="161.928" gradientUnits="userSpaceOnUse">
<stop stop-color="#4E62AD"/>
<stop offset="1" stop-color="#6C407E"/>
</linearGradient>
</defs>
</svg>
