<svg width="501" height="391" viewBox="0 0 501 391" fill="none" xmlns="http://www.w3.org/2000/svg">
<path d="M76.4439 327C80.0027 327 82.8877 324.114 82.8877 320.554C82.8877 316.993 80.0027 314.107 76.4439 314.107C72.885 314.107 70 316.993 70 320.554C70 324.114 72.885 327 76.4439 327Z" fill="white"/>
<path d="M76.4439 12.9133C80.0027 12.9133 82.8877 10.027 82.8877 6.46665C82.8877 2.90628 80.0027 0.0200195 76.4439 0.0200195C72.885 0.0200195 70 2.90628 70 6.46665C70 10.027 72.885 12.9133 76.4439 12.9133Z" fill="white"/>
<path d="M76.4439 169.957C80.0027 169.957 82.8877 167.07 82.8877 163.51C82.8877 159.95 80.0027 157.063 76.4439 157.063C72.885 157.063 70 159.95 70 163.51C70 167.07 72.885 169.957 76.4439 169.957Z" fill="white"/>
<path d="M76.4439 248.478C80.0027 248.478 82.8877 245.592 82.8877 242.032C82.8877 238.471 80.0027 235.585 76.4439 235.585C72.885 235.585 70 238.471 70 242.032C70 245.592 72.885 248.478 76.4439 248.478Z" fill="white"/>
<path d="M76.4439 91.435C80.0027 91.435 82.8877 88.5488 82.8877 84.9884C82.8877 81.428 80.0027 78.5417 76.4439 78.5417C72.885 78.5417 70 81.428 70 84.9884C70 88.5488 72.885 91.435 76.4439 91.435Z" fill="white"/>
<path opacity="0.3" d="M103.389 6.46655H458.727" stroke="white" stroke-miterlimit="10"/>
<path d="M476.84 328.864V324.136C476.84 323.997 476.845 323.845 476.856 323.68C476.867 323.515 476.883 323.347 476.904 323.176L472.728 328.864H476.84ZM479.824 328.864V329.68C479.824 329.765 479.797 329.837 479.744 329.896C479.696 329.955 479.619 329.984 479.512 329.984H478.088V333H476.84V329.984H471.752C471.645 329.984 471.552 329.955 471.472 329.896C471.397 329.832 471.349 329.755 471.328 329.664L471.184 328.936L476.76 321.536H478.088V328.864H479.824Z" fill="white"/>
<path d="M79.8 327.272C79.8 328.275 79.6907 329.144 79.472 329.88C79.2587 330.611 78.9653 331.216 78.592 331.696C78.2187 332.176 77.776 332.533 77.264 332.768C76.7573 333.003 76.2133 333.12 75.632 333.12C75.0453 333.12 74.4987 333.003 73.992 332.768C73.4907 332.533 73.0533 332.176 72.68 331.696C72.3067 331.216 72.0133 330.611 71.8 329.88C71.5867 329.144 71.48 328.275 71.48 327.272C71.48 326.269 71.5867 325.4 71.8 324.664C72.0133 323.928 72.3067 323.32 72.68 322.84C73.0533 322.355 73.4907 321.995 73.992 321.76C74.4987 321.525 75.0453 321.408 75.632 321.408C76.2133 321.408 76.7573 321.525 77.264 321.76C77.776 321.995 78.2187 322.355 78.592 322.84C78.9653 323.32 79.2587 323.928 79.472 324.664C79.6907 325.4 79.8 326.269 79.8 327.272ZM78.32 327.272C78.32 326.397 78.2453 325.664 78.096 325.072C77.952 324.475 77.7547 323.995 77.504 323.632C77.2587 323.269 76.9733 323.011 76.648 322.856C76.3227 322.696 75.984 322.616 75.632 322.616C75.28 322.616 74.9413 322.696 74.616 322.856C74.2907 323.011 74.0053 323.269 73.76 323.632C73.5147 323.995 73.3173 324.475 73.168 325.072C73.024 325.664 72.952 326.397 72.952 327.272C72.952 328.147 73.024 328.88 73.168 329.472C73.3173 330.064 73.5147 330.541 73.76 330.904C74.0053 331.267 74.2907 331.528 74.616 331.688C74.9413 331.843 75.28 331.92 75.632 331.92C75.984 331.92 76.3227 331.843 76.648 331.688C76.9733 331.528 77.2587 331.267 77.504 330.904C77.7547 330.541 77.952 330.064 78.096 329.472C78.2453 328.88 78.32 328.147 78.32 327.272Z" fill="white"/>
<path d="M179.144 331.912V333H173V331.912H175.456V324.096C175.456 323.861 175.464 323.624 175.48 323.384L173.44 325.136C173.371 325.195 173.301 325.232 173.232 325.248C173.163 325.259 173.099 325.259 173.04 325.248C172.981 325.237 172.925 325.216 172.872 325.184C172.824 325.152 172.787 325.117 172.76 325.08L172.312 324.464L175.728 321.512H176.888V331.912H179.144Z" fill="white"/>
<path d="M278.896 331.648C279.051 331.648 279.173 331.693 279.264 331.784C279.355 331.875 279.4 331.992 279.4 332.136V333H271.752V332.512C271.752 332.411 271.773 332.307 271.816 332.2C271.859 332.093 271.925 331.995 272.016 331.904L275.688 328.216C275.992 327.907 276.269 327.611 276.52 327.328C276.771 327.04 276.984 326.752 277.16 326.464C277.336 326.176 277.472 325.885 277.568 325.592C277.664 325.293 277.712 324.976 277.712 324.64C277.712 324.304 277.659 324.011 277.552 323.76C277.445 323.504 277.299 323.293 277.112 323.128C276.931 322.963 276.715 322.84 276.464 322.76C276.213 322.675 275.944 322.632 275.656 322.632C275.363 322.632 275.093 322.675 274.848 322.76C274.603 322.845 274.384 322.965 274.192 323.12C274.005 323.269 273.848 323.448 273.72 323.656C273.592 323.864 273.501 324.093 273.448 324.344C273.384 324.531 273.296 324.656 273.184 324.72C273.077 324.779 272.925 324.795 272.728 324.768L271.984 324.64C272.059 324.117 272.203 323.656 272.416 323.256C272.635 322.851 272.907 322.512 273.232 322.24C273.563 321.968 273.939 321.763 274.36 321.624C274.781 321.48 275.237 321.408 275.728 321.408C276.213 321.408 276.667 321.48 277.088 321.624C277.509 321.768 277.875 321.979 278.184 322.256C278.493 322.528 278.736 322.861 278.912 323.256C279.088 323.651 279.176 324.099 279.176 324.6C279.176 325.027 279.112 325.424 278.984 325.792C278.856 326.155 278.683 326.501 278.464 326.832C278.245 327.163 277.992 327.485 277.704 327.8C277.421 328.115 277.12 328.432 276.8 328.752L273.776 331.84C273.989 331.781 274.205 331.736 274.424 331.704C274.643 331.667 274.853 331.648 275.056 331.648H278.896Z" fill="white"/>
<path d="M372.04 324.64C372.115 324.117 372.259 323.656 372.472 323.256C372.685 322.851 372.955 322.512 373.28 322.24C373.611 321.968 373.987 321.763 374.408 321.624C374.835 321.48 375.293 321.408 375.784 321.408C376.269 321.408 376.717 321.477 377.128 321.616C377.539 321.755 377.891 321.952 378.184 322.208C378.483 322.464 378.715 322.773 378.88 323.136C379.045 323.499 379.128 323.901 379.128 324.344C379.128 324.707 379.08 325.032 378.984 325.32C378.893 325.603 378.76 325.851 378.584 326.064C378.413 326.277 378.205 326.459 377.96 326.608C377.715 326.757 377.44 326.88 377.136 326.976C377.883 327.168 378.443 327.499 378.816 327.968C379.195 328.432 379.384 329.013 379.384 329.712C379.384 330.24 379.283 330.715 379.08 331.136C378.883 331.557 378.611 331.917 378.264 332.216C377.917 332.509 377.512 332.736 377.048 332.896C376.589 333.051 376.096 333.128 375.568 333.128C374.96 333.128 374.44 333.053 374.008 332.904C373.576 332.749 373.211 332.539 372.912 332.272C372.613 332.005 372.368 331.691 372.176 331.328C371.984 330.96 371.821 330.563 371.688 330.136L372.304 329.88C372.464 329.811 372.619 329.792 372.768 329.824C372.923 329.856 373.035 329.944 373.104 330.088C373.173 330.237 373.259 330.416 373.36 330.624C373.467 330.832 373.611 331.032 373.792 331.224C373.973 331.416 374.203 331.579 374.48 331.712C374.763 331.845 375.12 331.912 375.552 331.912C375.952 331.912 376.301 331.848 376.6 331.72C376.904 331.587 377.155 331.416 377.352 331.208C377.555 331 377.707 330.768 377.808 330.512C377.909 330.256 377.96 330.003 377.96 329.752C377.96 329.443 377.92 329.16 377.84 328.904C377.76 328.648 377.611 328.427 377.392 328.24C377.173 328.053 376.872 327.907 376.488 327.8C376.109 327.693 375.621 327.64 375.024 327.64V326.608C375.515 326.603 375.931 326.549 376.272 326.448C376.619 326.347 376.899 326.208 377.112 326.032C377.331 325.856 377.488 325.645 377.584 325.4C377.685 325.155 377.736 324.883 377.736 324.584C377.736 324.253 377.683 323.965 377.576 323.72C377.475 323.475 377.333 323.272 377.152 323.112C376.971 322.952 376.755 322.832 376.504 322.752C376.259 322.672 375.992 322.632 375.704 322.632C375.416 322.632 375.147 322.675 374.896 322.76C374.651 322.845 374.432 322.965 374.24 323.12C374.053 323.269 373.896 323.448 373.768 323.656C373.64 323.864 373.549 324.093 373.496 324.344C373.427 324.531 373.339 324.656 373.232 324.72C373.131 324.779 372.981 324.795 372.784 324.768L372.04 324.64Z" fill="white"/>
<path d="M6.72257 221.441L6.72257 225.153L16.8826 225.153L16.8826 226.697L6.72257 226.697L6.72257 230.417L5.41857 230.417L5.41857 221.441L6.72257 221.441ZM8.65057 218.613C8.65057 218.021 8.74923 217.488 8.94657 217.013C9.1439 216.539 9.4239 216.133 9.78657 215.797C10.1492 215.461 10.5892 215.205 11.1066 215.029C11.6186 214.848 12.1919 214.757 12.8266 214.757C13.4666 214.757 14.0426 214.848 14.5546 215.029C15.0666 215.205 15.5039 215.461 15.8666 215.797C16.2292 216.133 16.5092 216.539 16.7066 217.013C16.8986 217.488 16.9946 218.021 16.9946 218.613C16.9946 219.211 16.8986 219.749 16.7066 220.229C16.5092 220.704 16.2292 221.109 15.8666 221.445C15.5039 221.781 15.0666 222.04 14.5546 222.221C14.0426 222.397 13.4666 222.485 12.8266 222.485C12.1919 222.485 11.6186 222.397 11.1066 222.221C10.5892 222.04 10.1492 221.781 9.78657 221.445C9.4239 221.109 9.1439 220.704 8.94657 220.229C8.74923 219.749 8.65057 219.211 8.65057 218.613ZM15.8826 218.613C15.8826 217.813 15.6159 217.216 15.0826 216.821C14.5439 216.427 13.7946 216.229 12.8346 216.229C11.8692 216.229 11.1172 216.427 10.5786 216.821C10.0399 217.216 9.77057 217.813 9.77057 218.613C9.77057 219.019 9.8399 219.373 9.97857 219.677C10.1172 219.976 10.3172 220.227 10.5786 220.429C10.8399 220.627 11.1626 220.776 11.5466 220.877C11.9252 220.973 12.3546 221.021 12.8346 221.021C13.7946 221.021 14.5439 220.824 15.0826 220.429C15.6159 220.029 15.8826 219.424 15.8826 218.613ZM5.09857 211.519L12.0346 211.519L12.0346 211.151C12.0346 211.044 12.0212 210.956 11.9946 210.887C11.9626 210.812 11.9012 210.735 11.8106 210.655L9.06657 208.095C8.9759 208.02 8.90657 207.943 8.85857 207.863C8.80523 207.778 8.77857 207.666 8.77857 207.527L8.77857 206.239L11.9546 209.223C12.1359 209.367 12.2772 209.522 12.3786 209.687C12.4426 209.591 12.5172 209.506 12.6026 209.431C12.6826 209.351 12.7759 209.276 12.8826 209.207L16.8826 206.039L16.8826 207.311C16.8826 207.434 16.8639 207.54 16.8266 207.631C16.7839 207.716 16.7092 207.791 16.6026 207.855L13.2826 210.519C13.1706 210.599 13.0986 210.679 13.0666 210.759C13.0292 210.834 13.0106 210.951 13.0106 211.111L13.0106 211.519L16.8826 211.519L16.8826 212.951L5.09857 212.951L5.09857 211.519ZM11.9466 199.855C11.6159 199.855 11.3146 199.903 11.0426 199.999C10.7652 200.09 10.5279 200.226 10.3306 200.407C10.1279 200.583 9.97323 200.799 9.86657 201.055C9.75457 201.311 9.69857 201.602 9.69857 201.927C9.69857 202.61 9.89857 203.151 10.2986 203.551C10.6932 203.946 11.2426 204.191 11.9466 204.287L11.9466 199.855ZM15.7466 198.703C15.9599 198.879 16.1466 199.09 16.3066 199.335C16.4612 199.581 16.5892 199.845 16.6906 200.127C16.7919 200.405 16.8666 200.693 16.9146 200.991C16.9679 201.29 16.9946 201.586 16.9946 201.879C16.9946 202.439 16.9012 202.957 16.7146 203.431C16.5226 203.901 16.2452 204.309 15.8826 204.655C15.5146 204.997 15.0612 205.263 14.5226 205.455C13.9839 205.647 13.3652 205.743 12.6666 205.743C12.1012 205.743 11.5732 205.658 11.0826 205.487C10.5919 205.311 10.1679 205.061 9.81057 204.735C9.4479 204.41 9.16523 204.013 8.96257 203.543C8.75457 203.074 8.65057 202.546 8.65057 201.959C8.65057 201.474 8.73323 201.026 8.89857 200.615C9.05857 200.199 9.29323 199.842 9.60257 199.543C9.90657 199.239 10.2852 199.002 10.7386 198.831C11.1866 198.661 11.6986 198.575 12.2746 198.575C12.4986 198.575 12.6479 198.599 12.7226 198.647C12.7972 198.695 12.8346 198.786 12.8346 198.919L12.8346 204.335C13.3466 204.319 13.7919 204.25 14.1706 204.127C14.5492 203.999 14.8666 203.823 15.1226 203.599C15.3732 203.375 15.5626 203.109 15.6906 202.799C15.8132 202.49 15.8746 202.143 15.8746 201.759C15.8746 201.402 15.8346 201.095 15.7546 200.839C15.6692 200.578 15.5786 200.354 15.4826 200.167C15.3866 199.981 15.2986 199.826 15.2186 199.703C15.1332 199.575 15.0906 199.466 15.0906 199.375C15.0906 199.258 15.1359 199.167 15.2266 199.103L15.7466 198.703ZM9.95457 195.482C9.75723 195.306 9.57857 195.119 9.41857 194.922C9.25857 194.725 9.12257 194.517 9.01057 194.298C8.89323 194.074 8.80523 193.839 8.74657 193.594C8.68257 193.343 8.65057 193.074 8.65057 192.786C8.65057 192.343 8.72523 191.954 8.87457 191.618C9.01857 191.277 9.22657 190.994 9.49857 190.77C9.76523 190.541 10.0879 190.367 10.4666 190.25C10.8452 190.133 11.2639 190.074 11.7226 190.074L16.8826 190.074L16.8826 191.506L11.7226 191.506C11.1092 191.506 10.6346 191.647 10.2986 191.93C9.95723 192.207 9.78657 192.631 9.78657 193.202C9.78657 193.623 9.8879 194.018 10.0906 194.386C10.2932 194.749 10.5679 195.085 10.9146 195.394L16.8826 195.394L16.8826 196.826L8.77857 196.826L8.77857 195.97C8.77857 195.767 8.87723 195.642 9.07457 195.594L9.95457 195.482ZM10.1146 183.184C10.2319 183.248 10.2906 183.347 10.2906 183.48C10.2906 183.56 10.2612 183.651 10.2026 183.752C10.1439 183.854 10.0799 183.979 10.0106 184.128C9.9359 184.272 9.86923 184.446 9.81057 184.648C9.74657 184.851 9.71457 185.091 9.71457 185.368C9.71457 185.608 9.74657 185.824 9.81057 186.016C9.86923 186.208 9.9519 186.374 10.0586 186.512C10.1652 186.646 10.2906 186.75 10.4346 186.824C10.5732 186.894 10.7252 186.928 10.8906 186.928C11.0986 186.928 11.2719 186.87 11.4106 186.752C11.5492 186.63 11.6692 186.47 11.7706 186.272C11.8719 186.075 11.9626 185.851 12.0426 185.6C12.1172 185.35 12.1999 185.094 12.2906 184.832C12.3759 184.566 12.4719 184.307 12.5786 184.056C12.6852 183.806 12.8186 183.582 12.9786 183.384C13.1386 183.187 13.3359 183.03 13.5706 182.912C13.7999 182.79 14.0772 182.728 14.4026 182.728C14.7759 182.728 15.1226 182.795 15.4426 182.928C15.7572 183.062 16.0319 183.259 16.2666 183.52C16.4959 183.782 16.6772 184.102 16.8106 184.48C16.9439 184.859 17.0106 185.296 17.0106 185.792C17.0106 186.358 16.9199 186.87 16.7386 187.328C16.5519 187.787 16.3146 188.176 16.0266 188.496L15.4826 188.16C15.4132 188.118 15.3599 188.067 15.3226 188.008C15.2852 187.95 15.2666 187.875 15.2666 187.784C15.2666 187.688 15.3039 187.587 15.3786 187.48C15.4532 187.374 15.5359 187.246 15.6266 187.096C15.7172 186.942 15.7999 186.755 15.8746 186.536C15.9492 186.318 15.9866 186.046 15.9866 185.72C15.9866 185.443 15.9519 185.2 15.8826 184.992C15.8079 184.784 15.7092 184.611 15.5866 184.472C15.4639 184.334 15.3226 184.232 15.1626 184.168C15.0026 184.099 14.8319 184.064 14.6506 184.064C14.4266 184.064 14.2426 184.126 14.0986 184.248C13.9492 184.366 13.8239 184.523 13.7226 184.72C13.6159 184.918 13.5252 185.144 13.4506 185.4C13.3706 185.651 13.2879 185.91 13.2026 186.176C13.1172 186.438 13.0212 186.696 12.9146 186.952C12.8026 187.203 12.6639 187.427 12.4986 187.624C12.3332 187.822 12.1306 187.982 11.8906 188.104C11.6452 188.222 11.3492 188.28 11.0026 188.28C10.6932 188.28 10.3972 188.216 10.1146 188.088C9.82657 187.96 9.5759 187.774 9.36257 187.528C9.1439 187.283 8.97057 186.982 8.84257 186.624C8.71457 186.267 8.65057 185.859 8.65057 185.4C8.65057 184.867 8.7359 184.39 8.90657 183.968C9.0719 183.542 9.30123 183.174 9.59457 182.864L10.1146 183.184ZM5.41856 167.811L16.8826 172.483L16.8826 173.875L5.41857 178.547L5.41857 177.307C5.41857 177.168 5.45323 177.056 5.52257 176.971C5.5919 176.885 5.6799 176.821 5.78657 176.779L13.8746 173.547C14.0559 173.477 14.2532 173.411 14.4666 173.347C14.6799 173.277 14.9039 173.216 15.1386 173.163C14.9039 173.109 14.6799 173.053 14.4666 172.995C14.2532 172.936 14.0559 172.872 13.8746 172.803L5.78657 169.579C5.6959 169.547 5.61323 169.485 5.53856 169.395C5.45856 169.299 5.41856 169.184 5.41856 169.051L5.41856 167.811ZM11.9466 162.418C11.6159 162.418 11.3146 162.466 11.0426 162.562C10.7652 162.652 10.5279 162.788 10.3306 162.97C10.1279 163.146 9.97323 163.362 9.86657 163.618C9.75457 163.874 9.69856 164.164 9.69856 164.49C9.69857 165.172 9.89857 165.714 10.2986 166.114C10.6932 166.508 11.2426 166.754 11.9466 166.85L11.9466 162.418ZM15.7466 161.266C15.9599 161.442 16.1466 161.652 16.3066 161.898C16.4612 162.143 16.5892 162.407 16.6906 162.69C16.7919 162.967 16.8666 163.255 16.9146 163.554C16.9679 163.852 16.9946 164.148 16.9946 164.442C16.9946 165.002 16.9012 165.519 16.7146 165.994C16.5226 166.463 16.2452 166.871 15.8826 167.218C15.5146 167.559 15.0612 167.826 14.5226 168.018C13.9839 168.21 13.3652 168.306 12.6666 168.306C12.1012 168.306 11.5732 168.22 11.0826 168.05C10.5919 167.874 10.1679 167.623 9.81057 167.298C9.4479 166.972 9.16523 166.575 8.96256 166.106C8.75457 165.636 8.65057 165.108 8.65057 164.522C8.65057 164.036 8.73323 163.588 8.89857 163.178C9.05857 162.762 9.29323 162.404 9.60257 162.106C9.90657 161.802 10.2852 161.564 10.7386 161.394C11.1866 161.223 11.6986 161.138 12.2746 161.138C12.4986 161.138 12.6479 161.162 12.7226 161.21C12.7972 161.258 12.8346 161.348 12.8346 161.482L12.8346 166.898C13.3466 166.882 13.7919 166.812 14.1706 166.69C14.5492 166.562 14.8666 166.386 15.1226 166.162C15.3732 165.938 15.5626 165.671 15.6906 165.362C15.8132 165.052 15.8746 164.706 15.8746 164.322C15.8746 163.964 15.8346 163.658 15.7546 163.402C15.6692 163.14 15.5786 162.916 15.4826 162.73C15.3866 162.543 15.2986 162.388 15.2186 162.266C15.1332 162.138 15.0906 162.028 15.0906 161.938C15.0906 161.82 15.1359 161.73 15.2266 161.666L15.7466 161.266ZM10.1146 154.669C10.2319 154.733 10.2906 154.831 10.2906 154.965C10.2906 155.045 10.2612 155.135 10.2026 155.237C10.1439 155.338 10.0799 155.463 10.0106 155.613C9.9359 155.757 9.86923 155.93 9.81056 156.133C9.74656 156.335 9.71456 156.575 9.71456 156.853C9.71456 157.093 9.74656 157.309 9.81056 157.501C9.86923 157.693 9.9519 157.858 10.0586 157.997C10.1652 158.13 10.2906 158.234 10.4346 158.309C10.5732 158.378 10.7252 158.413 10.8906 158.413C11.0986 158.413 11.2719 158.354 11.4106 158.237C11.5492 158.114 11.6692 157.954 11.7706 157.757C11.8719 157.559 11.9626 157.335 12.0426 157.085C12.1172 156.834 12.1999 156.578 12.2906 156.317C12.3759 156.05 12.4719 155.791 12.5786 155.541C12.6852 155.29 12.8186 155.066 12.9786 154.869C13.1386 154.671 13.3359 154.514 13.5706 154.397C13.7999 154.274 14.0772 154.213 14.4026 154.213C14.7759 154.213 15.1226 154.279 15.4426 154.413C15.7572 154.546 16.0319 154.743 16.2666 155.005C16.4959 155.266 16.6772 155.586 16.8106 155.965C16.9439 156.343 17.0106 156.781 17.0106 157.277C17.0106 157.842 16.9199 158.354 16.7386 158.813C16.5519 159.271 16.3146 159.661 16.0266 159.981L15.4826 159.645C15.4132 159.602 15.3599 159.551 15.3226 159.493C15.2852 159.434 15.2666 159.359 15.2666 159.269C15.2666 159.173 15.3039 159.071 15.3786 158.965C15.4532 158.858 15.5359 158.73 15.6266 158.581C15.7172 158.426 15.7999 158.239 15.8746 158.021C15.9492 157.802 15.9866 157.53 15.9866 157.205C15.9866 156.927 15.9519 156.685 15.8826 156.477C15.8079 156.269 15.7092 156.095 15.5866 155.957C15.4639 155.818 15.3226 155.717 15.1626 155.653C15.0026 155.583 14.8319 155.549 14.6506 155.549C14.4266 155.549 14.2426 155.61 14.0986 155.733C13.9492 155.85 13.8239 156.007 13.7226 156.205C13.6159 156.402 13.5252 156.629 13.4506 156.885C13.3706 157.135 13.2879 157.394 13.2026 157.661C13.1172 157.922 13.0212 158.181 12.9146 158.437C12.8026 158.687 12.6639 158.911 12.4986 159.109C12.3332 159.306 12.1306 159.466 11.8906 159.589C11.6452 159.706 11.3492 159.765 11.0026 159.765C10.6932 159.765 10.3972 159.701 10.1146 159.573C9.82657 159.445 9.5759 159.258 9.36256 159.013C9.1439 158.767 8.97056 158.466 8.84257 158.109C8.71456 157.751 8.65056 157.343 8.65056 156.885C8.65056 156.351 8.7359 155.874 8.90656 155.453C9.0719 155.026 9.30123 154.658 9.59456 154.349L10.1146 154.669ZM17.0106 149.979C17.0106 150.619 16.8319 151.112 16.4746 151.459C16.1172 151.8 15.6026 151.971 14.9306 151.971L9.97056 151.971L9.97056 152.947C9.97056 153.032 9.94656 153.104 9.89856 153.163C9.84523 153.221 9.76523 153.251 9.65856 153.251L9.09056 153.251L8.92256 151.923L6.41856 151.595C6.33856 151.579 6.27456 151.544 6.22656 151.491C6.17323 151.432 6.14656 151.357 6.14656 151.267L6.14656 150.547L8.93856 150.547L8.93856 148.203L9.97056 148.203L9.97056 150.547L14.8346 150.547C15.1759 150.547 15.4292 150.464 15.5946 150.299C15.7599 150.133 15.8426 149.92 15.8426 149.659C15.8426 149.509 15.8239 149.381 15.7866 149.275C15.7439 149.163 15.6986 149.067 15.6506 148.987C15.6026 148.907 15.5599 148.84 15.5226 148.787C15.4799 148.728 15.4586 148.677 15.4586 148.635C15.4586 148.56 15.5039 148.493 15.5946 148.435L16.2746 148.019C16.5039 148.264 16.6852 148.56 16.8186 148.907C16.9466 149.253 17.0106 149.611 17.0106 149.979ZM11.9466 141.355C11.6159 141.355 11.3146 141.403 11.0426 141.499C10.7652 141.59 10.5279 141.726 10.3306 141.907C10.1279 142.083 9.97323 142.299 9.86656 142.555C9.75456 142.811 9.69856 143.102 9.69856 143.427C9.69856 144.11 9.89856 144.651 10.2986 145.051C10.6932 145.446 11.2426 145.691 11.9466 145.787L11.9466 141.355ZM15.7466 140.203C15.9599 140.379 16.1466 140.59 16.3066 140.835C16.4612 141.081 16.5892 141.345 16.6906 141.627C16.7919 141.905 16.8666 142.193 16.9146 142.491C16.9679 142.79 16.9946 143.086 16.9946 143.379C16.9946 143.939 16.9012 144.457 16.7146 144.931C16.5226 145.401 16.2452 145.809 15.8826 146.155C15.5146 146.497 15.0612 146.763 14.5226 146.955C13.9839 147.147 13.3652 147.243 12.6666 147.243C12.1012 147.243 11.5732 147.158 11.0826 146.987C10.5919 146.811 10.1679 146.561 9.81056 146.235C9.4479 145.91 9.16523 145.513 8.96256 145.043C8.75456 144.574 8.65056 144.046 8.65056 143.459C8.65056 142.974 8.73323 142.526 8.89856 142.115C9.05856 141.699 9.29323 141.342 9.60256 141.043C9.90656 140.739 10.2852 140.502 10.7386 140.331C11.1866 140.161 11.6986 140.075 12.2746 140.075C12.4986 140.075 12.6479 140.099 12.7226 140.147C12.7972 140.195 12.8346 140.286 12.8346 140.419L12.8346 145.835C13.3466 145.819 13.7919 145.75 14.1706 145.627C14.5492 145.499 14.8666 145.323 15.1226 145.099C15.3732 144.875 15.5626 144.609 15.6906 144.299C15.8132 143.99 15.8746 143.643 15.8746 143.259C15.8746 142.902 15.8346 142.595 15.7546 142.339C15.6692 142.078 15.5786 141.854 15.4826 141.667C15.3866 141.481 15.2986 141.326 15.2186 141.203C15.1332 141.075 15.0906 140.966 15.0906 140.875C15.0906 140.758 15.1359 140.667 15.2266 140.603L15.7466 140.203ZM10.7066 133.046C10.3492 133.313 10.1012 133.601 9.96256 133.91C9.81856 134.219 9.74656 134.566 9.74656 134.95C9.74656 135.702 10.0159 136.281 10.5546 136.686C11.0932 137.091 11.8612 137.294 12.8586 137.294C13.3866 137.294 13.8399 137.249 14.2186 137.158C14.5919 137.067 14.9012 136.934 15.1466 136.758C15.3866 136.582 15.5626 136.366 15.6746 136.11C15.7866 135.854 15.8426 135.563 15.8426 135.238C15.8426 134.769 15.7359 134.361 15.5226 134.014C15.3092 133.662 15.0079 133.339 14.6186 133.046L10.7066 133.046ZM5.09856 131.622L16.8826 131.622L16.8826 132.47C16.8826 132.673 16.7839 132.801 16.5866 132.854L15.6026 132.982C16.0186 133.329 16.3546 133.723 16.6106 134.166C16.8666 134.609 16.9946 135.121 16.9946 135.702C16.9946 136.166 16.9066 136.587 16.7306 136.966C16.5492 137.345 16.2852 137.667 15.9386 137.934C15.5919 138.201 15.1599 138.406 14.6426 138.55C14.1252 138.694 13.5306 138.766 12.8586 138.766C12.2612 138.766 11.7066 138.686 11.1946 138.526C10.6772 138.366 10.2292 138.137 9.85056 137.838C9.4719 137.539 9.1759 137.174 8.96256 136.742C8.7439 136.305 8.63456 135.814 8.63456 135.27C8.63456 134.774 8.7199 134.35 8.89056 133.998C9.0559 133.641 9.2879 133.323 9.58656 133.046L5.09856 133.046L5.09856 131.622ZM11.8506 124.447C12.9919 124.447 14.1012 124.303 15.1786 124.015C16.2559 123.722 17.2799 123.295 18.2506 122.735C18.4159 122.65 18.5412 122.629 18.6266 122.671C18.7172 122.714 18.7892 122.775 18.8426 122.855L19.2266 123.487C18.6132 123.887 18.0052 124.229 17.4026 124.511C16.7999 124.789 16.1946 125.015 15.5866 125.191C14.9786 125.362 14.3679 125.487 13.7546 125.567C13.1359 125.647 12.5012 125.687 11.8506 125.687C11.2052 125.687 10.5732 125.647 9.95456 125.567C9.3359 125.487 8.72523 125.362 8.12256 125.191C7.51456 125.015 6.90923 124.789 6.30656 124.511C5.7039 124.229 5.09323 123.887 4.47456 123.487L4.86656 122.855C4.9199 122.775 4.9919 122.714 5.08256 122.671C5.1679 122.629 5.29056 122.65 5.45056 122.735C6.42123 123.295 7.44523 123.722 8.52256 124.015C9.5999 124.303 10.7092 124.447 11.8506 124.447ZM7.21056 114.814C7.29056 114.862 7.3519 114.915 7.39456 114.974C7.4319 115.027 7.45056 115.094 7.45056 115.174C7.45056 115.264 7.40523 115.371 7.31456 115.494C7.2239 115.616 7.12523 115.771 7.01856 115.958C6.90656 116.139 6.80523 116.36 6.71456 116.622C6.6239 116.878 6.57856 117.19 6.57856 117.558C6.57856 117.904 6.62656 118.211 6.72256 118.478C6.81323 118.739 6.93856 118.96 7.09856 119.142C7.25856 119.318 7.4479 119.451 7.66656 119.542C7.8799 119.632 8.1119 119.678 8.36256 119.678C8.68256 119.678 8.94923 119.6 9.16256 119.446C9.37056 119.286 9.54923 119.078 9.69856 118.822C9.8479 118.56 9.97856 118.267 10.0906 117.942C10.1972 117.611 10.3092 117.275 10.4266 116.934C10.5439 116.587 10.6772 116.251 10.8266 115.926C10.9706 115.595 11.1546 115.302 11.3786 115.046C11.6026 114.784 11.8772 114.576 12.2026 114.422C12.5279 114.262 12.9279 114.182 13.4026 114.182C13.9039 114.182 14.3759 114.267 14.8186 114.438C15.2559 114.608 15.6372 114.859 15.9626 115.19C16.2879 115.515 16.5439 115.918 16.7306 116.398C16.9172 116.872 17.0106 117.414 17.0106 118.022C17.0106 118.768 16.8772 119.446 16.6106 120.054C16.3386 120.662 15.9732 121.182 15.5146 121.614L14.7786 121.166C14.7199 121.123 14.6719 121.072 14.6346 121.014C14.5919 120.95 14.5706 120.88 14.5706 120.806C14.5706 120.736 14.5999 120.659 14.6586 120.574C14.7119 120.483 14.7812 120.382 14.8666 120.27C14.9519 120.158 15.0452 120.03 15.1466 119.886C15.2479 119.742 15.3412 119.579 15.4266 119.398C15.5119 119.211 15.5839 119 15.6426 118.766C15.6959 118.531 15.7226 118.267 15.7226 117.974C15.7226 117.606 15.6719 117.278 15.5706 116.99C15.4692 116.702 15.3279 116.459 15.1466 116.262C14.9599 116.059 14.7386 115.904 14.4826 115.798C14.2266 115.691 13.9412 115.638 13.6266 115.638C13.2799 115.638 12.9972 115.718 12.7786 115.878C12.5546 116.032 12.3679 116.238 12.2186 116.494C12.0692 116.75 11.9439 117.043 11.8426 117.374C11.7359 117.704 11.6292 118.04 11.5226 118.382C11.4106 118.723 11.2826 119.059 11.1386 119.39C10.9946 119.72 10.8079 120.014 10.5786 120.27C10.3492 120.526 10.0639 120.734 9.72256 120.894C9.3759 121.048 8.94923 121.126 8.44256 121.126C8.03723 121.126 7.64523 121.048 7.26656 120.894C6.8879 120.734 6.5519 120.504 6.25856 120.206C5.96523 119.902 5.73056 119.531 5.55456 119.094C5.37856 118.651 5.29056 118.144 5.29056 117.574C5.29056 116.934 5.3919 116.352 5.59456 115.83C5.79723 115.302 6.09056 114.838 6.47456 114.438L7.21056 114.814ZM11.1546 111.11C11.8586 111.11 12.4906 111.014 13.0506 110.822C13.6052 110.63 14.0772 110.358 14.4666 110.006C14.8506 109.649 15.1466 109.219 15.3546 108.718C15.5572 108.217 15.6586 107.659 15.6586 107.046C15.6586 106.427 15.5572 105.867 15.3546 105.366C15.1466 104.865 14.8506 104.438 14.4666 104.086C14.0772 103.734 13.6052 103.462 13.0506 103.27C12.4906 103.078 11.8586 102.982 11.1546 102.982C10.4506 102.982 9.81856 103.078 9.25856 103.27C8.69856 103.462 8.22656 103.734 7.84256 104.086C7.45323 104.438 7.15456 104.865 6.94656 105.366C6.73856 105.867 6.63456 106.427 6.63456 107.046C6.63456 107.659 6.73856 108.217 6.94656 108.718C7.15456 109.219 7.45323 109.649 7.84256 110.006C8.22656 110.358 8.69856 110.63 9.25856 110.822C9.81856 111.014 10.4506 111.11 11.1546 111.11ZM19.2506 100.862L19.2506 102.142C19.2506 102.334 19.2239 102.505 19.1706 102.654C19.1172 102.803 19.0239 102.939 18.8906 103.062L16.6986 105.07C16.9012 105.678 17.0026 106.337 17.0026 107.046C17.0026 107.889 16.8612 108.657 16.5786 109.35C16.2906 110.043 15.8879 110.638 15.3706 111.134C14.8532 111.63 14.2372 112.014 13.5226 112.286C12.8026 112.558 12.0132 112.694 11.1546 112.694C10.2959 112.694 9.50923 112.558 8.79456 112.286C8.07456 112.014 7.4559 111.63 6.93856 111.134C6.4159 110.638 6.01056 110.043 5.72256 109.35C5.43456 108.657 5.29056 107.889 5.29056 107.046C5.29056 106.203 5.43456 105.435 5.72256 104.742C6.01056 104.043 6.4159 103.446 6.93856 102.95C7.4559 102.454 8.07456 102.07 8.79456 101.798C9.50923 101.526 10.2959 101.39 11.1546 101.39C11.6932 101.39 12.2052 101.446 12.6906 101.558C13.1759 101.665 13.6292 101.822 14.0506 102.03C14.4666 102.238 14.8452 102.491 15.1866 102.79C15.5279 103.089 15.8239 103.425 16.0746 103.798L19.2506 100.862ZM10.4426 97.6336L10.4426 97.0496C10.4426 96.8469 10.4186 96.6843 10.3706 96.5616C10.3172 96.4389 10.2292 96.3269 10.1066 96.2256L5.78656 92.4096C5.64789 92.3029 5.55189 92.1909 5.49856 92.0736C5.44523 91.9563 5.41856 91.8123 5.41856 91.6416L5.41856 90.3296L10.3546 94.6976C10.4826 94.8043 10.5892 94.9083 10.6746 95.0096C10.7546 95.1056 10.8212 95.2096 10.8746 95.3216C10.9226 95.1776 10.9946 95.0469 11.0906 94.9296C11.1812 94.8123 11.3012 94.6976 11.4506 94.5856L16.8826 90.0256L16.8826 91.3696C16.8826 91.4709 16.8772 91.5589 16.8666 91.6336C16.8506 91.7029 16.8292 91.7643 16.8026 91.8176C16.7706 91.8709 16.7359 91.9189 16.6986 91.9616C16.6559 91.9989 16.6079 92.0363 16.5546 92.0736L12.0026 96.0256C11.8692 96.1323 11.7759 96.2469 11.7226 96.3696C11.6639 96.4923 11.6346 96.6789 11.6346 96.9296L11.6346 97.6336L16.8826 97.6336L16.8826 99.1776L5.41856 99.1776L5.41856 97.6336L10.4426 97.6336ZM11.8506 87.7359C10.7092 87.7359 9.59989 87.8825 8.52256 88.1759C7.44523 88.4639 6.42123 88.8879 5.45056 89.4479C5.37056 89.4905 5.30123 89.5172 5.24256 89.5279C5.17856 89.5385 5.12523 89.5359 5.08256 89.5199C5.03456 89.5039 4.99456 89.4799 4.96256 89.4479C4.92523 89.4105 4.89323 89.3705 4.86656 89.3279L4.47456 88.6959C5.09323 88.2959 5.7039 87.9572 6.30656 87.6799C6.90923 87.3972 7.51456 87.1705 8.12256 86.9999C8.72523 86.8239 9.33589 86.6959 9.95456 86.6159C10.5732 86.5359 11.2052 86.4959 11.8506 86.4959C12.5012 86.4959 13.1359 86.5359 13.7546 86.6159C14.3679 86.6959 14.9786 86.8239 15.5866 86.9999C16.1946 87.1705 16.7999 87.3972 17.4026 87.6799C18.0052 87.9572 18.6132 88.2959 19.2266 88.6959L18.8426 89.3279C18.8159 89.3705 18.7839 89.4105 18.7466 89.4479C18.7146 89.4799 18.6746 89.5039 18.6266 89.5199C18.5839 89.5359 18.5306 89.5385 18.4666 89.5279C18.4026 89.5172 18.3306 89.4905 18.2506 89.4479C17.2799 88.8879 16.2559 88.4639 15.1786 88.1759C14.1012 87.8825 12.9919 87.7359 11.8506 87.7359Z" fill="white"/>
<path d="M45.7058 11.8993V12.7153H41.0978V11.8993H42.9398V6.03733C42.9398 5.86133 42.9458 5.68333 42.9578 5.50333L41.4278 6.81733C41.3758 6.86133 41.3238 6.88933 41.2718 6.90133C41.2198 6.90933 41.1718 6.90933 41.1278 6.90133C41.0838 6.89333 41.0418 6.87733 41.0018 6.85333C40.9658 6.82933 40.9378 6.80333 40.9178 6.77533L40.5818 6.31333L43.1438 4.09933H44.0138V11.8993H45.7058ZM53.1587 8.41933C53.1587 9.17133 53.0767 9.82333 52.9127 10.3753C52.7527 10.9233 52.5327 11.3773 52.2527 11.7373C51.9727 12.0973 51.6407 12.3653 51.2567 12.5413C50.8767 12.7173 50.4687 12.8053 50.0327 12.8053C49.5927 12.8053 49.1827 12.7173 48.8027 12.5413C48.4267 12.3653 48.0987 12.0973 47.8187 11.7373C47.5387 11.3773 47.3187 10.9233 47.1587 10.3753C46.9987 9.82333 46.9187 9.17133 46.9187 8.41933C46.9187 7.66733 46.9987 7.01533 47.1587 6.46333C47.3187 5.91133 47.5387 5.45533 47.8187 5.09533C48.0987 4.73133 48.4267 4.46133 48.8027 4.28533C49.1827 4.10933 49.5927 4.02133 50.0327 4.02133C50.4687 4.02133 50.8767 4.10933 51.2567 4.28533C51.6407 4.46133 51.9727 4.73133 52.2527 5.09533C52.5327 5.45533 52.7527 5.91133 52.9127 6.46333C53.0767 7.01533 53.1587 7.66733 53.1587 8.41933ZM52.0487 8.41933C52.0487 7.76333 51.9927 7.21333 51.8807 6.76933C51.7727 6.32133 51.6247 5.96133 51.4367 5.68933C51.2527 5.41733 51.0387 5.22333 50.7947 5.10733C50.5507 4.98733 50.2967 4.92733 50.0327 4.92733C49.7687 4.92733 49.5147 4.98733 49.2707 5.10733C49.0267 5.22333 48.8127 5.41733 48.6287 5.68933C48.4447 5.96133 48.2967 6.32133 48.1847 6.76933C48.0767 7.21333 48.0227 7.76333 48.0227 8.41933C48.0227 9.07533 48.0767 9.62533 48.1847 10.0693C48.2967 10.5133 48.4447 10.8713 48.6287 11.1433C48.8127 11.4153 49.0267 11.6113 49.2707 11.7313C49.5147 11.8473 49.7687 11.9053 50.0327 11.9053C50.2967 11.9053 50.5507 11.8473 50.7947 11.7313C51.0387 11.6113 51.2527 11.4153 51.4367 11.1433C51.6247 10.8713 51.7727 10.5133 51.8807 10.0693C51.9927 9.62533 52.0487 9.07533 52.0487 8.41933ZM60.1197 8.41933C60.1197 9.17133 60.0377 9.82333 59.8737 10.3753C59.7137 10.9233 59.4937 11.3773 59.2137 11.7373C58.9337 12.0973 58.6017 12.3653 58.2177 12.5413C57.8377 12.7173 57.4297 12.8053 56.9937 12.8053C56.5537 12.8053 56.1437 12.7173 55.7637 12.5413C55.3877 12.3653 55.0597 12.0973 54.7797 11.7373C54.4997 11.3773 54.2797 10.9233 54.1197 10.3753C53.9597 9.82333 53.8797 9.17133 53.8797 8.41933C53.8797 7.66733 53.9597 7.01533 54.1197 6.46333C54.2797 5.91133 54.4997 5.45533 54.7797 5.09533C55.0597 4.73133 55.3877 4.46133 55.7637 4.28533C56.1437 4.10933 56.5537 4.02133 56.9937 4.02133C57.4297 4.02133 57.8377 4.10933 58.2177 4.28533C58.6017 4.46133 58.9337 4.73133 59.2137 5.09533C59.4937 5.45533 59.7137 5.91133 59.8737 6.46333C60.0377 7.01533 60.1197 7.66733 60.1197 8.41933ZM59.0097 8.41933C59.0097 7.76333 58.9537 7.21333 58.8417 6.76933C58.7337 6.32133 58.5857 5.96133 58.3977 5.68933C58.2137 5.41733 57.9997 5.22333 57.7557 5.10733C57.5117 4.98733 57.2577 4.92733 56.9937 4.92733C56.7297 4.92733 56.4757 4.98733 56.2317 5.10733C55.9877 5.22333 55.7737 5.41733 55.5897 5.68933C55.4057 5.96133 55.2577 6.32133 55.1457 6.76933C55.0377 7.21333 54.9837 7.76333 54.9837 8.41933C54.9837 9.07533 55.0377 9.62533 55.1457 10.0693C55.2577 10.5133 55.4057 10.8713 55.5897 11.1433C55.7737 11.4153 55.9877 11.6113 56.2317 11.7313C56.4757 11.8473 56.7297 11.9053 56.9937 11.9053C57.2577 11.9053 57.5117 11.8473 57.7557 11.7313C57.9997 11.6113 58.2137 11.4153 58.3977 11.1433C58.5857 10.8713 58.7337 10.5133 58.8417 10.0693C58.9537 9.62533 59.0097 9.07533 59.0097 8.41933ZM64.8126 6.19333C64.8126 6.52933 64.7606 6.83133 64.6566 7.09933C64.5526 7.36333 64.4126 7.58733 64.2366 7.77133C64.0646 7.95133 63.8626 8.08933 63.6306 8.18533C63.4026 8.28133 63.1606 8.32933 62.9046 8.32933C62.6366 8.32933 62.3866 8.28133 62.1546 8.18533C61.9226 8.08933 61.7206 7.95133 61.5486 7.77133C61.3806 7.58733 61.2486 7.36333 61.1526 7.09933C61.0566 6.83133 61.0086 6.52933 61.0086 6.19333C61.0086 5.84933 61.0566 5.54333 61.1526 5.27533C61.2486 5.00733 61.3806 4.78133 61.5486 4.59733C61.7206 4.41333 61.9226 4.27333 62.1546 4.17733C62.3866 4.08133 62.6366 4.03333 62.9046 4.03333C63.1766 4.03333 63.4286 4.08133 63.6606 4.17733C63.8926 4.27333 64.0946 4.41333 64.2666 4.59733C64.4386 4.78133 64.5726 5.00733 64.6686 5.27533C64.7646 5.54333 64.8126 5.84933 64.8126 6.19333ZM63.9846 6.19333C63.9846 5.92933 63.9566 5.70533 63.9006 5.52133C63.8446 5.33733 63.7666 5.18733 63.6666 5.07133C63.5706 4.95133 63.4566 4.86533 63.3246 4.81333C63.1926 4.76133 63.0526 4.73533 62.9046 4.73533C62.7566 4.73533 62.6186 4.76133 62.4906 4.81333C62.3626 4.86533 62.2506 4.95133 62.1546 5.07133C62.0586 5.18733 61.9826 5.33733 61.9266 5.52133C61.8706 5.70533 61.8426 5.92933 61.8426 6.19333C61.8426 6.45333 61.8706 6.67533 61.9266 6.85933C61.9826 7.03933 62.0586 7.18733 62.1546 7.30333C62.2506 7.41533 62.3626 7.49733 62.4906 7.54933C62.6186 7.59733 62.7566 7.62133 62.9046 7.62133C63.0526 7.62133 63.1926 7.59733 63.3246 7.54933C63.4566 7.49733 63.5706 7.41533 63.6666 7.30333C63.7666 7.18733 63.8446 7.03933 63.9006 6.85933C63.9566 6.67533 63.9846 6.45333 63.9846 6.19333ZM67.8546 4.29733C67.8946 4.24933 67.9406 4.20733 67.9926 4.17133C68.0486 4.13533 68.1226 4.11733 68.2146 4.11733H68.9886L62.7006 12.5413C62.6646 12.5933 62.6186 12.6353 62.5626 12.6673C62.5066 12.6993 62.4386 12.7153 62.3586 12.7153H61.5726L67.8546 4.29733ZM69.5706 10.6873C69.5706 11.0233 69.5186 11.3233 69.4146 11.5873C69.3106 11.8513 69.1706 12.0753 68.9946 12.2593C68.8226 12.4393 68.6206 12.5773 68.3886 12.6733C68.1606 12.7693 67.9186 12.8173 67.6626 12.8173C67.3906 12.8173 67.1386 12.7693 66.9066 12.6733C66.6786 12.5773 66.4786 12.4393 66.3066 12.2593C66.1386 12.0753 66.0066 11.8513 65.9106 11.5873C65.8146 11.3233 65.7666 11.0233 65.7666 10.6873C65.7666 10.3433 65.8146 10.0373 65.9106 9.76933C66.0066 9.49733 66.1386 9.26933 66.3066 9.08533C66.4786 8.90133 66.6786 8.76133 66.9066 8.66533C67.1386 8.56933 67.3906 8.52133 67.6626 8.52133C67.9306 8.52133 68.1806 8.56933 68.4126 8.66533C68.6486 8.76133 68.8506 8.90133 69.0186 9.08533C69.1906 9.26933 69.3246 9.49733 69.4206 9.76933C69.5206 10.0373 69.5706 10.3433 69.5706 10.6873ZM68.7426 10.6873C68.7426 10.4233 68.7146 10.1993 68.6586 10.0153C68.6026 9.82733 68.5246 9.67533 68.4246 9.55933C68.3286 9.44333 68.2146 9.35933 68.0826 9.30733C67.9506 9.25533 67.8106 9.22933 67.6626 9.22933C67.5146 9.22933 67.3746 9.25533 67.2426 9.30733C67.1146 9.35933 67.0026 9.44333 66.9066 9.55933C66.8106 9.67533 66.7346 9.82733 66.6786 10.0153C66.6266 10.1993 66.6006 10.4233 66.6006 10.6873C66.6006 10.9473 66.6266 11.1673 66.6786 11.3473C66.7346 11.5273 66.8106 11.6753 66.9066 11.7913C67.0026 11.9033 67.1146 11.9853 67.2426 12.0373C67.3746 12.0853 67.5146 12.1093 67.6626 12.1093C67.8106 12.1093 67.9506 12.0853 68.0826 12.0373C68.2146 11.9853 68.3286 11.9033 68.4246 11.7913C68.5246 11.6753 68.6026 11.5273 68.6586 11.3473C68.7146 11.1673 68.7426 10.9473 68.7426 10.6873Z" fill="white"/>
<path d="M46.0838 81.1173V81.5973C46.0838 81.7333 46.0678 81.8453 46.0358 81.9333C46.0078 82.0213 45.9798 82.0953 45.9518 82.1553L42.3878 89.3373C42.3358 89.4413 42.2638 89.5313 42.1718 89.6073C42.0798 89.6793 41.9578 89.7153 41.8058 89.7153H41.0378L44.6498 82.6233C44.7018 82.5233 44.7558 82.4313 44.8118 82.3473C44.8678 82.2633 44.9278 82.1833 44.9918 82.1073H40.5038C40.4358 82.1073 40.3758 82.0813 40.3238 82.0293C40.2718 81.9733 40.2458 81.9113 40.2458 81.8433V81.1173H46.0838ZM48.7307 84.3633C49.1787 84.2673 49.5907 84.2193 49.9667 84.2193C50.4147 84.2193 50.8107 84.2853 51.1547 84.4173C51.4987 84.5493 51.7847 84.7313 52.0127 84.9633C52.2447 85.1953 52.4187 85.4693 52.5347 85.7853C52.6547 86.1013 52.7147 86.4453 52.7147 86.8173C52.7147 87.2733 52.6347 87.6853 52.4747 88.0533C52.3187 88.4213 52.1007 88.7373 51.8207 89.0013C51.5447 89.2613 51.2187 89.4613 50.8427 89.6013C50.4667 89.7413 50.0607 89.8113 49.6247 89.8113C49.3727 89.8113 49.1307 89.7853 48.8987 89.7333C48.6667 89.6853 48.4487 89.6193 48.2447 89.5353C48.0447 89.4513 47.8587 89.3553 47.6867 89.2473C47.5147 89.1393 47.3627 89.0253 47.2307 88.9053L47.5607 88.4493C47.6327 88.3453 47.7267 88.2933 47.8427 88.2933C47.9227 88.2933 48.0127 88.3253 48.1127 88.3893C48.2127 88.4493 48.3347 88.5173 48.4787 88.5933C48.6227 88.6693 48.7907 88.7393 48.9827 88.8033C49.1787 88.8633 49.4107 88.8933 49.6787 88.8933C49.9787 88.8933 50.2487 88.8453 50.4887 88.7493C50.7287 88.6533 50.9347 88.5173 51.1067 88.3413C51.2787 88.1613 51.4107 87.9473 51.5027 87.6993C51.5947 87.4513 51.6407 87.1733 51.6407 86.8653C51.6407 86.5973 51.6007 86.3553 51.5207 86.1393C51.4447 85.9233 51.3267 85.7393 51.1667 85.5873C51.0107 85.4353 50.8147 85.3173 50.5787 85.2333C50.3427 85.1493 50.0667 85.1073 49.7507 85.1073C49.5347 85.1073 49.3087 85.1253 49.0727 85.1613C48.8407 85.1973 48.6027 85.2553 48.3587 85.3353L47.6867 85.1373L48.3767 81.1173H52.4507V81.5853C52.4507 81.7373 52.4027 81.8633 52.3067 81.9633C52.2147 82.0593 52.0547 82.1073 51.8267 82.1073H49.1267L48.7307 84.3633ZM57.8517 83.1933C57.8517 83.5293 57.7997 83.8313 57.6957 84.0993C57.5917 84.3633 57.4517 84.5873 57.2757 84.7713C57.1037 84.9513 56.9017 85.0893 56.6697 85.1853C56.4417 85.2813 56.1997 85.3293 55.9437 85.3293C55.6757 85.3293 55.4257 85.2813 55.1937 85.1853C54.9617 85.0893 54.7597 84.9513 54.5877 84.7713C54.4197 84.5873 54.2877 84.3633 54.1917 84.0993C54.0957 83.8313 54.0477 83.5293 54.0477 83.1933C54.0477 82.8493 54.0957 82.5433 54.1917 82.2753C54.2877 82.0073 54.4197 81.7813 54.5877 81.5973C54.7597 81.4133 54.9617 81.2733 55.1937 81.1773C55.4257 81.0813 55.6757 81.0333 55.9437 81.0333C56.2157 81.0333 56.4677 81.0813 56.6997 81.1773C56.9317 81.2733 57.1337 81.4133 57.3057 81.5973C57.4777 81.7813 57.6117 82.0073 57.7077 82.2753C57.8037 82.5433 57.8517 82.8493 57.8517 83.1933ZM57.0237 83.1933C57.0237 82.9293 56.9957 82.7053 56.9397 82.5213C56.8837 82.3373 56.8057 82.1873 56.7057 82.0713C56.6097 81.9513 56.4957 81.8653 56.3637 81.8133C56.2317 81.7613 56.0917 81.7353 55.9437 81.7353C55.7957 81.7353 55.6577 81.7613 55.5297 81.8133C55.4017 81.8653 55.2897 81.9513 55.1937 82.0713C55.0977 82.1873 55.0217 82.3373 54.9657 82.5213C54.9097 82.7053 54.8817 82.9293 54.8817 83.1933C54.8817 83.4533 54.9097 83.6753 54.9657 83.8593C55.0217 84.0393 55.0977 84.1873 55.1937 84.3033C55.2897 84.4153 55.4017 84.4973 55.5297 84.5493C55.6577 84.5973 55.7957 84.6213 55.9437 84.6213C56.0917 84.6213 56.2317 84.5973 56.3637 84.5493C56.4957 84.4973 56.6097 84.4153 56.7057 84.3033C56.8057 84.1873 56.8837 84.0393 56.9397 83.8593C56.9957 83.6753 57.0237 83.4533 57.0237 83.1933ZM60.8937 81.2973C60.9337 81.2493 60.9797 81.2073 61.0317 81.1713C61.0877 81.1353 61.1617 81.1173 61.2537 81.1173H62.0277L55.7397 89.5413C55.7037 89.5933 55.6577 89.6353 55.6017 89.6673C55.5457 89.6993 55.4777 89.7153 55.3977 89.7153H54.6117L60.8937 81.2973ZM62.6097 87.6873C62.6097 88.0233 62.5577 88.3233 62.4537 88.5873C62.3497 88.8513 62.2097 89.0753 62.0337 89.2593C61.8617 89.4393 61.6597 89.5773 61.4277 89.6733C61.1997 89.7693 60.9577 89.8173 60.7017 89.8173C60.4297 89.8173 60.1777 89.7693 59.9457 89.6733C59.7177 89.5773 59.5177 89.4393 59.3457 89.2593C59.1777 89.0753 59.0457 88.8513 58.9497 88.5873C58.8537 88.3233 58.8057 88.0233 58.8057 87.6873C58.8057 87.3433 58.8537 87.0373 58.9497 86.7693C59.0457 86.4973 59.1777 86.2693 59.3457 86.0853C59.5177 85.9013 59.7177 85.7613 59.9457 85.6653C60.1777 85.5693 60.4297 85.5213 60.7017 85.5213C60.9697 85.5213 61.2197 85.5693 61.4517 85.6653C61.6877 85.7613 61.8897 85.9013 62.0577 86.0853C62.2297 86.2693 62.3637 86.4973 62.4597 86.7693C62.5597 87.0373 62.6097 87.3433 62.6097 87.6873ZM61.7817 87.6873C61.7817 87.4233 61.7537 87.1993 61.6977 87.0153C61.6417 86.8273 61.5637 86.6753 61.4637 86.5593C61.3677 86.4433 61.2537 86.3593 61.1217 86.3073C60.9897 86.2553 60.8497 86.2293 60.7017 86.2293C60.5537 86.2293 60.4137 86.2553 60.2817 86.3073C60.1537 86.3593 60.0417 86.4433 59.9457 86.5593C59.8497 86.6753 59.7737 86.8273 59.7177 87.0153C59.6657 87.1993 59.6397 87.4233 59.6397 87.6873C59.6397 87.9473 59.6657 88.1673 59.7177 88.3473C59.7737 88.5273 59.8497 88.6753 59.9457 88.7913C60.0417 88.9033 60.1537 88.9853 60.2817 89.0373C60.4137 89.0853 60.5537 89.1093 60.7017 89.1093C60.8497 89.1093 60.9897 89.0853 61.1217 89.0373C61.2537 88.9853 61.3677 88.9033 61.4637 88.7913C61.5637 88.6753 61.6417 88.5273 61.6977 88.3473C61.7537 88.1673 61.7817 87.9473 61.7817 87.6873Z" fill="white"/>
<path d="M41.7698 162.363C42.2178 162.267 42.6298 162.219 43.0058 162.219C43.4538 162.219 43.8498 162.285 44.1938 162.417C44.5378 162.549 44.8238 162.731 45.0518 162.963C45.2838 163.195 45.4578 163.469 45.5738 163.785C45.6938 164.101 45.7538 164.445 45.7538 164.817C45.7538 165.273 45.6738 165.685 45.5138 166.053C45.3578 166.421 45.1398 166.737 44.8598 167.001C44.5838 167.261 44.2578 167.461 43.8818 167.601C43.5058 167.741 43.0998 167.811 42.6638 167.811C42.4118 167.811 42.1698 167.785 41.9378 167.733C41.7058 167.685 41.4878 167.619 41.2838 167.535C41.0838 167.451 40.8978 167.355 40.7258 167.247C40.5538 167.139 40.4018 167.025 40.2698 166.905L40.5998 166.449C40.6718 166.345 40.7658 166.293 40.8818 166.293C40.9618 166.293 41.0518 166.325 41.1518 166.389C41.2518 166.449 41.3738 166.517 41.5178 166.593C41.6618 166.669 41.8298 166.739 42.0218 166.803C42.2178 166.863 42.4498 166.893 42.7178 166.893C43.0178 166.893 43.2878 166.845 43.5278 166.749C43.7678 166.653 43.9738 166.517 44.1458 166.341C44.3178 166.161 44.4498 165.947 44.5418 165.699C44.6338 165.451 44.6798 165.173 44.6798 164.865C44.6798 164.597 44.6398 164.355 44.5598 164.139C44.4838 163.923 44.3658 163.739 44.2058 163.587C44.0498 163.435 43.8538 163.317 43.6178 163.233C43.3818 163.149 43.1058 163.107 42.7898 163.107C42.5738 163.107 42.3478 163.125 42.1118 163.161C41.8798 163.197 41.6418 163.255 41.3978 163.335L40.7258 163.137L41.4158 159.117H45.4898V159.585C45.4898 159.737 45.4418 159.863 45.3458 159.963C45.2538 160.059 45.0938 160.107 44.8658 160.107H42.1658L41.7698 162.363ZM53.1587 163.419C53.1587 164.171 53.0767 164.823 52.9127 165.375C52.7527 165.923 52.5327 166.377 52.2527 166.737C51.9727 167.097 51.6407 167.365 51.2567 167.541C50.8767 167.717 50.4687 167.805 50.0327 167.805C49.5927 167.805 49.1827 167.717 48.8027 167.541C48.4267 167.365 48.0987 167.097 47.8187 166.737C47.5387 166.377 47.3187 165.923 47.1587 165.375C46.9987 164.823 46.9187 164.171 46.9187 163.419C46.9187 162.667 46.9987 162.015 47.1587 161.463C47.3187 160.911 47.5387 160.455 47.8187 160.095C48.0987 159.731 48.4267 159.461 48.8027 159.285C49.1827 159.109 49.5927 159.021 50.0327 159.021C50.4687 159.021 50.8767 159.109 51.2567 159.285C51.6407 159.461 51.9727 159.731 52.2527 160.095C52.5327 160.455 52.7527 160.911 52.9127 161.463C53.0767 162.015 53.1587 162.667 53.1587 163.419ZM52.0487 163.419C52.0487 162.763 51.9927 162.213 51.8807 161.769C51.7727 161.321 51.6247 160.961 51.4367 160.689C51.2527 160.417 51.0387 160.223 50.7947 160.107C50.5507 159.987 50.2967 159.927 50.0327 159.927C49.7687 159.927 49.5147 159.987 49.2707 160.107C49.0267 160.223 48.8127 160.417 48.6287 160.689C48.4447 160.961 48.2967 161.321 48.1847 161.769C48.0767 162.213 48.0227 162.763 48.0227 163.419C48.0227 164.075 48.0767 164.625 48.1847 165.069C48.2967 165.513 48.4447 165.871 48.6287 166.143C48.8127 166.415 49.0267 166.611 49.2707 166.731C49.5147 166.847 49.7687 166.905 50.0327 166.905C50.2967 166.905 50.5507 166.847 50.7947 166.731C51.0387 166.611 51.2527 166.415 51.4367 166.143C51.6247 165.871 51.7727 165.513 51.8807 165.069C51.9927 164.625 52.0487 164.075 52.0487 163.419ZM57.8517 161.193C57.8517 161.529 57.7997 161.831 57.6957 162.099C57.5917 162.363 57.4517 162.587 57.2757 162.771C57.1037 162.951 56.9017 163.089 56.6697 163.185C56.4417 163.281 56.1997 163.329 55.9437 163.329C55.6757 163.329 55.4257 163.281 55.1937 163.185C54.9617 163.089 54.7597 162.951 54.5877 162.771C54.4197 162.587 54.2877 162.363 54.1917 162.099C54.0957 161.831 54.0477 161.529 54.0477 161.193C54.0477 160.849 54.0957 160.543 54.1917 160.275C54.2877 160.007 54.4197 159.781 54.5877 159.597C54.7597 159.413 54.9617 159.273 55.1937 159.177C55.4257 159.081 55.6757 159.033 55.9437 159.033C56.2157 159.033 56.4677 159.081 56.6997 159.177C56.9317 159.273 57.1337 159.413 57.3057 159.597C57.4777 159.781 57.6117 160.007 57.7077 160.275C57.8037 160.543 57.8517 160.849 57.8517 161.193ZM57.0237 161.193C57.0237 160.929 56.9957 160.705 56.9397 160.521C56.8837 160.337 56.8057 160.187 56.7057 160.071C56.6097 159.951 56.4957 159.865 56.3637 159.813C56.2317 159.761 56.0917 159.735 55.9437 159.735C55.7957 159.735 55.6577 159.761 55.5297 159.813C55.4017 159.865 55.2897 159.951 55.1937 160.071C55.0977 160.187 55.0217 160.337 54.9657 160.521C54.9097 160.705 54.8817 160.929 54.8817 161.193C54.8817 161.453 54.9097 161.675 54.9657 161.859C55.0217 162.039 55.0977 162.187 55.1937 162.303C55.2897 162.415 55.4017 162.497 55.5297 162.549C55.6577 162.597 55.7957 162.621 55.9437 162.621C56.0917 162.621 56.2317 162.597 56.3637 162.549C56.4957 162.497 56.6097 162.415 56.7057 162.303C56.8057 162.187 56.8837 162.039 56.9397 161.859C56.9957 161.675 57.0237 161.453 57.0237 161.193ZM60.8937 159.297C60.9337 159.249 60.9797 159.207 61.0317 159.171C61.0877 159.135 61.1617 159.117 61.2537 159.117H62.0277L55.7397 167.541C55.7037 167.593 55.6577 167.635 55.6017 167.667C55.5457 167.699 55.4777 167.715 55.3977 167.715H54.6117L60.8937 159.297ZM62.6097 165.687C62.6097 166.023 62.5577 166.323 62.4537 166.587C62.3497 166.851 62.2097 167.075 62.0337 167.259C61.8617 167.439 61.6597 167.577 61.4277 167.673C61.1997 167.769 60.9577 167.817 60.7017 167.817C60.4297 167.817 60.1777 167.769 59.9457 167.673C59.7177 167.577 59.5177 167.439 59.3457 167.259C59.1777 167.075 59.0457 166.851 58.9497 166.587C58.8537 166.323 58.8057 166.023 58.8057 165.687C58.8057 165.343 58.8537 165.037 58.9497 164.769C59.0457 164.497 59.1777 164.269 59.3457 164.085C59.5177 163.901 59.7177 163.761 59.9457 163.665C60.1777 163.569 60.4297 163.521 60.7017 163.521C60.9697 163.521 61.2197 163.569 61.4517 163.665C61.6877 163.761 61.8897 163.901 62.0577 164.085C62.2297 164.269 62.3637 164.497 62.4597 164.769C62.5597 165.037 62.6097 165.343 62.6097 165.687ZM61.7817 165.687C61.7817 165.423 61.7537 165.199 61.6977 165.015C61.6417 164.827 61.5637 164.675 61.4637 164.559C61.3677 164.443 61.2537 164.359 61.1217 164.307C60.9897 164.255 60.8497 164.229 60.7017 164.229C60.5537 164.229 60.4137 164.255 60.2817 164.307C60.1537 164.359 60.0417 164.443 59.9457 164.559C59.8497 164.675 59.7737 164.827 59.7177 165.015C59.6657 165.199 59.6397 165.423 59.6397 165.687C59.6397 165.947 59.6657 166.167 59.7177 166.347C59.7737 166.527 59.8497 166.675 59.9457 166.791C60.0417 166.903 60.1537 166.985 60.2817 167.037C60.4137 167.085 60.5537 167.109 60.7017 167.109C60.8497 167.109 60.9897 167.085 61.1217 167.037C61.2537 166.985 61.3677 166.903 61.4637 166.791C61.5637 166.675 61.6417 166.527 61.6977 166.347C61.7537 166.167 61.7817 165.947 61.7817 165.687Z" fill="white"/>
<path d="M45.5198 246.701C45.6358 246.701 45.7278 246.735 45.7958 246.803C45.8638 246.871 45.8978 246.959 45.8978 247.067V247.715H40.1618V247.349C40.1618 247.273 40.1778 247.195 40.2098 247.115C40.2418 247.035 40.2918 246.961 40.3598 246.893L43.1138 244.127C43.3418 243.895 43.5498 243.673 43.7378 243.461C43.9258 243.245 44.0858 243.029 44.2178 242.813C44.3498 242.597 44.4518 242.379 44.5238 242.159C44.5958 241.935 44.6318 241.697 44.6318 241.445C44.6318 241.193 44.5918 240.973 44.5118 240.785C44.4318 240.593 44.3218 240.435 44.1818 240.311C44.0458 240.187 43.8838 240.095 43.6958 240.035C43.5078 239.971 43.3058 239.939 43.0898 239.939C42.8698 239.939 42.6678 239.971 42.4838 240.035C42.2998 240.099 42.1358 240.189 41.9918 240.305C41.8518 240.417 41.7338 240.551 41.6378 240.707C41.5418 240.863 41.4738 241.035 41.4338 241.223C41.3858 241.363 41.3198 241.457 41.2358 241.505C41.1558 241.549 41.0418 241.561 40.8938 241.541L40.3358 241.445C40.3918 241.053 40.4998 240.707 40.6598 240.407C40.8238 240.103 41.0278 239.849 41.2718 239.645C41.5198 239.441 41.8018 239.287 42.1178 239.183C42.4338 239.075 42.7758 239.021 43.1438 239.021C43.5078 239.021 43.8478 239.075 44.1638 239.183C44.4798 239.291 44.7538 239.449 44.9858 239.657C45.2178 239.861 45.3998 240.111 45.5318 240.407C45.6638 240.703 45.7298 241.039 45.7298 241.415C45.7298 241.735 45.6818 242.033 45.5858 242.309C45.4898 242.581 45.3598 242.841 45.1958 243.089C45.0318 243.337 44.8418 243.579 44.6258 243.815C44.4138 244.051 44.1878 244.289 43.9478 244.529L41.6798 246.845C41.8398 246.801 42.0018 246.767 42.1658 246.743C42.3298 246.715 42.4878 246.701 42.6398 246.701H45.5198ZM48.7307 242.363C49.1787 242.267 49.5907 242.219 49.9667 242.219C50.4147 242.219 50.8107 242.285 51.1547 242.417C51.4987 242.549 51.7847 242.731 52.0127 242.963C52.2447 243.195 52.4187 243.469 52.5347 243.785C52.6547 244.101 52.7147 244.445 52.7147 244.817C52.7147 245.273 52.6347 245.685 52.4747 246.053C52.3187 246.421 52.1007 246.737 51.8207 247.001C51.5447 247.261 51.2187 247.461 50.8427 247.601C50.4667 247.741 50.0607 247.811 49.6247 247.811C49.3727 247.811 49.1307 247.785 48.8987 247.733C48.6667 247.685 48.4487 247.619 48.2447 247.535C48.0447 247.451 47.8587 247.355 47.6867 247.247C47.5147 247.139 47.3627 247.025 47.2307 246.905L47.5607 246.449C47.6327 246.345 47.7267 246.293 47.8427 246.293C47.9227 246.293 48.0127 246.325 48.1127 246.389C48.2127 246.449 48.3347 246.517 48.4787 246.593C48.6227 246.669 48.7907 246.739 48.9827 246.803C49.1787 246.863 49.4107 246.893 49.6787 246.893C49.9787 246.893 50.2487 246.845 50.4887 246.749C50.7287 246.653 50.9347 246.517 51.1067 246.341C51.2787 246.161 51.4107 245.947 51.5027 245.699C51.5947 245.451 51.6407 245.173 51.6407 244.865C51.6407 244.597 51.6007 244.355 51.5207 244.139C51.4447 243.923 51.3267 243.739 51.1667 243.587C51.0107 243.435 50.8147 243.317 50.5787 243.233C50.3427 243.149 50.0667 243.107 49.7507 243.107C49.5347 243.107 49.3087 243.125 49.0727 243.161C48.8407 243.197 48.6027 243.255 48.3587 243.335L47.6867 243.137L48.3767 239.117H52.4507V239.585C52.4507 239.737 52.4027 239.863 52.3067 239.963C52.2147 240.059 52.0547 240.107 51.8267 240.107H49.1267L48.7307 242.363ZM57.8517 241.193C57.8517 241.529 57.7997 241.831 57.6957 242.099C57.5917 242.363 57.4517 242.587 57.2757 242.771C57.1037 242.951 56.9017 243.089 56.6697 243.185C56.4417 243.281 56.1997 243.329 55.9437 243.329C55.6757 243.329 55.4257 243.281 55.1937 243.185C54.9617 243.089 54.7597 242.951 54.5877 242.771C54.4197 242.587 54.2877 242.363 54.1917 242.099C54.0957 241.831 54.0477 241.529 54.0477 241.193C54.0477 240.849 54.0957 240.543 54.1917 240.275C54.2877 240.007 54.4197 239.781 54.5877 239.597C54.7597 239.413 54.9617 239.273 55.1937 239.177C55.4257 239.081 55.6757 239.033 55.9437 239.033C56.2157 239.033 56.4677 239.081 56.6997 239.177C56.9317 239.273 57.1337 239.413 57.3057 239.597C57.4777 239.781 57.6117 240.007 57.7077 240.275C57.8037 240.543 57.8517 240.849 57.8517 241.193ZM57.0237 241.193C57.0237 240.929 56.9957 240.705 56.9397 240.521C56.8837 240.337 56.8057 240.187 56.7057 240.071C56.6097 239.951 56.4957 239.865 56.3637 239.813C56.2317 239.761 56.0917 239.735 55.9437 239.735C55.7957 239.735 55.6577 239.761 55.5297 239.813C55.4017 239.865 55.2897 239.951 55.1937 240.071C55.0977 240.187 55.0217 240.337 54.9657 240.521C54.9097 240.705 54.8817 240.929 54.8817 241.193C54.8817 241.453 54.9097 241.675 54.9657 241.859C55.0217 242.039 55.0977 242.187 55.1937 242.303C55.2897 242.415 55.4017 242.497 55.5297 242.549C55.6577 242.597 55.7957 242.621 55.9437 242.621C56.0917 242.621 56.2317 242.597 56.3637 242.549C56.4957 242.497 56.6097 242.415 56.7057 242.303C56.8057 242.187 56.8837 242.039 56.9397 241.859C56.9957 241.675 57.0237 241.453 57.0237 241.193ZM60.8937 239.297C60.9337 239.249 60.9797 239.207 61.0317 239.171C61.0877 239.135 61.1617 239.117 61.2537 239.117H62.0277L55.7397 247.541C55.7037 247.593 55.6577 247.635 55.6017 247.667C55.5457 247.699 55.4777 247.715 55.3977 247.715H54.6117L60.8937 239.297ZM62.6097 245.687C62.6097 246.023 62.5577 246.323 62.4537 246.587C62.3497 246.851 62.2097 247.075 62.0337 247.259C61.8617 247.439 61.6597 247.577 61.4277 247.673C61.1997 247.769 60.9577 247.817 60.7017 247.817C60.4297 247.817 60.1777 247.769 59.9457 247.673C59.7177 247.577 59.5177 247.439 59.3457 247.259C59.1777 247.075 59.0457 246.851 58.9497 246.587C58.8537 246.323 58.8057 246.023 58.8057 245.687C58.8057 245.343 58.8537 245.037 58.9497 244.769C59.0457 244.497 59.1777 244.269 59.3457 244.085C59.5177 243.901 59.7177 243.761 59.9457 243.665C60.1777 243.569 60.4297 243.521 60.7017 243.521C60.9697 243.521 61.2197 243.569 61.4517 243.665C61.6877 243.761 61.8897 243.901 62.0577 244.085C62.2297 244.269 62.3637 244.497 62.4597 244.769C62.5597 245.037 62.6097 245.343 62.6097 245.687ZM61.7817 245.687C61.7817 245.423 61.7537 245.199 61.6977 245.015C61.6417 244.827 61.5637 244.675 61.4637 244.559C61.3677 244.443 61.2537 244.359 61.1217 244.307C60.9897 244.255 60.8497 244.229 60.7017 244.229C60.5537 244.229 60.4137 244.255 60.2817 244.307C60.1537 244.359 60.0417 244.443 59.9457 244.559C59.8497 244.675 59.7737 244.827 59.7177 245.015C59.6657 245.199 59.6397 245.423 59.6397 245.687C59.6397 245.947 59.6657 246.167 59.7177 246.347C59.7737 246.527 59.8497 246.675 59.9457 246.791C60.0417 246.903 60.1537 246.985 60.2817 247.037C60.4137 247.085 60.5537 247.109 60.7017 247.109C60.8497 247.109 60.9897 247.085 61.1217 247.037C61.2537 246.985 61.3677 246.903 61.4637 246.791C61.5637 246.675 61.6417 246.527 61.6977 246.347C61.7537 246.167 61.7817 245.947 61.7817 245.687Z" fill="white"/>
<path d="M46.1978 319.419C46.1978 320.171 46.1158 320.823 45.9518 321.375C45.7918 321.923 45.5718 322.377 45.2918 322.737C45.0118 323.097 44.6798 323.365 44.2958 323.541C43.9158 323.717 43.5078 323.805 43.0718 323.805C42.6318 323.805 42.2218 323.717 41.8418 323.541C41.4658 323.365 41.1378 323.097 40.8578 322.737C40.5778 322.377 40.3578 321.923 40.1978 321.375C40.0378 320.823 39.9578 320.171 39.9578 319.419C39.9578 318.667 40.0378 318.015 40.1978 317.463C40.3578 316.911 40.5778 316.455 40.8578 316.095C41.1378 315.731 41.4658 315.461 41.8418 315.285C42.2218 315.109 42.6318 315.021 43.0718 315.021C43.5078 315.021 43.9158 315.109 44.2958 315.285C44.6798 315.461 45.0118 315.731 45.2918 316.095C45.5718 316.455 45.7918 316.911 45.9518 317.463C46.1158 318.015 46.1978 318.667 46.1978 319.419ZM45.0878 319.419C45.0878 318.763 45.0318 318.213 44.9198 317.769C44.8118 317.321 44.6638 316.961 44.4758 316.689C44.2918 316.417 44.0778 316.223 43.8338 316.107C43.5898 315.987 43.3358 315.927 43.0718 315.927C42.8078 315.927 42.5538 315.987 42.3098 316.107C42.0658 316.223 41.8518 316.417 41.6678 316.689C41.4838 316.961 41.3358 317.321 41.2238 317.769C41.1158 318.213 41.0618 318.763 41.0618 319.419C41.0618 320.075 41.1158 320.625 41.2238 321.069C41.3358 321.513 41.4838 321.871 41.6678 322.143C41.8518 322.415 42.0658 322.611 42.3098 322.731C42.5538 322.847 42.8078 322.905 43.0718 322.905C43.3358 322.905 43.5898 322.847 43.8338 322.731C44.0778 322.611 44.2918 322.415 44.4758 322.143C44.6638 321.871 44.8118 321.513 44.9198 321.069C45.0318 320.625 45.0878 320.075 45.0878 319.419ZM50.8907 317.193C50.8907 317.529 50.8387 317.831 50.7347 318.099C50.6307 318.363 50.4907 318.587 50.3147 318.771C50.1427 318.951 49.9407 319.089 49.7087 319.185C49.4807 319.281 49.2387 319.329 48.9827 319.329C48.7147 319.329 48.4647 319.281 48.2327 319.185C48.0007 319.089 47.7987 318.951 47.6267 318.771C47.4587 318.587 47.3267 318.363 47.2307 318.099C47.1347 317.831 47.0867 317.529 47.0867 317.193C47.0867 316.849 47.1347 316.543 47.2307 316.275C47.3267 316.007 47.4587 315.781 47.6267 315.597C47.7987 315.413 48.0007 315.273 48.2327 315.177C48.4647 315.081 48.7147 315.033 48.9827 315.033C49.2547 315.033 49.5067 315.081 49.7387 315.177C49.9707 315.273 50.1727 315.413 50.3447 315.597C50.5167 315.781 50.6507 316.007 50.7467 316.275C50.8427 316.543 50.8907 316.849 50.8907 317.193ZM50.0627 317.193C50.0627 316.929 50.0347 316.705 49.9787 316.521C49.9227 316.337 49.8447 316.187 49.7447 316.071C49.6487 315.951 49.5347 315.865 49.4027 315.813C49.2707 315.761 49.1307 315.735 48.9827 315.735C48.8347 315.735 48.6967 315.761 48.5687 315.813C48.4407 315.865 48.3287 315.951 48.2327 316.071C48.1367 316.187 48.0607 316.337 48.0047 316.521C47.9487 316.705 47.9207 316.929 47.9207 317.193C47.9207 317.453 47.9487 317.675 48.0047 317.859C48.0607 318.039 48.1367 318.187 48.2327 318.303C48.3287 318.415 48.4407 318.497 48.5687 318.549C48.6967 318.597 48.8347 318.621 48.9827 318.621C49.1307 318.621 49.2707 318.597 49.4027 318.549C49.5347 318.497 49.6487 318.415 49.7447 318.303C49.8447 318.187 49.9227 318.039 49.9787 317.859C50.0347 317.675 50.0627 317.453 50.0627 317.193ZM53.9327 315.297C53.9727 315.249 54.0187 315.207 54.0707 315.171C54.1267 315.135 54.2007 315.117 54.2927 315.117H55.0667L48.7787 323.541C48.7427 323.593 48.6967 323.635 48.6407 323.667C48.5847 323.699 48.5167 323.715 48.4367 323.715H47.6507L53.9327 315.297ZM55.6487 321.687C55.6487 322.023 55.5967 322.323 55.4927 322.587C55.3887 322.851 55.2487 323.075 55.0727 323.259C54.9007 323.439 54.6987 323.577 54.4667 323.673C54.2387 323.769 53.9967 323.817 53.7407 323.817C53.4687 323.817 53.2167 323.769 52.9847 323.673C52.7567 323.577 52.5567 323.439 52.3847 323.259C52.2167 323.075 52.0847 322.851 51.9887 322.587C51.8927 322.323 51.8447 322.023 51.8447 321.687C51.8447 321.343 51.8927 321.037 51.9887 320.769C52.0847 320.497 52.2167 320.269 52.3847 320.085C52.5567 319.901 52.7567 319.761 52.9847 319.665C53.2167 319.569 53.4687 319.521 53.7407 319.521C54.0087 319.521 54.2587 319.569 54.4907 319.665C54.7267 319.761 54.9287 319.901 55.0967 320.085C55.2687 320.269 55.4027 320.497 55.4987 320.769C55.5987 321.037 55.6487 321.343 55.6487 321.687ZM54.8207 321.687C54.8207 321.423 54.7927 321.199 54.7367 321.015C54.6807 320.827 54.6027 320.675 54.5027 320.559C54.4067 320.443 54.2927 320.359 54.1607 320.307C54.0287 320.255 53.8887 320.229 53.7407 320.229C53.5927 320.229 53.4527 320.255 53.3207 320.307C53.1927 320.359 53.0807 320.443 52.9847 320.559C52.8887 320.675 52.8127 320.827 52.7567 321.015C52.7047 321.199 52.6787 321.423 52.6787 321.687C52.6787 321.947 52.7047 322.167 52.7567 322.347C52.8127 322.527 52.8887 322.675 52.9847 322.791C53.0807 322.903 53.1927 322.985 53.3207 323.037C53.4527 323.085 53.5927 323.109 53.7407 323.109C53.8887 323.109 54.0287 323.085 54.1607 323.037C54.2927 322.985 54.4067 322.903 54.5027 322.791C54.6027 322.675 54.6807 322.527 54.7367 322.347C54.7927 322.167 54.8207 321.947 54.8207 321.687Z" fill="white"/>
<path d="M258.099 374.84H254.387V385H252.843V374.84H249.123V373.536H258.099V374.84ZM260.921 376.896V385H259.497V376.896H260.921ZM261.225 374.352C261.225 374.491 261.196 374.621 261.137 374.744C261.084 374.861 261.009 374.968 260.913 375.064C260.822 375.155 260.713 375.227 260.585 375.28C260.462 375.333 260.332 375.36 260.193 375.36C260.054 375.36 259.924 375.333 259.801 375.28C259.684 375.227 259.58 375.155 259.489 375.064C259.398 374.968 259.326 374.861 259.273 374.744C259.22 374.621 259.193 374.491 259.193 374.352C259.193 374.213 259.22 374.083 259.273 373.96C259.326 373.832 259.398 373.723 259.489 373.632C259.58 373.536 259.684 373.461 259.801 373.408C259.924 373.355 260.054 373.328 260.193 373.328C260.332 373.328 260.462 373.355 260.585 373.408C260.713 373.461 260.822 373.536 260.913 373.632C261.009 373.723 261.084 373.832 261.137 373.96C261.196 374.083 261.225 374.213 261.225 374.352ZM263.261 385V376.896H264.117C264.319 376.896 264.445 376.995 264.493 377.192L264.597 378.024C264.895 377.656 265.231 377.355 265.605 377.12C265.978 376.885 266.41 376.768 266.901 376.768C267.445 376.768 267.885 376.92 268.221 377.224C268.562 377.528 268.807 377.939 268.957 378.456C269.074 378.163 269.223 377.909 269.405 377.696C269.591 377.483 269.799 377.307 270.029 377.168C270.258 377.029 270.501 376.928 270.757 376.864C271.018 376.8 271.282 376.768 271.549 376.768C271.975 376.768 272.354 376.837 272.685 376.976C273.021 377.109 273.303 377.307 273.533 377.568C273.767 377.829 273.946 378.152 274.069 378.536C274.191 378.915 274.253 379.349 274.253 379.84V385H272.821V379.84C272.821 379.205 272.682 378.725 272.405 378.4C272.127 378.069 271.727 377.904 271.205 377.904C270.97 377.904 270.746 377.947 270.533 378.032C270.325 378.112 270.141 378.232 269.981 378.392C269.821 378.552 269.693 378.755 269.597 379C269.506 379.24 269.461 379.52 269.461 379.84V385H268.029V379.84C268.029 379.189 267.898 378.704 267.637 378.384C267.375 378.064 266.994 377.904 266.493 377.904C266.141 377.904 265.815 378 265.517 378.192C265.218 378.379 264.943 378.635 264.693 378.96V385H263.261ZM281.841 380.064C281.841 379.733 281.793 379.432 281.697 379.16C281.606 378.883 281.47 378.645 281.289 378.448C281.113 378.245 280.897 378.091 280.641 377.984C280.385 377.872 280.094 377.816 279.769 377.816C279.086 377.816 278.545 378.016 278.145 378.416C277.75 378.811 277.505 379.36 277.409 380.064H281.841ZM282.993 383.864C282.817 384.077 282.606 384.264 282.361 384.424C282.116 384.579 281.852 384.707 281.569 384.808C281.292 384.909 281.004 384.984 280.705 385.032C280.406 385.085 280.11 385.112 279.817 385.112C279.257 385.112 278.74 385.019 278.265 384.832C277.796 384.64 277.388 384.363 277.041 384C276.7 383.632 276.433 383.179 276.241 382.64C276.049 382.101 275.953 381.483 275.953 380.784C275.953 380.219 276.038 379.691 276.209 379.2C276.385 378.709 276.636 378.285 276.961 377.928C277.286 377.565 277.684 377.283 278.153 377.08C278.622 376.872 279.15 376.768 279.737 376.768C280.222 376.768 280.67 376.851 281.081 377.016C281.497 377.176 281.854 377.411 282.153 377.72C282.457 378.024 282.694 378.403 282.865 378.856C283.036 379.304 283.121 379.816 283.121 380.392C283.121 380.616 283.097 380.765 283.049 380.84C283.001 380.915 282.91 380.952 282.777 380.952H277.361C277.377 381.464 277.446 381.909 277.569 382.288C277.697 382.667 277.873 382.984 278.097 383.24C278.321 383.491 278.588 383.68 278.897 383.808C279.206 383.931 279.553 383.992 279.937 383.992C280.294 383.992 280.601 383.952 280.857 383.872C281.118 383.787 281.342 383.696 281.529 383.6C281.716 383.504 281.87 383.416 281.993 383.336C282.121 383.251 282.23 383.208 282.321 383.208C282.438 383.208 282.529 383.253 282.593 383.344L282.993 383.864ZM289.796 379.968C289.796 381.109 289.94 382.219 290.228 383.296C290.521 384.373 290.948 385.397 291.508 386.368C291.593 386.533 291.614 386.659 291.572 386.744C291.529 386.835 291.468 386.907 291.388 386.96L290.756 387.344C290.356 386.731 290.014 386.123 289.732 385.52C289.454 384.917 289.228 384.312 289.052 383.704C288.881 383.096 288.756 382.485 288.676 381.872C288.596 381.253 288.556 380.619 288.556 379.968C288.556 379.323 288.596 378.691 288.676 378.072C288.756 377.453 288.881 376.843 289.052 376.24C289.228 375.632 289.454 375.027 289.732 374.424C290.014 373.821 290.356 373.211 290.756 372.592L291.388 372.984C291.468 373.037 291.529 373.109 291.572 373.2C291.614 373.285 291.593 373.408 291.508 373.568C290.948 374.539 290.521 375.563 290.228 376.64C289.94 377.717 289.796 378.827 289.796 379.968ZM300.065 376.896L295.545 387.392C295.497 387.499 295.436 387.584 295.361 387.648C295.292 387.712 295.183 387.744 295.033 387.744H293.977L295.457 384.528L292.113 376.896H293.345C293.468 376.896 293.564 376.928 293.633 376.992C293.708 377.051 293.759 377.117 293.785 377.192L295.953 382.296C296.039 382.52 296.111 382.755 296.169 383C296.244 382.749 296.324 382.512 296.409 382.288L298.513 377.192C298.545 377.107 298.599 377.037 298.673 376.984C298.753 376.925 298.841 376.896 298.937 376.896H300.065ZM306.528 380.064C306.528 379.733 306.48 379.432 306.384 379.16C306.294 378.883 306.158 378.645 305.976 378.448C305.8 378.245 305.584 378.091 305.328 377.984C305.072 377.872 304.782 377.816 304.456 377.816C303.774 377.816 303.232 378.016 302.832 378.416C302.438 378.811 302.192 379.36 302.096 380.064H306.528ZM307.68 383.864C307.504 384.077 307.294 384.264 307.048 384.424C306.803 384.579 306.539 384.707 306.256 384.808C305.979 384.909 305.691 384.984 305.392 385.032C305.094 385.085 304.798 385.112 304.504 385.112C303.944 385.112 303.427 385.019 302.952 384.832C302.483 384.64 302.075 384.363 301.728 384C301.387 383.632 301.12 383.179 300.928 382.64C300.736 382.101 300.64 381.483 300.64 380.784C300.64 380.219 300.726 379.691 300.896 379.2C301.072 378.709 301.323 378.285 301.648 377.928C301.974 377.565 302.371 377.283 302.84 377.08C303.31 376.872 303.838 376.768 304.424 376.768C304.91 376.768 305.358 376.851 305.768 377.016C306.184 377.176 306.542 377.411 306.84 377.72C307.144 378.024 307.382 378.403 307.552 378.856C307.723 379.304 307.808 379.816 307.808 380.392C307.808 380.616 307.784 380.765 307.736 380.84C307.688 380.915 307.598 380.952 307.464 380.952H302.048C302.064 381.464 302.134 381.909 302.256 382.288C302.384 382.667 302.56 382.984 302.784 383.24C303.008 383.491 303.275 383.68 303.584 383.808C303.894 383.931 304.24 383.992 304.624 383.992C304.982 383.992 305.288 383.952 305.544 383.872C305.806 383.787 306.03 383.696 306.216 383.6C306.403 383.504 306.558 383.416 306.68 383.336C306.808 383.251 306.918 383.208 307.008 383.208C307.126 383.208 307.216 383.253 307.28 383.344L307.68 383.864ZM313.95 381.352C313.294 381.373 312.734 381.427 312.27 381.512C311.811 381.592 311.435 381.699 311.142 381.832C310.854 381.965 310.643 382.123 310.51 382.304C310.382 382.485 310.318 382.688 310.318 382.912C310.318 383.125 310.352 383.309 310.422 383.464C310.491 383.619 310.584 383.747 310.702 383.848C310.824 383.944 310.966 384.016 311.126 384.064C311.291 384.107 311.467 384.128 311.654 384.128C311.904 384.128 312.134 384.104 312.342 384.056C312.55 384.003 312.744 383.928 312.926 383.832C313.112 383.736 313.288 383.621 313.454 383.488C313.624 383.355 313.79 383.203 313.95 383.032V381.352ZM309.35 378.04C309.798 377.608 310.28 377.285 310.798 377.072C311.315 376.859 311.888 376.752 312.518 376.752C312.971 376.752 313.374 376.827 313.726 376.976C314.078 377.125 314.374 377.333 314.614 377.6C314.854 377.867 315.035 378.189 315.158 378.568C315.28 378.947 315.342 379.363 315.342 379.816V385H314.71C314.571 385 314.464 384.979 314.39 384.936C314.315 384.888 314.256 384.797 314.214 384.664L314.054 383.896C313.84 384.093 313.632 384.269 313.43 384.424C313.227 384.573 313.014 384.701 312.79 384.808C312.566 384.909 312.326 384.987 312.07 385.04C311.819 385.099 311.539 385.128 311.23 385.128C310.915 385.128 310.619 385.085 310.342 385C310.064 384.909 309.822 384.776 309.614 384.6C309.411 384.424 309.248 384.203 309.126 383.936C309.008 383.664 308.95 383.344 308.95 382.976C308.95 382.656 309.038 382.349 309.214 382.056C309.39 381.757 309.675 381.493 310.07 381.264C310.464 381.035 310.979 380.848 311.614 380.704C312.248 380.555 313.027 380.469 313.95 380.448V379.816C313.95 379.187 313.814 378.712 313.542 378.392C313.27 378.067 312.872 377.904 312.35 377.904C311.998 377.904 311.702 377.949 311.462 378.04C311.227 378.125 311.022 378.224 310.846 378.336C310.675 378.443 310.526 378.541 310.398 378.632C310.275 378.717 310.152 378.76 310.03 378.76C309.934 378.76 309.851 378.736 309.782 378.688C309.712 378.635 309.654 378.571 309.606 378.496L309.35 378.04ZM318.863 378.52C319.119 377.965 319.433 377.533 319.807 377.224C320.18 376.909 320.636 376.752 321.175 376.752C321.345 376.752 321.508 376.771 321.663 376.808C321.823 376.845 321.964 376.904 322.087 376.984L321.983 378.048C321.951 378.181 321.871 378.248 321.743 378.248C321.668 378.248 321.559 378.232 321.415 378.2C321.271 378.168 321.108 378.152 320.927 378.152C320.671 378.152 320.441 378.189 320.239 378.264C320.041 378.339 319.863 378.451 319.703 378.6C319.548 378.744 319.407 378.925 319.279 379.144C319.156 379.357 319.044 379.603 318.943 379.88V385H317.511V376.896H318.327C318.481 376.896 318.588 376.925 318.647 376.984C318.705 377.043 318.745 377.144 318.767 377.288L318.863 378.52ZM328.012 378.232C327.948 378.349 327.849 378.408 327.716 378.408C327.636 378.408 327.545 378.379 327.444 378.32C327.343 378.261 327.217 378.197 327.068 378.128C326.924 378.053 326.751 377.987 326.548 377.928C326.345 377.864 326.105 377.832 325.828 377.832C325.588 377.832 325.372 377.864 325.18 377.928C324.988 377.987 324.823 378.069 324.684 378.176C324.551 378.283 324.447 378.408 324.372 378.552C324.303 378.691 324.268 378.843 324.268 379.008C324.268 379.216 324.327 379.389 324.444 379.528C324.567 379.667 324.727 379.787 324.924 379.888C325.121 379.989 325.345 380.08 325.596 380.16C325.847 380.235 326.103 380.317 326.364 380.408C326.631 380.493 326.889 380.589 327.14 380.696C327.391 380.803 327.615 380.936 327.812 381.096C328.009 381.256 328.167 381.453 328.284 381.688C328.407 381.917 328.468 382.195 328.468 382.52C328.468 382.893 328.401 383.24 328.268 383.56C328.135 383.875 327.937 384.149 327.676 384.384C327.415 384.613 327.095 384.795 326.716 384.928C326.337 385.061 325.9 385.128 325.404 385.128C324.839 385.128 324.327 385.037 323.868 384.856C323.409 384.669 323.02 384.432 322.7 384.144L323.036 383.6C323.079 383.531 323.129 383.477 323.188 383.44C323.247 383.403 323.321 383.384 323.412 383.384C323.508 383.384 323.609 383.421 323.716 383.496C323.823 383.571 323.951 383.653 324.1 383.744C324.255 383.835 324.441 383.917 324.66 383.992C324.879 384.067 325.151 384.104 325.476 384.104C325.753 384.104 325.996 384.069 326.204 384C326.412 383.925 326.585 383.827 326.724 383.704C326.863 383.581 326.964 383.44 327.028 383.28C327.097 383.12 327.132 382.949 327.132 382.768C327.132 382.544 327.071 382.36 326.948 382.216C326.831 382.067 326.673 381.941 326.476 381.84C326.279 381.733 326.052 381.643 325.796 381.568C325.545 381.488 325.287 381.405 325.02 381.32C324.759 381.235 324.5 381.139 324.244 381.032C323.993 380.92 323.769 380.781 323.572 380.616C323.375 380.451 323.215 380.248 323.092 380.008C322.975 379.763 322.916 379.467 322.916 379.12C322.916 378.811 322.98 378.515 323.108 378.232C323.236 377.944 323.423 377.693 323.668 377.48C323.913 377.261 324.215 377.088 324.572 376.96C324.929 376.832 325.337 376.768 325.796 376.768C326.329 376.768 326.807 376.853 327.228 377.024C327.655 377.189 328.023 377.419 328.332 377.712L328.012 378.232ZM331.038 379.968C331.038 378.827 330.892 377.717 330.598 376.64C330.31 375.563 329.886 374.539 329.326 373.568C329.284 373.488 329.257 373.419 329.246 373.36C329.236 373.296 329.238 373.243 329.254 373.2C329.27 373.152 329.294 373.112 329.326 373.08C329.364 373.043 329.404 373.011 329.446 372.984L330.078 372.592C330.478 373.211 330.817 373.821 331.094 374.424C331.377 375.027 331.604 375.632 331.774 376.24C331.95 376.843 332.078 377.453 332.158 378.072C332.238 378.691 332.278 379.323 332.278 379.968C332.278 380.619 332.238 381.253 332.158 381.872C332.078 382.485 331.95 383.096 331.774 383.704C331.604 384.312 331.377 384.917 331.094 385.52C330.817 386.123 330.478 386.731 330.078 387.344L329.446 386.96C329.404 386.933 329.364 386.901 329.326 386.864C329.294 386.832 329.27 386.792 329.254 386.744C329.238 386.701 329.236 386.648 329.246 386.584C329.257 386.52 329.284 386.448 329.326 386.368C329.886 385.397 330.31 384.373 330.598 383.296C330.892 382.219 331.038 381.109 331.038 379.968Z" fill="white"/>
<path opacity="0.5" d="M495.349 320.208H77.6133V7.93506" stroke="white" stroke-width="3" stroke-miterlimit="10"/>
<path opacity="0.3" d="M103.389 84.9883H458.727" stroke="white" stroke-miterlimit="10"/>
<path opacity="0.3" d="M103.389 163.51H458.727" stroke="white" stroke-miterlimit="10"/>
<path opacity="0.3" d="M103.389 242.032H458.727" stroke="white" stroke-miterlimit="10"/>
<g clip-path="url(#clip0_760_3)">
<path d="M487.79 8.8C487.79 13.66 483.85 17.6 478.99 17.6C477.63 17.6 476.34 17.29 475.2 16.74L181.91 244.32V314.7H81V307.7H174.91V240.89L176.26 239.84L470.59 11.45C470.33 10.61 470.19 9.72 470.19 8.8C470.19 3.94 474.13 0 478.99 0C483.85 0 487.79 3.94 487.79 8.8Z" fill="url(#paint0_linear_760_3)"/>
</g>
<defs>
<linearGradient id="paint0_linear_760_3" x1="81" y1="157.35" x2="487.79" y2="157.35" gradientUnits="userSpaceOnUse">
<stop stop-color="#4E62AD"/>
<stop offset="1" stop-color="#6C407E"/>
</linearGradient>
<clipPath id="clip0_760_3">
<rect width="406.79" height="314.7" fill="white" transform="translate(81)"/>
</clipPath>
</defs>
</svg>
