<?xml version="1.0" encoding="UTF-8"?>
<svg xmlns="http://www.w3.org/2000/svg" xmlns:xlink="http://www.w3.org/1999/xlink" version="1.1" viewBox="0 0 490.3 387.7">
  <defs>
    <style>
      .cls-1, .cls-2, .cls-3 {
        fill: none;
      }

      .cls-4 {
        fill: url(#linear-gradient);
      }

      .cls-5 {
        fill: #fff;
      }

      .cls-2 {
        opacity: .5;
        stroke-width: 3px;
      }

      .cls-2, .cls-3 {
        isolation: isolate;
        stroke: #fff;
        stroke-miterlimit: 10;
      }

      .cls-3 {
        opacity: .3;
      }

      .cls-6 {
        clip-path: url(#clippath);
      }
    </style>
    <clipPath id="clippath">
      <rect class="cls-1" x="75.9" width="406.8" height="314.7"/>
    </clipPath>
    <linearGradient id="linear-gradient" x1="75.9" y1="276" x2="482.7" y2="276" gradientTransform="translate(0 433.4) scale(1 -1)" gradientUnits="userSpaceOnUse">
      <stop offset="0" stop-color="#4e62ad"/>
      <stop offset="1" stop-color="#6c407e"/>
    </linearGradient>
  </defs>
  <!-- Generator: Adobe Illustrator 28.7.7, SVG Export Plug-In . SVG Version: 1.2.0 Build 194)  -->
  <g>
    <g id="Layer_1">
      <path class="cls-5" d="M72.3,327c3.6,0,6.4-2.9,6.4-6.4s-2.9-6.4-6.4-6.4-6.4,2.9-6.4,6.4,2.9,6.4,6.4,6.4Z"/>
      <path class="cls-5" d="M72.3,12.9c3.6,0,6.4-2.9,6.4-6.4S75.9,0,72.3,0s-6.4,2.9-6.4,6.4,2.9,6.4,6.4,6.4Z"/>
      <path class="cls-5" d="M72.3,170c3.6,0,6.4-2.9,6.4-6.4s-2.9-6.4-6.4-6.4-6.4,2.9-6.4,6.4,2.9,6.4,6.4,6.4Z"/>
      <path class="cls-5" d="M72.3,248.5c3.6,0,6.4-2.9,6.4-6.4s-2.9-6.4-6.4-6.4-6.4,2.9-6.4,6.4,2.9,6.4,6.4,6.4Z"/>
      <path class="cls-5" d="M72.3,91.4c3.6,0,6.4-2.9,6.4-6.4s-2.9-6.4-6.4-6.4-6.4,2.9-6.4,6.4,2.9,6.4,6.4,6.4Z"/>
      <path class="cls-3" d="M98.3,6.5h355.3"/>
      <path class="cls-5" d="M474.7,342.9v-4.7c0-.1,0-.3,0-.5,0-.2,0-.3,0-.5l-4.2,5.7h4.1ZM477.7,342.9v.8c0,0,0,.2,0,.2,0,0-.1,0-.2,0h-1.4v3h-1.2v-3h-5.1c-.1,0-.2,0-.3,0,0,0-.1-.1-.1-.2v-.7c-.1,0,5.4-7.4,5.4-7.4h1.3v7.3h1.7Z"/>
      <path class="cls-5" d="M77.7,341.3c0,1-.1,1.9-.3,2.6-.2.7-.5,1.3-.9,1.8-.4.5-.8.8-1.3,1.1-.5.2-1.1.4-1.6.4s-1.1-.1-1.6-.4c-.5-.2-.9-.6-1.3-1.1-.4-.5-.7-1.1-.9-1.8-.2-.7-.3-1.6-.3-2.6s.1-1.9.3-2.6c.2-.7.5-1.3.9-1.8.4-.5.8-.8,1.3-1.1.5-.2,1.1-.4,1.6-.4s1.1.1,1.6.4c.5.2,1,.6,1.3,1.1.4.5.7,1.1.9,1.8.2.7.3,1.6.3,2.6ZM76.2,341.3c0-.9,0-1.6-.2-2.2-.1-.6-.3-1.1-.6-1.4-.2-.4-.5-.6-.9-.8-.3-.2-.7-.2-1-.2s-.7,0-1,.2c-.3.2-.6.4-.9.8-.2.4-.4.8-.6,1.4-.1.6-.2,1.3-.2,2.2s0,1.6.2,2.2c.1.6.3,1.1.6,1.4s.5.6.9.8c.3.2.7.2,1,.2s.7,0,1-.2c.3-.2.6-.4.9-.8.3-.4.4-.8.6-1.4.1-.6.2-1.3.2-2.2Z"/>
      <path class="cls-5" d="M177,345.9v1.1h-6.1v-1.1h2.5v-7.8c0-.2,0-.5,0-.7l-2,1.8c0,0-.1,0-.2.1,0,0-.1,0-.2,0,0,0-.1,0-.2,0,0,0,0,0-.1-.1l-.4-.6,3.4-3h1.2v10.4h2.3Z"/>
      <path class="cls-5" d="M276.8,345.6c.2,0,.3,0,.4.1s.1.2.1.4v.9h-7.6v-.5c0-.1,0-.2,0-.3,0-.1.1-.2.2-.3l3.7-3.7c.3-.3.6-.6.8-.9.3-.3.5-.6.6-.9.2-.3.3-.6.4-.9,0-.3.1-.6.1-1s0-.6-.2-.9c-.1-.3-.3-.5-.4-.6-.2-.2-.4-.3-.6-.4-.3,0-.5-.1-.8-.1s-.6,0-.8.1c-.2,0-.5.2-.7.4-.2.1-.3.3-.5.5s-.2.4-.3.7c0,.2-.2.3-.3.4-.1,0-.3,0-.5,0h-.7c0-.7.2-1.1.4-1.5.2-.4.5-.7.8-1,.3-.3.7-.5,1.1-.6.4-.1.9-.2,1.4-.2s.9,0,1.4.2c.4.1.8.4,1.1.6.3.3.6.6.7,1,.2.4.3.8.3,1.3s0,.8-.2,1.2c-.1.4-.3.7-.5,1-.2.3-.5.7-.8,1-.3.3-.6.6-.9,1l-3,3.1c.2,0,.4-.1.6-.1.2,0,.4,0,.6,0h3.8Z"/>
      <path class="cls-5" d="M369.9,338.6c0-.5.2-1,.4-1.4.2-.4.5-.7.8-1,.3-.3.7-.5,1.1-.6.4-.1.9-.2,1.4-.2s.9,0,1.3.2c.4.1.8.3,1.1.6.3.3.5.6.7.9.2.4.2.8.2,1.2s0,.7-.1,1c0,.3-.2.5-.4.7-.2.2-.4.4-.6.5s-.5.3-.8.4c.7.2,1.3.5,1.7,1,.4.5.6,1,.6,1.7s-.1,1-.3,1.4c-.2.4-.5.8-.8,1.1-.3.3-.8.5-1.2.7-.5.2-1,.2-1.5.2s-1.1,0-1.6-.2c-.4-.2-.8-.4-1.1-.6-.3-.3-.5-.6-.7-.9-.2-.4-.4-.8-.5-1.2l.6-.3c.2,0,.3,0,.5,0,.2,0,.3.1.3.3,0,.1.2.3.3.5.1.2.3.4.4.6s.4.4.7.5c.3.1.6.2,1.1.2s.7,0,1-.2c.3-.1.6-.3.8-.5.2-.2.4-.4.5-.7.1-.3.2-.5.2-.8s0-.6-.1-.8c0-.3-.2-.5-.4-.7-.2-.2-.5-.3-.9-.4-.4-.1-.9-.2-1.5-.2v-1c.5,0,.9,0,1.2-.2.3-.1.6-.2.8-.4.2-.2.4-.4.5-.6.1-.2.2-.5.2-.8s0-.6-.2-.9c-.1-.2-.2-.4-.4-.6s-.4-.3-.6-.4c-.2,0-.5-.1-.8-.1s-.6,0-.8.1c-.2,0-.5.2-.7.4-.2.1-.3.3-.5.5s-.2.4-.3.7c0,.2-.2.3-.3.4-.1,0-.3,0-.4,0h-.7Z"/>
      <path class="cls-5" d="M1.6,202.4v3.7h10.2v1.5H1.6v3.7H.3v-9h1.3ZM3.6,199.6c0-.6,0-1.1.3-1.6.2-.5.5-.9.8-1.2.4-.3.8-.6,1.3-.8.5-.2,1.1-.3,1.7-.3s1.2,0,1.7.3c.5.2.9.4,1.3.8.4.3.6.7.8,1.2.2.5.3,1,.3,1.6s0,1.1-.3,1.6c-.2.5-.5.9-.8,1.2-.4.3-.8.6-1.3.8-.5.2-1.1.3-1.7.3s-1.2,0-1.7-.3c-.5-.2-1-.4-1.3-.8-.4-.3-.6-.7-.8-1.2-.2-.5-.3-1-.3-1.6ZM10.8,199.6c0-.8-.3-1.4-.8-1.8-.5-.4-1.3-.6-2.2-.6s-1.7.2-2.3.6c-.5.4-.8,1-.8,1.8s0,.8.2,1.1c.1.3.3.6.6.8.3.2.6.3,1,.4.4,0,.8.1,1.3.1,1,0,1.7-.2,2.2-.6.5-.4.8-1,.8-1.8ZM0,192.5h6.9v-.4c0-.1,0-.2,0-.3,0,0,0-.2-.2-.2l-2.7-2.6c0,0-.2-.2-.2-.2,0,0,0-.2,0-.3v-1.3l3.2,3c.2.1.3.3.4.5,0,0,.1-.2.2-.3,0,0,.2-.2.3-.2l4-3.2v1.3c0,.1,0,.2,0,.3,0,0-.1.2-.2.2l-3.3,2.7c-.1,0-.2.2-.2.2,0,0,0,.2,0,.4v.4h3.9v1.4H0v-1.4ZM6.8,180.9c-.3,0-.6,0-.9.1-.3,0-.5.2-.7.4-.2.2-.4.4-.5.6-.1.3-.2.5-.2.9,0,.7.2,1.2.6,1.6.4.4.9.6,1.6.7v-4.4ZM10.6,179.7c.2.2.4.4.6.6.2.2.3.5.4.8.1.3.2.6.2.9,0,.3,0,.6,0,.9,0,.6,0,1.1-.3,1.6-.2.5-.5.9-.8,1.2-.4.3-.8.6-1.4.8-.5.2-1.2.3-1.9.3s-1.1,0-1.6-.3c-.5-.2-.9-.4-1.3-.8-.4-.3-.6-.7-.8-1.2-.2-.5-.3-1-.3-1.6s0-.9.2-1.3c.2-.4.4-.8.7-1.1.3-.3.7-.5,1.1-.7.4-.2,1-.3,1.5-.3s.4,0,.4,0c0,0,.1.1.1.3v5.4c.5,0,1,0,1.3-.2.4-.1.7-.3,1-.5.3-.2.4-.5.6-.8.1-.3.2-.7.2-1s0-.7-.1-.9c0-.3-.2-.5-.3-.7,0-.2-.2-.3-.3-.5,0-.1-.1-.2-.1-.3s0-.2.1-.3l.5-.4ZM4.9,176.5c-.2-.2-.4-.4-.5-.6-.2-.2-.3-.4-.4-.6-.1-.2-.2-.5-.3-.7,0-.3,0-.5,0-.8,0-.4,0-.8.2-1.2.1-.3.4-.6.6-.8.3-.2.6-.4,1-.5.4-.1.8-.2,1.3-.2h5.2v1.4h-5.2c-.6,0-1.1.1-1.4.4-.3.3-.5.7-.5,1.3s.1.8.3,1.2c.2.4.5.7.8,1h6v1.4H3.7v-.9c0-.2,0-.3.3-.4h.9ZM5,164.2c.1,0,.2.2.2.3s0,.2,0,.3c0,.1-.1.2-.2.4,0,.1-.1.3-.2.5,0,.2,0,.4,0,.7s0,.5,0,.6c0,.2.1.4.2.5.1.1.2.2.4.3.1,0,.3.1.5.1s.4,0,.5-.2c.1-.1.3-.3.4-.5.1-.2.2-.4.3-.7,0-.2.2-.5.2-.8,0-.3.2-.5.3-.8.1-.2.2-.5.4-.7.2-.2.4-.4.6-.5.2-.1.5-.2.8-.2s.7,0,1,.2c.3.1.6.3.8.6.2.3.4.6.5,1,.1.4.2.8.2,1.3s0,1.1-.3,1.5c-.2.5-.4.8-.7,1.2l-.5-.3c0,0-.1,0-.2-.2,0,0,0-.1,0-.2s0-.2.1-.3c0-.1.2-.2.2-.4,0-.2.2-.3.2-.6,0-.2.1-.5.1-.8s0-.5-.1-.7c0-.2-.2-.4-.3-.5-.1-.1-.3-.2-.4-.3-.2,0-.3-.1-.5-.1s-.4,0-.6.2c-.1.1-.3.3-.4.5-.1.2-.2.4-.3.7,0,.3-.2.5-.2.8,0,.3-.2.5-.3.8-.1.3-.3.5-.4.7-.2.2-.4.4-.6.5-.2.1-.5.2-.9.2s-.6,0-.9-.2c-.3-.1-.5-.3-.8-.6-.2-.2-.4-.5-.5-.9-.1-.4-.2-.8-.2-1.2s0-1,.3-1.4c.2-.4.4-.8.7-1.1l.5.3ZM.3,148.8l11.5,4.7v1.4l-11.5,4.7v-1.2c0-.1,0-.3.1-.3,0,0,.2-.1.3-.2l8.1-3.2c.2,0,.4-.1.6-.2.2,0,.4-.1.7-.2-.2,0-.5-.1-.7-.2-.2,0-.4-.1-.6-.2l-8.1-3.2c0,0-.2,0-.2-.2,0,0-.1-.2-.1-.3v-1.2ZM6.8,143.4c-.3,0-.6,0-.9.1-.3,0-.5.2-.7.4-.2.2-.4.4-.5.6-.1.3-.2.5-.2.9,0,.7.2,1.2.6,1.6.4.4.9.6,1.6.7v-4.4ZM10.6,142.3c.2.2.4.4.6.6.2.2.3.5.4.8.1.3.2.6.2.9,0,.3,0,.6,0,.9,0,.6,0,1.1-.3,1.6-.2.5-.5.9-.8,1.2-.4.3-.8.6-1.4.8-.5.2-1.2.3-1.9.3s-1.1,0-1.6-.3c-.5-.2-.9-.4-1.3-.8-.4-.3-.6-.7-.8-1.2-.2-.5-.3-1-.3-1.6s0-.9.2-1.3c.2-.4.4-.8.7-1.1.3-.3.7-.5,1.1-.7.4-.2,1-.3,1.5-.3s.4,0,.4,0c0,0,.1.1.1.3v5.4c.5,0,1,0,1.3-.2.4-.1.7-.3,1-.5.3-.2.4-.5.6-.8.1-.3.2-.7.2-1s0-.7-.1-.9c0-.3-.2-.5-.3-.7,0-.2-.2-.3-.3-.5,0-.1-.1-.2-.1-.3s0-.2.1-.3l.5-.4ZM5,135.7c.1,0,.2.2.2.3s0,.2,0,.3c0,.1-.1.2-.2.4,0,.1-.1.3-.2.5,0,.2,0,.4,0,.7s0,.5,0,.6c0,.2.1.4.2.5.1.1.2.2.4.3.1,0,.3.1.5.1s.4,0,.5-.2c.1-.1.3-.3.4-.5.1-.2.2-.4.3-.7,0-.3.2-.5.2-.8,0-.3.2-.5.3-.8.1-.3.2-.5.4-.7.2-.2.4-.4.6-.5.2-.1.5-.2.8-.2s.7,0,1,.2c.3.1.6.3.8.6.2.3.4.6.5,1,.1.4.2.8.2,1.3s0,1.1-.3,1.5c-.2.5-.4.8-.7,1.2l-.5-.3c0,0-.1,0-.2-.2,0,0,0-.1,0-.2s0-.2.1-.3c0-.1.2-.2.2-.4,0-.2.2-.3.2-.6,0-.2.1-.5.1-.8s0-.5-.1-.7c0-.2-.2-.4-.3-.5-.1-.1-.3-.2-.4-.3-.2,0-.3-.1-.5-.1s-.4,0-.6.2c-.1.1-.3.3-.4.5-.1.2-.2.4-.3.7,0,.2-.2.5-.2.8,0,.3-.2.5-.3.8-.1.2-.3.5-.4.7-.2.2-.4.4-.6.5-.2.1-.5.2-.9.2s-.6,0-.9-.2c-.3-.1-.5-.3-.8-.6-.2-.2-.4-.5-.5-.9-.1-.4-.2-.8-.2-1.2s0-1,.3-1.4c.2-.4.4-.8.7-1.1l.5.3ZM11.9,131c0,.6-.2,1.1-.5,1.5-.4.3-.9.5-1.5.5h-5v1c0,0,0,.2,0,.2,0,0-.1,0-.2,0h-.6l-.2-1.3-2.5-.3c0,0-.1,0-.2-.1,0,0,0-.1,0-.2v-.7h2.8v-2.3h1v2.3h4.9c.3,0,.6,0,.8-.2.2-.2.2-.4.2-.6s0-.3,0-.4c0-.1,0-.2-.1-.3,0,0,0-.1-.1-.2,0,0,0-.1,0-.2,0,0,0-.1.1-.2l.7-.4c.2.2.4.5.5.9.1.3.2.7.2,1.1ZM6.8,122.4c-.3,0-.6,0-.9.1-.3,0-.5.2-.7.4-.2.2-.4.4-.5.6-.1.3-.2.5-.2.9,0,.7.2,1.2.6,1.6.4.4.9.6,1.6.7v-4.4ZM10.6,121.2c.2.2.4.4.6.6.2.2.3.5.4.8.1.3.2.6.2.9,0,.3,0,.6,0,.9,0,.6,0,1.1-.3,1.6-.2.5-.5.9-.8,1.2-.4.3-.8.6-1.4.8-.5.2-1.2.3-1.9.3s-1.1,0-1.6-.3c-.5-.2-.9-.4-1.3-.8-.4-.3-.6-.7-.8-1.2-.2-.5-.3-1-.3-1.6s0-.9.2-1.3c.2-.4.4-.8.7-1.1.3-.3.7-.5,1.1-.7.4-.2,1-.3,1.5-.3s.4,0,.4,0c0,0,.1.1.1.3v5.4c.5,0,1,0,1.3-.2.4-.1.7-.3,1-.5.3-.2.4-.5.6-.8.1-.3.2-.7.2-1s0-.7-.1-.9c0-.3-.2-.5-.3-.7,0-.2-.2-.3-.3-.5,0-.1-.1-.2-.1-.3s0-.2.1-.3l.5-.4ZM5.6,114c-.4.3-.6.6-.7.9-.1.3-.2.7-.2,1,0,.8.3,1.3.8,1.7.5.4,1.3.6,2.3.6s1,0,1.4-.1c.4,0,.7-.2.9-.4.2-.2.4-.4.5-.6.1-.3.2-.5.2-.9,0-.5-.1-.9-.3-1.2-.2-.4-.5-.7-.9-1h-3.9ZM0,112.6h11.8v.8c0,.2,0,.3-.3.4h-1c.4.5.8.9,1,1.3.3.4.4,1,.4,1.5s0,.9-.3,1.3c-.2.4-.4.7-.8,1-.3.3-.8.5-1.3.6-.5.1-1.1.2-1.8.2s-1.2,0-1.7-.2c-.5-.2-1-.4-1.3-.7-.4-.3-.7-.7-.9-1.1-.2-.4-.3-.9-.3-1.5s0-.9.3-1.3c.2-.4.4-.7.7-1H0v-1.4Z"/>
      <path class="cls-5" d="M33.6,11.9v.8h-4.6v-.8h1.8v-5.9c0-.2,0-.4,0-.5l-1.5,1.3c0,0-.1,0-.2,0,0,0-.1,0-.1,0s0,0-.1,0c0,0,0,0,0,0l-.3-.5,2.6-2.2h.9v7.8h1.7ZM41.1,8.4c0,.8,0,1.4-.2,2-.2.5-.4,1-.7,1.4-.3.4-.6.6-1,.8-.4.2-.8.3-1.2.3s-.8,0-1.2-.3c-.4-.2-.7-.4-1-.8-.3-.4-.5-.8-.7-1.4-.2-.6-.2-1.2-.2-2s0-1.4.2-2c.2-.6.4-1,.7-1.4.3-.4.6-.6,1-.8.4-.2.8-.3,1.2-.3s.8,0,1.2.3c.4.2.7.4,1,.8.3.4.5.8.7,1.4.2.6.2,1.2.2,2ZM40,8.4c0-.7,0-1.2-.2-1.6-.1-.4-.3-.8-.4-1.1-.2-.3-.4-.5-.6-.6-.2-.1-.5-.2-.8-.2s-.5,0-.8.2c-.2.1-.5.3-.6.6-.2.3-.3.6-.4,1.1-.1.4-.2,1-.2,1.6s0,1.2.2,1.6c.1.4.3.8.4,1.1.2.3.4.5.6.6.2.1.5.2.8.2s.5,0,.8-.2c.2-.1.5-.3.6-.6.2-.3.3-.6.4-1.1.1-.4.2-1,.2-1.6ZM48,8.4c0,.8,0,1.4-.2,2-.2.5-.4,1-.7,1.4s-.6.6-1,.8c-.4.2-.8.3-1.2.3s-.8,0-1.2-.3c-.4-.2-.7-.4-1-.8-.3-.4-.5-.8-.7-1.4-.2-.6-.2-1.2-.2-2s0-1.4.2-2c.2-.6.4-1,.7-1.4.3-.4.6-.6,1-.8.4-.2.8-.3,1.2-.3s.8,0,1.2.3c.4.2.7.4,1,.8.3.4.5.8.7,1.4.2.6.2,1.2.2,2ZM46.9,8.4c0-.7,0-1.2-.2-1.6-.1-.4-.3-.8-.4-1.1-.2-.3-.4-.5-.6-.6-.2-.1-.5-.2-.8-.2s-.5,0-.8.2c-.2.1-.5.3-.6.6-.2.3-.3.6-.4,1.1-.1.4-.2,1-.2,1.6s0,1.2.2,1.6c.1.4.3.8.4,1.1.2.3.4.5.6.6.2.1.5.2.8.2s.5,0,.8-.2c.2-.1.5-.3.6-.6.2-.3.3-.6.4-1.1.1-.4.2-1,.2-1.6ZM52.7,6.2c0,.3,0,.6-.2.9-.1.3-.2.5-.4.7-.2.2-.4.3-.6.4-.2,0-.5.1-.7.1s-.5,0-.8-.1c-.2,0-.4-.2-.6-.4-.2-.2-.3-.4-.4-.7,0-.3-.1-.6-.1-.9s0-.6.1-.9.2-.5.4-.7c.2-.2.4-.3.6-.4.2,0,.5-.1.8-.1s.5,0,.8.1c.2,0,.4.2.6.4.2.2.3.4.4.7s.1.6.1.9ZM51.9,6.2c0-.3,0-.5,0-.7s-.1-.3-.2-.4c0-.1-.2-.2-.3-.3s-.3,0-.4,0-.3,0-.4,0c-.1,0-.2.1-.3.3,0,.1-.2.3-.2.4s0,.4,0,.7,0,.5,0,.7c0,.2.1.3.2.4,0,.1.2.2.3.2.1,0,.3,0,.4,0s.3,0,.4,0c.1,0,.2-.1.3-.2.1-.1.2-.3.2-.4,0-.2,0-.4,0-.7ZM55.8,4.3s0,0,.1-.1c0,0,.1,0,.2,0h.8l-6.3,8.4c0,0,0,0-.1.1,0,0-.1,0-.2,0h-.8l6.3-8.4ZM57.5,10.7c0,.3,0,.6-.2.9-.1.3-.2.5-.4.7-.2.2-.4.3-.6.4-.2,0-.5.1-.7.1s-.5,0-.8-.1c-.2,0-.4-.2-.6-.4-.2-.2-.3-.4-.4-.7s-.1-.6-.1-.9,0-.6.1-.9c0-.3.2-.5.4-.7.2-.2.4-.3.6-.4.2,0,.5-.1.8-.1s.5,0,.8.1c.2,0,.4.2.6.4.2.2.3.4.4.7,0,.3.2.6.2.9ZM56.6,10.7c0-.3,0-.5,0-.7,0-.2-.1-.3-.2-.5,0-.1-.2-.2-.3-.3-.1,0-.3,0-.4,0s-.3,0-.4,0c-.1,0-.2.1-.3.3s-.2.3-.2.5c0,.2,0,.4,0,.7s0,.5,0,.7c0,.2.1.3.2.4,0,.1.2.2.3.2.1,0,.3,0,.4,0s.3,0,.4,0c.1,0,.2-.1.3-.2,0-.1.2-.3.2-.4,0-.2,0-.4,0-.7Z"/>
      <path class="cls-5" d="M41,81.1v.5c0,.1,0,.2,0,.3,0,0,0,.2,0,.2l-3.6,7.2c0,.1-.1.2-.2.3,0,0-.2.1-.4.1h-.8l3.6-7.1c0,0,.1-.2.2-.3,0,0,.1-.2.2-.2h-4.5c0,0-.1,0-.2,0,0,0,0-.1,0-.2v-.7h5.8ZM43.6,84.4c.4,0,.9-.1,1.2-.1s.8,0,1.2.2c.3.1.6.3.9.5.2.2.4.5.5.8.1.3.2.7.2,1s0,.9-.2,1.2c-.2.4-.4.7-.7.9-.3.3-.6.5-1,.6s-.8.2-1.2.2-.5,0-.7,0c-.2,0-.5-.1-.7-.2-.2,0-.4-.2-.6-.3-.2-.1-.3-.2-.5-.3l.3-.5c0-.1.2-.2.3-.2s.2,0,.3,0c0,0,.2.1.4.2.1,0,.3.1.5.2.2,0,.4,0,.7,0s.6,0,.8-.1c.2,0,.4-.2.6-.4.2-.2.3-.4.4-.6s.1-.5.1-.8,0-.5-.1-.7c0-.2-.2-.4-.4-.6-.2-.2-.4-.3-.6-.4s-.5-.1-.8-.1-.4,0-.7,0c-.2,0-.5,0-.7.2l-.7-.2.7-4h4.1v.5c0,.2,0,.3-.1.4,0,0-.3.1-.5.1h-2.7l-.4,2.3ZM52.8,83.2c0,.3,0,.6-.2.9-.1.3-.2.5-.4.7-.2.2-.4.3-.6.4-.2,0-.5.1-.7.1s-.5,0-.8-.1c-.2,0-.4-.2-.6-.4-.2-.2-.3-.4-.4-.7,0-.3-.1-.6-.1-.9s0-.7.1-.9.2-.5.4-.7c.2-.2.4-.3.6-.4.2,0,.5-.1.8-.1s.5,0,.8.1c.2,0,.4.2.6.4.2.2.3.4.4.7s.1.6.1.9ZM51.9,83.2c0-.3,0-.5,0-.7s-.1-.3-.2-.5c0-.1-.2-.2-.3-.3s-.3,0-.4,0-.3,0-.4,0c-.1,0-.2.1-.3.3,0,.1-.2.3-.2.5,0,.2,0,.4,0,.7s0,.5,0,.7c0,.2.1.3.2.4,0,.1.2.2.3.2.1,0,.3,0,.4,0s.3,0,.4,0c.1,0,.2-.1.3-.2,0-.1.2-.3.2-.4,0-.2,0-.4,0-.7ZM55.8,81.3s0,0,.1-.1c0,0,.1,0,.2,0h.8l-6.3,8.4c0,0,0,0-.1.1,0,0-.1,0-.2,0h-.8l6.3-8.4ZM57.5,87.7c0,.3,0,.6-.2.9s-.2.5-.4.7c-.2.2-.4.3-.6.4-.2,0-.5.1-.7.1s-.5,0-.8-.1c-.2,0-.4-.2-.6-.4-.2-.2-.3-.4-.4-.7s-.1-.6-.1-.9,0-.7.1-.9c0-.3.2-.5.4-.7.2-.2.4-.3.6-.4.2,0,.5-.1.8-.1s.5,0,.8.1c.2,0,.4.2.6.4.2.2.3.4.4.7,0,.3.1.6.1.9ZM56.7,87.7c0-.3,0-.5,0-.7,0-.2-.1-.3-.2-.5,0-.1-.2-.2-.3-.3-.1,0-.3,0-.4,0s-.3,0-.4,0c-.1,0-.2.1-.3.3,0,.1-.2.3-.2.5,0,.2,0,.4,0,.7s0,.5,0,.7c0,.2.1.3.2.4,0,.1.2.2.3.2.1,0,.3,0,.4,0s.3,0,.4,0c.1,0,.2-.1.3-.2.1-.1.2-.3.2-.4s0-.4,0-.7Z"/>
      <path class="cls-5" d="M36.7,162.4c.4,0,.9-.1,1.2-.1s.8,0,1.2.2c.3.1.6.3.9.5.2.2.4.5.5.8.1.3.2.7.2,1s0,.9-.2,1.2c-.2.4-.4.7-.7.9-.3.3-.6.5-1,.6-.4.1-.8.2-1.2.2s-.5,0-.7,0c-.2,0-.5-.1-.7-.2-.2,0-.4-.2-.6-.3-.2-.1-.3-.2-.5-.3l.3-.5c0-.1.2-.2.3-.2s.2,0,.3,0c.1,0,.2.1.4.2s.3.1.5.2c.2,0,.4,0,.7,0s.6,0,.8-.1c.2,0,.4-.2.6-.4.2-.2.3-.4.4-.6,0-.2.1-.5.1-.8s0-.5-.1-.7c0-.2-.2-.4-.4-.6-.2-.2-.4-.3-.6-.4s-.5-.1-.8-.1-.4,0-.7,0c-.2,0-.5,0-.7.2l-.7-.2.7-4h4.1v.5c0,.2,0,.3-.1.4,0,0-.3.1-.5.1h-2.7l-.4,2.3ZM48.1,163.4c0,.8,0,1.4-.2,2-.2.5-.4,1-.7,1.4-.3.4-.6.6-1,.8-.4.2-.8.3-1.2.3s-.8,0-1.2-.3c-.4-.2-.7-.4-1-.8-.3-.4-.5-.8-.7-1.4-.2-.6-.2-1.2-.2-2s0-1.4.2-2,.4-1,.7-1.4c.3-.4.6-.6,1-.8.4-.2.8-.3,1.2-.3s.8,0,1.2.3c.4.2.7.4,1,.8.3.4.5.8.7,1.4.2.6.2,1.2.2,2ZM47,163.4c0-.7,0-1.2-.2-1.7-.1-.4-.3-.8-.4-1.1-.2-.3-.4-.5-.6-.6-.2-.1-.5-.2-.8-.2s-.5,0-.8.2c-.2.1-.5.3-.6.6-.2.3-.3.6-.4,1.1-.1.4-.2,1-.2,1.7s0,1.2.2,1.6c.1.4.3.8.4,1.1.2.3.4.5.6.6.2.1.5.2.8.2s.5,0,.8-.2c.2-.1.5-.3.6-.6.2-.3.3-.6.4-1.1.1-.4.2-1,.2-1.6ZM52.8,161.2c0,.3,0,.6-.2.9-.1.3-.2.5-.4.7-.2.2-.4.3-.6.4-.2,0-.5.1-.7.1s-.5,0-.8-.1c-.2,0-.4-.2-.6-.4-.2-.2-.3-.4-.4-.7,0-.3-.1-.6-.1-.9s0-.6.1-.9c0-.3.2-.5.4-.7.2-.2.4-.3.6-.4.2,0,.5-.1.8-.1s.5,0,.8.1c.2,0,.4.2.6.4.2.2.3.4.4.7,0,.3.1.6.1.9ZM51.9,161.2c0-.3,0-.5,0-.7,0-.2-.1-.3-.2-.4,0-.1-.2-.2-.3-.3s-.3,0-.4,0-.3,0-.4,0c-.1,0-.2.1-.3.3,0,.1-.2.3-.2.4,0,.2,0,.4,0,.7s0,.5,0,.7c0,.2.1.3.2.4,0,.1.2.2.3.2.1,0,.3,0,.4,0s.3,0,.4,0c.1,0,.2-.1.3-.2,0-.1.2-.3.2-.4,0-.2,0-.4,0-.7ZM55.8,159.3s0,0,.1-.1c0,0,.1,0,.2,0h.8l-6.3,8.4c0,0,0,0-.1.1,0,0-.1,0-.2,0h-.8l6.3-8.4ZM57.5,165.7c0,.3,0,.6-.2.9-.1.3-.2.5-.4.7-.2.2-.4.3-.6.4-.2,0-.5.1-.7.1s-.5,0-.8-.1c-.2,0-.4-.2-.6-.4-.2-.2-.3-.4-.4-.7,0-.3-.1-.6-.1-.9s0-.6.1-.9c0-.3.2-.5.4-.7.2-.2.4-.3.6-.4.2,0,.5-.1.8-.1s.5,0,.8.1c.2,0,.4.2.6.4.2.2.3.4.4.7,0,.3.1.6.1.9ZM56.7,165.7c0-.3,0-.5,0-.7,0-.2-.1-.3-.2-.5,0-.1-.2-.2-.3-.3-.1,0-.3,0-.4,0s-.3,0-.4,0c-.1,0-.2.1-.3.3,0,.1-.2.3-.2.5,0,.2,0,.4,0,.7s0,.5,0,.7c0,.2.1.3.2.4,0,.1.2.2.3.2.1,0,.3,0,.4,0s.3,0,.4,0c.1,0,.2-.1.3-.2.1-.1.2-.3.2-.4s0-.4,0-.7Z"/>
      <path class="cls-5" d="M40.4,246.7c.1,0,.2,0,.3.1,0,0,.1.2.1.3v.6h-5.7v-.4c0,0,0-.2,0-.2,0,0,0-.2.1-.2l2.8-2.8c.2-.2.4-.5.6-.7.2-.2.3-.4.5-.6s.2-.4.3-.7c0-.2.1-.5.1-.7s0-.5-.1-.7c0-.2-.2-.4-.3-.5-.1-.1-.3-.2-.5-.3-.2,0-.4,0-.6,0s-.4,0-.6,0c-.2,0-.3.2-.5.3-.1.1-.3.2-.4.4,0,.2-.2.3-.2.5,0,.1-.1.2-.2.3,0,0-.2,0-.3,0h-.6c0-.5.2-.8.3-1.1.2-.3.4-.6.6-.8.2-.2.5-.4.8-.5.3-.1.7-.2,1-.2s.7,0,1,.2c.3.1.6.3.8.5.2.2.4.5.5.8s.2.6.2,1,0,.6-.1.9c0,.3-.2.5-.4.8-.2.2-.4.5-.6.7-.2.2-.4.5-.7.7l-2.3,2.3c.2,0,.3,0,.5-.1.2,0,.3,0,.5,0h2.9ZM43.6,242.4c.4,0,.9-.1,1.2-.1s.8,0,1.2.2c.3.1.6.3.9.5.2.2.4.5.5.8.1.3.2.7.2,1s0,.9-.2,1.2c-.2.4-.4.7-.7.9-.3.3-.6.5-1,.6s-.8.2-1.2.2-.5,0-.7,0c-.2,0-.5-.1-.7-.2-.2,0-.4-.2-.6-.3-.2-.1-.3-.2-.5-.3l.3-.5c0-.1.2-.2.3-.2s.2,0,.3,0c0,0,.2.1.4.2.1,0,.3.1.5.2.2,0,.4,0,.7,0s.6,0,.8-.1c.2,0,.4-.2.6-.4.2-.2.3-.4.4-.6s.1-.5.1-.8,0-.5-.1-.7c0-.2-.2-.4-.4-.6-.2-.2-.4-.3-.6-.4s-.5-.1-.8-.1-.4,0-.7,0c-.2,0-.5,0-.7.2l-.7-.2.7-4h4.1v.5c0,.2,0,.3-.1.4,0,0-.3.1-.5.1h-2.7l-.4,2.3ZM52.8,241.2c0,.3,0,.6-.2.9-.1.3-.2.5-.4.7-.2.2-.4.3-.6.4-.2,0-.5.1-.7.1s-.5,0-.8-.1c-.2,0-.4-.2-.6-.4-.2-.2-.3-.4-.4-.7,0-.3-.1-.6-.1-.9s0-.6.1-.9c0-.3.2-.5.4-.7.2-.2.4-.3.6-.4.2,0,.5-.1.8-.1s.5,0,.8.1c.2,0,.4.2.6.4.2.2.3.4.4.7,0,.3.1.6.1.9ZM51.9,241.2c0-.3,0-.5,0-.7,0-.2-.1-.3-.2-.4,0-.1-.2-.2-.3-.3s-.3,0-.4,0-.3,0-.4,0c-.1,0-.2.1-.3.3,0,.1-.2.3-.2.4,0,.2,0,.4,0,.7s0,.5,0,.7c0,.2.1.3.2.4,0,.1.2.2.3.2.1,0,.3,0,.4,0s.3,0,.4,0c.1,0,.2-.1.3-.2,0-.1.2-.3.2-.4,0-.2,0-.4,0-.7ZM55.8,239.3s0,0,.1-.1c0,0,.1,0,.2,0h.8l-6.3,8.4c0,0,0,0-.1.1,0,0-.1,0-.2,0h-.8l6.3-8.4ZM57.5,245.7c0,.3,0,.6-.2.9-.1.3-.2.5-.4.7-.2.2-.4.3-.6.4-.2,0-.5.1-.7.1s-.5,0-.8-.1c-.2,0-.4-.2-.6-.4-.2-.2-.3-.4-.4-.7,0-.3-.1-.6-.1-.9s0-.6.1-.9c0-.3.2-.5.4-.7.2-.2.4-.3.6-.4.2,0,.5-.1.8-.1s.5,0,.8.1c.2,0,.4.2.6.4.2.2.3.4.4.7,0,.3.1.6.1.9ZM56.7,245.7c0-.3,0-.5,0-.7,0-.2-.1-.3-.2-.5,0-.1-.2-.2-.3-.3-.1,0-.3,0-.4,0s-.3,0-.4,0c-.1,0-.2.1-.3.3,0,.1-.2.3-.2.5,0,.2,0,.4,0,.7s0,.5,0,.7c0,.2.1.3.2.4,0,.1.2.2.3.2.1,0,.3,0,.4,0s.3,0,.4,0c.1,0,.2-.1.3-.2.1-.1.2-.3.2-.4s0-.4,0-.7Z"/>
      <path class="cls-5" d="M48.1,319.4c0,.8,0,1.4-.2,2-.2.5-.4,1-.7,1.4-.3.4-.6.6-1,.8-.4.2-.8.3-1.2.3s-.8,0-1.2-.3c-.4-.2-.7-.4-1-.8s-.5-.8-.7-1.4c-.2-.6-.2-1.2-.2-2s0-1.4.2-2,.4-1,.7-1.4c.3-.4.6-.6,1-.8.4-.2.8-.3,1.2-.3s.8,0,1.2.3c.4.2.7.4,1,.8.3.4.5.8.7,1.4.2.6.2,1.2.2,2ZM47,319.4c0-.7,0-1.2-.2-1.6-.1-.4-.3-.8-.4-1.1-.2-.3-.4-.5-.6-.6-.2-.1-.5-.2-.8-.2s-.5,0-.8.2c-.2.1-.5.3-.6.6-.2.3-.3.6-.4,1.1-.1.4-.2,1-.2,1.6s0,1.2.2,1.6c.1.4.3.8.4,1.1.2.3.4.5.6.6.2.1.5.2.8.2s.5,0,.8-.2c.2-.1.5-.3.6-.6.2-.3.3-.6.4-1.1.1-.4.2-1,.2-1.6ZM52.8,317.2c0,.3,0,.6-.2.9-.1.3-.2.5-.4.7-.2.2-.4.3-.6.4-.2,0-.5.1-.7.1s-.5,0-.8-.1-.4-.2-.6-.4c-.2-.2-.3-.4-.4-.7,0-.3-.1-.6-.1-.9s0-.6.1-.9c0-.3.2-.5.4-.7.2-.2.4-.3.6-.4s.5-.1.8-.1.5,0,.8.1c.2,0,.4.2.6.4.2.2.3.4.4.7s.1.6.1.9ZM52,317.2c0-.3,0-.5,0-.7s-.1-.3-.2-.4c0-.1-.2-.2-.3-.3s-.3,0-.4,0-.3,0-.4,0c-.1,0-.2.1-.3.3,0,.1-.2.3-.2.4s0,.4,0,.7,0,.5,0,.7c0,.2.1.3.2.4,0,.1.2.2.3.2.1,0,.3,0,.4,0s.3,0,.4,0c.1,0,.2-.1.3-.2,0-.1.2-.3.2-.4,0-.2,0-.4,0-.7ZM55.8,315.3s0,0,.1-.1c0,0,.1,0,.2,0h.8l-6.3,8.4c0,0,0,0-.1.1,0,0-.1,0-.2,0h-.8l6.3-8.4ZM57.6,321.7c0,.3,0,.6-.2.9s-.2.5-.4.7c-.2.2-.4.3-.6.4-.2,0-.5.1-.7.1s-.5,0-.8-.1c-.2,0-.4-.2-.6-.4-.2-.2-.3-.4-.4-.7s-.1-.6-.1-.9,0-.7.1-.9c0-.3.2-.5.4-.7.2-.2.4-.3.6-.4.2,0,.5-.1.8-.1s.5,0,.8.1c.2,0,.4.2.6.4.2.2.3.4.4.7.1.3.2.6.2.9ZM56.7,321.7c0-.3,0-.5,0-.7,0-.2-.1-.3-.2-.5,0-.1-.2-.2-.3-.3s-.3,0-.4,0-.3,0-.4,0c-.1,0-.2.1-.3.3s-.2.3-.2.5c0,.2,0,.4,0,.7s0,.5,0,.7c0,.2.1.3.2.4,0,.1.2.2.3.2.1,0,.3,0,.4,0s.3,0,.4,0c.1,0,.2-.1.3-.2,0-.1.2-.3.2-.4,0-.2,0-.4,0-.7Z"/>
      <path class="cls-5" d="M253,374.8h-3.7v10.2h-1.5v-10.2h-3.7v-1.3h9v1.3ZM255.8,376.9v8.1h-1.4v-8.1h1.4ZM256.1,374.4c0,.1,0,.3,0,.4,0,.1-.1.2-.2.3s-.2.2-.3.2c-.1,0-.3,0-.4,0s-.3,0-.4,0c-.1,0-.2-.1-.3-.2,0,0-.2-.2-.2-.3,0-.1,0-.3,0-.4s0-.3,0-.4c0-.1.1-.2.2-.3,0,0,.2-.2.3-.2.1,0,.3,0,.4,0s.3,0,.4,0c.1,0,.2.1.3.2,0,0,.2.2.2.3,0,.1,0,.3,0,.4ZM258.2,385v-8.1h.9c.2,0,.3,0,.4.3v.8c.4-.4.7-.7,1.1-.9.4-.2.8-.4,1.3-.4s1,.2,1.3.5c.3.3.6.7.7,1.2.1-.3.3-.5.4-.8.2-.2.4-.4.6-.5.2-.1.5-.2.7-.3.3,0,.5,0,.8,0,.4,0,.8,0,1.1.2.3.1.6.3.8.6.2.3.4.6.5,1,.1.4.2.8.2,1.3v5.2h-1.4v-5.2c0-.6-.1-1.1-.4-1.4-.3-.3-.7-.5-1.2-.5s-.5,0-.7.1c-.2,0-.4.2-.6.4-.2.2-.3.4-.4.6,0,.2-.1.5-.1.8v5.2h-1.4v-5.2c0-.7-.1-1.1-.4-1.5-.3-.3-.6-.5-1.1-.5s-.7,0-1,.3c-.3.2-.6.4-.8.8v6h-1.4ZM276.7,380.1c0-.3,0-.6-.1-.9,0-.3-.2-.5-.4-.7-.2-.2-.4-.4-.6-.5-.3-.1-.5-.2-.9-.2-.7,0-1.2.2-1.6.6-.4.4-.6.9-.7,1.6h4.4ZM277.9,383.9c-.2.2-.4.4-.6.6-.2.2-.5.3-.8.4-.3.1-.6.2-.9.2-.3,0-.6,0-.9,0-.6,0-1.1,0-1.6-.3-.5-.2-.9-.5-1.2-.8-.3-.4-.6-.8-.8-1.4-.2-.5-.3-1.2-.3-1.9s0-1.1.3-1.6c.2-.5.4-.9.8-1.3.3-.4.7-.6,1.2-.8.5-.2,1-.3,1.6-.3s.9,0,1.3.2c.4.2.8.4,1.1.7.3.3.5.7.7,1.1.2.4.3,1,.3,1.5s0,.4,0,.4c0,0-.1.1-.3.1h-5.4c0,.5,0,1,.2,1.3.1.4.3.7.5,1,.2.3.5.4.8.6.3.1.7.2,1,.2s.7,0,.9-.1c.3,0,.5-.2.7-.3.2,0,.3-.2.5-.3.1,0,.2-.1.3-.1s.2,0,.3.1l.4.5ZM284.7,380c0,1.1.1,2.3.4,3.3.3,1.1.7,2.1,1.3,3.1,0,.2.1.3,0,.4,0,0-.1.2-.2.2l-.6.4c-.4-.6-.7-1.2-1-1.8-.3-.6-.5-1.2-.7-1.8-.2-.6-.3-1.2-.4-1.8,0-.6-.1-1.3-.1-1.9s0-1.3.1-1.9c0-.6.2-1.2.4-1.8.2-.6.4-1.2.7-1.8.3-.6.6-1.2,1-1.8l.6.4c0,0,.1.1.2.2,0,0,0,.2,0,.4-.6,1-1,2-1.3,3.1-.3,1.1-.4,2.2-.4,3.3ZM295,376.9l-4.5,10.5c0,.1-.1.2-.2.3,0,0-.2,0-.3,0h-1.1l1.5-3.2-3.3-7.6h1.2c.1,0,.2,0,.3,0,0,0,.1.1.2.2l2.2,5.1c0,.2.2.5.2.7,0-.3.2-.5.2-.7l2.1-5.1c0,0,0-.2.2-.2,0,0,.2,0,.3,0h1.1ZM301.4,380.1c0-.3,0-.6-.1-.9,0-.3-.2-.5-.4-.7-.2-.2-.4-.4-.6-.5-.3-.1-.5-.2-.9-.2-.7,0-1.2.2-1.6.6-.4.4-.6.9-.7,1.6h4.4ZM302.6,383.9c-.2.2-.4.4-.6.6-.2.2-.5.3-.8.4-.3.1-.6.2-.9.2-.3,0-.6,0-.9,0-.6,0-1.1,0-1.6-.3-.5-.2-.9-.5-1.2-.8-.3-.4-.6-.8-.8-1.4-.2-.5-.3-1.2-.3-1.9s0-1.1.3-1.6c.2-.5.4-.9.8-1.3.3-.4.7-.6,1.2-.8.5-.2,1-.3,1.6-.3s.9,0,1.3.2c.4.2.8.4,1.1.7.3.3.5.7.7,1.1.2.4.3,1,.3,1.5s0,.4,0,.4c0,0-.1.1-.3.1h-5.4c0,.5,0,1,.2,1.3.1.4.3.7.5,1,.2.3.5.4.8.6.3.1.7.2,1,.2s.7,0,.9-.1c.3,0,.5-.2.7-.3.2,0,.3-.2.5-.3.1,0,.2-.1.3-.1s.2,0,.3.1l.4.5ZM308.9,381.4c-.7,0-1.2,0-1.7.2-.5,0-.8.2-1.1.3-.3.1-.5.3-.6.5-.1.2-.2.4-.2.6s0,.4.1.6c0,.2.2.3.3.4.1,0,.3.2.4.2.2,0,.3,0,.5,0s.5,0,.7,0c.2,0,.4-.1.6-.2.2,0,.4-.2.5-.3.2-.1.3-.3.5-.5v-1.7ZM304.3,378c.4-.4.9-.8,1.4-1,.5-.2,1.1-.3,1.7-.3s.9,0,1.2.2c.4.1.6.4.9.6.2.3.4.6.5,1,.1.4.2.8.2,1.2v5.2h-.6c-.1,0-.2,0-.3,0,0,0-.1-.1-.2-.3l-.2-.8c-.2.2-.4.4-.6.5-.2.1-.4.3-.6.4-.2.1-.5.2-.7.2-.3,0-.5,0-.8,0s-.6,0-.9-.1c-.3,0-.5-.2-.7-.4-.2-.2-.4-.4-.5-.7-.1-.3-.2-.6-.2-1s0-.6.3-.9c.2-.3.5-.6.9-.8.4-.2.9-.4,1.5-.6.6-.1,1.4-.2,2.3-.3v-.6c0-.6-.1-1.1-.4-1.4-.3-.3-.7-.5-1.2-.5s-.6,0-.9.1c-.2,0-.4.2-.6.3-.2.1-.3.2-.4.3-.1,0-.2.1-.4.1s-.2,0-.2,0c0,0-.1-.1-.2-.2l-.3-.5ZM313.8,378.5c.3-.6.6-1,.9-1.3.4-.3.8-.5,1.4-.5s.3,0,.5,0c.2,0,.3,0,.4.2v1.1c-.1.1-.2.2-.3.2s-.2,0-.3,0c-.1,0-.3,0-.5,0-.3,0-.5,0-.7.1-.2,0-.4.2-.5.3-.2.1-.3.3-.4.5-.1.2-.2.5-.3.7v5.1h-1.4v-8.1h.8c.2,0,.3,0,.3,0,0,0,0,.2.1.3v1.2ZM322.9,378.2c0,.1-.2.2-.3.2s-.2,0-.3,0c-.1,0-.2-.1-.4-.2-.1,0-.3-.1-.5-.2-.2,0-.4,0-.7,0s-.5,0-.6,0c-.2,0-.4.1-.5.2-.1.1-.2.2-.3.4,0,.1-.1.3-.1.5s0,.4.2.5c.1.1.3.3.5.4.2.1.4.2.7.3.3,0,.5.2.8.2.3,0,.5.2.8.3.3.1.5.2.7.4.2.2.4.4.5.6.1.2.2.5.2.8s0,.7-.2,1c-.1.3-.3.6-.6.8-.3.2-.6.4-1,.5s-.8.2-1.3.2-1.1,0-1.5-.3c-.5-.2-.8-.4-1.2-.7l.3-.5c0,0,0-.1.2-.2,0,0,.1,0,.2,0s.2,0,.3.1.2.2.4.2c.2,0,.3.2.6.2.2,0,.5.1.8.1s.5,0,.7-.1c.2,0,.4-.2.5-.3.1-.1.2-.3.3-.4,0-.2.1-.3.1-.5s0-.4-.2-.6c-.1-.1-.3-.3-.5-.4-.2-.1-.4-.2-.7-.3-.3,0-.5-.2-.8-.2-.3,0-.5-.2-.8-.3-.3-.1-.5-.3-.7-.4-.2-.2-.4-.4-.5-.6-.1-.2-.2-.5-.2-.9s0-.6.2-.9c.1-.3.3-.5.6-.8.2-.2.5-.4.9-.5.4-.1.8-.2,1.2-.2s1,0,1.4.3c.4.2.8.4,1.1.7l-.3.5ZM325.9,380c0-1.1-.1-2.3-.4-3.3-.3-1.1-.7-2.1-1.3-3.1,0,0,0-.1,0-.2,0,0,0-.1,0-.2,0,0,0,0,0-.1,0,0,0,0,.1,0l.6-.4c.4.6.7,1.2,1,1.8.3.6.5,1.2.7,1.8.2.6.3,1.2.4,1.8,0,.6.1,1.3.1,1.9s0,1.3-.1,1.9c0,.6-.2,1.2-.4,1.8-.2.6-.4,1.2-.7,1.8-.3.6-.6,1.2-1,1.8l-.6-.4s0,0-.1,0c0,0,0,0,0-.1,0,0,0,0,0-.2,0,0,0-.1,0-.2.6-1,1-2,1.3-3.1.3-1.1.4-2.2.4-3.3Z"/>
      <path class="cls-2" d="M490.3,320.2H72.5V7.9"/>
      <path class="cls-3" d="M98.3,85h355.3"/>
      <path class="cls-3" d="M98.3,163.5h355.3"/>
      <path class="cls-3" d="M98.3,242h355.3"/>
      <g class="cls-6">
        <path class="cls-4" d="M482.7,8.8c0,4.9-3.9,8.8-8.8,8.8s-2.6-.3-3.8-.9L176.8,244.3v70.4h-100.9v-7h93.9v-66.8l1.3-1.1L465.5,11.4c-.3-.8-.4-1.7-.4-2.6,0-4.9,3.9-8.8,8.8-8.8s8.8,3.9,8.8,8.8Z"/>
      </g>
    </g>
  </g>
</svg>