<svg width="320" height="290" viewBox="0 0 320 290" fill="none" xmlns="http://www.w3.org/2000/svg">
<mask id="mask0_737_131" style="mask-type:luminance" maskUnits="userSpaceOnUse" x="0" y="0" width="290" height="290">
<path d="M144.61 289.22C224.476 289.22 289.22 224.476 289.22 144.61C289.22 64.7441 224.476 0 144.61 0C64.7441 0 0 64.7441 0 144.61C0 224.476 64.7441 289.22 144.61 289.22Z" fill="white"/>
</mask>
<g mask="url(#mask0_737_131)">
<path d="M144.61 289.22C224.476 289.22 289.22 224.476 289.22 144.61C289.22 64.7441 224.476 0 144.61 0C64.7441 0 0 64.7441 0 144.61C0 224.476 64.7441 289.22 144.61 289.22Z" fill="url(#paint0_linear_737_131)"/>
<path d="M143.86 -19.3899L143.9 -11.9799L145.85 317.24C145.85 317.24 -19.24 304.7 -36.25 148.9C-53.26 -6.8999 143.86 -19.3899 143.86 -19.3899Z" fill="white"/>
<path d="M239.46 11.51L144.83 144.86L143.9 -11.99C143.9 -11.99 210.65 -11.63 239.45 11.51H239.46Z" fill="#4F62AD"/>
<path d="M301.75 91.2501L144.83 144.87L233.88 19.3801C233.88 19.3801 284.53 45.7501 301.75 91.2501Z" fill="#6C3E7B"/>
</g>
<path d="M174.14 46.5301V38.7001C174.14 37.5501 173.56 36.9201 172.51 36.9201H171.39V34.8901H172.51C174.85 34.8901 176.16 36.3001 176.16 38.7001V46.5301H174.14Z" fill="white"/>
<path d="M177.83 40.5902C177.83 37.1802 180.45 34.7502 183.86 34.7502C187.27 34.7502 189.89 37.1802 189.89 40.5902C189.89 44.0002 187.25 46.6702 183.86 46.6702C180.47 46.6702 177.83 43.9802 177.83 40.5902ZM183.87 36.8002C181.31 36.8002 179.87 38.4502 179.87 40.6902C179.87 42.9302 181.31 44.6402 183.86 44.6402C186.41 44.6402 187.86 42.9302 187.86 40.6902C187.86 38.4502 186.4 36.8002 183.87 36.8002Z" fill="white"/>
<path d="M191.24 37.5702C191.24 35.8602 192.54 34.6402 194.25 34.6402C195.96 34.6402 197.27 35.8602 197.27 37.5702C197.27 39.2802 195.94 40.6102 194.25 40.6102C192.56 40.6102 191.24 39.2502 191.24 37.5702ZM192.12 47.6102L202.64 34.2002H204L193.52 47.6102H192.13H192.12ZM194.25 35.6602C192.99 35.6602 192.25 36.4902 192.25 37.6102C192.25 38.7302 192.97 39.5802 194.25 39.5802C195.53 39.5802 196.25 38.7302 196.25 37.6102C196.25 36.4902 195.51 35.6602 194.25 35.6602ZM199.31 43.7302C199.31 42.0202 200.61 40.8002 202.32 40.8002C204.03 40.8002 205.35 42.0202 205.35 43.7302C205.35 45.4402 204.02 46.7702 202.32 46.7702C200.62 46.7702 199.31 45.4102 199.31 43.7302ZM202.32 41.8302C201.06 41.8302 200.32 42.6602 200.32 43.7802C200.32 44.9002 201.04 45.7502 202.32 45.7502C203.6 45.7502 204.32 44.9002 204.32 43.7802C204.32 42.6602 203.58 41.8302 202.32 41.8302Z" fill="white"/>
<path d="M230.91 46.5302L228.69 38.3502L225.39 45.9202C225.17 46.4202 224.85 46.6902 224.35 46.6902C223.85 46.6902 223.52 46.4202 223.31 45.9202L220.03 38.3502L217.8 46.5302H215.8L218.79 35.5802C218.93 35.0202 219.25 34.7502 219.8 34.7502C220.23 34.7502 220.63 34.9902 220.82 35.4402L224.41 43.6702L228 35.4402C228.19 34.9902 228.54 34.7502 228.98 34.7502C229.48 34.7502 229.8 35.0202 229.96 35.5802L232.94 46.5302H230.92H230.91Z" fill="white"/>
<path d="M238.94 46.5301C235.69 46.5301 233.29 43.9701 233.29 40.5901C233.29 37.2101 235.69 34.8901 238.94 34.8901H241.77C245.13 34.8901 247.47 37.2101 247.47 40.5901C247.47 43.9701 245.09 46.5301 241.77 46.5301H238.94ZM241.77 44.5001C243.92 44.5001 245.44 42.8801 245.44 40.6901C245.44 38.5001 243.92 36.9301 241.77 36.9301H238.94C236.86 36.9301 235.32 38.4801 235.32 40.6901C235.32 42.9001 236.84 44.5001 238.94 44.5001H241.77Z" fill="white"/>
<path d="M254.43 46.5301C251.18 46.5301 248.78 43.9701 248.78 40.5901C248.78 37.2101 251.18 34.8901 254.43 34.8901H257.26C260.62 34.8901 262.96 37.2101 262.96 40.5901C262.96 43.9701 260.58 46.5301 257.26 46.5301H254.43ZM257.26 44.5001C259.41 44.5001 260.93 42.8801 260.93 40.6901C260.93 38.5001 259.41 36.9301 257.26 36.9301H254.43C252.35 36.9301 250.81 38.4801 250.81 40.6901C250.81 42.9001 252.33 44.5001 254.43 44.5001H257.26Z" fill="white"/>
<path d="M266.49 38.0203V46.5403H264.55V35.9803C264.55 35.2303 264.95 34.7603 265.59 34.7603C265.89 34.7603 266.15 34.8703 266.45 35.1803L274.66 43.3303V34.8103H276.6V45.4703C276.6 46.2403 276.18 46.6903 275.59 46.6903C275.25 46.6903 274.95 46.5503 274.66 46.2603L266.48 38.0303L266.49 38.0203Z" fill="white"/>
<path d="M278.57 46.5301V34.8901H285.31C288.59 34.8901 290.98 37.2101 290.98 40.5901C290.98 43.9701 288.59 46.5301 285.31 46.5301H278.57ZM285.31 44.5001C287.41 44.5001 288.94 42.8801 288.94 40.6901C288.94 38.5001 287.4 36.9301 285.31 36.9301H280.59V44.5001H285.31Z" fill="white"/>
<path d="M303.21 46.5302L301.47 43.6002H295.96L296.92 41.9502H300.49L297.9 37.6002L292.62 46.5302H290.3L296.99 35.3902C297.23 34.9902 297.53 34.7302 297.98 34.7302C298.43 34.7302 298.72 34.9902 298.96 35.3902L305.67 46.5302H303.22H303.21Z" fill="white"/>
<path d="M310.67 46.5301C307.42 46.5301 305.02 43.9701 305.02 40.5901C305.02 37.2101 307.42 34.8901 310.67 34.8901H313.5C316.86 34.8901 319.2 37.2101 319.2 40.5901C319.2 43.9701 316.82 46.5301 313.5 46.5301H310.67ZM313.5 44.5001C315.65 44.5001 317.17 42.8801 317.17 40.6901C317.17 38.5001 315.65 36.9301 313.5 36.9301H310.67C308.59 36.9301 307.05 38.4801 307.05 40.6901C307.05 42.9001 308.57 44.5001 310.67 44.5001H313.5Z" fill="white"/>
<path d="M173.42 118.27V110.44C173.42 109.29 172.84 108.66 171.79 108.66H170.67V106.63H171.79C174.13 106.63 175.44 108.04 175.44 110.44V118.27H173.42Z" fill="white"/>
<path d="M177.12 112.33C177.12 108.92 179.74 106.49 183.15 106.49C186.56 106.49 189.18 108.92 189.18 112.33C189.18 115.74 186.54 118.41 183.15 118.41C179.76 118.41 177.12 115.72 177.12 112.33ZM183.15 108.54C180.59 108.54 179.15 110.19 179.15 112.43C179.15 114.67 180.59 116.38 183.14 116.38C185.69 116.38 187.14 114.67 187.14 112.43C187.14 110.19 185.68 108.54 183.15 108.54Z" fill="white"/>
<path d="M190.53 109.31C190.53 107.6 191.83 106.38 193.54 106.38C195.25 106.38 196.56 107.6 196.56 109.31C196.56 111.02 195.23 112.35 193.54 112.35C191.85 112.35 190.53 110.99 190.53 109.31ZM191.41 119.34L201.93 105.93H203.29L192.81 119.34H191.42H191.41ZM193.54 107.4C192.28 107.4 191.54 108.23 191.54 109.35C191.54 110.47 192.26 111.32 193.54 111.32C194.82 111.32 195.54 110.47 195.54 109.35C195.54 108.23 194.8 107.4 193.54 107.4ZM198.59 115.47C198.59 113.76 199.89 112.54 201.6 112.54C203.31 112.54 204.63 113.76 204.63 115.47C204.63 117.18 203.3 118.51 201.6 118.51C199.9 118.51 198.59 117.15 198.59 115.47ZM201.6 113.56C200.34 113.56 199.6 114.39 199.6 115.51C199.6 116.63 200.32 117.48 201.6 117.48C202.88 117.48 203.6 116.63 203.6 115.51C203.6 114.39 202.86 113.56 201.6 113.56Z" fill="white"/>
<path d="M215.71 118.27V106.63H217.74V116.23H225.57V118.26H215.71V118.27Z" fill="white"/>
<path d="M227.13 118.27V106.63H229.16V118.27H227.13Z" fill="white"/>
<path d="M243.01 118.27L242.21 117.58C241.41 118.01 240.47 118.27 239.44 118.27H236.61C233.36 118.27 230.96 115.71 230.96 112.33C230.96 108.95 233.36 106.63 236.61 106.63H239.44C242.8 106.63 245.14 108.95 245.14 112.33C245.14 114.03 244.53 115.52 243.52 116.57L245.71 118.27H243H243.01ZM237.09 113.47H239.78L241.94 115.29C242.66 114.6 243.11 113.59 243.11 112.42C243.11 110.23 241.59 108.66 239.44 108.66H236.61C234.53 108.66 232.99 110.21 232.99 112.42C232.99 114.63 234.51 116.23 236.61 116.23H239.44C239.79 116.23 240.13 116.18 240.45 116.1L237.09 113.46V113.47Z" fill="white"/>
<path d="M257.19 106.63H259.17V113.13C259.17 116.73 257.39 118.43 252.88 118.43C248.37 118.43 246.61 116.73 246.61 113.13V106.63H248.71V113.13C248.71 115.47 249.75 116.43 252.95 116.43C256.15 116.43 257.19 115.47 257.19 113.13V106.63Z" fill="white"/>
<path d="M261.12 118.27V106.63H263.15V118.27H261.12Z" fill="white"/>
<path d="M265.28 118.27V106.63H272.02C275.3 106.63 277.69 108.95 277.69 112.33C277.69 115.71 275.3 118.27 272.02 118.27H265.28ZM272.02 116.24C274.12 116.24 275.65 114.62 275.65 112.43C275.65 110.24 274.11 108.67 272.02 108.67H267.3V116.24H272.02Z" fill="white"/>
<path d="M279.45 118.27V106.63H281.48V118.27H279.45Z" fill="white"/>
<path d="M287.34 118.27V108.67H282.92V106.64H293.79V108.67H289.37V118.27H287.34Z" fill="white"/>
<path d="M300.51 118.27V113.85L294.33 106.63H297.07L301.6 111.99L306.15 106.63H308.74L302.55 113.85V118.27H300.52H300.51Z" fill="white"/>
<path d="M173.3 184.17V182.14H180.78C182.06 182.14 182.96 181.61 182.96 180.6C182.96 179.59 182.34 179.11 181.2 179.11H176.06V177.4H181.05C182.2 177.4 182.75 177 182.75 175.99C182.75 174.92 182 174.55 180.65 174.55H173.35V172.53H181.05C183.31 172.53 184.8 173.55 184.8 175.54C184.8 177.01 184.06 177.75 183.2 178.02C184.26 178.36 185.02 179.28 185.02 180.64C185.02 182.75 183.55 184.16 181.27 184.16H173.3V184.17Z" fill="white"/>
<path d="M186.46 178.23C186.46 174.82 189.08 172.39 192.49 172.39C195.9 172.39 198.52 174.82 198.52 178.23C198.52 181.64 195.88 184.31 192.49 184.31C189.1 184.31 186.46 181.62 186.46 178.23ZM192.5 174.44C189.94 174.44 188.5 176.09 188.5 178.33C188.5 180.57 189.94 182.28 192.49 182.28C195.04 182.28 196.49 180.57 196.49 178.33C196.49 176.09 195.03 174.44 192.5 174.44Z" fill="white"/>
<path d="M199.87 175.21C199.87 173.5 201.17 172.28 202.88 172.28C204.59 172.28 205.9 173.5 205.9 175.21C205.9 176.92 204.57 178.25 202.88 178.25C201.19 178.25 199.87 176.89 199.87 175.21ZM200.75 185.24L211.27 171.83H212.63L202.15 185.24H200.76H200.75ZM202.88 173.3C201.62 173.3 200.88 174.13 200.88 175.25C200.88 176.37 201.6 177.22 202.88 177.22C204.16 177.22 204.88 176.37 204.88 175.25C204.88 174.13 204.14 173.3 202.88 173.3ZM207.94 181.37C207.94 179.66 209.24 178.44 210.95 178.44C212.66 178.44 213.98 179.66 213.98 181.37C213.98 183.08 212.65 184.41 210.95 184.41C209.25 184.41 207.94 183.05 207.94 181.37ZM210.95 179.46C209.69 179.46 208.95 180.29 208.95 181.41C208.95 182.53 209.67 183.38 210.95 183.38C212.23 183.38 212.95 182.53 212.95 181.41C212.95 180.29 212.21 179.46 210.95 179.46Z" fill="white"/>
<path d="M228.78 184.17V174.57H224.36V172.54H235.23V174.57H230.81V184.17H228.78Z" fill="white"/>
<path d="M236.57 184.17V172.53H246.96V174.56H238.59V182.13H246.98V184.16H236.58L236.57 184.17ZM240.08 179.11V177.4H246.53V179.11H240.08Z" fill="white"/>
<path d="M260.85 184.17L259.11 181.24H253.6L254.56 179.59H258.13L255.54 175.24L250.26 184.17H247.94L254.63 173.03C254.87 172.63 255.17 172.37 255.62 172.37C256.07 172.37 256.36 172.63 256.6 173.03L263.31 184.17H260.86H260.85Z" fill="white"/>
<path d="M279.03 184.17L276.81 175.99L273.51 183.56C273.29 184.06 272.97 184.33 272.47 184.33C271.97 184.33 271.64 184.06 271.43 183.56L268.15 175.99L265.92 184.17H263.92L266.91 173.22C267.05 172.66 267.37 172.39 267.92 172.39C268.35 172.39 268.75 172.63 268.94 173.08L272.53 181.31L276.12 173.08C276.31 172.63 276.66 172.39 277.1 172.39C277.6 172.39 277.92 172.66 278.08 173.22L281.06 184.17H279.04H279.03Z" fill="white"/>
<path d="M127.19 232.99H125.16V224.27C125.16 223.18 124.55 222.59 123.64 222.59C122.65 222.59 122.14 223.2 122.14 224.27V232.99H115.56V221.23H117.59V230.9H120.42V224.27C120.42 221.93 121.52 220.67 123.78 220.67C125.73 220.67 127.19 221.85 127.19 224.27V232.99Z" fill="#4F62AD"/>
<path d="M121.25 219.16C117.84 219.16 115.41 216.54 115.41 213.13C115.41 209.72 117.84 207.1 121.25 207.1C124.66 207.1 127.33 209.74 127.33 213.13C127.33 216.52 124.64 219.16 121.25 219.16ZM117.46 213.13C117.46 215.69 119.11 217.13 121.35 217.13C123.59 217.13 125.3 215.69 125.3 213.14C125.3 210.59 123.59 209.14 121.35 209.14C119.11 209.14 117.46 210.6 117.46 213.13Z" fill="#4F62AD"/>
<path d="M118.23 205.75C116.52 205.75 115.3 204.45 115.3 202.74C115.3 201.03 116.52 199.72 118.23 199.72C119.94 199.72 121.27 201.05 121.27 202.74C121.27 204.43 119.91 205.75 118.23 205.75ZM128.26 204.87L114.85 194.35V192.99L128.26 203.47V204.86V204.87ZM116.32 202.74C116.32 204 117.15 204.74 118.27 204.74C119.39 204.74 120.24 204.02 120.24 202.74C120.24 201.46 119.39 200.74 118.27 200.74C117.15 200.74 116.32 201.48 116.32 202.74ZM124.39 197.69C122.68 197.69 121.46 196.39 121.46 194.68C121.46 192.97 122.68 191.65 124.39 191.65C126.1 191.65 127.43 192.98 127.43 194.68C127.43 196.38 126.07 197.69 124.39 197.69ZM122.48 194.68C122.48 195.94 123.31 196.68 124.43 196.68C125.55 196.68 126.4 195.96 126.4 194.68C126.4 193.4 125.55 192.68 124.43 192.68C123.31 192.68 122.48 193.42 122.48 194.68Z" fill="#4F62AD"/>
<path d="M127.19 175.26C127.19 178.51 124.63 180.91 121.25 180.91C117.87 180.91 115.55 178.51 115.55 175.26V168.95H117.58V175.26C117.58 177.34 119.13 178.88 121.34 178.88C123.55 178.88 125.15 177.36 125.15 175.26V168.95H127.18V175.26H127.19Z" fill="#4F62AD"/>
<path d="M127.19 161.99C127.19 165.24 124.63 167.64 121.25 167.64C117.87 167.64 115.55 165.24 115.55 161.99V159.16C115.55 155.8 117.87 153.46 121.25 153.46C124.63 153.46 127.19 155.84 127.19 159.16V161.99ZM125.16 159.16C125.16 157.01 123.54 155.49 121.35 155.49C119.16 155.49 117.59 157.01 117.59 159.16V161.99C117.59 164.07 119.14 165.61 121.35 165.61C123.56 165.61 125.16 164.09 125.16 161.99V159.16Z" fill="#4F62AD"/>
<path d="M127.19 137.97L119.01 140.19L126.58 143.49C127.08 143.71 127.35 144.03 127.35 144.53C127.35 145.03 127.08 145.36 126.58 145.57L119.01 148.85L127.19 151.08V153.08L116.24 150.09C115.68 149.95 115.41 149.63 115.41 149.08C115.41 148.65 115.65 148.25 116.1 148.06L124.33 144.47L116.1 140.88C115.65 140.69 115.41 140.34 115.41 139.9C115.41 139.4 115.68 139.08 116.24 138.92L127.19 135.94V137.96V137.97Z" fill="#4F62AD"/>
<path d="M127.19 120.13L119.01 122.35L126.58 125.65C127.08 125.87 127.35 126.19 127.35 126.69C127.35 127.19 127.08 127.52 126.58 127.73L119.01 131.01L127.19 133.24V135.24L116.24 132.25C115.68 132.11 115.41 131.79 115.41 131.24C115.41 130.81 115.65 130.41 116.1 130.22L124.33 126.63L116.1 123.04C115.65 122.85 115.41 122.5 115.41 122.06C115.41 121.56 115.68 121.24 116.24 121.08L127.19 118.1V120.12V120.13Z" fill="#4F62AD"/>
<path d="M115.55 107.01V105.03H122.05C125.65 105.03 127.35 106.81 127.35 111.32C127.35 115.83 125.65 117.59 122.05 117.59H115.55V115.49H122.05C124.39 115.49 125.35 114.45 125.35 111.25C125.35 108.05 124.39 107.01 122.05 107.01H115.55Z" fill="#4F62AD"/>
<path d="M118.67 101.31H127.19V103.25H116.63C115.88 103.25 115.41 102.85 115.41 102.21C115.41 101.91 115.52 101.65 115.83 101.35L123.98 93.1402H115.46V91.2002H126.12C126.89 91.2002 127.34 91.6202 127.34 92.2102C127.34 92.5502 127.2 92.8502 126.91 93.1402L118.68 101.32L118.67 101.31Z" fill="#4F62AD"/>
<path d="M127.19 89.1101H115.55V87.0801H127.19V89.1101Z" fill="#4F62AD"/>
<path d="M127.19 81.23H117.59V85.65H115.56V74.78H117.59V79.2H127.19V81.23Z" fill="#4F62AD"/>
<path d="M127.19 68.0601H122.77L115.55 74.2401V71.5001L120.91 66.9701L115.55 62.4201V59.8301L122.77 66.0201H127.19V68.0501V68.0601Z" fill="#4F62AD"/>
<defs>
<linearGradient id="paint0_linear_737_131" x1="154.148" y1="122.179" x2="107.76" y2="231.246" gradientUnits="userSpaceOnUse">
<stop stop-color="#4E62AD"/>
<stop offset="1" stop-color="#6C407E"/>
</linearGradient>
</defs>
</svg>
