<?xml version="1.0" encoding="UTF-8"?>
<svg xmlns="http://www.w3.org/2000/svg" xmlns:xlink="http://www.w3.org/1999/xlink" version="1.1" viewBox="0 0 290 290">
  <defs>
    <style>
      .cls-1 {
        fill: none;
      }

      .cls-2 {
        fill: #4f62ad;
      }

      .cls-3 {
        fill: url(#linear-gradient);
      }

      .cls-4 {
        fill: #fff;
      }

      .cls-5 {
        clip-path: url(#clippath);
      }

      .cls-6 {
        fill: #6c3e7b;
      }
    </style>
    <clipPath id="clippath">
      <circle class="cls-1" cx="145" cy="145" r="145"/>
    </clipPath>
    <linearGradient id="linear-gradient" x1="221" y1="89.6" x2="221" y2="263.1" gradientUnits="userSpaceOnUse">
      <stop offset="0" stop-color="#4f62ad"/>
      <stop offset="1" stop-color="#6c3e7b"/>
    </linearGradient>
  </defs>
  <!-- Generator: Adobe Illustrator 28.7.6, SVG Export Plug-In . SVG Version: 1.2.0 Build 188)  -->
  <g>
    <g id="Layer_1">
      <g class="cls-5">
        <circle class="cls-4" cx="142.9" cy="147.1" r="175.9"/>
        <polygon class="cls-2" points="145 -19 145 145 272.5 45.4 145 -19"/>
        <polygon class="cls-3" points="145 307.4 145 145 297 45.4 297 307.4 145 307.4"/>
        <polygon class="cls-6" points="243.6 6.6 145 145 306.8 91.4 243.6 6.6"/>
      </g>
      <g>
        <path class="cls-2" d="M52.1,136c.3,0,.4.1.4.4v1.7c0,.3-.1.4-.4.4h-10.6c-.3,0-.4.1-.4.4v2.2c0,.3.1.4.4.4h8.1c2.3,0,3.4,1.2,3.4,3.4v1.5c0,1.9-1.1,3.2-3.5,3.2h-10.9c-.3,0-.5-.1-.5-.4v-1.7c0-.3.2-.4.5-.4h10.4c.7,0,1-.4,1-1.1v-1c0-.7-.3-1.1-1-1.1h-9.1c-1.3,0-1.8-.5-1.8-1.7v-4.6c0-1.1.5-1.7,1.8-1.7h12Z"/>
        <path class="cls-2" d="M65.2,136c4,0,5.5,1.4,5.5,5.2v3.4c0,3.8-1.5,5.2-5.5,5.2h-4.5c-4,0-5.5-1.4-5.5-5.2v-3.4c0-3.8,1.5-5.2,5.5-5.2h4.5ZM58.1,144.5c0,2.1.6,2.7,2.6,2.7h4.5c2,0,2.6-.6,2.6-2.7v-3.1c0-2.1-.6-2.7-2.6-2.7h-4.5c-2,0-2.6.6-2.6,2.7v3.1Z"/>
        <path class="cls-2" d="M78.5,136c2.2,0,3,.8,3,2.8v1.9c0,2.1-.8,2.8-3,2.8h-2.5c-2.2,0-3-.8-3-2.8v-1.9c0-2.1.8-2.8,3-2.8h2.5ZM74.7,140.6c0,1.1.3,1.4,1.4,1.4h2.3c1.1,0,1.4-.3,1.4-1.4v-1.5c0-1.1-.3-1.4-1.4-1.4h-2.3c-1.1,0-1.4.3-1.4,1.4v1.5ZM89.1,136c.2,0,.3.2.1.4l-10.6,13.2c-.1.1-.2.2-.5.2h-1.2c-.2,0-.3-.2-.2-.4l10.6-13.2c.1-.1.2-.2.5-.2h1.2ZM90,142.2c2.2,0,3,.8,3,2.8v1.9c0,2.1-.8,2.8-3,2.8h-2.5c-2.2,0-3-.8-3-2.8v-1.9c0-2.1.8-2.8,3-2.8h2.5ZM86.2,146.8c0,1.1.3,1.4,1.4,1.4h2.3c1.1,0,1.4-.3,1.4-1.4v-1.5c0-1.1-.3-1.4-1.4-1.4h-2.3c-1.1,0-1.4.3-1.4,1.4v1.5Z"/>
        <path class="cls-2" d="M44.9,154.7c.1,0,.2,0,.2.2v1c0,.1,0,.2-.2.2h-4.4c-1,0-1.3.3-1.3,1.3v1.4c0,1,.3,1.3,1.3,1.3h4.4c.1,0,.2,0,.2.2v1c0,.1,0,.2-.2.2h-4.4c-2,0-2.7-.7-2.7-2.6v-1.7c0-1.9.8-2.6,2.7-2.6h4.4Z"/>
        <path class="cls-2" d="M51.8,154.7c2,0,2.7.7,2.7,2.6v1.7c0,1.9-.8,2.6-2.7,2.6h-3c-2,0-2.7-.7-2.7-2.6v-1.7c0-1.9.8-2.6,2.7-2.6h3ZM47.5,158.8c0,1,.3,1.3,1.3,1.3h2.9c1,0,1.3-.3,1.3-1.3v-1.5c0-1-.3-1.3-1.3-1.3h-2.9c-1,0-1.3.3-1.3,1.3v1.5Z"/>
        <path class="cls-2" d="M57.7,154.7c.6,0,.8.1,1,.7l2,4.7c0,0,0,0,.1,0h.1c0,0,.1,0,.1,0l2-4.7c.3-.6.5-.7,1-.7h1c.7,0,.9.3.9,1v5.6c0,.1,0,.2-.2.2h-1c-.1,0-.2,0-.2-.2v-5.1c0,0,0,0,0,0h0c0,0-.1,0-.1,0l-2,4.4c-.3.7-.6,1-1.3,1h-.5c-.7,0-.9-.3-1.3-1l-2-4.4c0,0,0,0-.1,0h0c0,0,0,0,0,0v5.1c0,.1,0,.2-.2.2h-1c-.1,0-.2,0-.2-.2v-5.6c0-.7.2-1,.9-1h1.1Z"/>
        <path class="cls-2" d="M69.4,154.7c.6,0,.8.1,1,.7l2,4.7c0,0,0,0,.1,0h.1c0,0,.1,0,.1,0l2-4.7c.3-.6.5-.7,1-.7h1c.7,0,.9.3.9,1v5.6c0,.1,0,.2-.2.2h-1c-.1,0-.2,0-.2-.2v-5.1c0,0,0,0,0,0h0c0,0-.1,0-.1,0l-2,4.4c-.3.7-.6,1-1.3,1h-.5c-.7,0-.9-.3-1.3-1l-2-4.4c0,0,0,0-.1,0h0c0,0,0,0,0,0v5.1c0,.1,0,.2-.2.2h-1c-.1,0-.2,0-.2-.2v-5.6c0-.7.2-1,.9-1h1.1Z"/>
        <path class="cls-2" d="M80.4,154.7c.1,0,.2,0,.2.2v3.9c0,1,.3,1.3,1.3,1.3h2.7c1,0,1.3-.3,1.3-1.3v-3.9c0-.1,0-.2.2-.2h1.1c.1,0,.2,0,.2.2v4.1c0,1.9-.8,2.6-2.7,2.6h-2.8c-2,0-2.7-.7-2.7-2.6v-4.1c0-.1,0-.2.2-.2h1.1Z"/>
        <path class="cls-2" d="M90.5,154.7c.6,0,.8,0,1.1.6l3.6,4.8s0,0,.1,0h0s0,0,0,0v-5.1c0-.1,0-.2.2-.2h1c.1,0,.2,0,.2.2v5.6c0,.8-.3,1-.9,1h-.8c-.6,0-.7,0-1.1-.6l-3.7-4.8s0,0-.1,0h0c0,0,0,0,0,0v5.1c0,.1,0,.2-.2.2h-1c-.1,0-.2,0-.2-.2v-5.6c0-.8.3-1,.9-1h.9Z"/>
        <path class="cls-2" d="M99.6,154.7c.1,0,.2,0,.2.2v6.4c0,.1,0,.2-.2.2h-1.1c-.1,0-.2,0-.2-.2v-6.4c0-.1,0-.2.2-.2h1.1Z"/>
        <path class="cls-2" d="M108.6,154.7c.1,0,.2,0,.2.2v1c0,.1,0,.2-.2.2h-3.1v5.2c0,.1,0,.2-.2.2h-1.1c-.1,0-.2,0-.2-.2v-5.2h-3.1c-.1,0-.2,0-.2-.2v-1c0-.1,0-.2.2-.2h7.6Z"/>
        <path class="cls-2" d="M110.6,154.7c.1,0,.2,0,.2.1l2.6,3.5,2.6-3.5c0,0,.1-.1.2-.1h1.3c.1,0,.2.1,0,.2l-3.5,4.6v1.9c0,.1,0,.2-.2.2h-1.1c-.1,0-.2,0-.2-.2v-1.9s-3.5-4.6-3.5-4.6c0,0,0-.2,0-.2h1.3Z"/>
      </g>
      <g>
        <path class="cls-4" d="M160.2,22.4c1.3,0,1.8.5,1.8,1.7v11.6c0,.3-.1.4-.4.4h-2c-.3,0-.4-.1-.4-.4v-10.3c0-.3-.1-.4-.4-.4h-1.1c-.3,0-.5-.1-.5-.4v-1.7c0-.3.2-.4.5-.4h2.6Z"/>
        <path class="cls-4" d="M174.5,22.4c4,0,5.5,1.4,5.5,5.2v3.4c0,3.8-1.5,5.2-5.5,5.2h-4.5c-4,0-5.5-1.4-5.5-5.2v-3.4c0-3.8,1.5-5.2,5.5-5.2h4.5ZM167.4,30.9c0,2.1.6,2.7,2.6,2.7h4.5c2,0,2.6-.6,2.6-2.7v-3.1c0-2.1-.6-2.7-2.6-2.7h-4.5c-2,0-2.6.6-2.6,2.7v3.1Z"/>
        <path class="cls-4" d="M187.8,22.4c2.2,0,3,.8,3,2.8v1.9c0,2.1-.8,2.8-3,2.8h-2.5c-2.2,0-3-.8-3-2.8v-1.9c0-2.1.8-2.8,3-2.8h2.5ZM184,27c0,1.1.3,1.4,1.4,1.4h2.3c1.1,0,1.4-.3,1.4-1.4v-1.5c0-1.1-.3-1.4-1.4-1.4h-2.3c-1.1,0-1.4.3-1.4,1.4v1.5ZM198.4,22.4c.2,0,.3.2.1.4l-10.6,13.2c-.1.1-.2.2-.5.2h-1.2c-.2,0-.3-.2-.2-.4l10.6-13.2c.1-.1.2-.2.5-.2h1.2ZM199.3,28.6c2.2,0,3,.8,3,2.8v1.9c0,2.1-.8,2.8-3,2.8h-2.5c-2.2,0-3-.8-3-2.8v-1.9c0-2.1.8-2.8,3-2.8h2.5ZM195.6,33.2c0,1.1.3,1.4,1.4,1.4h2.3c1.1,0,1.4-.3,1.4-1.4v-1.5c0-1.1-.3-1.4-1.4-1.4h-2.3c-1.1,0-1.4.3-1.4,1.4v1.5Z"/>
        <path class="cls-4" d="M159.3,41.1c.6,0,.8.1,1,.7l2,4.7c0,0,0,0,.1,0h.1c0,0,.1,0,.1,0l2-4.7c.3-.6.5-.7,1-.7h1c.7,0,.9.3.9,1v5.6c0,.1,0,.2-.2.2h-1c-.1,0-.2,0-.2-.2v-5.1c0,0,0,0,0,0h0c0,0-.1,0-.1,0l-2,4.4c-.3.7-.6,1-1.3,1h-.5c-.7,0-.9-.3-1.3-1l-2-4.4c0,0,0,0-.1,0h0c0,0,0,0,0,0v5.1c0,.1,0,.2-.2.2h-1c-.1,0-.2,0-.2-.2v-5.6c0-.7.2-1,.9-1h1.1Z"/>
        <path class="cls-4" d="M174.8,41.1c2,0,2.7.7,2.7,2.6v1.7c0,1.9-.8,2.6-2.7,2.6h-3c-2,0-2.7-.7-2.7-2.6v-1.7c0-1.9.8-2.6,2.7-2.6h3ZM170.5,45.2c0,1,.3,1.3,1.3,1.3h2.9c1,0,1.3-.3,1.3-1.3v-1.5c0-1-.3-1.3-1.3-1.3h-2.9c-1,0-1.3.3-1.3,1.3v1.5Z"/>
        <path class="cls-4" d="M184.4,41.1c2,0,2.7.7,2.7,2.6v1.7c0,1.9-.8,2.6-2.7,2.6h-3c-2,0-2.7-.7-2.7-2.6v-1.7c0-1.9.8-2.6,2.7-2.6h3ZM180.2,45.2c0,1,.3,1.3,1.3,1.3h2.9c1,0,1.3-.3,1.3-1.3v-1.5c0-1-.3-1.3-1.3-1.3h-2.9c-1,0-1.3.3-1.3,1.3v1.5Z"/>
        <path class="cls-4" d="M190.1,41.1c.6,0,.8,0,1.1.6l3.6,4.8s0,0,.1,0h0s0,0,0,0v-5.1c0-.1,0-.2.2-.2h1c.1,0,.2,0,.2.2v5.6c0,.8-.3,1-.9,1h-.8c-.6,0-.7,0-1.1-.6l-3.7-4.8s0,0-.1,0h0c0,0,0,0,0,0v5.1c0,.1,0,.2-.2.2h-1c-.1,0-.2,0-.2-.2v-5.6c0-.8.3-1,.9-1h.9Z"/>
        <path class="cls-4" d="M202.8,41.1c2.1,0,3,.9,3,2.8v1.3c0,1.9-.9,2.8-3,2.8h-4.6c-.2,0-.3,0-.3-.3v-6.3c0-.2,0-.3.3-.3h4.6ZM199.5,46.4c0,0,0,.1.1.1h3.2c1.2,0,1.5-.4,1.5-1.5v-1.1c0-1.2-.4-1.5-1.5-1.5h-3.2c0,0-.1,0-.1.1v3.9Z"/>
        <path class="cls-4" d="M211,41.1c.5,0,.8.2,1.1.7l3.2,5.9c0,.1,0,.2-.1.2h-1.2c-.1,0-.2,0-.2-.1l-.7-1.3h-4.6l-.7,1.3c0,0-.1.1-.2.1h-1.3c-.2,0-.2,0-.1-.2l3.2-5.9c.3-.6.6-.7,1-.7h.6ZM209.1,45.4h3.4l-1.6-2.9s0,0-.1,0h0s0,0-.1,0l-1.5,2.9Z"/>
        <path class="cls-4" d="M221.5,41.1c2,0,2.7.7,2.7,2.6v1.7c0,1.9-.8,2.6-2.7,2.6h-3c-2,0-2.7-.7-2.7-2.6v-1.7c0-1.9.8-2.6,2.7-2.6h3ZM217.3,45.2c0,1,.3,1.3,1.3,1.3h2.9c1,0,1.3-.3,1.3-1.3v-1.5c0-1-.3-1.3-1.3-1.3h-2.9c-1,0-1.3.3-1.3,1.3v1.5Z"/>
      </g>
      <g>
        <path class="cls-4" d="M207,74c1.3,0,1.8.5,1.8,1.7v11.6c0,.3-.1.4-.4.4h-2c-.3,0-.4-.1-.4-.4v-10.3c0-.3-.1-.4-.4-.4h-1.1c-.3,0-.5-.1-.5-.4v-1.7c0-.3.2-.4.5-.4h2.6Z"/>
        <path class="cls-4" d="M221.3,74c4,0,5.5,1.4,5.5,5.2v3.4c0,3.8-1.5,5.2-5.5,5.2h-4.5c-4,0-5.5-1.4-5.5-5.2v-3.4c0-3.8,1.5-5.2,5.5-5.2h4.5ZM214.2,82.4c0,2.1.6,2.7,2.6,2.7h4.5c2,0,2.6-.6,2.6-2.7v-3.1c0-2.1-.6-2.7-2.6-2.7h-4.5c-2,0-2.6.6-2.6,2.7v3.1Z"/>
        <path class="cls-4" d="M234.5,74c2.2,0,3,.8,3,2.8v1.9c0,2.1-.8,2.8-3,2.8h-2.5c-2.2,0-3-.8-3-2.8v-1.9c0-2.1.8-2.8,3-2.8h2.5ZM230.8,78.5c0,1.1.3,1.4,1.4,1.4h2.3c1.1,0,1.4-.3,1.4-1.4v-1.5c0-1.1-.3-1.4-1.4-1.4h-2.3c-1.1,0-1.4.3-1.4,1.4v1.5ZM245.2,74c.2,0,.3.2.1.4l-10.6,13.2c-.1.1-.2.2-.5.2h-1.2c-.2,0-.3-.2-.2-.4l10.6-13.2c.1-.1.2-.2.5-.2h1.2ZM246.1,80.2c2.2,0,3,.8,3,2.8v1.9c0,2.1-.8,2.8-3,2.8h-2.5c-2.2,0-3-.8-3-2.8v-1.9c0-2.1.8-2.8,3-2.8h2.5ZM242.3,84.7c0,1.1.3,1.4,1.4,1.4h2.3c1.1,0,1.4-.3,1.4-1.4v-1.5c0-1.1-.3-1.4-1.4-1.4h-2.3c-1.1,0-1.4.3-1.4,1.4v1.5Z"/>
        <path class="cls-4" d="M205.4,92.6c.1,0,.2,0,.2.2v3.9c0,1,.3,1.3,1.3,1.3h4c.1,0,.2,0,.2.2v1c0,.1,0,.2-.2.2h-4c-2,0-2.7-.7-2.7-2.6v-4.1c0-.1,0-.2.2-.2h1.1Z"/>
        <path class="cls-4" d="M213.3,92.6c.1,0,.2,0,.2.2v6.4c0,.1,0,.2-.2.2h-1.1c-.1,0-.2,0-.2-.2v-6.4c0-.1,0-.2.2-.2h1.1Z"/>
        <path class="cls-4" d="M220.5,92.6c2,0,2.7.7,2.7,2.6v1.5c0,1.6-.5,2.4-1.9,2.5l1.1,1.6c0,0,0,.2-.1.2h-1.3c-.2,0-.2,0-.3-.1l-1.1-1.6h-2.2c-2,0-2.7-.7-2.7-2.6v-1.5c0-1.9.8-2.6,2.7-2.6h3ZM216.2,96.6c0,1,.3,1.3,1.3,1.3h2.9c1,0,1.3-.3,1.3-1.3v-1.3c0-1-.3-1.3-1.3-1.3h-2.9c-1,0-1.3.3-1.3,1.3v1.3Z"/>
        <path class="cls-4" d="M225.7,92.6c.1,0,.2,0,.2.2v3.9c0,1,.3,1.3,1.3,1.3h2.7c1,0,1.3-.3,1.3-1.3v-3.9c0-.1,0-.2.2-.2h1.1c.1,0,.2,0,.2.2v4.1c0,1.9-.8,2.6-2.7,2.6h-2.8c-2,0-2.7-.7-2.7-2.6v-4.1c0-.1,0-.2.2-.2h1.1Z"/>
        <path class="cls-4" d="M235.3,92.6c.1,0,.2,0,.2.2v6.4c0,.1,0,.2-.2.2h-1.1c-.1,0-.2,0-.2-.2v-6.4c0-.1,0-.2.2-.2h1.1Z"/>
        <path class="cls-4" d="M241.7,92.6c2.1,0,3,.9,3,2.8v1.3c0,1.9-.9,2.8-3,2.8h-4.6c-.2,0-.3,0-.3-.3v-6.3c0-.2,0-.3.3-.3h4.6ZM238.3,98c0,0,0,.1.1.1h3.2c1.2,0,1.5-.4,1.5-1.5v-1.1c0-1.2-.4-1.5-1.5-1.5h-3.2c0,0-.1,0-.1.1v3.9Z"/>
        <path class="cls-4" d="M247.2,92.6c.1,0,.2,0,.2.2v6.4c0,.1,0,.2-.2.2h-1.1c-.1,0-.2,0-.2-.2v-6.4c0-.1,0-.2.2-.2h1.1Z"/>
        <path class="cls-4" d="M256.2,92.6c.1,0,.2,0,.2.2v1c0,.1,0,.2-.2.2h-3.1v5.2c0,.1,0,.2-.2.2h-1.1c-.1,0-.2,0-.2-.2v-5.2h-3.1c-.1,0-.2,0-.2-.2v-1c0-.1,0-.2.2-.2h7.6Z"/>
        <path class="cls-4" d="M258.2,92.6c.1,0,.2,0,.2.1l2.6,3.5,2.6-3.5c0,0,.1-.1.2-.1h1.3c.1,0,.2.1,0,.2l-3.5,4.6v1.9c0,.1,0,.2-.2.2h-1.1c-.1,0-.2,0-.2-.2v-1.9l-3.5-4.6c0,0,0-.2,0-.2h1.3Z"/>
      </g>
      <g>
        <path class="cls-4" d="M202.7,173.4c2.7,0,3.7,1.1,3.7,3.2v.9c0,1.1-.4,1.9-1.2,2.5.9.5,1.3,1.4,1.3,2.5v1.1c0,2.1-.9,3.4-3.5,3.4h-10.5c-.3,0-.4-.1-.4-.4v-1.7c0-.3.1-.4.4-.4h9.6c1,0,1.5-.4,1.5-1.2v-.7c0-.8-.4-1.3-1.7-1.3h-9.3c-.3,0-.5-.1-.5-.4v-1.4c0-.3.2-.4.5-.4h9.3c1.3,0,1.7-.4,1.7-1.2v-.7c0-.8-.4-1.2-1.5-1.2h-9.6c-.3,0-.4-.1-.4-.4v-1.7c0-.3.1-.4.4-.4h10.2Z"/>
        <path class="cls-4" d="M218.8,173.4c4,0,5.5,1.4,5.5,5.2v3.4c0,3.8-1.5,5.2-5.5,5.2h-4.5c-4,0-5.5-1.4-5.5-5.2v-3.4c0-3.8,1.5-5.2,5.5-5.2h4.5ZM211.7,181.8c0,2.1.6,2.7,2.6,2.7h4.5c2,0,2.6-.6,2.6-2.7v-3.1c0-2.1-.6-2.7-2.6-2.7h-4.5c-2,0-2.6.6-2.6,2.7v3.1Z"/>
        <path class="cls-4" d="M232.1,173.4c2.2,0,3,.8,3,2.8v1.9c0,2.1-.8,2.8-3,2.8h-2.5c-2.2,0-3-.8-3-2.8v-1.9c0-2.1.8-2.8,3-2.8h2.5ZM228.3,177.9c0,1.1.3,1.4,1.4,1.4h2.3c1.1,0,1.4-.3,1.4-1.4v-1.5c0-1.1-.3-1.4-1.4-1.4h-2.3c-1.1,0-1.4.3-1.4,1.4v1.5ZM242.7,173.4c.2,0,.3.2.1.4l-10.6,13.2c-.1.1-.2.2-.5.2h-1.2c-.2,0-.3-.2-.2-.4l10.6-13.2c.1-.1.2-.2.5-.2h1.2ZM243.6,179.6c2.2,0,3,.8,3,2.8v1.9c0,2.1-.8,2.8-3,2.8h-2.5c-2.2,0-3-.8-3-2.8v-1.9c0-2.1.8-2.8,3-2.8h2.5ZM239.9,184.1c0,1.1.3,1.4,1.4,1.4h2.3c1.1,0,1.4-.3,1.4-1.4v-1.5c0-1.1-.3-1.4-1.4-1.4h-2.3c-1.1,0-1.4.3-1.4,1.4v1.5Z"/>
        <path class="cls-4" d="M199.2,192c.1,0,.2,0,.2.2v1c0,.1,0,.2-.2.2h-3.1v5.2c0,.1,0,.2-.2.2h-1.1c-.1,0-.2,0-.2-.2v-5.2h-3.1c-.1,0-.2,0-.2-.2v-1c0-.1,0-.2.2-.2h7.6Z"/>
        <path class="cls-4" d="M207.1,192c.1,0,.2,0,.2.2v.9c0,.1,0,.2-.2.2h-4.3c-1,0-1.3.3-1.3,1.3h0c0,0,5.5,0,5.5,0,.1,0,.2,0,.2.2v.8c0,.1,0,.2-.2.2h-5.5v.2c0,1,.3,1.3,1.3,1.3h4.3c.1,0,.2,0,.2.2v.9c0,.1,0,.2-.2.2h-4.3c-2,0-2.7-.7-2.7-2.6v-1.7c0-1.9.8-2.6,2.7-2.6h4.3Z"/>
        <path class="cls-4" d="M212.8,192c.5,0,.8.2,1.1.7l3.2,5.9c0,.1,0,.2-.1.2h-1.2c-.1,0-.2,0-.2-.1l-.7-1.3h-4.6l-.7,1.3c0,0-.1.1-.2.1h-1.3c-.2,0-.2,0-.1-.2l3.2-5.9c.3-.6.6-.7,1-.7h.6ZM210.9,196.3h3.4l-1.6-2.9s0,0-.1,0h0s0,0-.1,0l-1.5,2.9Z"/>
        <path class="cls-4" d="M220,192c.6,0,.8.1,1,.7l2,4.7c0,0,0,0,.1,0h.1c0,0,.1,0,.1,0l2-4.7c.3-.6.5-.7,1-.7h1c.7,0,.9.3.9,1v5.6c0,.1,0,.2-.2.2h-1c-.1,0-.2,0-.2-.2v-5.1c0,0,0,0,0,0h0c0,0-.1,0-.1,0l-2,4.4c-.3.7-.6,1-1.3,1h-.5c-.7,0-.9-.3-1.3-1l-2-4.4c0,0,0,0-.1,0h0c0,0,0,0,0,0v5.1c0,.1,0,.2-.2.2h-1c-.1,0-.2,0-.2-.2v-5.6c0-.7.2-1,.9-1h1.1Z"/>
      </g>
    </g>
  </g>
</svg>