<?xml version="1.0" encoding="UTF-8"?>
<svg xmlns="http://www.w3.org/2000/svg" xmlns:xlink="http://www.w3.org/1999/xlink" version="1.1" viewBox="0 0 504.6 404.4">
  <defs>
    <style>
      .cls-1, .cls-2, .cls-3 {
        fill: none;
      }

      .cls-4 {
        fill: url(#linear-gradient);
      }

      .cls-5 {
        fill: #fff;
      }

      .cls-2 {
        opacity: .5;
        stroke-width: 3px;
      }

      .cls-2, .cls-3 {
        isolation: isolate;
        stroke: #fff;
        stroke-miterlimit: 10;
      }

      .cls-3 {
        opacity: .3;
      }

      .cls-6 {
        clip-path: url(#clippath);
      }
    </style>
    <clipPath id="clippath">
      <polygon class="cls-1" points="81.7 18.1 490.5 8.1 488.5 332.8 81.7 332.8 81.7 18.1"/>
    </clipPath>
    <linearGradient id="linear-gradient" x1="81.7" y1="337.1" x2="490.5" y2="337.1" gradientTransform="translate(0 -166.6)" gradientUnits="userSpaceOnUse">
      <stop offset="0" stop-color="#4e62ad"/>
      <stop offset="1" stop-color="#6c407e"/>
    </linearGradient>
  </defs>
  <!-- Generator: Adobe Illustrator 28.7.7, SVG Export Plug-In . SVG Version: 1.2.0 Build 194)  -->
  <g>
    <g id="Layer_1">
      <g id="Layer_1-2" data-name="Layer_1">
        <path class="cls-5" d="M79.1,24c3.6,0,6.4-2.9,6.4-6.4s-2.8-6.5-6.4-6.5-6.4,2.9-6.4,6.4,2.9,6.4,6.4,6.4h0Z"/>
        <path class="cls-5" d="M79.1,181.1c3.6,0,6.4-2.9,6.4-6.4s-2.9-6.4-6.4-6.4-6.4,2.9-6.4,6.4,2.9,6.4,6.4,6.4Z"/>
        <path class="cls-5" d="M79.1,259.6c3.6,0,6.4-2.9,6.4-6.4s-2.9-6.4-6.4-6.4-6.4,2.9-6.4,6.4,2.9,6.4,6.4,6.4Z"/>
        <path class="cls-5" d="M79.1,102.5c3.6,0,6.4-2.9,6.4-6.4s-2.9-6.4-6.4-6.4-6.4,2.9-6.4,6.4,2.9,6.4,6.4,6.4Z"/>
        <path class="cls-3" d="M105.1,17.6h355.3"/>
        <path class="cls-5" d="M481.5,354v-5.7l-4.2,5.7h4.2ZM484.5,354v1h-1.6v3h-1.2v-3h-5.4s-.1-.1-.1-.2v-.7c-.1,0,5.4-7.4,5.4-7.4h1.3v7.3h1.7,0Z"/>
        <path class="cls-5" d="M83.5,352.4c0,1,0,1.9-.3,2.6-.2.7-.5,1.3-.9,1.8s-.8.8-1.3,1.1c-.5.2-1.1.4-1.6.4s-1.1-.1-1.6-.4c-.5-.2-.9-.6-1.3-1.1s-.7-1.1-.9-1.8c-.2-.7-.3-1.6-.3-2.6s0-1.9.3-2.6c.2-.7.5-1.3.9-1.8s.8-.8,1.3-1.1c.5-.2,1.1-.4,1.6-.4s1.1.1,1.6.4c.5.2,1,.6,1.3,1.1.4.5.7,1.1.9,1.8.2.7.3,1.6.3,2.6ZM82,352.4c0-.9,0-1.6-.2-2.2,0-.6-.3-1.1-.6-1.4-.2-.4-.5-.6-.9-.8-.3-.2-.7-.2-1-.2s-.7,0-1,.2-.6.4-.9.8c-.2.4-.4.8-.6,1.4,0,.6-.2,1.3-.2,2.2s0,1.6.2,2.2c0,.6.3,1.1.6,1.4s.5.6.9.8c.3.2.7.2,1,.2s.7,0,1-.2.6-.4.9-.8.4-.8.6-1.4c0-.6.2-1.3.2-2.2Z"/>
        <path class="cls-5" d="M183.8,357v1.1h-6.1v-1.1h2.5v-8.5l-2,1.8s-.1,0-.2.1h-.5c0-.1-.4-.7-.4-.7l3.4-3h1.2v10.4h2.3-.2Z"/>
        <path class="cls-5" d="M283.6,356.7c.2,0,.3,0,.4.1s.1.2.1.4v.9h-7.6v-.8c0-.1.1-.2.2-.3l3.7-3.7c.3-.3.6-.6.8-.9.3-.3.5-.6.6-.9.2-.3.3-.6.4-.9,0-.3.1-.6.1-1s0-.6-.2-.9c-.1-.3-.3-.5-.4-.6-.2-.2-.4-.3-.6-.4-.3,0-.5-.1-.8-.1s-.6,0-.8.1c-.2,0-.5.2-.7.4-.2.1-.3.3-.5.5s-.2.4-.3.7c0,.2-.2.3-.3.4h-1.2c0-.7.2-1.1.4-1.5.2-.4.5-.7.8-1s.7-.5,1.1-.6.9-.2,1.4-.2.9,0,1.4.2c.4.1.8.4,1.1.6.3.3.6.6.7,1,.2.4.3.8.3,1.3s0,.8-.2,1.2c-.1.4-.3.7-.5,1s-.5.7-.8,1-.6.6-.9,1l-3,3.1c.2,0,.4-.1.6-.1h4.7Z"/>
        <path class="cls-5" d="M376.7,349.7c0-.5.2-1,.4-1.4.2-.4.5-.7.8-1s.7-.5,1.1-.6.9-.2,1.4-.2.9,0,1.3.2c.4.1.8.3,1.1.6s.5.6.7.9c.2.4.2.8.2,1.2s0,.7-.1,1c0,.3-.2.5-.4.7-.2.2-.4.4-.6.5s-.5.3-.8.4c.7.2,1.3.5,1.7,1,.4.5.6,1,.6,1.7s-.1,1-.3,1.4c-.2.4-.5.8-.8,1.1-.3.3-.8.5-1.2.7-.5.2-1,.2-1.5.2s-1.1,0-1.6-.2c-.4-.2-.8-.4-1.1-.6-.3-.3-.5-.6-.7-.9-.2-.4-.4-.8-.5-1.2l.6-.3h.5c.2,0,.3.1.3.3s.2.3.3.5c.1.2.3.4.4.6s.4.4.7.5c.3.1.6.2,1.1.2s.7,0,1-.2c.3-.1.6-.3.8-.5.2-.2.4-.4.5-.7.1-.3.2-.5.2-.8s0-.6-.1-.8c0-.3-.2-.5-.4-.7-.2-.2-.5-.3-.9-.4s-.9-.2-1.5-.2v-1c.5,0,.9,0,1.2-.2.3-.1.6-.2.8-.4s.4-.4.5-.6.2-.5.2-.8,0-.6-.2-.9c-.1-.2-.2-.4-.4-.6s-.4-.3-.6-.4c-.2,0-.5-.1-.8-.1s-.6,0-.8.1c-.2,0-.5.2-.7.4-.2.1-.3.3-.5.5s-.2.4-.3.7c0,.2-.2.3-.3.4h-1.3Z"/>
        <path class="cls-5" d="M40.4,23v.8h-4.6v-.8h1.8v-6.4l-1.5,1.3h-.4l-.3-.5,2.6-2.2h.9v7.8h1.7-.2ZM47.9,19.5c0,.8,0,1.4-.2,2-.2.5-.4,1-.7,1.4s-.6.6-1,.8-.8.3-1.2.3-.8,0-1.2-.3c-.4-.2-.7-.4-1-.8-.3-.4-.5-.8-.7-1.4-.2-.6-.2-1.2-.2-2s0-1.4.2-2,.4-1,.7-1.4.6-.6,1-.8c.4-.2.8-.3,1.2-.3s.8,0,1.2.3c.4.2.7.4,1,.8s.5.8.7,1.4.2,1.2.2,2ZM46.8,19.5c0-.7,0-1.2-.2-1.6,0-.4-.3-.8-.4-1.1-.2-.3-.4-.5-.6-.6-.2,0-.5-.2-.8-.2s-.5,0-.8.2c-.2,0-.5.3-.6.6-.2.3-.3.6-.4,1.1,0,.4-.2,1-.2,1.6s0,1.2.2,1.6c0,.4.3.8.4,1.1.2.3.4.5.6.6.2.1.5.2.8.2s.5,0,.8-.2c.2-.1.5-.3.6-.6.2-.3.3-.6.4-1.1,0-.4.2-1,.2-1.6ZM54.8,19.5c0,.8,0,1.4-.2,2-.2.5-.4,1-.7,1.4s-.6.6-1,.8-.8.3-1.2.3-.8,0-1.2-.3c-.4-.2-.7-.4-1-.8-.3-.4-.5-.8-.7-1.4-.2-.6-.2-1.2-.2-2s0-1.4.2-2,.4-1,.7-1.4.6-.6,1-.8c.4-.2.8-.3,1.2-.3s.8,0,1.2.3c.4.2.7.4,1,.8s.5.8.7,1.4.2,1.2.2,2ZM53.7,19.5c0-.7,0-1.2-.2-1.6,0-.4-.3-.8-.4-1.1-.2-.3-.4-.5-.6-.6-.2,0-.5-.2-.8-.2s-.5,0-.8.2c-.2,0-.5.3-.6.6-.2.3-.3.6-.4,1.1,0,.4-.2,1-.2,1.6s0,1.2.2,1.6c0,.4.3.8.4,1.1.2.3.4.5.6.6.2.1.5.2.8.2s.5,0,.8-.2c.2-.1.5-.3.6-.6.2-.3.3-.6.4-1.1,0-.4.2-1,.2-1.6ZM59.5,17.3c0,.3,0,.6-.2.9,0,.3-.2.5-.4.7s-.4.3-.6.4c-.2,0-.5.1-.7.1s-.5,0-.8-.1c-.2,0-.4-.2-.6-.4-.2-.2-.3-.4-.4-.7,0-.3,0-.6,0-.9s0-.6,0-.9.2-.5.4-.7.4-.3.6-.4c.2,0,.5,0,.8,0s.5,0,.8,0c.2,0,.4.2.6.4.2.2.3.4.4.7s0,.6.1.9ZM58.7,17.3v-.7c0-.2,0-.3-.2-.4,0,0-.2-.2-.3-.3s-.3,0-.4,0h-.4c0,0-.2,0-.3.3,0,0-.2.3-.2.4v1.4c0,.2,0,.3.2.4,0,0,.2.2.3.2h.8c0,0,.2,0,.3-.2s.2-.3.2-.4v-.7ZM62.6,15.4h0c0,0,0,0,.2,0h.8l-6.3,8.4h0c0,.1,0,.1-.2.1h-.8s6.3-8.4,6.3-8.4ZM64.3,21.8c0,.3,0,.6-.2.9,0,.3-.2.5-.4.7s-.4.3-.6.4c-.2,0-.5.1-.7.1s-.5,0-.8-.1c-.2,0-.4-.2-.6-.4-.2-.2-.3-.4-.4-.7s0-.6,0-.9,0-.6,0-.9c0-.3.2-.5.4-.7s.4-.3.6-.4c.2,0,.5-.1.8-.1s.5,0,.8.1c.2,0,.4.2.6.4.2.2.3.4.4.7,0,.3.2.6.2.9h0ZM63.4,21.8v-.7c0-.2,0-.3-.2-.5,0-.1-.2-.2-.3-.3h-.8c0,0-.2.1-.3.3s-.2.3-.2.5v1.4c0,.2,0,.3.2.4,0,.1.2.2.3.2h.8c0,0,.2-.1.3-.2,0-.1.2-.3.2-.4v-.7Z"/>
        <path class="cls-5" d="M47.8,92.2v1l-3.6,7.2c0,0,0,.2-.2.3,0,0-.2,0-.4,0h-.8l3.6-7.1s0-.2.2-.3c0,0,0-.2.2-.2h-4.7v-.9h5.8,0ZM50.4,95.5c.4,0,.9,0,1.2,0s.8,0,1.2.2c.3,0,.6.3.9.5.2.2.4.5.5.8s.2.7.2,1,0,.9-.2,1.2c-.2.4-.4.7-.7.9-.3.3-.6.5-1,.6s-.8.2-1.2.2h-.7c-.2,0-.5,0-.7-.2-.2,0-.4-.2-.6-.3-.2,0-.3-.2-.5-.3l.3-.5c0,0,.2-.2.3-.2h.3l.4.2c0,0,.3,0,.5.2h.7c.3,0,.6,0,.8,0,.2,0,.4-.2.6-.4.2-.2.3-.4.4-.6s0-.5,0-.8,0-.5,0-.7c0-.2-.2-.4-.4-.6s-.4-.3-.6-.4-.5,0-.8,0h-.7c-.2,0-.5,0-.7.2l-.7-.2.7-4h4.1v.5c0,.2,0,.3,0,.4,0,0-.3,0-.5,0h-2.7l-.4,2.3v.2ZM59.6,94.3c0,.3,0,.6-.2.9,0,.3-.2.5-.4.7s-.4.3-.6.4c-.2,0-.5,0-.7,0s-.5,0-.8,0c-.2,0-.4-.2-.6-.4-.2-.2-.3-.4-.4-.7,0-.3,0-.6,0-.9s0-.7,0-.9.2-.5.4-.7.4-.3.6-.4c.2,0,.5,0,.8,0s.5,0,.8,0c.2,0,.4.2.6.4.2.2.3.4.4.7s0,.6.1.9ZM58.7,94.3v-.7c0-.2,0-.3-.2-.5,0,0-.2-.2-.3-.3s-.3,0-.4,0h-.4c0,0-.2,0-.3.3,0,0-.2.3-.2.5v1.4c0,.2,0,.3.2.4,0,0,.2.2.3.2h.8c0,0,.2,0,.3-.2,0,0,.2-.3.2-.4v-.7ZM62.6,92.4h0c0,0,0,0,.2,0h.8l-6.3,8.4h0c0,0,0,0-.2,0h-.8l6.3-8.4ZM64.3,98.8c0,.3,0,.6-.2.9s-.2.5-.4.7-.4.3-.6.4c-.2,0-.5,0-.7,0s-.5,0-.8,0c-.2,0-.4-.2-.6-.4-.2-.2-.3-.4-.4-.7s0-.6,0-.9,0-.7,0-.9c0-.3.2-.5.4-.7s.4-.3.6-.4c.2,0,.5,0,.8,0s.5,0,.8,0c.2,0,.4.2.6.4.2.2.3.4.4.7,0,.3,0,.6.1.9ZM63.5,98.8v-.7c0-.2,0-.3-.2-.5,0,0-.2-.2-.3-.3h-.8c0,0-.2,0-.3.3,0,0-.2.3-.2.5v1.4c0,.2,0,.3.2.4,0,0,.2.2.3.2h.8c0,0,.2,0,.3-.2s.2-.3.2-.4v-.7Z"/>
        <path class="cls-5" d="M43.5,173.5c.4,0,.9-.1,1.2-.1s.8,0,1.2.2c.3.1.6.3.9.5.2.2.4.5.5.8s.2.7.2,1,0,.9-.2,1.2c-.2.4-.4.7-.7.9-.3.3-.6.5-1,.6s-.8.2-1.2.2h-.7c-.2,0-.5-.1-.7-.2-.2,0-.4-.2-.6-.3-.2-.1-.3-.2-.5-.3l.3-.5c0-.1.2-.2.3-.2h.3c0,0,.2.1.4.2s.3.1.5.2h.7c.3,0,.6,0,.8-.1.2,0,.4-.2.6-.4.2-.2.3-.4.4-.6,0-.2,0-.5,0-.8s0-.5,0-.7c0-.2-.2-.4-.4-.6-.2-.2-.4-.3-.6-.4s-.5-.1-.8-.1h-.7c-.2,0-.5,0-.7.2l-.7-.2.7-4h4.1v.5c0,.2,0,.3,0,.4,0,0-.3.1-.5.1h-2.7l-.4,2.3v.2ZM54.9,174.5c0,.8,0,1.4-.2,2-.2.5-.4,1-.7,1.4s-.6.6-1,.8-.8.3-1.2.3-.8,0-1.2-.3c-.4-.2-.7-.4-1-.8-.3-.4-.5-.8-.7-1.4-.2-.6-.2-1.2-.2-2s0-1.4.2-2,.4-1,.7-1.4.6-.6,1-.8.8-.3,1.2-.3.8,0,1.2.3c.4.2.7.4,1,.8.3.4.5.8.7,1.4.2.6.2,1.2.2,2ZM53.8,174.5c0-.7,0-1.2-.2-1.7,0-.4-.3-.8-.4-1.1-.2-.3-.4-.5-.6-.6-.2-.1-.5-.2-.8-.2s-.5,0-.8.2c-.2.1-.5.3-.6.6-.2.3-.3.6-.4,1.1,0,.4-.2,1-.2,1.7s0,1.2.2,1.6c0,.4.3.8.4,1.1.2.3.4.5.6.6.2.1.5.2.8.2s.5,0,.8-.2c.2-.1.5-.3.6-.6.2-.3.3-.6.4-1.1,0-.4.2-1,.2-1.6ZM59.6,172.3c0,.3,0,.6-.2.9,0,.3-.2.5-.4.7s-.4.3-.6.4c-.2,0-.5.1-.7.1s-.5,0-.8-.1c-.2,0-.4-.2-.6-.4-.2-.2-.3-.4-.4-.7,0-.3,0-.6,0-.9s0-.6,0-.9c0-.3.2-.5.4-.7s.4-.3.6-.4c.2,0,.5-.1.8-.1s.5,0,.8.1c.2,0,.4.2.6.4.2.2.3.4.4.7,0,.3,0,.6.1.9ZM58.7,172.3v-.7c0-.2,0-.3-.2-.4,0-.1-.2-.2-.3-.3s-.3,0-.4,0h-.4c0,0-.2.1-.3.3,0,.1-.2.3-.2.4v1.4c0,.2,0,.3.2.4,0,.1.2.2.3.2h.8c0,0,.2-.1.3-.2,0-.1.2-.3.2-.4v-.7ZM62.6,170.4h0c0-.1,0-.1.2-.1h.8l-6.3,8.4h0c0,.1,0,.1-.2.1h-.8l6.3-8.4ZM64.3,176.8c0,.3,0,.6-.2.9,0,.3-.2.5-.4.7s-.4.3-.6.4c-.2,0-.5.1-.7.1s-.5,0-.8-.1c-.2,0-.4-.2-.6-.4-.2-.2-.3-.4-.4-.7,0-.3,0-.6,0-.9s0-.6,0-.9c0-.3.2-.5.4-.7s.4-.3.6-.4c.2,0,.5-.1.8-.1s.5,0,.8.1c.2,0,.4.2.6.4.2.2.3.4.4.7,0,.3,0,.6.1.9ZM63.5,176.8v-.7c0-.2,0-.3-.2-.5,0-.1-.2-.2-.3-.3h-.8c0,0-.2.1-.3.3,0,.1-.2.3-.2.5v1.4c0,.2,0,.3.2.4,0,.1.2.2.3.2h.8c0,0,.2-.1.3-.2,0-.1.2-.3.2-.4v-.7Z"/>
        <path class="cls-5" d="M47.2,257.8c0,0,.2,0,.3.1,0,0,0,.2,0,.3v.6h-5.7v-.6s0-.2,0-.2l2.8-2.8c.2-.2.4-.5.6-.7.2-.2.3-.4.5-.6s.2-.4.3-.7c0-.2,0-.5,0-.7s0-.5,0-.7c0-.2-.2-.4-.3-.5s-.3-.2-.5-.3h-1.2c-.2,0-.3.2-.5.3,0,.1-.3.2-.4.4,0,.2-.2.3-.2.5s0,.2-.2.3h-.9c0-.5.2-.8.3-1.1.2-.3.4-.6.6-.8.2-.2.5-.4.8-.5s.7-.2,1-.2.7,0,1,.2c.3.1.6.3.8.5s.4.5.5.8.2.6.2,1,0,.6,0,.9c0,.3-.2.5-.4.8-.2.2-.4.5-.6.7-.2.2-.4.5-.7.7l-2.3,2.3c.2,0,.3,0,.5-.1h3.6ZM50.4,253.5c.4,0,.9-.1,1.2-.1s.8,0,1.2.2c.3.1.6.3.9.5.2.2.4.5.5.8s.2.7.2,1,0,.9-.2,1.2c-.2.4-.4.7-.7.9-.3.3-.6.5-1,.6s-.8.2-1.2.2h-.7c-.2,0-.5-.1-.7-.2-.2,0-.4-.2-.6-.3-.2-.1-.3-.2-.5-.3l.3-.5c0-.1.2-.2.3-.2h.3s.2.1.4.2c0,0,.3.1.5.2h.7c.3,0,.6,0,.8-.1.2,0,.4-.2.6-.4.2-.2.3-.4.4-.6s0-.5,0-.8,0-.5,0-.7c0-.2-.2-.4-.4-.6-.2-.2-.4-.3-.6-.4s-.5-.1-.8-.1h-.7c-.2,0-.5,0-.7.2l-.7-.2.7-4h4.1v.5c0,.2,0,.3,0,.4,0,0-.3.1-.5.1h-2.7l-.4,2.3v.2ZM59.6,252.3c0,.3,0,.6-.2.9,0,.3-.2.5-.4.7s-.4.3-.6.4c-.2,0-.5.1-.7.1s-.5,0-.8-.1c-.2,0-.4-.2-.6-.4-.2-.2-.3-.4-.4-.7,0-.3,0-.6,0-.9s0-.6,0-.9c0-.3.2-.5.4-.7s.4-.3.6-.4c.2,0,.5-.1.8-.1s.5,0,.8.1c.2,0,.4.2.6.4.2.2.3.4.4.7,0,.3,0,.6.1.9ZM58.7,252.3v-.7c0-.2,0-.3-.2-.4,0-.1-.2-.2-.3-.3s-.3,0-.4,0h-.4c0,0-.2.1-.3.3,0,.1-.2.3-.2.4v1.4c0,.2,0,.3.2.4,0,.1.2.2.3.2h.8c0,0,.2-.1.3-.2,0-.1.2-.3.2-.4v-.7ZM62.6,250.4h0c0-.1,0-.1.2-.1h.8l-6.3,8.4h0c0,.1,0,.1-.2.1h-.8l6.3-8.4ZM64.3,256.8c0,.3,0,.6-.2.9,0,.3-.2.5-.4.7s-.4.3-.6.4c-.2,0-.5.1-.7.1s-.5,0-.8-.1c-.2,0-.4-.2-.6-.4-.2-.2-.3-.4-.4-.7,0-.3,0-.6,0-.9s0-.6,0-.9c0-.3.2-.5.4-.7s.4-.3.6-.4c.2,0,.5-.1.8-.1s.5,0,.8.1c.2,0,.4.2.6.4.2.2.3.4.4.7,0,.3,0,.6.1.9ZM63.5,256.8v-.7c0-.2,0-.3-.2-.5,0-.1-.2-.2-.3-.3h-.8c0,0-.2.1-.3.3,0,.1-.2.3-.2.5v1.4c0,.2,0,.3.2.4,0,.1.2.2.3.2h.8c0,0,.2-.1.3-.2,0-.1.2-.3.2-.4v-.7Z"/>
        <path class="cls-5" d="M55.9,330.5c0,.8,0,1.4-.2,2-.2.5-.4,1-.7,1.4s-.6.6-1,.8c-.4.2-.8.3-1.2.3s-.8,0-1.2-.3c-.4-.2-.7-.4-1-.8s-.5-.8-.7-1.4-.2-1.2-.2-2,0-1.4.2-2,.4-1,.7-1.4.6-.6,1-.8c.4-.2.8-.3,1.2-.3s.8,0,1.2.3c.4.2.7.4,1,.8s.5.8.7,1.4.2,1.2.2,2ZM54.8,330.5c0-.7,0-1.2-.2-1.6,0-.4-.3-.8-.4-1.1-.2-.3-.4-.5-.6-.6-.2-.1-.5-.2-.8-.2s-.5,0-.8.2c-.2.1-.5.3-.6.6-.2.3-.3.6-.4,1.1,0,.4-.2,1-.2,1.6s0,1.2.2,1.6c0,.4.3.8.4,1.1.2.3.4.5.6.6.2.1.5.2.8.2s.5,0,.8-.2c.2-.1.5-.3.6-.6.2-.3.3-.6.4-1.1,0-.4.2-1,.2-1.6ZM60.6,328.3c0,.3,0,.6-.2.9,0,.3-.2.5-.4.7s-.4.3-.6.4c-.2,0-.5.1-.7.1s-.5,0-.8-.1-.4-.2-.6-.4c-.2-.2-.3-.4-.4-.7,0-.3,0-.6,0-.9s0-.6,0-.9c0-.3.2-.5.4-.7s.4-.3.6-.4.5-.1.8-.1.5,0,.8.1c.2,0,.4.2.6.4.2.2.3.4.4.7s0,.6.1.9ZM59.8,328.3v-.7c0-.2,0-.3-.2-.4,0-.1-.2-.2-.3-.3s-.3,0-.4,0h-.4c0,0-.2.1-.3.3,0,.1-.2.3-.2.4v1.4c0,.2,0,.3.2.4,0,.1.2.2.3.2h.8c0,0,.2-.1.3-.2,0-.1.2-.3.2-.4v-.7ZM63.6,326.4h0c0-.1,0-.1.2-.1h.8l-6.3,8.4h0c0,.1,0,.1-.2.1h-.8l6.3-8.4ZM65.4,332.8c0,.3,0,.6-.2.9s-.2.5-.4.7-.4.3-.6.4c-.2,0-.5.1-.7.1s-.5,0-.8-.1c-.2,0-.4-.2-.6-.4-.2-.2-.3-.4-.4-.7s0-.6,0-.9,0-.7,0-.9c0-.3.2-.5.4-.7s.4-.3.6-.4c.2,0,.5-.1.8-.1s.5,0,.8.1c.2,0,.4.2.6.4.2.2.3.4.4.7,0,.3.2.6.2.9h0ZM64.5,332.8v-.7c0-.2,0-.3-.2-.5,0-.1-.2-.2-.3-.3s-.3,0-.4,0h-.4c0,0-.2.1-.3.3s-.2.3-.2.5v1.4c0,.2,0,.3.2.4,0,.1.2.2.3.2h.8c0,0,.2-.1.3-.2,0-.1.2-.3.2-.4v-.7Z"/>
        <path class="cls-2" d="M497.1,331.3H79.3V19"/>
        <path class="cls-3" d="M105.1,96.1h355.3"/>
        <path class="cls-3" d="M105.1,174.6h355.3"/>
        <path class="cls-3" d="M105.1,253.1h355.3"/>
        <g class="cls-6">
          <path class="cls-4" d="M490.5,16.9c0,4.9-3.9,8.8-8.8,8.8s-2.6-.3-3.8-.9l-295.3,237.6v70.4h-100.9v-7h93.9v-66.8l1.3-1.1L473.3,19.5c-.3-.8-.4-1.7-.4-2.6,0-4.9,3.9-8.8,8.8-8.8s8.8,3.9,8.8,8.8h0Z"/>
        </g>
        <path class="cls-5" d="M79.1,336.1c3.6,0,6.4-2.9,6.4-6.4s-2.9-6.4-6.4-6.4-6.4,2.9-6.4,6.4,2.9,6.4,6.4,6.4Z"/>
      </g>
      <g>
        <path class="cls-5" d="M240.7,383.4h-3.7v-1.3h9v1.3h-3.7v10.8h-1.6v-10.8Z"/>
        <path class="cls-5" d="M248.9,383c0,.5-.4,1-1,1s-1-.4-1-1,.4-1,1-1,1,.4,1,1ZM247.1,394.2v-8.7h1.6v8.7h-1.6Z"/>
        <path class="cls-5" d="M251.3,387.8c0-.9,0-1.6,0-2.4h1.4v1.4h.1c.5-.8,1.3-1.6,2.7-1.6s2.1.7,2.5,1.7h0c.3-.5.6-.9,1-1.1.5-.4,1.1-.6,1.9-.6s2.9.8,2.9,3.8v5.1h-1.5v-4.9c0-1.7-.6-2.7-1.9-2.7s-1.6.7-1.9,1.4c0,.2-.1.5-.1.8v5.4h-1.5v-5.2c0-1.4-.6-2.4-1.8-2.4s-1.7.8-2,1.6c0,.2-.1.5-.1.8v5.3h-1.5v-6.4Z"/>
        <path class="cls-5" d="M267.2,390.1c0,2.1,1.4,3,3,3s1.8-.2,2.4-.5l.3,1.1c-.6.3-1.5.5-2.9.5-2.7,0-4.3-1.8-4.3-4.4s1.5-4.7,4.1-4.7,3.6,2.5,3.6,4.1,0,.6,0,.7h-6.1ZM271.9,389c0-1-.4-2.6-2.2-2.6s-2.3,1.5-2.4,2.6h4.6Z"/>
        <path class="cls-5" d="M282.6,381.7c-1.3,1.8-2.3,4.1-2.3,7.4s1,5.5,2.3,7.3h-1.2c-1.1-1.5-2.4-3.8-2.4-7.3,0-3.5,1.2-5.9,2.4-7.4h1.2Z"/>
        <path class="cls-5" d="M287.8,394.2v-5.1l-3.8-7h1.8l1.7,3.3c.5.9.8,1.7,1.2,2.5h0c.3-.8.8-1.6,1.2-2.5l1.7-3.3h1.8l-4.1,7v5.2h-1.6Z"/>
        <path class="cls-5" d="M294.3,390.1c0,2.1,1.4,3,3,3s1.8-.2,2.4-.5l.3,1.1c-.6.3-1.5.5-2.9.5-2.7,0-4.3-1.8-4.3-4.4s1.5-4.7,4.1-4.7,3.6,2.5,3.6,4.1,0,.6,0,.7h-6.1ZM298.9,389c0-1-.4-2.6-2.2-2.6s-2.3,1.5-2.4,2.6h4.6Z"/>
        <path class="cls-5" d="M307.2,394.2v-1.1h-.2c-.5.7-1.4,1.3-2.7,1.3-1.8,0-2.7-1.2-2.7-2.5,0-2.1,1.9-3.3,5.2-3.2v-.2c0-.7-.2-2-2-2s-1.7.3-2.3.6l-.4-1c.7-.5,1.8-.8,2.9-.8,2.7,0,3.3,1.8,3.3,3.6v3.3c0,.8,0,1.5.1,2.1h-1.4ZM307,389.7c-1.7,0-3.7.3-3.7,2s.7,1.5,1.5,1.5,1.9-.7,2.1-1.5c0-.2,0-.3,0-.5v-1.5Z"/>
        <path class="cls-5" d="M311.1,388.2c0-1,0-1.9,0-2.7h1.4v1.7h.1c.4-1.2,1.4-1.9,2.4-1.9s.3,0,.5,0v1.5c-.2,0-.3,0-.5,0-1.1,0-1.9.8-2.1,2,0,.2,0,.5,0,.7v4.6h-1.6v-6Z"/>
        <path class="cls-5" d="M316.8,392.6c.5.3,1.3.6,2.1.6,1.2,0,1.7-.6,1.7-1.3s-.5-1.2-1.6-1.6c-1.6-.6-2.3-1.4-2.3-2.5s1.1-2.6,3-2.6,1.7.3,2.1.5l-.4,1.2c-.3-.2-1-.5-1.8-.5s-1.5.5-1.5,1.2.5,1,1.7,1.5c1.5.6,2.3,1.3,2.3,2.6s-1.2,2.6-3.3,2.6-1.8-.2-2.4-.6l.4-1.2Z"/>
        <path class="cls-5" d="M323.1,396.4c1.3-1.8,2.3-4.1,2.3-7.4s-1-5.5-2.3-7.3h1.2c1.2,1.5,2.4,3.8,2.4,7.3s-1.2,5.8-2.4,7.3h-1.2Z"/>
      </g>
      <g>
        <path class="cls-5" d="M13.6,225v3.7h-1.3v-9h1.3v3.7h10.8v1.6h-10.8Z"/>
        <path class="cls-5" d="M20,211.8c3.2,0,4.6,2.2,4.6,4.3s-1.7,4.2-4.5,4.2-4.6-1.9-4.6-4.3,1.8-4.2,4.5-4.2ZM20.1,218.7c1.9,0,3.3-1.1,3.3-2.6s-1.4-2.6-3.4-2.6-3.3.7-3.3,2.6,1.7,2.7,3.4,2.7Z"/>
        <path class="cls-5" d="M19.7,208.2h0c-.3-.3-.7-.6-1-.8l-3-2.6v-1.9l3.6,3.4,5.1-3.8v1.9l-4.2,3,.9.8h3.3v1.6h-12.8v-1.6h8.1Z"/>
        <path class="cls-5" d="M20.4,200.5c2.1,0,3-1.4,3-3s-.2-1.8-.5-2.4l1.1-.3c.3.6.5,1.5.5,2.9,0,2.7-1.8,4.3-4.4,4.3s-4.7-1.5-4.7-4.1,2.5-3.6,4.1-3.6.6,0,.7,0v6.1ZM19.2,195.8c-1,0-2.6.4-2.6,2.2s1.5,2.3,2.6,2.4v-4.6Z"/>
        <path class="cls-5" d="M18.1,192.3c-.9,0-1.6,0-2.4,0v-1.4h1.4c-.8-.6-1.6-1.6-1.6-3s.7-3.1,3.7-3.1h5.2v1.6h-5c-1.4,0-2.6.5-2.6,2s.7,1.9,1.6,2.1c.2,0,.5.1.7.1h5.2v1.6h-6.4Z"/>
        <path class="cls-5" d="M22.8,182.6c.3-.5.6-1.3.6-2.1,0-1.2-.6-1.7-1.3-1.7s-1.2.5-1.6,1.6c-.6,1.6-1.4,2.3-2.5,2.3s-2.6-1.1-2.6-3,.3-1.7.5-2.1l1.2.4c-.2.3-.5,1-.5,1.8s.5,1.5,1.2,1.5,1-.5,1.5-1.7c.6-1.5,1.3-2.3,2.6-2.3s2.6,1.2,2.6,3.3-.2,1.8-.6,2.4l-1.2-.4Z"/>
        <path class="cls-5" d="M24.4,169.3l-12.1,4v-1.7l6-1.9c1.6-.5,3.1-1,4.5-1.3h0c-1.4-.4-2.9-.9-4.5-1.4l-6-2.1v-1.7l12.1,4.3v1.7Z"/>
        <path class="cls-5" d="M20.4,161.7c2.1,0,3-1.4,3-3s-.2-1.8-.5-2.4l1.1-.3c.3.6.5,1.5.5,2.9,0,2.7-1.8,4.3-4.4,4.3s-4.7-1.5-4.7-4.1,2.5-3.6,4.1-3.6.6,0,.7,0v6.1ZM19.2,157.1c-1,0-2.6.4-2.6,2.2s1.5,2.3,2.6,2.4v-4.6Z"/>
        <path class="cls-5" d="M22.8,153.8c.3-.5.6-1.3.6-2.1,0-1.2-.6-1.7-1.3-1.7s-1.2.5-1.6,1.6c-.6,1.6-1.4,2.3-2.5,2.3s-2.6-1.1-2.6-3,.3-1.7.5-2.1l1.2.4c-.2.3-.5,1-.5,1.8s.5,1.5,1.2,1.5,1-.5,1.5-1.7c.6-1.5,1.3-2.3,2.6-2.3s2.6,1.2,2.6,3.3-.2,1.8-.6,2.4l-1.2-.4Z"/>
        <path class="cls-5" d="M13.2,144.5h2.5v-2.3h1.2v2.3h4.7c1.1,0,1.7-.3,1.7-1.2s0-.7-.1-.9h1.2c.1.2.2.7.2,1.3s-.2,1.3-.7,1.7c-.5.5-1.2.6-2.3.6h-4.8v1.4h-1.2v-1.4h-2.1l-.4-1.5Z"/>
        <path class="cls-5" d="M20.4,139.7c2.1,0,3-1.4,3-3s-.2-1.8-.5-2.4l1.1-.3c.3.6.5,1.5.5,2.9,0,2.7-1.8,4.3-4.4,4.3s-4.7-1.5-4.7-4.1,2.5-3.6,4.1-3.6.6,0,.7,0v6.1ZM19.2,135.1c-1,0-2.6.4-2.6,2.2s1.5,2.3,2.6,2.4v-4.6Z"/>
        <path class="cls-5" d="M11.7,124.1h10.5c.8,0,1.7,0,2.3,0v1.4h-1.5c1,.6,1.7,1.7,1.7,3.1,0,2.1-1.8,3.7-4.4,3.7-2.9,0-4.7-1.8-4.7-3.9s.6-2.2,1.3-2.6h0s-5.2,0-5.2,0v-1.6ZM19.3,125.6c-.2,0-.5,0-.7,0-1,.2-1.8,1.1-1.8,2.3s1.4,2.6,3.4,2.6,3.2-.9,3.2-2.6-.7-2-1.9-2.3c-.2,0-.4,0-.7,0h-1.5Z"/>
      </g>
      <g id="dnXRUO.tif">
        <image id="Layer_0" width="465" height="230" transform="translate(715.7 -236.9)" xlink:href="mission-locked-token-vesting (1)-1.png"/>
      </g>
    </g>
  </g>
</svg>