<svg width="292" height="308" viewBox="0 0 292 308" fill="none" xmlns="http://www.w3.org/2000/svg">
<path fill-rule="evenodd" clip-rule="evenodd" d="M201.846 27.3108C297.623 66.9506 322.956 191.643 249.267 265.27C192.235 322.243 99.7777 322.243 42.746 265.27C-30.9727 191.628 -5.61017 66.9657 90.1668 27.3108C95.523 25.0952 101.392 28.9989 101.392 34.8017V76.9435C101.392 79.8675 100.004 82.2941 97.5296 83.8616C46.7292 115.664 39.0948 185.448 80.8878 227.198C138.749 284.985 238.117 243.853 238.117 162.116C238.117 129.681 221.491 100.742 194.468 83.8164C192.009 82.2941 190.621 79.8223 190.621 76.9284V34.7866C190.621 28.9989 196.49 25.0801 201.846 27.3108ZM127.147 0C122.681 0 119.045 3.64747 119.045 8.09376V136.162C119.045 140.623 122.696 144.256 127.147 144.256H164.851C169.317 144.256 172.953 140.608 172.953 136.162V8.10883C172.953 3.64747 169.317 0.0150722 164.866 0.0150722H127.147V0ZM156.749 16.2177H135.264V128.068H156.749V16.2177ZM254.05 90.1467C242.131 72.3163 225.896 57.6059 206.855 47.4924V72.5876C262.937 110.705 270.797 190.467 222.607 238.608C180.301 280.87 111.712 280.87 69.4061 238.608C21.2007 190.467 29.0765 110.705 85.1577 72.5876V47.4924C8.34598 88.2778 -7.67722 191.959 54.2127 253.8C104.908 304.443 187.106 304.443 237.785 253.8C281.479 210.151 288.405 141.513 254.035 90.1467H254.05Z" fill="white"/>
</svg>
