<svg width="91" height="91" viewBox="0 0 91 91" fill="none" xmlns="http://www.w3.org/2000/svg">
<path d="M45.5009 91.0018C70.6303 91.0018 91.0018 70.6303 91.0018 45.5009C91.0018 20.3714 70.6303 0 45.5009 0C20.3714 0 0 20.3714 0 45.5009C0 70.6303 20.3714 91.0018 45.5009 91.0018Z" fill="#010618"/>
<path d="M45.5061 48.4364C43.4808 48.4364 42.3337 49.3822 42.3337 51.2722V53.9726H34.2324V51.0691C34.2324 45.0609 37.8787 41.2115 45.5061 41.2115H53.1407C56.9205 41.2115 59.352 38.9831 59.352 35.271C59.352 31.5588 56.9882 29.2627 53.1407 29.2627H29.6421V20.6895H53.1407C62.8629 20.6895 68.1283 26.5623 68.1283 34.4623C68.1283 42.3622 62.5244 48.4382 53.276 48.4382H45.5079L45.5061 48.4364ZM33.8263 65.6524C33.8263 63.0197 35.8516 61.1297 38.4166 61.1297C41.1171 61.1297 43.007 63.0197 43.007 65.6524C43.007 68.4205 41.1171 70.3104 38.4166 70.3104C35.7162 70.3104 33.8263 68.4205 33.8263 65.6524Z" fill="white"/>
</svg>
