<svg width="275" height="274" viewBox="0 0 275 274" fill="none" xmlns="http://www.w3.org/2000/svg">
<path fill-rule="evenodd" clip-rule="evenodd" d="M226.396 48.0394C221.076 48.2669 215.792 48.7037 210.577 49.3846C204.368 50.2226 198.211 51.3571 192.141 52.8229C195.838 58.8221 200.197 64.3677 205.15 69.3551C210.085 74.2901 215.561 78.6496 221.525 82.3113C223.026 76.1371 224.195 69.8757 225.051 63.5794C225.749 58.4168 226.203 53.2543 226.413 48.0569L226.396 48.0394ZM209.706 42.7572C216.368 41.8842 223.066 41.3601 229.78 41.237L229.92 41.237C230.809 41.2543 231.629 41.6205 232.274 42.2657C232.902 42.8935 233.216 43.7655 233.198 44.655C233.058 51.2825 232.551 57.8927 231.661 64.468C230.735 71.1828 229.479 77.8454 227.873 84.4382C225.535 93.9962 221.592 103.101 216.254 111.368C210.986 119.532 204.34 126.701 196.613 132.579L185.99 140.237L185.167 161.463L185.167 161.707C184.975 166.922 183.422 171.997 180.701 176.428C178.014 180.823 174.281 184.451 169.833 187.051L169.624 187.19L140.827 203.676C139.833 204.251 138.612 204.252 137.601 203.729C136.572 203.188 135.909 202.177 135.822 201.008L133.716 171.481L130.664 168.429L125.255 184.022C124.924 185.191 124.017 186.098 122.865 186.412C121.714 186.726 120.476 186.395 119.621 185.54L89.2612 155.18C88.459 154.378 88.1104 153.192 88.3547 152.076C88.599 150.959 89.4014 150.052 90.4828 149.668L106.215 143.981L103.129 140.894L74.0376 139.014C73.4795 139.014 72.904 138.858 72.4157 138.579C70.7938 137.654 70.2185 135.614 71.1257 134.009L87.4194 104.951C89.9838 100.433 93.6992 96.6479 98.1645 93.9963C102.699 91.3098 107.827 89.8091 113.094 89.5991L134.407 88.7939L142.205 78.2062L142.24 78.1714C148.188 70.3396 155.392 63.5541 163.573 58.094C171.631 52.7211 180.561 48.7783 189.962 46.4573C196.485 44.8519 203.095 43.6127 209.758 42.7397L209.706 42.7572ZM185.461 54.7249C179.025 56.9059 172.903 59.924 167.269 63.6746C159.717 68.716 153.071 74.9782 147.593 82.1995L126.957 110.299L108.989 137.161L137.414 165.585L164.432 147.496L192.55 127.225C199.649 121.8 205.771 115.189 210.621 107.689C214.407 101.846 217.442 95.5669 219.606 88.974C212.612 84.8415 206.143 79.8369 200.388 74.0822C194.598 68.2926 189.594 61.7879 185.444 54.7075L185.461 54.7249ZM121.499 106.376L129.331 95.7186L113.32 96.3487C109.187 96.5062 105.158 97.6753 101.617 99.7862C98.1285 101.845 95.2504 104.758 93.2442 108.264L79.5672 132.648L102.885 134.162L121.499 106.376ZM125.38 163.145L111.447 149.212L97.7725 154.167L120.582 176.977L125.38 163.145ZM168.094 153.146L140.448 171.654L142.119 195.164L166.294 181.313L166.503 181.208C169.992 179.185 172.905 176.342 175.015 172.905C177.144 169.452 178.33 165.51 178.47 161.464L178.488 161.202L179.118 145.191L168.373 152.937C168.373 152.937 168.216 153.094 168.112 153.128L168.094 153.146ZM180.884 114.234C185.785 109.332 186.554 101.658 182.682 95.9031C178.846 90.1482 171.452 87.9168 165.068 90.5686C158.649 93.2205 155.021 100.023 156.38 106.825C157.722 113.609 163.704 118.509 170.61 118.508C174.465 118.525 178.162 116.99 180.884 114.269V114.234ZM191.855 103.96C191.857 93.8089 184.707 85.0895 174.749 83.1201C164.808 81.1332 154.866 86.4715 150.975 95.8377C147.102 105.187 150.379 115.999 158.802 121.632C167.226 127.264 178.458 126.146 185.627 118.977C189.621 114.982 191.872 109.593 191.855 103.96Z" fill="white"/>
<path d="M42.7013 232.083L63.9336 182.286C66.76 175.659 72.6731 170.896 79.7368 169.518C86.818 168.156 94.0905 170.37 99.1825 175.462C104.275 180.554 106.489 187.792 105.145 194.856C103.801 201.919 99.0385 207.832 92.4281 210.676L42.7013 232.083ZM93.9495 180.695C90.549 177.295 85.8751 175.865 81.1659 176.773C76.4568 177.68 72.6543 180.75 70.7526 185.198L56.778 217.971L89.4989 203.875C93.9117 201.973 96.9644 198.188 97.8545 193.461C98.7621 188.752 97.3326 184.078 93.9321 180.678L93.9495 180.695Z" fill="white"/>
</svg>
