<svg width="282" height="282" viewBox="0 0 282 282" fill="none" xmlns="http://www.w3.org/2000/svg">
<path d="M132.106 162.748L178.886 115.954V154.813C178.886 159.675 182.832 163.622 187.695 163.622C192.557 163.622 196.504 159.675 196.504 154.813V94.2914C196.504 89.4288 192.557 85.4824 187.695 85.4824H127.963C123.1 85.4824 119.154 89.4288 119.154 94.2914C119.154 99.154 123.1 103.1 127.963 103.1H166.821L119.647 150.288C119.478 150.457 119.365 150.641 119.224 150.81C115.687 149.048 111.726 148.033 107.526 148.033H26.441C11.8534 148.033 0 159.872 0 174.46V255.531C0 270.119 11.8534 281.972 26.441 281.972H107.512C122.099 281.972 133.953 270.119 133.953 255.531V174.46C133.953 170.457 133.037 166.68 131.43 163.283C131.655 163.1 131.895 162.945 132.106 162.734V162.748ZM116.321 255.545C116.321 260.408 112.36 264.354 107.512 264.354H26.441C21.5785 264.354 17.632 260.393 17.632 255.545V174.474C17.632 169.612 21.5926 165.665 26.441 165.665H107.512C112.374 165.665 116.321 169.626 116.321 174.474V255.545Z" fill="white"/>
<path d="M237.927 0H44.0731C19.7744 0 0 19.7744 0 44.059V116.321C0 121.183 3.94642 125.13 8.80898 125.13C13.6715 125.13 17.618 121.183 17.618 116.321V44.059C17.618 29.4713 29.4713 17.618 44.059 17.618H237.927C252.515 17.618 264.368 29.4713 264.368 44.059V237.927C264.368 252.515 252.515 264.368 237.927 264.368H165.665C160.803 264.368 156.856 268.314 156.856 273.177C156.856 278.039 160.803 281.986 165.665 281.986H237.927C262.226 281.986 281.986 262.211 281.986 237.927V44.059C281.986 19.7603 262.211 0 237.913 0H237.927Z" fill="white"/>
</svg>
