<svg width="314" height="346" viewBox="0 0 314 346" fill="none" xmlns="http://www.w3.org/2000/svg">
<path d="M57.6808 74.1511H131.815C136.369 74.1511 140.05 70.453 140.05 65.9159C140.05 61.3788 136.352 57.6807 131.815 57.6807H57.6808C53.1266 57.6807 49.4456 61.3788 49.4456 65.9159C49.4456 70.453 53.1437 74.1511 57.6808 74.1511Z" fill="white"/>
<path d="M57.6808 123.58H198.039C202.594 123.58 206.275 119.882 206.275 115.345C206.275 110.808 202.577 107.109 198.039 107.109H57.6808C53.1266 107.109 49.4456 110.808 49.4456 115.345C49.4456 119.882 53.1437 123.58 57.6808 123.58Z" fill="white"/>
<path d="M57.6808 173.009H174.977C179.532 173.009 183.213 169.31 183.213 164.773C183.213 160.236 179.514 156.538 174.977 156.538H57.6808C53.1266 156.538 49.4456 160.236 49.4456 164.773C49.4456 169.31 53.1437 173.009 57.6808 173.009Z" fill="white"/>
<path d="M152.001 205.95H57.6808C53.1266 205.95 49.4456 209.648 49.4456 214.185C49.4456 218.722 53.1437 222.42 57.6808 222.42H152.001C156.555 222.42 160.236 218.722 160.236 214.185C160.236 209.648 156.538 205.95 152.001 205.95Z" fill="white"/>
<path d="M143.013 280.084H127.98L120.858 269.417C117.828 264.743 112.691 261.97 107.11 261.97C101.528 261.97 96.4091 264.743 93.4129 269.349L92.4884 270.736L89.4579 263.151C86.924 256.868 80.9145 252.827 74.1688 252.827C67.4231 252.827 61.4136 256.885 58.8626 263.185L50.0452 285.254C48.3674 289.483 50.4219 294.277 54.6508 295.955C55.6438 296.349 56.6882 296.554 57.6983 296.554C60.9685 296.554 64.0674 294.603 65.3515 291.367L74.186 269.298L80.127 284.159C81.822 288.353 85.6742 291.281 90.1599 291.778C94.697 292.308 99.1313 290.271 101.854 286.367L107.11 278.475L115.516 291.076C117.81 294.5 121.663 296.572 125.772 296.572H143.013C147.567 296.572 151.248 292.873 151.248 288.336C151.248 283.799 147.55 280.101 143.013 280.101V280.084Z" fill="white"/>
<path d="M312.032 54.3595C310.525 50.2162 307.495 46.9289 303.523 45.0627L288.593 38.0944C284.604 36.2282 280.135 36.0399 275.992 37.5466C271.849 39.0532 268.561 42.0836 266.695 46.0557L259.402 61.6873C257.467 57.5269 254.83 53.726 251.577 50.4387L213.192 12.0533C205.539 4.40013 194.924 0 184.052 0H41.1933C18.4908 0.0171211 0 18.5079 0 41.2104V304.807C0 327.509 18.4908 346 41.1933 346H222.42C245.123 346 263.613 327.509 263.613 304.807V169.619L311.484 66.9606C313.35 62.9713 313.538 58.5028 312.032 54.3595ZM281.608 53.0069L296.537 59.9752L289.569 74.9048L274.639 67.9365L281.608 53.0069ZM203.69 259.111C202.08 262.569 199.632 265.651 196.653 268.031L186.791 275.855L186.449 263.271C186.346 259.453 187.133 255.618 188.743 252.159L267.688 82.8831L282.618 89.8514L203.672 259.128H203.69V259.111ZM235.483 57.681H205.95V28.1471L235.483 57.681ZM247.143 304.79C247.143 318.418 236.066 329.495 222.437 329.495H41.2105C27.5821 329.495 16.5047 318.418 16.5047 304.79V41.1933C16.5047 27.565 27.5821 16.4876 41.2105 16.4876H184.035C185.866 16.4876 187.681 16.7444 189.479 17.1553V57.681C189.479 66.7551 196.875 74.1514 205.95 74.1514H246.475C246.886 75.932 247.143 77.7297 247.143 79.5959V87.9852L173.83 245.191C171.142 250.961 169.807 257.364 169.995 263.733L170.56 284.552C170.68 289.261 173.419 293.421 177.683 295.407C179.36 296.195 181.141 296.571 182.922 296.571C185.644 296.571 188.349 295.664 190.592 293.883L206.908 280.94C211.891 276.985 215.931 271.866 218.636 266.079L247.143 204.939V304.807V304.79Z" fill="white"/>
</svg>
