<?xml version="1.0" encoding="UTF-8"?>
<svg id="Layer_1" xmlns="http://www.w3.org/2000/svg" version="1.1" viewBox="0 0 988.2 988.2">
  <!-- Generator: Adobe Illustrator 29.5.0, SVG Export Plug-In . SVG Version: 2.1.0 Build 137)  -->
  <defs>
    <style>
      .st0 {
        fill: #fff;
        fill-rule: evenodd;
      }
    </style>
  </defs>
  <path class="st0" d="M578.4,0c-8.1.3-15.8,3.2-21.9,8.5-6.1,5.2-10.3,12.4-11.9,20.3-1.8,9.3.1,18.9,5.4,26.7,5.3,7.8,13.4,13.3,22.7,15.1,83.1,16.4,159.4,57.1,219.3,117,136.4,136.4,164.6,346.5,68.9,514-4.7,8.2-6,17.9-3.5,27s8.5,16.9,16.6,21.6c8.2,4.7,17.9,6,27,3.5,9.1-2.5,16.9-8.5,21.6-16.6,111.4-195.1,78.3-441.1-80.5-600C772.4,67.3,683.4,19.9,586.4.7h0c-2.6-.5-5.3-.8-8-.7h0ZM370.9,6h0c-2.1.1-4.1.5-6.1,1-86.1,22.3-164.8,67.2-227.7,130.1C74.3,200,29.3,278.7,7,364.8h0c-2.4,9.1-1,18.8,3.8,27,4.8,8.1,12.6,14.1,21.7,16.4,9.1,2.4,18.9,1,27-3.8,8.1-4.8,14-12.6,16.4-21.8,19.1-73.8,57.8-141.1,111.7-195.1,53.9-53.9,121.3-92.4,195.1-111.5h0c9.1-2.4,16.9-8.3,21.7-16.4,4.8-8.1,6.1-17.8,3.8-26.9-2.1-8.1-6.9-15.3-13.7-20.2-6.8-4.9-15.1-7.2-23.5-6.6h0ZM494.1,162.7c-182.7,0-331.5,148.9-331.5,331.5s148.9,331.5,331.5,331.5,331.5-148.9,331.5-331.5-148.9-331.5-331.5-331.5h0ZM494.1,233.9c144.2,0,260.3,116.1,260.3,260.3s-116.1,260.2-260.3,260.2-260.3-116-260.3-260.2,116.1-260.3,260.3-260.3h0ZM36.4,544.3c-2.6,0-5.3.1-7.9.6-9.2,1.9-17.4,7.3-22.6,15.1-5.2,7.8-7.1,17.4-5.3,26.7,19.2,96.9,66.6,185.7,136.5,255.6,158.8,158.8,404.6,191.8,599.7,80.4,8.2-4.7,14.1-12.4,16.6-21.4,2.5-9.1,1.3-18.7-3.3-26.9-4.7-8.2-12.4-14.3-21.5-16.8-9.1-2.5-18.9-1.3-27.1,3.4-167.5,95.6-377.6,67.5-514-68.9-59.9-59.9-100.8-136.2-117.2-219.3h0c-1.6-7.9-5.8-15-12-20.2-6.2-5.2-13.9-8.1-22-8.3h0Z"/>
</svg>