<svg width="27" height="27" viewBox="0 0 27 27" fill="none" xmlns="http://www.w3.org/2000/svg">
<path d="M21.5234 9.95353L20.6443 10.8326C21.2682 12.1087 21.6085 13.5549 21.6085 15.0863C21.6085 20.4742 17.2414 24.8413 11.8535 24.8413C6.52225 24.8129 2.12682 20.4458 2.12682 15.0579C2.12682 9.66995 6.49389 5.30288 11.8818 5.30288C13.4131 5.30288 14.831 5.64317 16.1071 6.26704L16.9862 5.38796V4.31037C15.4265 3.57307 13.6967 3.14771 11.8818 3.14771C5.33123 3.14771 0 8.47893 0 15.0295C0 21.5801 5.33123 26.9114 11.8818 26.9114C18.4324 26.9114 23.7637 21.5801 23.7637 15.0295C23.7637 13.2147 23.3383 11.4848 22.601 9.92517H21.5234V9.95353Z" fill="white"/>
<path d="M11.8818 9.69833C12.137 9.69833 12.3922 9.72669 12.6474 9.75505L14.4056 7.99687C13.6116 7.68494 12.7892 7.54315 11.8818 7.54315C7.74158 7.57151 4.39539 10.9177 4.39539 15.0579C4.39539 19.1981 7.74158 22.5727 11.9102 22.5727C16.0787 22.5727 19.4249 19.1981 19.4249 15.0579C19.4249 14.1788 19.2548 13.3281 18.9712 12.5341L17.213 14.2923C17.2697 14.5475 17.2697 14.8027 17.2697 15.0579C17.2697 18.0071 14.8593 20.4175 11.9102 20.4175C8.96096 20.4175 6.52221 18.0071 6.52221 15.0579C6.52221 12.1087 8.9326 9.69833 11.8818 9.69833Z" fill="white"/>
<path d="M26.8829 4.02678C26.7695 3.71485 26.4575 3.5447 26.1456 3.5447H23.4233V0.794013C23.4233 0.482079 23.2248 0.170146 22.9412 0.0567152C22.6293 -0.0567152 22.289 0 22.0621 0.226861L19.3681 2.92083C19.2263 3.06262 19.1413 3.26112 19.1413 3.48799V6.29539L13.1862 12.2221C12.7892 12.0236 12.3354 11.9102 11.8817 11.9102C10.1519 11.9102 8.76239 13.2997 8.76239 15.0295C8.76239 16.7593 10.1519 18.1489 11.8817 18.1489C13.6115 18.1489 15.0011 16.7593 15.0011 15.0295C15.0011 14.5475 14.8876 14.1221 14.6891 13.7251L20.6442 7.79834H23.4516C23.6501 7.79834 23.877 7.71327 24.0188 7.57148L26.7128 4.87751C26.9396 4.65065 26.9963 4.31036 26.8829 4.02678Z" fill="white"/>
</svg>
