<svg width="77" height="77" viewBox="0 0 77 77" fill="none" xmlns="http://www.w3.org/2000/svg">
<path d="M38.5 76.5645C17.2717 76.5645 0 59.3905 0 38.2823C0 17.174 17.2717 0 38.5 0C59.7283 0 77 17.174 77 38.2823C77 59.3905 59.7283 76.5645 38.5 76.5645ZM38.5 5.88958C20.5383 5.88958 5.92308 20.4221 5.92308 38.2823C5.92308 56.1424 20.5383 70.675 38.5 70.675C56.4617 70.675 71.0769 56.1424 71.0769 38.2823C71.0769 20.4221 56.4617 5.88958 38.5 5.88958Z" fill="white"/>
<path d="M63.2882 31.524C61.9733 31.524 60.7235 30.7466 60.1934 29.4626C56.5625 20.696 48.054 15.0332 38.5208 15.0332C29.6214 15.0332 21.6016 19.9451 17.5887 27.8489C16.7565 29.4891 14.7426 30.1488 13.0931 29.3213C11.4435 28.4938 10.7801 26.4913 11.6123 24.8511C16.7713 14.6916 27.0804 8.37793 38.5208 8.37793C50.7786 8.37793 61.7156 15.6604 66.383 26.9272C67.0878 28.6263 66.2734 30.5728 64.5646 31.2707C64.147 31.4415 63.7146 31.524 63.2911 31.524H63.2882Z" fill="white"/>
<path d="M38.5179 68.2838C36.6699 68.2838 35.1714 66.7937 35.1714 64.9561C35.1714 63.1186 36.6699 61.6285 38.5179 61.6285C47.5565 61.6285 55.8844 56.3691 59.7344 48.2297C60.5222 46.5659 62.5153 45.8504 64.1885 46.6337C65.8618 47.417 66.5815 49.3988 65.7937 51.0626C60.845 61.5255 50.139 68.2838 38.5179 68.2838Z" fill="white"/>
<path d="M44.0143 36.7451H41.3638V31.9539H47.734C48.4626 31.9539 49.5258 31.6594 50.0026 31.1853C50.4794 30.7112 50.7755 30.0545 50.7755 29.3272C50.7755 27.8783 49.5939 26.7004 48.1338 26.7004H41.3638V22.2155C41.3638 20.8226 40.2295 19.6948 38.8287 19.6948C37.4279 19.6948 36.2936 20.8226 36.2936 22.2155V26.7004H32.8997C27.7881 26.7004 24.9983 29.7277 24.9983 33.7591C24.9983 37.7905 27.9983 40.8619 32.8168 40.8619H36.2936V45.9476H28.0191C27.2787 45.9476 26.6064 46.2479 26.1207 46.7279C25.635 47.2109 25.3359 47.8793 25.3359 48.6155C25.3359 50.0909 26.5383 51.2835 28.0191 51.2835H36.2936V54.3432C36.2936 55.736 37.4279 56.8639 38.8287 56.8639C40.2295 56.8639 41.3638 55.736 41.3638 54.3432V51.2835H44.0143C49.4251 51.2835 52.0016 48.1297 52.0016 43.9274C52.0016 38.9684 49.1704 36.7422 44.0143 36.7422V36.7451ZM32.8997 36.7451C31.4633 36.7451 30.4919 35.8617 30.4919 34.3068C30.4919 32.8374 31.4219 31.9539 32.8997 31.9539H36.2936V36.7451H32.8997ZM44.0143 45.9505H41.3638V40.8649H44.0143C45.9156 40.8649 46.9729 41.7483 46.9729 43.471C46.9729 45.0258 45.9156 45.9505 44.0143 45.9505Z" fill="white"/>
</svg>
