<svg width="28" height="28" viewBox="0 0 28 28" fill="none" xmlns="http://www.w3.org/2000/svg">
<path d="M13.9504 27.9036C6.25959 27.9036 0 21.644 0 13.9504C0 6.2567 6.25959 0 13.9504 0C21.6411 0 27.9007 6.25959 27.9007 13.9504C27.9007 21.6411 21.6411 27.9007 13.9504 27.9007V27.9036ZM13.9504 1.73476C7.21371 1.73476 1.73476 7.21371 1.73476 13.9504C1.73476 20.687 7.21371 26.166 13.9504 26.166C20.687 26.166 26.166 20.6841 26.166 13.9504C26.166 7.2166 20.687 1.73476 13.9504 1.73476Z" fill="white"/>
<path d="M13.9503 24.995C7.86125 24.995 2.90851 20.0423 2.90851 13.9504C2.90851 7.85848 7.86125 2.90863 13.9503 2.90863C20.0393 2.90863 24.9949 7.86137 24.9949 13.9533C24.9949 20.0452 20.0422 24.9979 13.9503 24.9979V24.995ZM13.9503 4.64339C8.81826 4.64339 4.64327 8.81838 4.64327 13.9533C4.64327 19.0882 8.81826 23.2631 13.9503 23.2631C19.0823 23.2631 23.2601 19.0882 23.2601 13.9533C23.2601 8.81838 19.0851 4.64339 13.9503 4.64339Z" fill="white"/>
<path d="M9.11907 15.7372C8.85886 15.7372 8.59864 15.6186 8.42806 15.396C8.13893 15.0143 8.21121 14.4708 8.59286 14.1816L15.5868 8.85305C15.9685 8.56392 16.512 8.6362 16.8041 9.01785C17.0932 9.3995 17.0209 9.94305 16.6393 10.2322L9.64528 15.5608C9.48915 15.6793 9.30411 15.7372 9.11907 15.7372Z" fill="white"/>
<path d="M12.2591 17.5702C11.9989 17.5702 11.7415 17.4546 11.571 17.232C11.2789 16.8532 11.3512 16.3068 11.73 16.0147L16.5035 12.3457C16.8822 12.0537 17.4287 12.126 17.7207 12.5048C18.0127 12.8835 17.9404 13.43 17.5617 13.722L12.7882 17.391C12.632 17.5124 12.4441 17.5702 12.2591 17.5702Z" fill="white"/>
</svg>
