<?xml version="1.0" ?><!DOCTYPE svg  PUBLIC '-//W3C//DTD SVG 1.1//EN'  'http://www.w3.org/Graphics/SVG/1.1/DTD/svg11.dtd'><svg enable-background="new 0 0 64 64" height="64px" id="Layer_1" version="1.1" viewBox="0 0 64 64" width="64px" xml:space="preserve" xmlns="http://www.w3.org/2000/svg" xmlns:xlink="http://www.w3.org/1999/xlink"><g><g><g><g><g><g><path clip-rule="evenodd" d="M49.6,27c-1.5,0-2.7,0.4-3.7,0.6l-0.3,2.3        c0.5-0.2,1.9-0.6,3.1-0.7c1.2,0,1.9,0.2,1.7,1.3c-3.6,0-6,0.7-6.5,3.1c-0.7,4,3.7,4.1,5.4,2.3L49.1,37h3.2l1.4-6.5        C54.2,27.8,51.8,26.9,49.6,27z M49.8,33.7c-0.2,0.8-0.9,1.1-1.7,1.2c-0.7,0-1.3-0.4-0.9-1.2c0.4-0.6,1.3-0.6,2-0.6        c0.2,0,0.5,0,0.8,0C49.9,33,49.8,33.4,49.8,33.7z" fill="#32A6CE" fill-rule="evenodd"/></g></g><g><g><path clip-rule="evenodd" d="M45.6,29.9c0.5-0.2,1.9-0.6,3.1-0.7c1.2,0,1.9,0.2,1.7,1.3        c-3.6,0-6,0.7-6.5,3.1c-0.7,4,3.7,4.1,5.4,2.3L49.1,37h3.2l1.4-6.5c0.6-2.7-1.9-3.4-4.1-3.4 M49.8,33.7        c-0.2,0.8-0.9,1.1-1.7,1.2c-0.7,0-1.3-0.4-0.9-1.2c0.4-0.6,1.3-0.6,2-0.6c0.2,0,0.5,0,0.8,0C49.9,33,49.8,33.4,49.8,33.7z" fill="#1A80AD" fill-rule="evenodd"/></g></g><g><g><polygon clip-rule="evenodd" fill="#32A6CE" fill-rule="evenodd" points="56.4,24 53.8,37 57,37 59.7,24 56.4,24 56.4,24               "/></g></g><g><g><polygon clip-rule="evenodd" fill="#1A80AD" fill-rule="evenodd" points="58.7,24 53.8,37 57,37 59.7,24 56.4,24 56.4,24               "/></g></g><g><g><path clip-rule="evenodd" d="M41.5,24h-5.9l-2.6,13h3.5l0.9-4h2.5c2.4,0,4.4-1.4,4.9-3.9        C45.3,26.2,43.2,24,41.5,24z M41.4,28.5c-0.2,0.9-1.1,1.5-2,1.5h-1.6l0.7-3h1.7C41.1,27,41.6,27.6,41.4,28.5z" fill="#32A6CE" fill-rule="evenodd"/></g></g><g><g><path clip-rule="evenodd" d="M41.5,24h-4l-4.6,13h3.5l0.9-4h2.5c2.4,0,4.4-1.4,4.9-3.9        C45.3,26.2,43.2,24,41.5,24z M41.4,28.5c-0.2,0.9-1.1,1.5-2,1.5h-1.6l0.7-3h1.7C41.1,27,41.6,27.6,41.4,28.5z" fill="#1A80AD" fill-rule="evenodd"/></g></g></g><g><g><g><path clip-rule="evenodd" d="M18.4,27c-1.5,0-2.7,0.4-3.6,0.6l-0.3,2.3        c0.4-0.2,1.9-0.6,3.1-0.7c1.2,0,1.9,0.2,1.7,1.3c-3.5,0-5.9,0.7-6.4,3.1c-0.7,4,3.6,4.1,5.3,2.3L18,37h3.2l1.4-6.5        C23.1,27.8,20.6,26.9,18.4,27z M18.7,33.7c-0.2,0.8-0.9,1.1-1.7,1.2c-0.7,0-1.3-0.4-0.8-1.2c0.4-0.6,1.3-0.6,1.9-0.6        c0.3,0,0.5,0,0.8,0C18.8,33,18.7,33.4,18.7,33.7z" fill="#21789E" fill-rule="evenodd"/></g></g><g><g><path clip-rule="evenodd" d="M14.6,29.9c0.4-0.2,1.9-0.6,3.1-0.7c1.2,0,1.9,0.2,1.7,1.3        c-3.5,0-5.9,0.7-6.4,3.1c-0.7,4,3.6,4.1,5.3,2.3L18,37h3.2l1.4-6.5c0.6-2.7-1.9-3.4-4.1-3.4 M18.7,33.7        c-0.2,0.8-0.9,1.1-1.7,1.2c-0.7,0-1.3-0.4-0.8-1.2c0.4-0.6,1.3-0.6,1.9-0.6c0.3,0,0.5,0,0.8,0C18.8,33,18.7,33.4,18.7,33.7z" fill="#1A5B80" fill-rule="evenodd"/></g></g><g><g><polygon clip-rule="evenodd" fill="#21789E" fill-rule="evenodd" points="23.9,27 27.1,27 27.6,32.6 30.8,27 34.1,27 26.5,41         22.9,41 25.2,36.8 23.9,27 23.9,27       "/></g></g><g><g><path clip-rule="evenodd" d="M23.9,27.2" fill="#1A5B80" fill-rule="evenodd"/></g><g><polyline clip-rule="evenodd" fill="#1A5B80" fill-rule="evenodd" points="27.1,27.2 27.6,32.7 30.8,27 34.1,27 26.5,41         22.9,41 25.2,36.9       "/></g></g><g><g><path clip-rule="evenodd" d="M10.5,24h-6L1.9,37h3.5l0.9-4h2.5c2.4,0,4.4-1.4,4.9-3.9        C14.3,26.2,12.2,24,10.5,24z M10.4,28.5c-0.2,0.9-1.1,1.5-2,1.5H6.8l0.7-3h1.7C10.1,27,10.6,27.6,10.4,28.5z" fill="#21789E" fill-rule="evenodd"/></g></g><g><g><path clip-rule="evenodd" d="M10.5,24H7.8L1.9,37h3.5l0.9-4h2.5c2.4,0,4.4-1.4,4.9-3.9        C14.3,26.2,12.2,24,10.5,24z M10.4,28.5c-0.2,0.9-1.1,1.5-2,1.5H6.8l0.7-3h1.7C10.1,27,10.6,27.6,10.4,28.5z" fill="#1A5B80" fill-rule="evenodd"/></g></g></g></g><g><g><path clip-rule="evenodd" d="M17.8,30.5c-2.7,0.2-4.5,1-4.9,3c-0.7,4,3.6,4.1,5.3,2.3L18,37      h3.2l0.5-2.4L17.8,30.5z M18.7,33.7c-0.2,0.8-0.9,1.1-1.7,1.2c-0.7,0-1.3-0.4-0.8-1.2c0.4-0.6,1.3-0.6,1.9-0.6      c0.3,0,0.5,0,0.8,0C18.8,33,18.7,33.4,18.7,33.7z" fill="#06435E" fill-rule="evenodd"/></g></g><g><polygon clip-rule="evenodd" fill="#06435E" fill-rule="evenodd" points="27.8,32.5 27.6,32.8 29.7,34.8 34.1,27 30.8,27    "/></g><g><polygon clip-rule="evenodd" fill="#06435E" fill-rule="evenodd" points="5.4,37 6.3,33 2.2,37    "/></g><g><polygon clip-rule="evenodd" fill="#2273AA" fill-rule="evenodd" points="36.4,37 37.3,32.8 37.3,32.9 33.2,37    "/></g><g><g><path clip-rule="evenodd" d="M48.9,30.5c-2.7,0.2-4.5,1-4.9,3c-0.7,4,3.7,4.1,5.4,2.3      L49.1,37h3.2l0.5-2.4L48.9,30.5z M49.8,33.7c-0.2,0.8-0.9,1.1-1.7,1.2c-0.7,0-1.3-0.4-0.9-1.2c0.4-0.6,1.3-0.6,2-0.6      c0.2,0,0.5,0,0.8,0C49.9,33,49.8,33.4,49.8,33.7z" fill="#2273AA" fill-rule="evenodd"/></g></g><g><polygon clip-rule="evenodd" fill="#2273AA" fill-rule="evenodd" points="56.1,31.1 53.8,37 57,37 57.9,33    "/></g></g><g><g><g><path d="M60.4,26.1v-1.4h-0.5v-0.2h1.3v0.2h-0.5v1.4H60.4z" fill="#32A6CE"/></g></g><g><g><path d="M61.4,26.1v-1.6h0.3l0.4,1.1c0,0.1,0.1,0.2,0.1,0.2c0-0.1,0-0.1,0.1-0.3l0.4-1.1h0.3v1.6h-0.2v-1.4      l-0.5,1.4H62l-0.5-1.4v1.4H61.4z" fill="#32A6CE"/></g></g></g></g></svg>