<svg id="e7Zlpr4fXjU1" xmlns="http://www.w3.org/2000/svg" xmlns:xlink="http://www.w3.org/1999/xlink" viewBox="0 0 4200 720" shape-rendering="geometricPrecision" text-rendering="geometricPrecision" project-id="ef56ccc55da44831a965b5a969dd6c14" export-id="bb1b4e8f14594850bb7733136885c020" cached="true">
<style><![CDATA[
#e7Zlpr4fXjU3_to {animation: e7Zlpr4fXjU3_to__to 10000ms linear infinite normal forwards}@keyframes e7Zlpr4fXjU3_to__to { 0% {transform: translate(296.999989px,359.999989px);animation-timing-function: cubic-bezier(0.165,0.84,0.44,1)} 27% {transform: translate(296.999989px,359.999989px);animation-timing-function: cubic-bezier(0.165,0.84,0.44,1)} 32% {transform: translate(296.999989px,299.999989px)} 100% {transform: translate(296.999989px,299.999989px)}} #e7Zlpr4fXjU3 {animation: e7Zlpr4fXjU3_c_o 10000ms linear infinite normal forwards}@keyframes e7Zlpr4fXjU3_c_o { 0% {opacity: 1;animation-timing-function: cubic-bezier(0.165,0.84,0.44,1)} 27% {opacity: 1;animation-timing-function: cubic-bezier(0.165,0.84,0.44,1)} 32% {opacity: 0} 100% {opacity: 0}} #e7Zlpr4fXjU4_tr {animation: e7Zlpr4fXjU4_tr__tr 10000ms linear infinite normal forwards}@keyframes e7Zlpr4fXjU4_tr__tr { 0% {transform: translate(296.999989px,300.966847px) rotate(-120deg);animation-timing-function: cubic-bezier(0.165,0.84,0.44,1)} 5% {transform: translate(296.999989px,300.966847px) rotate(0deg)} 100% {transform: translate(296.999989px,300.966847px) rotate(0deg)}} #e7Zlpr4fXjU4 {animation: e7Zlpr4fXjU4_s_do 10000ms linear infinite normal forwards}@keyframes e7Zlpr4fXjU4_s_do { 0% {stroke-dashoffset: 1692.25;animation-timing-function: cubic-bezier(0.165,0.84,0.44,1)} 5% {stroke-dashoffset: 0} 100% {stroke-dashoffset: 0}} #e7Zlpr4fXjU5_tr {animation: e7Zlpr4fXjU5_tr__tr 10000ms linear infinite normal forwards}@keyframes e7Zlpr4fXjU5_tr__tr { 0% {transform: translate(304.450005px,287.549995px) rotate(-45deg)} 1% {transform: translate(304.450005px,287.549995px) rotate(-45deg);animation-timing-function: cubic-bezier(0.165,0.84,0.44,1)} 10% {transform: translate(304.450005px,287.549995px) rotate(0deg)} 100% {transform: translate(304.450005px,287.549995px) rotate(0deg)}} #e7Zlpr4fXjU6 {animation-name: e7Zlpr4fXjU6_s_do, e7Zlpr4fXjU6_s_da;animation-duration: 10000ms;animation-fill-mode: forwards;animation-timing-function: linear;animation-direction: normal;animation-iteration-count: infinite;}@keyframes e7Zlpr4fXjU6_s_do { 0% {stroke-dashoffset: 166.75} 5% {stroke-dashoffset: 166.75;animation-timing-function: cubic-bezier(0.165,0.84,0.44,1)} 10% {stroke-dashoffset: 0} 100% {stroke-dashoffset: 0}}@keyframes e7Zlpr4fXjU6_s_da { 0% {stroke-dasharray: 166.75} 5% {stroke-dasharray: 166.75;animation-timing-function: cubic-bezier(0.165,0.84,0.44,1)} 10% {stroke-dasharray: 166.75} 100% {stroke-dasharray: 166.75}} #e7Zlpr4fXjU7 {animation-name: e7Zlpr4fXjU7_s_do, e7Zlpr4fXjU7_s_da;animation-duration: 10000ms;animation-fill-mode: forwards;animation-timing-function: linear;animation-direction: normal;animation-iteration-count: infinite;}@keyframes e7Zlpr4fXjU7_s_do { 0% {stroke-dashoffset: 473.65} 2% {stroke-dashoffset: 473.65;animation-timing-function: cubic-bezier(0.165,0.84,0.44,1)} 7% {stroke-dashoffset: 0} 100% {stroke-dashoffset: 0}}@keyframes e7Zlpr4fXjU7_s_da { 0% {stroke-dasharray: 473.65} 2% {stroke-dasharray: 473.65;animation-timing-function: cubic-bezier(0.165,0.84,0.44,1)} 7% {stroke-dasharray: 473.65} 100% {stroke-dasharray: 473.65}} #e7Zlpr4fXjU8_tr {animation: e7Zlpr4fXjU8_tr__tr 10000ms linear infinite normal forwards}@keyframes e7Zlpr4fXjU8_tr__tr { 0% {transform: translate(296.100014px,300.399994px) rotate(-20deg)} 7% {transform: translate(296.100014px,300.399994px) rotate(0deg)} 100% {transform: translate(296.100014px,300.399994px) rotate(0deg)}} #e7Zlpr4fXjU8_ts {animation: e7Zlpr4fXjU8_ts__ts 10000ms linear infinite normal forwards}@keyframes e7Zlpr4fXjU8_ts__ts { 0% {transform: scale(0.75,0.75)} 2% {transform: scale(0.75,0.75);animation-timing-function: cubic-bezier(0.42,0,0.58,1)} 5% {transform: scale(1.1,1.1);animation-timing-function: cubic-bezier(0.42,0,0.58,1)} 7% {transform: scale(1,1)} 100% {transform: scale(1,1)}} #e7Zlpr4fXjU8 {animation: e7Zlpr4fXjU8_c_o 10000ms linear infinite normal forwards}@keyframes e7Zlpr4fXjU8_c_o { 0% {opacity: 0} 2% {opacity: 0;animation-timing-function: cubic-bezier(0.165,0.84,0.44,1)} 7% {opacity: 1} 100% {opacity: 1}} #e7Zlpr4fXjU12_to {animation: e7Zlpr4fXjU12_to__to 10000ms linear infinite normal forwards}@keyframes e7Zlpr4fXjU12_to__to { 0% {transform: translate(82.23563px,300.022209px)} 65% {transform: translate(82.23563px,300.022209px);animation-timing-function: cubic-bezier(0.77,0,0.175,1)} 70% {transform: translate(282.23563px,300.022209px);animation-timing-function: cubic-bezier(0.77,0,0.175,1)} 75% {transform: translate(482.23563px,300.022209px)} 100% {transform: translate(482.23563px,300.022209px)}} #e7Zlpr4fXjU13_to {animation: e7Zlpr4fXjU13_to__to 10000ms linear infinite normal forwards}@keyframes e7Zlpr4fXjU13_to__to { 0% {transform: translate(82.23563px,300.022209px)} 60% {transform: translate(82.23563px,300.022209px);animation-timing-function: cubic-bezier(0.77,0,0.175,1)} 65% {transform: translate(282.23563px,300.022209px);animation-timing-function: cubic-bezier(0.77,0,0.175,1)} 70% {transform: translate(482.23563px,300.022209px)} 100% {transform: translate(482.23563px,300.022209px)}} #e7Zlpr4fXjU14_to {animation: e7Zlpr4fXjU14_to__to 10000ms linear infinite normal forwards}@keyframes e7Zlpr4fXjU14_to__to { 0% {transform: translate(82.23563px,300.022209px)} 80% {transform: translate(82.23563px,300.022209px);animation-timing-function: cubic-bezier(0.77,0,0.175,1)} 85% {transform: translate(282.23563px,300.022209px);animation-timing-function: cubic-bezier(0.77,0,0.175,1)} 90% {transform: translate(482.23563px,300.022209px)} 100% {transform: translate(482.23563px,300.022209px)}} #e7Zlpr4fXjU15_to {animation: e7Zlpr4fXjU15_to__to 10000ms linear infinite normal forwards}@keyframes e7Zlpr4fXjU15_to__to { 0% {transform: translate(82.23563px,300.022209px)} 85% {transform: translate(82.23563px,300.022209px);animation-timing-function: cubic-bezier(0.77,0,0.175,1)} 90% {transform: translate(282.23563px,300.022209px);animation-timing-function: cubic-bezier(0.77,0,0.175,1)} 95% {transform: translate(482.23563px,300.022209px)} 100% {transform: translate(482.23563px,300.022209px)}} #e7Zlpr4fXjU16_to {animation: e7Zlpr4fXjU16_to__to 10000ms linear infinite normal forwards}@keyframes e7Zlpr4fXjU16_to__to { 0% {transform: translate(82.23563px,300.022209px)} 90% {transform: translate(82.23563px,300.022209px);animation-timing-function: cubic-bezier(0.77,0,0.175,1)} 95% {transform: translate(282.23563px,300.022209px);animation-timing-function: cubic-bezier(0.77,0,0.175,1)} 100% {transform: translate(482.23563px,300.022209px)}} #e7Zlpr4fXjU17_to {animation: e7Zlpr4fXjU17_to__to 10000ms linear infinite normal forwards}@keyframes e7Zlpr4fXjU17_to__to { 0% {transform: translate(82.23563px,300.022209px)} 95% {transform: translate(82.23563px,300.022209px);animation-timing-function: cubic-bezier(0.77,0,0.175,1)} 100% {transform: translate(282.23563px,300.022209px)}} #e7Zlpr4fXjU18_to {animation: e7Zlpr4fXjU18_to__to 10000ms linear infinite normal forwards}@keyframes e7Zlpr4fXjU18_to__to { 0% {transform: translate(82.23563px,300.022209px)} 75% {transform: translate(82.23563px,300.022209px);animation-timing-function: cubic-bezier(0.77,0,0.175,1)} 80% {transform: translate(282.23563px,300.022209px);animation-timing-function: cubic-bezier(0.77,0,0.175,1)} 85% {transform: translate(482.23563px,300.022209px)} 100% {transform: translate(482.23563px,300.022209px)}} #e7Zlpr4fXjU19_to {animation: e7Zlpr4fXjU19_to__to 10000ms linear infinite normal forwards}@keyframes e7Zlpr4fXjU19_to__to { 0% {transform: translate(82.23563px,300.022209px)} 70% {transform: translate(82.23563px,300.022209px);animation-timing-function: cubic-bezier(0.77,0,0.175,1)} 75% {transform: translate(282.23563px,300.022209px);animation-timing-function: cubic-bezier(0.77,0,0.175,1)} 80% {transform: translate(482.23563px,300.022209px)} 100% {transform: translate(482.23563px,300.022209px)}} #e7Zlpr4fXjU25_to {animation: e7Zlpr4fXjU25_to__to 10000ms linear infinite normal forwards}@keyframes e7Zlpr4fXjU25_to__to { 0% {transform: translate(182.668333px,512.8px)} 30% {transform: translate(182.668333px,512.8px);animation-timing-function: cubic-bezier(0.77,0,0.175,1)} 35% {transform: translate(332.668333px,362.8px);animation-timing-function: cubic-bezier(0.77,0,0.175,1)} 53% {transform: translate(302.668333px,392.8px);animation-timing-function: cubic-bezier(0.77,0,0.175,1)} 60% {transform: translate(492.668333px,202.8px)} 100% {transform: translate(492.668333px,202.8px)}} #e7Zlpr4fXjU25 {animation: e7Zlpr4fXjU25_c_o 10000ms linear infinite normal forwards}@keyframes e7Zlpr4fXjU25_c_o { 0% {opacity: 0} 30% {opacity: 0;animation-timing-function: cubic-bezier(0.77,0,0.175,1)} 35% {opacity: 1;animation-timing-function: cubic-bezier(0.77,0,0.175,1)} 55% {opacity: 1;animation-timing-function: cubic-bezier(0.77,0,0.175,1)} 60% {opacity: 0} 100% {opacity: 0}} #e7Zlpr4fXjU33 {animation: e7Zlpr4fXjU33_s_do 10000ms linear infinite normal forwards}@keyframes e7Zlpr4fXjU33_s_do { 0% {stroke-dashoffset: 118.74} 30% {stroke-dashoffset: 118.74;animation-timing-function: cubic-bezier(0.77,0,0.175,1)} 35% {stroke-dashoffset: 0;animation-timing-function: cubic-bezier(0.77,0,0.175,1)} 53% {stroke-dashoffset: 100} 57% {stroke-dashoffset: 0} 100% {stroke-dashoffset: 0}} #e7Zlpr4fXjU34 {animation: e7Zlpr4fXjU34_s_do 10000ms linear infinite normal forwards}@keyframes e7Zlpr4fXjU34_s_do { 0% {stroke-dashoffset: 173.73} 30% {stroke-dashoffset: 173.73;animation-timing-function: cubic-bezier(0.77,0,0.175,1)} 35% {stroke-dashoffset: 0;animation-timing-function: cubic-bezier(0.77,0,0.175,1)} 53% {stroke-dashoffset: 120} 57% {stroke-dashoffset: 0} 100% {stroke-dashoffset: 0}} #e7Zlpr4fXjU35 {animation: e7Zlpr4fXjU35_s_do 10000ms linear infinite normal forwards}@keyframes e7Zlpr4fXjU35_s_do { 0% {stroke-dashoffset: 170.76} 30% {stroke-dashoffset: 170.76;animation-timing-function: cubic-bezier(0.77,0,0.175,1)} 35% {stroke-dashoffset: 0;animation-timing-function: cubic-bezier(0.77,0,0.175,1)} 53% {stroke-dashoffset: 120} 57% {stroke-dashoffset: 0} 100% {stroke-dashoffset: 0}} #e7Zlpr4fXjU37_to {animation: e7Zlpr4fXjU37_to__to 10000ms linear infinite normal forwards}@keyframes e7Zlpr4fXjU37_to__to { 0% {transform: translate(1917.650024px,400.000023px)} 3% {transform: translate(1917.650024px,400.000023px);animation-timing-function: cubic-bezier(0.77,0,0.175,1)} 8% {transform: translate(1917.650024px,300.000023px);animation-timing-function: cubic-bezier(0.77,0,0.175,1)} 28% {transform: translate(1917.650024px,300.000023px);animation-timing-function: cubic-bezier(0.77,0,0.175,1)} 33% {transform: translate(1917.650024px,200.000023px)} 100% {transform: translate(1917.650024px,200.000023px)}} #e7Zlpr4fXjU37 {animation: e7Zlpr4fXjU37_c_o 10000ms linear infinite normal forwards}@keyframes e7Zlpr4fXjU37_c_o { 0% {opacity: 0} 3% {opacity: 0;animation-timing-function: cubic-bezier(0.77,0,0.175,1)} 8% {opacity: 1;animation-timing-function: cubic-bezier(0.77,0,0.175,1)} 28% {opacity: 1;animation-timing-function: cubic-bezier(0.77,0,0.175,1)} 33% {opacity: 0} 100% {opacity: 0}} #e7Zlpr4fXjU48_to {animation: e7Zlpr4fXjU48_to__to 10000ms linear infinite normal forwards}@keyframes e7Zlpr4fXjU48_to__to { 0% {transform: translate(2371.900085px,400.000008px)} 36% {transform: translate(2371.900085px,400.000008px);animation-timing-function: cubic-bezier(0.77,0,0.175,1)} 41% {transform: translate(2371.900085px,300.000008px);animation-timing-function: cubic-bezier(0.77,0,0.175,1)} 61% {transform: translate(2371.900085px,300.000008px);animation-timing-function: cubic-bezier(0.77,0,0.175,1)} 66% {transform: translate(2371.900085px,200.000008px)} 100% {transform: translate(2371.900085px,200.000008px)}} #e7Zlpr4fXjU48 {animation: e7Zlpr4fXjU48_c_o 10000ms linear infinite normal forwards}@keyframes e7Zlpr4fXjU48_c_o { 0% {opacity: 0} 36% {opacity: 0;animation-timing-function: cubic-bezier(0.77,0,0.175,1)} 41% {opacity: 1;animation-timing-function: cubic-bezier(0.77,0,0.175,1)} 61% {opacity: 1;animation-timing-function: cubic-bezier(0.77,0,0.175,1)} 66% {opacity: 0} 100% {opacity: 0}} #e7Zlpr4fXjU63_to {animation: e7Zlpr4fXjU63_to__to 10000ms linear infinite normal forwards}@keyframes e7Zlpr4fXjU63_to__to { 0% {transform: translate(2405.572083px,399.950027px)} 69% {transform: translate(2405.572083px,399.950027px);animation-timing-function: cubic-bezier(0.77,0,0.175,1)} 74% {transform: translate(2405.572083px,299.950027px);animation-timing-function: cubic-bezier(0.77,0,0.175,1)} 94% {transform: translate(2405.572083px,299.950027px);animation-timing-function: cubic-bezier(0.77,0,0.175,1)} 99% {transform: translate(2405.572083px,199.950027px)} 100% {transform: translate(2405.572083px,199.950027px)}} #e7Zlpr4fXjU63 {animation: e7Zlpr4fXjU63_c_o 10000ms linear infinite normal forwards}@keyframes e7Zlpr4fXjU63_c_o { 0% {opacity: 0} 69% {opacity: 0;animation-timing-function: cubic-bezier(0.77,0,0.175,1)} 74% {opacity: 1;animation-timing-function: cubic-bezier(0.77,0,0.175,1)} 94% {opacity: 1;animation-timing-function: cubic-bezier(0.77,0,0.175,1)} 99% {opacity: 0} 100% {opacity: 0}} #e7Zlpr4fXjU79_to {animation: e7Zlpr4fXjU79_to__to 10000ms linear infinite normal forwards}@keyframes e7Zlpr4fXjU79_to__to { 0% {transform: translate(339.571753px,360px)} 68% {transform: translate(339.571753px,360px);animation-timing-function: cubic-bezier(0.77,0,0.175,1)} 89% {transform: translate(339.571753px,360px);animation-timing-function: cubic-bezier(0.77,0,0.175,1)} 95% {transform: translate(339.571753px,200px)} 100% {transform: translate(339.571753px,200px)}} #e7Zlpr4fXjU79 {animation: e7Zlpr4fXjU79_c_o 10000ms linear infinite normal forwards}@keyframes e7Zlpr4fXjU79_c_o { 0% {opacity: 1} 89% {opacity: 1;animation-timing-function: cubic-bezier(0.77,0,0.175,1)} 95% {opacity: 0} 100% {opacity: 0}} #e7Zlpr4fXjU80 {animation: e7Zlpr4fXjU80_c_o 10000ms linear infinite normal forwards}@keyframes e7Zlpr4fXjU80_c_o { 0% {opacity: 0} 68% {opacity: 0;animation-timing-function: cubic-bezier(0.165,0.84,0.44,1)} 73% {opacity: 1} 100% {opacity: 1}} #e7Zlpr4fXjU81 {animation: e7Zlpr4fXjU81_s_do 10000ms linear infinite normal forwards}@keyframes e7Zlpr4fXjU81_s_do { 0% {stroke-dashoffset: 32.31} 68% {stroke-dashoffset: 32.31;animation-timing-function: cubic-bezier(0.77,0,0.175,1)} 80% {stroke-dashoffset: 0;animation-timing-function: cubic-bezier(0.77,0,0.175,1)} 89% {stroke-dashoffset: 0;animation-timing-function: cubic-bezier(0.77,0,0.175,1)} 95% {stroke-dashoffset: 12.333558} 100% {stroke-dashoffset: 12.333558}} #e7Zlpr4fXjU82 {animation: e7Zlpr4fXjU82_s_do 10000ms linear infinite normal forwards}@keyframes e7Zlpr4fXjU82_s_do { 0% {stroke-dashoffset: 37.31} 68% {stroke-dashoffset: 37.31;animation-timing-function: cubic-bezier(0.77,0,0.175,1)} 80% {stroke-dashoffset: 0;animation-timing-function: cubic-bezier(0.77,0,0.175,1)} 89% {stroke-dashoffset: 0;animation-timing-function: cubic-bezier(0.77,0,0.175,1)} 95% {stroke-dashoffset: 14.242187} 100% {stroke-dashoffset: 14.242187}} #e7Zlpr4fXjU83 {animation: e7Zlpr4fXjU83_s_do 10000ms linear infinite normal forwards}@keyframes e7Zlpr4fXjU83_s_do { 0% {stroke-dashoffset: 47.31} 68% {stroke-dashoffset: 47.31;animation-timing-function: cubic-bezier(0.77,0,0.175,1)} 80% {stroke-dashoffset: 0;animation-timing-function: cubic-bezier(0.77,0,0.175,1)} 89% {stroke-dashoffset: 0;animation-timing-function: cubic-bezier(0.77,0,0.175,1)} 95% {stroke-dashoffset: 18.059444} 100% {stroke-dashoffset: 18.059444}} #e7Zlpr4fXjU84 {animation: e7Zlpr4fXjU84_s_do 10000ms linear infinite normal forwards}@keyframes e7Zlpr4fXjU84_s_do { 0% {stroke-dashoffset: 63.31} 68% {stroke-dashoffset: 63.31;animation-timing-function: cubic-bezier(0.77,0,0.175,1)} 80% {stroke-dashoffset: 0;animation-timing-function: cubic-bezier(0.77,0,0.175,1)} 89% {stroke-dashoffset: 0;animation-timing-function: cubic-bezier(0.77,0,0.175,1)} 95% {stroke-dashoffset: 24.167056} 100% {stroke-dashoffset: 24.167056}} #e7Zlpr4fXjU85 {animation: e7Zlpr4fXjU85_s_do 10000ms linear infinite normal forwards}@keyframes e7Zlpr4fXjU85_s_do { 0% {stroke-dashoffset: 88.31} 68% {stroke-dashoffset: 88.31;animation-timing-function: cubic-bezier(0.77,0,0.175,1)} 80% {stroke-dashoffset: 0;animation-timing-function: cubic-bezier(0.77,0,0.175,1)} 89% {stroke-dashoffset: 0;animation-timing-function: cubic-bezier(0.77,0,0.175,1)} 95% {stroke-dashoffset: 33.710199} 100% {stroke-dashoffset: 33.710199}} #e7Zlpr4fXjU86 {animation: e7Zlpr4fXjU86_s_do 10000ms linear infinite normal forwards}@keyframes e7Zlpr4fXjU86_s_do { 0% {stroke-dashoffset: 128.31} 68% {stroke-dashoffset: 128.31;animation-timing-function: cubic-bezier(0.77,0,0.175,1)} 80% {stroke-dashoffset: 0;animation-timing-function: cubic-bezier(0.77,0,0.175,1)} 89% {stroke-dashoffset: 0;animation-timing-function: cubic-bezier(0.77,0,0.175,1)} 95% {stroke-dashoffset: 48.979228} 100% {stroke-dashoffset: 48.979228}} #e7Zlpr4fXjU87 {animation: e7Zlpr4fXjU87_s_do 10000ms linear infinite normal forwards}@keyframes e7Zlpr4fXjU87_s_do { 0% {stroke-dashoffset: 186.3} 68% {stroke-dashoffset: 186.3;animation-timing-function: cubic-bezier(0.77,0,0.175,1)} 80% {stroke-dashoffset: 0;animation-timing-function: cubic-bezier(0.77,0,0.175,1)} 89% {stroke-dashoffset: 0;animation-timing-function: cubic-bezier(0.77,0,0.175,1)} 95% {stroke-dashoffset: 71.115503} 100% {stroke-dashoffset: 71.115503}} #e7Zlpr4fXjU88 {animation: e7Zlpr4fXjU88_s_do 10000ms linear infinite normal forwards}@keyframes e7Zlpr4fXjU88_s_do { 0% {stroke-dashoffset: 287.3} 68% {stroke-dashoffset: 287.3;animation-timing-function: cubic-bezier(0.77,0,0.175,1)} 80% {stroke-dashoffset: 0;animation-timing-function: cubic-bezier(0.77,0,0.175,1)} 89% {stroke-dashoffset: 0;animation-timing-function: cubic-bezier(0.77,0,0.175,1)} 95% {stroke-dashoffset: 109.669802} 100% {stroke-dashoffset: 109.669802}} #e7Zlpr4fXjU89 {animation: e7Zlpr4fXjU89_s_do 10000ms linear infinite normal forwards}@keyframes e7Zlpr4fXjU89_s_do { 0% {stroke-dashoffset: 437.3} 68% {stroke-dashoffset: 437.3;animation-timing-function: cubic-bezier(0.77,0,0.175,1)} 80% {stroke-dashoffset: 0;animation-timing-function: cubic-bezier(0.77,0,0.175,1)} 89% {stroke-dashoffset: 0;animation-timing-function: cubic-bezier(0.77,0,0.175,1)} 95% {stroke-dashoffset: 166.928661} 100% {stroke-dashoffset: 166.928661}} #e7Zlpr4fXjU91 {animation-name: e7Zlpr4fXjU91_c_o, e7Zlpr4fXjU91_s_do;animation-duration: 10000ms;animation-fill-mode: forwards;animation-timing-function: linear;animation-direction: normal;animation-iteration-count: infinite;}@keyframes e7Zlpr4fXjU91_c_o { 0% {opacity: 0} 65% {opacity: 0} 67% {opacity: 1} 100% {opacity: 1}}@keyframes e7Zlpr4fXjU91_s_do { 0% {stroke-dashoffset: 402} 65% {stroke-dashoffset: 402;animation-timing-function: cubic-bezier(0.77,0,0.175,1)} 70% {stroke-dashoffset: 0;animation-timing-function: cubic-bezier(0.77,0,0.175,1)} 89% {stroke-dashoffset: 0;animation-timing-function: cubic-bezier(0.77,0,0.175,1)} 95% {stroke-dashoffset: 58.476154} 100% {stroke-dashoffset: 58.476154}} #e7Zlpr4fXjU92_to {animation: e7Zlpr4fXjU92_to__to 10000ms linear infinite normal forwards}@keyframes e7Zlpr4fXjU92_to__to { 0% {transform: translate(-762.069092px,493.059414px)} 65% {transform: translate(-762.069092px,493.059414px);animation-timing-function: cubic-bezier(0.77,0,0.175,1)} 70% {transform: translate(-762.069092px,113.059414px);animation-timing-function: cubic-bezier(0.77,0,0.175,1)} 89% {transform: translate(-762.069092px,113.059414px);animation-timing-function: cubic-bezier(0.77,0,0.175,1)} 95% {transform: translate(-762.069092px,172.059414px)} 100% {transform: translate(-762.069092px,172.059414px)}} #e7Zlpr4fXjU92 {animation: e7Zlpr4fXjU92_c_o 10000ms linear infinite normal forwards}@keyframes e7Zlpr4fXjU92_c_o { 0% {opacity: 0} 65% {opacity: 0} 67% {opacity: 1} 100% {opacity: 1}} #e7Zlpr4fXjU94 {animation-name: e7Zlpr4fXjU94_c_o, e7Zlpr4fXjU94_s_do;animation-duration: 10000ms;animation-fill-mode: forwards;animation-timing-function: linear;animation-direction: normal;animation-iteration-count: infinite;}@keyframes e7Zlpr4fXjU94_c_o { 0% {opacity: 0} 65% {opacity: 0} 67% {opacity: 1} 100% {opacity: 1}}@keyframes e7Zlpr4fXjU94_s_do { 0% {stroke-dashoffset: 602.1} 67% {stroke-dashoffset: 602.1;animation-timing-function: cubic-bezier(0.165,0.84,0.44,1)} 72% {stroke-dashoffset: 0} 100% {stroke-dashoffset: 0}} #e7Zlpr4fXjU95_to {animation: e7Zlpr4fXjU95_to__to 10000ms linear infinite normal forwards}@keyframes e7Zlpr4fXjU95_to__to { 0% {transform: translate(-746.069092px,530.059414px)} 67% {transform: translate(-746.069092px,530.059414px);animation-timing-function: cubic-bezier(0.165,0.84,0.44,1)} 72% {transform: translate(-146.069092px,530.059414px)} 100% {transform: translate(-146.069092px,530.059414px)}} #e7Zlpr4fXjU95 {animation: e7Zlpr4fXjU95_c_o 10000ms linear infinite normal forwards}@keyframes e7Zlpr4fXjU95_c_o { 0% {opacity: 0} 67% {opacity: 0} 69% {opacity: 1} 100% {opacity: 1}}
]]></style>
<g transform="translate(40.000001 0)"><g id="e7Zlpr4fXjU3_to" transform="translate(296.999989,359.999989)"><g id="e7Zlpr4fXjU3" transform="translate(-296.999989,-299.999989)"><g id="e7Zlpr4fXjU4_tr" transform="translate(296.999989,300.966847) rotate(-120)"><path id="e7Zlpr4fXjU4" d="M297,30.7c148.7,0,269.3,120.6,269.3,269.3s-120.6,269.3-269.3,269.3-269.3-120.6-269.3-269.3s120.6-269.3,269.3-269.3" transform="translate(-296.999989,-299.999989)" fill="none" stroke="#fff" stroke-width="40" stroke-linecap="round" stroke-miterlimit="10" stroke-dashoffset="1692.25" stroke-dasharray="1692.25"/></g><g id="e7Zlpr4fXjU5_tr" transform="translate(304.450005,287.549995) rotate(-45)"><g transform="translate(-295.450005,-278.549995)"><path id="e7Zlpr4fXjU6" d="M487.5,333.6c-11.5,56.1-46.2,103.6-93.7,132.2" fill="none" stroke="#fff" stroke-width="20" stroke-linecap="round" stroke-linejoin="round" stroke-dashoffset="166.75" stroke-dasharray="166.75"/><path id="e7Zlpr4fXjU7" d="M103.4,216.4C133.5,143,205.7,91.3,290,91.3s154.6,50.4,185.4,122.3" fill="none" stroke="#fff" stroke-width="20" stroke-linecap="round" stroke-linejoin="round" stroke-dashoffset="473.65" stroke-dasharray="473.65"/></g></g><g id="e7Zlpr4fXjU8_tr" transform="translate(296.100014,300.399994) rotate(-20)"><g id="e7Zlpr4fXjU8_ts" transform="scale(0.75,0.75)"><g id="e7Zlpr4fXjU8" transform="translate(-296.100014,-300.399994)" opacity="0"><path d="M253.5,282.8h31.9v-36.7h-31.9c-10.8,0-14.7,5.8-14.7,15v7.5c0,9.4,4.4,14.2,14.7,14.2Zm54.7,28.6v41.1h32.5c10.6,0,14.7-5.8,14.7-15.3v-10.8c0-9.7-4.4-15-14.7-15h-32.5Zm-5-135.2c3.3,0,5,1.7,5,5v30.8h65c3.3,0,5,1.9,5,5.6v23c0,3.6-1.7,5.6-5,5.6h-65v36.7h43.6c30.3,0,43,14.7,43,43v17.2c0,25.8-10.8,43.6-43.3,43.6h-43.3v32.2c0,3.3-1.7,5-5,5h-12.8c-3.3,0-5-1.7-5-5v-32.2h-71.1c-3.3,0-5.3-1.9-5.3-5.6v-23c0-3.6,1.9-5.6,5.3-5.6h71.1v-41.1h-43c-30,0-43.3-14.4-43.3-42.5v-13.6c0-25.5,11.1-43.3,43.3-43.3h43v-30.8c0-3.3,1.7-5,5-5h12.8Zm87.4,52.9c0,9.4-7.6,17.1-17.1,17.1s-7.1-7.6-7.1-17.1-2.4-17.1,7.1-17.1s17.1,7.6,17.1,17.1ZM221.8,369.6c0,9.5,2.3,17.2-7.2,17.2s-17.2-7.7-17.2-17.2s7.7-17.2,17.2-17.2s7.2,7.7,7.2,17.2Zm86.4-189.7c0,6.3-5.1,11.4-11.4,11.4s-11.4-5.1-11.4-11.4s5.1-11.4,11.4-11.4s11.4,5.1,11.4,11.4Zm0,241c0,6.3-5.1,11.4-11.4,11.4s-11.4-5.1-11.4-11.4s5.1-11.4,11.4-11.4s11.4,5.1,11.4,11.4Z" fill="#fff"/></g></g></g></g></g><g id="e7Zlpr4fXjU25_to" transform="translate(182.668333,512.8)"><g id="e7Zlpr4fXjU25" transform="rotate(44.447633) translate(-296.999985,-295.000011)" opacity="0"><g><path d="M296.9,40.8c1.3,0,2.8-.2,4.1-.7c1.7-.8,1.5-.9,1.4-.7c0,0-.1,0-.1,0s-.3.2-.3.2-.6.4-.6.4C282,54.6,266.2,73.8,253.5,94.4c-26.2,42.8-37.1,93.6-35.6,143.5.4,12.3,1.4,25.3,3.1,37.6.5,3.4,1.3,9.1,1.9,12.5c7,41.8,20.3,82.1,37.3,121.1c0,0-18.5-12.5-18.5-12.5s111.1,0,111.1,0-18.4,12.1-18.4,12.1.5-1.2.5-1.2c.3-.6,1.5-3.5,1.8-4.2c45-112.6,69-269.5-35.4-356.6-2-1.7-4.1-3.3-6.2-5c.7.2,1.3-.2,1.8-1v0v.1Zm.6-20c3,.9,6.4,2.4,9.1,4.3c2.5,1.8,5.1,3.6,7.6,5.5c105.3,78.5,104.5,225.9,73.6,341.5-4.7,17.7-10,35.3-16.6,52.4c0,0-5.1,12.1-5.1,12.1s-13.3,0-13.3,0c-9.1-.2-118.9.4-125-.3c0,0-4.6-12.1-4.6-12.1-19.2-50.6-33.1-104.3-36-158.7-1-18.2-.6-36.8,1.2-54.9C195.3,138.9,229,67,288.7,24.5c2.5-1.7,5.2-3.8,8.8-3.6v0-.1Z" fill="#fff"/><path d="M391.7,217.9c0,0,57.7,13.6,62.3,56.7s-5.2,120.6-5.2,120.6l-73.2-32.5" fill="none" stroke="#fff" stroke-width="20" stroke-linecap="round" stroke-linejoin="round"/><path d="M202.3,217.9c0,0-57.7,13.6-62.3,56.7-4.6,43,5.2,120.6,5.2,120.6l73.2-32.5" fill="none" stroke="#fff" stroke-width="20" stroke-linecap="round" stroke-linejoin="round"/><ellipse rx="41.1" ry="36.6" transform="translate(298.4 158.1)" fill="none" stroke="#fff" stroke-width="20" stroke-linecap="round" stroke-linejoin="round"/><line x1="233.4" y1="364" x2="360.7" y2="364" fill="none" stroke="#fff" stroke-width="40" stroke-linecap="round" stroke-miterlimit="10"/></g><g transform="translate(-.081804 8.484888)"><line id="e7Zlpr4fXjU33" x1="339.1" y1="449.7" x2="338.678384" y2="568.431563" fill="none" stroke="#fff" stroke-width="20" stroke-linecap="round" stroke-linejoin="round" stroke-dashoffset="118.74" stroke-dasharray="118.74"/><line id="e7Zlpr4fXjU34" x1="299.1" y1="449.7" x2="298.577218" y2="623.424961" fill="none" stroke="#fff" stroke-width="20" stroke-linecap="round" stroke-linejoin="round" stroke-dashoffset="173.73" stroke-dasharray="173.73"/><line id="e7Zlpr4fXjU35" x1="257.3" y1="448.3" x2="257.68687" y2="619.057589" transform="matrix(-1 0 0 0.804009 514.599976 92.605748)" fill="none" stroke="#fff" stroke-width="20" stroke-linecap="round" stroke-linejoin="round" stroke-dashoffset="170.76" stroke-dasharray="170.76"/></g></g></g><g transform="translate(0 60)"><g id="e7Zlpr4fXjU37_to" transform="translate(1917.650024,400.000023)"><g id="e7Zlpr4fXjU37" transform="translate(-1917.650024,-300.000023)" opacity="0"><path d="M888.8,202.8c45.9,0,64.5,21.3,64.5,61.8v17.1c0,34.2-13.2,54.3-44.7,60l51.3,63.6c1.8,2.1,1.5,7.5-3.9,7.5h-38.7c-5.1,0-6.6-1.2-8.4-3.9l-47.4-62.4h-96.9v59.7c0,4.5-2.1,6.6-6.6,6.6h-32.4c-4.5,0-6.9-2.1-6.9-6.6v-194.4c0-6,3-9,9-9h161.1ZM764.6,309.9h114.9c20.4,0,27.9-8.7,27.9-26.7v-12.6c0-18-7.5-26.7-27.9-26.7h-111c-2.7,0-3.9,1.2-3.9,3.6v62.4Z" fill="#fff"/><path d="M1118,248.1c54,0,71.4,17.4,71.4,60.9v79.8c0,19.5-4.8,24-22.2,24h-142.8c-35.4,0-46.2-12.9-46.2-42.6v-14.4c0-25.2,10.8-39.3,46.2-39.3h122.1v-5.7c0-19.2-6.6-26.7-32.7-26.7h-125.4c-3.6,0-5.4-1.5-5.4-5.4v-25.2c0-3.6,1.8-5.4,5.4-5.4h129.6Zm28.5,121.5v-26.4h-109.8c-12.3,0-16.8,5.1-16.8,14.7v6.3c0,10.8,4.5,15.6,16.8,15.6h101.1c6.3,0,8.7-2.7,8.7-10.2Z" fill="#fff"/><path d="M1257.8,187.2c4.5,0,6.6,2.1,6.6,6.6v28.5c0,4.5-2.1,6.9-6.6,6.9h-29.4c-4.5,0-6.9-2.4-6.9-6.9v-28.5c0-4.5,2.4-6.6,6.9-6.6h29.4Zm0,60.9c4.5,0,6.6,2.4,6.6,6.9v151.2c0,4.5-2.1,6.6-6.6,6.6h-29.4c-4.5,0-6.6-2.1-6.6-6.6v-151.2c0-4.5,2.1-6.9,6.6-6.9h29.4Z" fill="#fff"/><path d="M1492.4,248.1c3.6,0,5.4,1.8,5.4,5.4v24c0,3.6-1.8,5.4-5.4,5.4h-135.3c-12.3,0-16.5,4.8-16.5,13.5v4.5c0,8.1,4.2,12.9,16.5,12.9h101.1c33.6,0,46.8,14.4,46.8,40.2v16.8c0,26.4-11.7,42-47.1,42h-153.6c-3.6,0-5.4-1.8-5.4-5.4v-24c0-3.6,1.8-5.4,5.4-5.4h142.2c12.3,0,16.8-4.2,16.8-14.4v-8.1c0-7.8-4.5-12.6-16.8-12.6h-100.8c-33.6,0-46.8-14.1-46.8-40.5v-13.2c0-24.9,11.7-41.1,47.1-41.1h146.4Z" fill="#fff"/><path d="M1690.1,248.1c41.1,0,51.9,12.9,51.9,49.2v28.5c0,12.9-5.4,17.1-17.1,17.1h-151.5v7.2c0,18.9,6.9,26.7,33,26.7h125.1c3.6,0,5.4,1.8,5.4,5.4v25.2c0,3.6-1.8,5.4-5.4,5.4h-129.3c-54,0-71.4-17.1-71.4-60.6v-43.2c0-43.5,17.4-60.9,71.4-60.9h87.9Zm-116.7,68.1h121.5c3.6,0,5.1-1.2,5.1-5.1v-12.6c0-12.3-4.5-17.1-18.3-17.1h-75.3c-26.1,0-33,7.5-33,26.7v8.1Z" fill="#fff"/><path d="M2089.1,202.8c4.5,0,6.9,2.1,6.9,6.6v28.5c0,4.5-2.4,6.6-6.9,6.6h-130.2c-30.9,0-39.9,9.3-39.9,40.8v6h168.6c4.5,0,6.6,2.1,6.6,6.6v23.7c0,4.5-2.1,6.6-6.6,6.6h-168.6v78c0,4.5-2.1,6.6-6.6,6.6h-32.4c-4.5,0-6.9-2.1-6.9-6.6v-124.2c0-57.6,23.4-79.2,84-79.2h132Z" fill="#fff"/><path d="M2160.2,248.1c4.5,0,6.6,2.4,6.6,6.9v86.7c0,25.2,4.8,33,30.9,33h77.1c26.1,0,33-7.8,33-33v-86.7c0-4.5,2.1-6.9,6.6-6.9h29.4c4.5,0,6.6,2.4,6.6,6.9v97.2c0,43.5-17.4,60.6-71.4,60.6h-83.7c-54,0-71.4-17.1-71.4-60.6v-97.2c0-4.5,2.4-6.9,6.9-6.9h29.4Z" fill="#fff"/><path d="M2544.2,248.1c54,0,71.4,17.4,71.4,60.9v97.2c0,4.5-2.1,6.6-6.6,6.6h-29.4c-4.5,0-6.6-2.1-6.6-6.6v-87c0-25.2-5.1-33-30.9-33h-79.8c-25.8,0-32.7,7.8-32.7,33v87c0,4.5-2.1,6.6-6.6,6.6h-29.4c-4.5,0-6.9-2.1-6.9-6.6v-97.2c0-43.5,17.4-60.9,71.4-60.9h86.1Z" fill="#fff"/><path d="M2834.3,248.1v-53.7c0-4.5,2.1-6.6,6.6-6.6h29.4c4.5,0,6.6,2.1,6.6,6.6v157.8c0,43.5-17.4,60.6-71.4,60.6h-84c-54,0-71.4-17.1-71.4-60.6v-43.2c0-43.5,17.4-60.9,71.4-60.9h112.8Zm0,95.7v-59.7h-108.6c-25.8,0-32.7,7.8-32.7,33v26.7c0,25.2,6.9,33,32.7,33h75.6c26.1,0,33-7.8,33-33Z" fill="#fff"/><path d="M3104,248.1c3.6,0,5.4,1.8,5.4,5.4v24c0,3.6-1.8,5.4-5.4,5.4h-135.3c-12.3,0-16.5,4.8-16.5,13.5v4.5c0,8.1,4.2,12.9,16.5,12.9h101.1c33.6,0,46.8,14.4,46.8,40.2v16.8c0,26.4-11.7,42-47.1,42h-153.6c-3.6,0-5.4-1.8-5.4-5.4v-24c0-3.6,1.8-5.4,5.4-5.4h142.2c12.3,0,16.8-4.2,16.8-14.4v-8.1c0-7.8-4.5-12.6-16.8-12.6h-100.8c-33.6,0-46.8-14.1-46.8-40.5v-13.2c0-24.9,11.7-41.1,47.1-41.1h146.4Z" fill="#fff"/></g></g><g id="e7Zlpr4fXjU48_to" transform="translate(2371.900085,400.000008)"><g id="e7Zlpr4fXjU48" transform="translate(-2371.900085,-300.000008)" opacity="0"><path d="M758.4,202.8c4.5,0,6.6,2.1,6.6,6.6v119.7c0,31.8,9,41.1,39.9,41.1h121.5c4.5,0,6.6,2.1,6.6,6.6v29.4c0,4.5-2.1,6.6-6.6,6.6h-123.3c-60.6,0-84-21.6-84-79.2v-124.2c0-4.5,2.4-6.6,6.9-6.6h32.4Z" fill="#fff"/><path d="M1092.3,248.1c54,0,71.4,17.4,71.4,60.9v79.8c0,19.5-4.8,24-22.2,24h-142.8c-35.4,0-46.2-12.9-46.2-42.6v-14.4c0-25.2,10.8-39.3,46.2-39.3h122.1v-5.7c0-19.2-6.6-26.7-32.7-26.7h-125.4c-3.6,0-5.4-1.5-5.4-5.4v-25.2c0-3.6,1.8-5.4,5.4-5.4h129.6Zm28.5,121.5v-26.4h-109.8c-12.3,0-16.8,5.1-16.8,14.7v6.3c0,10.8,4.5,15.6,16.8,15.6h101.1c6.3,0,8.7-2.7,8.7-10.2Z" fill="#fff"/><path d="M1231.2,248.1c4.5,0,6.6,2.4,6.6,6.9v86.7c0,25.2,4.8,33,30.9,33h77.1c26.1,0,33-7.8,33-33v-86.7c0-4.5,2.1-6.9,6.6-6.9h29.4c4.5,0,6.6,2.4,6.6,6.9v97.2c0,43.5-17.4,60.6-71.4,60.6h-83.7c-54,0-71.4-17.1-71.4-60.6v-97.2c0-4.5,2.4-6.9,6.9-6.9h29.4Z" fill="#fff"/><path d="M1615.2,248.1c54,0,71.4,17.4,71.4,60.9v97.2c0,4.5-2.1,6.6-6.6,6.6h-29.4c-4.5,0-6.6-2.1-6.6-6.6v-87c0-25.2-5.1-33-30.9-33h-79.8c-25.8,0-32.7,7.8-32.7,33v87c0,4.5-2.1,6.6-6.6,6.6h-29.4c-4.5,0-6.9-2.1-6.9-6.6v-97.2c0-43.5,17.4-60.9,71.4-60.9h86.1Z" fill="#fff"/><path d="M1908.6,248.1c3.6,0,5.4,1.8,5.4,5.4v25.2c0,3.9-1.8,5.4-5.4,5.4h-116.4c-26.1,0-32.7,7.8-32.7,33v26.7c0,25.2,6.6,33,32.7,33h116.4c3.6,0,5.4,1.8,5.4,5.4v25.2c0,3.6-1.8,5.4-5.4,5.4h-120.6c-54,0-71.4-17.1-71.4-60.6v-43.2c0-43.5,17.4-60.9,71.4-60.9h120.6Z" fill="#fff"/><path d="M1978.8,187.8c4.5,0,6.6,2.1,6.6,6.6v53.7h112.2c54,0,71.4,17.4,71.4,60.9v97.2c0,4.5-2.1,6.6-6.6,6.6h-29.4c-4.5,0-6.6-2.1-6.6-6.6v-87c0-25.2-5.1-33-30.9-33h-110.1v120c0,4.5-2.1,6.6-6.6,6.6h-29.4c-4.5,0-6.6-2.1-6.6-6.6v-211.8c0-4.5,2.1-6.6,6.6-6.6h29.4Z" fill="#fff"/><path d="M2367,202.8c18,0,24,3.9,32.1,22.8l62.4,144c.9,2.1,2.1,2.7,4.2,2.7h3.6c2.1,0,3.3-.6,4.2-2.7l62.4-144c8.1-18.9,14.1-22.8,31.8-22.8h32.1c21,0,26.4,8.4,26.4,31.2v172.2c0,4.5-2.4,6.6-6.9,6.6h-30.6c-4.5,0-6.6-2.1-6.6-6.6v-156.6c0-2.1-.6-3-2.4-3h-2.7c-2.1,0-3.3.6-3.9,2.4l-60.6,134.4c-9.9,21.6-18.3,29.4-38.4,29.4h-14.4c-20.1,0-28.5-7.8-38.4-29.4L2360.7,249c-.6-1.8-1.8-2.4-3.9-2.4h-2.7c-1.8,0-2.4.9-2.4,3v156.6c0,4.5-2.1,6.6-6.6,6.6h-30.6c-4.5,0-6.9-2.1-6.9-6.6v-172.2c0-22.8,5.4-31.2,26.7-31.2h32.7Z" fill="#fff"/><path d="M2701.2,187.2c4.5,0,6.6,2.1,6.6,6.6v28.5c0,4.5-2.1,6.9-6.6,6.9h-29.4c-4.5,0-6.9-2.4-6.9-6.9v-28.5c0-4.5,2.4-6.6,6.9-6.6h29.4Zm0,60.9c4.5,0,6.6,2.4,6.6,6.9v151.2c0,4.5-2.1,6.6-6.6,6.6h-29.4c-4.5,0-6.6-2.1-6.6-6.6v-151.2c0-4.5,2.1-6.9,6.6-6.9h29.4Z" fill="#fff"/><path d="M2935.8,248.1c3.6,0,5.4,1.8,5.4,5.4v24c0,3.6-1.8,5.4-5.4,5.4h-135.3c-12.3,0-16.5,4.8-16.5,13.5v4.5c0,8.1,4.2,12.9,16.5,12.9h101.1c33.6,0,46.8,14.4,46.8,40.2v16.8c0,26.4-11.7,42-47.1,42h-153.6c-3.6,0-5.4-1.8-5.4-5.4v-24c0-3.6,1.8-5.4,5.4-5.4h142.2c12.3,0,16.8-4.2,16.8-14.4v-8.1c0-7.8-4.5-12.6-16.8-12.6h-100.8c-33.6,0-46.8-14.1-46.8-40.5v-13.2c0-24.9,11.7-41.1,47.1-41.1h146.4Z" fill="#fff"/><path d="M3170.7,248.1c3.6,0,5.4,1.8,5.4,5.4v24c0,3.6-1.8,5.4-5.4,5.4h-135.3c-12.3,0-16.5,4.8-16.5,13.5v4.5c0,8.1,4.2,12.9,16.5,12.9h101.1c33.6,0,46.8,14.4,46.8,40.2v16.8c0,26.4-11.7,42-47.1,42h-153.6c-3.6,0-5.4-1.8-5.4-5.4v-24c0-3.6,1.8-5.4,5.4-5.4h142.2c12.3,0,16.8-4.2,16.8-14.4v-8.1c0-7.8-4.5-12.6-16.8-12.6h-100.8c-33.6,0-46.8-14.1-46.8-40.5v-13.2c0-24.9,11.7-41.1,47.1-41.1h146.4Z" fill="#fff"/><path d="M3251.9,187.2c4.5,0,6.6,2.1,6.6,6.6v28.5c0,4.5-2.1,6.9-6.6,6.9h-29.4c-4.5,0-6.9-2.4-6.9-6.9v-28.5c0-4.5,2.4-6.6,6.9-6.6h29.4Zm0,60.9c4.5,0,6.6,2.4,6.6,6.9v151.2c0,4.5-2.1,6.6-6.6,6.6h-29.4c-4.5,0-6.6-2.1-6.6-6.6v-151.2c0-4.5,2.1-6.9,6.6-6.9h29.4Z" fill="#fff"/><path d="M3450.2,248.1c54,0,71.4,17.4,71.4,60.9v43.2c0,43.5-17.4,60.6-71.4,60.6h-84.9c-54,0-71.4-17.1-71.4-60.6v-43.2c0-43.5,17.4-60.9,71.4-60.9h84.9Zm-113.4,96.6c0,25.2,6.9,33,32.7,33h76.5c26.1,0,33-7.8,33-33v-28.5c0-25.2-6.9-32.7-33-32.7h-76.5c-25.8,0-32.7,7.5-32.7,32.7v28.5Z" fill="#fff"/><path d="M3713.6,248.1c54,0,71.4,17.4,71.4,60.9v97.2c0,4.5-2.1,6.6-6.6,6.6h-29.4c-4.5,0-6.6-2.1-6.6-6.6v-87c0-25.2-5.1-33-30.9-33h-79.8c-25.8,0-32.7,7.8-32.7,33v87c0,4.5-2.1,6.6-6.6,6.6h-29.4c-4.5,0-6.9-2.1-6.9-6.6v-97.2c0-43.5,17.4-60.9,71.4-60.9h86.1Z" fill="#fff"/><path d="M4012.1,248.1c3.6,0,5.4,1.8,5.4,5.4v24c0,3.6-1.8,5.4-5.4,5.4h-135.3c-12.3,0-16.5,4.8-16.5,13.5v4.5c0,8.1,4.2,12.9,16.5,12.9h101.1c33.6,0,46.8,14.4,46.8,40.2v16.8c0,26.4-11.7,42-47.1,42h-153.6c-3.6,0-5.4-1.8-5.4-5.4v-24c0-3.6,1.8-5.4,5.4-5.4h142.2c12.3,0,16.8-4.2,16.8-14.4v-8.1c0-7.8-4.5-12.6-16.8-12.6h-100.8c-33.6,0-46.8-14.1-46.8-40.5v-13.2c0-24.9,11.7-41.1,47.1-41.1h146.4Z" fill="#fff"/></g></g><g id="e7Zlpr4fXjU63_to" transform="translate(2405.572083,399.950027)"><g id="e7Zlpr4fXjU63" transform="translate(-2405.572083,-299.950027)" opacity="0"><path d="M867.9,169.3c15.3,0,24.6,4.8,34.5,22.8l99.3,180.3c2.1,3.9,1.2,6.9-3.6,6.9h-38.1c-3.9,0-5.4-.9-6.9-3.9l-21.3-38.7h-141l-20.7,38.7c-1.5,3-3.3,3.9-6.9,3.9h-39c-5.1,0-6-3-3.9-6.9l98.4-180.3c9.9-18,18.9-22.8,31.5-22.8h17.7ZM809.7,301.9h103.2L865.2,214c-.9-1.5-1.8-2.1-3.3-2.1h-1.8c-1.5,0-2.4.6-3.3,2.1l-47.1,87.9Z" fill="#fff"/><path d="M1201.8,214.6c3.6,0,5.4,1.8,5.4,5.4v25.2c0,3.9-1.8,5.4-5.4,5.4h-116.4c-26.1,0-32.7,7.8-32.7,33v26.7c0,25.2,6.6,33,32.7,33h116.4c3.6,0,5.4,1.8,5.4,5.4v25.2c0,3.6-1.8,5.4-5.4,5.4h-120.6c-54,0-71.4-17.1-71.4-60.6v-43.2c0-43.5,17.4-60.9,71.4-60.9h120.6Z" fill="#fff"/><path d="M1420.5,214.6c3.6,0,5.4,1.8,5.4,5.4v25.2c0,3.9-1.8,5.4-5.4,5.4h-116.4c-26.1,0-32.7,7.8-32.7,33v26.7c0,25.2,6.6,33,32.7,33h116.4c3.6,0,5.4,1.8,5.4,5.4v25.2c0,3.6-1.8,5.4-5.4,5.4h-120.6c-54,0-71.4-17.1-71.4-60.6v-43.2c0-43.5,17.4-60.9,71.4-60.9h120.6Z" fill="#fff"/><path d="M1607.1,214.6c41.1,0,51.9,12.9,51.9,49.2v28.5c0,12.9-5.4,17.1-17.1,17.1h-151.5v7.2c0,18.9,6.9,26.7,33,26.7h125.1c3.6,0,5.4,1.8,5.4,5.4v25.2c0,3.6-1.8,5.4-5.4,5.4h-129.3c-54,0-71.4-17.1-71.4-60.6v-43.2c0-43.5,17.4-60.9,71.4-60.9h87.9Zm-116.7,68.1h121.5c3.6,0,5.1-1.2,5.1-5.1v-12.6c0-12.3-4.5-17.1-18.3-17.1h-75.3c-26.1,0-33,7.5-33,26.7v8.1Z" fill="#fff"/><path d="M1727.4,154.3c4.5,0,6.6,2.1,6.6,6.6v211.8c0,4.5-2.1,6.6-6.6,6.6h-29.4c-4.5,0-6.6-2.1-6.6-6.6v-211.8c0-4.5,2.1-6.6,6.6-6.6h29.4Z" fill="#fff"/><path d="M1924.8,214.6c41.1,0,51.9,12.9,51.9,49.2v28.5c0,12.9-5.4,17.1-17.1,17.1h-151.5v7.2c0,18.9,6.9,26.7,33,26.7h125.1c3.6,0,5.4,1.8,5.4,5.4v25.2c0,3.6-1.8,5.4-5.4,5.4h-129.3c-54,0-71.4-17.1-71.4-60.6v-43.2c0-43.5,17.4-60.9,71.4-60.9h87.9Zm-116.7,68.1h121.5c3.6,0,5.1-1.2,5.1-5.1v-12.6c0-12.3-4.5-17.1-18.3-17.1h-75.3c-26.1,0-33,7.5-33,26.7v8.1Z" fill="#fff"/><path d="M2163.3,214.6c3.6,0,5.4,1.8,5.4,5.4v25.2c0,3.9-1.8,5.4-5.4,5.4h-79.8c-25.8,0-32.7,7.8-32.7,33v89.1c0,4.5-2.1,6.6-6.6,6.6h-29.4c-4.5,0-6.9-2.1-6.9-6.6v-97.2c0-43.5,17.4-60.9,71.4-60.9h84Z" fill="#fff"/><path d="M2325.9,214.6c54,0,71.4,17.4,71.4,60.9v79.8c0,19.5-4.8,24-22.2,24h-142.8c-35.4,0-46.2-12.9-46.2-42.6v-14.4c0-25.2,10.8-39.3,46.2-39.3h122.1v-5.7c0-19.2-6.6-26.7-32.7-26.7h-125.4c-3.6,0-5.4-1.5-5.4-5.4v-25.2c0-3.6,1.8-5.4,5.4-5.4h129.6Zm28.5,121.6v-26.4h-109.8c-12.3,0-16.8,5.1-16.8,14.7v6.3c0,10.8,4.5,15.6,16.8,15.6h101.1c6.3,0,8.7-2.7,8.7-10.2Z" fill="#fff"/><path d="M2449.5,214.6v-39.6c0-4.5,2.4-6.6,6.6-6.6h29.7c4.2,0,6.6,2.1,6.6,6.6v39.6h52.5c3.9,0,5.4,1.8,5.4,5.4v24.6c0,3.6-1.5,5.4-5.4,5.4h-52.5v69.6c0,16.5,5.4,24.3,25.2,24.3h29.1c3.9,0,5.4,1.8,5.4,5.4v24.6c0,3.6-1.5,5.4-5.4,5.4h-36.3c-48,0-60.9-17.1-60.9-59.7v-69.6h-28.5c-3.6,0-5.4-1.8-5.4-5.4v-24.6c0-3.6,1.8-5.4,5.4-5.4h28.5Z" fill="#fff"/><path d="M2729.1,214.6c41.1,0,51.9,12.9,51.9,49.2v28.5c0,12.9-5.4,17.1-17.1,17.1h-151.5v7.2c0,18.9,6.9,26.7,33,26.7h125.1c3.6,0,5.4,1.8,5.4,5.4v25.2c0,3.6-1.8,5.4-5.4,5.4h-129.3c-54,0-71.4-17.1-71.4-60.6v-43.2c0-43.5,17.4-60.9,71.4-60.9h87.9Zm-116.7,68.1h121.5c3.6,0,5.1-1.2,5.1-5.1v-12.6c0-12.3-4.5-17.1-18.3-17.1h-75.3c-26.1,0-33,7.5-33,26.7v8.1Z" fill="#fff"/><path d="M3122.9,169.3c4.5,0,6.6,2.1,6.6,6.6v28.5c0,4.5-2.1,6.6-6.6,6.6h-150.3c-11.4,0-15.9,6.3-15.9,16.8v10.2c0,11.1,5.1,16.8,15.6,16.8h112.5c34.5,0,52.5,18.6,52.5,51.6v24c0,29.1-16.8,48.9-53.1,48.9h-166.2c-4.5,0-6.9-2.1-6.9-6.6v-28.5c0-4.5,2.4-6.6,6.9-6.6h157.5c11.4,0,15.9-6.3,15.9-16.8v-12.3c0-11.1-5.1-16.8-15.6-16.8h-112.5c-34.5,0-52.5-18.6-52.5-51.6v-21.9c0-29.1,16.8-48.9,53.1-48.9h159Z" fill="#fff"/><path d="M3325.1,214.6c54,0,71.4,17.4,71.4,60.9v43.2c0,43.5-17.4,60.6-71.4,60.6h-112.5v59.7c0,4.5-2.1,6.6-6.6,6.6h-29.4c-4.5,0-6.9-2.1-6.9-6.6v-163.5c0-43.5,17.4-60.9,71.4-60.9h84ZM3212.6,343.4h108.3c26.1,0,33-7.5,33-33v-26.7c0-25.2-6.9-33-33-33h-75.6c-25.8,0-32.7,7.8-32.7,33v59.7Z" fill="#fff"/><path d="M3565.1,214.6c54,0,71.4,17.4,71.4,60.9v79.8c0,19.5-4.8,24-22.2,24h-142.8c-35.4,0-46.2-12.9-46.2-42.6v-14.4c0-25.2,10.8-39.3,46.2-39.3h122.1v-5.7c0-19.2-6.6-26.7-32.7-26.7h-125.4c-3.6,0-5.4-1.5-5.4-5.4v-25.2c0-3.6,1.8-5.4,5.4-5.4h129.6Zm28.5,121.6v-26.4h-109.8c-12.3,0-16.8,5.1-16.8,14.7v6.3c0,10.8,4.5,15.6,16.8,15.6h101.1c6.3,0,8.7-2.7,8.7-10.2Z" fill="#fff"/><path d="M3853.4,214.6c3.6,0,5.4,1.8,5.4,5.4v25.2c0,3.9-1.8,5.4-5.4,5.4h-116.4c-26.1,0-32.7,7.8-32.7,33v26.7c0,25.2,6.6,33,32.7,33h116.4c3.6,0,5.4,1.8,5.4,5.4v25.2c0,3.6-1.8,5.4-5.4,5.4h-120.6c-54,0-71.4-17.1-71.4-60.6v-43.2c0-43.5,17.4-60.9,71.4-60.9h120.6Z" fill="#fff"/><path d="M4040,214.6c41.1,0,51.9,12.9,51.9,49.2v28.5c0,12.9-5.4,17.1-17.1,17.1h-151.5v7.2c0,18.9,6.9,26.7,33,26.7h125.1c3.6,0,5.4,1.8,5.4,5.4v25.2c0,3.6-1.8,5.4-5.4,5.4h-129.3c-54,0-71.4-17.1-71.4-60.6v-43.2c0-43.5,17.4-60.9,71.4-60.9h87.9Zm-116.7,68.1h121.5c3.6,0,5.1-1.2,5.1-5.1v-12.6c0-12.3-4.5-17.1-18.3-17.1h-75.3c-26.1,0-33,7.5-33,26.7v8.1Z" fill="#fff"/></g></g></g><g id="e7Zlpr4fXjU79_to" transform="translate(339.571753,360)"><g id="e7Zlpr4fXjU79" transform="translate(456.966003,-300.69696)"><g id="e7Zlpr4fXjU80" opacity="0"><line id="e7Zlpr4fXjU81" x1="-704.3" y1="473.8" x2="-704.3" y2="441.5" fill="none" stroke="#fff" stroke-width="40" stroke-linecap="round" stroke-linejoin="round" stroke-dashoffset="32.31" stroke-dasharray="32.31"/><line id="e7Zlpr4fXjU82" x1="-644.3" y1="473.8" x2="-644.3" y2="436.5" fill="none" stroke="#fff" stroke-width="40" stroke-linecap="round" stroke-linejoin="round" stroke-dashoffset="37.31" stroke-dasharray="37.31"/><line id="e7Zlpr4fXjU83" x1="-584.3" y1="473.8" x2="-584.3" y2="426.5" fill="none" stroke="#fff" stroke-width="40" stroke-linecap="round" stroke-linejoin="round" stroke-dashoffset="47.31" stroke-dasharray="47.31"/><line id="e7Zlpr4fXjU84" x1="-524.3" y1="473.8" x2="-524.3" y2="410.5" fill="none" stroke="#fff" stroke-width="40" stroke-linecap="round" stroke-linejoin="round" stroke-dashoffset="63.31" stroke-dasharray="63.31"/><line id="e7Zlpr4fXjU85" x1="-464.3" y1="473.8" x2="-464.3" y2="385.5" fill="none" stroke="#fff" stroke-width="40" stroke-linecap="round" stroke-linejoin="round" stroke-dashoffset="88.31" stroke-dasharray="88.31"/><line id="e7Zlpr4fXjU86" x1="-404.3" y1="473.8" x2="-404.3" y2="345.5" fill="none" stroke="#fff" stroke-width="40" stroke-linecap="round" stroke-linejoin="round" stroke-dashoffset="128.31" stroke-dasharray="128.31"/><line id="e7Zlpr4fXjU87" x1="-344.3" y1="473.8" x2="-344.3" y2="287.5" fill="none" stroke="#fff" stroke-width="40" stroke-linecap="round" stroke-linejoin="round" stroke-dashoffset="186.3" stroke-dasharray="186.3"/><line id="e7Zlpr4fXjU88" x1="-284.3" y1="473.8" x2="-284.3" y2="186.5" fill="none" stroke="#fff" stroke-width="40" stroke-linecap="round" stroke-linejoin="round" stroke-dashoffset="287.3" stroke-dasharray="287.3"/><line id="e7Zlpr4fXjU89" x1="-224.3" y1="473.8" x2="-224.3" y2="36.5" fill="none" stroke="#fff" stroke-width="40" stroke-linecap="round" stroke-linejoin="round" stroke-dashoffset="437.3" stroke-dasharray="437.3"/></g><g><line id="e7Zlpr4fXjU91" x1="-762.1" y1="530.7" x2="-762.1" y2="128.6" opacity="0" fill="none" stroke="#fff" stroke-width="20" stroke-linecap="round" stroke-linejoin="round" stroke-dashoffset="402" stroke-dasharray="402.1"/><g id="e7Zlpr4fXjU92_to" transform="translate(-762.069092,493.059414)"><path id="e7Zlpr4fXjU92" d="M-767.4,85.5l-28,48.6c-2.9,5,2.3,10.8,7.6,8.5l22.4-10c1.5-.7,3.3-.7,4.8,0l24.3,10.4c5.3,2.3,10.4-3.5,7.6-8.5L-757,85.6c-2.3-4-8.1-4-10.4,0v-.1Z" transform="translate(762.069092,-113.059414)" opacity="0" fill="#fff" stroke-width="20" stroke-linecap="round" stroke-linejoin="round"/></g></g><g><line id="e7Zlpr4fXjU94" x1="-160" y1="530.7" x2="-762.1" y2="530.7" transform="matrix(-1 0 0-1-922.099976 1061.400024)" opacity="0" fill="none" stroke="#fff" stroke-width="20" stroke-linecap="round" stroke-linejoin="round" stroke-dashoffset="602.1" stroke-dasharray="602.1"/><g id="e7Zlpr4fXjU95_to" transform="translate(-746.069092,530.059414)"><path id="e7Zlpr4fXjU95" d="M-767.4,85.5l-28,48.6c-2.9,5,2.3,10.8,7.6,8.5l22.4-10c1.5-.7,3.3-.7,4.8,0l24.3,10.4c5.3,2.3,10.4-3.5,7.6-8.5L-757,85.6c-2.3-4-8.1-4-10.4,0v-.1Z" transform="rotate(90) translate(762.069092,-113.059414)" opacity="0" fill="#fff" stroke-width="20" stroke-linecap="round" stroke-linejoin="round"/></g></g></g></g></g></svg>
