<?xml version="1.0" encoding="UTF-8"?>
<svg stroke="none" id="Layer_1" data-name="Layer 1" xmlns="http://www.w3.org/2000/svg" version="1.1" viewBox="0 0 1191.8 653.3">
  <defs>
    <style>
      .cls-1 {
        fill: #fff;
        stroke-width: 0px;
      }
    </style>
  </defs>
  <path class="cls-1" d="M969.3,0c9.3,12,17,20.8,22.7,27,3.6,3.8,6.3,6.6,8.2,8.4.9.9,1.7,1.6,2.1,2s.4.4.6.5c0,0,0,0,0,0,0,0,0,0,0,0h0s0,0,0,0c5.9,5.5,13.5,7.6,22.2,7.2,8.7-.4,18.6-3.3,29.2-7.8,17.5-7.5,37.2-19.4,57.2-32-5.4,4.1-12.3,9.4-19.7,15.3-17.5,14-38.1,31.9-50.4,47.2h0c-5.4,6.7-5.2,15.9-2.6,25.4,1.8,6.6,4.9,13.4,8.2,19.7-2-2.5-4.6-5.5-7.6-8.5-3.9-4-8.4-8-13.2-11-4.8-3.1-10.1-5.3-15.3-5.5-9.5-.6-20.5,3.3-29,7.4-3.6,1.7-6.7,3.4-9.2,4.8,2.8-2.5,6.4-5.9,10.1-9.8,3.8-4,7.5-8.5,10.4-13.2,2.8-4.6,4.8-9.3,4.9-13.6.1-4.7-2-11.7-5.3-19.5-3.3-7.8-7.7-16.4-12.1-24.4-4.1-7.4-8.2-14.4-11.4-19.7Z"/>
  <path class="cls-1" d="M1191.8,340.1c-453.9-52.6-272-199.9-247.9-214.3-10.8,6.4-432.3,272.6-739.6,466.9-71.7,47.7-175.9,62.2-204.2,60.4v22.4h1191.8v-335.4Z"/>
</svg>