<?xml version="1.0" encoding="utf-8"?>
<!-- Generator: Adobe Illustrator 27.9.4, SVG Export Plug-In . SVG Version: 9.03 Build 54784)  -->
<svg version="1.1" id="Layer_1" xmlns="http://www.w3.org/2000/svg" xmlns:xlink="http://www.w3.org/1999/xlink" x="0px" y="0px"
	 viewBox="0 0 717.5 517.2" style="enable-background:new 0 0 717.5 517.2;" xml:space="preserve">
<style type="text/css">
	.st0{fill:url(#SVGID_1_);}
	.st1{fill:url(#SVGID_00000114769562641358347750000013663842390510674848_);}
	.st2{fill:#FFFFFF;}
</style>
<linearGradient id="SVGID_1_" gradientUnits="userSpaceOnUse" x1="0" y1="261.4" x2="717.5" y2="261.4" gradientTransform="matrix(1 0 0 -1 0 520)">
	<stop  offset="0" style="stop-color:#090D21"/>
	<stop  offset="0.8" style="stop-color:#020617"/>
</linearGradient>
<path class="st0" d="M83.3,376.7C135.2,344.4,527.7,112.1,717.5,0H0v517.2C0,476.8,18.5,417.2,83.3,376.7z"/>
<linearGradient id="SVGID_00000071533917522597782480000005587647907558760599_" gradientUnits="userSpaceOnUse" x1="255.765" y1="80.9" x2="255.765" y2="461.4204">
	<stop  offset="0" style="stop-color:#3244A8"/>
	<stop  offset="1" style="stop-color:#723F75"/>
</linearGradient>
<path style="fill:url(#SVGID_00000071533917522597782480000005587647907558760599_);" d="M446,272.6
	c-0.8,106.3-87.6,190.8-193.9,188.8c-0.6,0-1.1,0-1.7,0c-19.8-0.5-38.8-7.8-53.7-20.9c-74-65,9.1-135.9,26-146.1
	c-7,4.2-62.3,36.2-129.3,76.1c-18-29-27.9-62.7-27.9-99.3c0-105.1,85.2-190.3,190.3-190.3C361.3,80.9,446.8,166.8,446,272.6z"/>
<path class="st2" d="M109.4,197.3c41.3,0,74.9-33.4,74.9-74.6c0-41.2-33.5-74.6-74.9-74.6c-41.3,0-74.9,33.4-74.9,74.6
	C34.5,163.9,68.1,197.3,109.4,197.3z"/>
<path class="st2" d="M247.6,276.4c0,0,29-16.5,49.8-14c22.8,2.7,43.4,38.9,43.4,38.9c-9.3-18.4-19.5-45.3-6.9-59.1
	c29.9-32.4,97.6-73.2,97.6-73.2c-56.8,31-114.2,61.9-138.5,36c0,0-16.8-16.3-42.2-56.2c0,0,35.6,64,33.7,84.7
	C282.8,252.3,247.6,276.4,247.6,276.4z"/>
</svg>
