<?xml version="1.0" encoding="utf-8"?>
<!-- Generator: Adobe Illustrator 27.9.4, SVG Export Plug-In . SVG Version: 9.03 Build 54784)  -->
<svg version="1.1" id="Layer_1" xmlns="http://www.w3.org/2000/svg" xmlns:xlink="http://www.w3.org/1999/xlink" x="0px" y="0px"
	 viewBox="0 0 717.5 517.2" style="enable-background:new 0 0 717.5 517.2;" xml:space="preserve">
<style type="text/css">
	.st2{fill:#F2F2F2;}
	.st3{fill:#FFFFFF;}
</style>
<linearGradient id="SVGID_00000156545192778001196120000011054892645522955447_" gradientUnits="userSpaceOnUse" x1="255.765" y1="80.9" x2="255.765" y2="409.0767">
	<stop  offset="0" style="stop-color:#3244A8"/>
	<stop  offset="1" style="stop-color:#723F75"/>
</linearGradient>
<path style="fill:url(#SVGID_00000156545192778001196120000011054892645522955447_);" d="M446,270.4c0.1,31.2-7.3,60.7-20.5,86.7
	c-31.6,62.2-117.8,70.6-158.6,14c-42.8-59.3,26.5-118.4,42.3-128.1c-11.1,6.6-115.7,68.8-215.3,128.1c-18-29.1-28.4-63.3-28.4-100
	c0-105.1,85.2-190.3,190.3-190.3C360.9,80.9,445.6,165.3,446,270.4z"/>
<path class="st2" d="M137.4,226.4c51.2,0,92.8-41.4,92.8-92.4c0-51-41.5-92.4-92.8-92.4C86.1,41.6,44.6,83,44.6,134
	C44.6,185.1,86.1,226.4,137.4,226.4z"/>
<path class="st3" d="M334.5,225c0,0,29-16.5,49.8-14c22.8,2.7,43.4,38.9,43.4,38.9c-9.3-18.4-19.5-45.3-6.9-59.1
	c29.9-32.4,97.6-73.2,97.6-73.2c-56.8,31-114.2,61.9-138.5,36c0,0-16.8-16.3-42.2-56.2c0,0,35.6,64,33.7,84.7
	C369.7,200.9,334.5,225,334.5,225z"/>
</svg>
