<?xml version="1.0" encoding="UTF-8"?>
<svg id="Layer_1" xmlns="http://www.w3.org/2000/svg" xmlns:xlink="http://www.w3.org/1999/xlink" version="1.1" viewBox="0 0 572.3 482.4">
  <!-- Generator: Adobe Illustrator 29.2.1, SVG Export Plug-In . SVG Version: 2.1.0 Build 116)  -->
  <defs>
    <style>
      .st0 {
        fill: url(#linear-gradient2);
      }

      .st1 {
        fill: url(#linear-gradient1);
      }

      .st2 {
        fill: url(#linear-gradient3);
      }

      .st3 {
        fill: url(#linear-gradient);
      }
    </style>
    <linearGradient id="linear-gradient" x1="65.9" y1="216.6" x2="324.5" y2="45" gradientUnits="userSpaceOnUse">
      <stop offset="0" stop-color="#435eeb"/>
      <stop offset="1" stop-color="#6c3f78"/>
    </linearGradient>
    <linearGradient id="linear-gradient1" x1="126.7" y1="308.2" x2="385.3" y2="136.5" xlink:href="#linear-gradient"/>
    <linearGradient id="linear-gradient2" x1="201.3" y1="420.7" x2="460" y2="249" xlink:href="#linear-gradient"/>
    <linearGradient id="linear-gradient3" x1="106.1" y1="277.2" x2="364.7" y2="105.5" xlink:href="#linear-gradient"/>
  </defs>
  <path class="st3" d="M117.8,209.6c-1-29.1-25.2-52.8-54.6-52.8s-54.6,24.6-54.6,54.6,24.7,54.6,54.6,54.6,48.1-18.4,53.4-43.3h49.1v-13.2h-47.9ZM65.4,211.7l-2.2-.2h2.2v.2Z"/>
  <path class="st1" d="M290.4,334.9c-74.7,0-135.4-60.7-135.4-135.4s60.7-135.4,135.4-135.4,135.4,60.7,135.4,135.4-60.7,135.4-135.4,135.4ZM290.4,74.9c-68.7,0-124.6,55.9-124.6,124.6s55.9,124.6,124.6,124.6,124.6-55.9,124.6-124.6-55.9-124.6-124.6-124.6Z"/>
  <path class="st0" d="M226,367.9c-27.6-10.6-59.4,2.7-71,30.1s1.4,60.9,29.4,72.8c28,11.9,60.9-1.4,72.8-29.4,10.3-24.2,1.9-52.3-19.3-67.2l19.5-45.9-12.3-5.2-19,44.8ZM207.1,417.7l-1.1,2,.9-2h.2Z"/>
  <path class="st2" d="M135.4,318.8s81.4-64.6,82.2-110.5C219,157.5,121.7,7.3,121.7,7.3c68.5,93.1,111.7,130.1,111.7,130.1,63.6,59.2,197.2-26.7,330.3-111.7,0,0-157.3,111.7-224.8,195.6-28.6,35.6.8,99.5,27.4,142.9,0,0-56.1-84.8-112.1-87.8-51-2.6-118.8,42.5-118.8,42.5Z"/>
</svg>