<?xml version="1.0" encoding="UTF-8"?>
<svg id="Layer_1" data-name="Layer 1" xmlns="http://www.w3.org/2000/svg" viewBox="0 0 509.31 509.2">
  <defs>
    <style>
      .cls-1 {
        fill: #fff;
        stroke-width: 0px;
      }
    </style>
  </defs>
  <g id="Astronaut">
    <path class="cls-1" d="M465.62,118.54c-13.96-37.46-36.09-56.15-42.53-60.99l-.15-.12C347.16-6.08,238.24-16.11,151.92,32.43l-.6.34-.56.56h-.5c-.16.09-.35.16-.53.22-24.24,13.99-45.79,32.05-64.05,53.7-41.47,49.33-59.17,114.19-52.58,192.78,7.55,92.67,35.36,161.39,51.28,194.1,8.34,17.1,23.93,28.88,42.79,32.33,2.95.42,6.33.84,9.23.84,10.31,0,20.32-2.61,28.96-7.55l154.39-88.54c5.66-3.31,11.92-4.91,19.1-4.91h62.3c3.52,0,6.85-1.92,8.49-4.88l.27-.4c1.61-2.36,27.36-47.89,44-93.86,26.92-73.74,30.85-137.2,11.7-188.64ZM60.47,177.59c8.19-29.54,21.73-55.73,40.32-77.94,6-7.09,16.59-8.08,23.63-2.22,7.09,6.01,8.08,16.6,2.22,23.64-15.76,18.81-27.03,40.63-33.54,64.85-1.63,7.86-8.02,12.94-16.32,12.94-1.4,0-2.74,0-4.55-.58-4.29-1.11-7.87-3.91-10.1-7.9-2.16-3.9-2.76-8.43-1.67-12.79ZM70.96,293.61l-.2.02h-1.54c-8.75,0-16.31-7.07-16.86-15.75-.9-10.81-1.33-21.09-1.33-31.36,0-8.98,7.87-16.87,16.86-16.87s16.86,7.57,16.86,16.87.44,18.96,1.32,28.6c1.08,9.19-5.54,17.36-15.1,18.48ZM435.61,300.22h0c-11.51,31.65-27.96,63.41-36.8,80.47l-3.06,5.94h-56.87c-10.31,0-20.32,2.61-28.96,7.55l-154.4,88.11c-5.85,3.29-12.27,4.97-18.88,4.97-2.18,0-4.37-.19-6.57-.55-12.41-1.99-23.03-9.87-28.4-21.08-5.61-11.24-11.98-26.44-18.37-43.91l-.89-2.42,217.4-167.98c12.43-9.53,20.04-24.16,20.88-40.12.83-15.8-5.26-31.2-16.73-42.23L172.98,43.48l4.68-2.15c76.69-35.33,168.1-23.08,232.88,31.2l.11.08c.6.39,1.02.81,1.32,1.23,4.82,3.64,22.72,18.87,34.75,51.1,12.15,32.54,20.1,89.37-11.11,175.29Z"/>
    <path class="cls-1" d="M438.88,495.34c-.68,2.56-2.3,4.75-4.53,6.01-1.45.88-3.01,1.29-4.87,1.29-3.5,0-6.69-1.86-8.53-4.91l-36.49-63.62c-2.62-4.59-.94-10.87,3.59-13.46,1.43-.81,3.09-1.23,4.78-1.23.89,0,1.8.12,2.69.35,2.57.69,4.75,2.32,5.98,4.47l36.49,63.64c1.25,2.18,1.57,4.9.88,7.47Z"/>
  </g>
</svg>