<?xml version="1.0" encoding="UTF-8"?>
<svg id="Layer_1" data-name="Layer 1" xmlns="http://www.w3.org/2000/svg" version="1.1" viewBox="0 0 116.5 111.2">
  <defs>
    <style>
      .cls-1 {
        fill: #fff;
        stroke-width: 0px;
      }
    </style>
  </defs>
  <path class="cls-1" d="M48.5,39.6l-3-3c3.2-2.7,7.1-4.4,11.3-4.7v4.2c-3.1.3-6,1.5-8.4,3.5ZM43,52.7h-4.2c.3,4.2,1.9,8.2,4.7,11.3l2.9-3c-2-2.4-3.2-5.3-3.5-8.4ZM57.5,47.6c-2.1.4-3.4,2.4-3,4.5s2.4,3.4,4.5,3c1.5-.3,2.7-1.5,3-3,.4-2.1-.9-4.1-2.9-4.5-.5-.1-1-.1-1.5,0h0ZM45.5,66c3.2,2.7,7.1,4.4,11.3,4.7v-4.2c-3.1-.3-6-1.5-8.4-3.5l-2.9,2.9ZM71,36.6c-3.2-2.7-7.1-4.4-11.3-4.7v4.2c3.1.3,6,1.5,8.4,3.5l2.9-3ZM15.2,40.9v-6.9c0-1.2-.9-2.1-2.1-2.1-1.2,0-2.1.9-2.1,2.1v6.9c0,1.2.9,2.1,2.1,2.1,1.2,0,2.1-.9,2.1-2.1h0ZM81.3,98.2c0,1.1,1,2,2.1,2h10.5c1.2,0,2.1-.9,2.1-2.1v-3.8h-14.7v3.9ZM15.2,68.7v-7c0-1.2-.9-2.1-2.1-2.1-1.2,0-2.1.9-2.1,2.1v7c0,1.2.9,2.1,2.1,2.1,1.2,0,2.1-.9,2.1-2.1ZM46.5,41.5l-2.9-2.9c-2.7,3.2-4.4,7.1-4.7,11.3h4.2c.3-3.1,1.5-6,3.5-8.4ZM20.6,98.2c0,1.1,1,2,2.1,2h10.4c1.2,0,2.1-.9,2.1-2.1v-3.8h-14.6v3.9ZM70,41.5c2,2.4,3.2,5.3,3.5,8.4h4.2c-.3-4.2-1.9-8.2-4.7-11.3l-2.9,2.9ZM99.9,81.1H16.6c-1.1,0-2.1-.9-2.1-2.1,0,0,0,0,0,0v-5.7c2.1-.6,3.5-2.5,3.5-4.6v-7c0-2.1-1.4-4-3.5-4.6v-11.6c2.1-.6,3.5-2.5,3.5-4.6v-6.9c0-2.1-1.4-4-3.5-4.6v-5.8c0-1.1.9-2.1,2.1-2.1,0,0,0,0,0,0h83.3c1.1,0,2.1.9,2.1,2.1,0,0,0,0,0,0v55.6c0,1.1-1,2-2.1,2ZM80.5,51.3h0c0-5.9-2.3-11.5-6.4-15.6,0,0,0,0,0-.1,0,0,0,0-.1,0-4.1-4.1-9.7-6.4-15.5-6.4h-.2c-5.8,0-11.4,2.3-15.5,6.4,0,0,0,0-.1,0h0c-4.1,4.3-6.3,9.8-6.4,15.6h0v.2c0,5.8,2.3,11.4,6.4,15.5,0,0,.1.2.2.2,4.1,4.1,9.7,6.4,15.5,6.4h.2c5.8,0,11.4-2.3,15.5-6.4,0,0,.2-.1.2-.2,4.1-4.1,6.4-9.7,6.4-15.5h0ZM59.6,66.5v4.2c4.2-.3,8.2-1.9,11.3-4.7l-2.9-2.9c-2.4,2-5.3,3.2-8.4,3.5ZM60.4,63.6c-6.8,1.2-13.3-3.4-14.5-10.2s3.4-13.3,10.2-14.5c6.8-1.2,13.3,3.4,14.5,10.2.2,1.4.2,2.9,0,4.3-.9,5.2-5,9.3-10.2,10.2ZM64.6,49.5c-.6-2.2-2.3-4-4.6-4.6-3.5-1-7.2,1-8.2,4.5-.3,1.2-.3,2.4,0,3.6.6,2.2,2.3,4,4.6,4.6,3.5,1,7.2-1.1,8.2-4.6.3-1.2.3-2.4,0-3.6ZM97.3,91.5H9.6c-3.1,0-5.6-2.5-5.6-5.6h0V16.6c0-3,2.5-5.5,5.6-5.5h97.2c3.1,0,5.6,2.5,5.6,5.6h0v69.4c0,3.1-2.5,5.6-5.6,5.6h-9.5ZM99.9,83.9c2.7,0,4.9-2.2,4.9-4.9V23.5c0-2.7-2.2-4.8-4.8-4.8H16.6c-2.7,0-4.9,2.2-4.9,4.9v5.8c-2.1.6-3.5,2.5-3.5,4.6v6.9c0,2.1,1.4,4,3.5,4.6v11.6c-2.1.6-3.5,2.5-3.5,4.6v7c0,2.1,1.4,4,3.5,4.6v5.8c0,2.7,2.2,4.9,4.9,4.9h83.3ZM70,60.9l2.9,3c2.7-3.2,4.4-7.1,4.7-11.3h-4.1c-.3,3.1-1.5,6.1-3.5,8.5h0Z"/>
</svg>