<?xml version="1.0" encoding="UTF-8"?>
<svg id="Layer_1" data-name="Layer 1" xmlns="http://www.w3.org/2000/svg" version="1.1" viewBox="0 0 84 76">
  <defs>
    <style>
      .cls-1 {
        fill: #fff;
        stroke-width: 0px;
      }
    </style>
  </defs>
  <path class="cls-1" d="M77.6,52.3h0s-4.5-39.1-4.5-39.1c-.1-1.1-1.1-2-2.2-2h-21.4v-6.7c0-1.2-1-2.2-2.2-2.2h-10.6c-1.2,0-2.2,1-2.2,2.2v6.7H13.1c-1.1,0-2.1.9-2.2,2l-4.4,38.9h0c0,.2,0,.3,0,.4v19c0,1.2,1,2.2,2.2,2.2h66.8c1.2,0,2.2-1,2.2-2.2v-19h0c0-.2,0-.2,0-.2ZM15,15.7h19.4v7.8h-8.5c0,0-.2,0-.2,0-1.2.1-2.1,1.2-2,2.4,0,.4.2.8.5,1.1l16,20.9c.8,1,2.1,1.2,3.1.4.2-.1.3-.3.4-.4l16-20.9c.8-1,.6-2.4-.4-3.1-.3-.2-.6-.3-.9-.4h-.2s0,0,0,0c0,0-.1,0-.2,0h-8.6v-7.8h19.4l3.9,34.6h-19.4c-1.2,0-2.1.9-2.2,2.1v6.4h-18.6v-6.3c0-1.1-.8-2-1.9-2.2,0,0-.2,0-.2,0,0,0,0,0-.1,0H11.1l3.9-34.6ZM73.2,69.2H10.8v-14.5h17.4v6.3c0,1.2,1,2.2,2.2,2.2h23.1c1.2,0,2.2-1,2.2-2.2v-6.3h17.4v14.5Z"/>
</svg>