<?xml version="1.0" encoding="UTF-8"?>
<svg id="Layer_1" data-name="Layer 1" xmlns="http://www.w3.org/2000/svg" version="1.1" viewBox="0 0 84 76">
  <defs>
    <style>
      .cls-1 {
        fill: #fff;
        stroke-width: 0px;
      }
    </style>
  </defs>
  <path class="cls-1" d="M84,20.8c-.4-3.9-3.6-6.8-7.5-6.8h-15.7C59.9,6,54.9,0,48.7,0h-13.3c-6.8,0-11.6,7.3-12.1,14H7.5C3.3,14,0,17.4,0,21.6v46.9c0,4.1,3.4,7.5,7.5,7.5h69c4.1,0,7.5-3.4,7.5-7.5V21.6c0-.2,0-.5,0-.8h0ZM35,46.1c0,0,0,0,0-.1v-6h14v6.1c.6,10.5-14.4,10.3-14,0h0ZM30.5,8c.8-1.1,2.5-3,4.9-3h13.3c3.4,0,6.3,3.9,7.1,9h-27.5c.3-2.3,1.1-4.4,2.2-6ZM79,68.9c0,1.1-.9,2.1-2.1,2.1H7.1c-1.1,0-2.1-.9-2.1-2.1v-28.4c4.2,2.2,11.7,4.7,25.1,7.6,1.8,14.3,22.2,14.4,23.9,0,13.3-2.9,20.9-5.4,25.1-7.6v28.4Z"/>
</svg>