<?xml version="1.0" encoding="UTF-8"?>
<svg id="Layer_1" xmlns="http://www.w3.org/2000/svg" version="1.1" viewBox="0 0 446.2 466.4">
  <!-- Generator: Adobe Illustrator 29.2.1, SVG Export Plug-In . SVG Version: 2.1.0 Build 116)  -->
  <defs>
    <style>
      .st0 {
        fill: #fff;
      }
    </style>
  </defs>
  <path class="st0" d="M288.2,466.4H46.5c-25.6,0-46.5-18.7-46.5-41.6V141.6c0-23,20.9-41.6,46.5-41.6h46.5c6.1.5,12.4.2,18.6.6v-58.9c0-23,20.9-41.6,46.5-41.6h46.7c13.4,0,26.8,1,40,3,116.7,17.6,201.4,107.4,201.4,213.6v108.3c0,23-20.8,41.6-46.5,41.6h-65.1v58.3c0,23-20.8,41.6-46.5,41.6ZM46.5,133.3c-5.1,0-9.3,3.7-9.3,8.3v283.2c0,4.6,4.2,8.3,9.3,8.3h241.7c5.1,0,9.3-3.7,9.3-8.3v-58.3h-139.4c-25.6,0-46.5-18.7-46.5-41.6v-190.8c-6.2-.5-12.2,0-18.6-.7h-46.5ZM316.1,333.1h83.7c5.1,0,9.3-3.7,9.3-8.3v-99.9c0-32.1-29.2-58.3-65.1-58.3h-37.2c-25.6,0-46.5-18.7-46.5-41.6v-33.3c0-32.1-29.2-58.3-65.1-58.3h-37.2c-5.1,0-9.3,3.7-9.3,8.3v283.2c0,4.6,4.2,8.3,9.3,8.3h158ZM285.1,48c7.9,13,12.4,27.8,12.4,43.6v33.3c0,4.6,4.2,8.3,9.3,8.3h37.2c17.6,0,34.2,4,48.7,11.1-20.5-43-58.8-77.8-107.6-96.4Z"/>
</svg>