<?xml version="1.0" encoding="UTF-8"?>
<svg id="Layer_1" data-name="Layer 1" xmlns="http://www.w3.org/2000/svg" version="1.1" viewBox="0 0 116.5 111.2">
  <defs>
    <style>
      .cls-1 {
        fill: #fff;
        stroke-width: 0px;
      }
    </style>
  </defs>
  <path class="cls-1" d="M64.1,3c-8.8-.6-17.5,1.1-25.4,4.9-7.9,3.8-14.6,9.7-19.5,17-4.9,7.3-7.8,15.7-8.4,24.5,0,.8.2,1.6.8,2.2.6.6,1.4.9,2.2.9.8,0,1.6-.3,2.2-.9s1-1.3,1-2.2c.8-11.2,5.9-21.6,14.2-29.1,8.3-7.5,19.2-11.6,30.4-11.3,11.2.3,21.9,4.8,29.8,12.8,7.9,7.9,12.5,18.6,12.8,29.8.3,11.2-3.8,22.1-11.3,30.4-7.5,8.3-17.9,13.4-29.1,14.2-.9,0-1.6.4-2.2,1.1-.6.6-.9,1.4-.9,2.3,0,.8.3,1.6.9,2.1.6.5,1.4.8,2.2.8,12.6-.8,24.5-6.4,33.2-15.6,8.7-9.2,13.5-21.4,13.6-34,0-12.7-4.7-24.9-13.3-34.1-8.6-9.3-20.4-14.9-33-15.8h0Z"/>
  <path class="cls-1" d="M76.4,18.7c-26.5-11.1-51.9,7.2-53.3,32,0,.5.1,1,.5,1.4.3.4.8.6,1.3.6h2.3c.5,0,1-.2,1.4-.6.4-.4.6-.9.7-1.4,1.4-21,23.5-36.2,46-25.6,5.6,2.6,10.1,7.1,12.8,12.7,10.8,23-5.2,45.4-26.7,46.2-.5,0-.9.4-.9.9v3.1c0,.6.1,1.2.5,1.6.4.4,1,.7,1.5.7,24.8-1.4,43.1-26.9,31.9-53.5-3.4-8.1-9.9-14.6-18.1-18h0Z"/>
  <path class="cls-1" d="M55,52.7l-30.4,7.6c-1.7.5-3.1,1.8-3.6,3.5-.5,1.7,0,3.6,1.2,4.9l7,6.9-21.3,21.7c-1.6,1.7-2.3,4.1-1.6,6.3.6,2.3,2.4,4,4.7,4.6,2.3.6,4.7,0,6.3-1.8l21.3-21.7,7,6.9h0c.9.9,2,1.4,3.2,1.5,1.2,0,2.4-.3,3.4-1s1.6-1.8,1.9-3l7-30.4c.4-1.7-.1-3.5-1.4-4.7-1.2-1.2-3-1.7-4.7-1.3h0Z"/>
</svg>