<?xml version="1.0" encoding="UTF-8"?>
<svg id="Layer_1" data-name="Layer 1" xmlns="http://www.w3.org/2000/svg" version="1.1" viewBox="0 0 509.3 509.2">
  <defs>
    <style>
      .cls-1 {
        fill: #fff;
        stroke-width: 0px;
      }
    </style>
  </defs>
  <path class="cls-1" d="M254.7,497.6c-134.2,0-243-108.8-243-243S120.4,11.6,254.7,11.6s243,108.8,243,243-108.8,243-243,243ZM254.7,46.3c-115,0-208.3,93.3-208.3,208.3s93.3,208.3,208.3,208.3,208.3-93.3,208.3-208.3S369.7,46.3,254.7,46.3ZM280.7,124.4c0,14.4-11.7,26-26,26s-26-11.7-26-26,11.7-26,26-26,26,11.7,26,26ZM254.7,185.2c-9.6,0-17.4,7.8-17.4,17.4v190.9c0,9.6,7.8,17.4,17.4,17.4s17.4-7.8,17.4-17.4v-190.9c0-9.6-7.8-17.4-17.4-17.4Z"/>
</svg>