<?xml version="1.0" encoding="UTF-8"?>
<svg xmlns="http://www.w3.org/2000/svg" version="1.1" viewBox="0 0 509.3 509.2">
  <defs>
    <style>
      .cls-1 {
        fill: #fff;
        fill-rule: evenodd;
      }
    </style>
  </defs>
  <!-- Generator: Adobe Illustrator 28.6.0, SVG Export Plug-In . SVG Version: 1.2.0 Build 709)  -->
  <g>
    <g id="Layer_1">
      <path class="cls-1" d="M386,152.6h53.8c14.8,0,29,6.4,38.8,17.5,9.8,11.1,14.4,26,12.5,40.7l-8.6,69c-1.8,14.6-9.7,27.3-20.9,35.4v130.7c0,13.7-5.5,26.9-15.2,36.6-9.7,9.7-22.9,15.2-36.6,15.2H99.4c-13.7,0-26.9-5.5-36.6-15.2-9.7-9.7-15.2-22.9-15.2-36.6v-130.7c-11.2-8.2-19.1-20.8-20.9-35.4l-8.6-69c-1.8-14.7,2.7-29.6,12.5-40.7,9.8-11.1,24-17.5,38.8-17.5h80.7c2.4-8,6.7-15.5,13-21.9l104-103.9c20.2-20.2,53-20.2,73.2,0l49.1,49.1c20,20,20.2,52.4.5,72.7l-3.9,4ZM151.9,187.1h-82.5c-4.9,0-9.6,2.1-12.9,5.8-3.3,3.7-4.8,8.6-4.2,13.6l8.6,69c1.1,8.6,8.4,15.1,17.1,15.1h353.1c8.7,0,16-6.5,17.1-15.1l8.6-69c.6-4.9-.9-9.9-4.2-13.6-3.3-3.7-8-5.8-12.9-5.8h-87.4l-33.6,34.5h13.5c9.5,0,17.3,7.7,17.3,17.3s-7.7,17.3-17.3,17.3h-155.3c-9.5,0-17.3-7.7-17.3-17.3s7.7-17.3,17.3-17.3h3.8l-17.7-17.7c-5-5-8.7-10.7-11.2-16.8h0ZM270.6,221.6l94.5-97.1c6.6-6.8,6.5-17.6-.2-24.3l-49.1-49.1c-6.7-6.7-17.6-6.7-24.4,0l-103.9,103.9c-6.7,6.7-6.7,17.7,0,24.4l42.1,42.1h41ZM427.2,325.1H82.1v120.8c0,4.6,1.8,9,5,12.2,3.3,3.2,7.6,5,12.2,5h310.5c4.6,0,8.9-1.8,12.2-5,3.2-3.2,5-7.6,5-12.2v-120.8Z"/>
    </g>
  </g>
</svg>