<?xml version="1.0" encoding="utf-8"?>
<!-- Generator: Adobe Illustrator 27.9.4, SVG Export Plug-In . SVG Version: 9.03 Build 54784)  -->
<svg version="1.1" id="Layer_1" xmlns="http://www.w3.org/2000/svg" xmlns:xlink="http://www.w3.org/1999/xlink" x="0px" y="0px"
	 viewBox="0 0 509.3 509.2" style="enable-background:new 0 0 509.3 509.2;" xml:space="preserve">
<style type="text/css">
	.st0{fill-rule:evenodd;clip-rule:evenodd;fill:#FFFFFF;}
</style>
<g>
	<g>
		<path class="st0" d="M476.1,484.2h-13l-79.6-79.6c-0.8-0.8-1.7-1.4-2.7-1.8c-1-0.4-2.1-0.6-3.1-0.6h-32.8V394h32.8v-26.1l41-8.2
			v-29.8l-41-8.2V168.1c0-1.2-0.1-2.5-0.1-3.7h-65.5v33.5c23.2,3.9,41,24.1,41,48.5s-17.8,44.5-41,48.5V353h-16.4v-58.1
			c-23.2-3.9-41-24.1-41-48.5s17.8-44.5,41-48.5v-33.5H131.7c0,1.2-0.1,2.5-0.1,3.7v37.3h82v90.2h-82v26.1l-41,8.2v29.8l41,8.2V394
			h32.8v8.2h-32.8c-1.1,0-2.1,0.2-3.1,0.6c-1,0.4-1.9,1-2.7,1.8l-79.6,79.6H33.5c-4.1,0-7.8,2.9-8.4,7c-0.7,5.1,3.2,9.4,8.1,9.4H74
			c4.1,0,7.8-2.9,8.4-7c0.7-5.1-3.2-9.4-8.1-9.4h-4.8l65.6-65.6h29.4V435h82v49.2h-8c-4.1,0-7.8,2.9-8.4,7c-0.7,5.1,3.2,9.4,8.1,9.4
			h32.6c4.1,0,7.8-2.9,8.4-7c0.7-5.1-3.2-9.4-8.1-9.4h-8.2V435h82v-16.4h29.4l65.6,65.6h-4.6c-4.1,0-7.8,2.9-8.4,7
			c-0.7,5.1,3.2,9.4,8.1,9.4h40.8c4.1,0,7.8-2.9,8.4-7C484.9,488.5,481,484.2,476.1,484.2L476.1,484.2z M336.7,320.2
			c5.1,0,9.1,4.6,8,9.8c-0.6,3.2-3.2,5.8-6.4,6.4c-5.2,1-9.8-3-9.8-8C328.5,323.9,332.1,320.2,336.7,320.2L336.7,320.2z
			 M271.1,320.2c5.1,0,9.1,4.6,8,9.8c-0.6,3.2-3.2,5.8-6.4,6.4c-5.2,1-9.8-3-9.8-8C262.9,323.9,266.5,320.2,271.1,320.2L271.1,320.2
			z M238.3,320.2c5.1,0,9.1,4.6,8,9.8c-0.6,3.2-3.2,5.8-6.4,6.4c-5.2,1-9.8-3-9.8-8C230.1,323.9,233.7,320.2,238.3,320.2
			L238.3,320.2z M205.5,320.2c5.1,0,9.1,4.6,8,9.8c-0.6,3.2-3.2,5.8-6.4,6.4c-5.2,1-9.8-3-9.8-8
			C197.3,323.9,200.9,320.2,205.5,320.2L205.5,320.2z M172.6,320.2c5.1,0,9.1,4.6,8,9.8c-0.6,3.2-3.2,5.8-6.4,6.4
			c-5.2,1-9.8-3-9.8-8C164.4,323.9,168.1,320.2,172.6,320.2L172.6,320.2z"/>
		<path class="st0" d="M131.6,221.8h65.6v8.2h-65.6V221.8z"/>
		<path class="st0" d="M131.6,271h65.6v8.2h-65.6V271z"/>
		<path class="st0" d="M317.3,32.6c-17.2-15.5-39.5-24.1-62.7-24.1s-45.4,8.5-62.7,24.1c-33.3,30-54.3,71.2-59.2,115.4h243.7
			C371.6,103.8,350.7,62.6,317.3,32.6"/>
		<path class="st0" d="M131.6,246.4h65.6v8.2h-65.6V246.4z"/>
	</g>
</g>
</svg>
