<?xml version="1.0" encoding="UTF-8"?>
<svg id="Layer_1" data-name="Layer 1" xmlns="http://www.w3.org/2000/svg" version="1.1" viewBox="0 0 178.4 178.4">
  <defs>
    <style>
      .cls-1 {
        fill: #fff;
        stroke-width: 0px;
      }
    </style>
  </defs>
  <path class="cls-1" d="M89.2,178.4c49.3,0,89.2-39.9,89.2-89.2S138.4,0,89.2,0,0,39.9,0,89.2s39.9,89.2,89.2,89.2ZM60,47.6c-3.2-2.1-4.1-6.3-2.1-9.5,1.3-2,3.5-3.2,5.8-3.2s2.6.4,3.7,1.1l73.6,47.3c2,1.3,3.1,3.4,3.2,5.7,0,2.3-1.2,4.5-3.1,5.8-.2.1-18.2,12-36.2,23.7-10.6,6.9-19.1,12.4-25.3,16.3-3.7,2.4-6.6,4.2-8.7,5.4-3.4,2.1-5,3-7.2,3-3.8,0-6.9-3.1-6.9-6.9s1.9-5.5,4.5-6.5c4.7-2.5,38.2-24.3,63.3-40.8L60,47.6Z"/>
</svg>