<?xml version="1.0" encoding="UTF-8"?>
<svg id="Layer_1" data-name="Layer 1" xmlns="http://www.w3.org/2000/svg" version="1.1" viewBox="0 0 509.3 509.2">
  <defs>
    <style>
      .cls-1 {
        fill: #fff;
        stroke-width: 0px;
      }
    </style>
  </defs>
  <path class="cls-1" d="M95.3,442.4H25.1c-4.1,0-7.4-3.3-7.4-7.4v-163.2c0-4.1,3.3-7.4,7.4-7.4h70.2c4.1,0,7.4,3.3,7.4,7.4v163.2c0,4.1-3.3,7.4-7.4,7.4ZM32.5,427.6h55.4v-148.4h-55.4v148.4Z"/>
  <path class="cls-1" d="M224.9,442.4h-70.2c-4.1,0-7.4-3.3-7.4-7.4v-216.3c0-4.1,3.3-7.4,7.4-7.4h70.2c4.1,0,7.4,3.3,7.4,7.4v216.3c0,4.1-3.3,7.4-7.4,7.4ZM162.1,427.6h55.4v-201.5h-55.4v201.5Z"/>
  <path class="cls-1" d="M354.6,442.4h-70.2c-4.1,0-7.4-3.3-7.4-7.4v-144.8c0-4.1,3.3-7.4,7.4-7.4h70.2c4.1,0,7.4,3.3,7.4,7.4v144.8c0,4.1-3.3,7.4-7.4,7.4ZM291.8,427.6h55.4v-130h-55.4v130Z"/>
  <path class="cls-1" d="M484.2,442.4h-70.2c-4.1,0-7.4-3.3-7.4-7.4v-240.6c0-4.1,3.3-7.4,7.4-7.4h70.2c4.1,0,7.4,3.3,7.4,7.4v240.6c0,4.1-3.3,7.4-7.4,7.4ZM421.4,427.6h55.4v-225.8h-55.4v225.8Z"/>
  <g>
    <path class="cls-1" d="M304.8,215.7c-1.6,0-3.2-.5-4.6-1.6l-100.2-79.4c-3.2-2.5-3.7-7.2-1.2-10.4,2.5-3.2,7.2-3.7,10.4-1.2l100.2,79.4c3.2,2.5,3.7,7.2,1.2,10.4-1.5,1.8-3.6,2.8-5.8,2.8Z"/>
    <path class="cls-1" d="M75.9,198.8c-2.4,0-4.8-1.2-6.2-3.4-2.2-3.4-1.3-8,2.2-10.2l98.2-63.9c3.4-2.2,8-1.3,10.2,2.2,2.2,3.4,1.3,8-2.2,10.2l-98.2,63.9c-1.2.8-2.6,1.2-4,1.2Z"/>
    <path class="cls-1" d="M332.9,214.2c-1.9,0-3.8-.7-5.3-2.2-2.9-2.9-2.8-7.6.1-10.5l102.8-100.8c2.9-2.9,7.6-2.8,10.5.1,2.9,2.9,2.8,7.6-.1,10.5l-102.8,100.8c-1.4,1.4-3.3,2.1-5.2,2.1Z"/>
    <path class="cls-1" d="M60.2,227.7c-14.4,0-26.2-11.7-26.2-26.2s11.7-26.2,26.2-26.2,26.2,11.7,26.2,26.2c0,14.4-11.7,26.2-26.2,26.2ZM60.2,190.2c-6.3,0-11.3,5.1-11.3,11.3s5.1,11.3,11.3,11.3,11.4-5.1,11.4-11.3c0-6.3-5.1-11.3-11.4-11.3Z"/>
    <path class="cls-1" d="M189.8,143.4c-14.4,0-26.2-11.7-26.2-26.2s11.7-26.2,26.2-26.2,26.2,11.7,26.2,26.2-11.7,26.2-26.2,26.2ZM189.8,105.9c-6.3,0-11.3,5.1-11.3,11.3s5.1,11.3,11.3,11.3,11.3-5.1,11.3-11.3-5.1-11.3-11.3-11.3Z"/>
    <path class="cls-1" d="M319.5,246.1c-14.4,0-26.2-11.7-26.2-26.2s11.7-26.2,26.2-26.2,26.2,11.7,26.2,26.2-11.7,26.2-26.2,26.2ZM319.5,208.6c-6.3,0-11.3,5.1-11.3,11.3s5.1,11.3,11.3,11.3,11.3-5.1,11.3-11.3-5.1-11.3-11.3-11.3Z"/>
    <path class="cls-1" d="M449.1,119.1c-14.4,0-26.2-11.7-26.2-26.2s11.7-26.2,26.2-26.2,26.2,11.7,26.2,26.2-11.7,26.2-26.2,26.2ZM449.1,81.6c-6.3,0-11.3,5.1-11.3,11.3s5.1,11.3,11.3,11.3,11.3-5.1,11.3-11.3-5.1-11.3-11.3-11.3Z"/>
  </g>
</svg>