<?xml version="1.0" encoding="UTF-8"?>
<svg id="Layer_1" data-name="Layer 1" xmlns="http://www.w3.org/2000/svg" viewBox="0 0 520.43 513.96">
  <defs>
    <style>
      .cls-1 {
        fill: #fff;
        stroke-width: 0px;
      }
    </style>
  </defs>
  <path id="Plane" class="cls-1" d="M404.69,513.81c-.56-.89-27.79-53.2-60.51-116.26-32.72-63.06-59.99-115.17-60.61-115.8-.73-.74-18.04,15.76-48.38,46.09-44.32,44.31-47.25,47.5-47.23,51.38.01,2.28,1.83,19.03,4.05,37.24l4.03,33.09-19.15,19.24-19.15,19.24-22.23-42.31-22.23-42.31-41.83-21.84c-23.01-12.01-41.84-22.11-41.86-22.44-.01-.33,8.43-9.05,18.77-19.38l18.8-18.77,36.87,4.48,36.87,4.48,47.76-47.74c37.24-37.23,47.4-48,46.11-48.92-.91-.65-54.1-28.84-118.21-62.64L0,109.17l24.07-24.07,24.07-24.07,143.87,38.13,143.87,38.13,65.79-65.66C447.79,25.61,469.05,5.17,472.78,3.31c3.43-1.72,8.27-2.86,13.64-3.21,10.57-.69,18.43,2.4,25.43,9.99,6.5,7.05,8.61,12.37,8.58,21.66-.04,14.35.77,13.38-73.11,87.46l-66.59,66.78,28.76,111.1c15.82,61.11,32.21,124.47,36.42,140.81l7.66,29.71-23.93,23.91c-17.78,17.76-24.19,23.5-24.96,22.3Z"/>
</svg>