<?xml version="1.0" encoding="UTF-8"?>
<svg id="Layer_1" data-name="Layer 1" xmlns="http://www.w3.org/2000/svg" version="1.1" viewBox="0 0 509.3 509.2">
  <defs>
    <style>
      .cls-1 {
        fill: #fff;
        stroke-width: 0px;
      }
    </style>
  </defs>
  <path class="cls-1" d="M415,40.8h-17.8v-14.3c0-7.9-6.4-14.3-14.3-14.3s-14.3,6.4-14.3,14.3v14.3h-228.1v-14.3c0-7.9-6.4-14.3-14.3-14.3s-14.3,6.4-14.3,14.3v14.3h-17.8c-45.2,0-82,36.8-82,82v292.2c0,45.2,36.8,82,82,82h320.7c45.2,0,82-36.8,82-82V122.8c0-45.2-36.8-82-82-82h0ZM468.5,415c0,29.5-24,53.5-53.5,53.5H94.3c-29.5,0-53.5-24-53.5-53.5v-231.6h427.6v231.6ZM468.5,154.8H40.8v-32.1c0-29.5,24-53.4,53.5-53.4h17.8v28.5c0,7.9,6.4,14.3,14.3,14.3s14.3-6.4,14.3-14.3v-28.5h228.1v28.5c0,7.9,6.4,14.3,14.3,14.3s14.3-6.4,14.3-14.3v-28.5h17.8c29.5,0,53.5,24,53.5,53.5v32.1Z"/>
  <path class="cls-1" d="M199.8,343.7l-8.1,47c-2,11.6,10.2,20.5,20.7,15l42.2-22.2,42.2,22.2c10.5,5.5,22.7-3.4,20.7-15l-8.1-47,34.2-33.3c8.4-8.2,3.8-22.6-7.9-24.3l-47.2-6.9-21.1-42.8c-5.2-10.6-20.3-10.6-25.6,0l-21.1,42.8-47.2,6.9c-11.7,1.7-16.4,16.1-7.9,24.3l34.1,33.3Z"/>
</svg>