<?xml version="1.0" encoding="UTF-8"?>
<svg xmlns="http://www.w3.org/2000/svg" version="1.1" viewBox="0 0 509.3 509.2">
  <defs>
    <style>
      .cls-1 {
        fill: #fff;
        fill-rule: evenodd;
      }
    </style>
  </defs>
  <!-- Generator: Adobe Illustrator 28.6.0, SVG Export Plug-In . SVG Version: 1.2.0 Build 709)  -->
  <g>
    <g id="Layer_1">
      <g id="Layer_1-2" data-name="Layer_1">
        <path class="cls-1" d="M488.5,490.5H20.9c-5.8,0-10.4-4.7-10.4-10.4s4.7-10.4,10.4-10.4h23v-190c0-5.8,4.7-10.4,10.4-10.4h56.4v-56.4c0-5.8,4.7-10.4,10.4-10.4h6.7c5-62,54.5-111.4,116.5-116.5V29.2c0-5.8,4.7-10.4,10.4-10.4h49c5.8,0,10.4,4.7,10.4,10.4v33.4c0,5.8-4.7,10.4-10.4,10.4h-38.5v12.9c62,5,111.4,54.5,116.5,116.5h6.7c5.8,0,10.4,4.7,10.4,10.4v56.4h56.4c5.8,0,10.4,4.7,10.4,10.4v190h23c5.8,0,10.4,4.7,10.4,10.4s-4.7,10.4-10.4,10.4h-.1ZM444.6,469.6v-179.5H64.7v179.5h146.1v-73.1c0-11.6,4.6-22.8,12.8-31s19.4-12.8,31-12.8h0c11.6,0,22.8,4.6,31,12.8s12.8,19.4,12.8,31v73.1h146.2ZM231.7,469.6h45.9v-73.1c0-6.1-2.4-11.9-6.7-16.2s-10.1-6.7-16.2-6.7h0c-6.1,0-11.9,2.4-16.2,6.7-4.3,4.3-6.7,10.1-6.7,16.2v73.1h-.1ZM415.4,346.4v66.8c0,5.8-4.7,10.4-10.4,10.4h-66.8c-5.8,0-10.4-4.7-10.4-10.4v-66.8c0-5.8,4.7-10.4,10.4-10.4h66.8c5.8,0,10.4,4.7,10.4,10.4h0ZM394.5,356.9h-45.9v45.9h45.9v-45.9ZM181.6,346.4v66.8c0,5.8-4.7,10.4-10.4,10.4h-66.8c-5.8,0-10.4-4.7-10.4-10.4v-66.8c0-5.8,4.7-10.4,10.4-10.4h66.8c5.8,0,10.4,4.7,10.4,10.4h0ZM160.7,356.9h-45.9v45.9h45.9v-45.9ZM254.7,106.4c-55.3,0-100.7,42.1-106,96h211.9c-5.2-53.9-50.7-96-106-96h.1ZM371.6,223.3h-240.1v45.9h246.3v-45.9h-6.3.1ZM265.1,39.6v12.5h28.1v-12.5h-28.1Z"/>
      </g>
    </g>
  </g>
</svg>