<?xml version="1.0" encoding="UTF-8"?>
<svg xmlns="http://www.w3.org/2000/svg" version="1.1" viewBox="0 0 509.3 509.2">
  <defs>
    <style>
      .cls-1 {
        fill: #fff;
      }
    </style>
  </defs>
  <!-- Generator: Adobe Illustrator 28.6.0, SVG Export Plug-In . SVG Version: 1.2.0 Build 709)  -->
  <g>
    <g id="Layer_1">
      <path class="cls-1" d="M254.6,21.8c40.7,0,77.5,16.5,104.3,43.2,26.7,26.7,43.2,63.5,43.2,104.3s-15.6,69.4-31.8,90.2c-13.9,17.9-28.3,36.4-30.1,81.8,4.5,1.7,8.5,4.4,11.9,7.8,6.2,6.2,10.1,14.8,10.1,24.2v38.5c0,9.4-3.9,18-10.1,24.2-5.3,5.3-12.3,8.8-20,9.8v7.4c0,9.4-3.9,18-10.1,24.2-6.2,6.2-14.8,10.1-24.2,10.1h-86.4c-9.4,0-18-3.9-24.2-10.1-6.2-6.2-10.1-14.8-10.1-24.2v-7.4c-7.8-.9-14.8-4.5-20-9.8-6.2-6.2-10.1-14.8-10.1-24.2v-38.5c0-9.4,3.9-18,10.1-24.2l.8-.7c3.2-3,6.9-5.4,11.1-7-1.8-45.4-16.2-64-30.1-81.9-16.2-20.9-31.8-41-31.8-90.2s16.5-77.6,43.2-104.3l.7-.6c26.7-26.3,63.2-42.6,103.6-42.6h0ZM307.9,446.1h-106.5v7.1c0,2.7,1.1,5.3,3,7.1s4.3,3,7.1,3h86.4c2.7,0,5.3-1.1,7.1-3s3-4.3,3-7.1v-7.1h0ZM303,225.2c2.8,0,5.4-1.1,7.3-3l.5-.4c1.6-1.8,2.6-4.2,2.6-6.8s-1.2-5.4-3-7.3c-1.9-1.9-4.4-3-7.3-3s-5.4,1.1-7.3,3c-1.9,1.9-3,4.5-3,7.3v10.2h10.2,0ZM327.3,239.3c-6.2,6.2-14.9,10.1-24.4,10.1h-10.2v89.7h23.4c2.3-51.9,19-73.5,35.1-94.3,13.6-17.5,26.7-34.4,26.7-75.5s-13.8-64.9-36.1-87.2c-22.3-22.3-53.1-36.1-87.2-36.1s-64.4,13.6-86.6,35.5l-.5.6c-22.3,22.3-36.1,53.1-36.1,87.2s13.1,57.9,26.7,75.5c16.1,20.8,32.9,42.4,35.1,94.3h23.4v-89.7h-10.3c-9.5,0-18.1-3.9-24.3-10.1-6.3-6.2-10.1-14.9-10.1-24.4s3.9-18.1,10.1-24.4c6.2-6.3,14.8-10.1,24.3-10.1s18.1,3.9,24.4,10.1c6.2,6.2,10.1,14.9,10.1,24.4v10.2h27.7v-10.2c0-9.5,3.9-18.1,10.1-24.4,6.3-6.2,14.9-10.1,24.4-10.1s18.1,3.9,24.4,10.1c6.2,6.2,10.1,14.9,10.1,24.4s-3.6,17.4-9.4,23.6l-.7.8h0ZM199.1,222.2c1.8,1.8,4.4,3,7.3,3h10.3v-10.2c0-2.8-1.2-5.4-3-7.3-1.9-1.9-4.4-3-7.3-3s-5.4,1.2-7.3,3c-1.9,1.8-3,4.4-3,7.3s1.1,5.4,3,7.3h0ZM268.5,339.1v-89.7h-27.7v89.7h27.7ZM200.7,404.7c-6.7,0-12.1-5.4-12.1-12.1s5.4-12.1,12.1-12.1h107.9c6.7,0,12.1,5.4,12.1,12.1s-5.4,12.1-12.1,12.1h-107.9ZM328.1,363.3h-147c-2.5,0-4.7,1-6.4,2.5l-.4.4c-1.8,1.8-3,4.3-3,7.1v38.5c0,2.7,1.1,5.3,3,7.1s4.3,3,7.1,3h146.6c2.7,0,5.3-1.1,7.1-3s3-4.3,3-7.1v-38.5c0-2.7-1.1-5.3-3-7.1s-4.2-2.9-6.9-3h0ZM59.5,70.6c-5.8-3.3-7.8-10.7-4.4-16.5,3.3-5.8,10.7-7.8,16.5-4.4l30.1,17.4c5.8,3.3,7.8,10.7,4.4,16.5-3.3,5.8-10.7,7.8-16.5,4.4l-30.1-17.4ZM407.7,271.6c-5.8-3.4-7.7-10.7-4.4-16.5,3.4-5.8,10.7-7.7,16.5-4.4l30.1,17.4c5.8,3.4,7.7,10.7,4.4,16.5-3.4,5.8-10.7,7.7-16.5,4.4l-30.1-17.4ZM71.5,289c-5.8,3.3-13.2,1.3-16.5-4.4-3.3-5.8-1.3-13.2,4.4-16.5l30.1-17.4c5.8-3.3,13.2-1.3,16.5,4.4,3.3,5.8,1.3,13.2-4.4,16.5l-30.1,17.4ZM419.8,87.9c-5.8,3.4-13.2,1.4-16.5-4.4-3.4-5.8-1.4-13.2,4.4-16.5l30.1-17.4c5.8-3.4,13.2-1.4,16.5,4.4,3.4,5.8,1.4,13.2-4.4,16.5l-30.1,17.4ZM36.2,181.4c-6.7,0-12.1-5.4-12.1-12.1s5.4-12.1,12.1-12.1h34.7c6.7,0,12.1,5.4,12.1,12.1s-5.4,12.1-12.1,12.1h-34.7ZM438.4,181.4c-6.7,0-12.1-5.4-12.1-12.1s5.4-12.1,12.1-12.1h34.7c6.7,0,12.1,5.4,12.1,12.1s-5.4,12.1-12.1,12.1h-34.7Z"/>
    </g>
  </g>
</svg>