<?xml version="1.0" encoding="UTF-8"?>
<svg id="Layer_1" data-name="Layer 1" xmlns="http://www.w3.org/2000/svg" viewBox="0 0 509.31 509.2">
  <defs>
    <style>
      .cls-1 {
        fill: #fff;
        stroke-width: 0px;
      }
    </style>
  </defs>
  <path id="DAO" class="cls-1" d="M463.94,278.3c6.55,0,12.48-2.65,16.78-6.95l.51-.47c3.98-4.22,6.44-9.98,6.44-16.32s-2.65-12.48-6.95-16.78c-4.3-4.3-10.24-6.95-16.78-6.95s-12.52,2.65-16.78,6.91c-4.3,4.34-6.95,10.28-6.95,16.83s2.65,12.52,6.91,16.78c4.32,4.32,10.26,6.95,16.83,6.95h0ZM62.14,101.38c20.96-24.31,46.85-44.31,76.1-58.41,30.83-14.86,65.38-23.18,101.76-23.18,14.79,0,29.37,1.4,43.59,4.07,14.52,2.71,28.54,6.78,41.92,12.04,5.57,2.16,8.31,8.46,6.15,14.03-2.16,5.57-8.46,8.31-14.03,6.15-9.85-3.86-20.09-7.01-30.58-9.37,9.54,11.89,18.05,27.32,25.24,45.63,8.41,21.4,15.17,46.96,19.77,75.29,29.71-6.42,58.87-15.96,86.97-28.63-6.4-9.85-13.58-19.16-21.47-27.82-4.03-4.43-3.69-11.27.72-15.3,4.43-4.03,11.27-3.69,15.3.72,11.42,12.55,21.53,26.38,30.07,41.28.19.32.38.64.55,1,2.69,4.73,5.21,9.56,7.57,14.49,8.46,17.67,14.77,36.56,18.63,56.31,9.94,1.44,18.84,6.06,25.62,12.84,8.22,8.22,13.31,19.58,13.31,32.13s-4.81,23.25-12.67,31.41l-.66.7c-6.76,6.76-15.68,11.4-25.62,12.84-4.94,25.43-13.96,49.38-26.38,71.16l-.13.25-.15.25c-13.44,23.44-30.79,44.33-51.18,61.8-41.05,35.14-94.35,56.37-152.56,56.37-64.82,0-123.53-26.28-166.02-68.77C31.47,378.16,5.19,319.46,5.19,254.63c0-14.39,1.34-28.63,3.9-42.55,2.06-11.19,4.87-22.08,8.39-32.57-1.46-1.14-2.86-2.37-4.17-3.69-8.22-8.22-13.31-19.58-13.31-32.13s4.81-23.25,12.67-31.41l.66-.7c8.22-8.22,19.58-13.31,32.13-13.31,5.87,0,11.51,1.12,16.66,3.16l.03-.06ZM448.81,211.74c-3.52-17.23-9.09-33.72-16.49-49.14-.78-1.63-1.57-3.24-2.39-4.83-30.6,13.99-62.43,24.41-94.87,31.28,2.44,20.79,3.75,42.76,3.75,65.52s-1.31,44.71-3.75,65.5c8.18,1.72,16.32,3.69,24.39,5.87,23.97,6.48,47.55,14.96,70.46,25.41,8.6-16.8,15.02-34.92,18.9-53.95-6.42-2.29-12.19-5.98-16.93-10.7l-.04-.04c-8.24-8.24-13.33-19.6-13.33-32.1s5.09-23.9,13.31-32.13c4.77-4.73,10.55-8.43,17.02-10.7l-.02.02ZM240,344.7c6.57,0,12.52-2.65,16.78-6.91,4.3-4.34,6.95-10.28,6.95-16.83s-2.65-12.52-6.91-16.78c-4.32-4.32-10.24-6.95-16.83-6.95s-12.48,2.65-16.78,6.95l-.51.47c-3.98,4.22-6.44,9.98-6.44,16.32s2.65,12.48,6.95,16.78c4.3,4.3,10.24,6.95,16.78,6.95h0ZM272.1,353.09c-8.24,8.22-19.6,13.33-32.11,13.33s-23.9-5.09-32.13-13.31c-5.26-5.26-9.22-11.8-11.42-19.11-9.09.91-18.18,2.12-27.23,3.6,4.32,27,10.7,51.22,18.65,71.44,14.24,36.24,32.74,58.68,52.11,58.68s37.87-22.42,52.11-58.68c7.93-20.2,14.33-44.44,18.65-71.44-9.05-1.48-18.14-2.69-27.23-3.6-2.18,7.33-6.17,13.86-11.42,19.11l.02-.02ZM195.39,312.32c1.7-8.73,5.91-16.57,11.82-22.76l.66-.7c8.22-8.22,19.58-13.31,32.13-13.31s23.82,5.09,32.04,13.29l.04.04c6.29,6.29,10.74,14.39,12.5,23.44,9.73.95,19.43,2.2,29.12,3.79,2.23-19.47,3.41-40.11,3.41-61.5s-1.21-42.04-3.41-61.52c-18.54,3.01-37.21,4.87-55.94,5.62-30.56,1.17-61.2-.68-91.46-5.59-2.23,19.5-3.41,40.14-3.41,61.52s1.19,42,3.41,61.5c9.66-1.57,19.37-2.84,29.1-3.79v-.02ZM35.14,165.08l.13.06c3.07,1.46,6.53,2.29,10.15,2.29,6.55,0,12.48-2.65,16.78-6.95,4.3-4.3,6.95-10.24,6.95-16.78s-2.65-12.52-6.91-16.78c-4.34-4.3-10.28-6.95-16.83-6.95s-12.48,2.65-16.78,6.95l-.51.47c-3.98,4.22-6.44,9.98-6.44,16.32s2.65,12.48,6.95,16.78c1.86,1.86,4.07,3.43,6.48,4.6h.02ZM37.36,188.41c-2.95,9.01-5.3,18.2-7.01,27.55-2.29,12.4-3.48,25.32-3.48,38.65,0,34.84,8.37,67.73,23.18,96.78,22.91-10.47,46.47-18.92,70.42-25.41,8.1-2.18,16.21-4.13,24.39-5.87-2.44-20.77-3.75-42.76-3.75-65.5s1.31-44.71,3.75-65.5c-21.36-4.53-42.47-10.57-63.11-18.2-1.29,1.74-2.71,3.37-4.24,4.9-8.22,8.22-19.58,13.31-32.13,13.31-2.75,0-5.45-.25-8.05-.72l.03.02ZM90.26,150.95c18.88,6.91,38.14,12.46,57.64,16.66,4.6-28.33,11.36-53.87,19.75-75.27,7.18-18.29,15.68-33.72,25.22-45.6-15.85,3.56-31.02,8.88-45.29,15.77-25.94,12.5-48.97,30.11-67.79,51.54,6.87,7.99,11.04,18.35,11.04,29.65,0,2.48-.21,4.87-.59,7.27h.02ZM239.95,41.53c-19.39,0-37.87,22.44-52.11,58.68-7.93,20.2-14.33,44.44-18.65,71.44,29.01,4.77,58.44,6.57,87.78,5.45,17.99-.7,35.96-2.5,53.76-5.45-4.32-27-10.7-51.24-18.65-71.46-14.24-36.24-32.74-58.68-52.11-58.68l-.02.02ZM332.01,341.62c-4.6,28.33-11.36,53.85-19.77,75.27-7.18,18.27-15.68,33.72-25.22,45.58,34.37-7.76,65.59-23.78,91.44-45.9,15.64-13.37,29.31-29.01,40.54-46.35-21.19-9.56-43-17.33-65.16-23.33-7.23-1.95-14.49-3.71-21.81-5.3l-.02.02ZM192.87,462.45c-9.51-11.87-18.01-27.29-25.22-45.56-8.41-21.4-15.19-46.94-19.77-75.25-7.31,1.57-14.56,3.33-21.81,5.3-22.17,6-43.97,13.77-65.14,23.31,8.2,12.67,17.72,24.43,28.35,35.05,27.95,27.95,63.63,48.17,103.58,57.17v-.02ZM345.85,69.63c-5.17-2.97-6.95-9.58-3.98-14.75s9.58-6.95,14.75-3.98c5.45,3.12,10.64,6.38,15.55,9.73,5.06,3.45,10,7.12,14.77,10.98,4.66,3.75,5.38,10.55,1.65,15.22-3.75,4.66-10.55,5.38-15.22,1.65-4.32-3.48-8.79-6.8-13.41-9.94-4.7-3.22-9.43-6.19-14.13-8.88l.02-.02Z"/>
</svg>