<?xml version="1.0" encoding="UTF-8"?>
<svg id="Layer_1" data-name="Layer 1" xmlns="http://www.w3.org/2000/svg" version="1.1" viewBox="0 0 509.3 509.2">
  <defs>
    <style>
      .cls-1 {
        fill: #fff;
        fill-rule: evenodd;
        stroke-width: 0px;
      }
    </style>
  </defs>
  <path class="cls-1" d="M183.3,322.1c-4.1,0-7.4,3.4-7.4,7.5s3.3,7.5,7.4,7.5h142.7c4.1,0,7.4-3.3,7.4-7.5s-3.3-7.5-7.4-7.5h-142.7ZM435.8,441.9h-111.1c-16.1,0-29.1,13-29.1,29.1v14.4h-33.5v-16.8c0-33.3,27-60.2,60.3-60.2h113.4v33.4h0ZM184.6,441.9h-111.1v-33.4h113.4c33.2,0,60.3,27,60.3,60.2v16.8h-33.5v-14.4c0-16.1-13.1-29.1-29.1-29.1h0ZM443.2,393.5h-120.9c-23.9,0-45.3,11.3-59,28.7,5.6-27.4,29.9-48.2,59-48.2h120.9c4.1,0,7.4-3.3,7.4-7.4s-3.3-7.5-7.4-7.5h-120.9c-29.8,0-55.5,17.4-67.7,42.5-12.2-25.2-37.9-42.5-67.7-42.5h-120.9c-4.1,0-7.4,3.3-7.4,7.5s3.3,7.4,7.4,7.4h120.9c29.1,0,53.4,20.8,59,48.2-13.8-17.4-35.1-28.7-59-28.7h-120.9c-4.1,0-7.4,3.3-7.4,7.5v48.4c0,4.1,3.3,7.4,7.4,7.4h118.6c7.8,0,14.2,6.4,14.2,14.2v21.8c0,4.1,3.3,7.5,7.4,7.5h96.7c4.1,0,7.4-3.3,7.4-7.5v-21.8c0-7.8,6.4-14.2,14.2-14.2h118.6c4.1,0,7.4-3.3,7.4-7.4v-48.4c0-4.1-3.3-7.5-7.4-7.5h0ZM146.1,116.2l34.9,85h-69.7l34.9-85h0ZM146.1,247.2c-18.7,0-34.3-13.4-37.8-31.1h75.6c-3.5,17.7-19.1,31.1-37.8,31.1h0ZM235.9,42.5c0-10.4,8.4-18.8,18.7-18.8s18.7,8.4,18.7,18.8-8.4,18.7-18.7,18.7-18.7-8.4-18.7-18.7h0ZM398.1,201.2h-69.7l34.9-85,34.9,85h0ZM363.3,247.2c-18.7,0-34.3-13.4-37.8-31.1h75.6c-3.5,17.7-19.1,31.1-37.8,31.1h0ZM146.1,262c29.4,0,53.4-24,53.4-53.5s-.5-2.3-.6-2.8c0,0,0,0,0,0l-41.7-101.7h90.1v187.4h-35.2c-4.1,0-7.4,3.3-7.4,7.5s3.3,7.5,7.4,7.5h85.4c4.1,0,7.4-3.4,7.4-7.5s-3.3-7.5-7.4-7.5h-35.2V104h90.1l-41.7,101.7s0,0,0,0h0c0,0,0,0,0,0-.4.8-.6,1.8-.6,2.8,0,29.5,24,53.5,53.4,53.5s53.4-24,53.4-53.5-.5-2.6-.6-2.8c0,0,0,0,0,0l-45.9-111.9c-1.2-2.8-3.9-4.6-6.9-4.6h-101.2v-13.9c15-3.4,26.2-16.8,26.2-32.7s-15.1-33.6-33.6-33.6-33.6,15.1-33.6,33.6,11.2,29.4,26.2,32.7v13.9h-101.2c-3,0-5.7,1.8-6.9,4.6l-45.9,111.9s0,0,0,0c-.3,1-.6,1.4-.6,2.8,0,29.5,24,53.5,53.4,53.5Z"/>
</svg>