<?xml version="1.0" encoding="UTF-8"?>
<svg id="Layer_1" data-name="Layer 1" xmlns="http://www.w3.org/2000/svg" version="1.1" viewBox="0 0 98.2 75.8">
  <defs>
    <style>
      .cls-1 {
        fill: #fff;
        stroke-width: 0px;
      }
    </style>
  </defs>
  <path class="cls-1" d="M98.2,57.5c-.1-2.3,0-4.6-.3-7-1.5-8.7-8.2-15.2-17.1-16.4-2.8-.4-5.8-.4-8.7-.7-4.8-.6-9.1-2.6-12.2-6.6-3.1-3.9-4.7-8.6-6.2-13.3-.7-2.3-2.2-3.7-4.4-3.8-2.1-.1-3.8,1.3-4.5,3.6-.8,2.4-1.6,4.9-2.6,7.4-1.9,4.6-4.8,8.6-9.5,10.9-2.9,1.4-6,2-9.2,2.1-2,.1-4,.1-6.1.5C8,35.8,1.3,42.4.3,51.6c-.5,4-.2,8.2-.2,12.2s1.8,4.2,4.3,4.4c2.2.1,4.3-1.6,4.6-3.9.1-.9.1-1.9.1-2.8v-7.1c0-.4.1-1,.6-1.1.4,0,.7.5.8.9.1.3.1.7.1,1v18c0,1.9.6,2.5,2.5,2.5h19.8c2,0,2.5-.6,2.5-2.5v-31.6c0-1.1.3-1.7,1.3-2.1,3.6-1.8,6.7-4.3,9.1-7.7,1.1-1.5,2.1-3.1,3.3-4.8.2.3.3.5.4.7,2.8,5.2,6.8,9.3,12.1,11.9.8.4.9,1,.9,1.8v31.9c0,1.8.5,2.3,2.3,2.3h20c1.9,0,2.5-.5,2.5-2.5v-18.7c0-.4.2-1.1.7-1.1s.8.6.9,1.1c.1.3.1.7.1,1.1v8.2c0,2.7,1.8,4.5,4.3,4.5s4.5-1.8,4.5-4.5c0-2.1,0-4.2,0-6.3h0Z"/>
  <path class="cls-1" d="M22.3,30.6c5.8,0,10.5-4.7,10.5-10.3s-4.5-10.8-10.7-10.8-10.5,4.7-10.5,10.6,4.9,10.5,10.7,10.5h0Z"/>
  <path class="cls-1" d="M75.9,30.6c6,0,10.6-4.6,10.6-10.5,0-5.9-4.6-10.5-10.4-10.5s-10.6,4.6-10.7,10.4c0,5.8,4.7,10.6,10.5,10.6h0Z"/>
  <path class="cls-1" d="M49.2,6.7c.6,0,1-.4,1-1V1c0-.6-.4-1-1-1s-1,.4-1,1v4.6c0,.6.4,1,1,1Z"/>
  <path class="cls-1" d="M55.1,9.5c.2,0,.5-.1.7-.2l3.8-3.3c.4-.4.5-1,.1-1.4-.4-.4-1-.5-1.4-.1l-3.8,3.3c-.4.4-.5,1-.1,1.4.2.2.4.3.7.3h0Z"/>
  <path class="cls-1" d="M42.4,9.2c.2.2.4.2.7.2s.6-.1.8-.3c.4-.4.3-1-.1-1.4l-3.8-3.3c-.4-.4-1-.3-1.4.1-.4.4-.3,1,.1,1.4l3.7,3.3Z"/>
</svg>