<?xml version="1.0" encoding="UTF-8"?>
<svg xmlns="http://www.w3.org/2000/svg" version="1.1" viewBox="0 0 40.7 40.7">
  <defs>
    <style>
      .cls-1 {
        fill: #fff;
      }
    </style>
  </defs>
  <!-- Generator: Adobe Illustrator 28.7.7, SVG Export Plug-In . SVG Version: 1.2.0 Build 194)  -->
  <g>
    <g id="Layer_1">
      <path class="cls-1" d="M14.2,4c-6.5,0-11.9,2.5-12.2,5.7.2,1.8,2.1,3,3.3,3.7,2.2,1.1,5.4,1.8,8.8,1.8s1.9,0,2.9-.2c2.3-2.1,5.3-3.5,8.6-3.7.3-.5.6-1.1.7-1.6-.7-4.7-8.9-5.7-12.2-5.7ZM26.4,12.6c-6.7,0-12.2,5.4-12.2,12s5.5,12,12.2,12,12.2-5.4,12.2-12-5.5-12-12.2-12ZM2.1,13.2v1.8c.1,1.3,1.3,2.6,3.3,3.6,2.1,1,5,1.7,8.3,1.8.4-1.2,1-2.4,1.8-3.5-.4,0-.8,0-1.2,0-3.7,0-7.1-.7-9.6-2-1-.5-1.8-1.1-2.5-1.7ZM2.1,18.3v1.8c.1,1.3,1.3,2.6,3.3,3.6,1.9,1,4.6,1.6,7.6,1.8,0-.3,0-.6,0-.8,0-.9,0-1.8.3-2.6-3.3-.1-6.3-.8-8.6-2-1-.5-1.8-1.1-2.5-1.7ZM2.1,23.5v1.8c.1,1.3,1.3,2.6,3.3,3.6,3.1,1.5,6.2,1.8,9,1.8-.6-1.1-1-2.2-1.2-3.5-3.3-.1-6.3-.8-8.6-2-1-.5-1.8-1.1-2.5-1.7ZM2.1,28.6v2c0,3.3,5.5,6,12.2,6s3.7-.2,5.3-.6c-1.6-1-3-2.2-4.1-3.7-.4,0-.8,0-1.2,0-3.7,0-7.1-.8-9.6-2-1-.5-1.9-1.1-2.6-1.7Z"/>
    </g>
  </g>
</svg>