<?xml version="1.0" encoding="UTF-8"?>
<svg id="Layer_1" data-name="Layer 1" xmlns="http://www.w3.org/2000/svg" version="1.1" viewBox="0 0 509.3 509.2">
  <defs>
    <style>
      .cls-1 {
        fill: #fff;
        fill-rule: evenodd;
        stroke-width: 0px;
      }
    </style>
  </defs>
  <path class="cls-1" d="M104.8,467.6s0,0,0,0c99.9,38.1,199.8,38.4,299.7-.1,0,0,0,0,0,0,20.8-8.1,33.3-28.8,30.6-50.5,0,0,0-.1,0-.1-12.6-92-88.9-162.3-180.5-162.3s-167.9,70.3-180.6,162.2c0,0,0,.1,0,.2-2.8,21.7,9.9,42.5,30.8,50.6h0ZM254.7,12.9c-64,0-116,50.6-116,112.8s52,112.8,116,112.8,116-50.6,116-112.8S318.7,12.9,254.7,12.9Z"/>
</svg>