<?xml version="1.0" encoding="UTF-8"?>
<svg id="Layer_1" data-name="Layer 1" xmlns="http://www.w3.org/2000/svg" viewBox="0 0 509.31 509.2">
  <defs>
    <style>
      .cls-1 {
        fill: #fff;
        stroke-width: 0px;
      }
    </style>
  </defs>
  <g id="Ticket">
    <path class="cls-1" d="M134.98,103.21l-59.37,59.33,99.78,99.72-13.3,13.3-100.85-100.78c-6.75-6.76-6.74-17.73,0-24.47l61.5-61.46c6.75-6.74,17.73-6.74,24.48,0l100.84,100.78-13.3,13.3-99.78-99.72Z"/>
    <path class="cls-1" d="M36.29,151.7l-14.78,7.06,128.72,128.64-13.3,13.3L5.34,169.19c-3.27-3.27-5.07-7.61-5.07-12.24s5.17-10.71,5.76-11.39l.21-.23,15.8-7.55,9.87-19.41,20.03-9.57,9.87-19.41,20.03-9.56,9.87-19.41,20.06-9.6,7.69-15.08c.52-.8,5.2-7.82,9.93-7.82h.02c4.55,0,9,1.84,12.22,5.06l131.59,131.51-13.31,13.3-126.88-126.81-7.02,13.77-20.05,9.6-9.87,19.41-20.03,9.56-9.87,19.41-20.03,9.57-9.87,19.4Z"/>
    <rect class="cls-1" x="232.1" y="215.23" width="202.53" height="86.96" transform="translate(-85.28 311.63) rotate(-45.02)"/>
    <path class="cls-1" d="M501.87,202.02l-15.92-7.86-8.53-17.26c-.78-1.54-2.04-2.79-3.6-3.56l-17.26-8.49-8.49-17.26c-.77-1.56-2.03-2.82-3.6-3.6l-17.22-8.45-8.49-17.26c-.79-1.54-2.05-2.8-3.6-3.6l-17.26-8.49s-7.82-15.84-7.82-15.88c-.7-1.57-1.74-2.96-3.04-4.07-2.59-1.49-5.65-1.97-8.57-1.34-3.03.29-5.92,1.4-8.38,3.2-.5.39-.98.81-1.42,1.26l-251.57,251.41c-2.81,3.05-4.44,7-4.58,11.14-.21,2.03.09,4.08.87,5.97.94,1.99,2.61,3.53,4.66,4.31l15.92,7.86,8.53,17.26c.77,1.56,2.03,2.82,3.6,3.6l17.22,8.49,8.49,17.22c.79,1.54,2.05,2.8,3.6,3.6l17.26,8.49,8.49,17.22c.77,1.56,2.03,2.82,3.6,3.6l17.22,8.49s7.82,15.84,7.86,15.88c4.19,8.53,15.53,6.83,21.41.95,0,0,251.49-251.33,251.57-251.41,2.49-2.53,4.05-5.83,4.42-9.36.8-3.51-.01-7.19-2.21-10.03-.9-.88-1.98-1.57-3.16-2.01ZM214.98,338.04c-3.06,3.09-8.04,3.11-11.13.05-.02-.02-.03-.03-.05-.05l-10.03-10.03c-3.09-3.09-3.09-8.09,0-11.18,3.09-3.09,8.09-3.09,11.18,0h0l10.03,10.03c3.08,3.09,3.08,8.09,0,11.18ZM245.09,368.14c-3.1,3.06-8.08,3.06-11.18,0l-10.03-10.03c-3.08-3.1-3.07-8.1.03-11.18,3.08-3.07,8.07-3.07,11.15,0l10.03,10.03c3.58,2.51,5.07,6.55,2.56,10.13-.53.75-1.18,1.41-2.56,1.05ZM275.19,398.21c-1.47,1.49-3.48,2.32-5.57,2.33-2.1,0-4.12-.84-5.61-2.33l-10.03-10.03c-3.08-3.09-3.07-8.08.02-11.16,3.09-3.08,8.08-3.07,11.16.02l10.03,10.03c3.08,3.07,3.08,8.05.01,11.13,0,0,0,0-.01.01ZM446.92,229.04l-143.25,143.13c-6.12,6.17-16.08,6.22-22.26.1-.03-.03-.07-.07-.1-.1l-61.51-61.43c-6.16-6.18-6.16-16.18,0-22.36l143.25-143.17c6.18-6.16,16.18-6.16,22.36,0l61.51,61.47c6.16,6.18,6.16,16.18,0,22.36Z"/>
  </g>
</svg>