<?xml version="1.0" encoding="UTF-8"?>
<svg xmlns="http://www.w3.org/2000/svg" version="1.1" viewBox="0 0 509.3 509.2">
  <defs>
    <style>
      .cls-1 {
        fill: #fff;
        fill-rule: evenodd;
      }
    </style>
  </defs>
  <!-- Generator: Adobe Illustrator 28.6.0, SVG Export Plug-In . SVG Version: 1.2.0 Build 709)  -->
  <g>
    <g id="Layer_1">
      <path class="cls-1" d="M63.1,440.6c-6.3-.8-12.8.3-18.6,3.3l-15.3,7.9-15.8-30.6,15.3-7.9c6.2-3.2,12.7-5.3,19.3-6.4V76.2s-.9-10.9,8.4-20.2c9.3-9.3,20.2-8.4,20.2-8.4h46.3s11.5-.3,20.2,8.4c8.7,8.7,8.3,20.2,8.3,20.2v57.5h206.9v-57.5s-.3-11.5,8.4-20.2c8.7-8.7,20.2-8.4,20.2-8.4h46.2s10.9-.9,20.2,8.4c9.3,9.2,8.4,20.2,8.4,20.2v330.7c6.6,1.1,13.1,3.3,19.3,6.4l15.3,7.9-15.8,30.6-15.3-7.9c-5.8-3-12.3-4.1-18.5-3.3-3.7.5-7.3,1.6-10.8,3.3l-20,10.3c-6.5,3.4-13.5,5.6-20.5,6.6-13.7,2.1-27.8-.1-40.5-6.6l-20-10.3c-9.3-4.8-20.2-4.8-29.4,0l-20,10.3c-19.2,9.9-41.8,9.9-61,0l-20-10.3c-9.3-4.8-20.2-4.8-29.4,0l-20,10.3c-12.6,6.5-26.8,8.7-40.4,6.7-7.1-1.1-14-3.3-20.5-6.7l-20-10.3c-3.4-1.8-7.1-2.9-10.7-3.3h0ZM116.8,168.1v-86.1h-34.4v328c2.4.9,4.8,2,7.2,3.2l20,10.3c2.3,1.2,4.7,2.1,7.2,2.7V168.1ZM358.1,168.1h-26.1v86.1h26.1v-86.1ZM297.5,168.1h-25.6v86.1h25.6v-86.1ZM237.5,168.1h-25.6v86.1h25.6v-86.1ZM177.4,168.1h-26.1v86.1h26.1v-86.1ZM358.1,288.7h0s0,0,0,0h0ZM358.1,335.5c-25.3-28.7-62.3-46.8-103.5-46.8s-78.1,18-103.4,46.7v81.8l7.8-4c19.2-9.9,41.8-9.9,60.9,0l20,10.3c9.3,4.8,20.2,4.8,29.4,0l20-10.3c19.2-9.9,41.8-9.9,60.9,0l7.8,4v-81.7ZM392.5,426.2c2.5-.6,4.8-1.5,7.1-2.7l20-10.3c2.4-1.2,4.8-2.3,7.3-3.2V82.1h-34.4v344.1Z"/>
    </g>
  </g>
</svg>