<?xml version="1.0" encoding="UTF-8"?>
<svg id="Layer_1" data-name="Layer 1" xmlns="http://www.w3.org/2000/svg" viewBox="0 0 509.31 509.2">
  <defs>
    <style>
      .cls-1 {
        fill: #fff;
        stroke-width: 0px;
      }
    </style>
  </defs>
  <g id="Governance">
    <path class="cls-1" d="M396.13,466.32c-3.75-3.75-9.65-3.75-12.86,0l-11.79,11.79v-51.99c0-5.36-4.29-9.11-9.11-9.11h-98.62v-36.45h120.6c5.36,0,9.11-4.29,9.11-9.11v-38.06c0-5.36-4.29-9.11-9.11-9.11h-13.94v-77.72h13.94c5.36,0,9.11-4.29,9.11-9.11v-38.06c0-5.36-4.29-9.11-9.11-9.11h-16.62c-10.18-49.85-52.53-88.44-104.52-92.19v-27.87h45.56c5.36,0,9.11-4.29,9.11-9.11V20.37c0-5.36-4.29-9.11-9.11-9.11h-45.56v-2.14c0-5.36-4.29-9.11-9.11-9.11-5.36,0-9.11,4.29-9.11,9.11v88.44c-51.99,4.29-94.34,42.34-104.52,92.19h-15.54c-5.36,0-9.11,4.29-9.11,9.11v38.06c0,5.36,4.29,9.11,9.11,9.11h13.94v78.26h-13.94c-5.36,0-9.11,4.29-9.11,9.11v38.06c0,5.36,4.29,9.11,9.11,9.11h120.6v36.45h-98.09c-5.36,0-9.11,4.29-9.11,9.11v51.46l-11.79-11.79c-3.75-3.75-9.65-3.75-12.86,0-3.75,3.75-3.75,9.65,0,12.86l27.34,27.34c1.61,1.61,4.29,2.68,6.43,2.68s4.82-1.07,6.43-2.68l27.34-27.34c3.75-3.75,3.75-9.65,0-12.86-3.75-3.75-9.65-3.75-12.86,0l-11.79,11.79v-42.34h88.98v42.88l-12.33-11.79c-3.75-3.75-9.65-3.75-12.86,0-3.75,3.75-3.75,9.65,0,12.86l27.34,27.34c1.61,1.61,4.29,2.68,6.43,2.68s4.82-1.07,6.43-2.68l27.34-27.34c3.75-3.75,3.75-9.65,0-12.86-3.75-3.75-9.65-3.75-12.86,0l-11.26,11.26v-41.81h88.98v42.34l-11.79-11.79c-3.75-3.75-9.65-3.75-12.86,0-3.75,3.75-3.75,9.65,0,12.86l27.34,27.34c1.61,1.61,4.29,2.68,6.43,2.68s4.82-1.07,6.43-2.68l27.34-27.34c3.75-3.75,3.75-9.65.54-12.86ZM263.2,29.48h36.45v21.98h-36.45v-21.98ZM254.09,115.78c45.56,0,84.15,31.62,94.87,74.5h-189.75c10.72-42.88,49.31-74.5,94.87-74.5ZM134.02,228.34v-19.3h241.2v19.3h-241.2ZM351.64,246.56v77.72h-24.12v-77.72h24.12ZM309.29,246.56v77.72h-24.12v-77.72h24.12ZM266.95,246.56v77.72h-24.12v-77.72h24.12ZM224.07,246.56v77.72h-24.12v-77.72h24.12ZM181.73,246.56v77.72h-24.12v-77.72h24.12ZM134.02,342.51h241.2v19.3h-241.2v-19.3Z"/>
  </g>
</svg>