<?xml version="1.0" encoding="UTF-8"?>
<svg id="Layer_1" data-name="Layer 1" xmlns="http://www.w3.org/2000/svg" version="1.1" viewBox="0 0 116.5 111.2">
  <defs>
    <style>
      .cls-1 {
        fill: #fff;
        fill-rule: evenodd;
        stroke-width: 0px;
      }
    </style>
  </defs>
  <path class="cls-1" d="M83.8,27.1c.2,1-.6,1.8-1.6,1.8h-20.7c-.9,0-1.7-.7-1.7-1.6V7.7c0-.9.7-1.6,1.7-1.6h15.1c.8,0,1.5.6,1.6,1.3l5.6,19.6ZM39.9,7.4c.2-.7.8-1.3,1.6-1.3h13.4c.9,0,1.7.7,1.7,1.6v19.6c0,.9-.7,1.6-1.7,1.6h-20.4c-1,0-1.8-.9-1.6-1.9l7-19.6ZM87.2,27.6c.1.8.8,1.3,1.6,1.3h23.4c.6,0,1-.5.8-1l-12.5-20.6c-.2-.6-.9-1.1-1.6-1.1h-15.7c-1,0-1.8.9-1.6,1.8l5.6,19.6ZM17.6,6.1h17.2c1,0,1.8.9,1.6,1.9l-7,19.6c-.1.7-.8,1.3-1.6,1.3H4.3c-.6,0-1-.5-.8-1L16,7.2c.2-.6.9-1.1,1.6-1.1h0ZM84.3,32.6c0-.8-.7-1.4-1.5-1.4h-21.8c-.8,0-1.5.6-1.5,1.4,0,3.6,1.3,12.9,12.8,12.9s12.2-9.4,12.1-12.9h0ZM87.6,32.7c0-.8.7-1.4,1.5-1.4h21.8c.8,0,1.5.6,1.5,1.4.1,3.6-.6,12.9-12.1,12.9s-12.7-9.3-12.8-12.9h0ZM56.9,32.6c0-.8-.7-1.4-1.5-1.4h-21.8c-.8,0-1.5.6-1.5,1.4,0,3.6,1.3,12.9,12.8,12.9s12.2-9.4,12.1-12.9h0ZM3.9,32.7c0-.8.7-1.4,1.5-1.4h21.8c.8,0,1.5.6,1.5,1.4.1,3.6-.6,12.9-12.1,12.9s-12.7-9.3-12.8-12.9h0ZM109.2,48.8v53.2c0,1.8-1.5,3.2-3.3,3.2l-26.5-.2c-.9,0-1.6-.7-1.6-1.6v-33.2c0-2.6-2.2-4.7-5-4.7h-28.2c-2.7,0-5,2.1-5,4.7v32.8c0,.9-.7,1.6-1.7,1.6l-26.6-.2c-1.8,0-3.3-1.4-3.3-3.2v-53.6c0-.7,1-1.1,1.6-.6,5.8,4.5,15.3,3.6,19.9-2.8.3-.5,1-.5,1.4-.1,7.5,7.6,19.2,8.9,26.6,0,.3-.4,1-.4,1.3,0,7.8,7.7,21.3,7.7,27.6,0,.3-.4,1-.5,1.3,0,6.2,6.1,14.2,7.5,19.9,4.2.6-.3,1.4,0,1.4.7h0ZM44.5,104.6c-.9,0-1.6-.7-1.6-1.6v-32.9c0-.9.7-1.6,1.7-1.6h28.2c.9,0,1.7.7,1.7,1.6v33.1c0,.9-.7,1.6-1.7,1.6l-28.2-.2ZM64.4,82.9c0,1.8,1.5,3.2,3.3,3.2s3.3-1.4,3.3-3.2-1.5-3.2-3.3-3.2-3.3,1.4-3.3,3.2Z"/>
</svg>