<?xml version="1.0" encoding="UTF-8"?>
<svg xmlns="http://www.w3.org/2000/svg" version="1.1" viewBox="0 0 509.3 509.2">
  <defs>
    <style>
      .cls-1 {
        fill: #fff;
        fill-rule: evenodd;
      }
    </style>
  </defs>
  <!-- Generator: Adobe Illustrator 28.6.0, SVG Export Plug-In . SVG Version: 1.2.0 Build 709)  -->
  <g>
    <g id="Layer_1">
      <path class="cls-1" d="M254.1,254.6h0c.3,0,.7,0,1,0h-1Z"/>
      <path class="cls-1" d="M424.6,143.3v-18c0-21-8.3-41.1-23.2-55.9-14.9-14.8-35-23.2-56-23.2H81.2c-17,0-33.2,6.7-45.2,18.7-12,12-18.7,28.3-18.7,45.2v273.9c0,21,8.3,41.1,23.2,55.9,14.9,14.8,35,23.2,56,23.2h316.6c21,0,41.1-8.3,56-23.2,14.8-14.8,23.2-35,23.2-55.9v-162.4c0-39.7-29.3-72.6-67.4-78.3ZM58.4,87.2c6.1-6.1,14.3-9.5,22.9-9.5h264.3c12.6,0,24.7,5,33.6,13.9,8.9,8.9,13.9,21,13.9,33.6v17.2H81.2c-8.6,0-16.8-3.4-22.9-9.5-6-6-9.5-14.3-9.5-22.8h0c0-8.6,3.4-16.9,9.5-22.9ZM460.4,384c0,12.6-5,24.7-13.9,33.6-8.9,8.9-21,13.9-33.6,13.9H96.4c-12.6,0-24.7-5-33.6-13.9-8.9-8.9-13.9-21-13.9-33.6v-218.7c9.7,5.7,20.9,8.8,32.3,8.8h331.7c26.2,0,47.5,21.2,47.5,47.5v33h-47.5c-26.2,0-47.5,21.2-47.5,47.5s21.2,47.5,47.5,47.5h47.5v34.4ZM460.4,317.9h-47.5c-8.7,0-15.8-7.1-15.8-15.8s7.1-15.8,15.8-15.8h47.5v31.7Z"/>
    </g>
  </g>
</svg>