<svg id="eWd8U9oaRP51" xmlns="http://www.w3.org/2000/svg" xmlns:xlink="http://www.w3.org/1999/xlink" viewBox="0 0 600 600" shape-rendering="geometricPrecision" text-rendering="geometricPrecision" project-id="c1e45e13239b4bf59374b680ccdb4184" export-id="823dde77b4c147d2a536b845cf926bb0" cached="false">
<style><![CDATA[
#eWd8U9oaRP546_to {animation: eWd8U9oaRP546_to__to 4000ms linear infinite normal forwards}@keyframes eWd8U9oaRP546_to__to { 0% {offset-distance: 0%} 40% {offset-distance: 0%} 57.5% {offset-distance: 41.07463%} 66.5% {offset-distance: 58.795695%} 85% {offset-distance: 100%} 100% {offset-distance: 100%}} #eWd8U9oaRP546_ts {animation: eWd8U9oaRP546_ts__ts 4000ms linear infinite normal forwards}@keyframes eWd8U9oaRP546_ts__ts { 0% {transform: scale(0.497383,0.497382)} 40% {transform: scale(0.497383,0.497382)} 47.5% {transform: scale(1,1)} 85% {transform: scale(1,1)} 87.5% {transform: scale(0.5,0.5)} 100% {transform: scale(0.5,0.5)}} #eWd8U9oaRP546 {animation: eWd8U9oaRP546_c_o 4000ms linear infinite normal forwards}@keyframes eWd8U9oaRP546_c_o { 0% {opacity: 0} 40% {opacity: 0} 47.5% {opacity: 1} 85% {opacity: 1} 87.5% {opacity: 0} 100% {opacity: 0}} #eWd8U9oaRP551_to {animation: eWd8U9oaRP551_to__to 4000ms linear infinite normal forwards}@keyframes eWd8U9oaRP551_to__to { 0% {offset-distance: 0%} 10% {offset-distance: 0%} 27.5% {offset-distance: 41.07463%} 36.5% {offset-distance: 58.795695%} 55% {offset-distance: 100%} 100% {offset-distance: 100%}} #eWd8U9oaRP551_ts {animation: eWd8U9oaRP551_ts__ts 4000ms linear infinite normal forwards}@keyframes eWd8U9oaRP551_ts__ts { 0% {transform: scale(0.497383,0.497382)} 10% {transform: scale(0.497383,0.497382)} 17.5% {transform: scale(1,1)} 55% {transform: scale(1,1)} 57.5% {transform: scale(0.5,0.5)} 100% {transform: scale(0.5,0.5)}} #eWd8U9oaRP551 {animation: eWd8U9oaRP551_c_o 4000ms linear infinite normal forwards}@keyframes eWd8U9oaRP551_c_o { 0% {opacity: 0} 10% {opacity: 0} 17.5% {opacity: 1} 55% {opacity: 1} 57.5% {opacity: 0} 100% {opacity: 0}} #eWd8U9oaRP561_to {animation: eWd8U9oaRP561_to__to 4000ms linear infinite normal forwards}@keyframes eWd8U9oaRP561_to__to { 0% {offset-distance: 0%} 25% {offset-distance: 0%} 42.5% {offset-distance: 41.07463%} 51.5% {offset-distance: 58.795695%} 70% {offset-distance: 100%} 100% {offset-distance: 100%}} #eWd8U9oaRP561_ts {animation: eWd8U9oaRP561_ts__ts 4000ms linear infinite normal forwards}@keyframes eWd8U9oaRP561_ts__ts { 0% {transform: scale(0.497383,0.497382)} 25% {transform: scale(0.497383,0.497382)} 32.5% {transform: scale(1,1)} 70% {transform: scale(1,1)} 100% {transform: scale(1,1)}} #eWd8U9oaRP561 {animation: eWd8U9oaRP561_c_o 4000ms linear infinite normal forwards}@keyframes eWd8U9oaRP561_c_o { 0% {opacity: 0} 25% {opacity: 0} 32.5% {opacity: 1} 67.5% {opacity: 1} 70% {opacity: 0} 100% {opacity: 0}} #eWd8U9oaRP566_to {animation: eWd8U9oaRP566_to__to 4000ms linear infinite normal forwards}@keyframes eWd8U9oaRP566_to__to { 0% {offset-distance: 0%} 17.5% {offset-distance: 14.983367%} 26.5% {offset-distance: 21.447727%} 45% {offset-distance: 36.478398%} 50% {offset-distance: 63.521602%} 67.5% {offset-distance: 78.504969%} 76.5% {offset-distance: 84.96933%} 97% {offset-distance: 100%} 100% {offset-distance: 100%}} #eWd8U9oaRP566_ts {animation: eWd8U9oaRP566_ts__ts 4000ms linear infinite normal forwards}@keyframes eWd8U9oaRP566_ts__ts { 0% {transform: scale(0.497383,0.497382)} 7.5% {transform: scale(1,1)} 45% {transform: scale(1,1)} 47.5% {transform: scale(0.5,0.5)} 50% {transform: scale(0.5,0.5)} 57.5% {transform: scale(1,1)} 61.25% {transform: scale(0.999999,1)} 100% {transform: scale(0.999999,1)}} #eWd8U9oaRP566 {animation: eWd8U9oaRP566_c_o 4000ms linear infinite normal forwards}@keyframes eWd8U9oaRP566_c_o { 0% {opacity: 0} 7.5% {opacity: 1} 42.5% {opacity: 1} 45% {opacity: 0} 50% {opacity: 0} 57.5% {opacity: 1} 100% {opacity: 1}} #eWd8U9oaRP571_to {animation: eWd8U9oaRP571_to__to 4000ms linear infinite normal forwards}@keyframes eWd8U9oaRP571_to__to { 0% {offset-distance: 0%} 17.5% {offset-distance: 19.325266%} 26.5% {offset-distance: 27.662877%} 45% {offset-distance: 33.701628%} 50% {offset-distance: 63.799806%} 67.5% {offset-distance: 83.125071%} 76.5% {offset-distance: 91.462682%} 97% {offset-distance: 100%} 100% {offset-distance: 100%}} #eWd8U9oaRP571_ts {animation: eWd8U9oaRP571_ts__ts 4000ms linear infinite normal forwards}@keyframes eWd8U9oaRP571_ts__ts { 0% {transform: scale(0.497383,0.497382)} 7.5% {transform: scale(1,1)} 45% {transform: scale(1,1)} 47.5% {transform: scale(0.5,0.5)} 50% {transform: scale(0.5,0.5)} 57.5% {transform: scale(1,1)} 100% {transform: scale(1,1)}} #eWd8U9oaRP571 {animation: eWd8U9oaRP571_c_o 4000ms linear infinite normal forwards}@keyframes eWd8U9oaRP571_c_o { 0% {opacity: 0} 7.5% {opacity: 1} 42.5% {opacity: 1} 45% {opacity: 0} 50% {opacity: 0} 57.5% {opacity: 1} 92.5% {opacity: 1} 95% {opacity: 0} 100% {opacity: 0}} #eWd8U9oaRP576_to {animation: eWd8U9oaRP576_to__to 4000ms linear infinite normal forwards}@keyframes eWd8U9oaRP576_to__to { 0% {offset-distance: 0%} 32.5% {offset-distance: 0%} 50% {offset-distance: 30.290478%} 59% {offset-distance: 43.358873%} 77.5% {offset-distance: 52.824029%} 82.5% {offset-distance: 100%} 100% {offset-distance: 100%}} #eWd8U9oaRP576_ts {animation: eWd8U9oaRP576_ts__ts 4000ms linear infinite normal forwards}@keyframes eWd8U9oaRP576_ts__ts { 0% {transform: scale(0.497383,0.497382)} 32.5% {transform: scale(0.497383,0.497382)} 40% {transform: scale(1,1)} 77.5% {transform: scale(1,1)} 80% {transform: scale(0.5,0.5)} 82.5% {transform: scale(0.5,0.5)} 100% {transform: scale(0.5,0.5)}} #eWd8U9oaRP576 {animation: eWd8U9oaRP576_c_o 4000ms linear infinite normal forwards}@keyframes eWd8U9oaRP576_c_o { 0% {opacity: 0} 32.5% {opacity: 0} 40% {opacity: 1} 75% {opacity: 1} 77.5% {opacity: 0} 82.5% {opacity: 0} 100% {opacity: 0}} #eWd8U9oaRP581_to {animation: eWd8U9oaRP581_to__to 4000ms linear infinite normal forwards}@keyframes eWd8U9oaRP581_to__to { 0% {offset-distance: 0%} 25% {offset-distance: 0%} 42.5% {offset-distance: 57.342233%} 51.5% {offset-distance: 82.081723%} 70% {offset-distance: 100%} 100% {offset-distance: 100%}} #eWd8U9oaRP581_ts {animation: eWd8U9oaRP581_ts__ts 4000ms linear infinite normal forwards}@keyframes eWd8U9oaRP581_ts__ts { 0% {transform: scale(0.497383,0.497382)} 25% {transform: scale(0.497383,0.497382)} 32.5% {transform: scale(1,1)} 70% {transform: scale(1,1)} 72.5% {transform: scale(0.5,0.5)} 100% {transform: scale(0.5,0.5)}} #eWd8U9oaRP581 {animation: eWd8U9oaRP581_c_o 4000ms linear infinite normal forwards}@keyframes eWd8U9oaRP581_c_o { 0% {opacity: 0} 25% {opacity: 0} 32.5% {opacity: 1} 67.5% {opacity: 1} 70% {opacity: 0} 100% {opacity: 0}} #eWd8U9oaRP586_to {animation: eWd8U9oaRP586_to__to 4000ms linear infinite normal forwards}@keyframes eWd8U9oaRP586_to__to { 0% {offset-distance: 0%} 17.5% {offset-distance: 19.325266%} 26.5% {offset-distance: 27.662877%} 45% {offset-distance: 33.701628%} 50% {offset-distance: 63.799806%} 67.5% {offset-distance: 83.125071%} 76.5% {offset-distance: 91.462682%} 97% {offset-distance: 100%} 100% {offset-distance: 100%}} #eWd8U9oaRP586_ts {animation: eWd8U9oaRP586_ts__ts 4000ms linear infinite normal forwards}@keyframes eWd8U9oaRP586_ts__ts { 0% {transform: scale(0.497383,0.497382)} 7.5% {transform: scale(1,1)} 45% {transform: scale(1,1)} 47.5% {transform: scale(0.5,0.5)} 50% {transform: scale(0.5,0.5)} 57.5% {transform: scale(1,1)} 100% {transform: scale(1,1)}} #eWd8U9oaRP586 {animation: eWd8U9oaRP586_c_o 4000ms linear infinite normal forwards}@keyframes eWd8U9oaRP586_c_o { 0% {opacity: 0} 7.5% {opacity: 1} 42.5% {opacity: 1} 45% {opacity: 0} 50% {opacity: 0} 57.5% {opacity: 1} 92.5% {opacity: 1} 95% {opacity: 0} 100% {opacity: 0}}
]]></style>
<g transform="translate(0 20)"><g transform="translate(87.400002 160.600002)"><circle r="16.1" transform="translate(123.1 72.7)" stroke="#fff" stroke-miterlimit="10"/><circle r="19.1" transform="translate(123.1 72.1)" fill="none" stroke="#fff" stroke-width="20" stroke-miterlimit="10"/></g><g transform="translate(-21.800004 63.04998)"><ellipse rx="19.1" ry="19.1" transform="translate(123.000002 61.8)" fill="#fff" stroke-width="0"/><path d="M123,71.2v126.7c0,19.2,15.6,34.8,34.8,34.8h127.1" fill="none" stroke="#fff" stroke-width="20" stroke-linecap="round" stroke-miterlimit="10"/><g id="eWd8U9oaRP546_to" style="offset-path:path('M123,71.2L123,197.9C123,217.1,138.6,232.7,157.8,232.7L284.9,232.7');offset-rotate:0deg"><g id="eWd8U9oaRP546_ts" transform="scale(0.497383,0.497382)"><g id="eWd8U9oaRP546" transform="translate(-123.099998,-72.099998)" opacity="0"><circle r="19.1" transform="translate(123.1 72.1)" stroke="#fff" stroke-width="20" stroke-miterlimit="10"/></g></g></g></g><g transform="matrix(-1 0 0 1 602.400002-2.400001)"><ellipse rx="19.1" ry="19.1" transform="translate(123.000002 61.8)" fill="#fff" stroke-width="0"/><path d="M123,71.2v126.7c0,0,15.6,34.8,34.8,34.8h127.1" fill="none" stroke="#fff" stroke-width="20" stroke-linecap="round" stroke-miterlimit="10"/><g id="eWd8U9oaRP551_to" style="offset-path:path('M123,71.2L123,197.9C123,217.1,138.6,232.7,157.8,232.7L284.9,232.7');offset-rotate:0deg"><g id="eWd8U9oaRP551_ts" transform="scale(0.497383,0.497382)"><g id="eWd8U9oaRP551" transform="translate(-123.099998,-72.099998)" opacity="0"><circle r="19.1" transform="translate(123.1 72.1)" stroke="#fff" stroke-width="20" stroke-miterlimit="10"/></g></g></g></g><g transform="matrix(-1 0 0-1 611.85 501.200005)"><ellipse rx="19.1" ry="19.1" transform="translate(123.000002 61.8)" fill="#fff" stroke-width="0"/><path d="M123,71.2v126.7c0,19.2,15.6,34.8,34.8,34.8h127.1" fill="none" stroke="#fff" stroke-width="20" stroke-linecap="round" stroke-miterlimit="10"/><g transform="matrix(0 1-1 0 332.099999-56.700005)"><path d="M123,71.2v126.7c0,19.2,15.6,34.8,34.8,34.8h47.1" transform="matrix(0-1 1 0 282.200007 69.849997)" fill="none" stroke="#fff" stroke-width="20" stroke-linecap="round" stroke-miterlimit="10"/><ellipse rx="19.1" ry="19.1" transform="translate(515.250028-139.058566)" fill="#fff" stroke-width="0"/><ellipse rx="19.1" ry="19.1" transform="matrix(-1 0 0-1 38.55 189.999997)" fill="#fff" stroke-width="0"/><path d="M123,71.2v126.7c0,19.2,15.6,34.8,34.8,34.8h47.1" transform="matrix(0 1-1 0 270.825015-26.245711)" fill="none" stroke="#fff" stroke-width="20" stroke-linecap="round" stroke-miterlimit="10"/></g><g id="eWd8U9oaRP561_to" style="offset-path:path('M123,71.2L123,197.9C123,217.1,138.6,232.7,157.8,232.7L284.9,232.7');offset-rotate:0deg"><g id="eWd8U9oaRP561_ts" transform="scale(0.497383,0.497382)"><g id="eWd8U9oaRP561" transform="translate(-123.099998,-72.099998)" opacity="0"><circle r="19.1" transform="translate(123.1 72.1)" stroke="#fff" stroke-width="20" stroke-miterlimit="10"/></g></g></g></g><g transform="matrix(1 0 0-1-21.800002 566.649985)"><ellipse rx="19.1" ry="19.1" transform="translate(123.000002 61.8)" fill="#fff" stroke-width="0"/><path d="M123,71.2v126.7c0,19.2,15.6,34.8,34.8,34.8h127.1" fill="none" stroke="#fff" stroke-width="20" stroke-linecap="round" stroke-miterlimit="10"/><g id="eWd8U9oaRP566_to" style="offset-path:path('M123,71.2L123,197.9C123,217.1,138.6,232.7,157.8,232.7L284.9,232.7L123,71.2L123,197.9C123,217.1,138.6,232.7,157.8,232.7L284.9,232.7');offset-rotate:0deg"><g id="eWd8U9oaRP566_ts" transform="scale(0.497383,0.497382)"><g id="eWd8U9oaRP566" transform="translate(-123.099998,-72.099998)" opacity="0"><circle r="19.1" transform="translate(123.1 72.1)" stroke="#fff" stroke-width="20" stroke-miterlimit="10"/></g></g></g></g><g transform="translate(227.647305-19.150018)"><ellipse rx="19.1" ry="19.1" transform="translate(123.000002 61.8)" fill="#fff" stroke-width="0"/><path d="M123,71.2v126.7c0,19.2,15.6,34.8,34.8,34.8l-6.799998,43.41902" transform="matrix(1 0 0 1.059443 0-9.032364)" fill="none" stroke="#fff" stroke-width="20" stroke-linecap="round" stroke-miterlimit="10"/><g id="eWd8U9oaRP571_to" style="offset-path:path('M123,71.2L123,197.9C123,217.1,138.6,232.7,157.8,232.7L188.900002,257.200002L123,71.2L123,197.9C123,217.1,138.6,232.7,157.8,232.7L181.300004,283.499999');offset-rotate:0deg"><g id="eWd8U9oaRP571_ts" transform="scale(0.497383,0.497382)"><g id="eWd8U9oaRP571" transform="translate(-123.099998,-72.099998)" opacity="0"><circle r="19.1" transform="translate(123.1 72.1)" stroke="#fff" stroke-width="20" stroke-miterlimit="10"/></g></g></g></g><g transform="translate(167.647305-54.150018)"><ellipse rx="19.1" ry="19.1" transform="translate(123.000002 61.8)" fill="#fff" stroke-width="0"/><path d="M123,71.2v126.7c0,19.2,15.6,34.8,34.8,34.8l-6.799998,43.41902" transform="matrix(1 0 0 1.059443 0-9.032364)" fill="none" stroke="#fff" stroke-width="20" stroke-linecap="round" stroke-miterlimit="10"/><g id="eWd8U9oaRP576_to" style="offset-path:path('M123,71.2L123,197.9C123,217.1,138.6,232.7,157.8,232.7L188.900002,257.200002L123,71.2');offset-rotate:0deg"><g id="eWd8U9oaRP576_ts" transform="scale(0.497383,0.497382)"><g id="eWd8U9oaRP576" transform="translate(-123.099998,-72.099998)" opacity="0"><circle r="19.1" transform="translate(123.1 72.1)" stroke="#fff" stroke-width="20" stroke-miterlimit="10"/></g></g></g></g><g transform="matrix(1 0 0-1 122.7 604.849988)"><ellipse rx="19.1" ry="19.1" transform="translate(123.000002 61.8)" fill="#fff" stroke-width="0"/><path d="M123,71.2v126.7c0,19.2,15.6,34.8,34.8,34.8l-6.799998,43.41902" transform="matrix(1 0 0 1.059443 0-9.032364)" fill="none" stroke="#fff" stroke-width="20" stroke-linecap="round" stroke-miterlimit="10"/><g id="eWd8U9oaRP581_to" style="offset-path:path('M123,71.2L123,197.9C123,217.1,138.6,232.7,157.8,232.7L188.900002,257.200002');offset-rotate:0deg"><g id="eWd8U9oaRP581_ts" transform="scale(0.497383,0.497382)"><g id="eWd8U9oaRP581" transform="translate(-123.099998,-72.099998)" opacity="0"><circle r="19.1" transform="translate(123.1 72.1)" stroke="#fff" stroke-width="20" stroke-miterlimit="10"/></g></g></g></g><g transform="matrix(-1 0 0-1 430.776349 571.100003)"><ellipse rx="19.1" ry="19.1" transform="translate(123.000002 61.8)" fill="#fff" stroke-width="0"/><path d="M123,71.2v126.7c0,19.2,15.6,34.8,34.8,34.8l-6.799998,43.41902" transform="matrix(1 0 0 1.059443 0-9.032364)" fill="none" stroke="#fff" stroke-width="20" stroke-linecap="round" stroke-miterlimit="10"/><g id="eWd8U9oaRP586_to" style="offset-path:path('M123,71.2L123,197.9C123,217.1,138.6,232.7,157.8,232.7L188.900002,257.200002L123,71.2L123,197.9C123,217.1,138.6,232.7,157.8,232.7L181.300004,283.499999');offset-rotate:0deg"><g id="eWd8U9oaRP586_ts" transform="scale(0.497383,0.497382)"><g id="eWd8U9oaRP586" transform="translate(-123.099998,-72.099998)" opacity="0"><circle r="19.1" transform="translate(123.1 72.1)" stroke="#fff" stroke-width="20" stroke-miterlimit="10"/></g></g></g></g><g><g><circle r="130.2" transform="translate(294.1 268)" stroke="#fff" stroke-width="20" stroke-miterlimit="10"/><g><path d="M391.2,286.3c-5.5,27.1-22.3,50.1-45.3,63.9" fill="none" stroke="#fff" stroke-width="20" stroke-linecap="round" stroke-linejoin="round"/><path d="M205.5,229.6c14.6-35.5,49.5-60.5,90.2-60.5s74.7,24.4,89.6,59.1" fill="none" stroke="#fff" stroke-width="20" stroke-linecap="round" stroke-linejoin="round"/></g><g><path d="M273.1,259.7h15.4v-17.7h-15.4c-5.2,0-7.1,2.8-7.1,7.2v3.6c0,4.6,2.1,6.8,7.1,6.8v.1Zm26.4,13.8v19.9h15.7c5.1,0,7.1-2.8,7.1-7.4v-5.2c0-4.7-2.1-7.2-7.1-7.2h-15.7v-.1Zm-2.4-65.3c1.6,0,2.4.8,2.4,2.4v14.9h31.4c1.6,0,2.4.9,2.4,2.7v11.1c0,1.7-.8,2.7-2.4,2.7h-31.4v17.7h21.1c14.6,0,20.8,7.1,20.8,20.8v8.3c0,12.5-5.2,21.1-20.9,21.1h-20.9v15.6c0,1.6-.8,2.4-2.4,2.4h-6.2c-1.6,0-2.4-.8-2.4-2.4v-15.6h-34.4c-1.6,0-2.6-.9-2.6-2.7v-11.1c0-1.7.9-2.7,2.6-2.7h34.4v-19.9h-20.8c-14.5,0-20.9-7-20.9-20.5v-6.6c0-12.3,5.4-20.9,20.9-20.9h20.8v-14.9c0-1.6.8-2.4,2.4-2.4h6.2-.1Zm42.2,25.5c0,4.6-3.7,8.3-8.3,8.3s-3.4-3.7-3.4-8.3-1.1-8.3,3.4-8.3s8.3,3.7,8.3,8.3Zm-81.6,68c0,4.6,1.1,8.3-3.5,8.3s-8.3-3.7-8.3-8.3s3.7-8.3,8.3-8.3s3.5,3.7,3.5,8.3ZM299.5,210c0,3-2.5,5.5-5.5,5.5s-5.5-2.5-5.5-5.5s2.5-5.5,5.5-5.5s5.5,2.5,5.5,5.5Zm0,116.5c0,3-2.5,5.5-5.5,5.5s-5.5-2.5-5.5-5.5s2.5-5.5,5.5-5.5s5.5,2.5,5.5,5.5Z" fill="#fff"/></g></g></g></g></svg>
