<svg id="eRV7aFJLIpE1" xmlns="http://www.w3.org/2000/svg" xmlns:xlink="http://www.w3.org/1999/xlink" viewBox="0 0 600 600" shape-rendering="geometricPrecision" text-rendering="geometricPrecision" project-id="4db777906a31434b8336a1d78852e5e2" export-id="b05a9297b81344b0965c87975fcca444" cached="false">
<style><![CDATA[
#eRV7aFJLIpE3_to {animation: eRV7aFJLIpE3_to__to 3000ms linear infinite normal forwards}@keyframes eRV7aFJLIpE3_to__to { 0% {transform: translate(182.668333px,512.8px);animation-timing-function: cubic-bezier(0.77,0,0.175,1)} 16.666667% {transform: translate(332.668333px,362.8px);animation-timing-function: cubic-bezier(0.77,0,0.175,1)} 76.666667% {transform: translate(302.668333px,392.8px);animation-timing-function: cubic-bezier(0.77,0,0.175,1)} 100% {transform: translate(521.668333px,170.8px)}} #eRV7aFJLIpE3 {animation: eRV7aFJLIpE3_c_o 3000ms linear infinite normal forwards}@keyframes eRV7aFJLIpE3_c_o { 0% {opacity: 0;animation-timing-function: cubic-bezier(0.77,0,0.175,1)} 16.666667% {opacity: 1;animation-timing-function: cubic-bezier(0.77,0,0.175,1)} 76.666667% {opacity: 1;animation-timing-function: cubic-bezier(0.77,0,0.175,1)} 90% {opacity: 0} 100% {opacity: 0}} #eRV7aFJLIpE11 {animation: eRV7aFJLIpE11_s_do 3000ms linear infinite normal forwards}@keyframes eRV7aFJLIpE11_s_do { 0% {stroke-dashoffset: 118.74;animation-timing-function: cubic-bezier(0.77,0,0.175,1)} 16.666667% {stroke-dashoffset: 0;animation-timing-function: cubic-bezier(0.77,0,0.175,1)} 76.666667% {stroke-dashoffset: 100} 90% {stroke-dashoffset: 0} 100% {stroke-dashoffset: 0}} #eRV7aFJLIpE12 {animation: eRV7aFJLIpE12_s_do 3000ms linear infinite normal forwards}@keyframes eRV7aFJLIpE12_s_do { 0% {stroke-dashoffset: 173.73;animation-timing-function: cubic-bezier(0.77,0,0.175,1)} 16.666667% {stroke-dashoffset: 0;animation-timing-function: cubic-bezier(0.77,0,0.175,1)} 76.666667% {stroke-dashoffset: 120} 90% {stroke-dashoffset: 0} 100% {stroke-dashoffset: 0}} #eRV7aFJLIpE13 {animation: eRV7aFJLIpE13_s_do 3000ms linear infinite normal forwards}@keyframes eRV7aFJLIpE13_s_do { 0% {stroke-dashoffset: 170.76;animation-timing-function: cubic-bezier(0.77,0,0.175,1)} 16.666667% {stroke-dashoffset: 0;animation-timing-function: cubic-bezier(0.77,0,0.175,1)} 76.666667% {stroke-dashoffset: 120} 90% {stroke-dashoffset: 0} 100% {stroke-dashoffset: 0}}
]]></style>
<g transform="translate(.000001-80)"><g id="eRV7aFJLIpE3_to" transform="translate(182.668333,512.8)"><g id="eRV7aFJLIpE3" transform="rotate(44.447633) translate(-296.999985,-295.000011)" opacity="0"><g><path d="M296.9,40.8c1.3,0,2.8-.2,4.1-.7c1.7-.8,1.5-.9,1.4-.7c0,0-.1,0-.1,0s-.3.2-.3.2-.6.4-.6.4C282,54.6,266.2,73.8,253.5,94.4c-26.2,42.8-37.1,93.6-35.6,143.5.4,12.3,1.4,25.3,3.1,37.6.5,3.4,1.3,9.1,1.9,12.5c7,41.8,20.3,82.1,37.3,121.1c0,0-18.5-12.5-18.5-12.5s111.1,0,111.1,0-18.4,12.1-18.4,12.1.5-1.2.5-1.2c.3-.6,1.5-3.5,1.8-4.2c45-112.6,69-269.5-35.4-356.6-2-1.7-4.1-3.3-6.2-5c.7.2,1.3-.2,1.8-1v0v.1Zm.6-20c3,.9,6.4,2.4,9.1,4.3c2.5,1.8,5.1,3.6,7.6,5.5c105.3,78.5,104.5,225.9,73.6,341.5-4.7,17.7-10,35.3-16.6,52.4c0,0-5.1,12.1-5.1,12.1s-13.3,0-13.3,0c-9.1-.2-118.9.4-125-.3c0,0-4.6-12.1-4.6-12.1-19.2-50.6-33.1-104.3-36-158.7-1-18.2-.6-36.8,1.2-54.9C195.3,138.9,229,67,288.7,24.5c2.5-1.7,5.2-3.8,8.8-3.6v0-.1Z" fill="#fff"/><path d="M391.7,217.9c0,0,57.7,13.6,62.3,56.7s-5.2,120.6-5.2,120.6l-73.2-32.5" fill="none" stroke="#fff" stroke-width="20" stroke-linecap="round" stroke-linejoin="round"/><path d="M202.3,217.9c0,0-57.7,13.6-62.3,56.7-4.6,43,5.2,120.6,5.2,120.6l73.2-32.5" fill="none" stroke="#fff" stroke-width="20" stroke-linecap="round" stroke-linejoin="round"/><ellipse rx="41.1" ry="36.6" transform="translate(298.4 158.1)" fill="none" stroke="#fff" stroke-width="20" stroke-linecap="round" stroke-linejoin="round"/><line x1="233.4" y1="364" x2="360.7" y2="364" fill="none" stroke="#fff" stroke-width="40" stroke-linecap="round" stroke-miterlimit="10"/></g><g transform="translate(-.081804 8.484888)"><line id="eRV7aFJLIpE11" x1="339.1" y1="449.7" x2="338.678384" y2="568.431563" fill="none" stroke="#fff" stroke-width="20" stroke-linecap="round" stroke-linejoin="round" stroke-dashoffset="118.74" stroke-dasharray="118.74"/><line id="eRV7aFJLIpE12" x1="299.1" y1="449.7" x2="298.577218" y2="623.424961" fill="none" stroke="#fff" stroke-width="20" stroke-linecap="round" stroke-linejoin="round" stroke-dashoffset="173.73" stroke-dasharray="173.73"/><line id="eRV7aFJLIpE13" x1="257.3" y1="448.3" x2="257.68687" y2="619.057589" transform="matrix(-1 0 0 0.804009 514.599976 92.605748)" fill="none" stroke="#fff" stroke-width="20" stroke-linecap="round" stroke-linejoin="round" stroke-dashoffset="170.76" stroke-dasharray="170.76"/></g></g></g></g></svg>
