<?xml version="1.0" encoding="UTF-8"?>
<svg id="Layer_1" data-name="Layer 1" xmlns="http://www.w3.org/2000/svg" version="1.1" viewBox="0 0 116.5 111.2">
  <defs>
    <style>
      .cls-1 {
        fill: #fff;
        fill-rule: evenodd;
        stroke-width: 0px;
      }
    </style>
  </defs>
  <path class="cls-1" d="M77.4,81.7c1.3-.3,2.6.4,3,1.7.3,1.3-.4,2.6-1.7,3l-17.2,4.6c-1.7.5-3.5.3-5-.5-1.5-.7-2.8-2-3.4-3.7l-1.7-4.1c-.2-.5-.6-.9-1.1-1.2-.5-.2-1.1-.3-1.6-.1l-9.1,2.7c-1.3.4-2.6-.3-3-1.6-.4-1.3.3-2.7,1.6-3l9.1-2.7c1.8-.5,3.6-.3,5.1.4,1.5.7,2.8,2,3.5,3.7l1.7,4.1c.2.5.6.9,1.1,1.2.5.2,1,.3,1.6.1l17.2-4.6h0ZM81.1,62.1h-5.2c-1.4,0-2.4-1.1-2.4-2.4s1.1-2.4,2.4-2.4h5.2c1.3,0,2.4,1.1,2.4,2.4s-1.1,2.4-2.4,2.4ZM81.1,46h-45.5c-1.4,0-2.4-1.1-2.4-2.4s1.1-2.4,2.4-2.4h45.5c1.3,0,2.4,1.1,2.4,2.4s-1.1,2.4-2.4,2.4ZM81.1,29.9h-45.5c-1.4,0-2.4-1.1-2.4-2.4s1.1-2.4,2.4-2.4h45.5c1.3,0,2.4,1.1,2.4,2.4s-1.1,2.4-2.4,2.4ZM83.9,3.5h-51.4c-4.2,0-8,1.7-10.7,4.5-2.8,2.8-4.5,6.6-4.5,10.7v73.9c0,4.2,1.7,8,4.5,10.7,2.8,2.8,6.6,4.5,10.7,4.5h51.4c4.2,0,8-1.7,10.7-4.5,2.8-2.8,4.5-6.6,4.5-10.7V18.7c0-4.2-1.7-8-4.5-10.7-2.8-2.8-6.6-4.5-10.7-4.5ZM58.2,62.1h-22.7c-1.4,0-2.4-1.1-2.4-2.4s1.1-2.4,2.4-2.4h22.7c1.4,0,2.4,1.1,2.4,2.4s-1.1,2.4-2.4,2.4Z"/>
</svg>