<?xml version="1.0" encoding="UTF-8"?>
<svg xmlns="http://www.w3.org/2000/svg" version="1.1" viewBox="0 0 509.3 509.2">
  <defs>
    <style>
      .cls-1 {
        fill: #fff;
        fill-rule: evenodd;
      }
    </style>
  </defs>
  <!-- Generator: Adobe Illustrator 28.6.0, SVG Export Plug-In . SVG Version: 1.2.0 Build 709)  -->
  <g>
    <g id="Layer_1">
      <path class="cls-1" d="M115.9,11.8c38.3,0,69.4,31.1,69.4,69.4s-31.1,69.4-69.4,69.4-69.4-31.1-69.4-69.4S77.6,11.8,115.9,11.8ZM143.1,167.9c20.4,0,40,8.1,54.4,22.5,14.4,14.4,22.5,34,22.5,54.4v82.2c0,13.8-5.5,27-15.2,36.8l-14.4,14.4c-3.3,3.3-5.1,7.7-5.1,12.2v55c0,28.7-23.3,52-52,52h-34.7c-28.7,0-52-23.3-52-52v-55c0-4.6-1.8-9-5.1-12.2l-14.4-14.4c-9.8-9.8-15.2-23-15.2-36.8v-82.2c0-20.4,8.1-40,22.5-54.4,14.4-14.4,34-22.5,54.4-22.5h54.4ZM367.4,373.7c-53.9-30.8-82.8-61.6-97.8-91.9-15.5-31.2-16.7-62.3-13.4-94,.9-8.8,8.4-15.6,17.3-15.6,19.6,0,28.1-19.1,28.1-39s7.8-17.3,17.3-17.3h114.4c9.6,0,17.3,7.8,17.3,17.3,0,19.9,8.5,39,28.1,39s16.3,6.7,17.3,15.6c3.3,31.8,2.1,62.9-13.4,94-15,30.3-43.9,61-97.8,91.9-5.4,3.1-11.9,3.1-17.3,0h0ZM328.6,257.7l26,28.2c3.5,3.8,8.4,5.8,13.5,5.6,5.1-.2,9.8-2.7,13-6.7l43.4-56.4c5.8-7.6,4.4-18.5-3.2-24.3-7.6-5.8-18.5-4.4-24.3,3.2l-30.8,40.1-12.1-13.1c-6.5-7-17.5-7.5-24.5-1-7,6.5-7.5,17.5-1,24.5h0Z"/>
    </g>
  </g>
</svg>