<?xml version="1.0" encoding="UTF-8"?>
<svg xmlns="http://www.w3.org/2000/svg" version="1.1" viewBox="0 0 509.3 509.2">
  <defs>
    <style>
      .cls-1 {
        fill: #fff;
        fill-rule: evenodd;
      }
    </style>
  </defs>
  <!-- Generator: Adobe Illustrator 28.6.0, SVG Export Plug-In . SVG Version: 1.2.0 Build 709)  -->
  <g>
    <g id="Layer_1">
      <path class="cls-1" d="M493,386.4c0,0,0-.2,0-.3-2.2-58.1-19.5-252-141.3-356.2,0,0,0,0-.1-.1-10.5-8.7-23.6-13.5-37.3-13.5-21.3-.2-61.4-.2-84.4-.2s-30.3,6.1-41.2,17.1l-36.4,36.4c-13.9,13.9-14.5,36.2-1.5,50.9l66.5,74.9c6.8,7.6,16.4,12.1,26.6,12.4,10.2.3,20.1-3.6,27.3-10.9l37.2-37.1c9.3,8.4,21.6,24.6,15.7,48.6-7.2,29-11.3,65.1-7,96.8-12.5-7.9-26.6-15.7-41.9-22-37-15.2-80.7-21.8-124.8-4.2-38.7-24.7-77.5-26.1-116.2-2.6-10.9,6.7-17.6,18.6-17.6,31.4-.4,28.9-.4,109.5-.4,148.2s16.6,37.1,37.1,37.1h340.9c17,0,33.2-7.4,44.3-20.4l40.4-47.2c9.3-10.9,14.4-24.8,14.1-39.2ZM132.9,461.3H53.4c-2.9,0-5.3-2.4-5.3-5.3,0-38.6,0-119,.4-148v-.2c0-1.7.9-3.3,2.4-4.2,27.4-16.6,54.7-15.1,82.1,1.9v155.8ZM454.8,404.8l-40.5,47.2c-5,5.9-12.4,9.3-20.1,9.3h-229.6v-153.7c34.9-12.9,69.3-6.9,98.5,5.1,36,14.7,64.5,38.6,77.8,50.9,3,3.4,6.2,6.6,9.8,9.5,6.5,5.2,15.9,4.6,21.6-1.5,5.7-6.1,5.7-15.6,0-21.7,0,0-2.9-3.1-8.3-8.2-7.6-9.3-12-21.5-14.4-34.8-5.4-29.1-1.4-63.5,5.4-90.7,15-60.5-40.6-91-40.6-91-6.2-3.4-13.9-2.3-18.9,2.7l-46.7,46.7c-1,1-2.5,1.6-3.9,1.5-1.5,0-2.8-.7-3.8-1.8l-25-28.1,35.5-35.5c6.2-6.2,6.2-16.3,0-22.5-6.2-6.2-16.3-6.2-22.5,0l-34.2,34.2-20.4-23c-1.9-2.1-1.8-5.3.2-7.3l36.4-36.4c5-5,11.7-7.8,18.7-7.8,23,0,62.9,0,84.3.2h.1c6.1,0,12.1,2.2,16.8,6.1,113.5,97.1,128,278.5,130.1,333,.1,6.5-2.2,12.8-6.4,17.7Z"/>
    </g>
  </g>
</svg>