<svg id="etYBKy7iGWQ1" xmlns="http://www.w3.org/2000/svg" xmlns:xlink="http://www.w3.org/1999/xlink" viewBox="0 0 600 600" shape-rendering="geometricPrecision" text-rendering="geometricPrecision" project-id="049c8202382c4833b9aafe1ba8478cd5" export-id="96f35f74db3c40088e04f09d67753f7e" cached="false">
<style><![CDATA[
#etYBKy7iGWQ6_to {animation: etYBKy7iGWQ6_to__to 5000ms linear infinite normal forwards}@keyframes etYBKy7iGWQ6_to__to { 0% {transform: translate(-86.017761px,317.352127px)} 100% {transform: translate(525.982239px,317.352127px)}}
]]></style>
<g><g><g clip-path="url(#etYBKy7iGWQ28)"><g><g id="etYBKy7iGWQ6_to" transform="translate(-86.017761,317.352127)"><g transform="translate(86.017761,-317.352127)"><g><path d="M-968.2,197.8l75.3-16c1.1-.2,2.1-.6,3-1.2l82.4-51.8c4.5-2.8,10.5-1.3,13,3.3l18.5,33.2c2.6,4.7.7,10.6-4.1,12.9l-22,10.5c-2.8,1.3-4.7,4-5.2,7v0c-.7,5.1,2.8,9.8,7.8,10.5l41.8,6.1c4.9.7,8.4,5.2,7.9,10.2l-2.9,26c-.5,4.2-3.8,7.6-8,8.2l-30,4c-4.1.5-7.3,3.7-7.9,7.7l-1.7,10.6c-.5,3.4-2.9,6.2-6.2,7.3l-79.2,27c-2.8,1-5,3.2-5.9,6l-9.8,31c-1.4,4.4.6,9.1,4.7,11.1l62.9,31.5c2.6,1.3,4.4,3.7,5,6.6l9.6,51.7c.3,1.9.1,3.8-.7,5.5l-19.6,43.4c-1.4,3.1-4.4,5.2-7.9,5.4l-27.9,1.8c-5.2.3-9.6-3.6-9.9-8.8l-2.2-44.5c-.1-2.7-1.4-5.2-3.5-6.8l-34.3-27.3c-1.9-1.5-3.2-3.8-3.4-6.2l-4.3-37.4c-.2-2-1.1-3.9-2.5-5.3l-31.9-33.5c-2.7-2.9-3.3-7.1-1.5-10.6l31.9-62c2.3-4.6.6-10.2-4-12.5l-35.4-18.2c-4-2-5.9-6.6-4.6-10.9l5.7-18.9c1-3.2,3.6-5.7,7-6.4v-.2Z" fill="none" stroke="#fff" stroke-width="20" stroke-linecap="round" stroke-linejoin="round" stroke-miterlimit="10"/><line x1="-690.7" y1="188.9" x2="-694" y2="218.6" fill="none" stroke="#fff" stroke-width="20" stroke-linecap="round" stroke-linejoin="round" stroke-miterlimit="10"/><path d="M-709.1,300.7l-31.4,14.7c-2.6,1.2-4.5,3.6-5.1,6.4L-756.8,373c-.7,3.3.4,6.8,3,9l35.1,30.6c2,1.7,3.2,4.3,3.2,6.9l.7,73.8c0,4.7,3.6,8.6,8.3,9.1l3.2.4c2.9.3,5.8-.8,7.8-2.9l73.1-78.1c1.6-1.7,2.5-3.9,2.5-6.2l.6-39c0-3.2-1.6-6.3-4.3-8l-39.1-24.7c-.8-.5-1.5-1.1-2.1-1.8L-698,303.2c-2.7-3.2-7.2-4.2-11-2.4l-.1-.1Z" fill="none" stroke="#fff" stroke-width="20" stroke-linecap="round" stroke-linejoin="round" stroke-miterlimit="10"/><path d="M-648.5,252.5l20.7-36.8c1.6-2.9,4.6-4.7,7.9-4.7l108.7-2.1c1.4,0,2.8.3,4.1.9l86.3,40c3.6,1.7,5.8,5.5,5.3,9.4l-2.1,18.8c-.5,4.4-4,7.8-8.3,8.2l-33.7,3.2c-3.7.4-6.9,2.9-8,6.5-3.9,12.4-12.9,40.2-15.4,39.6s-16.9,10.5-25.4,17c-3.5,2.7-8.4,2.6-11.7-.3l-22-18.9c-3.4-2.9-8.3-3-11.8-.3l-13.2,10.4c-4.6,3.6-11.3,2.2-14-3l-24.1-46.3c-.7-1.3-1.7-2.5-2.9-3.3l-37.7-26.4c-3.9-2.7-5.1-8-2.8-12.2l.1.3Z" fill="none" stroke="#fff" stroke-width="20" stroke-linecap="round" stroke-linejoin="round" stroke-miterlimit="10"/><line x1="-587.5" y1="477.2" x2="-602.9" y2="496.1" fill="none" stroke="#fff" stroke-width="20" stroke-linecap="round" stroke-linejoin="round" stroke-miterlimit="10"/><line x1="-423.6" y1="332.8" x2="-426.5" y2="359.2" fill="none" stroke="#fff" stroke-width="20" stroke-linecap="round" stroke-linejoin="round" stroke-miterlimit="10"/></g><g><path d="M-355.9,197.8l75.3-16c1.1-.2,2.1-.6,3-1.2l82.4-51.8c4.5-2.8,10.5-1.3,13,3.3l18.5,33.2c2.6,4.7.7,10.6-4.1,12.9l-22,10.5c-2.8,1.3-4.7,4-5.2,7v0c-.7,5.1,2.8,9.8,7.8,10.5l41.8,6.1c4.9.7,8.4,5.2,7.9,10.2l-2.9,26c-.5,4.2-3.8,7.6-8,8.2l-30,4c-4.1.5-7.3,3.7-7.9,7.7L-188,279c-.5,3.4-2.9,6.2-6.2,7.3l-79.2,27c-2.8,1-5,3.2-5.9,6l-9.8,31c-1.4,4.4.6,9.1,4.7,11.1l62.9,31.5c2.6,1.3,4.4,3.7,5,6.6l9.6,51.7c.3,1.9.1,3.8-.7,5.5l-19.6,43.4c-1.4,3.1-4.4,5.2-7.9,5.4l-27.9,1.8c-5.2.3-9.6-3.6-9.9-8.8l-2.2-44.5c-.1-2.7-1.4-5.2-3.5-6.8l-34.3-27.3c-1.9-1.5-3.2-3.8-3.4-6.2l-4.3-37.4c-.2-2-1.1-3.9-2.5-5.3L-355,337.5c-2.7-2.9-3.3-7.1-1.5-10.6l31.9-62c2.3-4.6.6-10.2-4-12.5L-364,234.2c-4-2-5.9-6.6-4.6-10.9l5.7-18.9c1-3.2,3.6-5.7,7-6.4v-.2Z" fill="none" stroke="#fff" stroke-width="20" stroke-linecap="round" stroke-linejoin="round" stroke-miterlimit="10"/><line x1="-78.4" y1="188.9" x2="-81.6" y2="218.6" fill="none" stroke="#fff" stroke-width="20" stroke-linecap="round" stroke-linejoin="round" stroke-miterlimit="10"/><path d="M-96.7,300.7l-31.4,14.7c-2.6,1.2-4.5,3.6-5.1,6.4L-144.4,373c-.7,3.3.4,6.8,3,9l35.1,30.6c2,1.7,3.2,4.3,3.2,6.9l.7,73.8c0,4.7,3.6,8.6,8.3,9.1l3.2.4c2.9.3,5.8-.8,7.8-2.9l73-78.1c1.6-1.7,2.5-3.9,2.5-6.2l.6-39c0-3.2-1.6-6.3-4.3-8l-39.1-24.7c-.8-.5-1.5-1.1-2.1-1.8l-33.2-38.9c-2.7-3.2-7.2-4.2-11-2.4v-.1Z" fill="none" stroke="#fff" stroke-width="20" stroke-linecap="round" stroke-linejoin="round" stroke-miterlimit="10"/><path d="M-36.1,252.5l20.7-36.8c1.6-2.9,4.6-4.7,7.9-4.7l108.7-2.1c1.4,0,2.8.3,4.1.9l86.3,40c3.6,1.7,5.8,5.5,5.3,9.4L194.8,278c-.5,4.4-4,7.8-8.3,8.2l-33.7,3.2c-3.7.4-6.9,2.9-8,6.5-3.9,12.4-12.9,40.2-15.4,39.6s-16.9,10.5-25.4,17c-3.5,2.7-8.4,2.6-11.7-.3l-22-18.9c-3.4-2.9-8.3-3-11.8-.3L45.3,343.4c-4.6,3.6-11.3,2.2-14-3L7.2,294.1c-.7-1.3-1.7-2.5-2.9-3.3l-37.7-26.4c-3.9-2.7-5.1-8-2.8-12.2l.1.3Z" fill="none" stroke="#fff" stroke-width="20" stroke-linecap="round" stroke-linejoin="round" stroke-miterlimit="10"/><line x1="24.8" y1="477.2" x2="9.4" y2="496.1" fill="none" stroke="#fff" stroke-width="20" stroke-linecap="round" stroke-linejoin="round" stroke-miterlimit="10"/><line x1="188.8" y1="332.8" x2="185.9" y2="359.2" fill="none" stroke="#fff" stroke-width="20" stroke-linecap="round" stroke-linejoin="round" stroke-miterlimit="10"/></g><g><path d="M256.5,197.8l75.3-16c1.1-.2,2.1-.6,3-1.2l82.4-51.8c4.5-2.8,10.5-1.3,13,3.3l18.5,33.2c2.6,4.7.7,10.6-4.1,12.9l-22,10.5c-2.8,1.3-4.7,4-5.2,7v0c-.7,5.1,2.8,9.8,7.8,10.5l41.8,6.1c4.9.7,8.4,5.2,7.9,10.2l-2.9,26c-.5,4.2-3.8,7.6-8,8.2l-30,4c-4.1.5-7.3,3.7-7.9,7.7L424.4,279c-.5,3.4-2.9,6.2-6.2,7.3l-79.2,27c-2.8,1-5,3.2-5.9,6l-9.8,31c-1.4,4.4.6,9.1,4.7,11.1l62.9,31.5c2.6,1.3,4.4,3.7,5,6.6l9.6,51.7c.3,1.9.1,3.8-.7,5.5l-19.6,43.4c-1.4,3.1-4.4,5.2-7.9,5.4l-27.9,1.8c-5.2.3-9.6-3.6-9.9-8.8L337.3,454c-.1-2.7-1.4-5.2-3.5-6.8l-34.3-27.3c-1.9-1.5-3.2-3.8-3.4-6.2l-4.3-37.4c-.2-2-1.1-3.9-2.5-5.3l-31.9-33.5c-2.7-2.9-3.3-7.1-1.5-10.6l31.9-62c2.3-4.6.6-10.2-4-12.5l-35.4-18.2c-4-2-5.9-6.6-4.6-10.9l5.7-18.9c1-3.2,3.6-5.7,7-6.4v-.2Z" fill="none" stroke="#fff" stroke-width="20" stroke-linecap="round" stroke-linejoin="round" stroke-miterlimit="10"/><line x1="534" y1="188.9" x2="530.7" y2="218.6" fill="none" stroke="#fff" stroke-width="20" stroke-linecap="round" stroke-linejoin="round" stroke-miterlimit="10"/><path d="M515.6,300.7l-31.4,14.7c-2.6,1.2-4.5,3.6-5.1,6.4L467.9,373c-.7,3.3.4,6.8,3,9L506,412.6c2,1.7,3.2,4.3,3.2,6.9l.7,73.8c0,4.7,3.6,8.6,8.3,9.1l3.2.4c2.9.3,5.8-.8,7.8-2.9l73.1-78.1c1.6-1.7,2.5-3.9,2.5-6.2l.6-39c0-3.2-1.6-6.3-4.3-8L562,343.9c-.8-.5-1.5-1.1-2.1-1.8l-33.2-38.9c-2.7-3.2-7.2-4.2-11-2.4l-.1-.1Z" fill="none" stroke="#fff" stroke-width="20" stroke-linecap="round" stroke-linejoin="round" stroke-miterlimit="10"/><path d="M576.2,252.5l20.7-36.8c1.6-2.9,4.6-4.7,7.9-4.7l108.7-2.1c1.4,0,2.8.3,4.1.9l86.3,40c3.6,1.7,5.8,5.5,5.3,9.4L807.1,278c-.5,4.4-4,7.8-8.3,8.2l-33.7,3.2c-3.7.4-6.9,2.9-8,6.5-3.9,12.4-12.9,40.2-15.4,39.6s-16.9,10.5-25.4,17c-3.5,2.7-8.4,2.6-11.7-.3l-22-18.9c-3.4-2.9-8.3-3-11.8-.3l-13.2,10.4c-4.6,3.6-11.3,2.2-14-3l-24.1-46.3c-.7-1.3-1.7-2.5-2.9-3.3l-37.7-26.4c-3.9-2.7-5.1-8-2.8-12.2l.1.3Z" fill="none" stroke="#fff" stroke-width="20" stroke-linecap="round" stroke-linejoin="round" stroke-miterlimit="10"/><line x1="637.2" y1="477.2" x2="621.8" y2="496.1" fill="none" stroke="#fff" stroke-width="20" stroke-linecap="round" stroke-linejoin="round" stroke-miterlimit="10"/><line x1="801.1" y1="332.8" x2="798.2" y2="359.2" fill="none" stroke="#fff" stroke-width="20" stroke-linecap="round" stroke-linejoin="round" stroke-miterlimit="10"/></g></g></g></g><clipPath id="etYBKy7iGWQ28"><circle r="277.6" transform="translate(300 300)" fill="none"/></clipPath></g></g><circle r="277.6" transform="translate(300 300)" fill="none" stroke="#fff" stroke-width="20" stroke-linecap="round" stroke-miterlimit="10"/></g></svg>
