<?xml version="1.0" encoding="UTF-8"?>
<svg id="Layer_1" data-name="Layer 1" xmlns="http://www.w3.org/2000/svg" version="1.1" viewBox="0 0 208.9 208.9">
  <defs>
    <style>
      .cls-1 {
        fill: #fff;
        stroke-width: 0px;
      }
    </style>
  </defs>
  <path class="cls-1" d="M54.8,121.7c-.2,16-15.9,35.7-30.1,50.2C9.3,153.7,0,130.2,0,104.4S8.2,58.1,21.9,40.4c16.3,29.2,33.3,64,32.9,81.2Z"/>
  <path class="cls-1" d="M136.1,204c-10,3.2-20.6,4.9-31.7,4.9-29.1,0-55.4-11.9-74.3-31,14.6-6.7,32.6-12.8,48-12,22.1,1.1,44.2,22,58,38.1Z"/>
  <path class="cls-1" d="M26.5,34.9C45.6,13.5,73.5,0,104.4,0s73.8,21.9,91.6,54.2c-54.8,30.7-103.1,47.8-130.7,21.9,0,0-14.4-12.2-38.8-41.2Z"/>
  <path class="cls-1" d="M208.9,104.4c0,45.3-28.9,83.9-69.2,98.3-12.5-25.4-21-54.7-6.4-72.7,16.9-21.1,42.5-44.9,67.6-66,5.2,12.4,8.1,26.1,8.1,40.4Z"/>
</svg>