<?xml version="1.0" encoding="UTF-8"?>
<svg id="Layer_1" data-name="Layer 1" xmlns="http://www.w3.org/2000/svg" version="1.1" viewBox="0 0 84.2 87.6">
  <defs>
    <style>
      .cls-1 {
        fill: #fff;
        stroke-width: 0px;
      }
    </style>
  </defs>
  <path class="cls-1" d="M80.1,74.1l-23.5-25.3c3.2-4.8,5.1-10.5,5.1-16.7,0-16.4-13.3-29.7-29.7-29.7S2.3,15.7,2.3,32.1s13.3,29.7,29.7,29.7,10.5-1.5,14.8-4l23.5,25.3c1.3,1.4,3.1,2.1,4.8,2.1s3.2-.6,4.5-1.8c2.7-2.5,2.8-6.7.3-9.3ZM41.5,52.1c-2.9,1.4-6.1,2.2-9.5,2.2-12.2,0-22.1-9.9-22.1-22.1s9.9-22.1,22.1-22.1,22.1,9.9,22.1,22.1-1.1,7.7-2.9,10.9c-2.2,3.9-5.6,7.1-9.7,9Z"/>
</svg>