<?xml version="1.0" encoding="UTF-8"?>
<svg id="Layer_1" data-name="Layer 1" xmlns="http://www.w3.org/2000/svg" version="1.1" viewBox="0 0 621.7 584.8">
  <defs>
    <style>
      .cls-1 {
        fill: #fff;
        stroke-width: 0px;
      }
    </style>
  </defs>
  <path class="cls-1" d="M566.8,165.3c16.9-45.6-6.3-96.4-52-113.3s-96.4,6.3-113.3,52c-1.7,4.6-3,9.3-3.9,13.9l-181.2.2c-4.7-28.8-24.4-54.4-53.7-65.3-43.4-16.1-91.9,6.1-108,49.5-16.1,43.4,6.1,91.9,49.5,108,43.4,16.1,91.9-6.1,108-49.5,1.1-3,2-6,2.8-9.1l182.6-.2c3.9,19.9,14.7,38.2,30.6,51.3l-88,163.1c-44.5-13.9-92.5,9.3-108.9,53.5-16.9,45.7,6.3,96.4,52,113.3,45.6,16.9,96.4-6.3,113.3-52,13.4-36.2,1.5-75.7-26.8-98.9l88-163.1c44.5,13.9,92.5-9.3,108.9-53.5ZM115.9,178.8c-26-9.7-39.4-38.7-29.7-64.8,9.7-26,38.7-39.4,64.8-29.7,26,9.7,39.4,38.7,29.7,64.8-9.7,26-38.7,39.4-64.8,29.7Z"/>
</svg>