<?xml version="1.0" encoding="UTF-8"?>
<svg id="Layer_1" data-name="Layer 1" xmlns="http://www.w3.org/2000/svg" version="1.1" viewBox="0 0 480 468.2">
  <defs>
    <style>
      .cls-1 {
        fill: #fff;
        stroke-width: 0px;
      }
    </style>
  </defs>
  <path class="cls-1" d="M462,379.6s-43.2-36.1-93.3-77.9c19.2-31.8,29.8-68.7,29-106.1-.2-65-35.4-128-89.9-162.9C176.1-52.6,3.2,38.5,0,195.6c-2.4,142.9,144.4,242.1,276.2,186.7,12.8-5.2,24.9-11.9,36.1-19.8,43.2,48,80.3,89.2,80.3,89.2,20,22.5,56.5,21.9,75.7-1.4,17.7-21.2,14.9-52.9-6.3-70.6ZM281.8,319.8c-1.7,1.1-3.4,2.2-5.2,3.2-99.8,59.1-227-9.6-230-127.4-2.3-109.8,110.4-186.2,211.6-143.6,56.4,23.3,94.3,82.8,92.7,143.6-.2,26.1-7.7,51.6-20.9,73.9-11.9,20.2-28.5,37.7-48.4,50.3Z"/>
  <path class="cls-1" d="M461,379.6s-43.2-36.1-93.3-77.9c19.2-31.8,29.8-68.7,29-106.1-.2-65-35.4-128-89.9-162.9C175.1-52.6,2.2,38.5-1,195.6c-2.4,142.9,144.4,242.1,276.2,186.7,12.8-5.2,24.9-11.9,36.1-19.8,43.2,48,80.3,89.2,80.3,89.2,20,22.5,56.5,21.9,75.7-1.4,17.7-21.2,14.9-52.9-6.3-70.6ZM280.8,319.8c-1.7,1.1-3.4,2.2-5.2,3.2-99.8,59.1-227-9.6-230-127.4-2.3-109.8,110.4-186.2,211.6-143.6,56.4,23.3,94.3,82.8,92.7,143.6-.2,26.1-7.7,51.6-20.9,73.9-11.9,20.2-28.5,37.7-48.4,50.3Z"/>
  <path class="cls-1" d="M460,379.6s-43.2-36.1-93.3-77.9c19.2-31.8,29.8-68.7,29-106.1-.2-65-35.4-128-89.9-162.9C174.1-52.6,1.2,38.5-2,195.6c-2.4,142.9,144.4,242.1,276.2,186.7,12.8-5.2,24.9-11.9,36.1-19.8,43.2,48,80.3,89.2,80.3,89.2,20,22.5,56.5,21.9,75.7-1.4,17.7-21.2,14.9-52.9-6.3-70.6ZM279.8,319.8c-1.7,1.1-3.4,2.2-5.2,3.2-99.8,59.1-227-9.6-230-127.4-2.3-109.8,110.4-186.2,211.6-143.6,56.4,23.3,94.3,82.8,92.7,143.6-.2,26.1-7.7,51.6-20.9,73.9-11.9,20.2-28.5,37.7-48.4,50.3Z"/>
</svg>