<?xml version="1.0" encoding="UTF-8"?>
<svg id="Layer_1" data-name="Layer 1" xmlns="http://www.w3.org/2000/svg" version="1.1" viewBox="0 0 84 76">
  <defs>
    <style>
      .cls-1 {
        fill: #fff;
        stroke-width: 0px;
      }
    </style>
  </defs>
  <path class="cls-1" d="M22.4,56.9l1.5-1.5c1-1,1-2.5,0-3.5-1-1-2.5-1-3.5,0l-1.5,1.5-1.5-1.5c-1-1-2.5-1-3.5,0-1,1-1,2.5,0,3.5l1.5,1.5-1.5,1.5c-1,1-1,2.5,0,3.5,1,1,2.5,1,3.5,0l1.5-1.5,1.5,1.5c1,1,2.5,1,3.5,0,1-1,1-2.5,0-3.5l-1.5-1.5ZM64.9,28.8l1.5-1.5c1-1,1-2.5,0-3.5-1-1-2.6-1-3.5,0l-1.5,1.5-1.5-1.5c-1-1-2.6-1-3.5,0-1,1-1,2.6,0,3.5l1.5,1.5-1.5,1.5c-1,1-1,2.6,0,3.5s2.6,1,3.5,0l1.5-1.5,1.5,1.5c1,1,2.6,1,3.5,0,1-1,1-2.6,0-3.5l-1.5-1.5ZM64.9,28.8l1.5-1.5c1-1,1-2.5,0-3.5-1-1-2.6-1-3.5,0l-1.5,1.5-1.5-1.5c-1-1-2.6-1-3.5,0-1,1-1,2.6,0,3.5l1.5,1.5-1.5,1.5c-1,1-1,2.6,0,3.5s2.6,1,3.5,0l1.5-1.5,1.5,1.5c1,1,2.6,1,3.5,0,1-1,1-2.6,0-3.5l-1.5-1.5ZM23.9,51.9c-1-1-2.5-1-3.5,0l-1.5,1.5-1.5-1.5c-1-1-2.5-1-3.5,0-1,1-1,2.5,0,3.5l1.5,1.5-1.5,1.5c-1,1-1,2.5,0,3.5,1,1,2.5,1,3.5,0l1.5-1.5,1.5,1.5c1,1,2.5,1,3.5,0,1-1,1-2.5,0-3.5l-1.5-1.5,1.5-1.5c1-1,1-2.5,0-3.5ZM64.9,28.8l1.5-1.5c1-1,1-2.5,0-3.5-1-1-2.6-1-3.5,0l-1.5,1.5-1.5-1.5c-1-1-2.6-1-3.5,0-1,1-1,2.6,0,3.5l1.5,1.5-1.5,1.5c-1,1-1,2.6,0,3.5s2.6,1,3.5,0l1.5-1.5,1.5,1.5c1,1,2.6,1,3.5,0,1-1,1-2.6,0-3.5l-1.5-1.5ZM23.9,51.9c-1-1-2.5-1-3.5,0l-1.5,1.5-1.5-1.5c-1-1-2.5-1-3.5,0-1,1-1,2.5,0,3.5l1.5,1.5-1.5,1.5c-1,1-1,2.5,0,3.5,1,1,2.5,1,3.5,0l1.5-1.5,1.5,1.5c1,1,2.5,1,3.5,0,1-1,1-2.5,0-3.5l-1.5-1.5,1.5-1.5c1-1,1-2.5,0-3.5ZM22.4,56.9l1.5-1.5c1-1,1-2.5,0-3.5-1-1-2.5-1-3.5,0l-1.5,1.5-1.5-1.5c-1-1-2.5-1-3.5,0-1,1-1,2.5,0,3.5l1.5,1.5-1.5,1.5c-1,1-1,2.5,0,3.5,1,1,2.5,1,3.5,0l1.5-1.5,1.5,1.5c1,1,2.5,1,3.5,0,1-1,1-2.5,0-3.5l-1.5-1.5ZM64.9,28.8l1.5-1.5c1-1,1-2.5,0-3.5-1-1-2.6-1-3.5,0l-1.5,1.5-1.5-1.5c-1-1-2.6-1-3.5,0-1,1-1,2.6,0,3.5l1.5,1.5-1.5,1.5c-1,1-1,2.6,0,3.5s2.6,1,3.5,0l1.5-1.5,1.5,1.5c1,1,2.6,1,3.5,0,1-1,1-2.6,0-3.5l-1.5-1.5ZM22.4,56.9l1.5-1.5c1-1,1-2.5,0-3.5-1-1-2.5-1-3.5,0l-1.5,1.5-1.5-1.5c-1-1-2.5-1-3.5,0-1,1-1,2.5,0,3.5l1.5,1.5-1.5,1.5c-1,1-1,2.5,0,3.5,1,1,2.5,1,3.5,0l1.5-1.5,1.5,1.5c1,1,2.5,1,3.5,0,1-1,1-2.5,0-3.5l-1.5-1.5ZM64.9,28.8l1.5-1.5c1-1,1-2.5,0-3.5-1-1-2.6-1-3.5,0l-1.5,1.5-1.5-1.5c-1-1-2.6-1-3.5,0-1,1-1,2.6,0,3.5l1.5,1.5-1.5,1.5c-1,1-1,2.6,0,3.5s2.6,1,3.5,0l1.5-1.5,1.5,1.5c1,1,2.6,1,3.5,0,1-1,1-2.6,0-3.5l-1.5-1.5Z"/>
  <path class="cls-1" d="M79.4,8.6c-1.6-1.6-3.8-2.6-6.1-2.6h-21.2v-2.3c0-1.4-1.1-2.5-2.5-2.5h-16.8c-1.4,0-2.5,1.1-2.5,2.5v2.3H10.7c-2.4,0-4.6,1-6.2,2.6-1.6,1.6-2.6,3.8-2.6,6.2v51.4c0,2.4,1,4.6,2.6,6.2,1.6,1.6,3.8,2.6,6.2,2.6h62.6c2.4,0,4.6-1,6.1-2.6,1.6-1.6,2.6-3.8,2.6-6.2V14.7c0-2.4-1-4.6-2.6-6.2ZM77,66.1c0,1-.4,1.9-1.1,2.6-.7.7-1.6,1.1-2.6,1.1H10.7c-1,0-1.9-.4-2.6-1.1s-1.1-1.6-1.1-2.6V14.7c0-1,.4-1.9,1.1-2.6.7-.7,1.6-1.1,2.6-1.1h19.7v2.3c0,1.4,1.1,2.5,2.5,2.5h16.8c1.4,0,2.5-1.1,2.5-2.5v-2.3h21.2c1,0,1.9.4,2.6,1.1.7.7,1.1,1.6,1.1,2.6v51.4Z"/>
  <path class="cls-1" d="M55.5,59.9l-4.9,4.9h0s0,.1,0,.1h0c0,0,0,0,0,0h0c0,0,0,.1,0,.1h0s0,0,0,0h0s0,0,0,0h0s0,0,0,0h0s0,0,0,0h0s-.1,0-.1,0h0s0,0,0,0h0s0,0,0,0h0s0,0,0,0c-.2,0-.3,0-.5.1h0c0,0-.2,0-.3,0s-.2,0-.3,0h0c-.2,0-.3,0-.5-.1h0s0,0,0,0h0s0,0,0,0h0s0,0,0,0h0s-.1,0-.1,0h0s0,0,0,0h0s0,0,0,0h0s0,0,0,0h0s0,0,0,0h0s0,0,0,0h-.1c0,0,0,0,0,0h0c0,0,0-.2,0-.2h0s-4.9-5-4.9-5c-1-1-1-2.5,0-3.5,1-1,2.6-1,3.5,0l.8.8v-5.6c0-1-.4-1.9-1-2.5h0c-.7-.8-1.6-1.2-2.6-1.2h-9c-2.4,0-4.6-1-6.2-2.6-1.6-1.6-2.6-3.8-2.6-6.1v-6c-1-.4-1.9-1-2.6-1.7-1.3-1.3-2.1-3.1-2.1-5.2s.8-3.7,2-5l.2-.2c.4-.4.9-.8,1.5-1.1,1.1-.6,2.3-1,3.7-1,1.9,0,3.7.8,5,2l.2.2c1.3,1.3,2.1,3.1,2.1,5.2s-.8,3.8-2.1,5.1c-.7.7-1.6,1.3-2.7,1.7v6c0,1,.4,2,1.1,2.6.7.7,1.6,1.1,2.6,1.1h9c2.4,0,4.6,1,6.1,2.6v.2c1.6,1.6,2.6,3.7,2.6,6v5.6l.8-.8c1-1,2.6-1,3.5,0,1,1,1,2.6,0,3.5Z"/>
</svg>