<svg id="eNcqDAbYfU31" xmlns="http://www.w3.org/2000/svg" xmlns:xlink="http://www.w3.org/1999/xlink" viewBox="0 0 600 600" shape-rendering="geometricPrecision" text-rendering="geometricPrecision" project-id="9d0ac0de48a946b09c55addc0aa6cc07" export-id="515790c2a8254b1cb572bf5aeb571a15" cached="false">
<style><![CDATA[
#eNcqDAbYfU32_ts {animation: eNcqDAbYfU32_ts__ts 3000ms linear 1 normal forwards}@keyframes eNcqDAbYfU32_ts__ts { 0% {transform: translate(291.149988px,592.899941px) scale(1,1);animation-timing-function: cubic-bezier(0.77,0,0.175,1)} 10% {transform: translate(291.149988px,592.899941px) scale(0.925741,0.925741);animation-timing-function: cubic-bezier(0.77,0,0.175,1)} 16.666667% {transform: translate(291.149988px,592.899941px) scale(1,1)} 100% {transform: translate(291.149988px,592.899941px) scale(1,1)}} #eNcqDAbYfU32 {animation: eNcqDAbYfU32_c_o 3000ms linear 1 normal forwards}@keyframes eNcqDAbYfU32_c_o { 0% {opacity: 1;animation-timing-function: cubic-bezier(0.77,0,0.175,1)} 10% {opacity: 0.7;animation-timing-function: cubic-bezier(0.77,0,0.175,1)} 16.666667% {opacity: 1} 100% {opacity: 1}} #eNcqDAbYfU35_to {animation: eNcqDAbYfU35_to__to 3000ms linear 1 normal forwards}@keyframes eNcqDAbYfU35_to__to { 0% {transform: translate(291.149988px,878.849988px)} 20% {transform: translate(291.149988px,878.849988px);animation-timing-function: cubic-bezier(0.77,0,0.175,1)} 80% {transform: translate(291.149988px,298.849988px)} 100% {transform: translate(291.149988px,298.849988px)}} #eNcqDAbYfU35 {animation: eNcqDAbYfU35_c_o 3000ms linear 1 normal forwards}@keyframes eNcqDAbYfU35_c_o { 0% {opacity: 1} 80% {opacity: 1;animation-timing-function: cubic-bezier(0.77,0,0.175,1)} 100% {opacity: 0}}
]]></style>
<g id="eNcqDAbYfU32_ts" transform="translate(291.149988,592.899941) scale(1,1)"><g id="eNcqDAbYfU32" transform="translate(-291.149987,-604.899941)"><g clip-path="url(#eNcqDAbYfU36)"><g><g id="eNcqDAbYfU35_to" transform="translate(291.149988,878.849988)"><rect id="eNcqDAbYfU35" width="588.1" height="588.1" rx="0" ry="0" transform="translate(-294.049988,-294.049988)" fill="#fff"/></g></g><clipPath id="eNcqDAbYfU36"><path d="M472.3,148.2c-2.5-2.5-5-4.9-7.6-7.3-16.9-15.5-43.8-11.5-55.2,8.4v0c-8.3,14.4-5.7,32.8,6.6,44.1c34.7,31.7,56.4,77.4,56,128-.7,93.8-77.4,170.1-171.1,170.4-94.9.3-172.1-76.8-172.1-171.6s21.6-95.3,56-126.7c12.3-11.2,14.9-29.6,6.6-44.1v0c-11.5-19.9-38.4-23.9-55.2-8.4s-5.1,4.8-7.6,7.3c-45.9,45.9-71.2,107-71.2,171.9s25.3,126,71.2,171.9s107,71.2,171.9,71.2s126-25.3,171.9-71.2s71.2-107,71.2-171.9-25.3-126-71.2-171.9l-.2-.1ZM300.4,262.8v0c-20.5,0-37.2-16.6-37.2-37.2v-151.6c0-20.5,16.6-37.2,37.2-37.2v0c20.5,0,37.2,16.6,37.2,37.2v151.7c0,20.5-16.6,37.2-37.2,37.2v-.1Z" fill="none"/></clipPath></g><g><path d="M472.3,148.2c-2.5-2.5-5-4.9-7.6-7.3-16.9-15.5-43.8-11.5-55.2,8.4v0c-8.3,14.4-5.7,32.8,6.6,44.1c34.7,31.7,56.4,77.4,56,128-.7,93.8-77.4,170.1-171.1,170.4-94.9.3-172.1-95.517-172.1-171.6s25.949351-93.237167,56-126.7c12.3-11.2,14.9-29.6,6.6-44.1v0c-11.5-19.9-38.4-23.9-55.2-8.4s-5.1,4.8-7.6,7.3c-45.9,45.9-71.2,107-71.2,171.9s25.3,126,71.2,171.9s107,71.2,171.9,71.2s126-25.3,171.9-71.2s71.2-107,71.2-171.9-25.3-126-71.2-171.9l-.2-.1Z" fill="none" stroke="#fff" stroke-width="20" stroke-linecap="round" stroke-linejoin="round" stroke-miterlimit="10"/><rect width="74.3" height="226" rx="37.2" ry="37.2" transform="translate(263.2 36.9)" fill="none" stroke="#fff" stroke-width="20" stroke-miterlimit="10"/></g></g></g></svg>
