<?xml version="1.0" encoding="UTF-8"?>
<svg id="Layer_1" data-name="Layer 1" xmlns="http://www.w3.org/2000/svg" viewBox="0 0 496.98 387.9">
  <defs>
    <style>
      .cls-1 {
        fill: #fff;
        stroke-width: 0px;
      }
    </style>
  </defs>
  <path class="cls-1" d="M427.66,80.19c0,5.74-4.65,10.39-10.39,10.39h-227.63c-5.74,0-10.39-4.65-10.39-10.39s4.65-10.39,10.39-10.39h227.63c5.74,0,10.39,4.65,10.39,10.39ZM189.64,147.18h68.5c5.74,0,10.39-4.65,10.39-10.39s-4.65-10.39-10.39-10.39h-68.5c-5.74,0-10.39,4.65-10.39,10.39s4.65,10.39,10.39,10.39ZM189.64,203.62h68.5c5.74,0,10.39-4.65,10.39-10.39s-4.65-10.39-10.39-10.39h-68.5c-5.74,0-10.39,4.65-10.39,10.39s4.65,10.39,10.39,10.39ZM189.64,260.05h68.5c5.74,0,10.39-4.65,10.39-10.39s-4.65-10.39-10.39-10.39h-68.5c-5.74,0-10.39,4.65-10.39,10.39s4.65,10.39,10.39,10.39ZM417.26,295.71h-227.63c-5.74,0-10.39,4.65-10.39,10.39s4.65,10.39,10.39,10.39h227.63c5.74,0,10.39-4.65,10.39-10.39s-4.65-10.39-10.39-10.39ZM427.66,136.73v112.83c0,5.74-4.65,10.39-10.39,10.39h-101.18c-5.74,0-10.39-4.65-10.39-10.39v-112.77c0-5.74,4.65-10.39,10.39-10.39h101.18c5.74,0,10.39,4.65,10.39,10.39v-.05ZM406.87,147.13h-80.4v92.04h80.4v-92.04ZM0,322.57V119.89c0-5.74,4.65-10.39,10.39-10.39s10.39,4.65,10.39,10.39v202.68c.84,24.58,21.45,43.83,46.03,42.99,23.4-.8,42.19-19.59,42.99-42.99V10.39c0-5.74,4.65-10.39,10.39-10.39h366.38c5.74,0,10.39,4.65,10.39,10.39v321.43c.03,30.94-25.03,56.05-55.97,56.08-.07,0-.14,0-.21,0H65.33c-36.07-.03-65.3-29.26-65.33-65.33ZM113.03,367.11h327.77c19.46,0,35.24-15.78,35.24-35.24V20.79H130.65v301.79c.02,16.54-6.26,32.46-17.57,44.54h-.05ZM54.93,122.08v200.34c0,5.74,4.65,10.39,10.39,10.39s10.39-4.65,10.39-10.39V122.08c0-5.74-4.65-10.39-10.39-10.39s-10.39,4.65-10.39,10.39Z"/>
</svg>