<svg id="ebQJdcMm3Pt1" xmlns="http://www.w3.org/2000/svg" xmlns:xlink="http://www.w3.org/1999/xlink" viewBox="0 0 600 600" shape-rendering="geometricPrecision" text-rendering="geometricPrecision" project-id="c3afbc1d66804f6486eae14426802cdf" export-id="e179b8a544f24224a3fb0d6106257854" cached="false">
<style><![CDATA[
#ebQJdcMm3Pt2 {animation: ebQJdcMm3Pt2_c_o 1400ms linear infinite normal forwards}@keyframes ebQJdcMm3Pt2_c_o { 0% {opacity: 0.5} 35.714286% {opacity: 1} 78.571429% {opacity: 0.5} 100% {opacity: 0.5}} #ebQJdcMm3Pt9 {animation: ebQJdcMm3Pt9_c_o 1400ms linear infinite normal forwards}@keyframes ebQJdcMm3Pt9_c_o { 0% {opacity: 0} 7.142857% {opacity: 1} 57.142857% {opacity: 1} 92.857143% {opacity: 0} 100% {opacity: 0.5}} #ebQJdcMm3Pt10 {animation: ebQJdcMm3Pt10_s_do 1400ms linear infinite normal forwards}@keyframes ebQJdcMm3Pt10_s_do { 0% {stroke-dashoffset: 89.01;animation-timing-function: cubic-bezier(0.25,0.46,0.45,0.94)} 50% {stroke-dashoffset: 0;animation-timing-function: cubic-bezier(0.25,0.46,0.45,0.94)} 91.428571% {stroke-dashoffset: -87.82;animation-timing-function: cubic-bezier(0.25,0.46,0.45,0.94)} 92.857143% {stroke-dashoffset: 89.01;animation-timing-function: cubic-bezier(0.25,0.46,0.45,0.94)} 100% {stroke-dashoffset: 89.01}} #ebQJdcMm3Pt11 {animation: ebQJdcMm3Pt11_s_do 1400ms linear infinite normal forwards}@keyframes ebQJdcMm3Pt11_s_do { 0% {stroke-dashoffset: 89.01;animation-timing-function: cubic-bezier(0.25,0.46,0.45,0.94)} 50% {stroke-dashoffset: 0;animation-timing-function: cubic-bezier(0.25,0.46,0.45,0.94)} 91.428571% {stroke-dashoffset: -87.82;animation-timing-function: cubic-bezier(0.25,0.46,0.45,0.94)} 92.857143% {stroke-dashoffset: 89.01;animation-timing-function: cubic-bezier(0.25,0.46,0.45,0.94)} 100% {stroke-dashoffset: 89.01}} #ebQJdcMm3Pt12 {animation: ebQJdcMm3Pt12_s_do 1400ms linear infinite normal forwards}@keyframes ebQJdcMm3Pt12_s_do { 0% {stroke-dashoffset: 89.01;animation-timing-function: cubic-bezier(0.25,0.46,0.45,0.94)} 50% {stroke-dashoffset: 0;animation-timing-function: cubic-bezier(0.25,0.46,0.45,0.94)} 91.428571% {stroke-dashoffset: -87.82;animation-timing-function: cubic-bezier(0.25,0.46,0.45,0.94)} 92.857143% {stroke-dashoffset: 89.01;animation-timing-function: cubic-bezier(0.25,0.46,0.45,0.94)} 100% {stroke-dashoffset: 89.01}} #ebQJdcMm3Pt13 {animation: ebQJdcMm3Pt13_s_do 1400ms linear infinite normal forwards}@keyframes ebQJdcMm3Pt13_s_do { 0% {stroke-dashoffset: 89.01;animation-timing-function: cubic-bezier(0.25,0.46,0.45,0.94)} 50% {stroke-dashoffset: 0;animation-timing-function: cubic-bezier(0.25,0.46,0.45,0.94)} 91.428571% {stroke-dashoffset: -87.82;animation-timing-function: cubic-bezier(0.25,0.46,0.45,0.94)} 92.857143% {stroke-dashoffset: 89.01;animation-timing-function: cubic-bezier(0.25,0.46,0.45,0.94)} 100% {stroke-dashoffset: 89.01}} #ebQJdcMm3Pt14 {animation: ebQJdcMm3Pt14_s_do 1400ms linear infinite normal forwards}@keyframes ebQJdcMm3Pt14_s_do { 0% {stroke-dashoffset: 89.01;animation-timing-function: cubic-bezier(0.25,0.46,0.45,0.94)} 50% {stroke-dashoffset: 0;animation-timing-function: cubic-bezier(0.25,0.46,0.45,0.94)} 91.428571% {stroke-dashoffset: -87.82;animation-timing-function: cubic-bezier(0.25,0.46,0.45,0.94)} 92.857143% {stroke-dashoffset: 89.01;animation-timing-function: cubic-bezier(0.25,0.46,0.45,0.94)} 100% {stroke-dashoffset: 89.01}} #ebQJdcMm3Pt15 {animation: ebQJdcMm3Pt15_s_do 1400ms linear infinite normal forwards}@keyframes ebQJdcMm3Pt15_s_do { 0% {stroke-dashoffset: 89.01;animation-timing-function: cubic-bezier(0.25,0.46,0.45,0.94)} 50% {stroke-dashoffset: 0;animation-timing-function: cubic-bezier(0.25,0.46,0.45,0.94)} 91.428571% {stroke-dashoffset: -87.82;animation-timing-function: cubic-bezier(0.25,0.46,0.45,0.94)} 92.857143% {stroke-dashoffset: 89.01;animation-timing-function: cubic-bezier(0.25,0.46,0.45,0.94)} 100% {stroke-dashoffset: 89.01}} #ebQJdcMm3Pt16 {animation: ebQJdcMm3Pt16_s_do 1400ms linear infinite normal forwards}@keyframes ebQJdcMm3Pt16_s_do { 0% {stroke-dashoffset: 89.01;animation-timing-function: cubic-bezier(0.25,0.46,0.45,0.94)} 50% {stroke-dashoffset: 0;animation-timing-function: cubic-bezier(0.25,0.46,0.45,0.94)} 91.428571% {stroke-dashoffset: -87.82;animation-timing-function: cubic-bezier(0.25,0.46,0.45,0.94)} 92.857143% {stroke-dashoffset: 89.01;animation-timing-function: cubic-bezier(0.25,0.46,0.45,0.94)} 100% {stroke-dashoffset: 89.01}} #ebQJdcMm3Pt17 {animation: ebQJdcMm3Pt17_s_do 1400ms linear infinite normal forwards}@keyframes ebQJdcMm3Pt17_s_do { 0% {stroke-dashoffset: 89.01;animation-timing-function: cubic-bezier(0.25,0.46,0.45,0.94)} 50% {stroke-dashoffset: 0;animation-timing-function: cubic-bezier(0.25,0.46,0.45,0.94)} 91.428571% {stroke-dashoffset: -87.82;animation-timing-function: cubic-bezier(0.25,0.46,0.45,0.94)} 92.857143% {stroke-dashoffset: 89.01;animation-timing-function: cubic-bezier(0.25,0.46,0.45,0.94)} 100% {stroke-dashoffset: 89.01}} #ebQJdcMm3Pt18 {animation: ebQJdcMm3Pt18_s_do 1400ms linear infinite normal forwards}@keyframes ebQJdcMm3Pt18_s_do { 0% {stroke-dashoffset: 89.01;animation-timing-function: cubic-bezier(0.25,0.46,0.45,0.94)} 50% {stroke-dashoffset: 0;animation-timing-function: cubic-bezier(0.25,0.46,0.45,0.94)} 91.428571% {stroke-dashoffset: -87.82;animation-timing-function: cubic-bezier(0.25,0.46,0.45,0.94)} 92.857143% {stroke-dashoffset: 89.01;animation-timing-function: cubic-bezier(0.25,0.46,0.45,0.94)} 100% {stroke-dashoffset: 89.01}}
]]></style>
<g id="ebQJdcMm3Pt2" opacity="0.5"><path d="M224.5,476.2c-.1-.5-.2-.9-.3-1.4-.4-1.9-.6-3.9-.6-5.9v-4.5c.3-26.1-10.1-51.2-28.9-69.3-56.2-55.6-56.7-146.3-1.1-202.6c55.6-56.2,146.3-56.7,202.6-1.1c56.2,55.6,56.7,146.3,1.1,202.6-.4.4-.7.7-1.1,1.1-18.8,18.1-29.2,43.2-28.9,69.3v4.5c0,2-.2,4-.6,6c0,.4-.2.8-.3,1.3h-141.8-.1Z" fill="none" fill-rule="evenodd" stroke="#fff" stroke-width="20" stroke-linecap="round" stroke-linejoin="round"/><path d="M363,497l-137.9,1.2.3,29.1c.1,7.4,5.8,13.3,12.8,13.3l112.4-1c7,0,12.6-6.1,12.6-13.5l-.3-29.1v0h.1Z" transform="translate(0-20)" fill="none" fill-rule="evenodd" stroke="#fff" stroke-width="20" stroke-linecap="round" stroke-linejoin="round"/><path d="M237.9,541l.2,26.4c0,3,.9,5.8,2.5,8c1.4,2,3.3,3.1,5.3,3.1l93.2-.8c4.2,0,7.6-4.7,7.6-10.4l-.2-27.2L238,541h-.1Z" transform="translate(0-20)" fill="none" fill-rule="evenodd" stroke="#fff" stroke-width="20" stroke-linecap="round" stroke-linejoin="round"/><g><path d="M276.2,472.5v-113.5c0-27.5-22.4-49.2-47.7-28.9-25.3,20.2-4.3,48.5,86.8,48.5" fill="none" fill-rule="evenodd" stroke="#fff" stroke-width="20" stroke-linecap="round" stroke-linejoin="round"/><path d="M311.8,472.5c0,0,0-86,0-113.5s22.4-49.2,47.7-28.9s4.3,48.5-86.8,48.5" fill="none" fill-rule="evenodd" stroke="#fff" stroke-width="20" stroke-linecap="round" stroke-linejoin="round"/></g></g><g id="ebQJdcMm3Pt9" opacity="0"><line id="ebQJdcMm3Pt10" x1="300" y1="106.6" x2="299.3" y2="17.6" transform="matrix(-.479835-.877359 0.877359-.479835 173.288292 712.958016)" fill="none" stroke="#fff" stroke-width="20" stroke-linecap="round" stroke-miterlimit="10" stroke-dashoffset="89.01" stroke-dasharray="89.01"/><line id="ebQJdcMm3Pt11" x1="300" y1="106.6" x2="299.3" y2="17.6" transform="matrix(.007633-.999971 0.999971 0.007633-9.686795 597.877603)" fill="none" stroke="#fff" stroke-width="20" stroke-linecap="round" stroke-miterlimit="10" stroke-dashoffset="89.01" stroke-dasharray="89.01"/><line id="ebQJdcMm3Pt12" x1="300" y1="106.6" x2="299.3" y2="17.6" transform="matrix(.594437-.804142 0.804142 0.594437-134.36175 381.756898)" fill="none" stroke="#fff" stroke-width="20" stroke-linecap="round" stroke-miterlimit="10" stroke-dashoffset="89.01" stroke-dasharray="89.01"/><line id="ebQJdcMm3Pt13" x1="300" y1="106.6" x2="299.3" y2="17.6" transform="matrix(.870074-.492922 0.492922 0.870074-112.220375 187.272429)" fill="none" stroke="#fff" stroke-width="20" stroke-linecap="round" stroke-miterlimit="10" stroke-dashoffset="89.01" stroke-dasharray="89.01"/><line id="ebQJdcMm3Pt14" x1="300" y1="106.6" x2="299.3" y2="17.6" transform="matrix(.999991 0.004251-.004251 0.999991 0.724333-.773261)" fill="none" stroke="#fff" stroke-width="20" stroke-linecap="round" stroke-miterlimit="10" stroke-dashoffset="89.01" stroke-dasharray="89.01"/><line id="ebQJdcMm3Pt15" x1="300" y1="106.6" x2="299.3" y2="17.6" transform="matrix(.859568 0.511021-.511021 0.859568 194.272509-111.90672)" fill="none" stroke="#fff" stroke-width="20" stroke-linecap="round" stroke-miterlimit="10" stroke-dashoffset="89.01" stroke-dasharray="89.01"/><line id="ebQJdcMm3Pt16" x1="300" y1="106.6" x2="299.3" y2="17.6" transform="matrix(.582814 0.812606-.812606 0.582814 384.930321-105.090047)" fill="none" stroke="#fff" stroke-width="20" stroke-linecap="round" stroke-miterlimit="10" stroke-dashoffset="89.01" stroke-dasharray="89.01"/><line id="ebQJdcMm3Pt17" x1="300" y1="106.6" x2="299.3" y2="17.6" transform="matrix(-.003171 0.999995-.999995-.003171 607.157448-.851576)" fill="none" stroke="#fff" stroke-width="20" stroke-linecap="round" stroke-miterlimit="10" stroke-dashoffset="89.01" stroke-dasharray="89.01"/><line id="ebQJdcMm3Pt18" x1="300" y1="106.6" x2="299.3" y2="17.6" transform="matrix(-.511801 0.859104-.859104-.511801 723.819124 196.9523)" fill="none" stroke="#fff" stroke-width="20" stroke-linecap="round" stroke-miterlimit="10" stroke-dashoffset="89.01" stroke-dasharray="89.01"/></g></svg>
