<?xml version="1.0" encoding="UTF-8"?>
<svg xmlns="http://www.w3.org/2000/svg" version="1.1" viewBox="0 0 509.3 509.2">
  <defs>
    <style>
      .cls-1 {
        fill: #fff;
      }
    </style>
  </defs>
  <!-- Generator: Adobe Illustrator 28.6.0, SVG Export Plug-In . SVG Version: 1.2.0 Build 709)  -->
  <g>
    <g id="Layer_1">
      <g id="Layer_1-2" data-name="Layer_1">
        <g>
          <path class="cls-1" d="M398.4,19.1H110.9c-22.5,0-41,18.5-41,41v388.9c0,22.5,18.5,41,41,41h287.5c22.5,0,41-18.5,41-41V60.1c0-22.5-18.5-41-41-41ZM413.2,449.1c0,8.4-6.4,14.8-14.7,14.8H110.9c-8.4,0-14.8-6.4-14.8-14.8V60.1c0-8.4,6.3-14.8,14.8-14.8h287.5c8.4,0,14.7,6.4,14.7,14.8v388.9h.1Z"/>
          <path class="cls-1" d="M154.4,334.6c-7.2,0-13.1,5.9-13.1,13.1s5.9,13.1,13.1,13.1h200.5c7.2,0,13.1-5.9,13.1-13.1s-5.9-13.1-13.1-13.1h-200.5Z"/>
          <path class="cls-1" d="M209,288.6c-7.2,0-13.1,5.9-13.1,13.1s5.9,13.1,13.1,13.1h91.3c7.2,0,13.1-5.9,13.1-13.1s-5.9-13.1-13.1-13.1h-91.3,0Z"/>
          <path class="cls-1" d="M254.8,201.6h0c-.1-.1-.2-.2-.3-.4l.4.4h0Z"/>
          <path class="cls-1" d="M253.6,201.6c.6.6,1.3,1.2,2.1,1.7-.7-.5-1.4-1-2.1-1.7Z"/>
          <path class="cls-1" d="M253.5,203.3c.7.5,1.5.9,2.3,1.2-.8-.3-1.6-.7-2.3-1.2Z"/>
          <path class="cls-1" d="M254,204.7c.4.1.8.3,1.2.4-.4,0-.8-.2-1.2-.4Z"/>
          <path class="cls-1" d="M257.8,205.1c-2.1.5-4.2.5-6.2,0,2.1.5,4.2.5,6.2,0Z"/>
          <path class="cls-1" d="M254.1,205.1c.3,0,.7-.2,1-.3-.3.1-.7.2-1,.3Z"/>
          <path class="cls-1" d="M255.2,203.3c-.4.2-.7.5-1.1.7.4-.2.8-.4,1.1-.7Z"/>
          <path class="cls-1" d="M337.4,112.2c-2.5-2.5-5.8-3.9-9.4-3.8-3.4,0-6.7,1.4-9.2,3.8l-8.8,8.8c-15.1-14.8-35.7-23.9-58.4-23.9-46,0-83.5,37.5-83.5,83.5s37.5,83.5,83.5,83.5,83.5-37.5,83.5-83.5-3.4-26.7-9.3-38.2l11.6-11.6h0c2.5-2.5,3.8-5.8,3.8-9.3s-1.4-6.8-3.8-9.3h0ZM308.8,180.5c0,31.8-25.5,57.2-57.2,57.2s-57.2-25.5-57.2-57.2,25.5-57.2,57.2-57.2,29.7,6.1,40,16.2l-34.3,34.3-14.4-14.4c-2.5-2.5-5.8-3.8-9.4-3.8s-6.7,1.4-9.2,3.8c-2.5,2.5-3.8,5.8-3.8,9.3s1.4,6.8,3.8,9.3l23.3,23.3.4.4h0c.6.6,1.3,1.2,2.1,1.7h0c.7.5,1.5.9,2.3,1.2.2,0,.4.2.6.2.4.1.8.3,1.2.4h0c2.1.5,4.2.5,6.2,0,.3,0,.7-.2,1-.3.7-.2,1.3-.5,2-.8.4-.2.8-.4,1.1-.7.7-.5,1.4-1,2.1-1.7h0l39.4-39.4c1.9,5.7,2.9,11.9,2.9,18.3h-.1Z"/>
          <path class="cls-1" d="M154.4,381.8c-7.2,0-13.1,5.9-13.1,13.1s5.9,13.1,13.1,13.1h200.5c7.2,0,13.1-5.9,13.1-13.1s-5.9-13.1-13.1-13.1h-200.5Z"/>
        </g>
      </g>
    </g>
  </g>
</svg>