<?xml version="1.0" encoding="UTF-8"?>
<svg xmlns="http://www.w3.org/2000/svg" version="1.1" viewBox="0 0 509.3 509.2">
  <defs>
    <style>
      .cls-1 {
        fill: #fff;
      }
    </style>
  </defs>
  <!-- Generator: Adobe Illustrator 28.6.0, SVG Export Plug-In . SVG Version: 1.2.0 Build 709)  -->
  <g>
    <g id="Layer_1">
      <g>
        <path class="cls-1" d="M254.2,464.6c.3.4.6.8,1,1.1-.4-.4-.7-.7-1-1.1Z"/>
        <path class="cls-1" d="M254.8,424.9c0,0-.1,0-.2,0s-.1,0-.2,0h.4Z"/>
        <path class="cls-1" d="M255.1,464.7c-.3.4-.6.7-.9,1,.3-.3.6-.7.9-1Z"/>
        <path class="cls-1" d="M254.1,464.6c.3.4.7.8,1,1.2-.4-.4-.7-.8-1-1.2Z"/>
        <path class="cls-1" d="M254.8,424.9c0,0-.1,0-.2,0s-.1,0-.2,0h.4Z"/>
        <path class="cls-1" d="M255,464.7c-.2.3-.5.6-.8.9.3-.3.5-.6.8-.9Z"/>
        <path class="cls-1" d="M414.9,325.3v-30.6c0-5.5-4.5-10-10-10h-140.2v-30h15c5.5,0,10-4.5,10-10v-16.3c10.4-3.9,20.1-9.5,28.7-16.6l14.2,8.2c4.8,2.8,10.9,1.1,13.7-3.7l25-43.4c2.8-4.8,1.1-10.9-3.7-13.7l-14.1-8.2c.9-5.5,1.4-11,1.4-16.6s-.5-11.1-1.4-16.6l14.2-8.2c4.8-2.8,6.4-8.9,3.7-13.7l-25-43.4c-2.8-4.8-8.9-6.4-13.7-3.7l-14.2,8.2c-8.6-7.1-18.3-12.7-28.7-16.6v-16.3c0-5.5-4.5-10-10-10h-50.1c-5.5,0-10,4.5-10,10v16.3c-10.4,3.9-20.1,9.5-28.7,16.6l-14.2-8.2c-4.8-2.8-10.9-1.1-13.7,3.7l-25,43.4c-2.8,4.8-1.1,10.9,3.7,13.7l14.1,8.2c-.9,5.5-1.4,11-1.4,16.6s.5,11.1,1.4,16.6l-14.2,8.2c-4.8,2.8-6.4,8.9-3.7,13.7l25,43.4c2.8,4.8,8.9,6.4,13.7,3.7l14.2-8.2c8.6,7.1,18.3,12.7,28.7,16.6v16.3c0,5.5,4.5,10,10,10h15v30H104.4c-5.5,0-10,4.5-10,10v30.6c-42.2,5-75.1,41-75.1,84.5s7.5,40,20,54.8c.3.4.7.8,1,1.2h0c15.6,17.9,38.5,29.1,64.1,29.1s48.6-11.4,64.2-29.3c.3-.3.5-.6.8-.9,0,0,0,0,0,0,12.5-14.8,20.1-34,20.1-54.8,0-43.6-32.9-79.6-75.1-84.5v-20.6h280.4v20.6c-42.2,5-75.1,41-75.1,84.5s7.5,40,20,54.8c.3.4.6.8,1,1.1,15.6,17.9,38.6,29.2,64.1,29.2s48.6-11.3,64.2-29.3c.3-.3.6-.7.9-1,0,0,0,0,0,0,12.5-14.8,20.1-34,20.1-54.8,0-43.6-32.9-79.6-75.1-84.5ZM239.6,234.6v-13.5c0-4.5-3-8.4-7.2-9.6-12.4-3.6-23.9-10.2-33.3-19.2-3.2-3.1-8.1-3.7-12-1.5l-11.7,6.8-15-26,11.7-6.8c3.9-2.2,5.8-6.7,4.7-11.1-1.5-6.3-2.3-12.7-2.3-19.2s.8-13,2.3-19.2c1.1-4.3-.9-8.8-4.7-11.1l-11.7-6.8,15-26,11.8,6.8c3.9,2.2,8.7,1.6,11.9-1.5,9.4-9,20.9-15.7,33.3-19.2,4.3-1.2,7.2-5.2,7.2-9.6v-13.5h30v13.5c0,4.5,2.9,8.4,7.2,9.6,12.4,3.6,23.9,10.2,33.3,19.2,3.2,3.1,8.1,3.7,12,1.5l11.8-6.8,15,26-11.7,6.8c-3.9,2.2-5.8,6.7-4.7,11.1,1.5,6.3,2.3,12.7,2.3,19.2s-.8,13-2.3,19.2c-1.1,4.3.9,8.8,4.7,11.1l11.7,6.8-15,26-11.8-6.8c-3.9-2.2-8.7-1.6-12,1.5-9.4,9-20.9,15.7-33.3,19.2-4.3,1.2-7.2,5.2-7.2,9.6v13.5h-30ZM104.4,474.9c-16.2,0-31-5.9-42.4-15.8,12.1-9.3,26.9-14.3,42.4-14.3h0c15.6,0,30.3,5,42.4,14.3-11.4,9.8-26.2,15.8-42.4,15.8ZM84.4,404.8c0-11,9-20,20-20s20,9,20,20-8.9,19.9-19.9,20c0,0-.1,0-.2,0s-.1,0-.2,0c-11,0-19.8-9-19.8-20ZM169.5,409.8c0,12.5-3.5,24.2-9.7,34.1-7.5-5.9-15.7-10.4-24.5-13.6,5.7-6.9,9.1-15.8,9.1-25.4,0-22.1-18-40.1-40.1-40.1s-40.1,18-40.1,40.1,3.4,18.5,9.1,25.4c-8.8,3.2-17.1,7.8-24.5,13.6-6.1-9.9-9.6-21.6-9.6-34.1,0-35.9,29.2-65.1,65.1-65.1h0c35.9,0,65.1,29.2,65.1,65.1ZM404.9,344.7h0c35.9,0,65.1,29.2,65.1,65.1s-3.5,24.2-9.7,34.1c-7.5-5.9-15.7-10.4-24.5-13.6,5.7-6.9,9.1-15.8,9.1-25.4,0-22.1-18-40.1-40.1-40.1s-40.1,18-40.1,40.1,3.4,18.5,9.1,25.4c-8.8,3.2-17.1,7.8-24.5,13.6-6.1-9.9-9.6-21.6-9.6-34.1,0-35.9,29.2-65.1,65.1-65.1ZM384.8,404.8c0-11,9-20,20-20s20,9,20,20-8.9,19.9-19.8,20c0,0-.1,0-.2,0s-.1,0-.2,0c-11,0-19.9-9-19.9-20ZM404.9,474.9c-16.2,0-31-5.9-42.4-15.8,12.1-9.3,26.9-14.3,42.4-14.3s30.3,5,42.4,14.3c-11.4,9.8-26.2,15.8-42.4,15.8Z"/>
        <path class="cls-1" d="M254.6,184.5c-27.6,0-50.1-22.5-50.1-50.1s22.5-50.1,50.1-50.1,50.1,22.5,50.1,50.1-22.5,50.1-50.1,50.1ZM254.6,104.4c-16.6,0-30,13.5-30,30s13.5,30,30,30,30-13.5,30-30-13.5-30-30-30h0Z"/>
      </g>
    </g>
  </g>
</svg>