<?xml version="1.0" encoding="UTF-8"?>
<svg id="Layer_1" data-name="Layer 1" xmlns="http://www.w3.org/2000/svg" version="1.1" viewBox="0 0 869 518">
  <defs>
    <style>
      .cls-1 {
        fill: #dae4f4;
        stroke-width: 0px;
      }
    </style>
  </defs>
  <path class="cls-1" d="M173.9,195.5v-18.1l-26.9-34.2h17.9l16.1,22,16.2-22h16.8l-26.9,34.2v18.1h-13.2Z"/>
  <path class="cls-1" d="M235.7,195.5c-15.2,0-26.4-11.5-26.4-26.7s11.2-25.6,26.4-25.6h13.2c15.6,0,26.4,10.4,26.4,25.6s-11.1,26.7-26.4,26.7h-13.2ZM248.9,182.2c7.8,0,13.2-5.3,13.2-12.7s-5.5-13-13.2-13h-13.2c-7.5,0-13,5.5-13,13s5.4,12.7,13,12.7h13.2Z"/>
  <path class="cls-1" d="M326.1,143.2h13v29.2c0,16.2-8.3,23.8-29.2,23.8s-29.2-7.6-29.2-23.8v-29.2h13.8v29.2c0,8,3.4,10.7,15.9,10.7s15.8-2.7,15.8-10.7v-29.2Z"/>
  <path class="cls-1" d="M390.7,195.5l-12.2-14h-13v-11.2h18.8c4.4,0,7.1-2.7,7.1-7s-2.7-7-7.1-7h-25.2v39.1h-13.2v-52.3h38.5c12.6,0,20.1,7.7,20.1,19.7s-4,14.3-10.4,16.9l15.6,15.7h-18.9Z"/>
  <path class="cls-1" d="M435.4,195.5v-52.3h13.3v52.3h-13.3Z"/>
  <path class="cls-1" d="M520.7,195.5l-7.1-29.3-13.1,25.1c-1.6,3-3.5,4.9-6.7,4.9s-5.1-1.9-6.7-4.9l-13-25.1-7.1,29.3h-13l12.2-47.7c.9-3.6,3.1-5.4,6.5-5.4s5.2,1.7,6.6,4.4l15,29.5,15-29.5c1.4-2.7,3.5-4.4,6.3-4.4s5.3,1.8,6.2,5.4l12.1,47.7h-13.1Z"/>
  <path class="cls-1" d="M590.4,195.5l-6.8-11.6h-19.4l5.9-10h7.6l-7.5-12.7-20.2,34.3h-15.1l29.4-48.8c1.6-2.6,3.5-4.2,6.4-4.2s4.8,1.7,6.3,4.2l29.4,48.8h-16Z"/>
  <path class="cls-1" d="M628.2,195.5c-15.2,0-26.4-11.5-26.4-26.7s11.2-25.6,26.4-25.6h29.3v13.2h-29.3c-7.5,0-13,5.5-13,13s5.4,12.7,13,12.7h19.3v-8.3h-20.6v-10h33.9v31.6h-32.6Z"/>
  <path class="cls-1" d="M667.8,195.5v-52.3h48.3v13.2h-35.1v25.8h35.2v13.3h-48.5ZM687.4,173.9v-10h26.6v10h-26.6Z"/>
  <path class="cls-1" d="M113.6,375.5v-145.4h37v145.4h-37ZM224,375.5v-58.2h-55.8v-31.2h55.8v-56h37v145.4h-37Z"/>
  <path class="cls-1" d="M282.2,375.5v-145.4h134.2v36.8h-97.4v71.6h97.8v37h-134.6ZM336.8,315.5v-27.8h74v27.8h-74Z"/>
  <path class="cls-1" d="M559.2,375.5l-34-38.8h-36v-31h52.2c12.2,0,19.6-7.6,19.6-19.4s-7.4-19.4-19.6-19.4h-70v108.6h-36.8v-145.4h106.8c35,0,55.8,21.4,55.8,54.8s-11.2,39.8-29,47l43.4,43.6h-52.4Z"/>
  <path class="cls-1" d="M620.8,375.5v-145.4h134.2v36.8h-97.4v71.6h97.8v37h-134.6ZM675.4,315.5v-27.8h74v27.8h-74Z"/>
</svg>