<?xml version="1.0" encoding="UTF-8"?>
<svg id="Layer_1" data-name="Layer 1" xmlns="http://www.w3.org/2000/svg" xmlns:xlink="http://www.w3.org/1999/xlink" version="1.1" viewBox="0 0 296.7 312.8">
  <defs>
    <style>
      .cls-1 {
        fill: url(#linear-gradient);
      }

      .cls-1, .cls-2, .cls-3, .cls-4, .cls-5, .cls-6, .cls-7, .cls-8, .cls-9, .cls-10, .cls-11, .cls-12, .cls-13, .cls-14 {
        stroke-width: 0px;
      }

      .cls-2 {
        fill: url(#linear-gradient-11);
      }

      .cls-3 {
        fill: url(#linear-gradient-12);
      }

      .cls-4 {
        fill: url(#linear-gradient-13);
      }

      .cls-5 {
        fill: url(#linear-gradient-10);
      }

      .cls-6 {
        fill: url(#linear-gradient-14);
      }

      .cls-7 {
        fill: url(#linear-gradient-4);
      }

      .cls-8 {
        fill: url(#linear-gradient-2);
      }

      .cls-9 {
        fill: url(#linear-gradient-3);
      }

      .cls-10 {
        fill: url(#linear-gradient-8);
      }

      .cls-11 {
        fill: url(#linear-gradient-9);
      }

      .cls-12 {
        fill: url(#linear-gradient-7);
      }

      .cls-13 {
        fill: url(#linear-gradient-5);
      }

      .cls-14 {
        fill: url(#linear-gradient-6);
      }
    </style>
    <linearGradient id="linear-gradient" x1="146.9" y1="24.5" x2="146.9" y2="305.6" gradientUnits="userSpaceOnUse">
      <stop offset="0" stop-color="#232763"/>
      <stop offset=".2" stop-color="#262f6d"/>
      <stop offset=".7" stop-color="#234089"/>
    </linearGradient>
    <linearGradient id="linear-gradient-2" x1="59.8" y1="117.2" x2="59.8" y2="191.5" gradientUnits="userSpaceOnUse">
      <stop offset="0" stop-color="#232763"/>
      <stop offset="1" stop-color="#262f6d"/>
    </linearGradient>
    <linearGradient id="linear-gradient-3" x1="81.3" y1="117.2" x2="81.3" y2="191.5" xlink:href="#linear-gradient-2"/>
    <linearGradient id="linear-gradient-4" x1="104.9" y1="117.2" x2="104.9" y2="191.5" xlink:href="#linear-gradient-2"/>
    <linearGradient id="linear-gradient-5" x1="128.6" y1="117.2" x2="128.6" y2="191.5" xlink:href="#linear-gradient-2"/>
    <linearGradient id="linear-gradient-6" x1="151" y1="117.2" x2="151" y2="191.5" xlink:href="#linear-gradient-2"/>
    <linearGradient id="linear-gradient-7" x1="169.1" y1="117.2" x2="169.1" y2="191.5" xlink:href="#linear-gradient-2"/>
    <linearGradient id="linear-gradient-8" x1="195.9" y1="117.2" x2="195.9" y2="191.5" xlink:href="#linear-gradient-2"/>
    <linearGradient id="linear-gradient-9" x1="217" y1="117.2" x2="217" y2="191.5" xlink:href="#linear-gradient-2"/>
    <linearGradient id="linear-gradient-10" x1="238.2" y1="117.2" x2="238.2" y2="191.5" xlink:href="#linear-gradient-2"/>
    <linearGradient id="linear-gradient-11" x1="62.1" y1="117.2" x2="62.1" y2="191.5" xlink:href="#linear-gradient-2"/>
    <linearGradient id="linear-gradient-12" x1="118.7" y1="117.2" x2="118.7" y2="191.5" xlink:href="#linear-gradient-2"/>
    <linearGradient id="linear-gradient-13" x1="179.3" y1="117.2" x2="179.3" y2="191.5" xlink:href="#linear-gradient-2"/>
    <linearGradient id="linear-gradient-14" x1="236.8" y1="117.2" x2="236.8" y2="191.5" xlink:href="#linear-gradient-2"/>
  </defs>
  <rect class="cls-1" x="-5.9" y="-4.2" width="305.6" height="320.6"/>
  <g>
    <path class="cls-8" d="M57.5,134.3v-6.3l-9.4-11.9h6.2l5.6,7.7,5.7-7.7h5.9l-9.4,11.9v6.3h-4.6Z"/>
    <path class="cls-9" d="M79,134.3c-5.3,0-9.2-4-9.2-9.3s3.9-8.9,9.2-8.9h4.6c5.4,0,9.2,3.6,9.2,8.9s-3.9,9.3-9.2,9.3h-4.6ZM83.6,129.6c2.7,0,4.6-1.8,4.6-4.4s-1.9-4.5-4.6-4.5h-4.6c-2.6,0-4.5,1.9-4.5,4.5s1.9,4.4,4.5,4.4h4.6,0Z"/>
    <path class="cls-7" d="M110.6,116h4.5v10.2c0,5.7-2.9,8.3-10.2,8.3s-10.2-2.7-10.2-8.3v-10.2h4.8v10.2c0,2.8,1.2,3.7,5.5,3.7s5.5-.9,5.5-3.7v-10.2h0Z"/>
    <path class="cls-13" d="M133.1,134.3l-4.3-4.9h-4.5v-3.9h6.6c1.5,0,2.5-.9,2.5-2.4s-.9-2.4-2.5-2.4h-8.8v13.6h-4.6v-18.2h13.4c4.4,0,7,2.7,7,6.9s-1.4,5-3.6,5.9l5.4,5.5h-6.6Z"/>
    <path class="cls-14" d="M148.7,134.3v-18.2h4.6v18.2h-4.6Z"/>
    <path class="cls-12" d="M178.4,134.3l-2.5-10.2-4.6,8.8c-.6,1-1.2,1.7-2.3,1.7s-1.8-.7-2.3-1.7l-4.5-8.8-2.5,10.2h-4.5l4.3-16.6c.3-1.3,1.1-1.9,2.3-1.9s1.8.6,2.3,1.5l5.2,10.3,5.2-10.3c.5-.9,1.2-1.5,2.2-1.5s1.8.6,2.2,1.9l4.2,16.6h-4.6Z"/>
    <path class="cls-10" d="M202.8,134.3l-2.4-4h-6.8l2.1-3.5h2.7l-2.6-4.4-7,12h-5.3l10.3-17c.6-.9,1.2-1.5,2.2-1.5s1.7.6,2.2,1.5l10.3,17h-5.6Z"/>
    <path class="cls-11" d="M215.9,134.3c-5.3,0-9.2-4-9.2-9.3s3.9-8.9,9.2-8.9h10.2v4.6h-10.2c-2.6,0-4.5,1.9-4.5,4.5s1.9,4.4,4.5,4.4h6.7v-2.9h-7.2v-3.5h11.8v11h-11.4Z"/>
    <path class="cls-5" d="M229.8,134.3v-18.2h16.9v4.6h-12.2v9h12.3v4.6h-16.9,0ZM236.6,126.7v-3.5h9.3v3.5h-9.3Z"/>
    <path class="cls-2" d="M36.4,197.1v-50.7h12.9v50.7h-12.9ZM74.9,197.1v-20.3h-19.5v-10.9h19.5v-19.5h12.9v50.7h-12.9Z"/>
    <path class="cls-3" d="M95.2,197.1v-50.7h46.8v12.8h-34v25h34.1v12.9h-47ZM114.3,176.1v-9.7h25.8v9.7h-25.8Z"/>
    <path class="cls-4" d="M191.9,197.1l-11.9-13.5h-12.6v-10.8h18.2c4.3,0,6.8-2.7,6.8-6.8s-2.6-6.8-6.8-6.8h-24.4v37.9h-12.8v-50.7h37.3c12.2,0,19.5,7.5,19.5,19.1s-3.9,13.9-10.1,16.4l15.1,15.2h-18.3Z"/>
    <path class="cls-6" d="M213.4,197.1v-50.7h46.8v12.8h-34v25h34.1v12.9h-47,0ZM232.4,176.1v-9.7h25.8v9.7h-25.8Z"/>
  </g>
</svg>