<?xml version="1.0" encoding="UTF-8"?>
<svg id="Layer_1" data-name="Layer 1" xmlns="http://www.w3.org/2000/svg" version="1.1" viewBox="0 0 557.7 368.5">
  <defs>
    <style>
      .cls-1 {
        fill: #0f1322;
        stroke-width: 0px;
      }
    </style>
  </defs>
  <path class="cls-1" d="M482.9,49c-2.1-7.6,2.5-17.2-6.6-22.9-.1,0,.5-.9.4-1.4-.9-5.3-5.8-9.4-10.4-8.7-.7-4.3-3.4-5.6-7.4-5.5-1.3,0-2.9-.7-4-1.6-2.6-2-4.3-1.9-5.8,1.2-1.5,2.9-3.4,5.5-5.1,8.3-.2-.2-.5-.3-.7-.5,1.4-3.9,2.7-7.8,4.1-11.6-.7-.4-1.4-.7-2.1-1.1-8.1,5.5-9.3,15.7-14,23.7,1-8.8,1.9-17.4,2.8-25.9-2.1-.4-3.9-.7-5.6-1.1-1.8,7.1-3.6,14-5.4,20.9-.7-7.8,0-15.4-2.6-22.6-.6,0-1.1,0-1.7-.1-.8,4.5-1.5,8.9-2.2,13.4-.3,0-.6,0-.8,0V.7c-6.4,1.1-6.9,1.3-8.6,6.5-1.8,5.4-3.2,10.9-4.7,16.4-.2,0-.5-.1-.8-.2,1.4-6.2,2.9-12.4,4.3-18.6-.5-.2-1-.3-1.5-.5-6.5,5.3-5.6,14.2-9.7,20.9,1-4.8,2-9.6,3.1-14.4-.3-.1-.5-.3-.8-.4-3.3,3.8-6.7,7.5-10.6,12-.4-2.4-.5-3.3-.8-5-5.8,6.6-5.1,15.2-8.7,22.3-1.5-1.2-2.7-2.2-4-3.2-4.8,7.1-9.5,14-14.2,20.9-.3-.2-.6-.4-.9-.5,1.9-6.8,3.8-13.7,5.6-20.5-2,.8-3,2-3.8,3.3-5.7,8.7-13.7,14.6-23,19-7.3,3.4-14.5,7.3-21.4,11.4-2.5,1.5-4.6,4.3-5.9,7-4.2,8.5-8,17.2-12,25.8-.5-.2-.9-.3-1.4-.5,3.1-8.7,6.2-17.3,9.3-25.7-5,3.2-10.5,6.5-15.8,10.1-5.7,3.8-10.2,8.8-12.4,15.2-2.8,7.9-4.9,16-7,24.1-2.1,7.9-3.4,16.1-8.4,21.5.8-9.7,1.5-20.2,2.5-30.7.8-9.1,1.9-18.1,6.5-26.3.7-1.2,1.1-2.6,1.6-3.9-.3-.2-.7-.4-1-.6-.8,1.1-1.5,2.2-2.4,3.2-2.8,3-5.3,7.4-8.8,8.4-8.1,2.3-14.7,6.2-20.1,12.5-2.5,3-4.8,6.1-7.2,9.2-.2-.1-.4-.3-.6-.4.8-2.1,1.6-4.2,2.4-6.3-.5-.3-1-.6-1.5-.9-2.8,4.3-6.1,8.4-8.1,13-2,4.9-3.1,10.3-3.9,15.6-.7,5-.4,10-.5,15.1-6-14-3.5-28.5-3.5-43.3-8.7,7.5-13.3,16.3-15,26.9-.9-1.9-1.4-3.7-1.9-5.5-.5-1.9-.9-3.8-1.3-5.6-6.6,11.6-3,23.4-2,35.8-4.6-11.2-8.9-21.7-13.2-32.2-2.6,7.1-5,13.5-2.1,20.5,2.7,6.5,4.6,13.2,6.8,19.9-7.2-6.4-14-12.9-24.3-14.8,3.2,7.3,11.6,10.2,12.1,18.6-5.9,1.6-11.3,3.3-16.7,4.6-25.8,6.2-51.7,12.2-77.5,18.4-2.3.6-6.6.4-5.8,4.5.8,4.2,4.8,2.4,7.1,1.9,18.3-3.6,36.5-7.3,54.6-11.4,13.6-3.1,27.1-6.9,40.7-10.3,5.7-1.4,8.1.2,9.3,6,.5,2.4,1.1,4.8,1.6,7.2.7,0,1.4,0,2.1,0,1-5.1,2.1-10.1,3.1-15.2,5.8,8.7,11.5,17.2,17.1,25.7.6-.3,1.1-.7,1.7-1-1.6-4.4-3.2-8.8-4.8-13.2-.3-.8,0-1.7,0-2.6.7,0,1.5,0,2.2.1,2.7.6,5.4,1.4,8.8,2.2-1.2-1.4-1.9-2.1-3.4-3.8,5.6,2.5,10.2,4.1,14.2,1.4-3.6-3.1-7.2-6.1-10.7-9.2.3-.4.5-.8.8-1.2,7.3,8.7,16.7,8.6,26.4,6.8,2.9-.6,5.8-1.4,8.7-1.8,4.8-.7,9.5-1.2,14.3-1.9-2.5-1.7-5-2.3-7.4-3.1-2.6-.9-5-2.2-7.6-3.2q22.1,3.9,31-2c-3.7-1.2-7.8-2.6-11.9-3.9.1-.4.2-.8.4-1.2,10.3,2.6,20.6,5.3,30.8,7.9.2-.5.4-.9.5-1.4-3.5-1.5-7.1-2.9-10.5-4.6-3.4-1.7-6.8-3.4-9.9-5.6-3.1-2.2-5.8-4.9-8.6-7.4.2-.3.5-.7.8-1,1.5.9,2.9,2,4.5,2.8,5.5,2.9,11.2,5.5,16.7,8.5,5.4,2.9,9.8,1.6,13.6-2.7-4.8-2.1-9.6-4.2-14.5-6.3.2-.4.3-.8.5-1.2,2.1,1,4.2,2.5,6.4,2.9,4.3.7,9.1,2.2,12.8.9,12.6-4.4,26-6.9,37.3-14.8,5.3-3.7,10.7-7.2,16.2-10.5,3.1-1.8,6.8-4.5,9.8-4,5.6.9,8.1-1.7,10.7-5.5-.1,0-.3-.2-.4-.3-.4-.2-.7-.5-.8-.5,2.6-2.2,5.5-4.4,8.1-7,6.9-7,13.4-14.7,26-11-2.3-1.4-3.6-2.2-5.8-3.6,4.4-2.5,8.2-4.3,11.5-6.7,12.1-8.8,24-17.9,35.9-26.9.8-.6,1.6-1.3,2.2-2,4.6-5.9,9.3-11.7,13.8-17.7.5-.7.8-2,.6-2.8ZM543.8,275.9v51.4c-1.4-1.5-2.2-3.1-2.8-4.7-4.9-12.2-9.7-24.5-14.7-36.7-4.4-10.8-4.5-10.8-16.2-10.3-.3,0-.6.3-1.2.5v90.1h13v-51.4c.4,0,.8,0,1.1-.1.6,1.3,1.2,2.6,1.8,4,5.8,14.7,11.6,29.4,17.6,44,.6,1.5,2.3,3.4,3.8,3.6,3.7.5,7.5.2,11.4.2v-90.6h-13.9ZM38.2,319.1c7.6-7.9,8.8-9.5,9.3-18.7.8-13.6-5.5-24.5-20.9-25-7.3-.2-14.6,0-22-.3-3.5-.1-4.6,1-4.5,4.5.1,27.5.1,55,0,82.4,0,3.1.8,4.6,4.2,4.5,7.2-.2,14.3.2,21.5-.2,6.1-.4,12.1-1.3,16.9-5.9,11.4-10.9,9.3-31.9-4.4-41.4ZM15.7,288.5c5.1.3,10.7-1.9,13.8,3.5,2.9,5.2,4,11,.5,16.5-3.2,5-8.3,5.3-14.2,4.8v-24.8ZM31.9,349.1c-3.6,6.4-10.1,4-16.2,4.4v-27.8c6.4-.5,12.8-.7,16.4,5,3.6,5.8,3.1,12.5-.2,18.4ZM370.7,363.3c-3.3-10.3-6.6-20.7-10.2-30.9-1.5-4.2-2.2-7.4,2.6-9.9,1.7-.9,2.9-3.2,3.9-5,4.2-7.7,3.6-16,2.5-24.2-1.4-9.8-7.5-16.3-17-17.4-9.9-1.1-20.1-.2-30.2-.2v90.5h14.8v-36.4h7.6c1.3,4.3,2.5,8.4,3.8,12.5,1.2,4.1,2.4,8.2,3.6,12.3q3.7,12.5,16.7,12c.7,0,1.3-.2,2.1-.3,0-1.1,0-2.1-.2-3ZM352.4,312.5c-3,6.2-9.5,3.6-15.2,4v-27.9c5.3.1,11.5-2.2,14.8,3,4.1,6.4,3.7,14.3.5,21ZM307.6,296.4c0-8.3-3.1-16.2-11.5-19.3-5.4-2-11.7-2.7-17.4-2.3-9.8.6-16.9,7.8-17.6,17.7-.7,9.2-.1,18.6-.1,27.9h-.8c0,7.5-.2,15,0,22.5.2,8.6,2.1,17,10.7,20.8,4.9,2.2,10.8,2.7,16.3,2.8,10.4.3,19.2-7.3,19.7-17.7.8-17.4.9-34.9.7-52.3ZM292.1,346c-.1,5.6-2.7,8.3-7.6,8.5-5.3.2-8.4-2.1-8.5-7.9-.3-17.3-.2-34.6,0-51.9.1-5.6,2.8-7.3,8.5-7.1,4.7.2,7.2,2.4,7.4,7.5.2,8.7,0,17.3,0,26h0c0,8.3.1,16.7,0,25ZM158.1,278.9c0-1-.2-1.9-.3-3.3-3,0-5.9.3-8.6,0-5.2-.7-6.4,1.2-6.3,6.3.3,21.5.1,43,.1,64.5,0,4.7-2.7,7.8-6.8,8.3-4.7.5-8-1.6-9.2-6.3-.5-2.1-.8-4.2-.8-6.4,0-20,0-40,0-60v-6.1h-15.1v5.4c0,20.6,0,41.3,0,61.9,0,14.5,6.7,23,20.8,25.1,11.7,1.7,26-4.2,26.2-20.9.3-22.8.1-45.6.1-68.4ZM461.3,321.2c-7.6-.3-15.2-.2-23-.2v12.7h10.7c0,4.4,0,8.2,0,12,0,5.6-3.1,8.7-8.5,8.7-5.5,0-8.4-2.8-8.5-8.6-.1-8.7,0-17.3,0-26,0-8.3,0-16.7.1-25,.1-4.3,2.2-7.1,7-7.4,5.8-.2,8,1.1,8.9,6.2.7,3.5.9,7.1,1.4,10.6h14.4c.4-7.9.9-15.6-4.4-21.9-7.2-8.6-16.8-9.4-26.7-6.9-11,2.8-15.5,8.7-15.7,19.9-.3,16.7-.1,33.3-.1,50,0,2.1.2,4.3.7,6.4,3.8,14.3,18.6,17.9,30.5,13.5,5.9-2.2,10.4-4,16,2.6,0-15.7,0-29.5-.1-43.3,0-1.1-1.6-3.2-2.5-3.2ZM192.1,352.4c-1.3,0-3.7-1.2-3.7-1.9-.3-7.9-.2-15.8-.2-24.2h20.4v-13.8h-20.5c0-6.5.3-12.5,0-18.4-.3-4.5,1.2-5.8,5.6-5.6,7.1.3,14.1,0,21.2,0v-13.2h-41.5v90.7h42.5v-13.6c-8.2,0-16,0-23.8,0ZM85.4,353.4c-8.1,0-7.3,1-7.3-7.6,0-21.5,0-43,0-64.5v-5.8c-4.1,0-7.5.3-11,0-4.1-.4-5,1.3-5,5.2.1,27.3,0,54.6,0,81.9,0,1.3.3,2.5.4,3.6h40.2v-12.8c-6.1,0-11.7,0-17.3,0ZM386.2,275.8v90.6h14.4v-90.6h-14.4ZM478.3,275.7v90.5h14.3v-90.5h-14.3Z"/>
  <path class="cls-1" d="M176.2,175.8c-.5-8.3-8.9-11.3-12.1-18.6,10.4,1.9,17.1,8.5,24.3,14.8-2.2-6.6-4.1-13.4-6.8-19.9-2.9-7-.6-13.4,2.1-20.5,4.3,10.5,8.6,21,13.2,32.2-1-12.4-4.6-24.2,2-35.8.4,1.9.9,3.8,1.3,5.6.5,1.8,1,3.6,1.9,5.5,1.8-10.6,6.3-19.4,15.1-26.9,0,14.9-2.6,29.3,3.5,43.3.1-5-.2-10.1.5-15.1.7-5.3,1.8-10.7,3.9-15.6,1.9-4.6,5.3-8.7,8.1-13,.5.3,1,.6,1.5.9-.8,2.1-1.6,4.2-2.4,6.3.2.1.4.3.6.4,2.4-3.1,4.7-6.3,7.2-9.2,5.3-6.3,12-10.2,20-12.5,3.5-1,5.9-5.5,8.8-8.4.9-1,1.6-2.1,2.4-3.2.3.2.7.4,1,.6-.5,1.3-.9,2.6-1.6,3.9-4.5,8.2-5.7,17.2-6.5,26.3-.9,10.5-1.7,21-2.5,30.7,5-5.4,6.3-13.7,8.4-21.5,2.2-8.1,4.3-16.2,7-24.1,2.2-6.4,6.7-11.4,12.4-15.2,5.3-3.5,10.8-6.9,15.8-10.1-3,8.4-6.1,17-9.3,25.7l1.4.5c4-8.6,7.7-17.3,12-25.8,1.3-2.7,3.4-5.5,5.9-7,6.9-4.2,14.1-8,21.4-11.4,9.4-4.4,17.3-10.3,23-19.1.9-1.3,1.9-2.5,3.8-3.3-1.9,6.9-3.8,13.7-5.6,20.6.3.2.6.4.9.5,4.7-6.9,9.3-13.7,14.2-20.9,1.3,1.1,2.5,2,4,3.2,3.6-7.1,2.9-15.7,8.7-22.3.3,1.7.4,2.7.8,5,3.9-4.4,7.3-8.2,10.6-12,.3.1.5.3.8.4-1,4.8-2,9.6-3.1,14.4,4.1-6.7,3.2-15.6,9.7-20.9.5.2,1,.3,1.5.5l-4.3,18.6c.3,0,.5.1.8.2,1.6-5.5,3-11,4.7-16.4,1.7-5.2,2.2-5.4,8.6-6.5v12.7c.3,0,.6,0,.8,0,.8-4.5,1.5-9,2.3-13.4.6,0,1.1,0,1.7.1,2.7,7.2,1.9,14.8,2.6,22.6,1.8-6.9,3.6-13.8,5.4-20.9,1.7.3,3.4.7,5.6,1.1-.9,8.4-1.9,17.1-2.8,25.9,4.7-8,5.8-18.2,14-23.7l2.1,1.1c-1.4,3.9-2.7,7.7-4.1,11.6l.7.5c1.7-2.7,3.6-5.4,5.1-8.3,1.6-3.1,3.3-3.2,5.8-1.2,1.1.9,2.6,1.6,4,1.6,4,0,6.8,1.3,7.4,5.5,4.6-.6,9.5,3.4,10.4,8.7,0,.4-.5,1.3-.4,1.4,9.1,5.7,4.5,15.3,6.6,22.9.2.8,0,2.1-.6,2.8-4.5,5.9-9.2,11.8-13.8,17.7-.6.8-1.4,1.5-2.2,2-11.9,9-23.8,18-35.9,26.9-3.3,2.4-7.2,4.2-11.6,6.7,2.2,1.4,3.5,2.2,5.8,3.6-12.7-3.7-19.2,4-26,11-2.5,2.6-5.4,4.7-8.1,7-.2-.1.5.3,1.2.8-2.5,3.9-5,6.5-10.6,5.6-3-.5-6.7,2.2-9.8,4-5.5,3.3-11,6.8-16.2,10.5-11.3,7.9-24.7,10.4-37.3,14.8-3.7,1.3-8.6-.2-12.8-.9-2.2-.4-4.3-1.9-6.4-2.9-.2.4-.3.8-.5,1.2,4.9,2.1,9.7,4.2,14.5,6.3-3.8,4.3-8.2,5.6-13.6,2.7-5.5-3-11.1-5.6-16.7-8.5-1.6-.8-3-1.9-4.4-2.8-.3.3-.5.7-.8,1,2.9,2.5,5.5,5.2,8.6,7.4,3.1,2.2,6.5,3.9,9.9,5.6,3.4,1.7,7,3.1,10.5,4.6-.2.5-.3.9-.5,1.4-10.3-2.6-20.6-5.3-30.9-7.9-.1.4-.3.8-.4,1.2,4.1,1.3,8.1,2.7,11.9,3.9q-8.9,5.8-31,2c2.5,1.1,5,2.3,7.6,3.2,2.4.9,4.9,1.4,7.4,3.1-4.8.6-9.5,1.1-14.3,1.9-2.9.4-5.8,1.2-8.7,1.8-9.8,1.9-19.1,1.9-26.4-6.7l-.8,1.3c3.6,3.1,7.1,6.1,10.7,9.2-4,2.6-8.5,1.1-14.2-1.4,1.5,1.7,2.1,2.4,3.4,3.8-3.4-.9-6.1-1.6-8.8-2.2-.7-.2-1.5,0-2.2,0,0,.9-.2,1.8,0,2.6,1.5,4.4,3.2,8.8,4.8,13.2l-1.7,1c-5.7-8.5-11.3-17-17.1-25.7-1,5.1-2.1,10.2-3.1,15.2h-2.1c-.5-2.4-1.1-4.8-1.6-7.2-1.1-5.7-3.6-7.4-9.3-6-13.6,3.4-27.1,7.2-40.7,10.3-18.1,4.1-36.4,7.8-54.6,11.4-2.3.4-6.3,2.2-7.1-1.9-.8-4.2,3.5-4,5.8-4.6,25.8-6.3,51.7-12.3,77.5-18.4,5.4-1.3,10.8-3,16.7-4.6Z"/>
  <path class="cls-1" d="M522,314.9v51.4h-13v-90.1c.6-.3.9-.5,1.2-.5,11.7-.5,11.8-.5,16.1,10.3,5,12.2,9.8,24.5,14.7,36.7.7,1.6,1.4,3.2,2.8,4.7v-51.4h13.9v90.6c-3.9,0-7.7.3-11.4-.2-1.4-.2-3.1-2.1-3.7-3.6-6-14.6-11.7-29.3-17.6-44-.5-1.4-1.2-2.7-1.8-4-.4,0-.8,0-1.1.1Z"/>
  <path class="cls-1" d="M38.2,319.1c7.6-7.9,8.8-9.5,9.3-18.7.8-13.6-5.5-24.5-20.9-25-7.3-.2-14.6,0-22-.3-3.5-.1-4.6,1-4.5,4.5.1,27.5.1,55,0,82.4,0,3.1.8,4.6,4.2,4.5,7.2-.2,14.3.2,21.5-.2,6.1-.4,12.1-1.3,16.9-5.9,11.4-10.9,9.3-31.9-4.4-41.4ZM15.7,288.5c5.1.3,10.7-1.9,13.8,3.5,2.9,5.2,4,11,.5,16.5-3.2,5-8.3,5.3-14.2,4.8v-24.8ZM31.9,349.1c-3.6,6.4-10.1,4-16.2,4.4v-27.8c6.4-.5,12.8-.7,16.4,5,3.6,5.8,3.1,12.5-.2,18.4Z"/>
  <path class="cls-1" d="M370.7,363.3c-3.3-10.3-6.6-20.7-10.2-30.9-1.5-4.2-2.2-7.4,2.6-9.9,1.7-.9,2.9-3.2,3.9-5,4.2-7.7,3.6-16,2.5-24.2-1.4-9.8-7.5-16.3-17-17.4-9.9-1.1-20.1-.2-30.2-.2v90.5h14.8v-36.4h7.6c1.3,4.3,2.5,8.4,3.8,12.5,1.2,4.1,2.4,8.2,3.6,12.3q3.7,12.5,16.7,12c.7,0,1.3-.2,2.1-.3,0-1.1,0-2.1-.2-3ZM352.4,312.5c-3,6.2-9.5,3.6-15.2,4v-27.9c5.3.1,11.5-2.2,14.8,3,4.1,6.4,3.7,14.3.5,21Z"/>
  <path class="cls-1" d="M307.6,296.4c0-8.3-3.1-16.2-11.5-19.3-5.4-2-11.7-2.7-17.4-2.3-9.8.6-16.9,7.8-17.6,17.7-.7,9.2-.1,18.6-.1,27.9h-.8c0,7.5-.2,15,0,22.5.2,8.6,2.1,17,10.7,20.8,4.9,2.2,10.8,2.7,16.3,2.8,10.4.3,19.2-7.3,19.7-17.7.8-17.4.9-34.9.7-52.3ZM292.1,346c-.1,5.6-2.7,8.3-7.6,8.5-5.3.2-8.4-2.1-8.5-7.9-.3-17.3-.2-34.6,0-51.9.1-5.6,2.8-7.3,8.5-7.1,4.7.2,7.2,2.4,7.4,7.5.2,8.7,0,17.3,0,26h0c0,8.3.1,16.7,0,25Z"/>
  <path class="cls-1" d="M111,275.8h15.1c0,2.2,0,4.2,0,6.1,0,20,0,40,0,60,0,2.1.3,4.3.8,6.4,1.2,4.7,4.5,6.8,9.2,6.3,4.1-.5,6.8-3.5,6.8-8.3,0-21.5.2-43,0-64.5,0-5,1.2-7,6.3-6.3,2.7.4,5.6,0,8.6,0,.1,1.4.3,2.4.3,3.3,0,22.8.2,45.6-.1,68.4-.2,16.6-14.5,22.5-26.2,20.9-14.1-2-20.8-10.6-20.8-25,0-20.7,0-41.3,0-62,0-1.6,0-3.3,0-5.4Z"/>
  <path class="cls-1" d="M464,367.7c-5.6-6.5-10.1-4.8-16-2.6-11.8,4.4-26.6.9-30.4-13.5-.5-2-.7-4.2-.7-6.4,0-16.7-.1-33.3.1-50,.2-11.2,4.7-17.1,15.7-19.9,9.9-2.5,19.5-1.6,26.7,6.9,5.3,6.4,4.9,14,4.4,21.9h-14.4c-.4-3.5-.7-7-1.4-10.6-1-5.2-3.1-6.5-8.9-6.2-4.8.2-6.9,3.1-7,7.4-.2,8.3-.1,16.7-.1,25,0,8.7,0,17.3,0,26,0,5.9,3,8.7,8.5,8.6,5.4,0,8.4-3.1,8.5-8.7,0-3.8,0-7.6,0-12h-10.7v-12.7c7.8,0,15.4-.1,23,.1.9,0,2.5,2.1,2.5,3.2.2,13.8.1,27.6.1,43.3Z"/>
  <path class="cls-1" d="M215.9,352.5v13.6h-42.6v-90.7h41.5v13.2c-7,0-14.1.3-21.2,0-4.4-.2-5.9,1.1-5.6,5.6.4,5.9,0,11.9,0,18.4h20.5v13.8h-20.4c0,8.4,0,16.3.2,24.2,0,.7,2.4,1.9,3.7,1.9,7.8.2,15.6,0,23.8,0Z"/>
  <path class="cls-1" d="M102.7,353.4v12.8h-40.2c-.1-1.1-.4-2.3-.4-3.6,0-27.3,0-54.6,0-82,0-3.8.9-5.5,5-5.1,3.4.3,6.9,0,11,0v5.8c0,21.5,0,43,0,64.5,0,8.6-.7,7.5,7.4,7.6,5.6,0,11.2,0,17.3,0Z"/>
  <path class="cls-1" d="M400.6,366.4h-14.4v-90.6h14.4v90.6Z"/>
  <path class="cls-1" d="M478.3,275.7h14.3v90.5h-14.3v-90.5Z"/>
</svg>