<?xml version="1.0" encoding="UTF-8"?>
<svg id="Layer_1" xmlns="http://www.w3.org/2000/svg" version="1.1" viewBox="0 0 454.9 360.2">
  <!-- Generator: Adobe Illustrator 29.5.0, SVG Export Plug-In . SVG Version: 2.1.0 Build 137)  -->
  <defs>
    <style>
      .st0 {
        fill: #020617;
      }
    </style>
  </defs>
  <path class="st0" d="M454.9,15c-45.6,29.2-91.3,58.6-132.8,79.3-20.1-28.9-53.4-47.8-91-47.8s-56.2,11.6-76.1,30.4c-15.5-17.2-36.7-42.3-62.1-77,2.2,3.4,29.5,46,51.2,88.8-15.1,19-24.1,43.1-24.1,69.2s.1,5.6.3,8.3h-30.8c-.8-24-20.7-43.4-44.8-43.4S0,143.2,0,167.8s20.2,44.9,44.8,44.9,39.5-15.2,43.8-35.6h33.1c2.9,16.4,9.3,31.6,18.5,44.7-17.1,18.9-35.1,33.4-36.2,34.2,1.1-.7,20.6-13.5,44.8-23.4,11.9,13.2,26.9,23.6,43.9,29.9l-14.4,34.1c-22.7-8.8-48.7,2.2-58.2,24.8-5.5,12.9-4.5,27.1,1.6,38.8h80.7c.5-1,1-2.1,1.5-3.1,8.4-19.9,1.5-43.1-15.8-55.3l15.2-35.9c8.9,2.3,18.3,3.6,27.9,3.6s26-2.3,37.8-6.6c14.1,15.3,23.5,29.3,24.4,30.6-6.1-10.1-12.4-21.4-17.8-33.2,39.2-17.2,66.7-56.5,66.7-102.2s-3.4-31.3-9.5-45.1c55.8-50,118.6-95.1,122.4-97.8ZM46.6,168l-1.8-.2h1.8v.2ZM161.9,339.2l.7-1.7h.2c0,0-.9,1.7-.9,1.7ZM231,55.4c34.1,0,64.4,16.9,83,42.8-54.3,25.9-100.9,35.6-129.8,8.6,0,0-8.3-7.2-23.4-23.3,18.3-17.4,43-28.1,70.2-28.1ZM146.1,215c-10.9-16.3-17.3-35.9-17.3-57s7.3-43.4,19.6-60.4c13.1,26.8,23.3,52.5,22.8,67.6-.3,15.6-11.8,33.8-25.2,49.7ZM231,260.6c-28.8,0-54.8-12-73.4-31.3,14.4-5.2,29.8-8.8,43.7-8.1,21.9,1.2,43.8,17.6,60.7,34.5-9.8,3.1-20.2,4.8-31,4.8ZM333.2,158c0,42-25.3,78.2-61.4,94-11.4-27.8-16.4-57-1.1-76.1,14.4-18,33.9-37.6,54.8-56.7,4.9,12,7.6,25.1,7.6,38.9Z"/>
</svg>