<?xml version="1.0" encoding="UTF-8"?>
<svg xmlns="http://www.w3.org/2000/svg" xmlns:xlink="http://www.w3.org/1999/xlink" version="1.1" viewBox="0 0 2380.2 1035.2">
  <defs>
    <style>
      .cls-1 {
        fill: none;
      }

      .cls-2 {
        fill: blue;
      }

      .cls-3 {
        fill: #03d;
        fill-rule: evenodd;
      }

      .cls-4 {
        clip-path: url(#clippath);
      }
    </style>
    <clipPath id="clippath">
      <rect class="cls-1" x="62" y="269.7" width="923.1" height="470.2"/>
    </clipPath>
  </defs>
  <!-- Generator: Adobe Illustrator 28.6.0, SVG Export Plug-In . SVG Version: 1.2.0 Build 709)  -->
  <g>
    <g id="Layer_1">
      <g>
        <path class="cls-2" d="M1366.9,598.8c0,16-6.3,22.3-18.8,22.3s-18.8-7.7-18.8-22.3v-156.5h-34.8v154.4c0,34.8,20.9,55,53.6,55s53.6-18.8,53.6-55v-154.4h-34.8v156.5ZM1126.9,540.4c16-6.3,23.7-25,23.7-44.5,0-34.8-17.4-55-55-55h-52.2v206.6h57c41,0,55-25,55-59.8,0-25-11.1-39-28.5-47.3M1078.3,470.8h12.5c16,0,23.7,9.7,23.7,29.9,1.4,13.2-8.3,25-21.6,26.4h-14.6s0-56.3,0-56.3ZM1093.6,619.7h-16v-63.3h12.5c20.2,0,29.9,11.1,29.9,31.3-.7,20.9-7,32-26.4,32M1469.9,557.7h45.9v-31.3h-45.9v-53.6h59.8v-31.3h-94.6v206.6h98.1v-32h-63.3v-58.4ZM1220.2,442.3h-36.2v206.6h91.8v-31.3h-55v-175.3h-.7ZM2125.1,649.6h34.8v-207.3h-34.8v207.3ZM2039.6,439.5c-37.6,0-53.6,23.7-53.6,52.2v105.7c0,29.9,17.4,52.2,53.6,52.2,12.5-.7,25-4.9,34.8-12.5l18.8,12.5v-104.3h-58.4v28.5h25v25c0,23.7-18.8,22.3-18.8,22.3h-1.4c-13.9,0-18.8-7.7-18.8-23.7v-104.3c0-16,4.9-23.7,18.8-23.7s18.8,7.7,18.8,23.7v16h34.8v-17.4c2.1-28.5-15.3-52.2-53.6-52.2M1686.2,439.5c-37.6,0-53.6,23.7-53.6,52.2v105.7c0,29.9,17.4,52.2,53.6,52.2s53.6-23.7,53.6-52.2v-105.7c0-28.5-17.4-52.2-53.6-52.2M1705,597.4c0,16-4.9,23.7-18.8,23.7s-18.8-7.7-18.8-23.7v-104.3c0-16,4.9-23.7,18.8-23.7s18.8,7.7,18.8,23.7v104.3ZM2274.7,442.3v123.1l-48.7-123.1h-31.3v206.6h31.3v-123.1l48.7,123.1h31.3v-206.6h-31.3ZM1916.4,649.6h34.8v-207.3h-34.8v207.3ZM1881.7,502.8c0-44.5-20.2-61.9-59.8-61.9h-50.8v206.6h34.8v-83.5h17.4l25,85.6h36.2l-29.9-93.2c13.2-6.3,27.1-20.9,27.1-53.6M1818.4,535.5h-12.5v-64.7h12.5c18.8,0,27.1,6.3,27.1,31.3s-6.3,33.4-27.1,33.4"/>
        <g class="cls-4">
          <path class="cls-3" d="M985,379.6v-7.7l-3.5,1.4,2.1-2.1-.7.7,2.1-2.8s0-.7,0,0c-1.4.7-2.8,1.4-4.2,1.4,0,0,2.8-2.1,4.9-3.5h-2.1v-1.4l2.1-1.4c.7,0,.7-.7.7-1.4l-.7-8.3-.7-3.5c0-.7-.7-1.4-1.4-2.1l-4.2-1.4s-.7,0-.7-.7c0,0,0-.7.7-.7h4.2q.7,0,.7-.7l-.7-3.5c0-2.1-.7-4.2-2.1-5.6l-3.5-5.6-.7-.7c0-.7-.7-.7-1.4-.7h-4.2v-1.4h-4.2v-.7c2.1-.7,4.2-1.4,7-2.1h-.7s-7.7-11.8-7.7-12.5l-6.3-6.3-.7-.7-4.2-2.1c-.7-.7-1.4-.7-2.1,0-2.1.7-3.5,2.1-4.9,3.5,0,0-.7,0-.7-.7.7-1.4,1.4-3.5,1.4-4.9s0-2.1-1.4-2.8l-2.8-2.1-8.3-4.9h-1.4c-.7-.7-1.4-.7-2.1,0-2.1,1.4-4.9,2.8-7.7,4.9h-.7c.7-1.4,2.1-3.5,2.8-4.9,0,0,0-.7-.7,0-2.1,2.1-4.9,4.2-6.3,5.6s-.7,0,0,0l4.2-7.7v-.7h-.7l-4.9-2.1h-.7l-1.4-1.4h-2.1c-3.5,0-4.9,6.3-6.3,9,0,.7-.7,1.4-1.4,2.1-4.2,5.6-8.3,11.1-11.8,16.7h-.7l-.7-.7,11.8-27.8v-2.1c0-.7-.7-1.4-1.4-1.4h-5.6l-2.1-.7h-.7c-13.9,19.5-23.7,40.3-29.2,63.3,0,.7-.7,0-.7,0,5.6-34.8,11.8-64,13.2-69.6,0,0,0-.7,0,0v.7c-3.5,9.7-6.3,18.8-8.3,29.2-2.1,8.3,2.8-21.6,4.2-29.9v-1.4c0-.7-.7-.7-.7-.7h-1.4c-.7,0-.7.7-.7.7q-.7,0-1.4.7c-.7,2.1-1.4,4.2-2.8,7v-5.6c0-.7-.7-2.1-1.4-2.8-.7-.7-1.4-1.4-2.8-1.4h-1.4l-.7.7c-2.1,7.7-5.6,22.3-12.5,48.7,0,.7-.7.7-.7.7q-.7,0-.7-.7c2.1-17.4,1.4-34.8-1.4-51.5,0-.7-.7-1.4-1.4-1.4h-5.6q-.7,0-.7.7c-.7,6.3-1.4,18.8-4.9,36.9,0,0,0,.7-.7.7,0,0-.7,0-.7-.7.7-12.5.7-27.8.7-34.8s0-.7-.7-1.4q-.7-.7-1.4-.7l-11.1,2.8c-.7,0-2.1.7-2.1,1.4-7.7,13.9-13.9,41.7-18.8,65.4,0,.7-.7,0-.7,0,2.8-20.9,7-41.7,13.9-61.9q.7-.7,0-1.4t-1.4,0l-4.9,2.8-2.8,2.1c-1.4,1.4-2.8,2.8-4.2,4.9-4.9,13.9-9,27.8-12.5,41.7q0,.7-.7.7-.7,0-.7-.7c1.4-13.9,4.9-27.1,9.7-39.6l-9.7,8.3-14.6,13.9c-1.4,1.4-2.1,2.8-2.8,4.2l-2.8,5.6h-1.4v-2.1c.7-2.1.7-4.2,1.4-6.3v-1.4c.7-1.4,1.4-3.5,2.1-4.9l-1.4.7c-.7,1.4-1.4,2.8-2.1,4.2l.7-2.8-2.1,2.1c-.7,1.4-.7,2.8-1.4,4.2h-.7v-2.1c-1.4,1.4-2.1,2.1-2.8,3.5-.7,2.8-1.4,5.6-2.1,8.3-.7,1.4-1.4,2.8-2.1,4.9v.7c-1.4,6.3-3.5,13.2-4.9,19.5-.7,2.1-1.4,4.9-1.4,7,0,0,0,.7-.7.7v1.4c-.7.7-.7,1.4-1.4,2.1v.7c0,.7-.7.7-.7.7q-.7,0-.7-.7l-2.1-4.2c-.7-1.4-2.1-2.1-3.5-2.8-1.4,0-2.1-.7-2.8-1.4h-1.4c0,1.4-.7,2.8-1.4,4.2l-2.1,3.5-2.1,4.2-.7,1.4v.7-2.1l-4.9,13.9q-.7,0-.7-1.4c0-1.4.7-3.5,1.4-5.6v-.7h-.7c-2.1,1.4-2.8,2.8-3.5,5.6l-.7,2.1h-1.4s0-.7-.7,0v.7q-.7,2.1-1.4,4.9l-1.4,2.1c-.7,1.4-.7,2.8-.7,3.5l-.7,2.8h-.7v-1.4h-.7v.7c-2.8,3.5-4.9,7-7,11.1h-1.4v-.7.7c1.4-5.6,2.8-10.4,3.5-16,.7-1.4,1.4-2.8,1.4-4.2.7-4.2,4.9-16,4.9-16,3.5-11.1,3.5-14.6,2.8-15.3-1.4-.7-4.2,2.8-5.6,5.6-8.3,16-22.3,29.2-44.5,43.8l-1.4.7-13.9,5.6c-18.1,10.4-36.2,19.5-36.9,20.2-6.3,2.8-11.8,7.7-16.7,12.5-.7,1.4-2.1,2.8-2.8,4.9v.7c-2.8,4.9-4.9,10.4-7.7,15.3-1.4,2.1-1.4,4.2-2.8,6.3-1.4,2.1-2.8,6.3-4.2,9.7-3.5,7-7,13.9-9.7,20.9-2.1,4.9-3.5,9.7-4.9,15.3,0,.7-.7,2.1-1.4,2.8-.7,4.2-2.1,8.3-3.5,12.5h-.7c.7-2.1.7-3.5,1.4-5.6,2.1-9,3.5-18.1,5.6-27.1.7-3.5,2.8-7.7,3.5-11.1s.7-6.3,2.1-9.7l1.4-4.2c2.1-3.5,3.5-7.7,5.6-11.1s3.5-4.9,4.9-7.7c.7-2.1,1.4-4.9,2.1-7v-.7h-.7c-1.4.7-2.8,2.1-4.2,3.5-1.4.7-2.8,2.1-4.2,2.8l-1.4.7c-7,4.9-14.6,9.7-22.3,13.9-5.6,2.8-10.4,7-15.3,11.1l-1.4,1.4c-2.8,2.1-5.6,4.9-7.7,7.7-3.5,4.9-7,10.4-9.7,16-1.4,2.1-2.1,4.9-3.5,7,0,.7,0,1.4-.7,2.1-.7,2.1-2.1,4.2-2.1,6.3-.7.7-.7,1.4-1.4,2.1-1.4,4.9-2.8,9.7-4.2,15.3-2.1,11.1-4.2,21.6-7,32.7-1.4,5.6-3.5,11.1-4.9,16.7s-2.1,5.6-3.5,8.3-1.4,2.8-1.4,4.2c-2.1,4.2-4.2,7.7-7,11.8-.7,1.4-2.1,2.1-2.8,3.5-.7.7-2.1,1.4-2.1,2.1,0,0-.7,0-.7-.7.7-3.5,3.5-7,4.2-10.4,1.4-6.3,3.5-12.5,4.2-18.8,1.4-9,.7-18.8,1.4-27.8.7-16,2.1-32,4.9-48,1.4-7,3.5-13.2,7-19.5,1.4-2.1,1.4-4.2,2.8-6.3s2.8-5.6,4.2-8.3l.7-.7v-2.8s-.7-1.4-1.4-1.4c-.7.7-.7,1.4-1.4,1.4h-.7s-3.5,4.2-4.2,4.9l-.7.7v.7c-1.4,1.4-2.8,2.1-3.5,3.5-.7,1.4-2.8,4.9-4.2,7h-.7v-1.4c0-.7,0-2.1.7-2.8h-.7v.7l-1.4,1.4c-2.1,1.4-4.9,7-5.6,8.3-.7.7-1.4,2.1-2.8,2.8l-2.1,5.6-.7.7v-.7l3.5-7.7v-.7h-.7c-7,2.1-13.9,5.6-20.2,9.7,0,0-.7,0,0-.7s1.4-2.1,2.1-2.8c-1.4.7-2.8,1.4-4.2,2.8l-8.3,5.6h-1.4c-.7,1.4-2.1,2.1-2.8,3.5-.7.7-1.4,1.4-2.1,1.4-.7.7-1.4.7-2.1,1.4l-8.3,9c-3.5,4.2-7,8.3-9.7,13.2-1.4,2.1-2.1,4.2-2.8,6.3l-.7,1.4c0,.7-.7.7-.7.7h-.7s-.7-.7,0-.7v-2.8c.7-4.2,2.8-7.7,5.6-11.1l.7-1.4,1.4-2.1v-.7h-2.1c-.7,0-1.4,0-2.1.7l-3.5,2.1c-1.4.7-2.8,1.4-3.5,2.8-1.4,2.1-2.8,4.2-4.2,6.3s-1.4,4.9-2.8,7c-.7.7-1.4.7-1.4,1.4-.7.7-1.4,2.8-2.1,3.5-.7,1.4-2.1,2.1-2.8,2.8-.7,1.4-1.4,4.2-2.8,5.6-4.2,7.7-6.3,16-7,24.3v4.2c0,1.4-.7,3.5-.7,4.9v41q0,.7-.7.7-.7,0-.7-.7c0-4.2-1.4-9-2.1-13.2-.7-2.8-1.4-4.9-2.1-8.3-.7-5.6-2.1-11.1-2.8-16.7-.7-3.5-1.4-6.3-1.4-9.7,0-13.2.7-27.1,2.1-40.3v-7l-.7-3.5v-11.1h-.7c-.7,1.4-1.4,3.5-1.4,4.9-.7,2.1,0,3.5,0,3.5l-.7.7v-1.4h-.7c-.7,1.4-1.4,2.1-2.1,3.5v.7c0,.7-.7.7-1.4,1.4s-1.4,2.1-2.1,3.5l-.7.7c-.7.7-.7,1.4-1.4,2.1h-.7v-.7c.7-1.4.7-2.1,1.4-3.5,0-2.1.7-4.2,1.4-6.3v-2.8c-2.1,2.8-3.5,6.3-4.9,9.7-.7,1.4-1.4,2.1-2.1,3.5-.7,2.1-.7,4.2-1.4,5.6-.7,1.4-2.1,2.1-2.8,2.8-.7,1.4-2.8,4.2-3.5,5.6-4.9,8.3-7.7,17.4-9,26.4-.7,3.5-.7,7-.7,10.4v3.5c0-.7-.7-1.4-.7-2.1-.7-2.1-1.4-4.2-2.1-7-1.4-7-2.8-13.2-3.5-19.5,0-.7-.7-1.4-1.4-2.1-.7-1.4-.7-2.8-.7-4.2,0,0,0-.7-.7-.7h-.7c0,.7,0,1.4-.7,2.1h-2.1c-.7,1.4-1.4,2.8-1.4,4.2v2.1c0,.7,0,2.1-.7,2.8h-1.4c0,.7-.7.7-.7,1.4-.7-1.4-.7-2.8-1.4-4.2,0,0,0-.7-.7-.7,0,0-.7,0-.7.7v16.7c0,9,.7,18.1.7,27.1s1.4,11.8,2.1,17.4c.7,6.3,1.4,9,1.4,13.9s0,3.5.7,5.6c-.7-2.1-1.4-4.2-2.1-6.3l-4.9-13.9c-1.4-2.1-2.1-4.9-2.8-7.7-.7-2.1-2.1-4.2-2.1-5.6l-1.4-2.8c-1.4-2.8-2.1-4.9-2.8-7.7l-2.1-4.2c-.7-4.9-4.2-8.3-4.9-13.2-.7-2.8-2.1-4.9-3.5-7.7s-2.8-5.6-4.2-8.3c-.7-.7-.7-2.1-2.1-3.5l-1.4-.7c0-.7-.7-.7-.7-.7-.7,0-.7.7-.7.7v15.3s0,.7-.7.7c0,0-.7,0-.7-.7l-.7-1.4h-1.4c-.7,2.8-.7,4.9-.7,7.7-.7,2.1-.7,4.2-1.4,5.6,0,4.2.7,8.3,2.1,12.5,0,1.4.7,2.8,1.4,3.5.7,4.2,2.8,9,3.5,13.2l1.4,4.2c.7,2.8,2.1,4.9,2.8,7.7s2.1,4.2,2.1,6.3c.7,2.1,1.4,3.5,2.1,4.9,0,2.1,1.4,3.5,2.1,4.9.7,2.8,2.1,5.6,2.8,8.3v.7h-.7c-1.4.7-2.8-2.1-4.2-3.5-3.5-3.5-7-7.7-11.1-11.1-4.2-4.2-8.3-7.7-12.5-10.4l-4.9-2.1h-.7c-1.4-.7-2.8-2.1-4.2-3.5l-2.8-.7c-2.1-1.4-4.2-3.5-6.3-4.2h-2.1c-.7,0-3.5-1.4-4.9-1.4h-1.4q-.7,0-.7.7v.7c0,2.8,2.1,2.8,3.5,4.2,2.1,1.4.7,1.4,1.4,1.4,0,0-.7,0-.7.7v.7c4.2,5.6,9.7,9,13.9,13.9,2.1,2.1,3.5,4.2,4.9,6.3l2.8,5.6,2.8,4.2c.7,1.4,0,2.1,0,2.8s.7,1.4,1.4,2.1c-2.1.7-4.2.7-5.6,1.4-2.8.7-6.3,2.1-9,2.1-5.6.7-10.4,2.8-16,4.2-3.5.7-5.6,2.1-9,2.8-10.4,2.1-21.6,5.6-32,7.7-1.4,0-2.1.7-4.2,1.4-6.3,1.4-12.5,3.5-18.8,4.9-6.3.7-11.8,2.8-17.4,4.2-14.6,2.1-28.5,7-43.1,9.7-1.4,0-2.1.7-2.8.7-5.6.7-11.1,2.8-16.7,3.5l-4.9,1.4c-8.3,1.4-18.1,5.6-26.4,7-3.5.7-7,2.1-9.7,2.8l-4.2,1.4c-5.6,1.4-7.7,4.2-7.7,8.3,1.4,8.3,9,5.6,13.9,4.9,9-.7,18.8-2.8,27.8-4.2,4.9-.7,8.3-2.1,13.2-2.8,12.5-2.1,25-5.6,37.6-7.7,4.9-.7,9-2.8,13.9-3.5l4.2-1.4c4.9-.7,10.4-2.8,15.3-3.5l6.3-1.4c7-1.4,13.9-3.5,20.9-4.9l7-2.1c7.7-1.4,15.3-4.2,23.7-5.6l8.3-2.1c11.1-2.1,22.3-7,33.4-8.3,5.6-2.1,10.4-2.8,16-4.2.7,0,1.4.7,1.4.7v.7h1.4s.7,2.8,1.4,2.8v-3.5h1.4c.7,1.4,1.4,2.8,2.1,4.2,0,.7.7.7.7,1.4,0-2.1,0-4.2-.7-6.3,0,0,0-.7.7-.7h.7c0,.7.7.7.7,1.4l1.4,4.2c.7,2.8,1.4,6.3,1.4,9,.7,2.8,1.4,1.4,1.4,3.5v8.3l.7-.7h.7v.7c0,1.4.7,3.5,0,5.6h.7c.7-.7.7-2.1,1.4-2.8.7,2.1.7,3.5.7,5.6,0,0,0,.7.7,0s1.4-2.1,1.4-2.8c0,.7.7.7.7.7.7,0,1.4-2.8,2.1-3.5h.7c1.4-2.8,2.1-6.3,2.8-9v-3.5c0-.7.7-1.4.7-2.1s.7-2.1,1.4-2.8c.7-5.6,1.4-11.1,0-16.7v-.7h.7c.7,1.4,1.4,2.8,2.1,4.2,2.1,3.5,3.5,7,6.3,9.7,3.5,4.9,7,9.7,10.4,13.9,1.4,1.4,2.1,3.5,3.5,5.6l1.4,2.8c2.8,3.5,4.2,8.3,7,12.5l2.1,3.5c1.4,2.1,3.5,4.2,4.9,5.6h1.4v-1.4c.7.7,1.4,2.1,2.1,2.8,1.4.7,2.1,2.1,3.5,2.1,0,.7.7.7,1.4.7s.7-.7.7-1.4c-1.4-3.5-2.8-6.3-4.2-9.7,0-.7-.7-1.4-.7-1.4-.7-1.4-1.4-3.5-1.4-4.9-.7-2.8-3.5-5.6-4.2-7.7-.7-4.2-2.1-7.7-4.2-11.1-.7-.7-.7-2.1-1.4-3.5-.7-.7,0-.7,0,0s1.4,1.4,2.1,1.4,2.1.7,2.8.7h.7v-.7c-1.4-.7-2.1-1.4-3.5-2.1-.7-.7-3.5-2.8-4.2-4.2,0-.7-.7-1.4-.7-2.1l-.7-1.4,1.4,1.4c4.2,3.5,8.3,6.3,12.5,9,1.4.7,6.3,4.2,7.7,2.1.7.7,2.8.7,3.5,0,.7.7,2.1.7,2.8.7q1.4.7,2.1,1.4h.7c.7,0,1.4,0,1.4-.7s0-1.4-.7-1.4c-2.1-1.4-4.9-2.1-7-3.5-.7,0-.7-.7-.7-.7l-.7-.7s0-.7.7-.7h1.4c2.1.7,3.5,1.4,4.9,2.8,3.5,2.1,6.3,2.8,10.4,3.5,4.2,0,8.3-.7,12.5-2.1.7,0,1.4-.7,2.1-.7,1.4-.7,2.8-1.4,4.2-2.1,1.4,0,.7-2.1-.7-1.4-4.9,0-9.7-1.4-13.9-4.2l-2.1-1.4-4.2-4.9-7-7c-2.1-2.8-4.9-6.3-7-9.7-.7-1.4-1.4-2.1-2.1-3.5h.7c3.5,4.2,7,8.3,11.1,12.5l2.1,2.1,7,6.3c16.7,11.8,49.4,5.6,49.4,5.6,0,0,13.2-2.1,13.9-2.1h2.1c.7,0,.7-.7.7-.7q0-.7-.7-.7l-1.4-.7c-2.8-.7-4.9-1.4-7-2.1l-3.5-1.4c-9-4.2-17.4-9-25-16-3.5-2.8-6.3-7-9.7-10.4l-1.4-1.4s0-.7.7-.7l8.3,8.3c9,9.7,20.2,16,33.4,20.2,2.1.7,7,2.1,11.1,3.5,2.1.7,3.5.7,5.6,0h5.6l2.8-.7h.7v-.7c.7-1.4,2.1-2.1,3.5-2.1,2.8-.7,6.3-.7,9.7-.7h2.1c.7,0,.7-.7,0-.7h12.5c.7,0,1.4-.7,1.4-.7h.7v-1.4c-1.4,0-2.8,0-4.2-.7h-3.5c-3.5-.7-6.3-1.4-9.7-2.1-5.6-1.4-11.1-2.8-16-4.9l-4.2-1.4c-2.1-1.4-4.2-2.1-6.3-3.5-4.2-2.1-7.7-4.9-11.1-7.7l-.7-.7v-1.4h1.4l4.9,3.5c7.7,4.2,16,7,25,8.3,4.2,1.4,8.3,2.1,12.5,3.5,3.5.7,7,.7,9.7,0,1.4,0,3.5-.7,4.9-.7s1.4,0,2.1-.7h.7v-1.4c2.1-.7,4.9-1.4,7-2.1,1.4-1.4,2.8-2.8,4.9-3.5,1.4,0,2.8-.7,4.2-1.4h2.1l3.5-1.4v-1.4l-3.5-1.4h-.7l-1.4.7c-4.2,0-8.3,0-12.5-2.1l-2.8-.7-2.1-.7-7.7-4.2c-4.2-2.1-7.7-4.2-9.7-4.9v-1.4h.7c9,4.2,18.1,7.7,28.5,9l11.1,2.8s8.3,1.4,19.5,4.9c7.7,2.1,14.6,4.9,21.6,7.7,1.4.7,3.5,1.4,4.9,1.4l2.8.7v-.7c-1.4-.7-2.8-1.4-3.5-2.1q-.7-.7-1.4-1.4c-.7,0-.7-.7-.7-.7,0,0-1.4,0-1.4-.7l-.7-.7-.7-.7-1.4-.7-2.1-1.4h.7c.7.7,2.1.7,2.8,1.4,2.1.7,4.2,1.4,6.3,2.1h2.1c-1.4-.7-2.8-.7-3.5-1.4-.7,0-1.4-.7-2.1-1.4l-7-2.8c-11.1-4.2-23-9-33.4-14.6-9-6.3-17.4-13.2-25-20.9l-2.1-1.4-.7-.7q0-.7.7-1.4l.7-.7q.7,0,1.4.7c8.3,5.6,16,11.8,24.3,16.7,3.5,2.1,7,2.8,9.7,4.2,7.7,3.5,14.6,5.6,23,7.7,1.4,0,2.8.7,4.9.7s2.1-.7,2.8,0h.7l4.9-2.8,5.6-3.5,1.4-1.4-.7-.7c2.8,0,4.9-.7,7-2.1v-.7l-.7-.7c-2.1,0-3.5,0-5.6-.7-1.4,0-2.8-.7-4.2-1.4l-4.2-1.4c-10.4-3.5-20.2-8.3-29.2-15.3-2.1-1.4-3.5-2.8-4.9-4.2v-.7h.7c2.1,1.4,4.2,2.8,6.3,4.2,5.6,3.5,11.1,5.6,16.7,9,1.4.7,4.2,1.4,5.6,2.1l1.4.7c4.2,1.4,9,2.8,13.2,2.8s9,0,13.9-1.4c2.8-2.1,6.3-3.5,9.7-4.2,2.8-.7,4.9-1.4,7.7-1.4l2.8-2.8h11.1l-.7-.7c0-.7-.7-.7,0-1.4,0-.7.7-.7.7-1.4l1.4-1.4h.7c.7,0,1.4-.7,2.1-.7,2.1,0,7-2.1,9-2.1s11.8-4.9,13.2-4.9c2.8-.7,4.9-1.4,7.7-2.1l2.1-.7c1.4,0,2.8-.7,4.2-1.4.7,0,.7-.7.7-.7v-1.4l-.7-.7h-2.8v-.7c1.4-.7,3.5-1.4,4.9-1.4s2.8-2.1,4.2-2.1l2.1-.7h-1.4l2.1-1.4,5.6-2.1,7-3.5,5.6-3.5,10.4-7.7,2.8-2.1,11.8-9c.7,0,.7-.7,1.4-.7,3.5-2.1,7-2.8,10.4-3.5.7,0,1.4-.7,1.4-.7h5.6l2.8.7h5.6c1.4,0,2.1-.7,3.5-.7s.7-.7,1.4-.7l.7-.7,2.8-2.8,2.1-4.2.7-.7c.7-.7,1.4-.7,1.4-1.4l.7-.7c.7-.7,1.4-.7,2.8-.7s1.4.7,2.1,1.4.7,0,.7-.7c-.7-.7-1.4-2.1-2.8-2.1-.7-.7-2.1-.7-3.5-.7h-7.7v-.7q0-.7.7-.7h1.4l3.5-.7c4.2-.7,7.7-2.1,10.4-4.9l.7-.7,6.3-7,4.9-6.3q0-.7.7-.7c2.1-2.1,4.2-4.2,6.3-7,1.4-.7,2.8-1.4,3.5-1.4s1.4-.7,1.4-1.4h.7-.7c2.1-2.1,4.2-3.5,6.3-4.9l2.1-1.4c.7,0,.7-.7,1.4-.7,2.1-1.4,4.9-2.8,7-4.2l1.4-.7c.7-.7,1.4-.7,2.1-.7,3.5-.7,7-.7,10.4,0l5.6,1.4h.7c1.4.7,2.8,1.4,4.2,1.4h4.2c1.4-.7-1.4-2.1-2.1-2.1l-2.8-1.4-8.3-3.5s-.7-.7-.7-1.4v-1.4c0-.7.7-.7.7-.7,0,0,.7-.7,1.4-.7,2.1-.7,4.2-.7,6.3-1.4.7,0,.7-.7.7-.7v-1.4c0-.7-.7-.7-1.4-.7h1.4s-1.4,0-1.4-.7.7-1.4.7-1.4h.7l2.1-.7h.7c4.2-1.4,8.3-2.8,11.8-4.9l9.7-7,1.4-1.4,1.4-1.4,43.1-31.3,1.4-.7s.7,0,.7-.7v-.7h-2.1s-.7,0-.7-.7v-.7c.7-.7,1.4-1.4,2.1-1.4l7-4.9,7-3.5,2.1-1.4h.7l3.5-2.1,7-4.9h.7l4.2-3.5.7-.7v-.7h-.7s1.4-.7.7-.7c0,0-.7,0-.7-.7,0,0,0-.7.7-.7l2.1-.7h.7l2.1-.7h-2.1c2.8-.7,4.9-2.1,7-3.5v-.7c2.1-1.4,3.5-3.5,5.6-5.6l1.4-2.8v-1.4h-2.8,1.4c1.4-.7,3.5-1.4,4.2-2.8,0,0,2.1-2.8,0-2.8h-2.1c1.4-.7,2.1-1.4,2.8-2.1q-.7,0-1.4.7c1.4-1.4,2.1-2.8,3.5-4.2v-.7h-1.4c0-.7.7-1.4,1.4-2.1h-.7l.7-.7c.7-1.4,1.4-2.1,3.5-2.8,2.1,0,3.5-.7,4.9-2.1l.7-.7v-.7c.7-1.4,1.4-2.8,1.4-4.2,0,2.8-.7,1.4-1.4,0"/>
        </g>
      </g>
    </g>
  </g>
</svg>