<?xml version="1.0" encoding="UTF-8"?>
<svg id="Layer_1" xmlns="http://www.w3.org/2000/svg" version="1.1" viewBox="0 0 529.3 442.6">
  <defs>
    <style>
      .st0 {
        fill: #fff;
      }
    </style>
  </defs>
  <path class="st0" d="M529.3,43.9c-54.2,29.8-107.7,60.2-156.6,80.6-20.7-34.3-57.3-58.3-100.2-61.1-33.6-2.2-65,8.9-89,28.8-16.4-20.7-38.7-50.9-65.1-92.2,1.5,2.6,29.9,53.9,51.8,104.9-18.6,20.5-30.6,47.1-32.6,76.8s-.3,6.3-.3,9.5l-35.1-2.3c.9-27.3-20.3-50.9-47.7-52.7C26.5,134.4,2,155.9.1,183.9s19.7,52.6,47.6,54.4c24.2,1.6,46.1-14.2,52.6-37.2l37.7,2.5c2,18.9,8.2,36.6,17.7,52.2-20.9,20.2-43.1,35.3-44.3,36.2,1.3-.7,25-13.9,53.3-23.3,12.6,15.9,28.9,28.8,47.8,37.2l-19,37.6c-25.2-11.6-55.6-1.2-68.2,23.8-12.8,25.4-2.5,57,23,69.8,25.5,12.8,57,2.5,69.8-23,11.1-22,5-48.8-13.9-64l20-39.7h0c10,3.3,20.6,5.4,31.5,6.1,15.1,1,29.8-.7,43.5-4.7,14.9,18.4,24.6,35,25.5,36.6-6.2-11.9-12.5-25.3-17.8-39.1,46-16.6,80.2-59.2,83.6-111,1.2-18.2-1.5-35.8-7.5-52,67.9-53.1,142.8-100.4,146.1-102.4h.2ZM271.8,73.5c38.9,2.6,72.2,24,91.4,54.9-63.8,25.3-117.6,32.8-148.5,0,0,0-9-8.8-24.9-28.3,22.2-18.4,51.1-28.6,82-26.6ZM163.1,248.3c-11.2-19.3-17-42.1-15.4-66,1.7-25.6,11.6-48.8,26.9-67.1,12.9,31.4,22.6,61.4,21,78.5-1.5,17.7-15.9,37.4-32.4,54.6h0ZM256.4,306.4c-32.8-2.2-61.5-17.8-81.3-41.1,16.8-4.8,34.6-7.7,50.4-5.9,24.8,3,48.5,23.3,66.5,43.8-11.4,2.8-23.4,3.9-35.7,3.1h.1ZM380.5,197.6c-3.2,47.7-34.7,86.9-77,102.1-10.9-32.5-14.4-65.9,4.5-86.5,17.8-19.4,41.5-40.2,66.7-60.3,4.7,14,6.8,29.1,5.8,44.7h0Z"/>
</svg>