<?xml version="1.0" encoding="UTF-8"?>
<svg xmlns="http://www.w3.org/2000/svg" xmlns:xlink="http://www.w3.org/1999/xlink" version="1.1" viewBox="0 0 147.5 64.1">
  <defs>
    <style>
      .cls-1 {
        mask: url(#mask);
      }

      .cls-2 {
        fill: #6d3581;
      }

      .cls-3 {
        fill: #cd4165;
      }

      .cls-4 {
        fill: #fff;
      }

      .cls-5 {
        fill: #e5744f;
      }

      .cls-6 {
        fill: #ffe26f;
      }

      .cls-7 {
        fill: #090d21;
      }
    </style>
    <mask id="mask" x="95.4" y="7" width="44.9" height="44.6" maskUnits="userSpaceOnUse">
      <g id="mask0_1715_481">
        <path class="cls-4" d="M140.3,7h-44.9v44.6h44.9V7Z"/>
      </g>
    </mask>
  </defs>
  <!-- Generator: Adobe Illustrator 28.6.0, SVG Export Plug-In . SVG Version: 1.2.0 Build 709)  -->
  <g>
    <g id="Layer_1">
      <g>
        <g class="cls-1">
          <g>
            <path class="cls-6" d="M96.9,18.8c-.5,1-1,2-1.5,3,8.3-3,17.9-1.2,24.5,5.4,6.6,6.6,8.4,16.1,5.4,24.4,1.1-.4,2.1-.9,3.1-1.4,4.7-8.8,3.3-19.9-4.1-27.2-7.4-7.4-18.6-8.7-27.4-4.1Z"/>
            <path class="cls-5" d="M130.4,48.9c5.8-9,4.8-21.1-3.1-29-7.9-7.9-20.1-8.9-29.1-3.1-.5.6-.9,1.3-1.3,2,8.8-4.6,20-3.3,27.4,4.1,7.4,7.4,8.8,18.5,4.1,27.2.7-.4,1.4-.8,2-1.2Z"/>
            <path class="cls-3" d="M132.5,47.3c6.9-9.1,6.2-22.1-2.1-30.4-8.3-8.3-21.4-9-30.5-2.1-.6.7-1.1,1.3-1.6,2,9-5.8,21.2-4.8,29.1,3.1,7.9,7.9,8.9,20,3.1,29,.7-.5,1.4-1.1,2.1-1.6Z"/>
            <path class="cls-2" d="M140.2,30.2c0-5.9-2.3-11.8-6.8-16.3-4.5-4.5-10.5-6.8-16.4-6.8-6.8,0-12.9,3-17.1,7.7,9.1-6.8,22.2-6.1,30.5,2.1,8.3,8.3,9,21.3,2.1,30.4,4.7-4.2,7.7-10.3,7.7-17.1Z"/>
          </g>
        </g>
        <path class="cls-7" d="M12.3,37.1v15.1h6.1v4.3H7.3v-19.4h5.1ZM25.3,43.3v7.4c0,1.6.8,2.4,2.4,2.4s2.4-.8,2.4-2.4v-7.4h4.7v8.3c0,1.8-.6,3.1-1.8,4-1.2.9-2.9,1.3-5.3,1.3s-4.1-.4-5.3-1.3c-1.2-.9-1.8-2.2-1.8-4v-8.3h4.7ZM37.9,43.3h4.7v1.7c.6-.8,1.3-1.3,1.9-1.5.7-.3,1.4-.4,2.3-.4s1.7.2,2.4.5c.7.3,1.2.7,1.7,1.3.4.4.6.9.8,1.5.1.5.2,1.2.2,1.9v8.4h-4.7v-6.7c0-.7,0-1.2-.2-1.6,0-.4-.3-.7-.5-1-.2-.2-.4-.4-.7-.4-.3,0-.5-.1-.8-.1-.8,0-1.4.2-1.8.7-.4.5-.6,1.1-.6,2v7.1h-4.7v-13.2ZM66.2,49.3l-2.3-6.5-2.3,6.5h4.6ZM67.5,53.1h-7.2l-1.2,3.4h-5.4l7.4-19.4h5.5l7.4,19.4h-5.4l-1.2-3.4ZM81.4,45.8h1c1,0,1.8-.2,2.3-.6.5-.4.8-1,.8-1.8s-.3-1.4-.8-1.8c-.5-.4-1.3-.6-2.3-.6h-1v4.8ZM92.5,56.5h-6.3l-4.8-7.5v7.5h-5.1v-19.4h7.9c1.1,0,2,.2,2.8.5.8.3,1.5.7,2,1.3.5.5.9,1.2,1.2,1.9.3.7.4,1.5.4,2.3,0,1.5-.4,2.7-1.1,3.6-.7.9-1.8,1.5-3.2,1.9l6.1,8ZM108.3,43.6c-1.2-1.4-2.6-2.1-4.3-2.1s-1.5.1-2.1.4c-.6.3-1.2.7-1.7,1.1-.5.5-.8,1-1.1,1.7-.3.7-.4,1.4-.4,2.1s.1,1.5.4,2.1c.3.7.6,1.2,1.1,1.7.5.5,1,.9,1.7,1.1.6.3,1.3.4,2.1.4,1.6,0,3.1-.7,4.4-2.1v6l-.5.2c-.8.3-1.5.5-2.2.6-.7.1-1.3.2-2,.2-1.3,0-2.6-.2-3.9-.7-1.2-.5-2.3-1.2-3.3-2.1-.9-.9-1.7-2-2.3-3.3-.6-1.3-.9-2.7-.9-4.1s.3-2.9.8-4.1c.6-1.3,1.3-2.3,2.3-3.2.9-.9,2-1.6,3.3-2.1,1.2-.5,2.5-.8,3.9-.8s1.5,0,2.3.3c.8.2,1.6.4,2.4.7v6Z"/>
      </g>
    </g>
  </g>
</svg>