<?xml version="1.0" encoding="UTF-8"?>
<svg xmlns="http://www.w3.org/2000/svg" xmlns:xlink="http://www.w3.org/1999/xlink" version="1.1" viewBox="0 0 620.5 541">
  <defs>
    <style>
      .cls-1 {
        fill: url(#linear-gradient-8);
      }

      .cls-2 {
        fill: url(#linear-gradient-7);
      }

      .cls-3 {
        fill: url(#linear-gradient-5);
      }

      .cls-4 {
        fill: url(#linear-gradient-6);
      }

      .cls-5 {
        fill: url(#linear-gradient-9);
      }

      .cls-6 {
        fill: url(#linear-gradient-4);
      }

      .cls-7 {
        fill: url(#linear-gradient-3);
      }

      .cls-8 {
        fill: url(#linear-gradient-2);
      }

      .cls-9 {
        fill: url(#linear-gradient);
      }

      .cls-10 {
        fill: url(#linear-gradient-10);
      }

      .cls-11 {
        fill: url(#linear-gradient-11);
      }

      .cls-12 {
        fill: url(#linear-gradient-12);
      }

      .cls-13 {
        fill: url(#linear-gradient-13);
      }

      .cls-14 {
        fill: url(#linear-gradient-19);
      }

      .cls-15 {
        fill: url(#linear-gradient-14);
      }

      .cls-16 {
        fill: url(#linear-gradient-21);
      }

      .cls-17 {
        fill: url(#linear-gradient-20);
      }

      .cls-18 {
        fill: url(#linear-gradient-22);
      }

      .cls-19 {
        fill: url(#linear-gradient-23);
      }

      .cls-20 {
        fill: url(#linear-gradient-28);
      }

      .cls-21 {
        fill: url(#linear-gradient-25);
      }

      .cls-22 {
        fill: url(#linear-gradient-15);
      }

      .cls-23 {
        fill: url(#linear-gradient-16);
      }

      .cls-24 {
        fill: url(#linear-gradient-17);
      }

      .cls-25 {
        fill: url(#linear-gradient-18);
      }

      .cls-26 {
        fill: url(#linear-gradient-27);
      }

      .cls-27 {
        fill: url(#linear-gradient-24);
      }

      .cls-28 {
        fill: url(#linear-gradient-26);
      }

      .cls-29 {
        fill: url(#linear-gradient-29);
      }
    </style>
    <linearGradient id="linear-gradient" x1="581.9" y1="410.2" x2="118.4" y2="410.2" gradientUnits="userSpaceOnUse">
      <stop offset="0" stop-color="#81b2db"/>
      <stop offset="1" stop-color="#301c71"/>
    </linearGradient>
    <linearGradient id="linear-gradient-2" y1="410.2" x2="118.4" y2="410.2" xlink:href="#linear-gradient"/>
    <linearGradient id="linear-gradient-3" y1="410.2" y2="410.2" xlink:href="#linear-gradient"/>
    <linearGradient id="linear-gradient-4" y1="411" x2="118.4" y2="411" xlink:href="#linear-gradient"/>
    <linearGradient id="linear-gradient-5" y1="410.2" x2="118.4" y2="410.2" xlink:href="#linear-gradient"/>
    <linearGradient id="linear-gradient-6" y1="410.2" y2="410.2" xlink:href="#linear-gradient"/>
    <linearGradient id="linear-gradient-7" y1="410.4" x2="118.4" y2="410.4" xlink:href="#linear-gradient"/>
    <linearGradient id="linear-gradient-8" y1="410.4" y2="410.4" xlink:href="#linear-gradient"/>
    <linearGradient id="linear-gradient-9" y1="410.2" y2="410.2" xlink:href="#linear-gradient"/>
    <linearGradient id="linear-gradient-10" x1="581.9" y1="493.7" x2="118.4" y2="493.7" xlink:href="#linear-gradient"/>
    <linearGradient id="linear-gradient-11" x1="581.9" y1="494.3" x2="118.4" y2="494.3" xlink:href="#linear-gradient"/>
    <linearGradient id="linear-gradient-12" x1="581.9" y1="493.7" x2="118.4" y2="493.7" xlink:href="#linear-gradient"/>
    <linearGradient id="linear-gradient-13" x1="581.9" y1="493.7" x2="118.4" y2="493.7" xlink:href="#linear-gradient"/>
    <linearGradient id="linear-gradient-14" x1="581.9" y1="493.7" x2="118.4" y2="493.7" xlink:href="#linear-gradient"/>
    <linearGradient id="linear-gradient-15" x1="581.9" y1="493.7" x2="118.4" y2="493.7" xlink:href="#linear-gradient"/>
    <linearGradient id="linear-gradient-16" x1="581.9" y1="493.7" x2="118.4" y2="493.7" xlink:href="#linear-gradient"/>
    <linearGradient id="linear-gradient-17" x1="581.9" y1="493.7" x2="118.4" y2="493.7" xlink:href="#linear-gradient"/>
    <linearGradient id="linear-gradient-18" x1="581.9" y1="493.7" x2="118.4" y2="493.7" xlink:href="#linear-gradient"/>
    <linearGradient id="linear-gradient-19" x1="581.9" y1="493.7" x2="118.4" y2="493.7" xlink:href="#linear-gradient"/>
    <linearGradient id="linear-gradient-20" x1="581.9" y1="249.2" x2="118.4" y2="249.2" xlink:href="#linear-gradient"/>
    <linearGradient id="linear-gradient-21" x1="581.9" y1="277.1" x2="118.4" y2="277.1" xlink:href="#linear-gradient"/>
    <linearGradient id="linear-gradient-22" x1="581.9" y1="307.8" x2="118.4" y2="307.8" xlink:href="#linear-gradient"/>
    <linearGradient id="linear-gradient-23" x1="581.9" y1="169.2" x2="118.4" y2="169.2" xlink:href="#linear-gradient"/>
    <linearGradient id="linear-gradient-24" x1="581.9" y1="103.8" x2="118.4" y2="103.8" xlink:href="#linear-gradient"/>
    <linearGradient id="linear-gradient-25" x1="581.9" y1="6.1" x2="118.4" y2="6.1" xlink:href="#linear-gradient"/>
    <linearGradient id="linear-gradient-26" x1="581.9" y1="138.4" x2="118.4" y2="138.4" xlink:href="#linear-gradient"/>
    <linearGradient id="linear-gradient-27" x1="581.9" y1="147.3" x2="118.4" y2="147.3" xlink:href="#linear-gradient"/>
    <linearGradient id="linear-gradient-28" x1="581.9" y1="164.6" x2="118.4" y2="164.6" xlink:href="#linear-gradient"/>
    <linearGradient id="linear-gradient-29" x1="581.9" y1="140.5" x2="118.4" y2="140.5" xlink:href="#linear-gradient"/>
  </defs>
  <!-- Generator: Adobe Illustrator 28.7.1, SVG Export Plug-In . SVG Version: 1.2.0 Build 142)  -->
  <g>
    <g id="Layer_1">
      <g>
        <g>
          <polygon class="cls-9" points="157.6 431.1 186.5 431.1 186.5 438 149.8 438 149.8 382.5 185.4 382.5 185.4 389.4 157.6 389.4 157.6 405.9 183.7 405.9 183.7 412.6 157.6 412.6 157.6 431.1"/>
          <polygon class="cls-8" points="217.9 382.5 207.8 382.5 207.8 438 215.6 438 215.6 392.7 215.7 392.7 245 438 254.8 438 254.8 382.5 247 382.5 247 426.8 246.9 426.8 217.9 382.5"/>
          <polygon class="cls-7" points="327.6 382.5 319.9 382.5 319.9 438 352.4 438 352.4 431.1 327.6 431.1 327.6 382.5"/>
          <path class="cls-6" d="M389.3,439.4c3.7,0,6.8-.6,9.5-1.8,2.7-1.2,5-2.9,6.7-4.9s3.1-4.4,4-7c.9-2.6,1.3-5.4,1.3-8.2v-34.9h-7.7v34.4c0,1.9-.2,3.7-.7,5.6-.5,1.9-1.2,3.5-2.3,5-1.1,1.5-2.5,2.6-4.3,3.5-1.8.9-3.9,1.3-6.5,1.3s-4.8-.4-6.5-1.3c-1.8-.9-3.2-2.1-4.2-3.5-1.1-1.5-1.8-3.1-2.3-5-.5-1.9-.7-3.7-.7-5.6v-34.4h-7.7v34.9c0,2.8.4,5.5,1.3,8.2.9,2.6,2.2,5,4,7,1.8,2,4,3.7,6.7,4.9,2.7,1.2,5.9,1.8,9.5,1.8h0Z"/>
          <polygon class="cls-3" points="442.5 382.5 432.4 382.5 432.4 438 440.2 438 440.2 392.7 440.3 392.7 469.6 438 479.4 438 479.4 382.5 471.6 382.5 471.6 426.8 471.5 426.8 442.5 382.5"/>
          <path class="cls-4" d="M526.2,382.5h-7l-24,55.4h8.6l5.6-13.6h26.3l5.6,13.6h8.8l-23.8-55.4ZM512,417.5l10.4-26,10.3,26h-20.7Z"/>
          <path class="cls-2" d="M115,382.5h-23v55.8h7.9v-23.6h13.6c11.5,0,18.7-6.2,18.7-16.2s-7-16-17.1-16ZM112.6,409h-12.7v-20h13.9c6.7,0,10.9,3.8,10.9,9.8s-4.4,10.2-12.1,10.2Z"/>
          <path class="cls-1" d="M583.6,414.7h1.5c11.5,0,18.7-6.2,18.7-16.2s-7-16-17.1-16h-21.9v55.8h7.9v-24.9l22.5,24.8h.1c0,.1,10.3.1,10.3.1l-22-23.6ZM572.7,389h12.7c6.7,0,10.9,3.8,10.9,9.8s-4.4,10.2-12.1,10.2h-11.6v-20Z"/>
          <path class="cls-5" d="M45.4,381c-16.1,0-29.2,13.1-29.2,29.2s13.1,29.2,29.2,29.2,29.2-13.1,29.2-29.2-13.1-29.2-29.2-29.2ZM45.4,432c-12,0-21.8-9.8-21.8-21.8s9.8-21.8,21.8-21.8,21.8,9.8,21.8,21.8-9.8,21.8-21.8,21.8Z"/>
        </g>
        <g>
          <polygon class="cls-10" points="94 496 114.3 496 114.3 491 94 491 94 477.9 115.6 477.9 115.6 472.8 88.2 472.8 88.2 514.7 94 514.7 94 496"/>
          <path class="cls-11" d="M197.1,515.8c2.8,0,5.2-.5,7.2-1.4,2.1-.9,3.8-2.2,5.1-3.7,1.3-1.5,2.3-3.3,3-5.3.7-2,1-4.1,1-6.2v-26.4h-5.9v26.1c0,1.4-.2,2.8-.5,4.2-.4,1.4-.9,2.7-1.7,3.8-.8,1.1-1.9,2-3.2,2.7-1.3.7-3,1-4.9,1s-3.6-.3-5-1c-1.3-.7-2.4-1.6-3.2-2.7-.8-1.1-1.4-2.4-1.7-3.8-.4-1.4-.5-2.8-.5-4.2v-26.1h-5.9v26.4c0,2.1.3,4.2,1,6.2.7,2,1.7,3.8,3,5.3,1.3,1.5,3,2.8,5.1,3.7,2.1.9,4.5,1.4,7.2,1.4h0Z"/>
          <polygon class="cls-12" points="237.5 472.8 229.9 472.8 229.9 514.7 235.7 514.7 235.7 480.5 235.9 480.5 258 514.7 265.4 514.7 265.4 472.8 259.6 472.8 259.6 506.3 259.4 506.3 237.5 472.8"/>
          <path class="cls-13" d="M317.3,484.2c-1.4-2.7-3.1-4.8-5.3-6.5-2.2-1.7-4.6-2.9-7.3-3.7s-5.4-1.2-8.1-1.2h-14.4v42h14.4c2.7,0,5.4-.4,8.1-1.3s5.1-2.1,7.3-3.8c2.2-1.7,3.9-3.9,5.3-6.5,1.3-2.6,2-5.7,2-9.3s-.7-6.9-2-9.5ZM311.7,500.4c-.9,2-2.1,3.6-3.6,5-1.6,1.3-3.4,2.4-5.6,3.1-2.2.7-4.5,1.1-7,1.1h-7.3v-31.7h7.3c2.5,0,4.9.3,7,1,2.1.7,4,1.7,5.6,3,1.6,1.3,2.8,3,3.6,4.9.9,2,1.3,4.3,1.3,6.9s-.4,4.7-1.3,6.7Z"/>
          <path class="cls-15" d="M350.5,472.8h-5.3l-18.2,42h6.5l4.2-10.3h19.9l4.3,10.3h6.6l-18-42ZM339.8,499.3l7.9-19.7,7.8,19.7h-15.7Z"/>
          <polygon class="cls-22" points="391.5 477.9 404.9 477.9 404.9 472.8 372.2 472.8 372.2 477.9 385.6 477.9 385.6 514.7 391.5 514.7 391.5 477.9"/>
          <rect class="cls-23" x="418.8" y="472.8" width="5.9" height="42"/>
          <polygon class="cls-24" points="505.7 472.8 498.1 472.8 498.1 514.7 504 514.7 504 480.5 504.1 480.5 526.3 514.7 533.7 514.7 533.7 472.8 527.8 472.8 527.8 506.3 527.7 506.3 505.7 472.8"/>
          <path class="cls-25" d="M146.8,471.6c-12.2,0-22.1,9.9-22.1,22.1s9.9,22.1,22.1,22.1,22.1-9.9,22.1-22.1-9.9-22.1-22.1-22.1ZM146.8,510.2c-9.1,0-16.5-7.4-16.5-16.5s7.4-16.5,16.5-16.5,16.5,7.4,16.5,16.5-7.4,16.5-16.5,16.5Z"/>
          <path class="cls-14" d="M462.2,471.6c-12.2,0-22.1,9.9-22.1,22.1s9.9,22.1,22.1,22.1,22.1-9.9,22.1-22.1-9.9-22.1-22.1-22.1ZM462.2,510.2c-9.1,0-16.5-7.4-16.5-16.5s7.4-16.5,16.5-16.5,16.5,7.4,16.5,16.5-7.4,16.5-16.5,16.5Z"/>
        </g>
      </g>
      <g>
        <path class="cls-17" d="M425.6,256.1c4.6-5.7,7.4-13.8,7.4-13.8l-222.3,6.7,214.9,7.1Z"/>
        <path class="cls-16" d="M404,282.5c5-5,8.1-11,8.1-11l-184.1,6.4,176,4.6Z"/>
        <path class="cls-18" d="M325.6,312.7c30,0,41-9.9,41-9.9l-81.6,2s10.7,7.9,40.6,7.9Z"/>
        <g>
          <g>
            <ellipse class="cls-19" cx="148.4" cy="169.2" rx="2.4" ry="2.2"/>
            <ellipse class="cls-27" cx="17" cy="103.8" rx="2.1" ry="2"/>
            <ellipse class="cls-21" cx="326.4" cy="6.1" rx="2.4" ry="2.2"/>
            <ellipse class="cls-28" cx="479.6" cy="138.4" rx="2.4" ry="2.2"/>
          </g>
          <g>
            <path class="cls-26" d="M510.7,215.9l-225.2,3.1c-8.5-9.9-16.2-20.6-22.9-31.4,2.8-3.1,5.7-5.3,8.4-5,10.6,1.1,3.6,26.8,22.2,17.4,14.3-7.2-6.1-22.8-15.2-35.5-23.6-32.7,5.1-30.8,3.6-17-1.4,13.8,7.8,20.6,9.1,10,1.3-10.5,8.8-5.3,15.8-9.7,7-4.4,13.7-5.2,18.9-35.6,3.1-18.3-26.2-14.7-30.9-7.1-7.7,12.6-16.1,5.4-21.4,5.4s-18.9-1.8-21.5,27.2c-1.1,11.7-3.3,17.6-5.6,20.5-8-15.9-13.6-29.9-16.6-38.8,21.3-27,54.3-44.3,91.4-44.3s67.4,16,88.7,41.1c-.6.3-1.1.7-1.7,1.3-7.2,8.2,4.5,23.3,12.2,21.6,1.7-.4,2.7-1.5,3.1-3.1,8.9,16.5,14,35.3,14,55.3s-1,17.2-2.8,25.4h6.5c1.9-8.6,2.9-17.5,2.9-26.6,0-67.9-55-122.9-122.9-122.9s-122.9,55-122.9,122.9,1.3,20.2,3.6,29.7h3.2s0,0,0,0l-169.9,2.3,471.9,4.7c2.1-4.2,3.6-8.9,4.2-11.2h-.2Z"/>
            <path class="cls-20" d="M417.1,151.1c-7,3.4-5.8,14.6-2.7,19.6,11.3,18.3,20.2,1.3,17.2-8.8-1.9-6.3-8.3-13.8-14.4-10.8Z"/>
            <path class="cls-29" d="M329.5,143.3c-8.7,5.2-7.5,14.1-12.6,18.1-9.8,7.7-22.6,1.8-21.6,14.1.8,10.1,30.5,1.5,35.7-5.7,3.5-4.8,3.6-15.6,10.2-17.6,25.8-7.7,22.8,18.1,41.2,16.6,20.4-1.7,20.5-33.5,7.9-34.8-12.6-1.3-20.2-7.1-21.2-21-.9-13.9-10.9-14.4-21.2-9.2-18.2,9.2,6.9,24.2-18.4,39.4Z"/>
          </g>
        </g>
      </g>
    </g>
  </g>
</svg>