<?xml version="1.0" encoding="UTF-8"?>
<svg xmlns="http://www.w3.org/2000/svg" version="1.1" viewBox="0 0 2380.2 1035.2">
  <defs>
    <style>
      .cls-1 {
        fill: #090d21;
      }
    </style>
  </defs>
  <!-- Generator: Adobe Illustrator 28.6.0, SVG Export Plug-In . SVG Version: 1.2.0 Build 709)  -->
  <g>
    <g id="Layer_1">
      <g>
        <g>
          <path class="cls-1" d="M933.7,455.9c25.3,0,50.1-.5,74.9.1,35.7,1,59.4,23.7,63.4,59.3,1.7,15.2,1.4,30.3-2.8,45-8,27.5-26.4,45.2-54.8,48.3-26.5,2.9-53.5,1.7-81.1,2.3,0-5.6-.3-10.1.2-14.5.1-1.3,2.5-2.8,4.1-3.3,12-4,12-3.9,12-16.8,0-31,0-62.1.1-93.1,0-4.4-1.1-6.4-5.5-7.5-11.3-2.8-11.2-3-11-14.5,0-1.2.2-2.5.5-5.3h0ZM980.9,587.4c7.2,0,13.7.1,20.2,0,16.8-.4,28.2-8.2,33.3-24.2,6.6-20.7,6.5-41.7-.1-62.3-3.9-12-12.3-19.9-25.1-21.5-8.3-1-16.7-.6-25.1-.8-3.3,0-3.2,2.2-3.2,4.5,0,13.5,0,27,0,40.5v63.9h0Z"/>
          <path class="cls-1" d="M1795.1,441.3c14.3-.6,28.1-1.2,41.9-1.8.9,0,1.8.1,3.2.2v63.4c2.3-1.6,3.8-2.5,5.2-3.5,16.3-11.2,35.6-12.5,49.9-3.2,10.4,6.7,15.9,16.9,18.9,28.5,3.8,14.5,4,29.3,1,43.9-4.9,24.2-21.2,38.9-46,42.6-19,2.8-37.8,1-56.6-2.2-3.4-.6-3.3-2.6-3.3-5.1,0-10,0-20.1,0-30.1,0-35.8,0-71.5,0-107.3,0-3.2-.3-5.4-4-6.4-10.7-3.1-10.7-3.3-10.6-14.4,0-1.3.1-2.5.2-4.6h0ZM1840.5,555.3h0c0,8.9.3,17.9-.1,26.8-.3,5.4,1.2,8.2,6.9,8.2,4,0,8,.6,12,.2,9.5-.9,17.2-5.3,20.9-14.5,7-17,6.9-34.2-.9-50.8-5.3-11.4-15.2-14.7-27-9.9-2.7,1.1-5.1,2.7-7.7,4.1-3,1.6-4.3,3.9-4.2,7.5.2,9.5,0,19,0,28.4h0Z"/>
          <path class="cls-1" d="M1214.6,562.4h18.2c1.1,6,2.1,12.1,3.4,18.1.4,1.7,1.5,4,2.9,4.5,13.5,5,27.2,6.9,41.1,1.4,8.6-3.4,12.5-10.1,11.9-18.8-.5-6.8-4.7-11.1-10.2-13.9-6.3-3.1-13.1-5.3-19.7-7.9-8.8-3.4-17.9-6.3-26.4-10.4-16.5-8-23-21.8-22-39.8,1-17.5,9.7-29.4,25.4-36.4,17.4-7.8,35.5-7.1,53.7-3.7,8.6,1.6,16.9,4.4,25.7,6.8-.9,13.3-1.7,26-2.5,39.4-5.7,0-11.1.2-16.5-.1-1,0-2.5-1.9-2.8-3.1-1.1-4.4-1.8-8.9-2.5-13.4-.6-3.6-2.1-5.6-6-6.5-9.8-2.1-19.5-2.8-29.2-.3-8.7,2.2-14,7.5-14.7,14.9-.8,8,3.8,13.2,10.4,16.4,7.1,3.4,14.5,5.8,21.8,8.8,9.1,3.8,18.4,7,27.1,11.6,27.7,14.4,26.4,57.9-.3,73.2-13,7.4-26.9,10.1-41.5,10.2-14.8,0-29.3-2.6-43.5-7.4-3.7-1.3-5.1-3.2-4.8-7.1.7-12,1-24,1.4-36.3h0Z"/>
          <path class="cls-1" d="M1685.4,498.8c21.7-5.9,43.1-11.4,65.4-6.9,17.6,3.6,26.6,14.9,26.6,32.9,0,20.1,0,40.2,0,60.2,0,3.2.7,4.8,4,5.8,12.2,3.8,12.8,5.3,10.1,19.2-12.4.6-24.9,1.2-37.7,1.9-1.3-5.8-2.5-11.2-3.8-17.6-2,1.9-3.5,3.4-5.1,4.8-9.3,8.6-20.2,13.5-33,13.7-18.6.3-31.9-12.1-32.9-30.8-1.2-23.3,9.8-35.6,34.3-37.3,10.9-.7,21.8-.1,34.1-.1-.8-8-1-14.7-2.1-21.2-.9-4.8-4.7-7.7-9.3-9.1-8.4-2.5-16.7-.9-24.8,1.3-1.3.4-2.3,3.3-2.7,5.2-2,10.2-1.9,10.3-11.9,10.3s-9.5,0-9.9-9.7c-.3-7.3-.7-14.6-1.1-22.6h0ZM1746.6,571.6c0-3.1.4-5.4-.1-7.5-.3-1.3-2-3.2-3-3.2-7.3-.2-14.6-.3-21.8.4-7.2.6-11,5-11.6,12.2-.7,8.4,2.3,14.2,8.9,16.2,8.6,2.6,15.3-2,22.3-6.1,5.4-3.1,6.1-7.6,5.4-12.1h0Z"/>
          <path class="cls-1" d="M1120.2,557.7c1.5,24.2,14.8,35.7,36.5,31.2,8.8-1.8,17.2-5.7,26.6-9,2.9,4.6,6.2,9.9,9.8,15.6-16.3,11.3-33.6,17.6-53.1,17.3-31.8-.5-51.6-21.3-52.3-55-.3-11.9.7-23.6,5.5-34.8,10-23.1,30.4-33.6,53.9-32.5,8,.4,16.5,2.1,23.7,5.5,14.7,6.9,20.8,20.4,22.5,35.8.8,6.8,0,13.8.2,20.7.1,4.1-1.6,5.2-5.6,5.2-20.3-.2-40.5,0-60.8,0h-6.9ZM1161.7,538.9c1.1-14.9-5.7-25.3-16.7-26.1-14.1-1-23.2,8.6-24.6,26.1h41.3Z"/>
          <path class="cls-1" d="M1606.7,587.2h39c1.2-6.8,2.2-13.4,3.6-19.9.3-1.4,1.9-3.4,3.1-3.5,5.2-.4,10.5-.2,16-.2v46.3h-109.6c0-4.7-.3-9.2.2-13.7.1-1.2,2.2-2.6,3.7-3.1,12.1-4.1,12.1-4.1,12.1-16.6,0-31.4,0-62.8,0-94.2,0-3.7-.8-5.5-4.6-6.5-12-3.1-12-3.3-11.5-15.7,0-.9.2-1.7.5-3.4h64.3v15.1c-5.4,1.7-11,3.5-16.9,5.4v110h0Z"/>
          <path class="cls-1" d="M2018.9,526.1h-19.5c-.4-1.5-.8-2.8-1.1-4.2-2.3-9.8-2.3-10.4-12.5-10.8-5.4-.2-11.4.6-16.3,2.9-7.6,3.6-7.8,13-.4,17,6.3,3.4,13.4,5.5,20.2,8,5.3,2,10.7,3.6,15.9,5.9,12,5.3,19.3,14.3,19.6,27.8.3,13.2-5.1,23.7-16.3,30.9-11.3,7.2-24,9.8-37.1,9.1-11.8-.7-23.5-2.8-35.1-4.7-1.3-.2-3.2-2.8-3.2-4.3-.3-9.6-.2-19.3-.2-29.3h20.4c.5,3.4,1.5,6.6,1.4,9.8-.2,5,2,7.2,6.6,7.1,7.7-.3,15.6-.2,23.2-1.5,4.9-.8,8.8-4.4,9-10.3.3-5.6-3-8.9-7.7-10.8-8-3.1-16.1-5.7-24.1-8.6-3.2-1.2-6.5-2.5-9.6-4-13.4-6.6-19.6-17.3-18.6-32.3,1-14.6,8.7-24,22-29.1,15-5.8,30.4-4.9,45.8-2.2,5.9,1,13.7,1,16.9,4.7,3,3.5,1.2,11.3,1.2,17.2,0,3.8-.4,7.6-.6,11.8h0Z"/>
          <path class="cls-1" d="M1435.7,531.1h-20.4c-.9-4.4-1.5-8.9-2.8-13.2-.5-1.6-2.2-3.7-3.8-4.1-19.9-5.4-34.8,4.6-37.8,25-1.5,10.1-1.5,20,1.3,29.8,4.8,17,18.3,24.9,35.4,20.1,7.6-2.1,14.8-5.8,23.1-9.1,2.8,4.2,6.2,9.3,9.9,14.7-15.3,12.1-32.1,19.1-51.5,18.5-27.9-.9-49.4-22-50.7-50.3-.5-10.1-.3-20.6,1.9-30.3,5.1-23.3,23.2-38.4,46.8-41.2,15.4-1.8,30.1.6,44.5,5.9,3.4,1.2,4.6,2.9,4.4,6.8-.5,8.9-.2,17.8-.2,27.4h0Z"/>
          <path class="cls-1" d="M1448.2,610c0-4.7-.3-9,.2-13.3.2-1.3,2.3-3,3.8-3.6,10.6-3.5,10.6-3.5,10.6-14.5,0-19.9,0-39.8,0-59.7,0-3.5-.5-5.5-4.6-6.5-10.3-2.6-10.3-2.8-10.1-13.6,0-1.6.2-3.2.4-5.8h45v5.4c0,28.8,0,57.7,0,86.5,0,3.6.7,5.5,4.6,6.5,10.6,2.8,10.6,3,10.3,14,0,1.4-.3,2.8-.4,4.5h-59.8Z"/>
        </g>
        <g>
          <path class="cls-1" d="M594.5,841.7c-80-135.2-159.4-269.4-239.1-404.1,16.9-5.5,33.1-10.8,49.3-16,23.4-7.6,46.8-15.3,70.2-22.6,4.4-1.4,4.8-3.3,4.2-7.4-4.7-31.6-4-62.8,10.3-92,22.5-45.8,59-70.8,110.8-71.1,30.9-.2,61.7.3,92.6.7,2.2,0,5.3,1.1,6.4,2.8,8.7,12.4,17,25,26.2,38.9-23.4-1.2-45.7-2.3-68-3.4-.7,1-1.3,1.9-2,2.9,1.4.4,3.1.5,4.1,1.3,26,21.6,45,47.6,51.7,81.5,2.6,13.2,2.2,26.5-.1,39.7-.7,4,.2,5.7,4.2,7,36.8,11.8,73.5,23.9,110.2,35.9,1.9.6,3.7,1.3,6.4,2.2-79.2,134.6-158,268.8-237.5,404h0ZM367.7,444.3c-.3.3-.6.6-.9,1,74.8,126.2,149.6,252.5,224.8,379.4,0-16.9,0-32.5,0-48.2-.2-37.1-.4-74.1-.7-111.2-.2-38.3-.6-76.7-.6-115s-1.6-7.3-6.1-9.3c-61-27.1-121.9-54.4-182.8-81.6-11.3-5-22.5-10.1-33.8-15.1h0ZM369.5,438.9c3.2,1.5,5,2.4,6.8,3.2,70.7,30.4,141.4,60.8,212,91.4,3.7,1.6,6.6,1.4,10.2,0,72.1-30.3,144.3-60.4,216.5-90.6,1.6-.7,3.1-1.5,5.9-2.9-37.8-11.9-74.3-23.4-111-34.9-.5,1.3-1,2.1-1.2,2.9-16.2,49.9-49.2,79.8-102.4,84-50.9,4-92-14.8-115.9-63.9-3.7-7.6-6.3-15.8-9.4-24-36.6,11.4-73.3,22.9-111.5,34.8h0ZM662.8,382.3c1.6-10.7,1.4-20.7-.1-30.6-4-25.6-13.4-48.7-31.3-67.9-19.2-20.5-46.9-22.1-68.1-3.8-17.7,15.3-28.1,35.1-34.4,57.3-4.1,14.5-4.9,29.3-2.7,44.6,1.8-.4,3.2-.7,4.6-1.1,19.6-6.3,39.1-12.8,58.8-19,2.9-.9,6.5-1,9.3-.1,21,6.6,41.9,13.5,63.9,20.7ZM528,389c7.5,29.5,19.5,55.4,45.7,72,15.1,9.6,31.1,9.6,45.9-.4,25.2-16.9,35-43,41.8-71.3-19.8-6.5-39-12.7-58.1-19.2-5.8-2-10.9-2.3-16.8-.2-19.1,6.6-38.4,12.6-58.4,19.1h0Z"/>
          <path class="cls-1" d="M688.2,205.1c-2.4-1.1-4.8-2.2-7.2-3.4-27.2-13.6-54.4-27.4-81.7-40.8-2.6-1.3-6.9-.9-9.6.4-29,13.7-57.9,27.7-86.8,41.6-1.6.8-3.2,1.5-6.2,2.8,1.6-2.5,2.5-4,3.4-5.4,30.1-42.8,60.2-85.7,90.3-128.5,4.4-6.2,4.7-6.2,8.9,0,29.4,43.5,58.9,87,88.3,130.5.4.6.8,1.2,1.1,1.8-.2.3-.4.6-.6.9h0Z"/>
          <path class="cls-1" d="M618.2,967.6c0,11.3-6.6,17.9-18,17.9-11.3,0-18.2-6.7-18.1-17.9,0-11.6,7-18.4,18.4-18.3,11.3.1,17.7,6.7,17.7,18.2h0Z"/>
        </g>
      </g>
    </g>
  </g>
</svg>