<svg id="Layer_1" data-name="Layer 1" xmlns="http://www.w3.org/2000/svg" viewBox="0 0 535.26 548.42"><defs><style>.cls-1{fill:#090D21;}</style></defs><title>Main - White</title><path class="cls-1" d="M0,412.67a6.7,6.7,0,1,1,13.4,0l0,92.34,38,0a6.06,6.06,0,0,1,6.15,6.15,6.19,6.19,0,0,1-6.14,6.3l-44.76,0a6.7,6.7,0,0,1-6.62-6.78Z"/><path class="cls-1" d="M69.51,417.51a7.8,7.8,0,0,1,7.87-7.88,7.9,7.9,0,0,1,7.88,7.88,8,8,0,0,1-7.87,7.88A7.9,7.9,0,0,1,69.51,417.51Zm1.58,24.59a6.23,6.23,0,0,1,6.31-6.31,6.32,6.32,0,0,1,6.3,6.3l0,70.13a6.35,6.35,0,0,1-6.3,6.46,6.26,6.26,0,0,1-6.31-6.46Z"/><path class="cls-1" d="M112.86,437c1.25-19.22,14.8-31.21,33.23-31.22a5.83,5.83,0,0,1,0,11.66c-11.66,0-19.38,6.95-20.48,19.56l20.49,0a5.72,5.72,0,0,1,5.83,5.83,5.83,5.83,0,0,1-5.82,5.84H125.47l0,63.5a6.36,6.36,0,0,1-6.3,6.47,6.26,6.26,0,0,1-6.31-6.46l0-63.51h-8.36a5.82,5.82,0,0,1-5.83-5.83,5.72,5.72,0,0,1,5.83-5.83Z"/><path class="cls-1" d="M155.12,477.19c0-23.32,17.95-41.77,41.58-41.78,11.51,0,21.12,4.4,27.27,10.07a6.35,6.35,0,0,1,.32,9.62l-28,33.57a5.59,5.59,0,0,1-4.41,2.06c-3.47,0-6-2.36-6-5.67a5.28,5.28,0,0,1,1.41-3.94l24.57-29c-4.1-3.47-9.93-5-15.13-5-16.07,0-28.83,13.26-28.82,30.12,0,16.7,12.62,30.09,28.85,30.08a27.43,27.43,0,0,0,20.95-9.47c1.74-1.57,3.15-2.83,5.36-2.84a6,6,0,0,1,6.31,6,7.38,7.38,0,0,1-1.89,4.26c-6.62,7.88-17.48,13.71-30.72,13.72C173.27,518.94,155.13,500.52,155.12,477.19Z"/><path class="cls-1" d="M242.29,492.75a6.4,6.4,0,0,1,6.46-6.47,6.2,6.2,0,0,1,6.3,5.05c1.27,6.3,8.05,15,20.66,14.95,12.13,0,20.32-9.15,20.31-18.76C296,474.6,285.3,470,277,467.67l-7.88-2.2c-9.93-3-25.69-9.6-25.71-30.24,0-17.18,13.7-29.79,32.45-29.8,19.22,0,32,13.06,32,25.35a6.4,6.4,0,0,1-6.46,6.47,6.09,6.09,0,0,1-6.3-5.36c-1.26-6.14-7.26-14-19.24-14-11.66,0-19.06,8.68-19.05,18.13,0,12.61,12,16.7,18.76,18.59l7.09,2c10.25,3,26.8,9.13,26.81,31.66,0,16.7-14.48,30.58-33.71,30.59C256.65,518.9,242.3,504.88,242.29,492.75Z"/><path class="cls-1" d="M328,412a6.21,6.21,0,0,1,6.3-6.3A6.32,6.32,0,0,1,340.6,412v33.1a31.92,31.92,0,0,1,23.48-9.79c18.43,0,33.1,13.54,33.11,36.39l0,40.34a6.36,6.36,0,0,1-6.3,6.47,6.28,6.28,0,0,1-6.31-6.46l0-40.66c0-16.23-9.78-24.42-22.07-24.41-12,0-21.9,8-21.9,24.43l0,40.66a6.37,6.37,0,0,1-6.3,6.47,6.26,6.26,0,0,1-6.31-6.46Z"/><path class="cls-1" d="M416.88,417.33a7.81,7.81,0,0,1,7.88-7.88,7.9,7.9,0,0,1,7.88,7.87,8,8,0,0,1-7.88,7.89A7.91,7.91,0,0,1,416.88,417.33Zm1.59,24.58a6.22,6.22,0,0,1,6.3-6.3,6.32,6.32,0,0,1,6.31,6.3l0,70.12a6.36,6.36,0,0,1-6.3,6.47,6.26,6.26,0,0,1-6.31-6.46Z"/><path class="cls-1" d="M465,506.18,465,542a6.37,6.37,0,0,1-6.31,6.47,6.26,6.26,0,0,1-6.3-6.46l-.06-100.06a6.23,6.23,0,0,1,6.31-6.31,6.32,6.32,0,0,1,6.3,6.3v6a40.12,40.12,0,0,1,29.46-12.63c23.17,0,40.82,18.42,40.83,41.74s-17.62,41.77-40.79,41.78A39.5,39.5,0,0,1,465,506.18ZM522.5,477c0-17-12.78-30.09-28.85-30.08-15.76,0-28,12.46-28.67,28.85v2.52c.64,16.39,12.94,28.83,28.7,28.82C509.75,507.1,522.51,494,522.5,477Z"/><path class="cls-1" d="M426.85,333.68H108.42a6.36,6.36,0,0,1-5.51-9.53L262.13,48.38a6.35,6.35,0,0,1,11,0L355,190.13a6.35,6.35,0,1,1-11,6.35L267.63,64.27,119.43,321H415.84L385.7,268.78a6.36,6.36,0,0,1,11-6.36l35.64,61.73a6.36,6.36,0,0,1-5.5,9.53Z"/><path class="cls-1" d="M267.63,282.84a141.21,141.21,0,0,1-72.55-20,6.35,6.35,0,0,1,6.53-10.9,128.49,128.49,0,1,0-53.31-62.19,6.36,6.36,0,1,1-11.78,4.78,140.66,140.66,0,0,1-10.3-53.1C126.22,63.44,189.65,0,267.63,0S409.05,63.44,409.05,141.42,345.61,282.84,267.63,282.84Z"/></svg>