<?xml version="1.0" encoding="UTF-8"?>
<svg xmlns="http://www.w3.org/2000/svg" version="1.1" viewBox="0 0 2380.2 1035.2">
  <defs>
    <style>
      .cls-1 {
        fill: #fff;
      }

      .cls-1, .cls-2 {
        fill-rule: evenodd;
      }
    </style>
  </defs>
  <!-- Generator: Adobe Illustrator 28.6.0, SVG Export Plug-In . SVG Version: 1.2.0 Build 709)  -->
  <g>
    <g id="Layer_1">
      <g>
        <path class="cls-1" d="M1883.3,444c-4.3,5.6-17.6,1.7-22.8,4,1.7-8.6,15.1-3.6,22.8-4Z"/>
        <path class="cls-1" d="M1265.9,595.9c69.3-2.1,134.2-12.2,196.5-11.9-30.7,12.9-65.3,24.3-100.2,36.7-34.1,12.1-70.3,27.7-106.2,26.8-18.8-.5-45.5-6.7-47.6-24.8-2.9-25,17.6-46,31.8-63.5,17.6-21.9,33.8-35.9,49.6-50.6-5.7,27.4-17.1,57.6-23.8,87.3Z"/>
        <path class="cls-1" d="M1949.8,615.7c-16.3,10.2-40.2,13-63.5,15.9-31.2,3.9-69,2.2-97.3,0,42.5-15.3,109.1-12.3,160.8-15.9Z"/>
        <path class="cls-2" d="M1372.1,381.5c-17,57.8-39.6,118.6-57.6,178.7,28.8-.6,61.9-5.1,95.3-7.9,29.2-2.5,68.4-1.4,88.3-14.9,16.8-11.4,17.2-36.5,29.8-53.6,7.6,27.6,30.6,64.9,13.9,91.3-12.3,19.4-52.7,32.4-79.4,41.7-31.7,11-55.4,20.2-87.3,32.7-29.8,11.7-55.9,22.7-93.3,26.8-44.6,4.9-105.6-4-111.2-47.6-2-15.6,4.5-31.5,10.9-44.7,18.1-37.3,46.5-66.4,72.5-93.3,18.6-19.3,37.5-37.7,56.6-54.6,20.8-18.4,41.7-36.6,61.5-54.6ZM1289.8,508.5c-15.8,14.7-32,28.8-49.6,50.6-14.1,17.5-34.7,38.5-31.8,63.5,2.1,18.1,28.8,24.3,47.6,24.8,35.9.9,72.1-14.7,106.2-26.8,35-12.4,69.5-23.8,100.2-36.7-62.3-.2-127.2,9.8-196.5,11.9,6.7-29.7,18.1-60,23.8-87.3Z"/>
        <path class="cls-2" d="M388.6,503.6c11.1-6.3,16.4-19.2,21.8-29.8,5.6-11,12.6-23,15.9-35.7,5.2-19.8,2.3-38.2,1-55.6-7.8-99.5,93.4-120.5,177.7-135,50.6-8.7,109.5-7.8,162.8-2,7.1.8,16.1,3.8,21.8,3,7.5-1.1,19.7-12.5,26.8-16.9,16.1-10,34.8-20,56.6-23.8,26.9-4.7,60.1-.7,90.3,5,86,16.1,177.3,37.6,245.2,67.5,1.3,6-10,16.4-13.9,23.8,65.1-35.3,126.3-71.9,201.5-94.3,68.9-20.5,148.8-23.7,218.3-2,8.5,2.7,19.5,8.2,27.8,8.9,12.5,1.1,27.7-3.8,41.7-5,222.4-18.7,429.5,45,619.3,81.4-41.1,66.1-98.4,115.9-173.7,147.9,7.7,7.6,16.6,10.4,22.8,17.9,17.1,20.3,15.7,55,4,78.4-11.5,23-36.7,36.2-49.6,50.6,40.7-2.4,80.9,5,86.3,42.7,5.5,38.5-15.8,69.4-34.7,89.3-59.8,63-164,83.6-265,104.2-70.2,14.3-134,21-217.4,21.8-64.7.6-165.4-5.3-193.5-46.6-5.5-8.1-8.5-20.6-8.9-30.8-78.3,33.5-166.1,68.9-272.9,71.5-109.9,2.6-210.2-23.9-248.1-98.3-18,32.7-33.6,65.5-64.5,83.4-35.4,20.4-98.5,23.2-141.9,14.9-48.1-9.3-85.1-29.5-89.3-79.4-4.2-49.3,15.7-97.4,28.8-138,14.2-44.2,30-84.4,45.7-123.1-21.2,12.4-35.8,36.2-51.6,56.6-46.1,59.5-101.1,118.4-163.8,163.8-40.4,29.2-85.7,58.6-138,80.4-46.3,19.3-122.2,45.8-179.6,22.8-19.9-8-39.5-29.4-29.8-56.6,5.3-14.7,23.6-23.3,24.8-39.7,1-12.5-11.4-29-18.9-41.7-21.5-36.7-45.9-79.1-61.5-117.1-21.7-52.7-48.3-127.1-28.8-190.6,17.9-58.2,68.2-93,118.1-121.1,39.4-22.1,78.1-38.5,124.1-54.6,25.8-9.1,70.8-24.2,90.3,2,27.6,37,3.7,108.8-6,147.9-12.7,51.5-22.2,99.6-21.8,151.9ZM970.2,245.5c-31.7-6.2-67.2-12.1-97.3-5-14.2,3.4-28.1,10.7-38.7,17.9-8.4,5.7-22.9,21.2-33.7,22.8-12.7,1.9-30.8-3.5-46.6-5-83.6-7.5-160.7-2-226.3,21.8-22.9,8.3-51.7,19.8-62.5,41.7-12.7,25.8,3.1,61.5-1,94.3-1.8,14.3-9.1,29.6-15.9,42.7-14.4,27.8-28.1,45.8-46.7,70.5-6.6,8.8-21,28.2-33.7,25.8-8.8-1.6-12.9-17.2-13.9-34.7-4.4-77.1,14.6-141.7,27.8-206.4,5.5-26.9,13.1-59.7,10.9-85.4-1.6-18.8-10.1-26.5-25.8-25.8-26,1.1-58.3,19.4-83.4,29.8-27.3,11.3-50.2,23.4-72.5,37.7-44.4,28.5-86.6,65-94.3,127-8.1,65.9,18.4,124.4,41.7,170.7,11.6,23,22.5,46.2,40.7,69.5,14,17.9,42.5,46.2,38.7,72.5-2.8,19.3-41.5,38.8-34.7,58.6,3.4,10.1,26.3,12.7,46.7,12.9,59.6.5,105.1-22.7,140.9-40.7,56.4-28.4,100.1-60.3,143.9-97.3,44.4-37.4,85-76.6,121.1-120.1,36.3-43.8,66.7-92.5,104.2-137.9,26.8,72.6-.6,131.2-22.8,183.6-11.7,27.6-21.2,52.9-30.8,83.4-8.6,27.3-21,68.1-12.9,98.3,10.5,39.2,69.1,46.3,115.1,42.7,34.5-2.7,60.5-12.3,78.4-29.8,37.5-36.7,57.3-88.5,80.4-137-4.9,67.4,22.6,107,66.5,131,43.7,23.9,100.7,34.7,164.8,34.7,128.5,0,225.4-48.6,304.7-92.3-4.3,21.7-5.5,45.5,3,61.5,17.1,32.2,62.6,34.6,112.2,38.7,34.4,2.9,60.9,3.6,85.4,3,63.1-1.5,121.1-9.1,180.6-20.9,80.1-15.8,165.8-39.7,226.3-79.4,20.4-13.4,42.8-30.9,47.6-54.6,13.7-67.1-66-47.2-109.2-37.7-33,7.3-66,17.3-94.3,23.8-62.5,14.5-144.6,33.2-200.5,7.9-8.5-3.9-20.9-10.1-20.9-22.8,0-8.5,9-18.2,14.9-22.8,20.5-16,54.5-20.2,90.3-22.8,88.8-6.6,220.1,7.8,272.9-47.6,12.9-13.6,26-46.9,10.9-71.5-12.2-19.8-43.4-24.1-71.5-22.8-77,3.6-141.9,35.6-209.4,33.7-12.4-.3-36-.1-39.7-8.9-4.6-10.9,6.9-27.1,12.9-34.7,7.7-9.7,17.6-20.6,26.8-23.8,15.3-5.4,39.1-2.2,60.5,0,64.7,6.7,130.1,12.6,183.6,3,68.1-12.2,114.2-48.5,151.8-89.3,5.2-5.6,12.2-11.1,13.9-18.9-161.3-29.1-345.1-76.1-522-73.4-31.2.5-59.2,4.8-82.4,16.9-19.2,10-46.5,33-42.7,59.5,2.3,15.8,22.9,27.4,37.7,32.8,18.9,6.9,38.5,9.5,54.6,16.9-41.7,7.6-92,19.6-134,26.8,8.2-20.8,19-41,28.8-66.5,6.6-17.2,22-54.4,16.9-76.4-5-21.3-45.6-25.4-73.4-25.8-26.2-.4-60.6,3.9-84.4,8.9-159.6,33.9-281,121.2-385.1,207.4,19.8-46.3,48.4-90.2,74.4-129,3.8-5.6,9.8-12.5,8.9-16.9-59.3-21-118.1-34.7-178.6-46.6ZM1860.5,448c5.2-2.3,18.5,1.7,22.8-4-7.7.3-21.1-4.6-22.8,4ZM1789,631.6c28.3,2.2,66.1,3.9,97.3,0,23.3-2.9,47.2-5.7,63.5-15.9-51.7,3.5-118.3.6-160.8,15.9Z"/>
      </g>
    </g>
  </g>
</svg>