<?xml version="1.0" encoding="UTF-8"?>
<svg id="Layer_2" data-name="Layer 2" xmlns="http://www.w3.org/2000/svg" viewBox="0 0 269.69 122.39">
  <defs>
    <style>
      .cls-1, .cls-2 {
        stroke-width: 0px;
      }

      .cls-2 {
        fill: #090D21;
      }
    </style>
  </defs>
  <g id="Layer_1-2" data-name="Layer 1">
    <g>
      <path class="cls-2" d="m50.58,32.99c-5.13-4.9-11.17-7.93-21.97-7.93H0v59.61h28.61c10.8,0,16.2-2.73,21.34-7.3,5.67-5.47,8.77-13.6,8.77-22.54s-2.83-16.34-8.13-21.84Zm-8.7,37.91c-3.57,2.9-6.13,4.63-13.7,4.63H10.24v-41.34h17.94c7.47,0,10.7,1.9,14.07,5.03,3.77,3.83,5.77,9.4,5.77,15.6s-2.3,12.24-6.13,16.07Z"/>
      <path class="cls-2" d="m113.52,62.03c0-16.44-11.6-22.9-22.2-22.9-13.64,0-23.04,10.6-23.04,23.84s8.03,23.07,22.2,23.07c8.87,0,16.94-3.53,21.77-8.2l-6.3-6.1c-3.5,3.67-8.97,6-14.47,6-8.6,0-13.07-5.83-13.7-13.04h35.67c.07-.93.07-1.83.07-2.67Zm-35.21-4.73c1.57-5.77,5.77-10.34,12.54-10.34,5.83,0,12.17,3.3,12.24,10.34h-24.77Z"/>
      <path class="cls-1" d="m173.46,120c0,1.31-1.23,2.37-2.7,2.37-1.29,0-2.21-.88-2.21-2,0-1.33,1.21-2.43,2.68-2.43,1.29,0,2.23.92,2.23,2.06Z"/>
      <path class="cls-1" d="m139.35,40.93c0,4.25,6.92,4.62,13.5,5.27,11.07.74,28.55,2.21,28.55,18.63,0,15.24-12.58,21.22-27.74,21.22s-26.14-5.8-33.45-11.15l8.7-10.99c4.15,2.96,13.77,9.52,24.49,9.52,7.48,0,11.83-3.23,11.83-7.21,0-4.33-5.17-5.17-12.93-5.82-13.5-1.1-29.12-2.49-29.12-18.63,0-14.95,13.95-19.65,25.69-19.65,12.38,0,23.39,4.15,28.82,7.37l-8.76,11.25c-3.98-2.31-11.56-5.9-20.42-5.9-4.9,0-9.15,2.23-9.15,6.09Z"/>
      <polygon class="cls-1" points="196.97 107.15 200.48 107.15 192.31 121.92 189.14 121.92 188.41 111.81 188.22 111.81 183.14 121.92 179.97 121.92 178.24 107.15 181.48 107.15 182.47 117.73 182.65 117.73 187.84 107.15 190.82 107.15 191.74 117.73 191.92 117.73 196.97 107.15"/>
      <path class="cls-1" d="m210.2,106.66c-5.02,0-8.7,3.82-8.7,8.52,0,4.06,2.66,7.19,7.05,7.19,5.09,0,8.74-3.82,8.74-8.56,0-4-2.7-7.15-7.09-7.15Zm-1.39,13.07c-2.59,0-4.04-2.12-4.04-4.68,0-3.02,2.02-5.76,5.15-5.76,2.7,0,4.13,2.16,4.13,4.64,0,3.08-2.02,5.8-5.23,5.8Z"/>
      <path class="cls-1" d="m229.58,106.66c.86,0,1.7.2,2.06.61l-.63,2.94c-.57-.29-1.21-.45-1.84-.47-1.41,0-2.96,1.31-4.04,2.51l-2.06,9.66h-3.15l2.27-10.7c.29-1.35.45-2.7.49-4.06h2.92c-.04.84-.12,1.65-.25,2.47,1.23-1.49,2.23-2.96,4.23-2.96Z"/>
      <polygon class="cls-1" points="236.81 100.53 239.98 100.53 235.4 121.92 232.26 121.92 236.81 100.53"/>
      <path class="cls-1" d="m188.75,61.23c0-14.66,10.99-23.98,24.57-23.98,7.13,0,14.71,2.49,21.16,7.92l-8.86,9.86c-3.88-3.59-7.66-5.35-10.44-5.35-5.92,0-10.54,4.25-10.54,11.54s5.09,11.99,10.99,11.99c3.43,0,7.39-2.68,10.91-5.98l8.78,9.03c-2.12,2.41-10.07,9.33-21.53,9.33-13.5,0-25.04-9.89-25.04-24.37Z"/>
      <path class="cls-1" d="m256.07,100.53l-1.78,8.56c-1.31-1.47-2.84-2.43-4.98-2.43-4.8,0-8.11,4.86-8.11,9.17,0,3.55,2.21,6.56,5.82,6.56,2.82,0,4.55-1.84,5.27-2.51-.16.67-.25,1.35-.25,2.04h2.9c.04-1.35.27-2.51.61-4.06l3.68-17.32h-3.17Zm-3.55,16.69c-2.1,2.16-3.66,2.41-4.45,2.41-2.39,0-3.35-2.14-3.35-4.17,0-2.8,1.82-6,4.88-6,1.74,0,3.33,1.02,4.15,1.98l-1.23,5.78Z"/>
      <rect class="cls-1" x="244.18" y="38.71" width="15.15" height="45.5"/>
      <path class="cls-2" d="m181.4,64.83c0,15.24-12.58,21.22-27.74,21.22s-26.14-5.8-33.45-11.15l8.7-10.99c4.15,2.96,13.77,9.52,24.49,9.52,7.48,0,11.83-3.23,11.83-7.21,0-4.33-5.17-5.17-12.93-5.82-13.5-1.1-29.12-2.49-29.12-18.63,0-14.95,13.95-19.65,25.69-19.65,12.38,0,23.39,4.15,28.82,7.37l-8.76,11.25c-3.98-2.31-11.56-5.9-20.42-5.9-4.9,0-9.15,2.23-9.15,6.09,0,4.25,6.92,4.62,13.5,5.27,11.07.74,28.55,2.21,28.55,18.63Z"/>
      <path class="cls-2" d="m235.32,76.27c-2.12,2.41-10.07,9.33-21.53,9.33-13.5,0-25.04-9.89-25.04-24.37s10.99-23.98,24.57-23.98c7.13,0,14.71,2.49,21.16,7.92l-8.86,9.86c-3.88-3.59-7.66-5.35-10.44-5.35-5.92,0-10.54,4.25-10.54,11.54s5.09,11.99,10.99,11.99c3.43,0,7.39-2.68,10.91-5.98l8.78,9.03Z"/>
      <path class="cls-2" d="m244.18,38.71v45.5h15.15v-45.5h-15.15Z"/>
      <path class="cls-2" d="m173.46,120c0,1.31-1.23,2.37-2.7,2.37-1.29,0-2.21-.88-2.21-2,0-1.33,1.21-2.43,2.68-2.43,1.29,0,2.23.92,2.23,2.06Z"/>
      <polygon class="cls-2" points="200.48 107.15 192.31 121.92 189.14 121.92 188.41 111.81 188.22 111.81 183.14 121.92 179.97 121.92 178.24 107.15 181.48 107.15 182.47 117.73 182.65 117.73 187.84 107.15 190.82 107.15 191.74 117.73 191.92 117.73 196.97 107.15 200.48 107.15"/>
      <path class="cls-2" d="m210.2,106.66c-5.02,0-8.7,3.82-8.7,8.52,0,4.06,2.66,7.19,7.05,7.19,5.09,0,8.74-3.82,8.74-8.56,0-4-2.7-7.15-7.09-7.15Zm-1.39,13.07c-2.59,0-4.04-2.12-4.04-4.68,0-3.02,2.02-5.76,5.15-5.76,2.7,0,4.13,2.16,4.13,4.64,0,3.08-2.02,5.8-5.23,5.8Z"/>
      <path class="cls-2" d="m231.65,107.27l-.63,2.94c-.57-.29-1.21-.45-1.84-.47-1.41,0-2.96,1.31-4.04,2.51l-2.06,9.66h-3.15l2.27-10.7c.29-1.35.45-2.7.49-4.06h2.92c-.04.84-.12,1.65-.25,2.47,1.23-1.49,2.23-2.96,4.23-2.96.86,0,1.7.2,2.06.61Z"/>
      <polygon class="cls-2" points="239.98 100.53 235.4 121.92 232.26 121.92 236.81 100.53 239.98 100.53"/>
      <path class="cls-2" d="m256.07,100.53l-1.78,8.56c-1.31-1.47-2.84-2.43-4.98-2.43-4.8,0-8.11,4.86-8.11,9.17,0,3.55,2.21,6.56,5.82,6.56,2.82,0,4.55-1.84,5.27-2.51-.16.67-.25,1.35-.25,2.04h2.9c.04-1.35.27-2.51.61-4.06l3.68-17.32h-3.17Zm-3.55,16.69c-2.1,2.16-3.66,2.41-4.45,2.41-2.39,0-3.35-2.14-3.35-4.17,0-2.8,1.82-6,4.88-6,1.74,0,3.33,1.02,4.15,1.98l-1.23,5.78Z"/>
      <path class="cls-1" d="m269.61,16.26s-.02-.04-.02-.06c-.16-3.06-1.14-6.02-2.86-8.56-1.9-2.84-4.57-5.04-7.74-6.33-1.94-.82-4-1.25-6.09-1.29-.14-.02-.31-.02-.47-.02s-.33,0-.47.02c-.98,0-1.94.1-2.92.31-3.33.65-6.41,2.29-8.82,4.7s-4.04,5.47-4.72,8.8c-.65,3.35-.31,6.8.98,9.95,1.31,3.14,3.51,5.82,6.35,7.72,2.72,1.82,5.88,2.82,9.13,2.88.14.02.31.02.47.02s.33,0,.47-.02c4.37-.1,8.58-1.92,11.68-5.02,3-3,4.78-6.98,5.02-11.17v-.12c.06-.29.08-.57.08-.86,0-.33-.02-.63-.08-.94Zm-32.63.94c0-2.49,2.78-4.76,6.94-6.11-.37,1.88-.57,3.94-.57,6.11s.2,4.23.57,6.11c-4.17-1.35-6.94-3.61-6.94-6.11Zm8.11,0c0-2.35.27-4.59.74-6.62,1.74-.41,3.66-.65,5.68-.71v14.66c-2.02-.06-3.94-.31-5.68-.71-.47-2.02-.74-4.27-.74-6.62Zm8.15-15.36c2.19.51,4.13,3.12,5.33,6.84-1.65-.33-3.45-.53-5.33-.55V1.84Zm-1.74.04v6.25c-1.82.04-3.55.25-5.17.57,1.16-3.64,3.04-6.23,5.17-6.82Zm0,24.38v6.25c-2.12-.59-3.98-3.19-5.17-6.8,1.61.31,3.35.51,5.17.55Zm1.74,6.29v-6.29c1.88-.02,3.66-.22,5.31-.55-1.18,3.72-3.12,6.33-5.31,6.84Zm0-8.03v-14.66c2.06.04,4.04.29,5.84.71.47,2.02.74,4.27.74,6.62s-.27,4.59-.76,6.62c-1.8.43-3.76.67-5.82.71Zm7.72-13.46c3.74,1.2,6.37,3.12,6.9,5.31.04.27.04.55.04.82,0,.25,0,.49-.02.74v.02c-.51,2.21-3.17,4.15-6.92,5.37.37-1.9.57-3.96.57-6.13s-.2-4.23-.57-6.13Zm2.41-4.82c1.72,1.72,3,3.82,3.74,6.09-1.61-1.37-3.88-2.47-6.6-3.21-.76-2.74-1.9-5.02-3.29-6.64,2.29.74,4.41,2.02,6.15,3.76Zm-25.26,5.02c1.16-2.82,3.14-5.25,5.7-6.94,1.2-.8,2.51-1.43,3.88-1.86-1.41,1.61-2.55,3.92-3.31,6.68-2.82.78-5.15,1.94-6.74,3.37.14-.43.31-.84.47-1.25Zm3.35,16.87c-1.76-1.76-3.06-3.9-3.78-6.25,1.59,1.43,3.9,2.57,6.7,3.35.76,2.76,1.9,5.06,3.31,6.68-2.33-.74-4.49-2.04-6.23-3.78Zm23.85-2.35c-1.72,2.53-4.13,4.51-6.96,5.7-.37.14-.74.29-1.12.39,1.41-1.59,2.53-3.88,3.29-6.62,2.74-.74,5-1.86,6.62-3.23-.43,1.33-1.04,2.59-1.82,3.76Z"/>
      <path class="cls-2" d="m269.61,16.26s-.02-.04-.02-.06c-.16-3.06-1.14-6.02-2.86-8.56-1.9-2.84-4.57-5.04-7.74-6.33-1.94-.82-4-1.25-6.09-1.29-.14-.02-.31-.02-.47-.02s-.33,0-.47.02c-.98,0-1.94.1-2.92.31-3.33.65-6.41,2.29-8.82,4.7s-4.04,5.47-4.72,8.8c-.65,3.35-.31,6.8.98,9.95,1.31,3.14,3.51,5.82,6.35,7.72,2.72,1.82,5.88,2.82,9.13,2.88.14.02.31.02.47.02s.33,0,.47-.02c4.37-.1,8.58-1.92,11.68-5.02,3-3,4.78-6.98,5.02-11.17v-.12c.02-.29.02-.57.02-.86,0-.31,0-.63-.02-.94Zm-4.31,9.54c-1.72,2.53-4.13,4.51-6.96,5.7-.37.14-.74.29-1.12.39-1.29.43-2.63.67-3.98.74-.14.02-.27.04-.41.02-.12.02-.27.02-.39.02h-.04c-.31,0-.59,0-.9-.02-.69-.04-1.41-.12-2.1-.27-.57-.12-1.14-.27-1.72-.45-2.33-.74-4.49-2.04-6.23-3.78-1.76-1.76-3.06-3.9-3.78-6.25-.2-.55-.35-1.1-.45-1.67-.53-2.57-.37-5.23.41-7.7.14-.43.31-.84.47-1.25,1.16-2.82,3.14-5.25,5.7-6.94,1.2-.8,2.51-1.43,3.88-1.86,1.23-.41,2.51-.65,3.82-.71.31-.04.61-.04.92-.04.27,0,.55,0,.82.04,1.37.06,2.7.31,3.98.74,2.29.74,4.41,2.02,6.15,3.76,1.72,1.72,3,3.82,3.74,6.09.45,1.31.69,2.65.76,4.04.04.27.04.55.04.82,0,.25,0,.49-.02.74v.02c-.06,1.39-.33,2.78-.76,4.08-.43,1.33-1.04,2.59-1.82,3.76Z"/>
      <path class="cls-2" d="m260.95,11.07c-.14-.67-.29-1.33-.45-1.94-.76-2.74-1.9-5.02-3.29-6.64-1.25-1.43-2.72-2.33-4.31-2.47-.14-.02-.31-.02-.47-.02s-.33,0-.47.02c-1.59.14-3.04,1.02-4.29,2.45-1.41,1.61-2.55,3.92-3.31,6.68-.16.61-.33,1.27-.45,1.94-.37,1.88-.57,3.94-.57,6.11s.2,4.23.57,6.11c.12.67.29,1.33.45,1.94.76,2.76,1.9,5.06,3.31,6.68,1.25,1.43,2.7,2.31,4.29,2.45.14.02.31.02.47.02s.33,0,.47-.02c1.59-.14,3.06-1.04,4.31-2.49,1.41-1.59,2.53-3.88,3.29-6.62.16-.61.31-1.27.45-1.94.37-1.9.57-3.96.57-6.13s-.2-4.23-.57-6.13Zm-2.41,14.64c-1.18,3.72-3.12,6.33-5.31,6.84-.14.04-.27.06-.41.08-.12.02-.27.02-.39.02h-.04c-.31,0-.59-.04-.9-.14-2.12-.59-3.98-3.19-5.17-6.8-.18-.61-.37-1.25-.51-1.9-.47-2.02-.74-4.27-.74-6.62s.27-4.59.74-6.62c.14-.65.33-1.29.51-1.88,1.16-3.64,3.04-6.23,5.17-6.82.31-.1.63-.14.94-.14.27,0,.53.04.8.1,2.19.51,4.13,3.12,5.33,6.84.18.59.37,1.25.51,1.9.47,2.02.74,4.27.74,6.62s-.27,4.59-.76,6.62c-.14.65-.31,1.31-.51,1.9Z"/>
      <path class="cls-2" d="m269.61,16.26s-.02-.04-.02-.06c-.29-1.43-1.14-2.74-2.49-3.86-1.61-1.37-3.88-2.47-6.6-3.21-.61-.18-1.27-.33-1.94-.45-1.65-.33-3.45-.53-5.33-.55-.25-.02-.51-.02-.76-.02-.33,0-.65,0-.98.02-1.82.04-3.55.25-5.17.57-.67.12-1.33.27-1.96.45-2.82.78-5.15,1.94-6.74,3.37-1.53,1.37-2.39,2.96-2.39,4.68s.88,3.35,2.43,4.7c1.59,1.43,3.9,2.57,6.7,3.35.63.18,1.29.33,1.96.47,1.61.31,3.35.51,5.17.55.33.02.65.02.98.02.25,0,.51,0,.76-.02,1.88-.02,3.66-.22,5.31-.55.67-.12,1.33-.27,1.96-.45,2.74-.74,5-1.86,6.62-3.23,1.33-1.12,2.21-2.43,2.49-3.86v-.12c.06-.29.08-.57.08-.86,0-.33-.02-.63-.08-.94Zm-1.74,1.67v.02c-.51,2.21-3.17,4.15-6.92,5.37-.59.18-1.25.35-1.9.49-1.8.43-3.76.67-5.82.71-.25.02-.51.02-.76.02-.33,0-.65,0-.98-.02-2.02-.06-3.94-.31-5.68-.71-.65-.16-1.31-.33-1.9-.51-4.17-1.35-6.94-3.61-6.94-6.11s2.78-4.76,6.94-6.11c.59-.18,1.25-.35,1.9-.51,1.74-.41,3.66-.65,5.68-.71.33-.02.65-.02.98-.02.25,0,.51,0,.76.02,2.06.04,4.04.29,5.84.71.65.14,1.29.31,1.88.49,3.74,1.2,6.37,3.12,6.9,5.31.06.27.1.55.1.82,0,.25-.02.49-.08.74Z"/>
      <path class="cls-2" d="m253.23,1.27v31.86c0,.22-.08.45-.25.61s-.39.25-.63.25c-.22,0-.43-.08-.59-.25-.16-.16-.27-.39-.27-.61V1.27c0-.22.1-.45.27-.61.16-.16.37-.25.59-.25.25,0,.47.08.63.25s.25.39.25.61Z"/>
    </g>
  </g>
</svg>