<?xml version="1.0" encoding="UTF-8"?>
<svg id="Layer_1" xmlns="http://www.w3.org/2000/svg" version="1.1" viewBox="0 0 636.9 537.1">
  <!-- Generator: Adobe Illustrator 29.5.0, SVG Export Plug-In . SVG Version: 2.1.0 Build 137)  -->
  <defs>
    <style>
      .st0 {
        fill: #020617;
      }
    </style>
  </defs>
  <path class="st0" d="M636.9,21.1c-63.9,40.8-127.9,81.8-186,110.7-28.1-40.2-74.8-66.6-127.5-66.6s-78.7,16.1-106.6,42.4c-21.8-24-51.4-59.2-87-107.5,2,3.1,40.9,63.5,71.9,124.1-21.1,26.5-33.7,60.1-33.7,96.5s.1,7.8.4,11.6h-43.1c-1.1-33.5-29-60.6-62.6-60.6S0,199.9,0,234.3s28.3,62.7,62.7,62.7,55.3-21.2,61.3-49.7h46.3c4,22.9,13,44.1,25.8,62.4-24,26.4-49.2,46.6-50.6,47.8,1.5-1,28.8-18.9,62.7-32.7,16.7,18.4,37.7,32.9,61.4,41.7l-20.2,47.5c-31.7-12.2-68.1,3.1-81.5,34.6-13.6,32.2,1.6,69.9,33.7,83.5,32.2,13.6,69.9-1.6,83.5-33.8,11.8-27.8,2.2-60.1-22.1-77.1l21.3-50.1h0c12.5,3.2,25.6,5,39.1,5s36.4-3.3,52.9-9.3c19.8,21.4,32.9,40.8,34.1,42.7-8.6-14-17.4-29.9-24.9-46.4,54.9-24,93.3-78.9,93.3-142.5s-4.8-43.7-13.3-63c78.7-70.4,167.6-133.8,171.4-136.5ZM65.2,234.6l-2.5-.3h2.5v.3ZM226.6,473.4l1-2.3h.2c0,.1-1.2,2.3-1.2,2.3ZM323.4,77.5c47.8,0,90.2,23.6,116.2,59.7-76,36.1-141.2,49.7-181.7,12,0,0-11.7-10-32.7-32.6,25.6-24.3,60.2-39.1,98.2-39.1ZM204.6,300.1c-15.3-22.8-24.2-50.1-24.2-79.5s10.2-60.6,27.5-84.2c18.4,37.3,32.6,73.3,32,94.3-.4,21.7-16.5,47.1-35.3,69.4ZM323.4,363.7c-40.3,0-76.7-16.7-102.7-43.6,20.2-7.2,41.7-12.2,61.2-11.2,30.6,1.6,61.2,24.6,84.9,48.2-13.7,4.4-28.3,6.7-43.4,6.7ZM466.5,220.6c0,58.6-35.4,109-85.9,131.1-16-38.8-23-79.5-1.5-106.2,20.2-25.2,47.5-52.5,76.7-79.1,6.9,16.7,10.7,35,10.7,54.2Z"/>
</svg>