<?xml version="1.0" encoding="UTF-8"?>
<svg xmlns="http://www.w3.org/2000/svg" version="1.1" viewBox="0 0 2380.2 1035.2">
  <defs>
    <style>
      .cls-1 {
        fill: #e71d1d;
      }
    </style>
  </defs>
  <!-- Generator: Adobe Illustrator 28.6.0, SVG Export Plug-In . SVG Version: 1.2.0 Build 709)  -->
  <g>
    <g id="Layer_1">
      <g id="_x38_uCZi_x5F_iBBqQpxehSqw-l2">
        <g vector-effect="non-scaling-stroke">
          <g id="aKObLxOJ8mS_HtTKtmP7T">
            <path class="cls-1" d="M56.1,411.7c0-99.5,62-149.7,176.5-149.7h334.6v212.7h-27.4c-11.5-123.5-66.7-174.3-178.7-174.3h-69.1c-53.8,0-79.9,26.8-79.9,79.7v274.9c0,52.9,26.1,79.7,79.9,79.7h69.1c110.4,0,166.6-53.8,178.7-181.2h27.4v219.6H232.6c-114.5,0-176.5-50.2-176.5-149.7v-211.7h0"/>
          </g>
          <g id="CXh2UpZupKGzss73aPv7g">
            <path class="cls-1" d="M1158,262v511.1h-136.1l-334.4-406.9v183.2c0,134.8,54.1,184.7,176.1,198v25.7h-216.7v-511.1h156.5l313.9,382.1v-160.3c0-133.9-54.3-184.3-173.3-196.2v-25.7h213.9"/>
          </g>
          <g id="fOVt0syp-Zoav_975alWT">
            <path class="cls-1" d="M1238.9,262h511.1v212.7h-27.4c-11.6-124-66.7-174.9-178.7-174.9h-153.7v191.7h52.1c86.9,0,123.9-39,132.7-122.7h27.8v280.9h-27.8c-8.7-84.1-45.6-122.8-132.7-122.8h-52.1v208.4h153.8c110.4,0,166.6-53.9,178.7-181.8h27.4v219.6h-511.1v-511.1"/>
          </g>
          <g id="zIN3hcJM3j7X62Tl9s-Lt">
            <path class="cls-1" d="M2324.1,262v212.7h-27.4c-11.8-117-60.7-171.3-152.5-181.2v359.4c0,62.5,22,87.5,102.7,92.7v27.5h-356.6v-27.5c80.7-5.2,102.7-30.2,102.7-92.7v-359.4c-91.8,9.9-140.7,64.2-152.5,181.2h-27.4v-212.7h511.1"/>
          </g>
        </g>
      </g>
    </g>
  </g>
</svg>