<?xml version="1.0" encoding="UTF-8"?>
<svg id="Layer_1" xmlns="http://www.w3.org/2000/svg" xmlns:xlink="http://www.w3.org/1999/xlink" version="1.1" viewBox="0 0 1050.5 282">
  <!-- Generator: Adobe Illustrator 29.1.0, SVG Export Plug-In . SVG Version: 2.1.0 Build 142)  -->
  <defs>
    <style>
      .st0 {
        fill: url(#linear-gradient2);
      }

      .st1 {
        fill: url(#linear-gradient1);
      }

      .st2 {
        fill: url(#linear-gradient9);
      }

      .st3 {
        fill: url(#linear-gradient3);
      }

      .st4 {
        fill: url(#linear-gradient6);
      }

      .st5 {
        fill: url(#linear-gradient8);
      }

      .st6 {
        fill: url(#linear-gradient7);
      }

      .st7 {
        fill: url(#linear-gradient5);
      }

      .st8 {
        fill: url(#linear-gradient4);
      }

      .st9 {
        fill: url(#linear-gradient18);
      }

      .st10 {
        fill: url(#linear-gradient13);
      }

      .st11 {
        fill: url(#linear-gradient12);
      }

      .st12 {
        fill: url(#linear-gradient15);
      }

      .st13 {
        fill: url(#linear-gradient16);
      }

      .st14 {
        fill: url(#linear-gradient11);
      }

      .st15 {
        fill: url(#linear-gradient10);
      }

      .st16 {
        fill: url(#linear-gradient17);
      }

      .st17 {
        fill: url(#linear-gradient14);
      }

      .st18 {
        fill: url(#linear-gradient19);
      }

      .st19 {
        fill: url(#linear-gradient23);
      }

      .st20 {
        fill: url(#linear-gradient22);
      }

      .st21 {
        fill: url(#linear-gradient24);
      }

      .st22 {
        fill: url(#linear-gradient21);
      }

      .st23 {
        fill: url(#linear-gradient20);
      }

      .st24 {
        fill: url(#linear-gradient);
      }
    </style>
    <linearGradient id="linear-gradient" x1="1010" y1="331.3" x2="546.5" y2="331.3" gradientTransform="translate(0 452) scale(1 -1)" gradientUnits="userSpaceOnUse">
      <stop offset="0" stop-color="#81b2db"/>
      <stop offset="1" stop-color="#301c71"/>
    </linearGradient>
    <linearGradient id="linear-gradient1" x1="1010" y1="331.3" x2="546.5" y2="331.3" gradientTransform="translate(0 452) scale(1 -1)" gradientUnits="userSpaceOnUse">
      <stop offset="0" stop-color="#81b2db"/>
      <stop offset="1" stop-color="#301c71"/>
    </linearGradient>
    <linearGradient id="linear-gradient2" x1="1010" y1="331.3" x2="546.5" y2="331.3" gradientTransform="translate(0 452) scale(1 -1)" gradientUnits="userSpaceOnUse">
      <stop offset="0" stop-color="#81b2db"/>
      <stop offset="1" stop-color="#301c71"/>
    </linearGradient>
    <linearGradient id="linear-gradient3" x1="1010" y1="330.5" x2="546.5" y2="330.5" gradientTransform="translate(0 452) scale(1 -1)" gradientUnits="userSpaceOnUse">
      <stop offset="0" stop-color="#81b2db"/>
      <stop offset="1" stop-color="#301c71"/>
    </linearGradient>
    <linearGradient id="linear-gradient4" x1="1010" y1="331.3" x2="546.5" y2="331.3" gradientTransform="translate(0 452) scale(1 -1)" gradientUnits="userSpaceOnUse">
      <stop offset="0" stop-color="#81b2db"/>
      <stop offset="1" stop-color="#301c71"/>
    </linearGradient>
    <linearGradient id="linear-gradient5" x1="1010" y1="331.3" x2="546.5" y2="331.3" gradientTransform="translate(0 452) scale(1 -1)" gradientUnits="userSpaceOnUse">
      <stop offset="0" stop-color="#81b2db"/>
      <stop offset="1" stop-color="#301c71"/>
    </linearGradient>
    <linearGradient id="linear-gradient6" x1="1010" y1="331.1" x2="546.5" y2="331.1" gradientTransform="translate(0 452) scale(1 -1)" gradientUnits="userSpaceOnUse">
      <stop offset="0" stop-color="#81b2db"/>
      <stop offset="1" stop-color="#301c71"/>
    </linearGradient>
    <linearGradient id="linear-gradient7" x1="1010" y1="331.1" x2="546.5" y2="331.1" gradientTransform="translate(0 452) scale(1 -1)" gradientUnits="userSpaceOnUse">
      <stop offset="0" stop-color="#81b2db"/>
      <stop offset="1" stop-color="#301c71"/>
    </linearGradient>
    <linearGradient id="linear-gradient8" x1="1010" y1="331.3" x2="546.5" y2="331.3" gradientTransform="translate(0 452) scale(1 -1)" gradientUnits="userSpaceOnUse">
      <stop offset="0" stop-color="#81b2db"/>
      <stop offset="1" stop-color="#301c71"/>
    </linearGradient>
    <linearGradient id="linear-gradient9" x1="1010" y1="247.8" x2="546.5" y2="247.8" gradientTransform="translate(0 452) scale(1 -1)" gradientUnits="userSpaceOnUse">
      <stop offset="0" stop-color="#81b2db"/>
      <stop offset="1" stop-color="#301c71"/>
    </linearGradient>
    <linearGradient id="linear-gradient10" x1="1010" y1="247.2" x2="546.5" y2="247.2" gradientTransform="translate(0 452) scale(1 -1)" gradientUnits="userSpaceOnUse">
      <stop offset="0" stop-color="#81b2db"/>
      <stop offset="1" stop-color="#301c71"/>
    </linearGradient>
    <linearGradient id="linear-gradient11" x1="1010" y1="247.8" x2="546.5" y2="247.8" gradientTransform="translate(0 452) scale(1 -1)" gradientUnits="userSpaceOnUse">
      <stop offset="0" stop-color="#81b2db"/>
      <stop offset="1" stop-color="#301c71"/>
    </linearGradient>
    <linearGradient id="linear-gradient12" x1="1010" y1="247.7" x2="546.5" y2="247.7" gradientTransform="translate(0 452) scale(1 -1)" gradientUnits="userSpaceOnUse">
      <stop offset="0" stop-color="#81b2db"/>
      <stop offset="1" stop-color="#301c71"/>
    </linearGradient>
    <linearGradient id="linear-gradient13" x1="1010" y1="247.7" x2="546.5" y2="247.7" gradientTransform="translate(0 452) scale(1 -1)" gradientUnits="userSpaceOnUse">
      <stop offset="0" stop-color="#81b2db"/>
      <stop offset="1" stop-color="#301c71"/>
    </linearGradient>
    <linearGradient id="linear-gradient14" x1="1010" y1="247.8" x2="546.5" y2="247.8" gradientTransform="translate(0 452) scale(1 -1)" gradientUnits="userSpaceOnUse">
      <stop offset="0" stop-color="#81b2db"/>
      <stop offset="1" stop-color="#301c71"/>
    </linearGradient>
    <linearGradient id="linear-gradient15" x1="1010" y1="247.7" x2="546.5" y2="247.7" gradientTransform="translate(0 452) scale(1 -1)" gradientUnits="userSpaceOnUse">
      <stop offset="0" stop-color="#81b2db"/>
      <stop offset="1" stop-color="#301c71"/>
    </linearGradient>
    <linearGradient id="linear-gradient16" x1="1010" y1="247.8" x2="546.5" y2="247.8" gradientTransform="translate(0 452) scale(1 -1)" gradientUnits="userSpaceOnUse">
      <stop offset="0" stop-color="#81b2db"/>
      <stop offset="1" stop-color="#301c71"/>
    </linearGradient>
    <linearGradient id="linear-gradient17" x1="1010" y1="247.8" x2="546.5" y2="247.8" gradientTransform="translate(0 452) scale(1 -1)" gradientUnits="userSpaceOnUse">
      <stop offset="0" stop-color="#81b2db"/>
      <stop offset="1" stop-color="#301c71"/>
    </linearGradient>
    <linearGradient id="linear-gradient18" x1="1010" y1="247.8" x2="546.5" y2="247.8" gradientTransform="translate(0 452) scale(1 -1)" gradientUnits="userSpaceOnUse">
      <stop offset="0" stop-color="#81b2db"/>
      <stop offset="1" stop-color="#301c71"/>
    </linearGradient>
    <linearGradient id="linear-gradient19" x1="564" y1="251.8" x2="100.5" y2="251.8" gradientTransform="translate(0 452) scale(1 -1)" gradientUnits="userSpaceOnUse">
      <stop offset="0" stop-color="#81b2db"/>
      <stop offset="1" stop-color="#301c71"/>
    </linearGradient>
    <linearGradient id="linear-gradient20" x1="564" y1="224" x2="100.5" y2="224" gradientTransform="translate(0 452) scale(1 -1)" gradientUnits="userSpaceOnUse">
      <stop offset="0" stop-color="#81b2db"/>
      <stop offset="1" stop-color="#301c71"/>
    </linearGradient>
    <linearGradient id="linear-gradient21" x1="564" y1="193.2" x2="100.5" y2="193.2" gradientTransform="translate(0 452) scale(1 -1)" gradientUnits="userSpaceOnUse">
      <stop offset="0" stop-color="#81b2db"/>
      <stop offset="1" stop-color="#301c71"/>
    </linearGradient>
    <linearGradient id="linear-gradient22" x1="564" y1="353.7" x2="100.5" y2="353.7" gradientTransform="translate(0 452) scale(1 -1)" gradientUnits="userSpaceOnUse">
      <stop offset="0" stop-color="#81b2db"/>
      <stop offset="1" stop-color="#301c71"/>
    </linearGradient>
    <linearGradient id="linear-gradient23" x1="564" y1="336.4" x2="100.5" y2="336.4" gradientTransform="translate(0 452) scale(1 -1)" gradientUnits="userSpaceOnUse">
      <stop offset="0" stop-color="#81b2db"/>
      <stop offset="1" stop-color="#301c71"/>
    </linearGradient>
    <linearGradient id="linear-gradient24" x1="564" y1="360.5" x2="100.5" y2="360.5" gradientTransform="translate(0 452) scale(1 -1)" gradientUnits="userSpaceOnUse">
      <stop offset="0" stop-color="#81b2db"/>
      <stop offset="1" stop-color="#301c71"/>
    </linearGradient>
  </defs>
  <g id="Layer_11" data-name="Layer_1">
    <g>
      <g>
        <polygon class="st24" points="585.7 141.6 614.6 141.6 614.6 148.5 577.9 148.5 577.9 93 613.5 93 613.5 99.9 585.7 99.9 585.7 116.4 611.8 116.4 611.8 123.1 585.7 123.1 585.7 141.6"/>
        <polygon class="st1" points="646 93 635.9 93 635.9 148.5 643.7 148.5 643.7 103.2 643.8 103.2 673.1 148.5 682.9 148.5 682.9 93 675.1 93 675.1 137.3 675 137.3 646 93"/>
        <polygon class="st0" points="755.7 93 748 93 748 148.5 780.5 148.5 780.5 141.6 755.7 141.6 755.7 93"/>
        <path class="st3" d="M817.4,149.9c3.7,0,6.8-.6,9.5-1.8,2.7-1.2,5-2.9,6.7-4.9s3.1-4.4,4-7,1.3-5.4,1.3-8.2v-34.9h-7.7v34.4c0,1.9-.2,3.7-.7,5.6s-1.2,3.5-2.3,5c-1.1,1.5-2.5,2.6-4.3,3.5s-3.9,1.3-6.5,1.3-4.8-.4-6.5-1.3c-1.8-.9-3.2-2.1-4.2-3.5-1.1-1.5-1.8-3.1-2.3-5s-.7-3.7-.7-5.6v-34.4h-7.7v34.9c0,2.8.4,5.5,1.3,8.2.9,2.6,2.2,5,4,7s4,3.7,6.7,4.9c2.7,1.2,5.9,1.8,9.5,1.8h0Z"/>
        <polygon class="st8" points="870.6 93 860.5 93 860.5 148.5 868.3 148.5 868.3 103.2 868.4 103.2 897.7 148.5 907.5 148.5 907.5 93 899.7 93 899.7 137.3 899.6 137.3 870.6 93"/>
        <path class="st7" d="M954.3,93h-7l-24,55.4h8.6l5.6-13.6h26.3l5.6,13.6h8.8l-23.8-55.4h0ZM940.1,128l10.4-26,10.3,26h-20.7Z"/>
        <path class="st4" d="M543.1,93h-23v55.8h7.9v-23.6h13.6c11.5,0,18.7-6.2,18.7-16.2s-7-16-17.1-16h0ZM540.7,119.5h-12.7v-20h13.9c6.7,0,10.9,3.8,10.9,9.8s-4.4,10.2-12.1,10.2Z"/>
        <path class="st6" d="M1011.7,125.2h1.5c11.5,0,18.7-6.2,18.7-16.2s-7-16-17.1-16h-21.9v55.8h7.9v-24.9l22.5,24.8h0c0,.1,10.3.1,10.3.1l-22-23.6h0ZM1000.8,99.5h12.7c6.7,0,10.9,3.8,10.9,9.8s-4.4,10.2-12.1,10.2h-11.6v-20h0Z"/>
        <path class="st5" d="M473.5,91.5c-16.1,0-29.2,13.1-29.2,29.2s13.1,29.2,29.2,29.2,29.2-13.1,29.2-29.2-13.1-29.2-29.2-29.2ZM473.5,142.5c-12,0-21.8-9.8-21.8-21.8s9.8-21.8,21.8-21.8,21.8,9.8,21.8,21.8-9.8,21.8-21.8,21.8Z"/>
      </g>
      <g>
        <polygon class="st2" points="522.1 206.5 542.4 206.5 542.4 201.5 522.1 201.5 522.1 188.4 543.7 188.4 543.7 183.3 516.3 183.3 516.3 225.2 522.1 225.2 522.1 206.5"/>
        <path class="st15" d="M625.2,226.3c2.8,0,5.2-.5,7.2-1.4,2.1-.9,3.8-2.2,5.1-3.7s2.3-3.3,3-5.3,1-4.1,1-6.2v-26.4h-5.9v26.1c0,1.4-.2,2.8-.5,4.2-.4,1.4-.9,2.7-1.7,3.8-.8,1.1-1.9,2-3.2,2.7s-3,1-4.9,1-3.6-.3-5-1c-1.3-.7-2.4-1.6-3.2-2.7s-1.4-2.4-1.7-3.8c-.4-1.4-.5-2.8-.5-4.2v-26.1h-5.9v26.4c0,2.1.3,4.2,1,6.2s1.7,3.8,3,5.3,3,2.8,5.1,3.7,4.5,1.4,7.2,1.4h-.1Z"/>
        <polygon class="st14" points="665.6 183.3 658 183.3 658 225.2 663.8 225.2 663.8 191 664 191 686.1 225.2 693.5 225.2 693.5 183.3 687.7 183.3 687.7 216.8 687.5 216.8 665.6 183.3"/>
        <path class="st11" d="M745.4,194.7c-1.4-2.7-3.1-4.8-5.3-6.5-2.2-1.7-4.6-2.9-7.3-3.7s-5.4-1.2-8.1-1.2h-14.4v42h14.4c2.7,0,5.4-.4,8.1-1.3s5.1-2.1,7.3-3.8c2.2-1.7,3.9-3.9,5.3-6.5,1.3-2.6,2-5.7,2-9.3s-.7-6.9-2-9.5v-.2ZM739.8,210.9c-.9,2-2.1,3.6-3.6,5-1.6,1.3-3.4,2.4-5.6,3.1s-4.5,1.1-7,1.1h-7.3v-31.7h7.3c2.5,0,4.9.3,7,1s4,1.7,5.6,3,2.8,3,3.6,4.9c.9,2,1.3,4.3,1.3,6.9s-.4,4.7-1.3,6.7Z"/>
        <path class="st10" d="M778.6,183.3h-5.3l-18.2,42h6.5l4.2-10.3h19.9l4.3,10.3h6.6l-18-42ZM767.9,209.8l7.9-19.7,7.8,19.7h-15.7,0Z"/>
        <polygon class="st17" points="819.6 188.4 833 188.4 833 183.3 800.3 183.3 800.3 188.4 813.7 188.4 813.7 225.2 819.6 225.2 819.6 188.4"/>
        <rect class="st12" x="846.9" y="183.3" width="5.9" height="42"/>
        <polygon class="st13" points="933.8 183.3 926.2 183.3 926.2 225.2 932.1 225.2 932.1 191 932.2 191 954.4 225.2 961.8 225.2 961.8 183.3 955.9 183.3 955.9 216.8 955.8 216.8 933.8 183.3"/>
        <path class="st16" d="M574.9,182.1c-12.2,0-22.1,9.9-22.1,22.1s9.9,22.1,22.1,22.1,22.1-9.9,22.1-22.1-9.9-22.1-22.1-22.1h0ZM574.9,220.7c-9.1,0-16.5-7.4-16.5-16.5s7.4-16.5,16.5-16.5,16.5,7.4,16.5,16.5-7.4,16.5-16.5,16.5Z"/>
        <path class="st9" d="M890.3,182.1c-12.2,0-22.1,9.9-22.1,22.1s9.9,22.1,22.1,22.1,22.1-9.9,22.1-22.1-9.9-22.1-22.1-22.1h0ZM890.3,220.7c-9.1,0-16.5-7.4-16.5-16.5s7.4-16.5,16.5-16.5,16.5,7.4,16.5,16.5-7.4,16.5-16.5,16.5Z"/>
      </g>
    </g>
    <g>
      <path class="st18" d="M407.7,207.1c4.6-5.7,7.4-13.8,7.4-13.8l-222.3,6.7,214.9,7.1h0Z"/>
      <path class="st23" d="M386.1,233.5c5-5,8.1-11,8.1-11l-184.1,6.4,176,4.6Z"/>
      <path class="st22" d="M307.7,263.7c30,0,41-9.9,41-9.9l-81.6,2s10.7,7.9,40.6,7.9Z"/>
      <g>
        <path class="st20" d="M492.8,166.9l-225.2,3.1c-8.5-9.9-16.2-20.6-22.9-31.4,2.8-3.1,5.7-5.3,8.4-5,10.6,1.1,3.6,26.8,22.2,17.4,14.3-7.2-6.1-22.8-15.2-35.5-23.6-32.7,5.1-30.8,3.6-17-1.4,13.8,7.8,20.6,9.1,10,1.3-10.5,8.8-5.3,15.8-9.7s13.7-5.2,18.9-35.6c3.1-18.3-26.2-14.7-30.9-7.1-7.7,12.6-16.1,5.4-21.4,5.4s-18.9-1.8-21.5,27.2c-1.1,11.7-3.3,17.6-5.6,20.5-8-15.9-13.6-29.9-16.6-38.8,21.3-27,54.3-44.3,91.4-44.3s67.4,16,88.7,41.1c-.6.3-1.1.7-1.7,1.3-7.2,8.2,4.5,23.3,12.2,21.6,1.7-.4,2.7-1.5,3.1-3.1,8.9,16.5,14,35.3,14,55.3s-1,17.2-2.8,25.4h6.5c1.9-8.6,2.9-17.5,2.9-26.6,0-67.9-55-122.9-122.9-122.9s-122.9,55-122.9,122.9,1.3,20.2,3.6,29.7h3.2l-169.9,2.3,471.9,4.7c2.1-4.2,3.6-8.9,4.2-11.2h-.2v.3Z"/>
        <path class="st19" d="M399.2,102.1c-7,3.4-5.8,14.6-2.7,19.6,11.3,18.3,20.2,1.3,17.2-8.8-1.9-6.3-8.3-13.8-14.4-10.8h-.1Z"/>
        <path class="st21" d="M311.6,94.3c-8.7,5.2-7.5,14.1-12.6,18.1-9.8,7.7-22.6,1.8-21.6,14.1.8,10.1,30.5,1.5,35.7-5.7,3.5-4.8,3.6-15.6,10.2-17.6,25.8-7.7,22.8,18.1,41.2,16.6,20.4-1.7,20.5-33.5,7.9-34.8s-20.2-7.1-21.2-21c-.9-13.9-10.9-14.4-21.2-9.2-18.2,9.2,6.9,24.2-18.4,39.4h0Z"/>
      </g>
    </g>
  </g>
</svg>