<?xml version="1.0" encoding="UTF-8"?>
<svg id="Layer_1" xmlns="http://www.w3.org/2000/svg" version="1.1" viewBox="0 0 355.6 67.2">
  <!-- Generator: Adobe Illustrator 29.5.0, SVG Export Plug-In . SVG Version: 2.1.0 Build 137)  -->
  <defs>
    <style>
      .st0 {
        fill: #001a4a;
      }
    </style>
  </defs>
  <g id="SAN_logo">
    <path class="st0" d="M3,18.5l.7-3.9h13.8c1.6,0,2.6-.9,2.6-2.2s-.7-1.6-1.9-1.6h-8.3c-3.2,0-5-1.8-5-4.4S7.5.3,11.8.3h13.2l-.7,3.9h-13.2c-1.3,0-2.1.8-2.1,2.1s.6,1.4,1.5,1.4h8.2c3.3,0,5.1,1.4,5.1,4.2s-2.4,6.6-7,6.6H3Z"/>
    <path class="st0" d="M32.2,13.6l.7-3.8h6.8c2.2,0,3.6-1.4,3.6-3.3s-.9-2.3-2.6-2.3h-9.1l-2.5,14.3h-3.9L28.4.3h13c3.8,0,5.8,2.1,5.8,5.4s-3.2,8-8.2,8h-6.8Z"/>
    <path class="st0" d="M62.9,18.5l-1.8-4.3h-7.7l2.3-3h4.1l-2.4-5.6-9.9,13h-4.4L56.5,1.3c.6-.8,1.3-1.3,2.1-1.3s1.3.5,1.7,1.3l7.3,17.2h-4.7Z"/>
    <path class="st0" d="M75.3,18.5c-4.6,0-7.5-3.3-7.5-7.8S72.7.3,78.5.3h10.1l-.7,3.9h-10.1c-3.3,0-6.1,2.6-6.1,6.1s1.7,4.3,4.3,4.3h10.1l-.7,3.9h-10.1Z"/>
    <path class="st0" d="M87.7,18.5L90.9.3h16.6l-.7,3.9h-12.7l-1.8,10.4h12.7l-.7,3.9h-16.6ZM95.2,10.8l.6-3.1h9.7l-.6,3.1h-9.7Z"/>
    <path class="st0" d="M132.9,18.5l-1.8-4.3h-7.7l2.3-3h4.1l-2.4-5.6-9.9,13h-4.4L126.5,1.3c.6-.8,1.3-1.3,2.1-1.3s1.3.5,1.7,1.3l7.3,17.2h-4.7Z"/>
    <path class="st0" d="M145.3,18.5c-4.6,0-7.5-3.3-7.5-7.8S142.6.3,148.5.3h10.1l-.7,3.9h-10.1c-3.3,0-6.1,2.6-6.1,6.1s1.7,4.3,4.3,4.3h10.1l-.7,3.9h-10.1Z"/>
    <path class="st0" d="M166.1,18.5c-4.6,0-7.5-3.3-7.5-7.8S163.5.3,169.3.3h10.1l-.7,3.9h-10.1c-3.3,0-6.1,2.6-6.1,6.1s1.7,4.3,4.3,4.3h10.1l-.7,3.9h-10.1Z"/>
    <path class="st0" d="M178.5,18.5l3.2-18.2h16.6l-.7,3.9h-12.7l-1.8,10.4h12.7l-.7,3.9h-16.6ZM186.1,10.8l.6-3.1h9.7l-.6,3.1h-9.7Z"/>
    <path class="st0" d="M197.6,18.5l3.2-18.2h3.9l-2.5,14.3h11.8l-.7,3.9h-15.7Z"/>
    <path class="st0" d="M215.3,18.5l3.2-18.2h16.6l-.7,3.9h-12.7l-1.8,10.4h12.7l-.7,3.9h-16.6ZM222.9,10.8l.6-3.1h9.7l-.6,3.1h-9.7Z"/>
    <path class="st0" d="M250.7,18.5l-3.6-5h-5.7l.6-3.3h7.1c2.3,0,3.6-1.5,3.6-3.7s-.9-2.4-2.5-2.4h-9.4l-2.5,14.3h-3.9l3.2-18.2h13.2c3.7,0,5.7,2.1,5.7,5.5s-1.9,6.2-4.9,7.3l4.5,5.5h-5.5Z"/>
    <path class="st0" d="M276.2,18.5l-1.8-4.3h-7.7l2.3-3h4.1l-2.4-5.6-9.9,13h-4.4l13.4-17.2c.6-.8,1.3-1.3,2.1-1.3s1.3.5,1.7,1.3l7.3,17.2h-4.7Z"/>
    <path class="st0" d="M285,18.5l2.5-14.3h-6.7l.7-3.9h17.3l-.7,3.9h-6.7l-2.5,14.3h-3.9Z"/>
    <path class="st0" d="M297.6,18.5l3.2-18.2h3.9l-3.2,18.2h-3.9Z"/>
    <path class="st0" d="M313.1,18.5c-4.6,0-7.5-3.3-7.5-7.8s4.9-10.4,10.7-10.4h4.5c4.7,0,7.7,3,7.7,7.4s-5,10.8-10.9,10.8h-4.5ZM318.3,14.6c3.4,0,6.2-2.6,6.2-6.1s-1.7-4.3-4.3-4.3h-4.5c-3.3,0-6.1,2.6-6.1,6.1s1.7,4.3,4.3,4.3h4.5Z"/>
    <path class="st0" d="M334.8,6l-2.2,12.5h-3.7l2.9-16.2c.3-1.4,1.2-2.3,2.4-2.3s1,.2,1.5.7l9.8,11.8,2.3-12.5h3.7l-2.9,16.3c-.3,1.5-1.2,2.3-2.4,2.3s-1-.2-1.5-.8l-9.9-12Z"/>
    <path class="st0" d="M13.1,39.3l-4.9,27.3H0L6.4,31.3c.6-3.1,2.6-5,5.2-5s2.2.4,3.2,1.6l21.8,25.8,5-27.3h8.3l-6.4,35.7c-.6,3.2-2.7,5.1-5.3,5.1s-2.3-.5-3.2-1.6l-21.9-26.2Z"/>
    <path class="st0" d="M49.1,66.6l7.1-39.9h36.8l-1.5,8.6h-28.2l-4.1,22.8h28.2l-1.6,8.6h-36.9ZM65.8,49.7l1.2-6.7h21.5l-1.2,6.7h-21.5Z"/>
    <path class="st0" d="M104,66.6l5.6-31.3h-14.9l1.5-8.6h38.5l-1.5,8.6h-14.9l-5.6,31.3h-8.7Z"/>
    <path class="st0" d="M166.5,54l-7.5,10.5c-1.3,1.9-3.1,2.7-4.9,2.7s-3.3-.9-4-2.7l-13.9-37.7h10.4l10,28.4,7-9.4-6.6-19h10.4l9.1,28.4,20.2-28.4h9.8l-27.5,37.7c-1.3,1.8-3.1,2.7-5,2.7s-3.3-.8-4-2.7l-3.6-10.5Z"/>
    <path class="st0" d="M216.4,66.6c-10.2,0-16.7-7.3-16.7-17.1s10.9-22.8,23.9-22.8h10c10.5,0,17.1,6.6,17.1,16.2s-11,23.6-24.2,23.6h-10ZM228,58.1c7.6,0,13.7-5.8,13.7-13.3s-3.7-9.5-9.7-9.5h-10c-7.4,0-13.6,5.8-13.6,13.3s3.7,9.5,9.5,9.5h10Z"/>
    <path class="st0" d="M288.1,66.6l-7.9-10.9h-12.6l1.3-7.3h15.7c5,0,8-3.2,8-8s-2-5.2-5.6-5.2h-20.8l-5.6,31.3h-8.6l7.1-39.9h29.5c8.3,0,12.8,4.7,12.8,12s-4.3,13.5-10.8,15.8l10,12h-12.3Z"/>
    <path class="st0" d="M303.5,66.6l7.1-39.9h8.7l-7.1,39.9h-8.7ZM336.4,66.6l-17.1-16.9c-.9-.9-1.2-1.9-1.2-2.7,0-1.4,1.1-3.3,3-4.7l21.3-15.6h13.2l-27.7,19.7,21.3,20.2h-12.8Z"/>
  </g>
</svg>