<?xml version="1.0" encoding="UTF-8"?>
<svg xmlns="http://www.w3.org/2000/svg" version="1.1" viewBox="0 0 2380.2 1035.2">
  <!-- Generator: Adobe Illustrator 28.6.0, SVG Export Plug-In . SVG Version: 1.2.0 Build 709)  -->
  <g>
    <g id="Layer_1">
      <path d="M441.7,897.7c0,40.9,14.3,57,36.2,57,54.7,0,141.9-127.7,138.6-261.8,83-87.5,182.4-224.6,182.4-334.5s-7.5-49-39-49c-48.2,0-117,83-160.7,165.5-42.1,85.4-81.5,182.8-133.8,316.5-12.2,33.5-23.7,74.2-23.7,106.3h0ZM1625.3,715.4v68.8s34.1,24.6,100.7,24.6c101,0,145.4-56.4,145.4-117.9,0-133.3-179.5-101.4-179.5-189.9s26.5-57.3,70.9-57.3,90.1,27.7,90.1,27.7v-63.7s-35.5-19.7-86.7-19.7c-86.4,0-140.2,53.9-140.2,118.7,0,131.8,178.9,106,178.9,191.9s-32.5,53.8-74.4,53.8c-60.1,0-105.1-37.1-105.1-37.1h0ZM2277.2,799.4h-64.2v-228.8c0-85.1-31.1-127.7-93.2-127.7-32.1,0-58.7,12.1-79.7,36.2-21,24.2-31.5,54.6-31.5,91.5v228.8h-64.2v-401.1h64.2v66.6h1.6c30.3-50.7,74.2-76,131.6-76,43.9,0,77.4,14.2,100.7,42.5,23.2,28.3,34.9,69.3,34.9,122.8v245.2ZM1555.2,799.4h-64.2v-230.3c0-44.4-6.9-76.5-20.6-96.4-13.7-19.8-36.8-29.8-69.1-29.8-27.4,0-50.7,12.5-69.9,37.6-19.2,25.1-28.8,55.1-28.8,90.1v228.8h-64.2v-238.2c0-78.9-30.4-118.3-91.3-118.3-28.2,0-51.4,11.8-69.7,35.5-18.3,23.6-27.4,54.4-27.4,92.3v228.8h-64.2v-401.1h64.2v63.5h1.6c28.5-48.6,70-72.9,124.6-72.9,27.4,0,51.3,7.6,71.7,22.9,20.4,15.3,34.3,35.3,41.9,60.1,29.8-55.4,74.2-83,133.2-83,88.3,0,132.4,54.5,132.4,163.4v247.2ZM204.6,987.2c-54.9,0-101.6-34.4-101.6-112.5,0-120.5,103.7-212,150.7-237.9,0,0,65.8,37.9,134.1,62.3-135.7-85.8-222.4-242.2-222.4-415.8S251.1,48,328.4,48s209.6,68.4,209.6,331-147.4,608.2-333.4,608.2h0Z"/>
    </g>
  </g>
</svg>