<?xml version="1.0" encoding="UTF-8"?>
<svg xmlns="http://www.w3.org/2000/svg" version="1.1" viewBox="0 0 964.2 419.3">
  <defs>
    <style>
      .cls-1 {
        fill: #090d21;
      }
    </style>
  </defs>
  <!-- Generator: Adobe Illustrator 28.6.0, SVG Export Plug-In . SVG Version: 1.2.0 Build 709)  -->
  <g>
    <g id="Layer_1">
      <g>
        <g>
          <path class="cls-1" d="M416.2,148.3c0-3.5,2.9-6.4,6.4-6.4s6.4,2.9,6.4,6.4v88.1h36.3c3.2,0,5.8,2.5,5.9,5.7,0,0,0,.1,0,.2,0,3.3-2.5,6-5.8,6,0,0,0,0,0,0h-42.7c-3.5,0-6.4-2.9-6.3-6.5,0,0,0,0,0,0v-93.5Z"/>
          <path class="cls-1" d="M482.5,152.9c0-4.1,3.3-7.5,7.4-7.5,0,0,0,0,.1,0,4.1,0,7.5,3.4,7.5,7.5,0,4.1-3.4,7.5-7.5,7.5-4.1,0-7.5-3.4-7.5-7.5ZM484,176.4c0-3.3,2.6-6,5.9-6,0,0,.1,0,.2,0,3.3,0,6,2.7,6,6v66.9c0,3.3-2.6,6.1-6,6.2,0,0,0,0,0,0-3.3,0-6-2.6-6-5.9,0,0,0-.2,0-.2v-66.9Z"/>
          <path class="cls-1" d="M523.9,171.5c1.2-18.3,14.1-29.8,31.7-29.8,3.1,0,5.6,2.5,5.6,5.6s-2.5,5.6-5.6,5.6c-11.1,0-18.5,6.6-19.5,18.7h19.6c3,0,5.5,2.3,5.6,5.4,0,0,0,.1,0,.2,0,3.1-2.5,5.6-5.6,5.6h-19.7v60.6c0,3.4-2.6,6.1-6,6.2,0,0,0,0,0,0-3.3,0-6-2.6-6-5.9,0,0,0-.2,0-.2v-60.6h-8c-3.1,0-5.6-2.5-5.6-5.5,0,0,0,0,0,0,0-3,2.3-5.5,5.4-5.6,0,0,.1,0,.2,0h8Z"/>
          <path class="cls-1" d="M564.2,209.9c0-22.3,17.1-39.9,39.7-39.9,11,0,20.2,4.2,26,9.6,2.6,2.1,3,5.9.9,8.5-.2.2-.4.5-.6.7l-26.7,32c-1,1.3-2.6,2-4.2,2-3.3,0-5.7-2.3-5.7-5.4,0-1.4.4-2.7,1.3-3.8l23.4-27.7c-3.9-3.3-9.5-4.8-14.4-4.8-15.3,0-27.5,12.7-27.5,28.7,0,15.9,12,28.7,27.5,28.7,7.7,0,15-3.2,20-9,1.7-1.5,3-2.7,5.1-2.7,3.2-.2,5.9,2.3,6,5.4,0,.1,0,.2,0,.3-.1,1.5-.8,2.9-1.8,4.1-6.3,7.5-16.7,13.1-29.3,13.1-22.4,0-39.7-17.6-39.7-39.9Z"/>
          <path class="cls-1" d="M647.4,224.7c0-3.4,2.7-6.1,6-6.2,0,0,0,0,.1,0,2.9,0,5.5,1.9,6,4.8,1.2,6,7.7,14.3,19.7,14.3,11.6,0,19.4-8.7,19.4-17.9,0-12.3-10.2-16.7-18.2-18.9l-7.5-2.1c-9.5-2.9-24.5-9.2-24.5-28.9,0-16.4,13.1-28.4,31-28.4,18.3,0,30.5,12.5,30.5,24.2,0,3.4-2.7,6.1-6,6.2,0,0,0,0-.1,0-3,.1-5.7-2.1-6-5.1-1.2-5.9-6.9-13.4-18.4-13.4s-18.2,8.3-18.2,17.3c0,12,11.5,15.9,17.9,17.7l6.8,1.9c9.8,2.9,25.6,8.7,25.6,30.2,0,15.9-13.8,29.2-32.2,29.2-18.2,0-31.9-13.3-31.9-24.9Z"/>
          <path class="cls-1" d="M729.2,147.7c0-3.3,2.6-6,5.8-6,0,0,.1,0,.2,0,3.3,0,6,2.7,6,6v31.6c5.9-6.1,14-9.5,22.4-9.3,17.6,0,31.6,12.9,31.6,34.7v38.5c0,3.4-2.6,6.1-6,6.2,0,0,0,0,0,0-3.3,0-6-2.7-6-6,0,0,0-.1,0-.2v-38.8c0-15.5-9.3-23.3-21.1-23.3-11.5,0-20.9,7.6-20.9,23.3v38.8c0,3.4-2.6,6.1-6,6.2,0,0,0,0,0,0-3.3,0-6-2.6-6-5.9,0,0,0-.2,0-.2v-95.5Z"/>
          <path class="cls-1" d="M814,152.8c0-4.1,3.3-7.5,7.4-7.5,0,0,0,0,.1,0,4.1,0,7.5,3.4,7.5,7.5,0,4.1-3.4,7.5-7.5,7.5-4.1,0-7.5-3.4-7.5-7.5ZM815.5,176.2c0-3.3,2.6-6,5.9-6,0,0,.1,0,.2,0,3.3,0,6,2.7,6,6v66.9c0,3.4-2.6,6.1-6,6.2,0,0,0,0,0,0-3.3,0-6-2.6-6-5.9,0,0,0-.2,0-.2v-66.9Z"/>
          <path class="cls-1" d="M859.9,237.6v34.2c0,3.4-2.6,6.1-6,6.2,0,0,0,0,0,0-3.3,0-6-2.6-6-5.9,0,0,0-.2,0-.2v-95.5c0-3.3,2.5-6,5.8-6,0,0,.1,0,.2,0,3.3,0,6,2.7,6,6v5.7c7.3-7.7,17.5-12.1,28.1-12.1,22.1,0,39,17.6,39,39.8,0,22.3-16.8,39.9-38.9,39.9-10.6.1-20.9-4.3-28.1-12.1ZM914.8,209.7c0-16.2-12.2-28.7-27.5-28.7-15,0-26.7,11.9-27.4,27.5v2.4c.6,15.6,12.3,27.5,27.4,27.5,15.3,0,27.5-12.5,27.5-28.7Z"/>
        </g>
        <g>
          <path class="cls-1" d="M347.2,368.9H43.3c-3.4,0-6.1-2.7-6.1-6.1,0-1.1.3-2.1.8-3L190,96.6c1.7-2.9,5.4-3.9,8.3-2.2.9.5,1.7,1.3,2.2,2.2l78.1,135.3c1.7,2.9.7,6.6-2.2,8.3-2.9,1.7-6.6.7-8.3-2.2l-72.9-126.2L53.8,356.8h282.9l-28.8-49.8c-1.5-3-.4-6.6,2.6-8.2,2.8-1.4,6.2-.5,7.9,2.1l34,58.9c1.7,2.9.7,6.6-2.2,8.3-.9.5-2,.8-3,.8h0Z"/>
          <path class="cls-1" d="M195.3,320.4c-24.4,0-48.3-6.6-69.2-19.1-2.9-1.7-3.8-5.4-2.1-8.3s5.4-3.8,8.3-2.1c58.2,34.7,133.4,15.7,168.1-42.5,34.7-58.2,15.7-133.4-42.5-168.1-58.2-34.7-133.4-15.7-168.1,42.5-19.6,33-22.7,73.2-8.4,108.8,1.4,3.1,0,6.6-3.1,8-3.1,1.4-6.6,0-8-3.1,0-.1-.1-.2-.2-.4-6.5-16.1-9.9-33.3-9.8-50.7,0-74.4,60.5-135,134.9-135s135,60.5,135,135-60.5,135-135,135Z"/>
        </g>
      </g>
    </g>
  </g>
</svg>