<?xml version="1.0" encoding="UTF-8"?>
<svg id="Layer_1" data-name="Layer 1" xmlns="http://www.w3.org/2000/svg" version="1.1" viewBox="0 0 1279.8 478.9">
  <defs>
    <style>
      .cls-1 {
        fill: #0f1322;
        stroke-width: 0px;
      }
    </style>
  </defs>
  <path class="cls-1" d="M1084.9,478.9c-4.5-11.3-9.2-22.5-13.3-33.9-1.7-4.6-3.8-7-8.9-6.1-1.9.3-4,0-6.4,0v-31.7c1.6-.3,3.2-.5,5.3-.9,0-6.9,2-14.5-.5-20.3-3.3-7.7-1.4-15.3-3.1-23.2h-12.2v-30.4h24.9c0-5.3-.3-9.9,0-14.5.3-3.8-1.8-7.9,2.6-11.3,1.3-1,.2-5.3.2-8.3-1.8-.3-3.4-.6-5.2-1v-13.7c3.2-.2,6.1-.4,9.1-.6v-37.1h-10.6v-14.9h-15.3c0-8.5-.3-16.3.1-24,.2-4.6-.9-6.9-5.9-6.2-1.3.2-2.6-.1-4.4-.2v-65h-10.7v-28.7c-3.5-.2-6.4-.3-9.7-.4v-42.2h13.7v-12.3c2.5-.3,4.4-.6,7.1-.9,0-4.5-.2-8.9.1-13.3.1-1.7,1.2-3.9,2.5-4.8,14.9-10,29.9-20,45.2-29.5,3.3-2,7.9-2,11.9-2.8,2.4-.5,4.9-.7,7.3-1,7.3,0,14.7,0,22,0,5.1.6,10.2,1.3,15.2,1.9,43,5.5,75.5,26.3,95,65.8,9.5,19.1,14.6,39.5,17.5,60.6.2,1.5.6,3.5,1.7,4.4,9.5,8.4,13.5,19.6,16.4,31.3,1.5,6.2,2.1,12.7,3.1,19v6c-.3.9-.7,1.9-.7,2.8-.8,19.3-6.8,37-17.2,53-3.5,5.4-8.5,10.3-13.7,14.2-3.5,2.6-5.1,5.2-5.3,9.3-1,23.1-2.5,46.2-2.9,69.3-.5,31.1-.3,62.3-.2,93.5,0,3.6-1.2,5.7-4.1,7.7-30.3,20.5-64,31.7-99.8,37.2-8,1.2-16.1,2-24.2,3h-27ZM1111.7,123.6v49.9h-13v17.1h-17.1v39.2h17c0,3.1.3,5.6,0,8-.8,5.2,1.2,7.7,6.4,8.9,5.1,1.2,10,3.6,15,5.5,0,.8,0,1.6-.1,2.4-7,1.5-13.9,3-20.9,4.6v30.2h38.3c.1.5.2,1,.3,1.5-10.1,12.2-25.2,9.1-39.1,11.3v14.2h-12.6c0,9-.1,17.3.2,25.6,0,1,2.1,2.7,3.3,2.9,2.9.4,5.9.1,9,.1.1,2.2.5,3.7.2,5.1-.7,4.4,1.7,5.8,5.5,5.4,4.6-.5,9.5-.4,13.7-2.1,19.6-7.8,39-16.1,58.5-24.3,3.5-1.5,6.9-3.2,11.4-5.3-.9,1.9-1.2,2.7-1.6,3.4-9.1,16.8-21.7,30.7-38.1,40-9.9,5.6-15.6,12.7-17,23.6-.4,3.4-2,4.4-5.3,4.2-5.9-.2-11.8,0-17.5,0v42.4h15.3c.2,1,.4,1.6.5,2.3,2.5,12.7,6.1,15.1,18.6,12.2.5-.1,1-.3,1.4-.4,26.1-7,50.1-19,73.9-31.2,1.3-.7,2.3-3.1,2.3-4.7.5-35.1.6-70.3,1.4-105.4.4-17.1,2.1-34.2,3.1-51.3.4-6.5,3.1-11,9.3-14,3.9-1.8,7.8-4.9,10.2-8.4,12-17.7,17.9-37.3,15.1-58.6-1.1-8.9-4.8-17.5-8.1-26-1.7-4.4-5.3-6.9-10.5-2.9-.9-19.6-3.8-38.3-10.1-56.3-12.7-35.9-35.7-60.9-74.1-69-10.5-2.2-21.3-3.6-32.1-4.4-9.7-.7-19.5-.2-29.5-.2-.2,4-.4,7.4-.6,11.2h-14.6c-.2,3.9-.4,7.2-.7,10.6-1.2.2-1.9.4-2.5.3-5.4-.9-6.7,1.5-6.5,6.6.4,10.2.3,20.3,0,30.5-.1,4.1,1,5.6,5.3,5.4,7.6-.3,15.2,0,23.4,0v40h13Z"/>
  <path class="cls-1" d="M0,159h33.7v168H0v-168Z"/>
  <path class="cls-1" d="M155.4,159.1h33.4v170.6c-33.6-32-66.5-63.3-100.4-95.5v92.3h-33.2v-170.3c33.4,31.8,66.3,63.1,100.2,95.4v-92.5Z"/>
  <path class="cls-1" d="M368.3,159.2c0,2.8,0,4.7,0,6.7,0,31,0,62,0,93,0,23.3,20.8,39.8,42.3,34.1,14.7-4,25.3-17.5,25.3-32.8,0-31.5,0-63,0-94.5,0-2,0-3.9,0-6.2h33.7c.1,1.8.3,3.4.3,5,0,32.3,0,64.7,0,97,0,29.1-19.7,56.2-47.8,63.8-46.4,12.6-80.8-18-86.8-52.9-.8-4.9-1-10-1-14.9,0-30.8,0-61.7-.1-92.5,0-4.6,1.3-6,5.9-5.8,9.1.3,18.3.1,28.2.1Z"/>
  <path class="cls-1" d="M883.6,326.5v-167.3h100.1v33.3h-66.5v33.4c1.8,0,3.6.3,5.3.3,13.5,0,27,.1,40.5,0,3.5,0,4.7,1,4.6,4.5-.2,9.5,0,18.9,0,29.1h-50.3v33.6h66.7v33.2h-100.3Z"/>
  <path class="cls-1" d="M792.9,250.7c12.9-29.6,25.4-58.1,37.6-86.7,1.6-3.7,3.3-5,7.3-4.9,9.9.3,19.9.1,31,.1-25.4,57.2-50.3,113.5-75.9,171.3-25.4-57.6-50.3-113.9-75.4-170.8,1.9-.2,3.2-.4,4.6-.4,8.8,0,17.7.1,26.5,0,3.4,0,5,1,6.3,4.1,11.5,26.9,23.2,53.7,34.9,80.6.8,1.9,1.7,3.8,3.1,6.8Z"/>
  <path class="cls-1" d="M279.1,326.4h-34.1v-133.5h-40.7v-33.3h115.3v33h-40.5v133.9Z"/>
  <path class="cls-1" d="M654.5,192.7h-40.5v133.6h-33.9v-133.5h-40.8v-33.3h115.3v33.2Z"/>
  <path class="cls-1" d="M702.6,326.7c-10.4,0-20.6,0-30.7-.1-.9,0-2.1-1.6-2.6-2.7-.4-.8-.1-2-.1-3,0-52,0-104,0-155.9,0-4.5,1.1-6.1,5.8-5.9,9.1.4,18.3.1,27.7.1v167.5Z"/>
  <path class="cls-1" d="M490.9,159.5h32.8v167h-32.8v-167Z"/>
  <path class="cls-1" d="M525.9,402.9c14.3-19.6,28-38.4,42.5-58.2v88.8h-17.4v-33.9c-.3-.1-.7-.2-1-.3-7.9,10.8-15.7,21.6-24,33.1-8.2-11.2-16.1-22.1-24.8-34v35h-17.7v-88.6c14.4,19.7,28.2,38.6,42.5,58.1Z"/>
  <path class="cls-1" d="M827.9,87.8V27.3h63v60.6h-63Z"/>
  <path class="cls-1" d="M839,433.5v-88.7c17.5,16.6,34.3,32.6,51.9,49.3v-47.6h17.6v88.6c-17.3-16.5-34.2-32.5-52-49.5v47.8h-17.4Z"/>
  <path class="cls-1" d="M781.9,399h-28.9v34.5h-17.6v-86.8h17.3v34.1h29.1v-34.5c5.4,0,10.4-.2,15.3.2.9,0,2.3,2.5,2.4,3.8.2,7.5.1,15,.1,22.5,0,18.3,0,36.6,0,54.9v5.7h-17.6v-34.5Z"/>
  <path class="cls-1" d="M920,433.6v-87.5c7.9,0,15.6,0,23.2,0,8.2,0,16.3.1,24.5,0,3.3,0,4.7.7,4.7,4.4.2,13.4.3,13.4-13.1,13.4h-21.8v17.2h25.8v17.7h-25.7v17.3h34.3v17.5h-51.8Z"/>
  <path class="cls-1" d="M570,66.9h57.4c0,7.6,0,14.9,0,22.2,0,9.3,0,18.6,0,28,0,3.2-.9,4.4-4.2,4.4-16.5-.1-33,0-49.4,0-2.2,0-3.9-.2-3.9-3.1,0-16.9,0-33.9,0-51.4Z"/>
  <path class="cls-1" d="M715.1,409.4c4.1,4,8.1,7.8,12,11.6-9.1,13.2-37.7,19.5-57.1,4.9-20.9-15.8-24.3-45-7.1-64.9,16.7-19.3,46.4-20.4,64-2.5-4.2,3.8-8.5,7.6-13,11.6-14.5-9.5-28.1-8.6-38,3.2-8.5,10.2-8.1,24.9.9,34.7,10,10.8,24.2,11.3,38.3,1.3Z"/>
  <path class="cls-1" d="M616,344.5c-13.6,30.4-26.5,59.5-39.9,89.3,3.7,0,6.4-.4,8.9,0,7.5,1.3,12.4-1.1,14.1-9,.7-3.4,3-4.7,6.6-4.4,4.6.3,9.4.5,14,0,8.2-1,13.7,1.1,15.7,9.8.3,1.4,2.2,3.3,3.5,3.4,5.4.4,10.8.2,17.1.2-13.4-29.9-26.4-59-39.9-89.3ZM608.3,404.6c2.5-5.9,4.8-11.2,7.7-17.9,2.8,6.5,5.1,11.9,7.7,17.9h-15.4Z"/>
  <path class="cls-1" d="M976.8,411.5c5.8-1.2,11.1-2.4,16.4-3.5,4.5,7.5,8.4,9.7,13.9,8,3.7-1.1,6.6-3.3,7.1-7.5.5-4.4-2.1-6.9-5.7-8.4-3.2-1.3-6.6-2.2-10-3.2-11.9-3.8-20.1-12.8-20.7-22.5-.9-14.2,9-26.7,22.5-28.4,15-1.9,27.3,7,30.2,22.6-5.5,1.2-11.1,2.4-16.7,3.6-.7-1.7-1-3.6-2-4.3-2.6-1.7-5.5-3.8-8.4-4.1-3.8-.4-6.4,2.5-7.4,6.2-.9,3.5,0,6.9,3.1,8.8,3,1.8,6.3,2.8,9.5,4.3,4.8,2.2,10.1,3.7,14.3,6.8,10.1,7.3,12.4,20,5.8,30.6-6.5,10.5-16.2,15.2-28.5,13.4-11.5-1.7-19.3-8.4-23-19.5-.3-.8-.2-1.6-.4-3Z"/>
  <path class="cls-1" d="M712.1,51.3h44.6v45.4c-3.3,0-6.6,0-9.8,0-10.5,0-21,0-31.5,0-2.1,0-4,0-4-3,0-13.7,0-27.3.2-41,0-.5.4-.9.6-1.4Z"/>
  <path class="cls-1" d="M354.4,53.3c0,12.9,0,25.8,0,38.6,0,2.5-.8,3.6-3.4,3.6-12.8,0-25.7,0-38.5,0-2.7,0-3.4-1.2-3.4-3.7,0-12,0-24,.2-36,0-1.2,1.8-3.4,2.8-3.4,13.7-.2,27.3,0,41,0,.3,0,.6.3,1.3.8Z"/>
  <path class="cls-1" d="M827.6,346.3v87.2h-17.3c0-1.6-.2-3.2-.3-4.8,0-25.6,0-51.2-.1-76.8,0-4.4,1.1-6,5.6-5.6,3.9.4,7.9,0,12.1,0Z"/>
  <path class="cls-1" d="M474.8,7.7v38.1h-39.8V7.7h39.8Z"/>
  <path class="cls-1" d="M988.7,141.1h-38.4v-38.3h38.4v38.3Z"/>
  <path class="cls-1" d="M253.2,109.6v28.9h-28.8v-28.9h28.8Z"/>
  <path class="cls-1" d="M1001.5,61.9h-28.3v-28.8h28.3v28.8Z"/>
  <path class="cls-1" d="M510.4,89.9h23.6v22.7c-7.3,0-14.2,0-21.2-.1-.8,0-2.3-1.5-2.3-2.4-.2-6.6-.1-13.2-.1-20.2Z"/>
  <path class="cls-1" d="M419.6,128.5h-18.1v-18.2h18.1v18.2Z"/>
  <path class="cls-1" d="M1147.1,169.2c-6.6-1.2-13.2-1.9-19.6-3.7-2.2-.6-5.1-3.8-5.1-5.8,0-2.3,2.4-5.7,4.6-6.8,12.8-6.2,26.1-7.5,39.6-2.1,3.4,1.3,5.9,3.2,6,7.1.2,4.1-2.4,6.8-5.9,7.7-6.4,1.6-13,2.4-19.7,3.6Z"/>
  <path class="cls-1" d="M1243.5,170.7c9.6,14.7,2,28.2-2.6,41.9-4.2-14.2.4-28,2.6-41.9Z"/>
</svg>