<?xml version="1.0" encoding="UTF-8"?>
<svg xmlns="http://www.w3.org/2000/svg" version="1.1" viewBox="0 0 296 104">
  <defs>
    <style>
      .cls-1 {
        fill: #edbc54;
      }

      .cls-2 {
        fill: #e49d2d;
      }

      .cls-3 {
        fill: #e6a92c;
      }

      .cls-4 {
        fill: #d99c3b;
      }

      .cls-5 {
        fill: #f3d78d;
      }

      .cls-6 {
        fill: #e8ac24;
      }

      .cls-7 {
        fill: #f4dc9a;
      }

      .cls-8 {
        fill: #fcf1bd;
      }
    </style>
  </defs>
  <!-- Generator: Adobe Illustrator 28.6.0, SVG Export Plug-In . SVG Version: 1.2.0 Build 709)  -->
  <g>
    <g id="VICE_IS_A_BUNCH_OF_OLD_DUDES">
      <g>
        <path id="path52440" d="M121.2,65.8h-4.6c0-.1-4.6-10.8-4.6-10.8v10.8h-4.5v-23.1h4.3c0,.1,4.9,11.3,4.9,11.3v-11.3h4.5v23.1Z"/>
        <path id="path52444" d="M163.3,65.8h-5c-3.1,0-4.3-1.2-4.3-4.3v-15.2c.2-3.1,2.3-3.6,4.4-3.6h4.7c3,0,4.2,1.3,4.2,4.3v2.4h-.1s-4.4,1.1-4.4,1.1h-.2c0,0,0-.2,0-.2v-3.1c0-.3-.2-.5-.6-.5h-2.5c-.2,0-.7,0-.7.6v13.7c0,.3,0,.7.5.7h2.7c.4,0,.5-.4.5-.6v-3.4h.2c0,0,4.4,1.1,4.4,1.1h.1v2.6c0,3-1.2,4.3-4.1,4.3M285.7,65.8h-11.5v-23.1h11.5v4h-6.8v5.4h5.4v4h-5.4v5.6h6.8v4Z"/>
        <path id="path52448" d="M271.9,65.8h-11.2v-23.1h4.8v19.1h6.4v4ZM253.6,65.8h-5c-3.1,0-4.3-1.2-4.3-4.3v-14.6c0-3.7,2.1-4.2,4.4-4.2h4.7c3,0,4.2,1.3,4.2,4.3v2.4h-.1s-4.4,1.1-4.4,1.1h-.2c0,0,0-.2,0-.2v-3.1c0-.3-.2-.5-.6-.5h-2.5c-.2,0-.7,0-.7.6v13.7c0,.3,0,.7.5.7h2.7c.4,0,.5-.4.5-.6v-3.4h.2c0,0,4.4,1.1,4.4,1.1h.1v2.6c0,3-1.3,4.3-4.1,4.3M241.1,65.8h-4.8v-23.1h4.8v23.1ZM233.1,65.8h-4.6c0-.1-4.6-10.8-4.6-10.8v10.8h-4.5v-23.1h4.3c0,.1,4.9,11.3,4.9,11.3v-11.3h4.5v23.1ZM183.2,65.8h-4.8v-9.8h-3.8v9.7h-4.8v-23.1h4.8v9.3h3.8v-9.3h4.8v23.1Z"/>
        <path id="path52452" d="M208.2,46.7c-.4,0-.5.2-.5.6v13.6c0,.6.3.8.7.8h2.5c.3,0,.6,0,.6-.7v-13.7c0-.5-.3-.6-.6-.6h-2.6ZM212.1,65.8h-5c-3.2,0-4.3-1.2-4.3-4.4v-14.1c0-3.3,1.2-4.6,4.4-4.6h4.8c3,0,4.2,1.3,4.2,4.6v14c0,3.2-1.2,4.5-4.1,4.5M191.3,52.7h3c.3,0,.7-.1.7-.6v-4.6c0-.6-.2-.8-.8-.8h-3v6ZM200.5,65.8h-5c0-.1-3-8.9-3-8.9h-1.2v8.9h-4.8v-23.1h9.2c2.9,0,4.3,1.3,4.3,4.3v5.2c0,2.3-.7,3.4-2.7,4.1l3.3,9.2v.3ZM84.4,65.8h-4.8v-19h-4.5v-4h13.9v4h-4.6v19ZM69,65.8h-5c-3.3,0-4.5-1.1-4.5-4.2v-4.2h.2c0,0,4.4,1.1,4.4,1.1h.2v2.6c0,.3.3.6.6.6h2.7c.1,0,.5,0,.5-.6v-2.7c0-.4-.1-.6-.6-.8l-5.1-2.3c-1.9-.9-2.8-1.7-2.8-4.1v-4c0-3.9,1.6-4.6,4.7-4.6h4.1c3.4,0,4.6,1.2,4.6,4.4v4.4h-.2c0,0-4.4-1.3-4.4-1.3h-.1v-2.8c0-.6-.3-.7-.6-.7h-2.5c-.4,0-.6.2-.6.7v2.8c0,.4.2.6.4.7l4.9,2.2c2.2,1,3.2,1.9,3.2,4.4v3.6c0,3.3-1.2,4.7-3.9,4.7M51.6,65.8h-3.6c-3.4,0-5.1-1.7-5.1-5.1v-18h4.8v18.4c0,.5.1.6.6.6h2.5c.3,0,.6-.1.6-.6v-18.4h4.8v18c0,3.3-1.7,5.1-4.7,5.1M23.3,65.8h-4.8v-9.8h-3.8v9.8h-4.8v-23.1h4.8v9.3h3.8v-9.3h4.8v23.1Z"/>
        <path id="path52456" d="M96.2,46.7c-.4,0-.5.2-.5.6v13.6c0,.6.3.8.7.8h2.5c.3,0,.6,0,.6-.7v-13.7c0-.5-.3-.6-.6-.6h-2.6ZM100.1,65.8h-5c-3.2,0-4.3-1.2-4.3-4.4v-14.1c0-3.3,1.2-4.6,4.4-4.6h4.8c3,0,4.2,1.3,4.2,4.6v14c0,3.2-1.2,4.5-4.1,4.5M32.1,46.7c-.4,0-.5.2-.5.6v13.6c0,.6.3.8.7.8h2.5c.3,0,.6,0,.6-.7v-13.7c0-.5-.3-.6-.6-.6h-2.6ZM36.1,65.8h-5c-3.2,0-4.3-1.2-4.3-4.4v-14.1c0-3.3,1.2-4.6,4.4-4.6h4.8c3,0,4.2,1.3,4.2,4.6v14c0,3.2-1.2,4.5-4.1,4.5M132,55.5h0c0,0-8.9-6.5-8.9-6.5l-.5-.4h11.8c0,0,3.4,4.8,3.4,4.8l.2.2h-.3c0,0-5.5,1.9-5.5,1.9h0s0,0,0,0Z"/>
        <path id="path52460" d="M123.1,48.8l8.9,6.5,5.5-1.8-3.4-4.7h-11Z"/>
        <path id="path52464" d="M137.5,53.9l-.2-.2-3.4-4.7h0c0,0,0-.2,0-.2l3.4-10.5.2-.6.2.6,3.4,10.5h0c0,0,0,.2,0,.2l-3.4,4.7-.2.2Z"/>
        <path id="path52468" d="M137.6,38.4l-3.4,10.5,3.4,4.7,3.4-4.7-3.4-10.5Z"/>
        <path id="path52472" d="M143.1,55.5h0s-5.5-1.8-5.5-1.8h-.3c0,0,.2-.3.2-.3l3.4-4.7h0c0,0,0,0,0,0h11s.6,0,.6,0l-.5.3-8.9,6.5h0c0,0,0,0,0,0Z"/>
        <path id="path52476" d="M152,48.8h-11s-3.4,4.7-3.4,4.7l5.5,1.8,8.9-6.5h0Z"/>
        <path id="path52480" d="M146.8,66.3l-.5-.3-8.9-6.5h0v-5.9s0-.3,0-.3h.3c0,0,5.5,1.9,5.5,1.9h0s0,.1,0,.1l3.4,10.5.2.6h0Z"/>
        <path id="path52484" d="M137.5,53.5v5.8s8.9,6.5,8.9,6.5l-3.4-10.5-5.5-1.8h0Z"/>
        <path id="path52488" d="M128.3,66.3l.2-.6,3.4-10.5h0c0,0,0-.1,0-.1l5.5-1.8h.3c0,0,0,.2,0,.2v5.8s0,0,0,0h0c0,0-8.9,6.5-8.9,6.5l-.5.3h0Z"/>
        <path id="path52492" d="M128.6,65.8l8.9-6.5v-5.8s-5.5,1.8-5.5,1.8l-3.4,10.5Z"/>
        <path id="path52496" class="cls-4" d="M123.1,48.8l14.4,4.7-5.5,1.8-8.9-6.5Z"/>
        <path id="path52500" class="cls-1" d="M134.1,48.8l3.4,4.7-14.4-4.7h11Z"/>
        <path id="path52504" class="cls-8" d="M137.6,38.4v15.1s-3.4-4.7-3.4-4.7l3.4-10.5Z"/>
        <path id="path52508" class="cls-3" d="M141,48.8l-3.4,4.7v-15.1s3.4,10.5,3.4,10.5Z"/>
        <path id="path52512" class="cls-7" d="M152,48.8l-14.4,4.7,3.4-4.7h11Z"/>
        <path id="path52516" class="cls-3" d="M143.1,55.3l-5.5-1.8,14.4-4.7-8.9,6.5Z"/>
        <path id="path52520" class="cls-1" d="M146.4,65.8l-8.9-12.3,5.5,1.8,3.4,10.5Z"/>
        <path id="path52524" class="cls-6" d="M137.5,59.3v-5.8s8.9,12.3,8.9,12.3l-8.9-6.5h0Z"/>
        <path id="path52528" class="cls-2" d="M128.6,65.8l8.9-12.3v5.8s-8.9,6.5-8.9,6.5Z"/>
        <path id="path52532" class="cls-5" d="M132,55.3l5.5-1.8-8.9,12.3,3.4-10.5Z"/>
      </g>
    </g>
  </g>
</svg>