<?xml version="1.0" encoding="UTF-8"?>
<svg xmlns="http://www.w3.org/2000/svg" version="1.1" viewBox="0 0 2380.2 1035.2">
  <defs>
    <style>
      .cls-1 {
        fill: #090d21;
      }
    </style>
  </defs>
  <!-- Generator: Adobe Illustrator 28.6.0, SVG Export Plug-In . SVG Version: 1.2.0 Build 709)  -->
  <g>
    <g id="Layer_1">
      <g>
        <path class="cls-1" d="M669.2,254.1l34.2-123.6c-65.2-17.9-133.8-18.4-199.2-1.5-65.4,17-125.1,50.8-173.3,98.2-48.2,47.4-83,106.6-101,171.7-18,65.1-18.7,133.8-1.8,199.2l-123.7,32.1c16.9,65.4,50.8,125.2,98.2,173.4,47.4,48.2,106.6,83.1,171.7,101.1,65.2,18,133.8,18.7,199.3,1.8,65.4-16.9,125.2-50.7,173.4-98.1l90.1,91.5c48.2-47.5,83.1-106.8,101.1-171.9,18-65.2,18.5-134,1.5-199.4-17-65.5-50.9-125.3-98.5-173.4-47.5-48.2-106.8-83-171.9-101ZM814,693.5c-11.8,43.3-35,82.6-67,114.1l-90-91.4c-32.1,31.5-71.9,54.2-115.5,65.5-43.6,11.3-89.4,11-132.8-.9-43.4-11.9-82.9-35.1-114.5-67.2s-54.3-71.9-65.6-115.4l123.7-32.3c-11.3-43.6-11-89.4.9-132.9,11.9-43.4,35.2-82.9,67.3-114.5,32.1-31.6,72-54.2,115.6-65.5s89.4-11,132.9,1l-34.2,123.6c32.5,8.9,63,24.2,89.5,44.9,26.6,20.7,48.8,46.4,65.5,75.8,16.7,29.3,27.3,61.6,31.5,95.1s1.7,67.4-7.3,100h-.1Z"/>
        <g>
          <path class="cls-1" d="M1045.8,555c-.4-29.6,9.4-54.8,29.6-75.2,20.2-20.6,45.4-30.6,75.5-30.1,23.3,0,43.2,5.7,60,17.1,16,10.7,27.9,26.7,33.3,45.2l-39.5,15.4c-9.7-27.6-27.7-41.3-54.2-41.3s-32.6,6.1-43,18.2c-10.3,12.1-15.7,29-15.7,50.8s5.2,39,15.5,51.1,24.7,18.2,43.1,18.2c26.9,0,45.4-13.9,55.4-41.6l38.7,15.7c-7.4,20.2-19.1,35.7-34.9,46.6-15.8,10.9-35.5,16.2-59,16.2s-56.4-9.9-75.6-29.7c-19.5-19.9-29.2-45.4-29.2-76.4Z"/>
          <path class="cls-1" d="M1262.2,656.4v-106.6c0-4.9.9-9.8,2.9-14.3,1.9-4.5,4.8-8.6,8.2-11.9,3.6-3.4,7.7-6.1,12.3-7.8,4.6-1.7,9.4-2.5,14.3-2.4l61.5,2.3-1.3,35-57-2.3v108.1h-41Z"/>
          <path class="cls-1" d="M1487.7,511.9h43l-60.2,167.3c-4.2,11.8-9.8,20.3-16.7,25.6-6.9,5.3-16.4,8-28.6,8h-43v-32.6h37.5c4.1.3,8.1-.9,11.3-3.4,3.4-3.8,6-8.4,7.4-13.1l2.7-7.4-69.9-143.8h43.9l24,55.2c7.3,17.6,13.3,30.9,17.9,40.2,2.9-8.2,7.6-22.7,14.2-43l16.6-52.8Z"/>
          <path class="cls-1" d="M1538.5,584.2c0-22.7,7.2-41.1,21.4-55.4,14.2-14.2,32.5-21.2,54.6-21.1,22.3,0,40.6,7,54.8,21.1,14.2,14.1,21.2,32.5,21.2,55.4s-7,41.6-21.1,55.7c-14.1,14.1-32.4,21.1-54.9,21.1s-39.8-7.3-54.2-21.8c-14.5-14.5-21.8-32.9-21.8-55ZM1638.8,617.4c5.8-7.4,8.9-18.2,8.8-32.5-.1-14.3-2.9-25.3-8.8-33-2.9-3.7-6.6-6.6-10.9-8.6s-8.9-3.1-13.5-3.1-9.3,1.1-13.5,3.1-8,5-10.9,8.6c-5.8,7.8-8.8,18.8-8.8,33s2.9,25.1,8.8,32.5c3.1,3.4,6.8,6.2,11,8.2,4.2,1.9,8.8,2.9,13.4,2.9s9.2-.9,13.4-2.9c4.2-2,8-4.8,11-8.2Z"/>
          <path class="cls-1" d="M1720.2,656.4v-202.1h71c28.9,0,52.3,9.3,70.3,27.7s27.1,42.6,27.1,72.6-8.9,56.5-26.7,74.7c-17.8,18.2-41.9,27.2-72.2,27.3h-69.5ZM1749,629.8h36.1c48.7,0,73.1-25.1,73.1-75.1s-6.1-41.3-18.2-54.2c-12.1-13.1-29.7-19.6-52.8-19.6h-38.1v149Z"/>
          <path class="cls-1" d="M2044.5,656.4l-18.8-53.5h-89l-19.1,53.5h-31.2l76-202.1h39.8l74.5,202.1h-32.2ZM1946.2,576.6h70.2l-19.6-55.2c-4.6-14.1-9.7-28.5-15.3-43.4l-2.9,7.2-12.3,36.2-20,55.2Z"/>
          <path class="cls-1" d="M2073.3,555.3c-.4-30.6,9.3-55.8,29-75.9,19.8-19.9,44-29.7,72.8-29.3,28.9-.4,52.9,9.4,72.3,29.3s28.8,45.2,28.4,75.9c.4,30.6-9.2,55.8-28.5,75.7-19.4,19.9-43.5,29.7-72.3,29.3-28.9.4-53.2-9.4-72.8-29.3-19.6-19.9-29.3-45.2-28.9-75.7ZM2245.2,555.3c0-22.8-6.4-41.8-19.2-56.6-12.9-14.9-30-22.3-51.3-22.2-21.6,0-38.7,7.4-51.5,22.2-12.7,14.7-19,33.7-19,56.6s6.4,42.3,19.1,56.9c12.7,14.6,29.8,21.9,51.5,21.9s38.7-7.3,51.5-21.9c12.7-14.6,19-33.7,19-56.9Z"/>
        </g>
      </g>
    </g>
  </g>
</svg>