<?xml version="1.0" encoding="UTF-8"?>
<svg xmlns="http://www.w3.org/2000/svg" version="1.1" viewBox="0 0 296 104">
  <defs>
    <style>
      .cls-1 {
        fill: #33629a;
      }
    </style>
  </defs>
  <!-- Generator: Adobe Illustrator 28.6.0, SVG Export Plug-In . SVG Version: 1.2.0 Build 709)  -->
  <g>
    <g id="VICE_IS_A_BUNCH_OF_OLD_DUDES">
      <path class="cls-1" d="M165.5,40.6c0-7.7.1-14.8.5-21.4l-20.2,3.8v1.9l2,.3c1.5.1,2.4.7,2.9,1.5.5.9.9,2.2,1.2,4.2.3,3.8.5,12.6.4,26.3,0,13.6-.1,22.2-.4,25.5,7.3,1.6,13,2.2,17.2,2.2,7.9,0,14.2-2.2,18.6-6.9,4.5-4.5,6.9-10.8,6.9-18.6s-1.7-11.4-5.2-15.5c-3.4-4.1-7.8-6.1-13-6.1s-7,.9-11,2.8ZM165.9,81.3c-.3-4.2-.5-16.9-.5-37.7,1.2-.4,2.8-.7,4.8-.7,3.2,0,5.7,1.6,7.5,4.9,1.9,3.3,2.8,7.3,2.8,12.3s-1.1,11.2-3.2,15.5c-2.1,4.1-4.8,6.2-8.1,6.2-1.1-.3-2.1-.4-3.3-.5ZM69.9,20.5H17v2.6l2.8.3c2.1.4,3.6,1.2,4.5,2.4.9,1.3,1.5,3.4,1.6,6.3,1.1,14.3,1.1,27.6,0,39.9-.3,2.9-.8,5-1.6,6.3-.9,1.3-2.4,2.1-4.5,2.4l-2.8.4v2.6h34.1v-2.6l-3.6-.3c-1.8-.1-3.4-1-4.5-2.4-.9-1.3-1.5-3.4-1.6-6.3-.4-5.3-.7-11.4-.7-18.1h7.1c3.8.3,6.5,3.2,7.8,9h2.6v-21.6h-2.6c-1.3,5.7-3.8,8.6-7.8,8.7h-7.1c0-11.8.3-20.2.7-25.4h10.4c7.4,0,12.4,4.8,15.3,14.3l3.2-.9-.5-17.7ZM63.7,61.2c0,6.9,2,12.6,5.8,17.1,3.8,4.5,9.5,6.6,16.7,6.6s13-2.2,17.2-6.9c4.2-4.5,6.2-10.2,6.2-17.1s-2-12.6-5.8-17.1-9.5-6.6-16.7-6.6-13,2.2-17.2,6.9c-4.2,4.5-6.2,10.2-6.2,17.1ZM93.2,46.1c1.6,3.8,2.2,8.9,2.2,14.9,0,14-2.9,20.9-8.6,20.9s-5.2-2-6.7-6c-1.6-4-2.2-9-2.2-14.9,0-13.9,2.9-20.8,8.6-20.8,2.9-.1,5.2,1.9,6.7,5.8ZM204.9,78.3c4.4,4.4,9.9,6.6,16.5,6.6s7.7-.8,10.8-2.5c3.2-1.6,5.7-3.6,7.4-6l-1.3-1.6c-2.9,2.2-6.2,3.3-10.1,3.3s-9.4-1.7-12.2-5.3c-2.9-3.6-4.2-8.1-4-13.9h28.3c0-6.3-1.6-11.5-4.9-15.6-3.3-4-7.9-6-13.9-6s-13.1,2.4-17.2,7-6.1,10.3-6.1,17.1,2.1,12.4,6.5,16.8h0ZM214.7,45.1c1.5-3.2,3.3-4.8,5.8-4.8,4,0,6,5,6,15.2l-14,.3c.1-4,.8-7.5,2.2-10.7h0ZM276.1,39.8c-3.6-1.6-8.1-2.5-13.5-2.5s-9.9,1.5-13.2,4.2-5,6.2-5,10.3,1.1,6.3,3,8.3c2,2,5.2,3.7,9.3,5.2,3.7,1.3,6.3,2.6,7.7,3.8,1.3,1.3,2.1,2.8,2.1,4.8s-.7,3.6-2.1,4.9c-1.3,1.5-3.2,2.1-5.6,2.1-5.8,0-10.2-4.2-13.2-12.7l-2.2.7.5,13.2c4.8,1.9,10.1,2.8,15.9,2.8s10.7-1.3,14.2-4.1c3.4-2.6,5.2-6.5,5.2-11.2s-.8-5.8-2.5-7.8c-1.7-2-4.5-3.7-8.5-5.3-4.4-1.6-7.4-3-9-4.4s-2.4-2.9-2.4-4.9.5-3.6,1.7-4.9,2.6-1.9,4.5-1.9c5.3,0,9.1,3.8,11.5,11.4l2.2-.7-.5-11.4ZM148.8,38.6c-1.9-.9-3.8-1.3-6.1-1.3s-4.5.9-7,2.8-4.4,4.4-5.8,7.8v-10.6c.1,0-20,4-20,4v1.9h2c2.5.4,4,2.4,4.2,6,.8,8.2.8,16.9,0,26.2-.3,3.6-1.7,5.4-4.2,5.8l-2,.3v2.5h28v-2.5l-3.6-.3c-2.5-.3-4-2.2-4.2-5.8-.8-7.7-.9-15.9-.3-24.3.8-1.3,2.5-2.1,5.2-2.4,2.6-.3,5.7.5,8.9,2.4,0,0,4.9-12.3,4.9-12.3Z"/>
    </g>
  </g>
</svg>