<?xml version="1.0" encoding="UTF-8"?>
<svg xmlns="http://www.w3.org/2000/svg" version="1.1" viewBox="0 0 475.8 108.2">
  <!-- Generator: Adobe Illustrator 28.7.1, SVG Export Plug-In . SVG Version: 1.2.0 Build 142)  -->
  <g>
    <g id="katman_1">
      <g id="vector">
        <g id="space">
          <g id="Shape">
            <polygon points="273.7 106.9 229.5 1.5 206.2 1.5 161.8 106.9 185.3 106.9 217.7 29.3 250.4 106.9 273.7 106.9"/>
            <path d="M44.4,108c-15.9,0-31.9-5.6-44.4-16.8l13.6-16.2c9.3,7.8,19.2,12.7,31.2,12.7s15.1-3.7,15.1-9.9v-.4c0-5.8-3.5-8.8-21.1-13.2-21.1-5.4-34.7-11.2-34.7-31.9v-.4C4.1,12.9,19.4.4,40.7.4s28.2,4.9,38.8,13.2l-11.9,17.4c-9.3-6.3-18.5-10.3-27.2-10.3s-13.4,4.1-13.4,9.1v.2c0,6.9,4.5,9.1,22.6,13.8,21.3,5.6,33.2,13.2,33.2,31.3v.4c0,20.7-15.8,32.5-38.4,32.5Z"/>
            <path d="M133.6,75h-17.5v31.5h-22.9V1.8h42.7c25,0,40.1,14.7,40.1,36.2v.4c-.2,24.1-18.9,36.6-42.4,36.6ZM152.4,38.4c0-10.3-7.1-15.9-18.7-15.9h-17.7v31.9h18.3c11.6,0,18.3-6.9,18.3-15.9v-.2h-.2Z"/>
            <path d="M321.5,108.2c-30.8,0-53.7-23.7-53.7-53.7v-.4c0-29.7,22.4-54.1,54.5-54.1s31.5,6.5,41.2,16.2l-14.5,17c-8-7.3-16.2-11.8-26.7-11.8-17.7,0-30.4,14.7-30.4,32.7v.4c0,17.9,12.5,32.8,30.4,32.8s19.2-4.9,27.4-12.3l14.5,14.7c-10.4,11.4-22.6,18.5-42.7,18.5Z"/>
            <polygon points="376.3 106.5 376.3 1.8 438.8 1.8 438.8 22.4 399.1 22.4 399.1 43.6 432.1 43.6 432.1 64.1 399.1 64.1 399.1 86 439.6 86 439.6 106.5 376.3 106.5"/>
            <polygon points="451 1.5 458.2 1.5 458.2 8.9 451 8.9 451 1.5"/>
            <path d="M450.4,25.3c0-7.3,5.6-12.7,12.7-12.7h0c6.9,0,12.7,5.4,12.7,12.9s-1.5,7.5-4.1,9.7l-4.5-4.3c1.7-1.5,2.6-3.2,2.6-5.6,0-3.5-3-6-6.7-6h0c-3.7,0-6.7,2.4-6.7,6.2s.9,3.9,2.6,5.6l-4.1,4.1c-2.6-2.2-4.5-5-4.5-9.9Z"/>
            <path d="M450.4,51.3c0-7.7,5.6-13.2,12.7-13.2h0c7.1,0,12.7,5.6,12.7,13.2s-5.6,13.2-12.7,13.2h0c-7.1,0-12.7-5.8-12.7-13.2ZM463.1,57.6c3.5,0,6.7-2.6,6.7-6.3s-3-6.3-6.7-6.3h0c-3.5,0-6.7,2.6-6.7,6.3s3,6.3,6.7,6.3h0Z"/>
            <path d="M451,99.8h13.6c3.4,0,5-1.5,5-4.1s-1.7-4.3-5-4.3h-13.6v-6.9h13.6c3.4,0,5-1.5,5-4.1s-1.7-4.1-5-4.1h-13.6v-6.9h24.4v6.9h-3.5c2.1,1.7,3.9,3.7,3.9,7.3s-1.5,5.6-3.9,6.9c2.4,2.1,3.9,4.7,3.9,8,0,5.2-3.2,8.2-9,8.2h-15.9v-6.9h0Z"/>
          </g>
        </g>
      </g>
    </g>
  </g>
</svg>