<?xml version="1.0" encoding="UTF-8"?>
<svg xmlns="http://www.w3.org/2000/svg" version="1.1" viewBox="0 0 296 104">
  <defs>
    <style>
      .cls-1 {
        fill: #193a6b;
      }

      .cls-2 {
        fill: #5d7598;
      }

      .cls-3 {
        fill: #6c82a2;
      }

      .cls-4 {
        fill: #b6c1d1;
      }

      .cls-5 {
        fill: #60779c;
      }

      .cls-6 {
        fill: #556e94;
      }

      .cls-7 {
        fill: #6c81a1;
      }

      .cls-8 {
        fill: #577095;
      }

      .cls-9 {
        fill: #3a5782;
      }

      .cls-10 {
        fill: #0b2e61;
      }

      .cls-11 {
        fill: #36527f;
      }

      .cls-12 {
        fill: #8294af;
      }

      .cls-13 {
        fill: #e5e9ee;
      }

      .cls-14 {
        fill: #466089;
      }

      .cls-15 {
        fill: #b5bfd0;
      }

      .cls-16 {
        fill: #7f92b1;
      }

      .cls-17 {
        fill: #bbc5d5;
      }

      .cls-18 {
        fill: #5d759a;
      }

      .cls-19 {
        fill: #61789a;
      }

      .cls-20 {
        fill: #8193ae;
      }

      .cls-21 {
        fill: #d2d8e2;
      }

      .cls-22 {
        fill: #4e678c;
      }

      .cls-23 {
        fill: #95a4ba;
      }

      .cls-24 {
        fill: #8497b4;
      }

      .cls-25 {
        fill: #bcc6d4;
      }

      .cls-26 {
        fill: #4e678f;
      }

      .cls-27 {
        fill: #2f4d7a;
      }

      .cls-28 {
        fill: #294876;
      }

      .cls-29 {
        fill: #b2bdcd;
      }

      .cls-30 {
        fill: #d3d9e3;
      }

      .cls-31 {
        fill: #3d5982;
      }

      .cls-32 {
        fill: #425d87;
      }

      .cls-33 {
        fill: #284775;
      }

      .cls-34 {
        fill: #677da1;
      }

      .cls-35 {
        fill: #7589a6;
      }

      .cls-36 {
        fill: #c7cfdb;
      }

      .cls-37 {
        fill: #425e86;
      }

      .cls-38 {
        fill: #8d9eb9;
      }

      .cls-39 {
        fill: #98a8c0;
      }

      .cls-40 {
        fill: #798ca8;
      }

      .cls-41 {
        fill: #556d94;
      }

      .cls-42 {
        fill: #92a1ba;
      }

      .cls-43 {
        fill: #375480;
      }

      .cls-44 {
        fill: #143567;
      }

      .cls-45 {
        fill: #50698f;
      }

      .cls-46 {
        fill: #f6f7f9;
      }

      .cls-47 {
        fill: #e9ecf0;
      }

      .cls-48 {
        fill: #60779a;
      }

      .cls-49 {
        fill: #4d678c;
      }

      .cls-50 {
        fill: #5f769b;
      }

      .cls-51 {
        fill: #c8d0db;
      }

      .cls-52 {
        fill: #6e83a3;
      }

      .cls-53 {
        fill: #a6b3c8;
      }

      .cls-54 {
        fill: #c8d0dd;
      }

      .cls-55 {
        fill: #d7dde6;
      }

      .cls-56 {
        fill: #7185a7;
      }

      .cls-57 {
        fill: #8a9bb4;
      }

      .cls-58 {
        fill: #3f5a83;
      }

      .cls-59 {
        fill: #234372;
      }

      .cls-60 {
        fill: #435e85;
      }

      .cls-61 {
        fill: #5b7296;
      }

      .cls-62 {
        fill: #193a6a;
      }

      .cls-63 {
        fill: #1b3d6c;
      }

      .cls-64 {
        fill: #33507b;
      }

      .cls-65 {
        fill: #bec7d5;
      }

      .cls-66 {
        fill: #d4dae3;
      }

      .cls-67 {
        fill: #566f95;
      }

      .cls-68 {
        fill: #4c668d;
      }

      .cls-69 {
        fill: #a5b2c5;
      }

      .cls-70 {
        fill: #98a7be;
      }

      .cls-71 {
        fill: #526b92;
      }

      .cls-72 {
        fill: #d8dde5;
      }

      .cls-73 {
        fill: #2f4d79;
      }

      .cls-74 {
        fill: #8295b3;
      }

      .cls-75 {
        fill: #0c2f62;
      }

      .cls-76 {
        fill: #0b2e62;
      }

      .cls-77 {
        fill: #4b658d;
      }

      .cls-78 {
        fill: #1c3d6d;
      }

      .cls-79 {
        fill: #e6eaef;
      }

      .cls-80 {
        fill: #f5f6f8;
      }

      .cls-81 {
        fill: #bac3d2;
      }

      .cls-82 {
        fill: #f2f4f6;
      }

      .cls-83 {
        fill: #93a2b9;
      }

      .cls-84 {
        fill: #3b5781;
      }

      .cls-85 {
        fill: #91a1b9;
      }

      .cls-86 {
        fill: #324f7c;
      }

      .cls-87 {
        fill: #d5dbe4;
      }

      .cls-88 {
        fill: #37537f;
      }

      .cls-89 {
        fill: #506990;
      }

      .cls-90 {
        fill: #385480;
      }

      .cls-91 {
        fill: #e8ecf1;
      }

      .cls-92 {
        fill: #49638c;
      }

      .cls-93 {
        fill: #576f95;
      }

      .cls-94 {
        fill: #254473;
      }

      .cls-95 {
        fill: #18396b;
      }

      .cls-96 {
        fill: #2b4977;
      }

      .cls-97 {
        fill: #e4e8ee;
      }

      .cls-98 {
        fill: #667b9e;
      }

      .cls-99 {
        fill: #18396a;
      }

      .cls-100 {
        fill: #e7eaef;
      }

      .cls-101 {
        fill: #afbacc;
      }

      .cls-102 {
        fill: #324f7a;
      }

      .cls-103 {
        fill: #a6b3c6;
      }

      .cls-104 {
        fill: #c0c9d6;
      }

      .cls-105 {
        fill: #7387a5;
      }

      .cls-106 {
        fill: #a2b0c6;
      }

      .cls-107 {
        fill: #2c4a78;
      }

      .cls-108 {
        fill: #37537e;
      }

      .cls-109 {
        fill: #99a8c0;
      }

      .cls-110 {
        fill: #798ca9;
      }

      .cls-111 {
        fill: #48628a;
      }

      .cls-112 {
        fill: #62789a;
      }

      .cls-113 {
        fill: #657b9b;
      }

      .cls-114 {
        fill: #143668;
      }

      .cls-115 {
        fill: #204070;
      }

      .cls-116 {
        fill: #97a7c2;
      }

      .cls-117 {
        fill: #8b9bb5;
      }

      .cls-118 {
        fill: #fefefe;
      }

      .cls-119 {
        fill: #c9d1de;
      }

      .cls-120 {
        fill: #b1bdcf;
      }

      .cls-121 {
        fill: #526b90;
      }

      .cls-122 {
        fill: #62799d;
      }

      .cls-123 {
        fill: #2e4c78;
      }

      .cls-124 {
        fill: #bdc6d6;
      }

      .cls-125 {
        fill: #7085a4;
      }

      .cls-126 {
        fill: #a3b0c4;
      }

      .cls-127 {
        fill: #f5f7f9;
      }

      .cls-128 {
        fill: #3d5883;
      }

      .cls-129 {
        fill: #8698b6;
      }

      .cls-130 {
        fill: #b2bed0;
      }

      .cls-131 {
        fill: #cbd3df;
      }

      .cls-132 {
        fill: #c8d0dc;
      }

      .cls-133 {
        fill: #415c87;
      }

      .cls-134 {
        fill: #f1f3f6;
      }

      .cls-135 {
        fill: #9caabf;
      }

      .cls-136 {
        fill: #3a5680;
      }

      .cls-137 {
        fill: #1a3b6c;
      }

      .cls-138 {
        fill: #bec8d7;
      }

      .cls-139 {
        fill: #587096;
      }

      .cls-140 {
        fill: #a2afc3;
      }

      .cls-141 {
        fill: #d9dee7;
      }

      .cls-142 {
        fill: #8193b2;
      }

      .cls-143 {
        fill: #d0d7e2;
      }

      .cls-144 {
        fill: #c5cdd9;
      }

      .cls-145 {
        fill: #214170;
      }

      .cls-146 {
        fill: #1d3e6d;
      }

      .cls-147 {
        fill: #4d668d;
      }

      .cls-148 {
        fill: #667da0;
      }

      .cls-149 {
        fill: #46618a;
      }

      .cls-150 {
        fill: #113365;
      }

      .cls-151 {
        fill: #eaedf1;
      }

      .cls-152 {
        fill: #9ba9bf;
      }

      .cls-153 {
        fill: #8495b1;
      }

      .cls-154 {
        fill: #b4bfd0;
      }

      .cls-155 {
        fill: #48628b;
      }

      .cls-156 {
        fill: #405c86;
      }

      .cls-157 {
        fill: #6b80a0;
      }

      .cls-158 {
        fill: #3a5682;
      }

      .cls-159 {
        fill: #3c5882;
      }

      .cls-160 {
        fill: #97a6bc;
      }

      .cls-161 {
        fill: #6f84a6;
      }
    </style>
  </defs>
  <!-- Generator: Adobe Illustrator 28.6.0, SVG Export Plug-In . SVG Version: 1.2.0 Build 709)  -->
  <g>
    <g id="VICE_IS_A_BUNCH_OF_OLD_DUDES">
      <g>
        <path class="cls-118" d="M178.5,85.2c-1.2,1.1-2,2.6-3.9,2.7-4.6.2-7.9-2.4-11.1-5.1-1.8-1.5-3.4-3.4-4.9-5.2-1.2-1.5-1.2-2,.4-3,4.9-3.2,9.4-6.9,13.4-11.1,3.3-3.4,6.3-7,8.9-11,.5-.7.7-1.5.9-2.2.7-.4,1.1,0,1.5.4,1.2.9,2.3,1.8,3.2,2.9.3.3.5.7.5,1.2,0,.2,0,.3,0,.5,0,.3,0,.5,0,.8.2,2.2,1,3.7,3,3.9,2.9.3,3.6,2.3,4.2,4.5.2.6.2,1.1.2,1.7-.2.9,0,1.8-.4,2.6-.2.6-.5,1.1-.7,1.7-.4.2-.7.5-1,.8-.4.2-.8.6-1.1,1h0c-1.4.7-2.7,1.5-4.2,2-.7,0-1.4.3-2.1.4-.5,0-.9,0-1.4.2-.6.2-1.2.3-1.6-.3-.4-1.4,0-2.8-.2-4.3,0-.8,0-1.6-.1-2.3,0-.7,0-1.3,0-2-.3-.8-.4-1.6-.4-2.4-.4-.6-.4-1.2-.4-1.8-.2-.7-.3-1.5-.4-2.2,0,.7.2,1.5.3,2.2,0,.6,0,1.3.4,1.8,0,.8,0,1.7.4,2.5,0,.8,0,1.6.1,2.3,0,1.2,0,2.4,0,3.6,0,.8,0,1.6,0,2.3,0,.2-.1.4-.3.5-.7.5-1.5.3-2.2.3-.6,0-1.2,0-1.7,0-1.7-.3-3.5,0-5.3-.3-.7,0-1.4-.5-2.2-.4-.5-.3-1.2-.4-1.8-.3-.5-.2-1-.2-1.4-.3-.5-.2-1-.2-1.5-.4.4.2.8.2,1.2.3.6.2,1.1.3,1.7.4.6,0,1.2,0,1.8.3.7-.1,1.4.2,2.1.4,1.6,0,3.1.4,4.7,0,.8.4,1.7.3,2.5.3.7,0,1.4,0,2.1,0,.2,0,.3.2.4.4,0,.1,0,.2,0,.3-.3.4-.4.9-.4,1.4-.2.8-.6,1.6-.7,2.4-.4,2.1-1.3,4-2.8,5.5Z"/>
        <path class="cls-116" d="M228.6,52.6c-.2,4.1-1.4,8.9-5.9,12.2-6.1,4.5-18.3,3.8-22.8-3.6-3.6-5.9-3.1-15.8,1.3-21,2.2-2.6,5.1-4,8.5-4.4,4.5-.6,9-.4,12.9,2.4,4,2.8,6,7.4,6,14.4Z"/>
        <path class="cls-116" d="M250.6,53.4c2.7,1,3.5,3.3,4.1,5.6.7,2.3,1.3,4.6,2,6.9.3.9.1,1.3-.9,1.3-2.2,0-4.3,0-6.5,0-.9,0-1.2-.5-1.4-1.2-.7-2.4-1.4-4.8-2.2-7.2-.9-2.7-2.8-3.7-5.6-3.2-1,.2-.8.8-.8,1.4,0,2.8,0,5.7,0,8.5,0,1.3-.4,1.7-1.7,1.6-1.9,0-3.7,0-5.6,0-1.1,0-1.5-.3-1.5-1.5,0-9.4,0-18.7,0-28.1,0-1.1.3-1.5,1.5-1.5,4.9.2,9.9-.3,14.8.3,3.4.4,6.3,1.7,7.8,5.1,1.5,3.4,1.1,6.7-1.3,9.7-.7.9-1.9,1.3-2.8,2.3Z"/>
        <path class="cls-10" d="M68.2,51.8c0,4.6,0,9.2,0,13.8,0,1.1-.3,1.5-1.5,1.5-2,0-4.1,0-6.1,0-1.1,0-1.4-.3-1.4-1.4,0-3.4,0-6.9,0-10.3,0-1-.2-1.4-1.3-1.4-2.4,0-4.8,0-7.2,0-1.3,0-1.7.3-1.7,1.6.1,3.3,0,6.6,0,9.9,0,1.1-.3,1.5-1.4,1.5-2,0-4.1,0-6.1,0-.9,0-1.3-.2-1.3-1.2,0-9.5,0-19,0-28.4,0-1,.3-1.3,1.3-1.3,2,0,4.1,0,6.1,0,1.1,0,1.5.3,1.5,1.5,0,2.9,0,5.8,0,8.7,0,1.2.2,1.7,1.5,1.6,2.4-.1,4.8,0,7.2,0,1.1,0,1.5-.2,1.5-1.4,0-3,0-6,0-9.1,0-1,.3-1.3,1.3-1.3,2.1,0,4.2,0,6.3,0,1.1,0,1.4.3,1.4,1.4,0,4.8,0,9.5,0,14.3Z"/>
        <path class="cls-116" d="M283.4,58.2c0,2.1,0,4.2,0,6.3,0,.7,0,1.2-.9,1.5-5,1.5-10,2.2-15.1,1.2-6.6-1.3-10.3-5.6-10.9-12.3-.2-2.5-.3-5.1.2-7.6,1.4-6.8,5.8-10.9,12.8-11.6,3.7-.3,7.3-.2,10.9.6,1,.3,1.7.5,1.3,1.8-.2.5-.2,1-.3,1.5-.6,3.3-.6,3.3-4.1,2.7-1.8-.3-3.7-.3-5.6,0-3.1.5-5,2.4-5.7,5.4-.7,3-.7,6,.2,8.9,1,3.2,5.5,5.1,8.5,3.6.6-.3.5-.9.5-1.3,0-2.4,0-4.9,0-7.3,0-1.1.3-1.4,1.4-1.4,1.7,0,3.5,0,5.2,0,1.1,0,1.4.4,1.4,1.5,0,2.1,0,4.3,0,6.5Z"/>
        <path class="cls-10" d="M109.5,67.7c-3.8-.2-7.6-.7-11.3-2-1-.4-1.2-.8-.8-1.8.5-1.1.8-2.3,1.1-3.5.3-1.1.8-1.4,1.9-1,3.4,1.1,6.9,1.6,10.5,1.4,1.1,0,2.1-.2,2.8-1.1,1-1.3.5-3-1.1-3.8-1.9-.9-4-1.1-6-1.8-1.2-.4-2.5-.7-3.6-1.2-3.1-1.4-4.9-3.6-5-7.1,0-3.8,1.1-7,4.7-8.6,6-2.8,12.1-2,18.2.3.6.2.8.6.6,1.2,0,.2-.1.3-.2.5-.5,1.4-.6,3.3-1.6,4.1-1,.9-2.6-.5-4-.6-1.6,0-3.2-.3-4.9-.4-2,0-3.1.7-3.3,2.1-.2,1.8,1.2,2.3,2.4,2.7,2.2.7,4.5,1.1,6.7,1.8,5.5,1.7,8,6.2,6.8,11.5-.7,3.1-2.8,4.8-5.6,5.9-2.6,1-5.4,1.2-8.3,1.3Z"/>
        <path class="cls-10" d="M14.2,51.5c0-4.6,0-9.3,0-13.9,0-.8,0-1.5,1.1-1.4,4.8.1,9.5-.2,14.3.2,6.8.6,10.3,5.7,8.7,12.3-1,4.2-4.7,7-9.6,7.2-1.5,0-2.9,0-4.4,0-1,0-1.3.3-1.3,1.3,0,2.8,0,5.7,0,8.5,0,1.1-.3,1.5-1.5,1.5-2,0-4-.1-5.9,0-1.4,0-1.6-.5-1.6-1.7,0-4.6,0-9.3,0-13.9Z"/>
        <path class="cls-76" d="M68.7,36.2c3,0,5.6,0,8.2,0,1,0,1.2.6,1.6,1.3,2,4.1,3.7,8.3,5.3,12.5.9-.3.9-1.1,1.1-1.7,1.3-3.7,3.1-7.3,4.7-10.9.4-.9,1-1.3,2-1.2,2,0,4.1,0,6.1,0,1.3,0,1.5.2.9,1.4-3,5.5-5.9,11.1-8.8,16.6-.7,1.3-1,2.5-1,4,0,2.5,0,5,0,7.5,0,1-.2,1.5-1.3,1.4-2.4,0-4.8,0-7.2,0-.8,0-1.2-.2-1.1-1.1,0-.2,0-.5,0-.7.8-6-.9-11.4-4-16.5-2.4-3.9-4.3-8.2-6.6-12.6Z"/>
        <path class="cls-10" d="M182.3,50.2c.9.8.2,1.4-.2,2.1-6,9-13.5,16.5-22.6,22.4-.4.3-.9.6-1.3.9,0,0-.2.2-.3.3,2.8,3.6,5.8,7,9.8,9.5,1.9,1.2,3.9,2,6.2,2.1.3,0,.6,0,.7.4-3.7,1.2-7.1.3-10.3-1.6-3.4-1.9-6.2-4.6-8.6-7.5-.8-.9-1.3-1.2-2.4-.5-1.3.7-2.4,1.3-3,3-1,2.8-5,3.3-6.7,1.1-.4-.6,0-.8.5-1,.5-.1.9,0,1.4,0,1.2.2,2.2-.1,2.9-1.2.6-1.1.8-2.3-.2-3.4-.2-.2-.4-.3-.5-.5-.3-.2-.5-.4-.5-.8.2-.4.4-.5.8-.2,1.4,1,2.7.8,3.9-.3.7-.7,1.5-1.1,2.3-1.6.4-.2.8-.5,1.1-.8,1.5-.9,2.8-2.2,4.6-2.9,2.9-.8,5.1-2.6,7.5-4.4,3.5-2.5,5.9-6,8.2-9.6.4-.6.7-1.3.8-2.1,0-.3.2-.6.5-.8.6-.3.9-.8,1-1.4.7-1.1,1-2.6,2.6-2.9,1,.2,1.8.6,2.1,1.7Z"/>
        <path class="cls-76" d="M182.3,50.2l-2-1.4c-.8-.5-1.9-.7-2-1.9.3-1.1-.2-2.6,1.3-3.3.9.4,2,1.4,2.5,1.2.8-.4,1.2-1.6,1.6-2.6,1.9-3.8,3.5-7.6,3.7-11.9,0-1.6,0-3.2-.8-4.8,1-.2,1.2.6,1.5,1.1,1.8,3.1,1.6,6.4,1,9.7-.6,3.5-1.9,6.8-3.6,9.9-.5.9-.5,1.4.4,2,1.2.9,2.2,2,3.3,3.1-.1,1.4-1.1,2.1-2.4,2.5-1.4-1.3-2.8-2.7-4.6-3.6Z"/>
        <path class="cls-150" d="M194.7,66.2c0-1.8-.8-3.2-1.5-4.8-.3-.7-.9-.7-1.6-.8-2.8-.2-4.4-2.1-4.3-4.8.7,0,.8.5,1.1.9,1.2,1.4,2.7,1.8,4.1,1,1.4-.8,1.8-2.2,1.2-3.9q-.3-1,.2-1.6c2.3,1.5,3,4,1.5,6.3-.5.8-.6,1.3-.3,2.2.8,2.2.7,4.5,0,6.8-.1,0-.5-.9-.6-1.4Z"/>
        <path class="cls-150" d="M139.4,44c-1.6-.5-3-1.3-3.5-3.1-.3-.6-.2-1.2,0-1.9,3.2,2.7,3.9,2.9,5.3,1.7,1.3-1.1,1.4-2.3.4-4-.1-.1-.2-.3-.3-.4,0-.3,0-.5.2-.8.2-.1.3-.2.5-.2,2.4.5,3.7,3.3,2.8,5.8-.3.9-.9,1.7-1.7,2.4-.4.3-.8.5-1.3.6-.8.2-1.7.6-2.5,0Z"/>
        <path class="cls-44" d="M144.3,81.7c-.4,0-.7.2-.7.7-.6-.6-1.4-.4-2.1-.4-3.1.2-6.1-.2-8.6-2.3,2.8.4,5.5.4,8.2-.2,1-.4,1,.6,1.5,1,0,.2.1-.2,0,0-.5-.6-.3-1.2,0-1.9.1,0,.2,0,.3-.1.1,0,.2.2.3.4.1,1,1.3,1.7,1.1,2.8Z"/>
        <path class="cls-99" d="M151.7,73.9l-2.5-4c.7-1.6,2.2-1.1,3.4-1.3,1.9,1.1,2.9,2.9,2.5,4.2-.4.4-.9.6-1.3.9-.7.3-1.3,1.1-2.1.3Z"/>
        <path class="cls-96" d="M194.1,52.3c-.5.5,0,.8.1,1.2.9,2.1.4,3.8-1.4,4.7-1.9,1-3.7.4-4.9-1.5-.2-.3-.4-.6-.6-.8,0-.2,0-.5,0-.7.3-.2.6,0,.9.2.2.1.4.3.6.4.5.4,1,.6,1.5.8,1.4.4,2.3-.2,2.5-1.6.1-.9,0-1.9,0-2.8.2-.4.5-.4.8-.2.1.1.3.2.4.3Z"/>
        <path class="cls-155" d="M145.1,17.5c-1.3,1.8-2.6,3.6-2.9,5.9-.3.2-.1.6-.4.9-.8.5-1.5,1.1-2.4.2.8-3.1,2.3-5.7,5.2-7.4.4,0,.5,0,.4.5Z"/>
        <path class="cls-111" d="M129.9,34.6c-2,.7-3.9,1.7-5.7,3.2.7-2.6,2.5-4.1,7.4-6,.6.7.3,1.4-.1,2.1-.4.6-1.1.4-1.7.8Z"/>
        <path class="cls-148" d="M143.2,30.7c2,0,4,.1,6,.7,1,.9,2.2,1.6,3,2.8.4.6,1.1,1.1.7,1.9-.4.2-.8.1-1.2-.2-.9-.7-1.4-1.7-2.3-2.3-2.7-2-4.9-1.9-8.3.3-.2.1-.5.2-.7.1-.2,0-.3-.2-.4-.3,0-.2,0-.3,0-.5.7-1.2,1.8-1.9,3-2,.8,0-.1-.6.3-.6Z"/>
        <path class="cls-128" d="M141.8,36.3c1.2.9,1.2,2,.7,3.2-.5,1.3-1.5,2.2-3,2.3-1.8.1-2.7-1-3.6-2.6,0,.6,0,1.1-.1,1.5-.6-1.1-.3-2.1,0-3.1.6-.2.7.4.9.7,0,.1.1.3.2.4.2.3.4.4.6.6,2.1,1.5,3.5.9,3.7-1.6,0-.5,0-1,.4-1.5Z"/>
        <path class="cls-26" d="M142.2,54.2c-.7-1.2-1-2.6-1.3-3.9,1.7-.3,3.2.4,4.7.9.6.7,1,1.5.7,2.5-.5.6-1.2.5-1.9.3-.7-.1-1.4,0-2.2.2Z"/>
        <path class="cls-59" d="M172.6,39.5c1.1.5,2.4.7,3.2,1.7-.9,1.1-.9,2.5-1.5,3.6-1.2,0-2.1-.6-2.6-1.7,0-1.3-.3-2.7,1-3.7Z"/>
        <path class="cls-18" d="M153,36c-1-1.6-2.1-2.9-3.7-3.9-.2-.2-.5-.4-.1-.6,1.6.6,3.5.3,5.1,1.1-.7.6-.4,1.2-.1,1.8.3.8,1.2,1.4.8,2.5-.9.2-1.6,0-2-.8Z"/>
        <path class="cls-133" d="M144.3,59.7c-.7-1.1-1.2-2.2-1.4-3.5-.4-.8.3-1,.8-1.1.9-.2,1.8-.2,2.8.1.9.8,1.5,1.7,1.5,2.9-.4.6-1,.2-1.4.2-1.2,0-2,.3-2.3,1.5Z"/>
        <path class="cls-139" d="M140.8,49.6c-.4-.9-.7-1.8-.7-2.8-.1-.6-.5-1.4.1-1.8.5-.4,1.1.3,1.6.5.7.3,1.5.6,2.2,1,.1.1.2.3.3.5.1.7.4,1.4.2,2.1-.6.5-1.2.2-1.8.1-.7,0-1.3,0-1.8.3Z"/>
        <path class="cls-158" d="M144.3,59.7c.3-.6-.6-1.5.1-1.6,1.1-.2,2.4-.7,3.5.2,1,.5,1.4,1.3,1.1,2.4-.3.2-.5,0-.8,0-2-.5-2.1-.4-2.8,1.4-.5-.7-.9-1.5-1.1-2.4Z"/>
        <path class="cls-114" d="M179.6,43.6c-1,1-.4,2.5-1.1,3.6-1.1.2-1.6-.5-2.1-1.1-.6-1.1-.3-2.2,0-3.3.1-.4.4-.9,1-.5.5.7,1.8.4,2.1,1.4Z"/>
        <path class="cls-137" d="M177.5,42.2c-1.1,1.2-1.1,2.5-.7,3.9-1.2.1-1.9-.4-2.4-1.4-.2-1.4-.2-2.8,1.4-3.6.4.6,1.5.2,1.7,1Z"/>
        <path class="cls-27" d="M168.3,37.4c.6.6,1.7.2,2.1,1,0,1.3.5,2.6-.5,3.8-1.1.5-1.7,0-2.4-.7,0-.2-.1-.3-.1-.5,0-.9.2-1.8.2-2.7,0-.5,0-.9.7-.9Z"/>
        <path class="cls-86" d="M145.3,62.2c.3-.6-.8-1.6.2-2,1.1-.4,2.4-.4,3.4.5.8.3,1,.8.6,1.6-1.2.6-2.5.8-3.8.6-.3-.2-.3-.4-.3-.7Z"/>
        <path class="cls-71" d="M155.5,32.8c1.2.6,2.7.2,3.9,1.1-.9.6-.7,1.4-.5,2.3.1.6.6,1.1,0,1.7-.9.3-1.6,0-2.3-.6-.5-1.5-1.5-2.8-1.2-4.5Z"/>
        <path class="cls-68" d="M158.9,37.8c-.2-.9-.6-1.8-.8-2.8-.3-1.3.4-1.2,1.2-1.2.8,0,1.4.3,2.1.7,0,0,0,.1-.1.2-.9,1-.6,2,0,3,.2.4.9.5.5,1.1-1.2.3-2.1,0-2.7-1.1Z"/>
        <path class="cls-33" d="M148.1,67.7c-.6-.8-1.2-1.7-1.4-2.7.1-1.5.7-1.9,3-1.8,1,.4,1.6,1.2,1.8,2.3-.2.5-.8.5-1.2.5-1.3,0-1.8.7-2.1,1.8Z"/>
        <path class="cls-145" d="M148.1,67.7c-.2-2.1.2-2.3,3.1-2.1.9.5,1.6,1.1,1.1,2.2-1.1.6-2.4.6-3.6,1-.4-.3-.6-.7-.6-1.2Z"/>
        <path class="cls-156" d="M163.3,35.2c.3.7,1.3,0,1.6.7,0,1.4.3,2.9.3,4.3-1.2.4-2.1-.2-2.9-1,0-1.4-.9-2.7.1-4.1.3,0,.5,0,.8,0Z"/>
        <path class="cls-93" d="M155.5,32.8c.5,1.4.9,2.9,1.4,4.3-.7.4-1.3.2-1.7-.5-.6-1-1.1-2-1.7-2.9-.7-1.1,0-1.2.9-1.2.3.4.8.3,1.2.3Z"/>
        <path class="cls-139" d="M141.5,28.3c0,.7,0,1.3,0,2,.3.5.2.9-.2,1.2-.9.7-1.6,1.7-2.7,2.2-.6,0-1.3,0-1.9-.1-.6-1.3.5-1.8,1.1-2.4,1.2-.7,2.4-1.3,3.1-2.6.1-.3.3-.5.7-.3Z"/>
        <path class="cls-28" d="M169.8,42.3c.7-1.2,0-2.7.7-3.9.5.7,1.6.4,2.1,1.1-.4,1.3-.6,2.6-.7,3.9-1,.2-1.7-.1-2.1-1.1Z"/>
        <path class="cls-122" d="M143.9,46.8c-1.3-.1-2.5-.7-3.7-1.6,0,.6-.1,1.1-.2,1.6-.1-.4-.2-.7-.4-1.1-.3-.9-.3-1.7,1.1-1.6.4,0,.8-.2,1.1-.5.3-.1.6-.3.9-.4,1.3.9,1.7,1.9,1.2,3.5Z"/>
        <path class="cls-14" d="M146.7,55.5c-.9,0-1.8,0-2.7,0-.5,0-1,0-1.1.7-.4-.6-.8-1.2-.7-2,0-.8.7-.8,1.3-.8.9,0,1.8.2,2.6.3.6.5,1.1.9.7,1.7Z"/>
        <path class="cls-43" d="M168.3,37.4c-.9,1,0,2.4-.6,3.5-.7.5-1.3.1-1.9,0-.2-.1-.3-.3-.4-.5,0-1.3-.3-2.6.6-3.7.8.1,1.7.1,2.3.8Z"/>
        <path class="cls-41" d="M140.8,49.6c0-.6,0-1.2,1-.9.8.3,1.7.3,2.5.5.3,0,.5.2.6.4.3.5,1,1,.4,1.7-1.5-.1-3-.6-4.5-1,0-.2,0-.4,0-.6Z"/>
        <path class="cls-89" d="M138.7,27.2c0-.8.3-1.5.6-2.2.3.3.6.4,1.1.2.4-.2.9-.2,1.2.3,0,.8.3,1.7-.3,2.3-.5.6-1.2,1.3-2.1,1.1-.9-.2-.2-1.2-.6-1.8Z"/>
        <path class="cls-8" d="M138.7,27.2c.5.4.1,1,.4,1.4,2-.2,2.6-1.4,2.3-3.2,0,0-.1-.2,0-.3,0,0,0-.1,0-.1.2,0,.3,0,.4,0,0,1.1,0,2.1-.3,3.1-.5,1.8-2.2,2.3-3.6,3.1-.1,0-.2-.2-.1-.4.1-.2.4-.2.4-.4h0c.6-.4,0-1.2.4-1.8,0-.5,0-1.1,0-1.6Z"/>
        <path class="cls-107" d="M150,63.5c-1.2.2-2.8-.3-3.3,1.5-.5-.6-1-1.3-1-2.1,1.2-.6,2.6-.5,3.9-.7.5.3.7.8.5,1.4Z"/>
        <path class="cls-123" d="M177.5,21.3c2.2-.3,4.4-.2,6.3,1.2-2.9-.8-5.8-.6-8.7-.2-.2-.2-.2-.4,0-.6.2,0,.4,0,.6,0,.6-.3,1.3,0,1.8-.3Z"/>
        <path class="cls-121" d="M151.6,15.4c2.3.3,4.2,1.3,5.9,2.8,0,.2-.1.3-.3.4-2.3-1.2-4.6-2.3-7.1-2.7.4-.5,1.1,0,1.5-.4Z"/>
        <path class="cls-5" d="M138.7,33.5c.6-1.4,2.4-1.7,2.8-3.2.6.1,1.1.3,1.7.4.1.3.8.6-.1.8-1.2.3-2.3.8-3,2-.5.4-.9.4-1.4,0Z"/>
        <path class="cls-9" d="M166,36.6c0,1.3.1,2.6-.4,3.9-.2.2-.3,0-.4-.2-.9-1.4-.9-2.8-.3-4.3.4.2.7.4,1.1.6Z"/>
        <path class="cls-17" d="M136.6,38.8c-.4-.3-.1-.9-.7-1.1,0-.5.3-.7.7-.7,1-.5,1.9-1,2.4-2.1.7-.5,1.3-.3,1.8.3-.8,1.9-2.4,3-4.3,3.6Z"/>
        <path class="cls-71" d="M134.8,33.8c-.5,0-.9,0-1.4,0-.7-1.2,0-1.8.8-2.5.3-.2.7,0,.9-.4h0c.4-.2.9,0,1.3,0,.6,1.1-.5,1.7-.7,2.5-.2.3-.6.2-.9.4Z"/>
        <path class="cls-77" d="M134.5,31.4c-.5.8-1.3,1.4-1,2.5,0,0-.1,0-.1,0h-.1c-.6.1-1.3.2-1.9,0,.1-.7.5-1.3.3-2.1.5-.1,1-.5,1.6-.4.4-.1.8-.2,1.2,0Z"/>
        <path class="cls-36" d="M143.2,76.8c.4-.9,1.2-1.3,2.1-1.5.3.3.9,0,1.1.4-.3,1.7-1.7,2.2-3,2.9-.2,0-.3,0-.4-.3-.2-.5-.1-1.1.2-1.6Z"/>
        <path class="cls-137" d="M148.8,68.9c.9-1.3,2.3-1,3.6-1.2.4.2.6.5.4,1-1.1.5-2.6,0-3.6,1.1-.2-.3-.5-.5-.4-.9Z"/>
        <path class="cls-73" d="M178.5,85.2c.9-1.9,2.1-3.6,2.5-5.6.6-.2.3.5.6.7-.3,1.6-1.2,2.9-2,4.3-.3.5-.6.6-1.1.6Z"/>
        <path class="cls-143" d="M139,35.3c-.5,1.3-1.7,2.1-2.5,1.8,0-.9.5-1.5,1.4-1.7.2,0,.2-.4.4-.5.3,0,.5.2.6.4Z"/>
        <path class="cls-65" d="M186.9,53.8c.8-.8,1.6-1.7,2.4-2.5.4.1.8.2,1.1.3.2.2.2.4.1.6-.8.3-1.4.8-1.9,1.5-.1.2-.3.3-.5.5-.3.2-.4.7-.9.5-.1-.3-.3-.7-.4-1Z"/>
        <path class="cls-64" d="M187.6,74c1.4-.5,2.6-1.7,4.3-1.7-1.1,1.2-2.2,2.3-4.1,1.9,0,0-.2,0-.2-.1Z"/>
        <path class="cls-92" d="M141.5,25.1c0,.1,0,.2,0,.3-.4.1-.9.1-1.3.3-.9.4-.8-.3-.8-.7,0-.2,0-.4,0-.6.9.4,1.6-.2,2.4-.4.4.5,0,.8-.3,1Z"/>
        <path class="cls-147" d="M123.9,46.5c-1.3-1.7-1.2-3.7-.9-5.7,0-.2.2-.2.3,0,0,1.8.6,3.4.7,5.1.1.2,0,.4,0,.6Z"/>
        <path class="cls-146" d="M129.6,74c0,.2,0,.4,0,.6.2.4,0,.4-.3.4-.3-.4-.5-.8-.5-1.3-.2-1.4-.2-2.9,0-4.3h0c.2,0,.4,0,.5.1,0,.6.1,1.2,0,1.8,0,.2,0,.3,0,.5.3.7,0,1.5.2,2.2Z"/>
        <path class="cls-46" d="M151.7,73.9c.9.6,1.4-.4,2.1-.5.4-.1.4,0,.4.4-.8.5-1.5,1.1-2.5,1.4.2-.4.1-.8,0-1.2Z"/>
        <path class="cls-62" d="M182.4,75.6c-.1,0-.2-.1-.4-.2-.2-.2-.2-.5,0-.7h0c.2-.3.5-.3.7,0h1.7c.4-.2.8-.3.8.3-.9.2-1.9.4-2.8.6Z"/>
        <path class="cls-161" d="M134.8,33.8c.2-.1.5-.2.7-.3.3-.3.7-.3,1,0,.7,0,1.4,0,2.1,0,.5,0,.9,0,1.4,0,0,0,0,.2,0,.3-.7.7-1.4.6-2.1,0-1,0-2.1,0-3.1,0Z"/>
        <path class="cls-48" d="M125.4,49.2c-.5-.5-.9-1.1-1-1.8.2-.2,0-.5.3-.7.4.7.7,1.4,1.1,2.1,0,.2-.2.3-.4.4Z"/>
        <path class="cls-115" d="M181.7,80.3c-.2-.2-.4-.5-.6-.7.2-.8.5-1.6.7-2.4.8.1.4.7.3,1.1-.1.7-.3,1.3-.4,2Z"/>
        <path class="cls-159" d="M129.3,67c0-.7.2-1.5.7-2.1.1-.1.2-.1.3,0,0,1-.3,2-.6,2.9-.4-.2-.1-.6-.4-.8Z"/>
        <path class="cls-4" d="M141.8,43.7c0,.7-.5.7-1,.7-1.2-.1-1.2.6-1.2,1.4-.5-.5-.3-1.2-.3-1.8.8-.1,1.6-.2,2.4-.3Z"/>
        <path class="cls-1" d="M187.6,74c0,0,.1.1.2.1,0,.9-.7.5-1.1.6-.4,0-1,.5-1.1-.3.7-.1,1.4-.3,2-.4Z"/>
        <path class="cls-113" d="M171.8,22.6c.5-.4,1.2-.5,1.8-.6.3.3.8,0,1.1.4-.8.2-1.7.4-2.5.6-.1-.1-.4-.2-.4-.4Z"/>
        <path class="cls-7" d="M157.2,18.5c.1-.1.2-.2.3-.4.6.2,1.2.4,1.4,1.3-.8,0-1.3-.5-1.7-1Z"/>
        <path class="cls-22" d="M128.8,69.4c0,1.4,0,2.9,0,4.3-.5-1.4-.4-2.9,0-4.3Z"/>
        <path class="cls-60" d="M142.6,78.6v2.1c-.7-.3-.7-1.3-1.5-1.2.5-.3,1.2-.3,1.5-.9Z"/>
        <path class="cls-152" d="M146.4,75.8c-.4,0-.8,0-1.1-.4.8-.4,1.7-.6,2.5,0-.2,0-.4.2-.6.3,0,0,0,.1-.1.2-.2,0-.5,0-.6-.1Z"/>
        <path class="cls-154" d="M138,33.9c.7,0,1.4,0,2.1,0,0,0,0,.1,0,.1.1.1.1.3,0,.4-.5.4-1.2.3-1.7.5-.1.1.2.6-.3.4,0-.5,0-.9,0-1.4Z"/>
        <path class="cls-151" d="M138,60.7c.6.5,1.4.7,2,1.7-1-.2-1.6-.6-2-1.3-.2-.1-.2-.3,0-.4Z"/>
        <path class="cls-71" d="M131.3,33.9c.6,0,1.2,0,1.9,0-1.1.4-2.2.6-3.3.7.3-.5,1-.4,1.4-.7Z"/>
        <path class="cls-52" d="M126.5,49.9c.4.4.9.8,1,1.6-.9,0-1-.7-1.4-1.2,0-.2.2-.4.4-.4Z"/>
        <path class="cls-94" d="M129.3,67c.1.3.2.5.4.8,0,.3,0,.6,0,.9-.2.2,0,.6-.3.7-.1,0-.2,0-.3,0,0-.8.2-1.6.4-2.4Z"/>
        <path class="cls-47" d="M194.7,66.2c.4.4-.2,1.2.6,1.4,0,.6-.2.9-.7,1.2-.3-.9,0-1.7,0-2.6Z"/>
        <path class="cls-103" d="M164.9,25.1c.5,0,1.1-.1,1.8-.2-.5.9-1.1,1-1.8.6-.1,0-.1-.2-.1-.3,0,0,0-.1.1-.1Z"/>
        <path class="cls-139" d="M136.6,31.1c-.5,0-1,0-1.4,0,1-.5,2.1-.3,3.1-.4,0,.1-.2.3-.3.4-.5.3-.9.4-1.4,0Z"/>
        <path class="cls-136" d="M182.1,78.3c-.1-.4,0-.8-.3-1.1,0-.5-.1-1.1.7-1.3,0,.8,0,1.6-.3,2.4Z"/>
        <path class="cls-127" d="M169.8,31.8c.5.5.8,1.1.7,1.9-.4-.5-.7-1-1.1-1.6.1-.1.1-.3.4-.3Z"/>
        <path class="cls-69" d="M133.8,56.9c.1.4.2.7.4,1.1.1,0,.2.1.1.2,0,0,0,.1-.1.1-.3-.1-.6-.2-.9-.3-.1.2-.3.2-.4,0,0-.2,0-.5,0-.7h0c.3,0,.6,0,.8-.3,0-.1.2-.1.3,0Z"/>
        <path class="cls-91" d="M137.3,51.3c-.3.5-.4,1.1-1.1,1.3-.2-.8.5-1.1.7-1.7.3,0,.5,0,.3.3Z"/>
        <path class="cls-131" d="M190.5,52.4c0-.2,0-.5,0-.7.2,0,.5,0,.7,0,.2.1.4.2.4.5-.3.7-.6,1.2-1.5.9-.2-.4,0-.6.3-.8Z"/>
        <path class="cls-112" d="M191.5,52.1c0-.1-.2-.2-.3-.4.8,0,1.7-.3,2.4.3-.3,0-.6,0-.7.4-.1.1-.2.2-.4.2-.4,0-.8-.2-1-.5Z"/>
        <path class="cls-13" d="M158.6,29.7c.3-.6,1-.9,1.7-1.2-.2.9-.9.9-1.3,1.2-.1.1-.2.1-.4,0Z"/>
        <path class="cls-68" d="M151.6,15.4c-.4.5-1,.2-1.5.4-.4,0-.8,0-1.3,0,0,0-.1-.2,0-.2,0,0,0-.1,0-.1.9-.2,1.9-.2,2.8,0Z"/>
        <path class="cls-83" d="M143.2,76.8c0,.6,0,1.1,0,1.7,0,0,.1.2.1.3,0,0,0,.1,0,.1-.2,0-.3,0-.4,0,0-.1,0-.2,0-.4-.6-.7-.2-1.2.4-1.7Z"/>
        <path class="cls-2" d="M126.5,49.9c-.1.1-.3.3-.4.4-.3-.3-.6-.6-.7-1,.1-.1.3-.3.4-.4.2.3.4.7.7,1Z"/>
        <path class="cls-101" d="M133.8,56.9c0,0-.2,0-.3,0,.2-.6.4-1.2,1.2-1.9-.2.9-.4,1.5-.9,1.9Z"/>
        <path class="cls-80" d="M137.3,51.3c-.1-.1-.2-.2-.3-.3.3-.5.6-.9,1.4-1.3-.2.7-.6,1.2-1,1.6Z"/>
        <path class="cls-15" d="M165,25.8c-.7.8-1.2,1.1-2.1,1,.5-.5,1.1-.8,2.1-1Z"/>
        <path class="cls-126" d="M132.8,58c.1,0,.3,0,.4,0-.2.6-.4,1.1-.8,2.1-.3-1.2.1-1.6.4-2.1Z"/>
        <path class="cls-157" d="M129.5,53.8c-1-.2-1.2-.9-1.8-1.4q1,.2,1.8,1.4Z"/>
        <path class="cls-57" d="M131.1,61.5c.1-.4.1-.9.8-.9.1.7-.2,1.2-.5,1.7-.3-.2-.1-.5-.3-.7Z"/>
        <path class="cls-97" d="M169.8,31.8c-.1.1-.2.2-.4.3-.3-.5-.5-1-.9-1.7.9.2,1,.9,1.3,1.3Z"/>
        <path class="cls-110" d="M170,23.4c-.4.9-1.1.9-2,1.2.6-.9,1.2-1,2-1.2Z"/>
        <path class="cls-58" d="M185.6,74.4c.3.4.7.2,1.1.3-.4.3-1,.4-1.5.3-.3-.1-.5-.2-.8-.4.3-.3.7-.3,1.1-.3Z"/>
        <path class="cls-11" d="M124.7,46.8c0,.3,0,.6-.3.7-.1-.3-.3-.6-.4-.9,0-.2,0-.4,0-.6.4,0,.6.4.7.8Z"/>
        <path class="cls-82" d="M158.6,29.7c.1,0,.2,0,.4,0-.4.3-.9.7-1.7,1.3.4-1,.8-1.3,1.4-1.3Z"/>
        <path class="cls-72" d="M138,60.7c0,.1,0,.3,0,.4-.7-.1-1.2-.6-1.8-1.1.1-.2.3-.2.4,0,.6,0,.9.5,1.3.7Z"/>
        <path class="cls-25" d="M134.1,58.3c0-.1,0-.2,0-.3.5.4.9.7,1.4,1.1.1,0,.1.1.1.2,0,0,0,.1-.1.1-.7,0-1.1-.4-1.4-1Z"/>
        <path class="cls-22" d="M129.2,69.5c.1-.2.2-.5.3-.7,0,.9,0,1.7-.2,2.5,0-.6,0-1.2-.1-1.8Z"/>
        <path class="cls-31" d="M171.8,22.6c.1.1.3.3.4.4-.6.2-1.3.6-2.1.2.6-.2,1.2-.4,1.7-.6Z"/>
        <path class="cls-152" d="M132.8,57.2c-.5-.3-1.1-.6-1.3-1.4.8.3,1.3.6,1.3,1.4,0,0,0,0,0,0Z"/>
        <path class="cls-63" d="M191.8,72.3c0-.7.4-1,1-1.2.2.2.2.4,0,.6-.2.4-.6.7-1.1.6Z"/>
        <path class="cls-22" d="M129.6,74c-.5-.7-.3-1.4-.2-2.2.2.7.3,1.5.2,2.2Z"/>
        <path class="cls-66" d="M167.7,28.6c.3.3.6.6.6,1.2-.6,0-.7-.5-.9-.8,0-.2.2-.3.3-.3Z"/>
        <path class="cls-89" d="M141.5,25.1c.1-.3.2-.7.3-1,0-.3,0-.6.4-.7,0,.6,0,1.2-.3,1.8-.1,0-.3,0-.4,0Z"/>
        <path class="cls-108" d="M130.3,64.9h-.2s-.2,0-.2,0c0-.4,0-.8.3-1.1.1-.2.2-.2.4,0,0,.4,0,.8-.3,1Z"/>
        <path class="cls-95" d="M129.3,75c.1-.1.2-.3.3-.4.3.4.4.8.3,1.3-.7,0-.6-.5-.6-.9Z"/>
        <path class="cls-81" d="M166.9,27.5c-.7,0-.9-.4-1.1-.9.7,0,.8.4,1.1.9Z"/>
        <path class="cls-84" d="M174.8,22.4c-.4-.1-.8,0-1.1-.4.5-.1.9-.2,1.4-.3,0,.2,0,.4,0,.6h-.1c0,0-.2,0-.2,0Z"/>
        <path class="cls-45" d="M160.9,20.7c.2.3.3.4.4.6,0,.2-.2.3-.3.2-.1,0-.3-.2-.4-.3,0,0,.2-.2.3-.5Z"/>
        <path class="cls-21" d="M161,28.1c.2-.5.5-.7.9-.6,0,.7-.6.5-.9.6Z"/>
        <path class="cls-40" d="M131,77.8c-.6-.2-.9-.5-1-.9,0,0,.2-.3.3-.3.4.1.4.6.7,1.1Z"/>
        <path class="cls-68" d="M163.3,35.2c-.3,0-.5,0-.8,0-.6.1-1,0-1.1-.7,0,0,0,0,0,0,.7,0,1.3.2,1.8.7Z"/>
        <path class="cls-49" d="M193,71.6c0-.2,0-.4,0-.6.2-.5.5-.7,1.1-.5-.3.4-.5.9-1,1.1Z"/>
        <path class="cls-6" d="M134.5,31.4c-.4,0-.8,0-1.2,0,.6-.4,1.2-.4,1.9-.4-.1.3-.4.4-.7.4Z"/>
        <path class="cls-37" d="M130.6,63.9c-.1,0-.2,0-.4,0l.4-1.3c.3,0,.5,0,.3.4-.1.3-.3.7-.4,1Z"/>
        <path class="cls-12" d="M164.9,25.1c0,.1,0,.2,0,.4-.4-.2-.7-.5-.9-.9.6-.2.6.3.9.6Z"/>
        <path class="cls-110" d="M131.1,62.9c-.1-.1-.2-.2-.3-.4.1-.3.3-.7.4-1,0,.2.2.5.3.7-.1.2-.2.5-.3.7Z"/>
        <path class="cls-139" d="M138.7,28.9c0,.6.4,1.4-.4,1.9.1-.6.3-1.2.4-1.9Z"/>
        <path class="cls-132" d="M135.5,59.3c0,0,0-.2,0-.3.5.2.8.6,1.1,1-.1,0-.3,0-.4,0-.3-.2-.6-.3-.7-.7Z"/>
        <path class="cls-159" d="M177.5,21.3c-.5.5-1.2.3-1.8.3.6-.3,1.2-.4,1.8-.3Z"/>
        <path class="cls-144" d="M167.7,28.6c-.1.1-.2.2-.3.3,0-.4-.8-.6-.4-.9.2-.2.5.3.7.6Z"/>
        <path class="cls-35" d="M145.1,17.5c-.1-.2-.3-.3-.4-.5.2-.3.7-.7.9-.4.4.4-.2.6-.5.8Z"/>
        <path class="cls-19" d="M123.3,40.8h-.2s-.2,0-.2,0c-.1-.4.1-.8.4-1.1.3.4,0,.7,0,1.1Z"/>
        <path class="cls-87" d="M135.4,54.3c-.3-.5-.1-.8.2-.9.4-.1.2.2.2.4,0,.1-.2.3-.3.5Z"/>
        <path class="cls-125" d="M148.8,15.4c0,.1,0,.2,0,.3-.3.2-.7.4-.8,0,0-.3.5-.4.8-.3Z"/>
        <path class="cls-23" d="M177.6,75c-1.7.8-3.3,0-5,0-.1,0-.2-.1-.1-.2,0,0,0,0,.1,0,1.9,0,3.8-.2,5.6.3-.2.3-.4.2-.7,0Z"/>
        <path class="cls-105" d="M182.8,74.7c-.2,0-.5,0-.7,0v-2.4c.6-.6-.4-1.6.6-2.1,0,1.5,0,3,0,4.5Z"/>
        <path class="cls-160" d="M182.7,70.2c-.6.6,0,1.5-.6,2.1,0-1.3,0-2.6,0-3.9.1-.1.1-.3.3-.4.4.7.3,1.4.2,2.2Z"/>
        <path class="cls-79" d="M181.3,61.8c-.6-.6-.3-1.4-.3-2.2.6.7.7,1.5.6,2.2-.1.2-.2.2-.4,0Z"/>
        <path class="cls-134" d="M167,74c-.5-.1-.9-.3-1.9-.5,1.1-.2,1.7-.3,2.2.2,0,.2-.2.2-.4.4Z"/>
        <path class="cls-100" d="M167,74c.1-.1.2-.2.4-.4.5,0,1-.2,1.4.4.1,0,.2.1.1.2,0,0,0,.1-.1.1-.6-.1-1.2-.2-1.8-.3Z"/>
        <path class="cls-135" d="M182.1,66c-.5-.8-.4-1.6-.3-2.4.1-.1.2-.1.3,0,.1.8.2,1.6.3,2.4,0,.1-.2.1-.3,0Z"/>
        <path class="cls-140" d="M172.6,74.7c0,0,0,.2,0,.3-.7-.1-1.4-.2-2.1-.3-.1,0-.2-.1-.1-.2,0,0,0,0,0,0,.7,0,1.4,0,2.1.3Z"/>
        <path class="cls-102" d="M182.1,74.8c0,.2,0,.5,0,.7-.7,0-1.4,0-2.1,0-.1,0-.2-.1-.1-.2,0,0,0-.1.1-.1.7-.1,1.4-.2,2.1-.3Z"/>
        <path class="cls-20" d="M182.1,66c0,0,.2,0,.3,0,0,.7,0,1.3.1,2-.1.1-.2.3-.3.4,0-.8,0-1.6,0-2.4Z"/>
        <path class="cls-121" d="M180,75.1c0,.1,0,.2,0,.3-.8,0-1.7.4-2.4-.3.2,0,.4,0,.7,0,.6,0,1.1,0,1.7,0Z"/>
        <path class="cls-104" d="M170.5,74.4c0,0,0,.2,0,.3-.6-.1-1.2-.2-1.7-.3,0-.1,0-.2,0-.3.6,0,1.3-.2,1.8.4Z"/>
        <path class="cls-51" d="M182,63.6c0,0-.2,0-.3,0-.6-.5-.3-1.2-.4-1.8.1,0,.2,0,.4,0,0,.6.2,1.2.3,1.8Z"/>
        <path class="cls-61" d="M187.3,54.8c.2-.2.4-.4.6-.7.4.4.4.9,0,1.3-.2-.1-.4-.2-.6-.3v-.4Z"/>
        <path class="cls-118" d="M206.9,51.8c0-2,0-4,.7-5.9.9-2.7,3-4.3,5.6-4.2,2.6.1,4.6,1.7,5.3,4.5.9,3.6.9,7.2,0,10.8-.7,2.7-2.8,4.4-5.4,4.4-2.7,0-4.6-1.5-5.5-4.2-.6-1.7-.7-3.5-.6-5.4Z"/>
        <path class="cls-118" d="M239.4,45.8q0-3.8,3.7-3.6c1.7,0,3.1,1.1,3.3,2.6.4,2.2-.3,3.7-2.1,4.4-.3.1-.7.2-1,.3-3.8.5-3.9.4-3.9-3.7Z"/>
        <path class="cls-118" d="M23.2,45.9c0-.3-.1-.6,0-.9.5-.9-1.1-2.7,1-2.9,3.4-.3,5.1.6,5.4,2.9.5,3.7-2.3,6-5.9,4.9-.6-.2-.5-.5-.5-.9,0-1,0-2.1,0-3.1Z"/>
        <path class="cls-118" d="M152.8,68.7c0-.4-.1-.7-.4-1,.1-1-.9-1.3-1.1-2.1l-1.3-2.1c-.2-.5-.3-.9-.5-1.4,0-.6-.3-1-.6-1.4-.2-.9-.6-1.7-1-2.4,0-1.1-1.2-1.7-1.2-2.8.2-.8-.7-1.1-.7-1.7,0-.9-.4-1.7-.8-2.4.2-.7-.7-1.1-.6-1.7-.3-.8-.5-1.7-.7-2.5,0,0,0-.2,0-.3-.2-1.2-.4-2.5-1.2-3.5,2.3-2.3,2.6-4.9.7-6.9-.4-.5-.8-1-1.6-.8-.3-.3-.4-.7-.3-1.1.3-.5.8-.6,1.3-.7,2.4,0,4.6.6,7,1,.8.1,1.4.6,2.1.9.3.3.7.3,1.1.3.7.2,1.4.4,2.1.6.6.2,1.1.3,1.7.5.6.4,1.4.6,2.1.7.9.4,1.8.9,2.8,1,.3,0,.5,0,.7.3.9.4,1.8.8,2.8,1.2,0,.2.2.3.4.2,0,0,.2,0,.3,0,.5.3,1.3.2,1.7.8.7.3,1.4.7,2.1,1,.6.5,1.4.8,2.1,1.1.8.5,1.6.9,2.5,1.4.8.5,1.6.9,2.4,1.4.5.5,1.1.8,1.7,1.1.5.7,1.5.7,1.8,1.6-1.4.5-1.7,1.9-2.4,2.8-.3.5-.5,1.1-1.1,1.3-.4,0-.4.3-.4.6-.7,1.7-2,3-3.2,4.3-3.7,4.1-7.6,8-12,11.2-.5.4-1,.8-1.6.9-1.5,1-2.9,1.9-4.4,2.9-.4.1-.4,0-.4-.4.3-.2.5-.5.2-.9-.7-1-1.5-2-2.3-3Z"/>
        <path class="cls-150" d="M159.6,70.1c6.2-4.9,11.8-10.4,16.9-16.5.1.6,0,1.2-.4,1.7-2.7,4.4-5.7,8.6-10.1,11.4-1.6,1-3.1,2.1-4.9,3-.5.2-.9.5-1.5.4Z"/>
        <path class="cls-88" d="M142.9,78.8c.1,0,.2,0,.3,0,.4.1.7.4,1,.6.8.8,1.6,1.4,2.8.8,1-.6,1-1.5.9-2.6,0-.5-.1-.9.3-1.3,1.6,1,1.3,2.4.7,3.7-.6,1.4-1.8,2-3.4,1.8-.4,0-.8-.2-1.2-.2-.5-.9-1.5-1.6-1.4-2.8Z"/>
        <path class="cls-50" d="M148.1,76.4c0,.5,0,.9.2,1.4.3,1.2.1,2.3-1.1,2.9-1.4.7-2.5,0-3.3-1.1.1-.2.4-.3.6-.3,2.3.5,2.6.3,2.9-2.5,0-.3.2-.5.4-.6.1.1.3.2.4.3Z"/>
        <path class="cls-109" d="M147.8,76.1c0,.2,0,.4,0,.7-.7,1.3-1.9,2.1-3.1,2.8-.2,0-.5,0-.7,0-.5,0-.7-.3-.7-.8,0-.1,0-.3,0-.4.1,0,.2,0,.3,0,1.3-.7,2.4-1.7,3.4-2.7,0,0,0,0,.1-.1.2.1.4.3.6.4Z"/>
        <path class="cls-29" d="M154.8,72.6c.1.1.2.2.4.4-.2.4-.6.6-1.1.7-.1-.1-.2-.2-.4-.4.3-.4.6-.6,1.1-.7Z"/>
        <path class="cls-150" d="M176.8,53.1c.4-.4.7-.9,1.1-1.3,0,.7-.2,1.3-1.1,1.3Z"/>
        <path class="cls-129" d="M137.2,39.5c-.3,0-.5-.1-.6-.4,1.7-1,3.4-2.1,4.5-3.8.3,0,.5,0,.3.4v.6c.2.3.2.6.1.8-.2,3.1-1.7,3.9-4.4,2.4Z"/>
        <path class="cls-34" d="M137.2,39.5c3.4.7,3.9.2,4.3-3.3,0,0,.2,0,.3,0,0,.5,0,.9,0,1.4,0,1.3-.4,2.4-1.7,2.9-1.3.6-2.2-.2-2.9-1.1Z"/>
        <path class="cls-56" d="M141.5,35.7c-.1-.1-.3-.2-.4-.4,0,0-.1-.1-.2-.2-.2-.3-.5-.7,0-1,.5-.2.8,0,.9.5,0,.3,0,.6,0,1-.1,0-.2,0-.4,0Z"/>
        <path class="cls-24" d="M192.5,52.4c.1,0,.3,0,.4,0,.7,1.1.5,2.4.2,3.5-.3,1.2-1.4,1.7-2.6,1.3-.8-.2-1.7-.5-2.2-1.3,1.3-1.2,2.8-2.2,4.2-3.4Z"/>
        <path class="cls-124" d="M192.5,52.4c-.8,1.8-2.4,2.7-4.2,3.4-.1-.1-.2-.2-.3-.4,0-.4,0-.9,0-1.3.1-.1.2-.3.4-.4.7,0,1-.8,1.8-.7.7,0,1.1-.5,1.4-1,.4-.1.7.2,1,.4Z"/>
        <path class="cls-161" d="M152,35.7c-.7-.2-1.4-.3-2.1-.5-2.2-1.5-4.6-2-7.2-1.2-.6,0-1.3.3-1.9-.2,3-2.8,6.2-2.7,9.2-.3.7.6,1.3,1.4,1.9,2.2Z"/>
        <path class="cls-119" d="M140.8,33.8c.7,0,1.4,0,2.1,0,0,0,.1.1.1.2,0,0,0,.1,0,.1-.4,0-.9,0-1.1.4-.3-.2-.6-.4-1-.3-.3.2-.5.1-.7-.1,0,0,0-.2,0-.3.2,0,.5,0,.7-.1Z"/>
        <path class="cls-106" d="M141.1,35.3c-.3,1.7-2.7,3.7-4.5,3.8,0,0-.1-.2,0-.3,1.4-1.1,3-2.1,4.2-3.4,0-.2.2-.2.4,0h0Z"/>
        <path class="cls-122" d="M144,47c.4.8.7,1.6.7,2.5-.1-.1-.3-.2-.4-.3-.1-.7-.5-1.4-.3-2.2Z"/>
        <path class="cls-9" d="M167.7,41.3c-.6-.3-1.2-.6-1.7-.8.6.1,1.2.2,1.8.3v.5Z"/>
        <path class="cls-149" d="M162.5,39.1c-.3,0-.5,0-.7-.3-1.6-.7-1.4-2.2-1.5-3.6-.1-1,.7-.5,1.2-.6.4.2.7.4,1.1.7-.4,1.3.6,2.5,0,3.8Z"/>
        <path class="cls-6" d="M136.6,31.1c.5,0,.9,0,1.4,0,0,.1,0,.2,0,.3-.5.7-1.3,1.2-1.4,2.1-.3,0-.7,0-1,0-.1-1,.6-1.7,1-2.4Z"/>
        <path class="cls-161" d="M141.1,35.3c-.1,0-.2,0-.4,0-.6,0-1.1-.8-1.7,0-.2-.1-.5-.3-.7-.4.2-1.2,1.2-.2,1.7-.7.2,0,.5,0,.7.1.1.3.2.7.3,1Z"/>
        <path class="cls-120" d="M147,75.8c-.7,1.5-1.8,2.4-3.4,2.7.7-1.2,2.2-1.5,2.8-2.8.2,0,.4,0,.7,0Z"/>
        <path class="cls-55" d="M190.1,53.1c-.4.3-.8.6-1.1,1-.4.4-.6.2-.6-.3.6-.6.7-2,2.1-1.4-.1.2-.2.5-.3.7Z"/>
        <path class="cls-75" d="M169.9,45.7c3.3,4.3,2.7,10.7-1.3,14.7-4,4.1-10.5,4.7-15.1,1.3-.4-.3-.8-.7-1.1-1,.4-1.2,1.3-.5,1.8-.4,2.3.6,4.5.6,6.7,0,4.7-1.3,9.1-6.6,8.4-12.9,0-.6-.7-1.5.6-1.8Z"/>
        <path class="cls-78" d="M169.9,45.7c-.3.2-.4.5-.3.9,1,5.5-1.1,9.7-5.6,12.8-2.9,2-6.2,2.4-9.6,1.5-.7-.2-1.3-.7-2.1-.2-.8-.5-1.4-1.2-1.8-2,.2-1.1.4-1.2,1.4-.6,2.6,1.6,5.4,1.7,8.2,1.1,3.3-.6,8.1-5,7.8-9.7-.1-1.7.1-3.5-.9-5.1-.2-.3-.8-1.3.5-1.2.9.6,1.8,1.3,2.2,2.4Z"/>
        <path class="cls-90" d="M149.5,56.7c-.5-.7-.7-1.6-.7-2.4-.2-.7-.2-1.5,0-2.3.8.2,1.1.8,1.4,1.3,3.2,5.2,9.8,5.7,13.9,1.1,2.7-2,3.2-8.1-.1-11.2-.1,0-.3-.2-.4-.3-.2-.1-.4-.3-.6-.5-.5-.6-1.4-.6-1.5-1.5.3-.4.8-.3,1.2-.1,1.1.1,2.1.4,3,1.1-.1.3,0,.5.2.8,3.3,3.5,2.9,11.2-2.1,14.8-3.4,2.4-8.7,2.6-12.1.2-.6-.4-1-1.4-2-1Z"/>
        <path class="cls-107" d="M149.5,56.7c0-.9.2-1.2,1-.4,2.9,2.7,6.3,3.3,10.2,2.3,3.4-.9,6.5-4.6,6.7-8.2.2-2.8,0-5.6-2.3-7.7-.7-.7,0-.7.4-.7.7.4,1.7.5,2.1,1.4-.8.5-.2,1,0,1.4,1.5,3,.9,8.4-1.1,10.8-3.3,4-7.4,5.3-12.4,4.1-.9-.2-1.8-.6-2.5-1.2-.5-.4-.9-.6-1,.3-.6-.6-.9-1.2-1.1-2Z"/>
        <path class="cls-155" d="M164.2,54.5c-1.3,2.6-3.6,3.3-6.1,3.4-4.2.2-7.2-1.7-9.1-5.9,0,1-.1,1.6-.2,2.3-.6-2.3-.4-4.6.8-6.7.7,0,.6.5.7.9,0,.4,0,.9,0,1.3,0,.2,0,.3,0,.5,0,.2,0,.3,0,.5,1.1,4,4.6,6.2,8.6,5.4,3.8-.8,6.2-4.3,5.7-8.3-.1-.9-.6-1.8.3-2.6.4,0,.6.3.7.6,1.1,2.2.6,6.9-1.6,8.5Z"/>
        <path class="cls-141" d="M150.6,45.7l.4-.3c.6-.8,1.2-1.7,2.2-2.1,0-.5.6-.6.9-1,.8-.2,1.4-.7,2.2-.9.3-.2.6-.2,1-.1.7.1,1,.6.4,1-2.2,1.8-4.3,3.8-6.8,5.2-.1,0-.3,0-.4-.2-.4-.6,0-1.1.1-1.6Z"/>
        <path class="cls-142" d="M142.9,34.2c0,0,0-.2,0-.3,2.5-1.4,5-.9,7,1.3-2.3-.3-4.6-1-7-1Z"/>
        <path class="cls-117" d="M157.2,41.5c-.3,0-.7,0-1,0,0,0-.1-.2-.1-.3,0,0,0-.1,0-.1.9-.4,1.8-.7,2.8-.6,0,.1.1.3,0,.4-.1.2-.3.4-.5.4-.4.2-.9-.2-1.3.1Z"/>
        <path class="cls-98" d="M159,40.8c0-.1,0-.2,0-.3,1.2,0,2.4-.3,3.5.3-.4.1-.8,0-1.1.3,0,.1-.2.2-.3.3-.2,0-.3,0-.5,0-.2,0-.3,0-.4,0-.4-.2-.9-.1-1.2-.5Z"/>
        <path class="cls-85" d="M153.2,43.3c-.7.7-1.3,1.6-2.2,2.1.4-1.1.9-2.1,2.2-2.1Z"/>
        <path class="cls-42" d="M156.2,41.2c0,.1,0,.3,0,.4-.7.3-1.2,1-2.1.7.6-.6,1.3-.9,2.1-1.1Z"/>
        <path class="cls-153" d="M150.6,45.7c.5.5,0,.9,0,1.4,0,.1-.2.2-.3.2-.2-.1-.2-.3-.4-.5,0-.5.3-.8.7-1Z"/>
        <path class="cls-3" d="M149.9,46.8l.4.4c.2.4.4.8,0,1.3-.1.2-.3.2-.5.1,0-.4,0-.8-.3-1.1,0-.2.2-.5.3-.7Z"/>
        <path class="cls-74" d="M144.6,79.6c.8-1.3,2.1-1.9,3.1-2.8,0,.4,0,.8,0,1.2-.3,2.2-1.1,2.6-3.1,1.6Z"/>
        <path class="cls-130" d="M161.1,41.2c.1,0,.2,0,.4,0,.6.3,1.3.4,1.7,1.1.2.6-.3.8-.6,1.1-3.3,2.8-6.8,5.4-10.1,8.2-.3.3-.7.4-1.1.4-.8,0-1.1-.7-1.4-1.4,0-.1,0-.2,0-.3,1.2-.2,2.1-.8,3-1.6,2.4-1.9,4.7-3.9,7.2-5.7.6-.4,1-1,1-1.7Z"/>
        <path class="cls-53" d="M151.2,51.7c2.1-1,3.6-2.8,5.4-4.1,2.2-1.7,4.5-3.4,6.5-5.3.1.1.2.2.4.3.6.9,0,1.5-.7,2.1-3.1,2.5-6.2,5-9.3,7.6-.5.4-1,.6-1.6.5-.5-.2-.8-.4-.8-1Z"/>
        <path class="cls-39" d="M152,52.4c1.5,0,2.2-1.3,3.3-2.1,2.4-1.8,4.7-3.8,7-5.6.7-.6,1.4-1.1,1.3-2.1.1,0,.2,0,.3,0,.3.5.8,1,.6,1.7-1.4,2-3.5,3.2-5.3,4.8-1.2,1.1-2.6,2.1-3.9,3.2-.6.6-1.4.9-2.2.9-.4,0-.7,0-1-.3-.1-.1-.2-.3,0-.5Z"/>
        <path class="cls-32" d="M164.2,44.3c-.1-.6-.3-1.2-.4-1.7,3.4,2.6,3.5,8,1.4,11.3-.2.4-.6.5-1,.5,1.4-1.9,2-4.1,1.8-6.5-.1-1-.1-2-1.1-2.6-.2-.1-.3-.3-.5-.4-.1-.2-.2-.4-.2-.6Z"/>
        <path class="cls-67" d="M164.6,44.7c.1.2.2.5.3.7,0,2,.7,3.9,0,6-.9,2.8-4.1,5.7-7.6,5.5-3.7-.3-6.7-2.1-7.4-6.3.4.4.9.8,1.3,1.1.3.2.5.4.8.7,0,.1,0,.2,0,.3,1.7.9,3.1,2.4,5.3,2.4,3.5,0,5.9-2.2,6.1-5.7,0-.4,0-.8,0-1.2.2-.9.6-1.8.7-2.8,0-.3.2-.5.4-.7Z"/>
        <path class="cls-138" d="M161.1,41.2c.7.5.7,1,0,1.5-3.1,2.5-6.1,4.9-9.2,7.4-.6.5-1.3.4-2,.1,0-.1,0-.2,0-.3,3.6-2.9,7.1-5.9,10.8-8.7.1,0,.2,0,.4,0Z"/>
        <path class="cls-54" d="M160.7,41.2c0,.4-.2.8-.6,1-3,2.4-6.1,4.9-9.1,7.3-.3.3-.7.3-1.1.3,0-.5,0-.9,0-1.4,0,0,.2,0,.3,0,3.1-2.5,6.1-5.2,9.5-7.4.2,0,.5,0,.7,0,.1,0,.2,0,.3,0Z"/>
        <path class="cls-30" d="M159.7,41.2c-3,2.5-6,4.9-9.1,7.4,0,0-.3,0-.4-.1,0-.4,0-.9,0-1.3,0,0,.2,0,.3-.1,1.1,0,1.6-1,2.4-1.5,1.5-1,2.9-2.2,4.3-3.4.5-.4.6-.6-.1-.7.4-.4,1-.3,1.4-.4.4-.2.7-.2,1,0Z"/>
        <path class="cls-70" d="M159.7,41.2c-.3,0-.7,0-1,0,.1-.1.2-.2.4-.3.5,0,1-.1,1.4.3-.2,0-.5,0-.7,0Z"/>
        <path class="cls-34" d="M163.9,48.2c0,2-.3,3.8-1.7,5.4-2.5,2.9-8,2.5-10.2-.9.3,0,.7,0,1,0,.3.2.6.1.9.2.7,0,1.4.2,2,.4,2.6.6,4.3-.2,5.6-2.5.6-1,.8-2.3,2.2-2.6Z"/>
        <path class="cls-38" d="M153.7,53.1c-.3,0-.6,0-.7-.3.9,0,1.5-.4,2.2-.9,3-2.5,6-5,9.1-7.5.1.1.2.2.4.3,0,.2,0,.5,0,.7-.3.7-.7,1.3-1.3,1.8-2.4,1.9-4.7,3.8-7,5.6-.8.6-1.6.5-2.4.3Z"/>
        <path class="cls-16" d="M153.7,53.1c2.4.2,3.6-1.9,5.2-3,2-1.4,3.7-3.1,5.6-4.7.1,1-.3,1.9-.7,2.8-.5.7-1.2,1.4-1.6,2.2-1.9,3.5-3.4,4.2-7.1,3.2-.5-.1-1.1,0-1.4-.5Z"/>
      </g>
    </g>
  </g>
</svg>