<?xml version="1.0" encoding="UTF-8"?>
<svg id="Layer_1" xmlns="http://www.w3.org/2000/svg" version="1.1" viewBox="0 0 636.9 537.1">
  <!-- Generator: Adobe Illustrator 29.5.0, SVG Export Plug-In . SVG Version: 2.1.0 Build 137)  -->
  <defs>
    <style>
      .st0 {
        fill: #f2f2f3;
      }

      .st1, .st2, .st3 {
        isolation: isolate;
      }

      .st4 {
        fill: #020617;
      }

      .st5 {
        stroke: red;
      }

      .st5, .st6, .st7, .st8 {
        fill: none;
        stroke-miterlimit: 10;
      }

      .st9 {
        fill: #fff;
      }

      .st2 {
        font-size: 162px;
      }

      .st2, .st3 {
        font-family: MyriadStd-Tilt, 'Myriad Std';
      }

      .st6 {
        stroke: #f2f2f3;
        stroke-width: 3px;
      }

      .st7, .st8 {
        stroke: #000;
      }

      .st8 {
        stroke-width: 20px;
      }

      .st3 {
        font-size: 131.9px;
      }
    </style>
  </defs>
  <rect class="st9" x="-3003.4" y="-3079" width="2875.4" height="2193.4"/>
  <path class="st0" d="M302.8,972.5s14.4-11.4,14.5-19.5c.2-9-16.9-35.5-16.9-35.5,12.1,16.5,19.8,23,19.8,23,11.2,10.5,34.8-4.8,58.3-19.8,0,0-27.8,19.7-39.7,34.6-5.1,6.3.1,17.6,4.7,25.3,0,0-9.9-15-19.8-15.5-8.9-.5-20.9,7.5-20.9,7.5h0Z"/>
  <circle class="st6" cx="331" cy="949.5" r="25.7"/>
  <circle class="st6" cx="295.3" cy="977.7" r="9.2"/>
  <circle class="st6" cx="348.7" cy="989.8" r="9.2"/>
  <rect class="st4" x="994.8" y="-107.5" width="598.6" height="628"/>
  <path class="st0" d="M-5530.6-1204.1s100.5-79.6,101.2-136.1c1.4-62.8-117.9-247.8-117.9-247.8,84.4,115.2,138.2,160.5,138.2,160.5,78.2,73.3,242.9-33.5,406.9-138.2,0,0-194,137.5-277.1,241.5-35.6,44,.7,122.8,32.8,176.6,0,0-69.1-104.7-138.2-108.2-62.1-3.5-145.9,52.3-145.9,52.3v-.7h0Z"/>
  <circle class="st4" cx="-5347.8" cy="-1349.3" r="157.8"/>
  <path class="st4" d="M-1813.1-2643.5h.4c-.3,3.6-.4,22.6-.4,0Z"/>
  <path class="st4" d="M-1812.5-2643.5h-.2c0-.7,0-.8.2,0Z"/>
  <path d="M-1556.4-2873.4c-97.7,62.4-195.5,125-284.3,169.2-43-61.4-114.3-101.8-194.9-101.8s-120.3,24.6-162.9,64.8c-33.3-36.7-78.6-90.5-133-164.3,3.1,4.7,62.5,97.1,109.9,189.7-32.3,40.5-51.5,91.9-51.5,147.5s.2,11.9.6,17.7h-65.9c-1.7-51.2-44.3-92.6-95.7-92.6s-95.8,43.1-95.8,95.7,43.3,95.8,95.8,95.8,84.5-32.4,93.7-76h70.8c6.1,35,19.9,67.4,39.4,95.4-36.7,40.4-75.2,71.2-77.3,73.1,2.3-1.5,44-28.9,95.8-50,25.5,28.1,57.6,50.3,93.9,63.7l-30.9,72.6c-48.5-18.6-104.1,4.7-124.6,52.9-20.8,49.2,2.4,106.8,51.5,127.6,49.2,20.8,106.8-2.4,127.6-51.7,18-42.5,3.4-91.9-33.8-117.9l32.6-76.6h0c19.1,4.9,39.1,7.6,59.8,7.6s55.6-5,80.9-14.2c30.3,32.7,50.3,62.4,52.1,65.3-13.1-21.4-26.6-45.7-38.1-70.9,83.9-36.7,142.6-120.6,142.6-217.8s-7.3-66.8-20.3-96.3c120.3-107.6,256.2-204.5,262-208.6h0ZM-2430.3-2547.1l-3.8-.5h3.8v.5ZM-2183.6-2182l1.5-3.5h.3c0,.2-1.8,3.5-1.8,3.5ZM-2035.6-2787.2c73.1,0,137.9,36.1,177.6,91.3-116.2,55.2-215.8,76-277.7,18.3,0,0-17.9-15.3-50-49.8,39.1-37.1,92-59.8,150.1-59.8h0ZM-2217.2-2446.9c-23.4-34.9-37-76.6-37-121.5s15.6-92.6,42-128.7c28.1,57,49.8,112,48.9,144.1-.6,33.2-25.2,72-54,106.1h.1ZM-2035.6-2349.7c-61.6,0-117.2-25.5-157-66.6,30.9-11,63.7-18.6,93.5-17.1,46.8,2.4,93.5,37.6,129.8,73.7-20.9,6.7-43.3,10.2-66.3,10.2v-.2h0ZM-1816.9-2568.5c0,89.6-54.1,166.6-131.3,200.4-24.5-59.3-35.2-121.5-2.3-162.3,30.9-38.5,72.6-80.2,117.2-120.9,10.5,25.5,16.4,53.5,16.4,82.8h0Z"/>
  <path d="M1649.7,1183.4c-95.3,52.4-189.3,105.8-275.2,141.6-36.4-60.3-100.7-102.5-176.1-107.4-59-3.9-114.2,15.6-156.4,50.6-28.8-36.4-68-89.5-114.4-162,2.6,4.6,52.5,94.7,91,184.4-32.7,36-53.8,82.8-57.3,135s-.5,11.1-.5,16.7l-61.7-4c1.6-48-35.7-89.5-83.8-92.6-49.2-3.2-92.3,34.6-95.6,83.8-3.3,49.2,34.6,92.4,83.7,95.6,42.5,2.8,81-25,92.4-65.4l66.3,4.4c3.5,33.2,14.4,64.3,31.1,91.7-36.7,35.5-75.7,62-77.9,63.6,2.3-1.2,43.9-24.4,93.7-40.9,22.1,27.9,50.8,50.6,84,65.4l-33.4,66.1c-44.3-20.4-97.7-2.1-119.9,41.8-22.5,44.6-4.4,100.2,40.4,122.7s100.2,4.4,122.7-40.4c19.5-38.7,8.8-85.8-24.4-112.5l35.1-69.8h0c17.6,5.8,36.2,9.5,55.4,10.7,26.5,1.8,52.4-1.2,76.4-8.3,26.2,32.3,43.2,61.5,44.8,64.3-10.9-20.9-22-44.5-31.3-68.7,80.8-29.2,140.9-104,146.9-195.1,2.1-32-2.6-62.9-13.2-91.4,119.3-93.3,251-176.4,256.8-180h.4,0ZM1197.2,1235.4c68.4,4.6,126.9,42.2,160.6,96.5-112.1,44.5-206.7,57.6-261,0,0,0-15.8-15.5-43.8-49.7,39-32.3,89.8-50.3,144.1-46.7h.1ZM1006.1,1542.6c-19.7-33.9-29.9-74-27.1-116,3-45,20.4-85.8,47.3-117.9,22.7,55.2,39.7,107.9,36.9,138-2.6,31.1-27.9,65.7-56.9,96h-.2ZM1170.1,1644.7c-57.6-3.9-108.1-31.3-142.9-72.2,29.5-8.4,60.8-13.5,88.6-10.4,43.6,5.3,85.2,40.9,116.9,77-20,4.9-41.1,6.9-62.7,5.4l.2.2h0ZM1388.2,1453.5c-5.6,83.8-61,152.7-135.3,179.4-19.2-57.1-25.3-115.8,7.9-152,31.3-34.1,72.9-70.6,117.2-106,8.3,24.6,12,51.1,10.2,78.6h0Z"/>
  <path class="st4" d="M-1337.2,2662.6l61.9-35.6c-4.5-6.2-8.6-12.5-12.4-19l-59.1,34c-26.5-42.6-83.1-57-127-31.8-44.7,25.9-60.4,83.9-34.7,128.5,25.9,44.7,83.9,60.4,128.6,34.5,38.7-22.3,56.2-68.9,42.6-110.7h0ZM-1426.6,2691.7l3.2-1.8.2.2c0,.1-3,1.5-3.4,1.6h0ZM-1280.6,2355.3l-.3-.2c-13.1,17.4-2,2.8.3.2ZM-1283.3,2353.3l-48-36.3c28.6-40.5,19.8-97.3-19.8-127.3-39.6-29.9-99.1-22.6-129.8,18s-22.5,99.2,18.1,129.9,84.1,24.3,116.6-4l51.7,39.1c3.4-6.6,7.1-13,11.2-19.4h0ZM-1404.2,2266.1l-2.7-2.6,2.9,2.2-.3.4h0Z"/>
  <path d="M-1938.6,779.8c-75,101.2-217.3,136.5-331,82.3-156-72.1-205.8-272.4-101.8-409.3,103.2-137.5,309.6-144.3,421.5-14,83.2,94.6,88.1,241.1,11.3,340.9h0ZM-1954.5,767.7c81.9-107.1,58.7-264.4-50.6-343.1-106-78.1-258.8-55.6-337.5,49.9-79.9,104.6-59.8,257.7,44.3,338.3,105.6,83.7,263.2,63,343.9-45.1h0Z"/>
  <g>
    <path d="M-699.2-2317.3c-75,101.2-217.3,136.5-331,82.3-156-72.1-205.8-272.4-101.8-409.3,103.2-137.5,309.6-144.3,421.5-14,83.2,94.6,88.1,241.1,11.3,340.9h0ZM-715.1-2329.4c81.9-107.1,58.7-264.4-50.6-343.1-106-78.1-258.8-55.6-337.5,49.9-79.9,104.6-59.8,257.7,44.3,338.3,105.6,83.7,263.2,63,343.9-45.1h-.1Z"/>
    <path d="M-1220.1-2251.3s162.1-124.9,164.4-215.1c3.6-100.2-183-398-183-398,132.3,185.6,217.2,259.2,217.2,259.2,123.2,118.6,388.4-48.3,652.5-211.9,0,0-312.6,215.3-447.4,379.6-57.8,69.4-1.5,196.1,48.6,282.6,0,0-108.1-168.6-218.3-175.6-99.1-6.9-234,80.4-234,80.4v-1.1h0Z"/>
    <g class="st1">
      <text class="st2" transform="translate(-1342.8 -2644.3)"><tspan x="0" y="0">1</tspan></text>
    </g>
  </g>
  <path class="st4" d="M-4008.4-685.8h.4c-.2,3.2-.4,20-.4,0Z"/>
  <path class="st4" d="M-4007.9-685.8h-.1c0-.6,0-.7.1,0Z"/>
  <g>
    <path class="st4" d="M-3923.6-1627.6l85.2-5.2c-1.5-9-2.6-18-3.2-27l-81.3,4.9c-5.7-59.8-58.7-105.3-119.1-101.6-61.7,3.9-109.3,57.7-105.5,119.2,3.9,61.7,57.7,109.3,119.4,105.4,53.3-3.3,96.8-44,104.6-95.8h-.1Z"/>
    <path class="st4" d="M-4034.8-1644l4.4-.2.2.3h-4.6Z"/>
  </g>
  <path d="M-4619.7,615.4c-.1,0-.4.3-.9.6.3-.2.7-.4,1.1-.6h-.2ZM-4719.6,666.9c-13.2-21.9-36.6-37.2-64-39-21.5-1.4-41.5,5.7-56.9,18.4-10.5-13.2-24.7-32.5-41.5-58.8,1.5,2.6,19.3,34.8,33,66.9-11.9,13.1-19.6,30.1-20.8,49.1-.1,2.2-.3,4-.4,5.4v.7c-.5,7.6,0,1.2.2,0h0q0,0,0,0l.4,7.9c1.3,12.1,5.2,23.4,11.3,33.3-13.1,12.7-27.1,22.2-28.2,23.1,1.2-.7,16.2-8.9,34-14.8,8.1,10.2,18.5,18.4,30.5,23.8l7.5,2.9c3.2,1.1,6.5,1.9,9.9,2.6,3.4.7,6.8,1.1,10.3,1.3,9.6.6,19-.4,27.8-3,9.5,11.8,15.7,22.4,16.3,23.4-4-7.6-8-16.2-11.4-25,29.4-10.6,51.2-37.8,53.4-70.9.8-11.6-1-22.9-4.8-33.2,40.5-31.7,84.9-60.1,92.3-64.8-34.2,18.8-68,38-98.9,50.9v-.2ZM-4784.1,634.3c24.8,1.7,46.1,15.3,58.4,35.1-40.8,16.2-75.1,21-94.9,0,0,0-5.8-5.6-15.9-18.1,14.2-11.8,32.6-18.3,52.4-17ZM-4853.4,746h0c-7.1-12.3-10.9-26.9-9.8-42.2,1.1-16.4,7.4-31.2,17.2-42.9,8.2,20.1,14.4,39.2,13.4,50.1-1,11.3-10.2,23.9-20.7,34.9h-.1ZM-4794,783h0c-21-1.3-39.3-11.3-51.9-26.2,10.7-3.1,22.1-4.9,32.2-3.8,15.8,1.9,31,14.9,42.5,28-7.3,1.8-14.9,2.5-22.8,2h0ZM-4714.6,713.6c-2,30.5-22.2,55.5-49.2,65.2-7-20.8-9.2-42.1,2.9-55.2,11.4-12.4,26.5-25.7,42.6-38.5,3,9,4.3,18.6,3.7,28.6h0Z"/>
  <path d="M-4870,709.5h0c-.2,1.2-.7,7.6-.2,0v-.7.6c.1,0,.2,0,.2,0h0Z"/>
  <path d="M-4355.6-2670.4c-.3.2-1.1.7-2.3,1.4.9-.5,1.8-1,2.6-1.4h-.3ZM-4607.3-2540.7c-33.3-55.2-92.2-93.8-161.2-98.3-54.1-3.6-104.6,14.3-143.2,46.3-26.3-33.2-62.2-81.8-104.6-148.1,3.7,6.5,48.5,87.8,83.2,168.5-29.9,33-49.2,75.8-52.5,123.6-.4,5.6-.7,10.1-.9,13.5,0,.6,0,1.2-.1,1.7-1.3,19.2,0,3.1.4,0v-.4c0-.3,0-.2,0,.4l1.1,19.9c3.2,30.4,13.2,58.9,28.5,84-33,31.9-68.1,56-71.1,58.2,3.1-1.7,40.8-22.5,85.6-37.4,20.3,25.6,46.5,46.3,76.9,59.8l18.8,7.3c8.1,2.6,16.3,4.8,24.8,6.5,8.5,1.6,17.1,2.8,25.9,3.3,24.3,1.6,47.9-1.1,70-7.6,24,29.6,39.6,56.3,41,58.9-10-19.1-20.1-40.7-28.6-62.9,74-26.7,129-95.2,134.5-178.6,1.9-29.3-2.4-57.6-12.1-83.7,102-79.8,213.9-151.4,232.5-163.2-86.2,47.5-171.3,95.6-249.1,128.1l.2.2ZM-4769.6-2622.7c62.6,4.2,116.2,38.6,147.1,88.3-102.6,40.7-189.2,52.8-238.9,0,0,0-14.5-14.2-40.1-45.5,35.7-29.6,82.2-46,131.9-42.8ZM-4944.3-2341.5h-.2c-18-31.1-27.4-67.7-24.8-106.2,2.7-41.2,18.7-78.5,43.3-108,20.8,50.5,36.3,98.8,33.8,126.3-2.4,28.5-25.6,60.2-52.1,87.9h0ZM-4794.5-2248.2l.2.2c-52.8-3.5-99-28.6-130.8-66.1,27-7.7,55.7-12.4,81.1-9.5,39.9,4.8,78,37.5,107,70.5-18.4,4.5-37.7,6.3-57.5,5h0ZM-4594.7-2423c-5.1,76.7-55.8,139.8-123.9,164.3-17.5-52.3-23.2-106,7.3-139.2,28.6-31.2,66.8-64.7,107.3-97,7.6,22.5,10.9,46.8,9.3,71.9h0Z"/>
  <path d="M-4986-2433.3h-.1c-.4,3.1-1.7,19.2-.4,0,0-.6,0-1.1.1-1.7l.4,1.4v.4h0Z"/>
  <path class="st4" d="M-4129.9-657c-75,101.2-217.3,136.5-331,82.3-156-72.1-205.8-272.4-101.8-409.3,103.2-137.5,309.6-144.3,421.5-14,83.2,94.6,88.1,241.1,11.3,340.9h0ZM-4145.8-669.1c81.9-107.1,58.7-264.4-50.7-343.1-106-78.1-258.8-55.6-337.5,49.9-79.9,104.6-59.8,257.7,44.3,338.3,105.6,83.7,263.2,63,343.9-45.1h0Z"/>
  <path class="st4" d="M-4587.8-510.1s132.3-156.1,115.6-244.8c-17.6-98.7-262.6-350.7-262.6-350.7,168.4,153.7,266.8,207.8,266.8,207.8,145.4,90.1,369.6-128.9,593.3-344.3,0,0-260.4,276.2-357.7,465.1-41.9,80,39.7,192,106.9,266,0,0-141.1-142.1-250.3-125.8-98.3,14.1-211.8,127.8-211.8,127.8l-.2-1.1h0Z"/>
  <circle class="st4" cx="-5521.2" cy="-838.2" r="104"/>
  <circle class="st4" cx="-5514.6" cy="-617.4" r="67.6"/>
  <circle class="st4" cx="-5512.3" cy="-448" r="52.5"/>
  <circle class="st4" cx="-5521.2" cy="-540.9" r="50.1"/>
  <circle class="st4" cx="-4506.8" cy="-494" r="50"/>
  <circle class="st4" cx="-4655.9" cy="-579.9" r="80.9"/>
  <circle class="st4" cx="-4769.8" cy="-817.1" r="130.9"/>
  <line class="st8" x1="-4708.4" y1="-817.1" x2="-4600.3" y2="-817.1"/>
  <line class="st8" x1="-4506.8" y1="-494" x2="-4456.8" y2="-587.3"/>
  <line class="st8" x1="-4655.9" y1="-579.9" x2="-4546.7" y2="-660.8"/>
  <path class="st4" d="M-2280.4,908.8l28-65.8c-7.3-2.2-14.4-4.8-21.4-7.7l-26.7,62.8c-46.9-18.1-100.8,4.6-120.7,51.2-20.1,47.7,2.4,103.5,49.9,123.7,47.7,20.1,103.5-2.4,123.7-50.1,17.5-41.2,3.3-89-32.7-114.2h-.1ZM-2334.3,986.1l1.5-3.4h.3c0,0-1.6,3-1.8,3.4ZM-2420.6,629.1h-.4c0,21.9.1,3.5.4,0ZM-2424,629.1h-60.2c-1.6-49.6-42.9-89.7-92.7-89.7s-92.9,41.8-92.9,92.7,41.9,92.9,92.9,92.9,81.9-31.4,90.8-73.6h64.9c-1.3-7.3-2.2-14.7-2.8-22.2h0ZM-2573.3,632.5l-3.7-.4h3.7v.4Z"/>
  <path d="M-1973.9-1329c-88.6,52.5-207,34.2-275.8-42.4-95.5-103.9-69.7-271.6,52.7-342.1,122-71.2,280.3-10.4,323.1,124.1,32.4,97.7-10.5,209.7-100,260.5h0ZM-1983.9-1346.3c68.4-38.8,107.3-120.1,94.7-197.5-20.8-135-171.7-207.2-289.7-138.7-118.1,68.4-130.3,235.3-23.4,320.4,61,49.4,150.9,55.9,218.5,15.8h0Z"/>
  <circle cx="-2241.9" cy="-1231.7" r="40.7"/>
  <circle cx="-2404.4" cy="-1309.5" r="65.9"/>
  <circle cx="-2475.2" cy="-1593.9" r="106.6"/>
  <path d="M-2469.5-1618.2c1.1,3.9,2.4,6.7,3.8,9.2,1.4,2.5,2.9,4.6,4.4,6.3,3.1,3.5,6.6,5.6,10.2,6.8,7.4,1.9,15,3.5,22.5,5,15,3.1,30.2,5.8,45.4,8.1,15.2,2.2,30.6,4,46.1,5.2,15.5,1.1,31.1,1.8,47,1l-11.3,48.7c-13.9-7.8-28.3-14-42.7-19.8s-29-10.9-43.6-15.6c-14.7-4.7-29.4-8.9-44.3-12.8-7.4-1.9-14.9-3.8-22.4-5.4-3.8-.5-7.9,0-12.2,1.6-2.2.8-4.4,2.1-6.8,3.7-2.4,1.7-4.8,3.6-7.5,6.6l11.3-48.7h.1Z"/>
  <path d="M-2245.8-1242.9c8.8-4.7,13.8-12,18.5-19.5,9.6-14.8,18.9-29.8,27.5-45.3,4.3-7.7,8.5-15.5,12.3-23.6l15,9.9c-11.7,13.3-22.3,27.5-32.6,41.9-5.1,7.2-10.1,14.4-15,21.8-5,7.3-9.8,14.7-10.7,24.7l-15-9.9h0Z"/>
  <path d="M-2410.9-1323.7c7.8,2.4,16.1,1.5,23.2-1.9,2.7-1.3,6.4-3.7,9.1-5.2,15-8.8,30-18.2,44.6-27.7,23.5-15.5,46.6-31.5,68.2-49.7l15.6,26.8c-44.5,16.7-86.4,39-127.5,62.6-8.6,4.4-15.5,12.1-17.6,22l-15.6-26.8h0Z"/>
  <path d="M-2359.6-1342.5s147.4-91.7,152.7-163c6.8-79.1-144.9-316.1-144.9-316.1,109.8,152.5,180.1,207.8,180.1,207.8,104.2,99.2,351.9-28.6,590.4-146.5,0,0-291.3,163.9-416,288-53.4,52.4-8.5,155,32.5,225.6,0,0-89-138-185.8-148.3-87-9.7-209,53.5-209,53.5v-.9h0Z"/>
  <g class="st1">
    <text class="st3" transform="translate(-2605.3 -1896.9)"><tspan x="0" y="0">2</tspan></text>
  </g>
  <g class="st1">
    <text class="st2" transform="translate(-2625.8 -2740.5)"><tspan x="0" y="0">0</tspan></text>
  </g>
  <g class="st1">
    <text class="st2" transform="translate(-2571.8 164.6)"><tspan x="0" y="0">3</tspan></text>
  </g>
  <path d="M-2159.5,435.6h1.5c0,51.3,4.9,99.6,13.8,136.1v.5c2.7,10.9,8.2,20.8,16.2,28.7,7.9,7.9,17.9,13.5,28.7,16.2h.5c36.5,9.4,84.8,14.6,136.1,14.2v2.1c-51.3,0-99.7,4.9-136.1,13.8h-.5c-10.8,2.7-20.7,8.3-28.6,16.2-7.9,7.9-13.5,17.8-16.2,28.6v.5c-9.4,36.5-14.3,84.8-13.8,136.1h-2.5c0-51.3-4.9-99.6-13.8-136.1v-.5c-2.8-10.8-8.4-20.6-16.3-28.5-7.9-7.9-17.7-13.5-28.5-16.3h-.5c-36.5-9.4-84.8-14.3-136.1-13.8v-2.1c51.3,0,99.6-5.3,136.1-14.2h.5c10.9-2.6,20.8-8.2,28.7-16.1,7.9-7.9,13.5-17.9,16.1-28.7v-.5c9.4-36.5,14.3-84.9,13.8-136.2h1,0Z"/>
  <rect class="st7" x="-3718.6" y="-333.1" width="1000.9" height="618.6"/>
  <rect class="st7" x="-4403.7" y="1436.9" width="1234.3" height="762.8"/>
  <line class="st5" x1="-2403.2" y1="-983.5" x2="-2402.9" y2="-982.5"/>
  <g>
    <circle cx="-1122.3" cy="-1613.7" r="92.9"/>
    <rect x="-1122.3" y="-1629.5" width="426.5" height="22.8" transform="translate(32.5 -18.7) rotate(-1.2)"/>
    <rect x="-1014.4" y="-1445" width="430.4" height="22.8" transform="translate(842.1 -1446.1) rotate(-61.3)"/>
    <g>
      <circle cx="-902.6" cy="-1206.5" r="150.4"/>
      <circle cx="-706.7" cy="-1638.6" r="243.4"/>
      <path class="st9" d="M-867.8-1511.2s67.1-51.7,68-89c1.5-41.5-75.7-164.7-75.7-164.7,54.8,76.8,89.8,107.3,89.8,107.3,51,49.1,160.7-20,269.9-87.7,0,0-129.4,89.1-185.1,157-23.9,28.7-.6,81.1,20.1,116.9,0,0-44.7-69.7-90.3-72.6-41-2.9-96.8,33.3-96.8,33.3v-.5h0Z"/>
    </g>
  </g>
  <g class="st1">
    <text class="st3" transform="translate(-1331.1 -1896.9) scale(1.6 1)"><tspan x="0" y="0">3</tspan></text>
  </g>
</svg>