<svg id="ebGW8swk2aF1" xmlns="http://www.w3.org/2000/svg" xmlns:xlink="http://www.w3.org/1999/xlink" viewBox="0 0 158.2 165.8" shape-rendering="geometricPrecision" text-rendering="geometricPrecision">
<style><![CDATA[
#ebGW8swk2aF5_tr {animation: ebGW8swk2aF5_tr__tr 2500ms linear infinite normal forwards}@keyframes ebGW8swk2aF5_tr__tr { 0% {transform: translate(79.099998px,82.900002px) rotate(180deg);animation-timing-function: cubic-bezier(0.42,0,0.58,1)} 30% {transform: translate(79.099998px,82.900002px) rotate(180deg);animation-timing-function: cubic-bezier(0.42,0,0.58,1)} 30.2% {transform: translate(79.099998px,82.900002px) rotate(0deg)} 100% {transform: translate(79.099998px,82.900002px) rotate(0deg)}} #ebGW8swk2aF5 {animation-name: ebGW8swk2aF5_c_o, ebGW8swk2aF5_s_do, ebGW8swk2aF5_s_da;animation-duration: 2500ms;animation-fill-mode: forwards;animation-timing-function: linear;animation-direction: normal;animation-iteration-count: infinite;}@keyframes ebGW8swk2aF5_c_o { 0% {opacity: 0} 30.6% {opacity: 0} 30.8% {opacity: 1} 100% {opacity: 1}}@keyframes ebGW8swk2aF5_s_do { 0% {stroke-dashoffset: 546.145283;animation-timing-function: cubic-bezier(0.42,0,0.58,1)} 30% {stroke-dashoffset: 0;animation-timing-function: cubic-bezier(0.42,0,0.58,1)} 80% {stroke-dashoffset: 0;animation-timing-function: cubic-bezier(0.42,0,0.58,1)} 100% {stroke-dashoffset: 546.145283}}@keyframes ebGW8swk2aF5_s_da { 0% {stroke-dasharray: 546.145283;animation-timing-function: cubic-bezier(0.42,0,0.58,1)} 30% {stroke-dasharray: 546.145283;animation-timing-function: cubic-bezier(0.42,0,0.58,1)} 80% {stroke-dasharray: 546.145283;animation-timing-function: cubic-bezier(0.42,0,0.58,1)} 100% {stroke-dasharray: 546.145283}} #ebGW8swk2aF6_tr {animation: ebGW8swk2aF6_tr__tr 2500ms linear infinite normal forwards}@keyframes ebGW8swk2aF6_tr__tr { 0% {transform: translate(79.099998px,82.900002px) rotate(180deg);animation-timing-function: cubic-bezier(0.42,0,0.58,1)} 30% {transform: translate(79.099998px,82.900002px) rotate(180deg)} 100% {transform: translate(79.099998px,82.900002px) rotate(180deg)}} #ebGW8swk2aF6 {animation-name: ebGW8swk2aF6_c_o, ebGW8swk2aF6_s_do, ebGW8swk2aF6_s_da;animation-duration: 2500ms;animation-fill-mode: forwards;animation-timing-function: linear;animation-direction: normal;animation-iteration-count: infinite;}@keyframes ebGW8swk2aF6_c_o { 0% {opacity: 1} 31% {opacity: 1} 31.2% {opacity: 0} 100% {opacity: 0}}@keyframes ebGW8swk2aF6_s_do { 0% {stroke-dashoffset: 546.145283;animation-timing-function: cubic-bezier(0.42,0,0.58,1)} 30% {stroke-dashoffset: 0;animation-timing-function: cubic-bezier(0.42,0,0.58,1)} 80% {stroke-dashoffset: 0;animation-timing-function: cubic-bezier(0.42,0,0.58,1)} 100% {stroke-dashoffset: 546.145283}}@keyframes ebGW8swk2aF6_s_da { 0% {stroke-dasharray: 546.145283;animation-timing-function: cubic-bezier(0.42,0,0.58,1)} 30% {stroke-dasharray: 546.145283;animation-timing-function: cubic-bezier(0.42,0,0.58,1)} 80% {stroke-dasharray: 546.145283;animation-timing-function: cubic-bezier(0.42,0,0.58,1)} 100% {stroke-dasharray: 546.145283}} #ebGW8swk2aF7_to {animation: ebGW8swk2aF7_to__to 2500ms linear infinite normal forwards}@keyframes ebGW8swk2aF7_to__to { 0% {transform: translate(26.699999px,74.6px)} 24% {transform: translate(26.699999px,74.6px);animation-timing-function: cubic-bezier(0.42,0,0.58,1)} 52% {transform: translate(46.223972px,54.600002px);animation-timing-function: cubic-bezier(0.42,0,0.58,1)} 84% {transform: translate(46.223972px,54.600002px)} 100% {transform: translate(46.223972px,54.600002px)}} #ebGW8swk2aF7 {animation: ebGW8swk2aF7_c_o 2500ms linear infinite normal forwards}@keyframes ebGW8swk2aF7_c_o { 0% {opacity: 0;animation-timing-function: cubic-bezier(0.42,0,0.58,1)} 24% {opacity: 0;animation-timing-function: cubic-bezier(0.42,0,0.58,1)} 52% {opacity: 1;animation-timing-function: cubic-bezier(0.42,0,0.58,1)} 80% {opacity: 1;animation-timing-function: cubic-bezier(0.42,0,0.58,1)} 100% {opacity: 0}} #ebGW8swk2aF8_to {animation: ebGW8swk2aF8_to__to 2500ms linear infinite normal forwards}@keyframes ebGW8swk2aF8_to__to { 0% {transform: translate(59.099998px,144.200001px)} 24% {transform: translate(59.099998px,144.200001px);animation-timing-function: cubic-bezier(0.42,0,0.58,1)} 40% {transform: translate(79.099998px,124.200001px);animation-timing-function: cubic-bezier(0.42,0,0.58,1)} 84% {transform: translate(79.099998px,124.200001px)} 100% {transform: translate(79.099998px,124.200001px)}} #ebGW8swk2aF8 {animation: ebGW8swk2aF8_c_o 2500ms linear infinite normal forwards}@keyframes ebGW8swk2aF8_c_o { 0% {opacity: 0;animation-timing-function: cubic-bezier(0.42,0,0.58,1)} 24% {opacity: 0;animation-timing-function: cubic-bezier(0.42,0,0.58,1)} 40% {opacity: 1;animation-timing-function: cubic-bezier(0.42,0,0.58,1)} 68% {opacity: 1;animation-timing-function: cubic-bezier(0.42,0,0.58,1)} 100% {opacity: 0}} #ebGW8swk2aF9_to {animation: ebGW8swk2aF9_to__to 2500ms linear infinite normal forwards}@keyframes ebGW8swk2aF9_to__to { 0% {transform: translate(97.700001px,88.350004px)} 24% {transform: translate(97.700001px,88.350004px);animation-timing-function: cubic-bezier(0.42,0,0.58,1)} 40% {transform: translate(117.700001px,68.350004px);animation-timing-function: cubic-bezier(0.42,0,0.58,1)} 84% {transform: translate(117.700001px,68.350004px)} 100% {transform: translate(117.700001px,68.350004px)}} #ebGW8swk2aF9 {animation: ebGW8swk2aF9_c_o 2500ms linear infinite normal forwards}@keyframes ebGW8swk2aF9_c_o { 0% {opacity: 0;animation-timing-function: cubic-bezier(0.42,0,0.58,1)} 24% {opacity: 0;animation-timing-function: cubic-bezier(0.42,0,0.58,1)} 40% {opacity: 1;animation-timing-function: cubic-bezier(0.42,0,0.58,1)} 68% {opacity: 1;animation-timing-function: cubic-bezier(0.42,0,0.58,1)} 100% {opacity: 0}}
]]></style>
<defs><path id="ebGW8swk2aF2" d="M79.1,165.8c-27.7,0-55.4-9-77.9-25.3-.7-.5-1.2-1.4-1.2-2.4L0,27.7c0-1,.5-1.9,1.2-2.4C23.6,9,51.3,0,79.1,0s55.5,9,77.9,25.3c.8.6,1.2,1.5,1.2,2.4v110.4c0,1-.5,1.9-1.2,2.4-22.5,16.3-50.2,25.3-77.9,25.3Zm76.1-27.7v0v0Z"/></defs><g><g transform="matrix(.858403 0 0 0.858403 9.784376 13.154361)" clip-path="url(#ebGW8swk2aF10)"><g id="ebGW8swk2aF5_tr" transform="translate(79.099998,82.900002) rotate(180)"><path id="ebGW8swk2aF5" d="M155.2,138.1v-110.4C133.1,11.6,106.4,3,79.1,3s-54,8.6-76.1,24.7v110.4c22.1,16,48.8,24.7,76.1,24.7s54-8.7,76.1-24.7" transform="scale(-1.000004,-1.006258) translate(-79.099998,-82.900002)" opacity="0" fill="none" stroke="#f2f2f2" stroke-width="6" stroke-linecap="round" stroke-linejoin="round" stroke-miterlimit="10" stroke-dashoffset="546.145283" stroke-dasharray="546.145283"/></g><g id="ebGW8swk2aF6_tr" transform="translate(79.099998,82.900002) rotate(180)"><path id="ebGW8swk2aF6" d="M155.2,138.1v-110.4C133.1,11.6,106.4,3,79.1,3s-54,8.6-76.1,24.7v110.4c22.1,16,48.8,24.7,76.1,24.7s54-8.7,76.1-24.7" transform="scale(-1.000004,-1.006258) translate(-79.099998,-82.900002)" fill="none" stroke="#f2f2f2" stroke-width="6" stroke-linecap="round" stroke-linejoin="round" stroke-miterlimit="10" stroke-dashoffset="546.145283" stroke-dasharray="546.145283"/></g><g id="ebGW8swk2aF7_to" transform="translate(26.699999,74.6)"><path id="ebGW8swk2aF7" d="M46.7,82.9C62.3,82.9,75,70.2,75,54.6s-12.7-28.3-28.3-28.3-28.3,12.7-28.3,28.3s12.7,28.3,28.3,28.3Z" transform="translate(-46.699999,-54.6)" opacity="0" fill="#f2f2f2"/></g><g id="ebGW8swk2aF8_to" transform="translate(59.099998,144.200001)"><path id="ebGW8swk2aF8" d="M155.2,138c-111-13-69.5-49.3-63.6-52.9C87.4,87.6,3,138,3,138l9.9,6.5c19.8,12.3,42.7,18.8,66,18.8s46.2-6.4,66-18.6l10.3-6.7v0Z" transform="translate(-79.099998,-124.200001)" opacity="0" fill="#f2f2f2"/></g><g id="ebGW8swk2aF9_to" transform="translate(97.700001,88.350004)"><path id="ebGW8swk2aF9" d="M99,80.4c0,0,7.4-5.8,7.4-10c.1-4.6-8.7-18.2-8.7-18.2c6.2,8.4,10.1,11.8,10.1,11.8c5.8,5.4,17.9-2.4,29.9-10.1c0,0-14.3,10.1-20.4,17.7-2.6,3.2.1,9,2.5,12.9c0,0-5.1-7.7-10.2-8-4.5-.2-10.6,3.9-10.6,3.9Z" transform="translate(-117.700001,-68.350004)" opacity="0" fill="#f2f2f2"/></g><clipPath id="ebGW8swk2aF10"><use width="158.199997" height="165.800003" xlink:href="#ebGW8swk2aF2"/></clipPath></g></g></svg>
