<svg width="267" height="280" viewBox="0 0 267 280" fill="none" xmlns="http://www.w3.org/2000/svg">
<path d="M266.474 235.861V43.1094C227.817 15.0894 181.286 0 133.538 0C85.7893 0 39.255 15.0894 0.598145 43.1094V235.865C39.255 263.885 85.7854 278.974 133.538 278.974C181.29 278.974 227.817 263.885 266.478 235.865L266.474 235.861Z" fill="url(#paint0_linear_545_2)"/>
<path d="M76.9054 139.485C104.169 139.485 126.272 117.393 126.272 90.1371C126.272 62.8816 104.169 40.7891 76.9054 40.7891C49.6419 40.7891 27.5391 62.8816 27.5391 90.1371C27.5391 117.393 49.6419 139.485 76.9054 139.485Z" fill="url(#paint1_linear_545_2)"/>
<path d="M266.474 235.819C72.5437 213.115 145.096 149.654 155.291 143.388C148.025 147.725 0.598145 235.776 0.598145 235.776L17.9515 247.182C52.5813 268.579 92.4755 279.938 133.184 280C173.893 280.061 213.822 268.821 248.517 247.528L266.454 235.799L266.478 235.822L266.474 235.819Z" fill="url(#paint2_linear_545_2)"/>
<path d="M168.283 135.106C168.283 135.106 181.168 124.895 181.298 117.631C181.517 109.587 166.116 85.8231 166.116 85.8231C176.96 100.544 183.792 106.398 183.792 106.398C193.856 115.764 215.006 102.169 236.063 88.7273C236.063 88.7273 211.163 106.398 200.492 119.667C195.958 125.302 200.623 135.409 204.83 142.282C204.83 142.282 195.958 128.86 187.089 128.383C179.02 127.972 168.283 135.106 168.283 135.106Z" fill="#F2F2F2"/>
<defs>
<linearGradient id="paint0_linear_545_2" x1="157.996" y1="0.822084" x2="109.103" y2="278.161" gradientUnits="userSpaceOnUse">
<stop stop-color="#00156A"/>
<stop offset="0.19" stop-color="#032074"/>
<stop offset="0.72" stop-color="#0B3B8E"/>
</linearGradient>
<linearGradient id="paint1_linear_545_2" x1="27.5391" y1="90.1371" x2="126.272" y2="90.1371" gradientUnits="userSpaceOnUse">
<stop stop-color="#F7931E"/>
<stop offset="0.47" stop-color="#F8A439"/>
<stop offset="1" stop-color="#F9B95C"/>
</linearGradient>
<linearGradient id="paint2_linear_545_2" x1="99.6727" y1="294.452" x2="178.957" y2="157.048" gradientUnits="userSpaceOnUse">
<stop stop-color="#8A002D"/>
<stop offset="0.78" stop-color="#D7594F"/>
</linearGradient>
</defs>
</svg>
