<?xml version="1.0" encoding="UTF-8"?>
<svg id="Layer_1" data-name="Layer 1" xmlns="http://www.w3.org/2000/svg" version="1.1" viewBox="0 0 309.7 325.1">
  <defs>
    <style>
      .cls-1 {
        fill: #fff;
        stroke-width: 0px;
      }
    </style>
  </defs>
  <path class="cls-1" d="M88.9,161.9c31.8,0,57.5-25.6,57.5-57.3s-25.7-57.3-57.5-57.3-57.5,25.6-57.5,57.3,25.7,57.3,57.5,57.3Z"/>
  <path class="cls-1" d="M309.6,273.6V50C264.6,17.5,210.4,0,154.8,0S45.1,17.5,0,50v223.7c6.4,4.6,12.9,8.8,19.6,12.8l.6.4c40.4,24.8,86.8,38,134.2,38.1,47.4,0,93.9-13,134.3-37.7l.7-.5c6.8-4.1,13.6-8.4,20.2-13.2v-.2ZM154.8,7.1c52.9,0,104.5,16.2,147.7,46.7v219.1q-1.8-.2-3.4-.4c-212.6-27.4-130.6-98.8-118.9-105.9-7.6,4.5-140.5,83.6-173,103V53.8C50.4,23.3,102,7,154.8,7.1Z"/>
  <path class="cls-1" d="M195.3,156.8s12.5-8.3,21.9-7.8c10.3.5,20.6,16.1,20.6,16.1-4.7-8-10.1-19.7-4.9-26.3,12.4-15.4,41.4-35.9,41.4-35.9-24.5,15.6-49.2,31.4-60.9,20.5,0,0-8-6.8-20.6-23.9,0,0,17.9,27.6,17.7,36.9-.3,8.4-15.3,20.3-15.3,20.3Z"/>
</svg>