<svg id="eh7UIZ4rQmS1" xmlns="http://www.w3.org/2000/svg" xmlns:xlink="http://www.w3.org/1999/xlink" viewBox="0 0 613.4 160" shape-rendering="geometricPrecision" text-rendering="geometricPrecision" project-id="01fafdbd37c2445d9249bb531ee264ca" export-id="4b0842c4a0a34b4685d2e244f9d237c0" cached="false">
<style><![CDATA[
#eh7UIZ4rQmS4_to {animation: eh7UIZ4rQmS4_to__to 1000ms linear 1 normal forwards}@keyframes eh7UIZ4rQmS4_to__to { 0% {transform: translate(296.699997px,132.349995px)} 40% {transform: translate(296.699997px,132.349995px);animation-timing-function: cubic-bezier(0.77,0,0.175,1)} 90% {transform: translate(296.699997px,96.349995px)} 100% {transform: translate(296.699997px,96.349995px)}} #eh7UIZ4rQmS4 {animation: eh7UIZ4rQmS4_c_o 1000ms linear 1 normal forwards}@keyframes eh7UIZ4rQmS4_c_o { 0% {opacity: 0} 40% {opacity: 0;animation-timing-function: cubic-bezier(0.77,0,0.175,1)} 90% {opacity: 1} 100% {opacity: 1}} #eh7UIZ4rQmS14_to {animation: eh7UIZ4rQmS14_to__to 1000ms linear 1 normal forwards}@keyframes eh7UIZ4rQmS14_to__to { 0% {transform: translate(293.099989px,66.000002px)} 20% {transform: translate(293.099989px,66.000002px);animation-timing-function: cubic-bezier(0.77,0,0.175,1)} 70% {transform: translate(293.099989px,36.000002px)} 100% {transform: translate(293.099989px,36.000002px)}} #eh7UIZ4rQmS14 {animation: eh7UIZ4rQmS14_c_o 1000ms linear 1 normal forwards}@keyframes eh7UIZ4rQmS14_c_o { 0% {opacity: 0} 20% {opacity: 0;animation-timing-function: cubic-bezier(0.77,0,0.175,1)} 70% {opacity: 1} 100% {opacity: 1}}
]]></style>
<g transform="translate(6.553418 0)"><g><g id="eh7UIZ4rQmS4_to" transform="translate(296.699997,132.349995)"><g id="eh7UIZ4rQmS4" transform="translate(-279.699997,-103.349995)" opacity="0"><path d="M23.7,80.2c1,0,1.5.5,1.5,1.5v26.3c0,7,2,9,8.8,9h26.8c1,0,1.5.5,1.5,1.5v6.5c0,1-.5,1.5-1.5,1.5h-27.1c-13.3,0-18.5-4.8-18.5-17.4v-27.3c0-1,.5-1.5,1.5-1.5h7.1v0l-.1-.1Z" fill="#fff"/><path d="M97.4,80.2c3.4,0,5.4,1.1,7.6,5l21.9,39.7c.5.9.3,1.5-.8,1.5h-8.4c-.9,0-1.2-.2-1.5-.9l-4.7-8.5h-31l-4.6,8.5c-.3.7-.7.9-1.5.9h-8.6c-1.1,0-1.3-.7-.9-1.5L86.6,85.2c2.2-4,4.2-5,6.9-5h3.9ZM84.6,109.3h22.7L96.8,90c-.2-.3-.4-.5-.7-.5h-.4c-.3,0-.5.1-.7.5L84.6,109.3v0Z" fill="#fff"/><path d="M138.4,80.2c1,0,1.5.5,1.5,1.5v26.3c0,7,2,9,8.8,9h18.3c6.8,0,8.7-2,8.7-9v-26.3c0-1,.5-1.5,1.5-1.5h7.2c1,0,1.5.5,1.5,1.5v27.3c0,12.7-5.1,17.4-18.5,17.4h-19c-13.3,0-18.5-4.8-18.5-17.4v-27.3c0-1,.5-1.5,1.5-1.5h7.1v0h-.1Z" fill="#fff"/><path d="M206.2,80.2c4.2,0,5.2.5,7.7,3.9l24.6,32.2c.2.3.5.5.9.5h.6c.3,0,.5-.2.5-.7v-34.5c0-1,.5-1.5,1.5-1.5h6.9c1,0,1.5.5,1.5,1.5v37.9c0,5.3-1.9,6.9-5.9,6.9h-5.7c-4,0-5-.4-7.7-3.9L206.5,90.3c-.3-.3-.5-.5-.9-.5h-.6c-.4,0-.5.2-.5.7v34.5c0,1-.5,1.5-1.5,1.5h-6.9c-1,0-1.5-.5-1.5-1.5v-37.9c0-5.3,1.9-6.9,5.9-6.9h5.8v0h-.1Z" fill="#fff"/><path d="M306.8,80.2c1,0,1.5.5,1.5,1.5v6.5c0,1-.5,1.5-1.5,1.5h-29.4c-6.8,0-8.8,2-8.8,9v9.4c0,7,2,9,8.8,9h29.4c1,0,1.5.5,1.5,1.5v6.5c0,1-.5,1.5-1.5,1.5h-29.8c-13.3,0-18.5-4.8-18.5-17.4v-11.4c0-12.7,5.2-17.4,18.5-17.4h29.8v-.2Z" fill="#fff"/><path d="M323.9,80.2c1,0,1.5.5,1.5,1.5v17.2h30.9v-17.2c0-1,.5-1.5,1.5-1.5h7.1c1,0,1.5.5,1.5,1.5v43.3c0,1-.5,1.5-1.5,1.5h-7.1c-1,0-1.5-.5-1.5-1.5v-17.6h-30.9v17.6c0,1-.5,1.5-1.5,1.5h-7.1c-1,0-1.5-.5-1.5-1.5v-43.3c0-1,.5-1.5,1.5-1.5h7.1Z" fill="#fff"/><path d="M412.6,80.2c10.1,0,14.2,4.7,14.2,13.6v4.9c0,8.9-4.1,13.6-14.2,13.6h-27.3v12.7c0,1-.5,1.5-1.5,1.5h-7.1c-1,0-1.5-.5-1.5-1.5v-42.8c0-1.3.7-2,2-2h35.5-.1Zm-27.4,23.3h25.3c4.5,0,6.1-1.9,6.1-5.9v-2.5c0-4-1.7-5.9-6.1-5.9h-24.4c-.6,0-.9.2-.9.8v13.5v0Z" fill="#fff"/><path d="M456,80.2c3.4,0,5.4,1.1,7.6,5l21.9,39.7c.5.9.3,1.5-.8,1.5h-8.4c-.9,0-1.2-.2-1.5-.9l-4.7-8.5h-31l-4.6,8.5c-.3.7-.7.9-1.5.9h-8.6c-1.1,0-1.3-.7-.9-1.5l21.7-39.7c2.2-4,4.2-5,6.9-5h3.9Zm-12.8,29.1h22.7L455.4,90c-.2-.3-.4-.5-.7-.5h-.4c-.3,0-.5.1-.7.5l-10.4,19.3v0Z" fill="#fff"/><path d="M524,80.2c14.3,0,20.2,5.7,20.2,18.6v9c0,12.9-5.9,18.6-20.2,18.6h-30.9c-1.3,0-2-.7-2-2v-42.3c0-1.3.7-2,2-2h30.9v.1Zm-22.8,36.1c0,.6.3.9.9.9h21.7c7.8,0,10.4-2.5,10.4-10.3v-7.3c0-7.8-2.6-10.3-10.4-10.3h-21.7c-.6,0-.9.3-.9.9v26.1v0Z" fill="#fff"/></g></g><g id="eh7UIZ4rQmS14_to" transform="translate(293.099989,66.000002)"><g id="eh7UIZ4rQmS14" transform="translate(-222.099989,-36.000002)" opacity="0"><path d="M28,11.9c4,0,5.4.9,7.2,5.1l14,32.4c.2.5.5.6.9.6h.8c.5,0,.7-.1.9-.6L65.8,17c1.8-4.3,3.2-5.1,7.2-5.1h7.2c4.7,0,5.9,1.9,5.9,7v38.7c0,1-.5,1.5-1.6,1.5h-6.9c-1,0-1.5-.5-1.5-1.5v-35.2c0-.5-.1-.7-.5-.7h-.6c-.5,0-.7.1-.9.5L60.5,52.4c-2.2,4.9-4.1,6.6-8.6,6.6h-3.2c-4.5,0-6.4-1.8-8.6-6.6L26.5,22.2c-.1-.4-.4-.5-.9-.5h-.6c-.4,0-.5.2-.5.7v35.2c0,1-.5,1.5-1.5,1.5h-6.9c-1,0-1.6-.5-1.6-1.5v-38.7c0-5.1,1.2-7,6-7h7.4.1Z" fill="#fff"/><path d="M124.7,22.5h-15.7c-10.8,0-15.3,4.2-15.3,14.4v8.7C93.7,55.9,98.1,60,109,60h15.7c10.8,0,15.3-4.2,15.3-14.4v-8.7c0-10.3-4.4-14.4-15.3-14.4Zm5.4,15v7.6c0,4.8-1.1,5.9-5.7,5.9h-15.1c-4.7,0-5.7-1.1-5.7-5.9v-7.6c0-4.8,1.1-5.9,5.7-5.9h15.1c4.7,0,5.7,1.1,5.7,5.9Z" fill="#fff"/><path d="M174.8,22.5h-15.7c-10.8,0-15.3,4.2-15.3,14.4v8.7c0,10.3,4.4,14.4,15.3,14.4h15.7c10.8,0,15.3-4.2,15.3-14.4v-8.7c0-10.3-4.4-14.4-15.3-14.4Zm5.4,22.6c0,4.8-1.1,5.9-5.8,5.9h-15.1c-4.7,0-5.7-1.1-5.7-5.9v-7.6c0-4.8,1.1-5.9,5.7-5.9h15.1c4.7,0,5.8,1.1,5.8,5.9v7.6Z" fill="#fff"/><path d="M239.4,24.6v29.2c0,4.4-1.7,6.3-5.6,6.3h-4.4c-3.5,0-4.5-.5-6.7-3.4L204,32.3v25.7c0,1.3-.8,2.1-2.1,2.1h-5.3c-1.4,0-2.2-.8-2.2-2.1v-29.2c0-4.4,1.7-6.3,5.6-6.3h4.5c3.6,0,4.6.5,6.7,3.4l18.6,24.4v-25.7c0-1.3.8-2.1,2.1-2.1h5.3c1.3,0,2.1.8,2.1,2.1h.1Z" fill="#fff"/><path d="M282.1,11.9c14.6,0,20.7,5.9,20.7,19v9.2c0,13.2-6,19-20.7,19h-31.6c-1.4,0-2-.7-2-2v-43.2c0-1.3.7-2,2-2h31.6ZM258.8,48.8c0,.6.3.9.9.9h22.1c8,0,10.6-2.6,10.6-10.5v-7.4c0-8-2.6-10.5-10.6-10.5h-22.1c-.6,0-.9.3-.9.9v26.7-.1Z" fill="#fff"/><path d="M338.4,11.9c3.4,0,5.5,1.1,7.8,5.1l22.3,40.6c.5.9.3,1.6-.8,1.6h-8.6c-.9,0-1.2-.2-1.6-.9l-4.8-8.7h-31.7l-4.7,8.7c-.3.7-.7.9-1.6.9h-8.8c-1.1,0-1.4-.7-.9-1.6L327.1,17c2.2-4,4.3-5.1,7.1-5.1h4v0h.2ZM325.3,41.7h23.2L337.8,21.9c-.2-.3-.4-.5-.7-.5h-.4c-.3,0-.5.1-.7.5L325.4,41.7h-.1Z" fill="#fff"/><path d="M410.8,11.9c13.7,0,18.9,4.9,18.9,17.8v11.6c0,13-5.2,17.8-18.9,17.8h-20.9c-13.6,0-18.9-4.9-18.9-17.8v-11.6c0-13,5.3-17.8,18.9-17.8h20.9ZM381.4,40.5c0,7.1,2,9.2,9,9.2h20c7,0,9-2.1,9-9.2v-10.1c0-7.1-2-9.2-9-9.2h-20c-7,0-9,2.1-9,9.2v10.1Z" fill="#fff"/></g></g></g></g></svg>
