<svg id="moondao-animated-logo-original" xmlns="http://www.w3.org/2000/svg" xmlns:xlink="http://www.w3.org/1999/xlink" viewBox="200 250 600 600" shape-rendering="geometricPrecision" text-rendering="geometricPrecision" project-id="f46260eff15947b2843d8db3236aae73" export-id="42169173ffa7433292be64a6b1daad5e" cached="true">
<style><![CDATA[
#moondao-animated-logo-original-u-x-o {animation: moondao-animated-logo-original-u-x-o_c_o 1100ms linear 1 normal forwards}@keyframes moondao-animated-logo-original-u-x-o_c_o { 0% {opacity: 0} 90.909091% {opacity: 0} 100% {opacity: 1}} #moondao-animated-logo-original-u-x-a {animation: moondao-animated-logo-original-u-x-a_c_o 1100ms linear 1 normal forwards}@keyframes moondao-animated-logo-original-u-x-a_c_o { 0% {opacity: 0} 90.909091% {opacity: 0} 100% {opacity: 1}} #moondao-animated-logo-original-u-x-d {animation: moondao-animated-logo-original-u-x-d_c_o 1100ms linear 1 normal forwards}@keyframes moondao-animated-logo-original-u-x-d_c_o { 0% {opacity: 0} 90.909091% {opacity: 0} 100% {opacity: 1}} #moondao-animated-logo-original-u-icon_ts {animation: moondao-animated-logo-original-u-icon_ts__ts 1100ms linear 1 normal forwards}@keyframes moondao-animated-logo-original-u-icon_ts__ts { 0% {transform: translate(1011.814091px,606.199997px) scale(0.680535,0.680535)} 18.181818% {transform: translate(1011.814091px,606.199997px) scale(0.680535,0.680535);animation-timing-function: cubic-bezier(0.075,0.82,0.165,1)} 100% {transform: translate(1011.814091px,606.199997px) scale(1,1)}} #moondao-animated-logo-original-u-icon {animation: moondao-animated-logo-original-u-icon_c_o 1100ms linear 1 normal forwards}@keyframes moondao-animated-logo-original-u-icon_c_o { 0% {opacity: 0} 18.181818% {opacity: 0;animation-timing-function: cubic-bezier(0.075,0.82,0.165,1)} 100% {opacity: 1}} #moondao-animated-logo-original-u-moon_to {animation: moondao-animated-logo-original-u-moon_to__to 1100ms linear 1 normal forwards}@keyframes moondao-animated-logo-original-u-moon_to__to { 0% {transform: translate(125.1px,618.364021px)} 36.363636% {transform: translate(125.1px,618.364021px);animation-timing-function: cubic-bezier(0.075,0.82,0.165,1)} 100% {transform: translate(275.100006px,531.400009px)}} #moondao-animated-logo-original-u-moon {animation: moondao-animated-logo-original-u-moon_c_o 1100ms linear 1 normal forwards}@keyframes moondao-animated-logo-original-u-moon_c_o { 0% {opacity: 0} 36.363636% {opacity: 0;animation-timing-function: cubic-bezier(0.075,0.82,0.165,1)} 99.090909% {opacity: 1} 100% {opacity: 1}} #moondao-animated-logo-original-u-path_to {animation: moondao-animated-logo-original-u-path_to__to 1100ms linear 1 normal forwards}@keyframes moondao-animated-logo-original-u-path_to__to { 0% {transform: translate(222.875487px,858.150006px)} 18.181818% {transform: translate(222.875487px,858.150006px);animation-timing-function: cubic-bezier(0.075,0.82,0.165,1)} 72.727273% {transform: translate(436.15004px,718.599976px)} 100% {transform: translate(436.15004px,718.599976px)}} #moondao-animated-logo-original-u-path {animation: moondao-animated-logo-original-u-path_c_o 1100ms linear 1 normal forwards}@keyframes moondao-animated-logo-original-u-path_c_o { 0% {opacity: 0} 18.181818% {opacity: 0;animation-timing-function: cubic-bezier(0.075,0.82,0.165,1)} 72.727273% {opacity: 1} 100% {opacity: 1}} #moondao-animated-logo-original-u-star_to {animation: moondao-animated-logo-original-u-star_to__to 1100ms linear 1 normal forwards}@keyframes moondao-animated-logo-original-u-star_to__to { 0% {transform: translate(249.825517px,706.750103px)} 18.181818% {transform: translate(249.825517px,706.750103px);animation-timing-function: cubic-bezier(0.075,0.82,0.165,1)} 71.818182% {transform: translate(461.400024px,567.200073px)} 100% {transform: translate(461.400024px,567.200073px)}} #moondao-animated-logo-original-u-star {animation: moondao-animated-logo-original-u-star_c_o 1100ms linear 1 normal forwards}@keyframes moondao-animated-logo-original-u-star_c_o { 0% {opacity: 0} 18.181818% {opacity: 0;animation-timing-function: cubic-bezier(0.075,0.82,0.165,1)} 71.818182% {opacity: 1} 100% {opacity: 1}}
]]></style>
<defs><path id="moondao-animated-logo-original-u-clipping_mask" d="M559.6,750.2v-289.3c-58-42.1-127.8-64.7-199.5-64.7s-141.5,22.7-199.5,64.7v289.3c58,42.1,127.8,64.7,199.5,64.7s141.5-22.6,199.5-64.7v0Z"/><linearGradient id="moondao-animated-logo-original-u-background-fill" x1="352.531" y1="-45.78" x2="259.6016" y2="481.5014" spreadMethod="pad" gradientUnits="userSpaceOnUse" gradientTransform="translate(0 0)"><stop id="moondao-animated-logo-original-u-background-fill-0" offset="0%" stop-color="#00156a"/><stop id="moondao-animated-logo-original-u-background-fill-1" offset="19%" stop-color="#032074"/><stop id="moondao-animated-logo-original-u-background-fill-2" offset="72%" stop-color="#0b3b8e"/></linearGradient><linearGradient id="moondao-animated-logo-original-u-moon-fill" x1="200.984" y1="531.4088" x2="349.1716" y2="531.4088" spreadMethod="pad" gradientUnits="userSpaceOnUse" gradientTransform="translate(0 0)"><stop id="moondao-animated-logo-original-u-moon-fill-0" offset="0%" stop-color="#f7931e"/><stop id="moondao-animated-logo-original-u-moon-fill-1" offset="47%" stop-color="#f8a439"/><stop id="moondao-animated-logo-original-u-moon-fill-2" offset="100%" stop-color="#f9b95c"/></linearGradient><linearGradient id="moondao-animated-logo-original-u-original_path-fill" x1="294.8329" y1="899.9139" x2="444.2058" y2="641.1594" spreadMethod="pad" gradientUnits="userSpaceOnUse" gradientTransform="translate(0 0)"><stop id="moondao-animated-logo-original-u-original_path-fill-0" offset="0%" stop-color="#8a002d"/><stop id="moondao-animated-logo-original-u-original_path-fill-1" offset="78%" stop-color="#d7594f"/></linearGradient></defs><g id="moondao-animated-logo-original-s-g1" transform="matrix(1.292615 0 0 1.292615-827.28766-79.29507)"><g id="moondao-animated-logo-original-u-moondao_logo" transform="translate(62.099823-119.342048)"><g id="moondao-animated-logo-original-u-letters" transform="translate(-576.949277 0)" opacity="0"><path id="moondao-animated-logo-original-u-m" d="M677.5,532.7c2.7,0,5.4.2,8.1.6c2.2.4,4.2,1.2,6,2.5s3.4,3,4.6,4.9c1.6,2.6,3,5.4,4.1,8.2l44.4,102.4c.2.6.7,1.1,1.2,1.4s1.2.5,1.8.5h2.6c.6,0,1.3-.1,1.8-.5.5-.3.9-.9,1.2-1.4L797.6,549c1.1-2.9,2.5-5.6,4.2-8.2c1.2-1.9,2.8-3.6,4.6-4.9c1.8-1.2,3.8-2.1,5.9-2.5c2.6-.5,5.3-.7,8-.6h22.7c7.4,0,12.4,1.7,14.9,5s3.8,9.1,3.8,17.2v122.4c0,3.1-1.6,4.7-4.9,4.7h-26.5v-116.1c0-1.4-.6-2.1-1.7-2.1h-1.9c-.6-.1-1.2.1-1.7.4s-.9.8-1.1,1.3L781,661.1c-1.5,3.4-3.2,6.7-5.2,9.8-1.6,2.4-3.5,4.6-5.8,6.5-2.1,1.7-4.5,3-7.1,3.6-3,.7-6.2,1.1-9.3,1h-10.2c-3.1,0-6.2-.3-9.3-1-2.6-.7-5-1.9-7-3.6-2.2-1.9-4.2-4.1-5.8-6.5-2-3.1-3.8-6.4-5.2-9.8L673,565.6c-.2-.6-.6-1-1.1-1.3s-1.1-.4-1.7-.4h-1.9c-1.1,0-1.7.7-1.7,2.1v116h-26.5c-3.3,0-4.9-1.6-4.9-4.7v-122.4c0-8.1,1.3-13.8,3.8-17.2c2.6-3.3,7.6-5,15.1-5h23.4Z" opacity="0"/><path id="moondao-animated-logo-original-u-o1" d="M1013.9,532.7c9.3-.1,18.6,1,27.6,3.3c6.9,1.7,13.3,5,18.6,9.8c4.9,4.8,8.5,10.8,10.3,17.4c2.3,8.5,3.4,17.2,3.3,26v36.5c.2,8.8-.9,17.6-3.3,26-1.8,6.6-5.4,12.7-10.4,17.4-5.3,4.8-11.6,8.1-18.6,9.8-9.1,2.1-18.3,3.1-27.6,3h-65.8c-9.3.2-18.5-.8-27.5-3-6.9-1.7-13.2-5-18.5-9.8-5-4.8-8.6-10.8-10.5-17.5-2.3-8.5-3.4-17.2-3.3-26v-36.6c-.2-8.8.9-17.6,3.3-26c1.9-6.6,5.5-12.7,10.5-17.5c5.3-4.7,11.6-8.1,18.5-9.8c9-2.3,18.2-3.4,27.5-3.3l65.9.3Zm-93,90.7c-.1,4.7.4,9.4,1.4,14c.7,3.4,2.3,6.5,4.6,9c2.4,2.3,5.4,4,8.6,4.7c4.5,1,9.1,1.5,13.8,1.4h63.4c4.6.1,9.2-.4,13.7-1.4c3.3-.7,6.3-2.3,8.7-4.7c2.3-2.5,3.9-5.6,4.6-9c1-4.6,1.5-9.3,1.4-14v-32.1c.1-4.7-.4-9.4-1.4-14-.7-3.3-2.3-6.4-4.6-9-2.4-2.3-5.4-4-8.7-4.7-4.5-1-9.1-1.5-13.7-1.4h-63.3c-4.6-.1-9.3.4-13.8,1.4-3.3.7-6.3,2.3-8.6,4.7-2.3,2.5-3.9,5.6-4.6,9-1,4.6-1.5,9.3-1.4,14l-.1,32.1Z" opacity="0"/><path id="moondao-animated-logo-original-u-o2" d="M1224,532.7c9.3-.1,18.6,1,27.6,3.3c6.9,1.7,13.3,5,18.6,9.8c4.9,4.8,8.5,10.8,10.3,17.4c2.3,8.5,3.4,17.2,3.3,26v36.5c.2,8.8-.9,17.6-3.3,26-1.8,6.6-5.4,12.7-10.3,17.4-5.3,4.8-11.6,8.1-18.6,9.8-9.1,2.1-18.3,3.1-27.6,3h-65.9c-9.3.2-18.5-.8-27.5-3-6.9-1.7-13.2-5-18.4-9.8-5-4.8-8.6-10.8-10.4-17.5-2.3-8.5-3.4-17.2-3.3-26v-36.6c-.2-8.8.9-17.6,3.3-26c1.9-6.6,5.5-12.7,10.4-17.5c5.3-4.7,11.6-8.1,18.5-9.8c9-2.3,18.2-3.4,27.5-3.3l65.8.3Zm-93,90.7c-.1,4.7.4,9.4,1.4,14c.7,3.4,2.3,6.5,4.6,9c2.4,2.3,5.4,4,8.6,4.7c4.5,1,9.1,1.5,13.8,1.4h63.4c4.6.1,9.2-.4,13.7-1.4c3.2-.7,6.2-2.4,8.6-4.7c2.3-2.5,3.9-5.6,4.6-9c1-4.6,1.5-9.3,1.4-14v-32.1c.1-4.7-.4-9.4-1.4-14-.7-3.3-2.3-6.4-4.6-9-2.4-2.3-5.4-4-8.7-4.7-4.5-1-9.1-1.5-13.7-1.4h-63.3c-4.6-.1-9.3.4-13.8,1.4-3.3.7-6.3,2.3-8.6,4.7-2.3,2.5-3.9,5.6-4.6,9-1,4.6-1.5,9.3-1.4,14v32.1Z" opacity="0"/><path id="moondao-animated-logo-original-u-n" d="M1348.1,532.7c2.9,0,5.7.1,8.6.4c2.1.2,4.1.8,6,1.8c1.8,1,3.5,2.3,4.9,3.8c1.9,2.1,3.7,4.2,5.3,6.5l79.4,104.2c.3.5.7.9,1.2,1.1.5.3,1.1.4,1.6.4h1.9c1.1,0,1.7-.7,1.7-2.1v-116.1h31.8v127.1c0,8.7-1.6,14.5-4.7,17.6-4,3.4-9.3,5-14.5,4.6h-18.3c-2.8,0-5.5-.1-8.2-.4-2-.2-4-.8-5.9-1.7-1.9-1-3.6-2.2-5-3.7-2-2.1-3.9-4.3-5.6-6.7l-79.6-104.2c-.3-.4-.8-.8-1.2-1.1-.5-.3-1-.4-1.6-.4h-1.9c-1.1,0-1.7.7-1.7,2.1v116.1h-27.1c-3.3,0-4.9-1.6-4.9-4.7v-122.4c0-8.7,1.6-14.5,4.7-17.6c4-3.4,9.3-5,14.5-4.6h18.6Z" opacity="0"/><path id="moondao-animated-logo-original-u-x-o" d="M1669.4,504.2c5.6,0,11.1,1.7,15.8,4.8s8.4,7.6,10.5,12.8c2.2,5.2,2.7,10.9,1.6,16.5-1.1,5.5-3.8,10.6-7.8,14.6s-9.1,6.7-14.6,7.8-11.3.6-16.5-1.6-9.7-5.8-12.8-10.5-4.8-10.2-4.8-15.8c0-3.8.7-7.5,2.1-10.9c1.4-3.5,3.5-6.6,6.2-9.3s5.8-4.8,9.3-6.2c3.6-1.4,7.3-2.2,11-2.2Zm0,53.5c5,0,9.8-1.5,13.9-4.2c4.1-2.8,7.3-6.7,9.2-11.2c1.9-4.6,2.4-9.6,1.4-14.5s-3.4-9.3-6.9-12.8-8-5.9-12.8-6.8c-4.9-1-9.9-.4-14.5,1.5s-8.5,5.1-11.2,9.3c-2.7,4.1-4.2,9-4.2,13.9c0,3.3.7,6.5,1.9,9.6c1.3,3,3.1,5.8,5.4,8.1s5.1,4.1,8.1,5.4c3.2,1.1,6.5,1.7,9.7,1.7Z" opacity="0"/><path id="moondao-animated-logo-original-u-x-a" d="M1588.6,545.8l-6.3,14.5c-.1.2-.3.4-.5.5s-.4.2-.6.2h-2.2c-.6,0-.8-.3-.6-.9l24.4-55.1c.1-.2.2-.3.4-.4s.4-.1.5-.1h.2c.2,0,.4,0,.6.1s.3.3.4.4l24.2,55.1c.2.5.2.9-.7.9h-2c-.2,0-.5-.1-.6-.2-.2-.1-.4-.3-.5-.5l-6.5-14.5-1.4-3.1-13.5-31.9h-.3l-13.8,31.9-1.2,3.1Zm1.4-3.1l-1.4,3.1l1.4-3.1Z" opacity="0"/><path id="moondao-animated-logo-original-u-x-d" d="M1538.8,505.6h-16.8c-.3,0-.5.2-.7.3-.2.2-.3.4-.3.7v2.4h17.1c6.4,0,12.6,2.6,17.2,7.1c4.6,4.6,7.1,10.7,7.1,17.2c0,6.4-2.6,12.6-7.1,17.2s-10.7,7.1-17.2,7.1h-17.1v2.4c0,.3.1.5.3.7s.4.3.7.3h16.8c3.8.3,7.6-.3,11.2-1.5c3.6-1.3,6.9-3.3,9.6-5.9c2.8-2.6,5-5.7,6.5-9.2s2.3-7.2,2.3-11-.8-7.6-2.3-11.1-3.7-6.6-6.5-9.2-6.1-4.6-9.6-5.9c-3.6-1.2-7.4-1.8-11.2-1.6v0Z" opacity="0"/></g><g id="moondao-animated-logo-original-u-icon_ts" transform="translate(1011.814091,606.199997) scale(0.680535,0.680535)"><g id="moondao-animated-logo-original-u-icon" transform="translate(-404.800026,-606.199997)" opacity="0"><g id="moondao-animated-logo-original-s-g2" clip-path="url(#moondao-animated-logo-original-u-clipping_mask_00000107560708361877207170000002067515856354354048)"><rect id="moondao-animated-logo-original-u-background" width="612.1" height="435.8" rx="0" ry="0" transform="translate(97.9 386.6)" fill="url(#moondao-animated-logo-original-u-background-fill)"/><g id="moondao-animated-logo-original-u-moon_to" transform="translate(125.1,618.364021)"><path id="moondao-animated-logo-original-u-moon" d="M275.1,605.5c40.9,0,74.1-33.2,74.1-74.1s-33.2-74.1-74.1-74.1-74.1,33.2-74.1,74.1s33.2,74.1,74.1,74.1Z" transform="translate(-275.1,-536.256)" opacity="0" fill="url(#moondao-animated-logo-original-u-moon-fill)"/></g><g id="moondao-animated-logo-original-u-path_to" transform="translate(222.875487,858.150006)"><g id="moondao-animated-logo-original-u-path" transform="translate(-436.15004,-718.599976)" opacity="0"><path id="moondao-animated-logo-original-u-original_path" d="M559.6,750.1C268.6,716,377.3,620.8,392.8,611.4c-10.9,6.5-232.2,138.7-232.2,138.7l1,72.8c.8.8,397.6,2.8,396.8,2.8l1.2-75.6v0Z" fill="url(#moondao-animated-logo-original-u-original_path-fill)"/></g></g><g id="moondao-animated-logo-original-u-star_to" transform="translate(249.825517,706.750103)"><path id="moondao-animated-logo-original-u-star" d="M412.2,598.9c0,0,19.5-15.3,19.5-26.2.3-12.1-22.8-47.8-22.8-47.8c16.3,22.1,26.6,30.9,26.6,30.9c15.1,14.1,46.8-6.5,78.4-26.6c0,0-37.4,26.5-53.4,46.4-6.8,8.5.2,23.7,6.3,33.9c0,0-13.3-20.1-26.6-20.8-11.9-.5-28,10.2-28,10.2Z" transform="translate(-461.400024,-567.200073)" opacity="0" fill="#f2f2f2"/></g><clipPath id="moondao-animated-logo-original-u-clipping_mask_00000107560708361877207170000002067515856354354048"><use id="moondao-animated-logo-original-s-use1" width="399" height="418.700012" xlink:href="#moondao-animated-logo-original-u-clipping_mask"/></clipPath></g></g></g></g></g></svg>
