<?xml version="1.0" encoding="UTF-8"?>
<svg id="Layer_1" xmlns="http://www.w3.org/2000/svg" version="1.1" viewBox="0 0 542.1 102.4">
  <!-- Generator: Adobe Illustrator 29.5.0, SVG Export Plug-In . SVG Version: 2.1.0 Build 137)  -->
  <defs>
    <style>
      .st0 {
        fill: #fff;
      }
    </style>
  </defs>
  <path class="st0" d="M4.6,28.2l1.1-6h21c2.4,0,3.9-1.3,3.9-3.4s-1-2.4-2.9-2.4h-12.6c-4.8,0-7.6-2.8-7.6-6.7S11.5.4,18,.4h20.1l-1,6h-20.1c-2,0-3.3,1.2-3.3,3.2s.9,2.2,2.3,2.2h12.5c5,0,7.8,2.1,7.8,6.4s-3.7,10.1-10.7,10.1H4.6Z"/>
  <path class="st0" d="M49.2,20.7l1-5.8h10.4c3.3,0,5.5-2.1,5.5-5.1s-1.4-3.5-3.9-3.5h-13.8l-3.9,21.9h-5.9L43.3.4h19.8c5.7,0,8.9,3.2,8.9,8.2s-4.9,12.1-12.4,12.1h-10.4Z"/>
  <path class="st0" d="M95.9,28.2l-2.8-6.6h-11.7l3.6-4.6h6.3l-3.6-8.6-15.1,19.8h-6.8L86.2,1.9c.9-1.1,1.9-1.9,3.2-1.9s2,.8,2.5,1.9l11.2,26.3h-7.2Z"/>
  <path class="st0" d="M114.8,28.2c-7,0-11.5-5.1-11.5-11.9S110.8.4,119.7.4h15.3l-1,6h-15.3c-5,0-9.3,4-9.3,9.3s2.6,6.6,6.5,6.6h15.3l-1.1,6h-15.3Z"/>
  <path class="st0" d="M133.7,28.2L138.6.4h25.2l-1,6h-19.3l-2.8,15.9h19.4l-1.1,6h-25.3ZM145.2,16.4l.8-4.7h14.8l-.8,4.7h-14.8Z"/>
  <path class="st0" d="M202.5,28.2l-2.8-6.6h-11.7l3.6-4.6h6.3l-3.6-8.6-15.1,19.8h-6.8L192.8,1.9c.9-1.1,1.9-1.9,3.2-1.9s2,.8,2.5,1.9l11.2,26.3h-7.2Z"/>
  <path class="st0" d="M221.4,28.2c-7,0-11.5-5.1-11.5-11.9S217.4.4,226.3.4h15.3l-1,6h-15.3c-5,0-9.3,4-9.3,9.3s2.6,6.6,6.5,6.6h15.3l-1.1,6h-15.3Z"/>
  <path class="st0" d="M253.3,28.2c-7,0-11.5-5.1-11.5-11.9S249.3.4,258.2.4h15.3l-1,6h-15.3c-5,0-9.3,4-9.3,9.3s2.6,6.6,6.5,6.6h15.3l-1.1,6h-15.3Z"/>
  <path class="st0" d="M272.2,28.2l4.9-27.8h25.2l-1,6h-19.3l-2.8,15.9h19.4l-1.1,6h-25.3ZM283.7,16.4l.8-4.7h14.8l-.8,4.7h-14.8Z"/>
  <path class="st0" d="M301.3,28.2l4.9-27.8h6l-3.8,21.9h18l-1.1,6h-23.9Z"/>
  <path class="st0" d="M328.3,28.2l4.9-27.8h25.2l-1,6h-19.3l-2.8,15.9h19.4l-1.1,6h-25.3ZM339.8,16.4l.8-4.7h14.8l-.8,4.7h-14.8Z"/>
  <path class="st0" d="M382.2,28.2l-5.4-7.6h-8.6l.9-5.1h10.8c3.4,0,5.5-2.3,5.5-5.6s-1.4-3.6-3.8-3.6h-14.3l-3.9,21.9h-5.9l4.9-27.8h20.2c5.7,0,8.8,3.3,8.8,8.4s-2.9,9.4-7.4,11.1l6.8,8.4h-8.5Z"/>
  <path class="st0" d="M421.1,28.2l-2.8-6.6h-11.7l3.6-4.6h6.3l-3.6-8.6-15.1,19.8h-6.8l20.4-26.3c.9-1.1,1.9-1.9,3.2-1.9s2,.8,2.5,1.9l11.2,26.3h-7.2Z"/>
  <path class="st0" d="M434.4,28.2l3.9-21.9h-10.2l1-6h26.4l-1,6h-10.2l-3.9,21.9h-6Z"/>
  <path class="st0" d="M453.7,28.2l4.9-27.8h6l-4.9,27.8h-6Z"/>
  <path class="st0" d="M477.3,28.2c-7,0-11.5-5.1-11.5-11.9s7.5-15.9,16.4-15.9h6.9c7.2,0,11.7,4.6,11.7,11.3s-7.6,16.5-16.6,16.5h-6.9ZM485.3,22.2c5.2,0,9.4-4,9.4-9.3s-2.6-6.6-6.6-6.6h-6.9c-5,0-9.3,4-9.3,9.3s2.6,6.6,6.5,6.6h6.9Z"/>
  <path class="st0" d="M510.5,9.1l-3.3,19.1h-5.7l4.4-24.6c.4-2.2,1.8-3.5,3.6-3.5s1.5.3,2.2,1.1l14.9,18,3.4-19.1h5.7l-4.4,24.9c-.4,2.2-1.9,3.6-3.6,3.6s-1.6-.3-2.2-1.1l-15-18.3Z"/>
  <path class="st0" d="M20,59.9l-7.4,41.6H0l9.7-53.8c.9-4.8,3.9-7.7,8-7.7s3.4.6,4.9,2.4l33.2,39.4,7.7-41.6h12.7l-9.7,54.4c-.9,4.8-4.2,7.8-8.1,7.8s-3.5-.8-4.9-2.5L20,59.9Z"/>
  <path class="st0" d="M74.8,101.5l10.9-60.8h56.2l-2.3,13h-43l-6.2,34.7h43l-2.4,13h-56.2ZM100.3,75.8l1.9-10.3h32.8l-1.9,10.3h-32.8Z"/>
  <path class="st0" d="M158.5,101.5l8.6-47.7h-22.7l2.3-13h58.7l-2.3,13h-22.7l-8.6,47.7h-13.3Z"/>
  <path class="st0" d="M253.8,82.3l-11.5,16c-2,2.8-4.8,4.1-7.5,4.1s-5.1-1.3-6.1-4.1l-21.2-57.5h15.8l15.2,43.3,10.7-14.4-10-28.9h15.9l13.9,43.3,30.8-43.3h14.9l-41.9,57.5c-2,2.8-4.8,4.1-7.6,4.1s-5.1-1.3-6-4.1l-5.4-16Z"/>
  <path class="st0" d="M329.9,101.5c-15.5,0-25.5-11.1-25.5-26s16.6-34.8,36.4-34.8h15.3c16.1,0,26,10,26,24.7s-16.8,36-36.9,36h-15.3ZM347.6,88.5c11.6,0,20.9-8.8,20.9-20.2s-5.7-14.5-14.7-14.5h-15.3c-11.2,0-20.8,8.8-20.8,20.2s5.7,14.5,14.5,14.5h15.3Z"/>
  <path class="st0" d="M439.2,101.5l-12.1-16.6h-19.2l2-11.1h24c7.7,0,12.2-4.9,12.2-12.2s-3.1-7.9-8.5-7.9h-31.7l-8.6,47.7h-13.2l10.9-60.8h44.9c12.6,0,19.5,7.1,19.5,18.3s-6.6,20.6-16.5,24.2l15.2,18.3h-18.8Z"/>
  <path class="st0" d="M462.7,101.5l10.9-60.8h13.3l-10.9,60.8h-13.3ZM512.9,101.5l-26.1-25.7c-1.4-1.4-1.9-2.8-1.9-4.2,0-2.2,1.6-5,4.5-7.1l32.5-23.7h20.2l-42.2,30,32.5,30.8h-19.5Z"/>
</svg>