<?xml version="1.0" encoding="UTF-8"?>
<svg id="Layer_1" xmlns="http://www.w3.org/2000/svg" version="1.1" viewBox="0 0 726.8 471">
  <!-- Generator: Adobe Illustrator 29.5.0, SVG Export Plug-In . SVG Version: 2.1.0 Build 137)  -->
  <defs>
    <style>
      .st0 {
        fill: #fff;
      }
    </style>
  </defs>
  <path class="st0" d="M169.1,142.2c-7.2,8.5-18.7,15.2-30.1,14.3-1.4-11.5,4.2-23.7,10.8-31.2,7.2-8.7,19.7-14.9,29.9-15.4,1.1,11.9-3.5,23.6-10.6,32.3M179.5,158.6c-16.6-1-30.9,9.5-38.8,9.5s-20.1-9-33.3-8.7c-17.1.3-33,10-41.7,25.4-18,30.9-4.7,76.5,12.7,101.7,8.5,12.4,18.7,26.1,32.1,25.6,12.7-.5,17.7-8.2,33-8.2s19.9,8.2,33.3,8c13.9-.3,22.6-12.4,31.1-24.9,9.7-14.2,13.7-27.8,13.9-28.6-.3-.3-26.8-10.4-27.1-41-.3-25.6,21-37.8,21.9-38.6-12-17.8-30.6-19.7-37.1-20.2M275.6,124v186.5h29v-63.7h40.1c36.6,0,62.3-25.2,62.3-61.5s-25.3-61.2-61.3-61.2h-70,0ZM304.6,148.4h33.4c25.2,0,39.5,13.4,39.5,36.9s-14.4,37.1-39.6,37.1h-33.3v-74.1h0ZM459.8,311.9c18.2,0,35-9.2,42.7-23.8h.6v22.4h26.8v-92.8c0-26.9-21.5-44.3-54.6-44.3s-53.5,17.6-54.3,41.7h26.1c2.2-11.5,12.8-19,27.4-19s27.7,8.2,27.7,23.4v10.3l-36.2,2.2c-33.6,2-51.8,15.8-51.8,39.7,0,24.1,18.8,40.2,45.7,40.2ZM467.6,289.8c-15.4,0-25.3-7.5-25.3-18.8s9.5-18.6,27.6-19.6l32.1-2v10.5c0,17.4-14.8,29.9-34.4,29.9ZM565.7,361.2c28.2,0,41.5-10.8,53.1-43.4l50.8-142.6h-29.5l-34.1,110.1h-.6l-34.1-110.1h-30.2l49,135.8-2.7,8.2c-4.4,14-11.6,19.4-24.4,19.4s-6.7-.3-8.5-.5v22.4c1.7.4,8.9.7,11.1.7h0Z"/>
</svg>