<?xml version="1.0" encoding="UTF-8"?>
<svg id="Layer_1" xmlns="http://www.w3.org/2000/svg" version="1.1" viewBox="0 0 726.8 471">
  <!-- Generator: Adobe Illustrator 29.5.0, SVG Export Plug-In . SVG Version: 2.1.0 Build 137)  -->
  <defs>
    <style>
      .st0 {
        fill: #fff;
      }
    </style>
  </defs>
  <path class="st0" d="M216.1,188.4h-28.4l-11.7-53c-1.7-7.8-8.4-12.5-14.9-10.4,0,0,0,0,0,0L16.3,172c-6.5,2.1-10.3,10.1-8.6,18,0,0,0,0,0,0l27.5,124.3c1.7,7.9,8.4,12.5,14.9,10.4l4-1.3v8.4c0,8.1,5.5,14.7,12.2,14.8h149.8c6.7,0,12.2-6.6,12.2-14.8v-128.7c0-8.1-5.4-14.7-12.2-14.7h0ZM13.7,188.1c-.9-3.8,1-7.7,4.1-8.8h0l144.8-47c3.1-1,6.4,1.2,7.2,5,0,0,0,0,0,0l3.3,15.2L17.1,203.2l-3.3-15.2ZM48.4,317.4c-3.1,1-6.4-1.2-7.2-5.1l-17.2-77.7,156.2-50.7,17.2,77.7c.9,3.8-1,7.7-4.1,8.8h0l-144.8,47ZM200.7,319.8h-39.5c-2.9.1-5.4-2.6-5.5-6.2-.1-3.5,2.2-6.5,5.1-6.6h39.5c2.9-.1,5.4,2.6,5.5,6.2.1,3.5-2.2,6.5-5.1,6.6ZM222,243.8h-22.1l-3.8-17.3h25.9v17.3Z"/>
  <g>
    <path class="st0" d="M256.4,160.7h52.9c38.1,0,64.2,29.6,64.2,75.1s-26.1,75.1-64.2,75.1h-52.9v-150.2ZM307.9,282.4c23.1,0,38.3-17.8,38.3-46.6s-15.1-46.6-38.3-46.6h-24.6v93.1h24.6Z"/>
    <path class="st0" d="M479.1,262.6h-67.7c2.5,14.4,12,23.2,25.6,23.2s16.3-3.6,22.5-11.2l13.8,19.3c-8.3,12.2-20.8,18.7-36.9,18.7-30.9,0-51.1-25.1-51.1-59.4s20.5-59.4,47.8-59.4,46.6,22.7,46.6,59.9-.3,6.2-.5,9ZM411.1,243.1h44.1c-1.8-14.6-10.3-24-22-24s-20.3,9.2-22.1,24Z"/>
    <path class="st0" d="M594.4,253.2c0,36.3-19.5,59.4-44.6,59.4s-21.6-4.9-28.1-15v13.3h-24.8v-159.2h26v56c6.7-9.4,15.8-14,27-14,25.1,0,44.6,23.2,44.6,59.4ZM568.2,253.2c0-20-9.8-32-22.8-32s-22.8,12-22.8,32,9.8,32,22.8,32,22.8-12,22.8-32Z"/>
    <path class="st0" d="M608.6,160.7c0-10.5,6.5-18.7,16.1-18.7s16.1,7.7,16.1,18-6.5,19.3-16.1,19.3-16.1-8.2-16.1-18.7ZM611.7,195.5h26v115.5h-26v-115.5Z"/>
    <path class="st0" d="M719.6,305.4c-5.3,4.9-13.1,7.3-21.1,7.3-21.1,0-33.4-14-33.4-41.4v-47.4h-13.8v-25.8h13.8v-28.1h26v28.1h22.3v25.8h-22.3v47c0,9.9,4.2,15.2,11.1,15.2s7.7-1.5,10.5-4.3l7,23.6Z"/>
  </g>
</svg>