<?xml version="1.0" encoding="UTF-8"?>
<svg id="Layer_1" xmlns="http://www.w3.org/2000/svg" version="1.1" viewBox="0 0 726.8 471">
  <!-- Generator: Adobe Illustrator 29.5.0, SVG Export Plug-In . SVG Version: 2.1.0 Build 137)  -->
  <defs>
    <style>
      .st0 {
        fill: #fff;
      }
    </style>
  </defs>
  <path class="st0" d="M174.3,250.8c-8.3-7.7-19.4-11.6-33.2-11.6h-16.4v95.8h11.8c6.4,0,12.6-.8,18.7-2.3,6.1-1.5,11.4-4.2,16.2-8s8.5-9,11.3-15.6,4.2-15,4.2-25c0-14.4-4.2-25.5-12.5-33.2ZM174.3,250.8c-8.3-7.7-19.4-11.6-33.2-11.6h-16.4v95.8h11.8c6.4,0,12.6-.8,18.7-2.3,6.1-1.5,11.4-4.2,16.2-8s8.5-9,11.3-15.6,4.2-15,4.2-25c0-14.4-4.2-25.5-12.5-33.2ZM174.3,250.8c-8.3-7.7-19.4-11.6-33.2-11.6h-16.4v95.8h11.8c6.4,0,12.6-.8,18.7-2.3,6.1-1.5,11.4-4.2,16.2-8s8.5-9,11.3-15.6,4.2-15,4.2-25c0-14.4-4.2-25.5-12.5-33.2ZM411.3,243c-4-2.8-9.6-4.3-16.7-4.3h-15.8v35.2h14.9c6.8,0,12.5-1.4,17-4.2,4.4-2.8,6.7-7.4,6.7-14s-2-10-6-12.8ZM417.4,302.8c-2.6-3-6.1-5.1-10.5-6.5-4.4-1.3-9.2-2-14.4-2h-13.6v41.1h15.1c7.7,0,14.2-1.6,19.5-4.7,5.2-3.1,7.9-8.5,7.9-16.1s-1.3-8.9-3.9-11.9ZM417.4,302.8c-2.6-3-6.1-5.1-10.5-6.5-4.4-1.3-9.2-2-14.4-2h-13.6v41.1h15.1c7.7,0,14.2-1.6,19.5-4.7,5.2-3.1,7.9-8.5,7.9-16.1s-1.3-8.9-3.9-11.9ZM410.7,269.8c4.4-2.8,6.7-7.4,6.7-14s-2-10-6-12.8c-4-2.8-9.6-4.3-16.7-4.3h-15.8v35.2h14.9c6.8,0,12.5-1.4,17-4.2ZM174.3,250.8c-8.3-7.7-19.4-11.6-33.2-11.6h-16.4v95.8h11.8c6.4,0,12.6-.8,18.7-2.3,6.1-1.5,11.4-4.2,16.2-8s8.5-9,11.3-15.6,4.2-15,4.2-25c0-14.4-4.2-25.5-12.5-33.2ZM608.4,47.9H102.7c-28.6,0-51.9,23.1-51.9,51.9v261.6c0,28.8,23.2,51.9,51.9,51.9h514.3c28.6,0,51.8-23.1,51.8-51.9V99.8c0-29.1-32.4-51.9-60.5-51.9ZM209.2,316.8c-4,9.1-9.6,16.6-16.6,22.4-7.1,5.8-15.2,10.1-24.5,12.8-9.3,2.7-19.1,4-29.6,4h-40.5v-137.8h47c13.8,0,26,2.4,36.5,7.3,10.5,4.9,18.7,12.2,24.7,22s9,21.9,9,36.5-2,23.6-6,32.7ZM328.3,356h-88.2v-137.8h87.5v21h-60.8v34.8h55.1v20.8h-55.1v40.2h61.5v21ZM442.4,337.2c-4.3,5.8-10.3,10.4-18,13.8-7.7,3.4-16.7,5-26.9,5h-45.3v-137.8h46.6c14.3,0,25.5,3.1,33.7,9.4,8.2,6.3,12.2,15,12.2,26.2s-2.6,15.1-7.8,19.8c-5.2,4.7-11,7.9-17.4,9.5,8,1.5,14.9,5,20.7,10.6,5.8,5.6,8.6,13.4,8.6,23.3s-2.2,14.3-6.5,20.1ZM501.1,356h-26.7v-137.8h26.7v137.8ZM625.8,239.6h-40.2v116.4h-26.7v-116.4h-39.6v-21.4h106.5v21.4ZM651.6,186.2H68.1v-51.9h583.4v51.9ZM406.9,296.3c-4.4-1.3-9.2-2-14.4-2h-13.6v41.1h15.1c7.7,0,14.2-1.6,19.5-4.7,5.2-3.1,7.9-8.5,7.9-16.1s-1.3-8.9-3.9-11.9c-2.6-3-6.1-5.1-10.5-6.5ZM410.7,269.8c4.4-2.8,6.7-7.4,6.7-14s-2-10-6-12.8c-4-2.8-9.6-4.3-16.7-4.3h-15.8v35.2h14.9c6.8,0,12.5-1.4,17-4.2ZM174.3,250.8c-8.3-7.7-19.4-11.6-33.2-11.6h-16.4v95.8h11.8c6.4,0,12.6-.8,18.7-2.3,6.1-1.5,11.4-4.2,16.2-8s8.5-9,11.3-15.6,4.2-15,4.2-25c0-14.4-4.2-25.5-12.5-33.2ZM174.3,250.8c-8.3-7.7-19.4-11.6-33.2-11.6h-16.4v95.8h11.8c6.4,0,12.6-.8,18.7-2.3,6.1-1.5,11.4-4.2,16.2-8s8.5-9,11.3-15.6,4.2-15,4.2-25c0-14.4-4.2-25.5-12.5-33.2ZM411.3,243c-4-2.8-9.6-4.3-16.7-4.3h-15.8v35.2h14.9c6.8,0,12.5-1.4,17-4.2,4.4-2.8,6.7-7.4,6.7-14s-2-10-6-12.8ZM417.4,302.8c-2.6-3-6.1-5.1-10.5-6.5-4.4-1.3-9.2-2-14.4-2h-13.6v41.1h15.1c7.7,0,14.2-1.6,19.5-4.7,5.2-3.1,7.9-8.5,7.9-16.1s-1.3-8.9-3.9-11.9ZM417.4,302.8c-2.6-3-6.1-5.1-10.5-6.5-4.4-1.3-9.2-2-14.4-2h-13.6v41.1h15.1c7.7,0,14.2-1.6,19.5-4.7,5.2-3.1,7.9-8.5,7.9-16.1s-1.3-8.9-3.9-11.9ZM411.3,243c-4-2.8-9.6-4.3-16.7-4.3h-15.8v35.2h14.9c6.8,0,12.5-1.4,17-4.2,4.4-2.8,6.7-7.4,6.7-14s-2-10-6-12.8ZM174.3,250.8c-8.3-7.7-19.4-11.6-33.2-11.6h-16.4v95.8h11.8c6.4,0,12.6-.8,18.7-2.3,6.1-1.5,11.4-4.2,16.2-8s8.5-9,11.3-15.6,4.2-15,4.2-25c0-14.4-4.2-25.5-12.5-33.2ZM174.3,250.8c-8.3-7.7-19.4-11.6-33.2-11.6h-16.4v95.8h11.8c6.4,0,12.6-.8,18.7-2.3,6.1-1.5,11.4-4.2,16.2-8s8.5-9,11.3-15.6,4.2-15,4.2-25c0-14.4-4.2-25.5-12.5-33.2ZM174.3,250.8c-8.3-7.7-19.4-11.6-33.2-11.6h-16.4v95.8h11.8c6.4,0,12.6-.8,18.7-2.3,6.1-1.5,11.4-4.2,16.2-8s8.5-9,11.3-15.6,4.2-15,4.2-25c0-14.4-4.2-25.5-12.5-33.2Z"/>
</svg>