<?xml version="1.0" encoding="UTF-8"?>
<svg id="Layer_1" xmlns="http://www.w3.org/2000/svg" version="1.1" viewBox="0 0 726.8 471">
  <!-- Generator: Adobe Illustrator 29.5.0, SVG Export Plug-In . SVG Version: 2.1.0 Build 137)  -->
  <defs>
    <style>
      .st0 {
        fill: #fff;
      }
    </style>
  </defs>
  <path class="st0" d="M153.3,195.3v40.4h56c-2.3,13-9.8,24.6-20.7,32-9.4,6.4-21.3,10.1-35.3,10.1-27.1,0-49.9-18.5-58.1-43.4-4.3-13.1-4.3-27.1,0-40.2h0c8.2-25,31.1-43.5,58.1-43.5,14.8-.3,29.1,5.4,39.7,15.8l29.7-30c-18.7-17.8-43.6-27.6-69.4-27.3-39.4.2-75.2,22.6-92.5,58-14.8,29.7-14.8,64.6,0,94.3h0c17.3,35.5,53.2,57.9,92.5,58,27.9,0,51.5-9.3,68.6-25.4,19.6-18.2,30.8-45.3,30.8-77.4,0-7.2-.6-14.3-1.7-21.4h-97.7ZM535.1,191.4c-9.9-9.2-23.5-13.9-40.6-13.9s-38.6,8.2-49.5,24.4l20.4,13c7.5-11.1,17.7-16.7,30.7-16.7,8.2,0,16.2,3.1,22.3,8.6,6,5.2,9.5,12.8,9.5,20.8v5.4c-8.9-5-20.2-7.6-34-7.6s-29.1,3.8-38.7,11.5c-9.6,7.7-14.5,18-14.5,30.9-.3,11.8,4.7,23,13.7,30.7,9.1,8.2,20.6,12.3,34.1,12.3s28.6-7.2,38.2-21.5h1v17.4h22.2v-77.2c0-16.2-4.8-29.1-14.8-38.2ZM516.3,278.9c-6.9,7-16.3,10.9-26.1,10.9-6.5.1-12.9-2.1-18-6.1-4.8-3.6-7.6-9.3-7.6-15.3,0-6.9,3.2-12.6,9.4-17.1s14.2-6.9,23.6-6.9c12.9-.2,23,2.8,30.2,8.6,0,9.9-3.9,18.5-11.5,25.8ZM424.4,139.7c-10.5-10.5-24.9-16.3-39.7-16h-61.5v183.1h23.2v-74.2h38.2c15.7,0,28.9-5.3,39.7-15.6.9-.9,1.7-1.8,2.6-2.6,19.7-21.5,18.5-54.7-2.6-74.8h0ZM408.2,200.7c-5.9,6.3-14.2,9.8-22.9,9.5h-38.9v-63.9h38.9c8.3,0,16.3,3.2,22.2,9.1,12.5,12.4,12.8,32.5.7,45.4h0ZM652,181.6l-35.8,89.9h-.4l-36.7-89.9h-25.2l50.8,117.2-28.8,63.1h23.9l77.5-180.3h-25.2Z"/>
</svg>