<?xml version="1.0" encoding="UTF-8"?>
<svg id="Layer_1" xmlns="http://www.w3.org/2000/svg" version="1.1" viewBox="0 0 726.8 500.3">
  <!-- Generator: Adobe Illustrator 29.5.0, SVG Export Plug-In . SVG Version: 2.1.0 Build 137)  -->
  <defs>
    <style>
      .st0 {
        fill: #fff;
      }
    </style>
  </defs>
  <path class="st0" d="M659.8,168.7h-17.7s0,0,0,0h0c-4,0-8.2,3.1-9.3,7,0,.2-.1.3-.2.5,0,0-.4,1.9-1.2,5.2l-24.3,109.8c-.6,2.5-.9,4.1-1,4.5h0c-.8,3.9,1.5,7.1,5.3,7.4h0c0,0,18.3,0,18.3,0,4,0,8.1-3.1,9.3-6.9,0-.2.1-.4.2-.6l26.5-119.6h0c.9-4.1-1.7-7.5-6-7.5ZM569.1,276.6c-2.5,1.5-5,2.9-7.8,4-3.6,1.5-7.1,2.2-10.3,2.2-4.9,0-8.7-.7-11.2-2.2-2.6-1.4-3.9-3.8-3.8-7.3,0-4,.9-7.2,2.9-9.6,1.9-2.4,4.8-4.3,8.4-5.7,3.6-1.2,8-2.2,13-2.9,4.5-.6,13.4-1.6,14.6-1.6,1.1,0,1.9-.6,1.4,2.4-.2,1.3-2.8,11.8-4,16.6-.3,1.4-2.3,3.5-3.1,4.1,0,0,.9-.6,0,0ZM604.1,202.6c-7.5-4.2-19.2-6.3-35.3-6.3s-15.9.6-23.9,1.9c-5.9.9-6.5,1-10.1,1.8-7.5,1.6-8.7,9.1-8.7,9.1l-2.4,9.9c-1.4,6.3,2.2,6.1,3.9,5.6,3.3-1,5.1-2,11.7-3.5,6.4-1.4,13.2-2.5,18.5-2.5,7.9,0,13.9.9,17.9,2.5,4,1.7,6,4.7,6,8.9,0,1,0,2-.3,2.8-.3.8-1,1.5-2.9,1.8-11.3.7-19.4,1.7-29.1,3.1-9.6,1.4-18,3.7-25.1,6.9-7.5,3.3-13.1,7.8-17,13.4-3.8,5.7-5.7,12.5-5.7,20.6,0,7.6,2.7,13.8,8.1,18.7,5.4,4.8,12.4,7.1,20.8,7.1,5.3,0,9.4-.4,12.4-1.2,2.9-.7,6.1-1.8,9.5-3.3,2.5-1.1,5.3-2.6,8.1-4.5,2.9-1.9,4.9-3.3,7.4-5v.2c0,0-.6,3.2-.6,3.2,0,0,0,0,0,0h0c-.8,3.9,1.5,7.1,5.3,7.4h0c0,0,.3,0,.3,0h0c2.5,0,11.2,0,15.2,0h2.8c.2,0,.2,0,.3-.1,3.9-.5,7.6-3.6,8.5-7.4l14.4-62.1c.3-1.5.6-3.1.8-5.1.2-2,.4-3.6.3-4.7,0-8.8-3.8-15.3-11.2-19.5ZM517.2,188.4c-2.5-4.8-6.2-8.6-10.9-11.6-4.8-3-10.5-5.1-17.2-6.3-6.6-1.1-14.4-1.8-23.2-1.8h-41.3c-4.3,0-8.4,3.4-9.4,7.5l-27.8,120.7c-1,4.1,1.8,7.5,5.9,7.5h19.8c4.2,0,8.5-3.4,9.5-7.5l6.7-29.3c.9-4.1,5.2-7.5,9.5-7.5h5.6c24.2,0,42.9-5,56.4-14.8,13.4-9.9,20.1-22.9,20.1-39.1,0-7.1-1.2-13-3.8-17.7ZM474.6,227.9c-5.9,4.3-14.2,6.4-24.9,6.4h-4.9c-4.3,0-7-3.4-6-7.5l5.9-25.6c.9-4.1,5.2-7.5,9.4-7.5h6.5c7.6,0,13.3,1.3,17.2,3.8,3.8,2.5,5.7,6.5,5.7,11.8,0,8-3,14.2-8.9,18.6Z"/>
  <path class="st0" d="M377.1,196.2c-3.8,0-8.7,3.1-11,6.7,0,0-25.1,43.3-27.6,47.6-1.3,2.3-2.7.8-2.9,0-.2-1.1-7.8-47.3-7.8-47.3-.9-3.7-4.7-6.9-9.6-6.9h-15.7c-3.8,0-6.1,3.1-5.3,6.7,0,0,12,68.2,14.3,84.2,1.2,8.9-.1,10.4-.1,10.4l-15.5,27.2c-2.3,3.7-1,6.7,2.7,6.7h18.2c3.8,0,8.7-3,11-6.7l69.9-118.6s6.7-10.1.5-10c-4.2,0-21.1,0-21.1,0ZM245.9,276.4c-2.4,1.5-5,2.8-7.7,4-3.6,1.5-7.1,2.2-10.3,2.2-4.9,0-8.7-.7-11.2-2.2-2.5-1.4-3.9-3.8-3.8-7.3,0-4,.9-7.2,2.9-9.6,1.9-2.4,4.8-4.3,8.4-5.7,3.6-1.2,8-2.2,13-2.9,4.5-.6,13.4-1.6,14.5-1.6,1.1,0,1.9-.6,1.4,2.4-.2,1.3-2.8,11.8-4,16.6-.4,1.4-2.3,3.5-3.1,4.1,0,0,.9-.6,0,0ZM280.8,202.5c-7.5-4.2-19.2-6.3-35.2-6.3s-15.9.6-23.9,1.9c-5.9.9-6.5,1-10.1,1.8-7.5,1.6-8.7,9.1-8.7,9.1l-2.4,9.9c-1.4,6.3,2.2,6.1,3.9,5.6,3.3-1,5.1-2,11.7-3.5,6.4-1.4,13.1-2.5,18.5-2.5,7.9,0,13.9.9,17.9,2.5,4,1.7,6,4.7,6,8.9,0,1,0,2-.3,2.8-.3.8-1,1.5-2.9,1.8-11.3.7-19.3,1.7-29.1,3.1-9.6,1.3-18,3.7-25.1,6.9-7.5,3.3-13.1,7.8-17,13.4-3.8,5.6-5.7,12.5-5.7,20.5,0,7.6,2.7,13.8,8,18.6,5.4,4.8,12.4,7.1,20.8,7.1,5.3,0,9.4-.4,12.4-1.2,2.9-.7,6.1-1.8,9.5-3.2,2.5-1.1,5.3-2.6,8.1-4.5,2.9-1.9,4.9-3.3,7.4-4.9v.2c0,0-.6,3.2-.6,3.2,0,0,0,0,0,0h0c-.8,3.9,1.5,7,5.3,7.4h0c0,0,.3,0,.3,0h0c2.5,0,11.2,0,15.2,0h2.8c.2,0,.2,0,.3-.1,3.9-.5,7.6-3.6,8.5-7.4l14.4-62c.3-1.5.6-3.1.7-5.1.2-2,.4-3.6.3-4.7,0-8.8-3.8-15.3-11.2-19.4ZM190.7,188.4c-2.5-4.8-6.2-8.6-10.9-11.6-4.8-3-10.5-5.1-17.2-6.3-6.5-1.1-14.3-1.8-23.2-1.8h-41.3c-4.2,0-8.4,3.4-9.4,7.5l-27.8,120.5c-1,4.1,1.7,7.5,5.9,7.5h19.8c4.2,0,8.5-3.4,9.5-7.5l6.7-29.2c.9-4.1,5.2-7.5,9.5-7.5h5.6c24.2,0,42.9-4.9,56.3-14.8,13.4-9.9,20.1-22.9,20.1-39.1,0-7.1-1.2-13-3.8-17.7ZM148.1,227.8c-5.9,4.3-14.2,6.4-24.9,6.4h-4.9c-4.2,0-7-3.4-6-7.5l5.9-25.6c.9-4,5.2-7.5,9.4-7.5h6.5c7.6,0,13.2,1.3,17.1,3.8,3.8,2.5,5.7,6.5,5.7,11.7,0,8-3,14.2-8.9,18.6Z"/>
</svg>