<?xml version="1.0" encoding="UTF-8"?>
<svg id="Layer_1" xmlns="http://www.w3.org/2000/svg" version="1.1" viewBox="0 0 726.8 471">
  <!-- Generator: Adobe Illustrator 29.5.0, SVG Export Plug-In . SVG Version: 2.1.0 Build 137)  -->
  <defs>
    <style>
      .st0 {
        fill: #fff;
      }
    </style>
  </defs>
  <path class="st0" d="M182.6,184.4c3.8,6.1,5.4,12.1,5.4,20,0,24.9-21.3,57.2-38.6,80.1h-39.3l-15.9-94.7,34.5-3.4,8.3,67.3c7.9-12.6,17.5-32.5,17.5-46.2s-1.3-12.6-3.4-16.8l31.4-6.3ZM227.4,225.9c6.3,0,22.4-2.9,22.4-11.9s-3.1-6.7-6.7-6.7c-6.5,0-14.8,7.9-15.7,18.6ZM226.8,243.8c0,11.2,6.1,15.7,14.4,15.7s17.3-2.2,28.5-7.9l-4.3,28.3c-7.9,3.8-20,6.3-31.9,6.3-29.8,0-40.6-17.9-40.6-40.8s17.5-60.6,53.4-60.6,31,11,31,26.5c0,24.7-32.1,32.5-50.5,32.8v-.2ZM376.8,206.3c0,3.8-.7,9-1.1,12.6l-10.3,65.5h-33.7l9.4-60.1.7-6.7c0-4.5-2.7-5.4-5.8-5.4-4.5,0-9,2-11.7,3.4l-10.8,68.9h-33.7l15.3-98h29.2l.4,7.9c7-4.5,16.2-9.6,28.9-9.6s23.1,9,23.1,22v-.2ZM476.7,195.3c9.6-6.7,18.6-10.8,31.4-10.8s23.1,9,23.1,22c0,4.1-.5,8.3-1.1,12.3l-10.3,65.5h-33.7l9.6-61.2.4-4.9c0-4.9-2.7-6.1-6.1-6.1s-8.3,1.8-11.2,3.4l-10.8,68.9h-33.7l9.6-61.5.4-4.7c0-4.9-2.7-6.1-6.1-6.1s-8.7,2-11.7,3.4l-10.5,68.7h-33.9l15.5-97.8h28.7l1.1,8.1c6.7-4.9,15.7-9.9,27.8-9.9s17.5,4.5,21.1,10.8ZM598,223.8c0-7.9-2-13.5-7.9-13.5-13.5,0-16.2,23.6-16.2,35.4s2.5,14.8,8.5,14.8c12.6,0,15.5-24.7,15.5-36.8ZM539.7,244.5c0-31,16.6-59.9,54.1-59.9s38.8,16.8,38.8,39.9-16.2,62.1-54.7,62.1-38.1-18.6-38.1-42.2Z"/>
</svg>