<?xml version="1.0" encoding="UTF-8"?>
<svg id="Layer_1" xmlns="http://www.w3.org/2000/svg" version="1.1" viewBox="0 0 597.2 498.7">
  <!-- Generator: Adobe Illustrator 29.5.0, SVG Export Plug-In . SVG Version: 2.1.0 Build 137)  -->
  <defs>
    <style>
      .st0 {
        fill: #020617;
      }
    </style>
  </defs>
  <g>
    <path class="st0" d="M98.2,451.3s87.9-91.1,81.1-146.5C172.5,243.2,31.4,77.9,31.4,77.9c97.7,101.6,156.3,138.9,156.3,138.9,86.1,61.4,233.3-64.7,380-188.7,0,0-171.8,160-239.4,272.7-29.1,47.7,16.8,120.1,55.3,168.5,0,0-81.4-93.4-149.4-87.7-61.3,4.7-136,69.7-136,69.7h0Z"/>
    <path class="st0" d="M366.4,146.1c85.3,62.6,91.5,188.3,14.8,260.4-57.9,54.8-148.5,61.1-213.6,14.9-99.9-70.6-95.1-220,9-284.2,58.3-35.9,135-32,189.8,8.8h0ZM354.8,162.1c-76.1-54-183.3-24-222.3,60.2-29.8,63.7-10,141.4,46.6,183.1,87,64.4,211.2,18.8,236-86.5,13.8-58.9-10.8-122.2-60.4-156.8h0Z"/>
  </g>
  <line x1="31.4" y1="77.9" x2="383.6" y2="469.4"/>
</svg>