<?xml version="1.0" encoding="UTF-8"?>
<svg xmlns="http://www.w3.org/2000/svg" version="1.1" viewBox="0 0 1200 1200">
  <defs>
    <style>
      .cls-1 {
        fill: #fff;
      }
    </style>
  </defs>
  <!-- Generator: Adobe Illustrator 28.7.5, SVG Export Plug-In . SVG Version: 1.2.0 Build 176)  -->
  <g>
    <g id="Layer_1">
      <path class="cls-1" d="M660,132V60H60v72c0,26.5,21.5,48,48,48h504c26.5,0,48-21.5,48-48Z"/>
      <path class="cls-1" d="M475.9,365.2c-6.6-3.8-13.2-7.2-19.9-10.3v197.2c0,46.3-37.7,84-84,84h-24c-46.3,0-84-37.7-84-84v-200.6c-47.1,19.5-88.3,54.2-115.8,101.8-66.2,114.8-26.9,261.6,87.9,327.8l280.7,161.9,239.8-415.8-280.7-161.9h0Z"/>
      <path class="cls-1" d="M542.1,971.1l251.8-436.6c13.3-23,46.9-28.4,65.6-17.6l72.8,42c23,13.3,30.8,42.6,17.6,65.6l-251.8,436.6c-13.3,23-46.9,28.4-65.6,17.6l-72.8-42c-23-13.3-30.8-42.6-17.6-65.6h0Z"/>
      <path class="cls-1" d="M348,600h24c26.5,0,48-21.5,48-48V216h-120v336c0,26.5,21.5,48,48,48Z"/>
      <path class="cls-1" d="M861.5,1009.3c-5.9-11.9-20.4-16.7-32.2-10.7-11.9,5.9-16.7,20.4-10.7,32.2l60,120c4.2,8.4,12.7,13.3,21.5,13.3s7.3-.8,10.7-2.5c11.9-5.9,16.7-20.4,10.7-32.2l-60-120h0Z"/>
      <path class="cls-1" d="M1090.7,938.5l-120-60c-11.9-5.9-26.3-1.1-32.2,10.7-5.9,11.9-1.1,26.3,10.7,32.2l120,60c3.5,1.7,7.1,2.5,10.7,2.5,8.8,0,17.3-4.9,21.5-13.3,5.9-11.9,1.1-26.3-10.7-32.2h0Z"/>
      <path class="cls-1" d="M1140,696h-120c-13.2,0-24,10.8-24,24s10.8,24,24,24h120c13.2,0,24-10.8,24-24s-10.8-24-24-24Z"/>
    </g>
  </g>
</svg>