<svg id="ekD7Y1Jnip51" xmlns="http://www.w3.org/2000/svg" xmlns:xlink="http://www.w3.org/1999/xlink" viewBox="0 0 4200 720" shape-rendering="geometricPrecision" text-rendering="geometricPrecision" project-id="ef56ccc55da44831a965b5a969dd6c14" export-id="fc97c5c5903040dc8a5cbaa956df25c9" cached="false">
<style><![CDATA[
#ekD7Y1Jnip52_to {animation: ekD7Y1Jnip52_to__to 10000ms linear infinite normal forwards}@keyframes ekD7Y1Jnip52_to__to { 0% {transform: translate(2002.843476px,477.892196px)} 30% {transform: translate(2002.843476px,477.892196px)} 31% {transform: translate(2242.843476px,477.892196px)} 65% {transform: translate(2242.843476px,477.892196px)} 66% {transform: translate(2322.843476px,477.892196px)} 100% {transform: translate(2322.843476px,477.892196px)}} #ekD7Y1Jnip53_to {animation: ekD7Y1Jnip53_to__to 10000ms linear infinite normal forwards}@keyframes ekD7Y1Jnip53_to__to { 0% {transform: translate(296.999989px,359.999989px);animation-timing-function: cubic-bezier(0.165,0.84,0.44,1)} 27% {transform: translate(296.999989px,359.999989px);animation-timing-function: cubic-bezier(0.165,0.84,0.44,1)} 32% {transform: translate(296.999989px,299.999989px)} 100% {transform: translate(296.999989px,299.999989px)}} #ekD7Y1Jnip53 {animation: ekD7Y1Jnip53_c_o 10000ms linear infinite normal forwards}@keyframes ekD7Y1Jnip53_c_o { 0% {opacity: 1;animation-timing-function: cubic-bezier(0.165,0.84,0.44,1)} 27% {opacity: 1;animation-timing-function: cubic-bezier(0.165,0.84,0.44,1)} 32% {opacity: 0} 100% {opacity: 0}} #ekD7Y1Jnip54_tr {animation: ekD7Y1Jnip54_tr__tr 10000ms linear infinite normal forwards}@keyframes ekD7Y1Jnip54_tr__tr { 0% {transform: translate(296.999989px,300.966847px) rotate(-120deg);animation-timing-function: cubic-bezier(0.165,0.84,0.44,1)} 5% {transform: translate(296.999989px,300.966847px) rotate(0deg)} 100% {transform: translate(296.999989px,300.966847px) rotate(0deg)}} #ekD7Y1Jnip54 {animation: ekD7Y1Jnip54_s_do 10000ms linear infinite normal forwards}@keyframes ekD7Y1Jnip54_s_do { 0% {stroke-dashoffset: 1692.25;animation-timing-function: cubic-bezier(0.165,0.84,0.44,1)} 5% {stroke-dashoffset: 0} 100% {stroke-dashoffset: 0}} #ekD7Y1Jnip55_tr {animation: ekD7Y1Jnip55_tr__tr 10000ms linear infinite normal forwards}@keyframes ekD7Y1Jnip55_tr__tr { 0% {transform: translate(304.450005px,287.549995px) rotate(-45deg)} 1% {transform: translate(304.450005px,287.549995px) rotate(-45deg);animation-timing-function: cubic-bezier(0.165,0.84,0.44,1)} 10% {transform: translate(304.450005px,287.549995px) rotate(0deg)} 100% {transform: translate(304.450005px,287.549995px) rotate(0deg)}} #ekD7Y1Jnip56 {animation-name: ekD7Y1Jnip56_s_do, ekD7Y1Jnip56_s_da;animation-duration: 10000ms;animation-fill-mode: forwards;animation-timing-function: linear;animation-direction: normal;animation-iteration-count: infinite;}@keyframes ekD7Y1Jnip56_s_do { 0% {stroke-dashoffset: 166.75} 5% {stroke-dashoffset: 166.75;animation-timing-function: cubic-bezier(0.165,0.84,0.44,1)} 10% {stroke-dashoffset: 0} 100% {stroke-dashoffset: 0}}@keyframes ekD7Y1Jnip56_s_da { 0% {stroke-dasharray: 166.75} 5% {stroke-dasharray: 166.75;animation-timing-function: cubic-bezier(0.165,0.84,0.44,1)} 10% {stroke-dasharray: 166.75} 100% {stroke-dasharray: 166.75}} #ekD7Y1Jnip57 {animation-name: ekD7Y1Jnip57_s_do, ekD7Y1Jnip57_s_da;animation-duration: 10000ms;animation-fill-mode: forwards;animation-timing-function: linear;animation-direction: normal;animation-iteration-count: infinite;}@keyframes ekD7Y1Jnip57_s_do { 0% {stroke-dashoffset: 473.65} 2% {stroke-dashoffset: 473.65;animation-timing-function: cubic-bezier(0.165,0.84,0.44,1)} 7% {stroke-dashoffset: 0} 100% {stroke-dashoffset: 0}}@keyframes ekD7Y1Jnip57_s_da { 0% {stroke-dasharray: 473.65} 2% {stroke-dasharray: 473.65;animation-timing-function: cubic-bezier(0.165,0.84,0.44,1)} 7% {stroke-dasharray: 473.65} 100% {stroke-dasharray: 473.65}} #ekD7Y1Jnip58_tr {animation: ekD7Y1Jnip58_tr__tr 10000ms linear infinite normal forwards}@keyframes ekD7Y1Jnip58_tr__tr { 0% {transform: translate(296.100014px,300.399994px) rotate(-20deg)} 7% {transform: translate(296.100014px,300.399994px) rotate(0deg)} 100% {transform: translate(296.100014px,300.399994px) rotate(0deg)}} #ekD7Y1Jnip58_ts {animation: ekD7Y1Jnip58_ts__ts 10000ms linear infinite normal forwards}@keyframes ekD7Y1Jnip58_ts__ts { 0% {transform: scale(0.75,0.75)} 2% {transform: scale(0.75,0.75);animation-timing-function: cubic-bezier(0.42,0,0.58,1)} 5% {transform: scale(1.1,1.1);animation-timing-function: cubic-bezier(0.42,0,0.58,1)} 7% {transform: scale(1,1)} 100% {transform: scale(1,1)}} #ekD7Y1Jnip58 {animation: ekD7Y1Jnip58_c_o 10000ms linear infinite normal forwards}@keyframes ekD7Y1Jnip58_c_o { 0% {opacity: 0} 2% {opacity: 0;animation-timing-function: cubic-bezier(0.165,0.84,0.44,1)} 7% {opacity: 1} 100% {opacity: 1}} #ekD7Y1Jnip512_to {animation: ekD7Y1Jnip512_to__to 10000ms linear infinite normal forwards}@keyframes ekD7Y1Jnip512_to__to { 0% {transform: translate(82.23563px,300.022209px)} 65% {transform: translate(82.23563px,300.022209px);animation-timing-function: cubic-bezier(0.77,0,0.175,1)} 70% {transform: translate(282.23563px,300.022209px);animation-timing-function: cubic-bezier(0.77,0,0.175,1)} 75% {transform: translate(482.23563px,300.022209px)} 100% {transform: translate(482.23563px,300.022209px)}} #ekD7Y1Jnip513_to {animation: ekD7Y1Jnip513_to__to 10000ms linear infinite normal forwards}@keyframes ekD7Y1Jnip513_to__to { 0% {transform: translate(82.23563px,300.022209px)} 60% {transform: translate(82.23563px,300.022209px);animation-timing-function: cubic-bezier(0.77,0,0.175,1)} 65% {transform: translate(282.23563px,300.022209px);animation-timing-function: cubic-bezier(0.77,0,0.175,1)} 70% {transform: translate(482.23563px,300.022209px)} 100% {transform: translate(482.23563px,300.022209px)}} #ekD7Y1Jnip514_to {animation: ekD7Y1Jnip514_to__to 10000ms linear infinite normal forwards}@keyframes ekD7Y1Jnip514_to__to { 0% {transform: translate(82.23563px,300.022209px)} 80% {transform: translate(82.23563px,300.022209px);animation-timing-function: cubic-bezier(0.77,0,0.175,1)} 85% {transform: translate(282.23563px,300.022209px);animation-timing-function: cubic-bezier(0.77,0,0.175,1)} 90% {transform: translate(482.23563px,300.022209px)} 100% {transform: translate(482.23563px,300.022209px)}} #ekD7Y1Jnip515_to {animation: ekD7Y1Jnip515_to__to 10000ms linear infinite normal forwards}@keyframes ekD7Y1Jnip515_to__to { 0% {transform: translate(82.23563px,300.022209px)} 85% {transform: translate(82.23563px,300.022209px);animation-timing-function: cubic-bezier(0.77,0,0.175,1)} 90% {transform: translate(282.23563px,300.022209px);animation-timing-function: cubic-bezier(0.77,0,0.175,1)} 95% {transform: translate(482.23563px,300.022209px)} 100% {transform: translate(482.23563px,300.022209px)}} #ekD7Y1Jnip516_to {animation: ekD7Y1Jnip516_to__to 10000ms linear infinite normal forwards}@keyframes ekD7Y1Jnip516_to__to { 0% {transform: translate(82.23563px,300.022209px)} 90% {transform: translate(82.23563px,300.022209px);animation-timing-function: cubic-bezier(0.77,0,0.175,1)} 95% {transform: translate(282.23563px,300.022209px);animation-timing-function: cubic-bezier(0.77,0,0.175,1)} 100% {transform: translate(482.23563px,300.022209px)}} #ekD7Y1Jnip517_to {animation: ekD7Y1Jnip517_to__to 10000ms linear infinite normal forwards}@keyframes ekD7Y1Jnip517_to__to { 0% {transform: translate(82.23563px,300.022209px)} 95% {transform: translate(82.23563px,300.022209px);animation-timing-function: cubic-bezier(0.77,0,0.175,1)} 100% {transform: translate(282.23563px,300.022209px)}} #ekD7Y1Jnip518_to {animation: ekD7Y1Jnip518_to__to 10000ms linear infinite normal forwards}@keyframes ekD7Y1Jnip518_to__to { 0% {transform: translate(82.23563px,300.022209px)} 75% {transform: translate(82.23563px,300.022209px);animation-timing-function: cubic-bezier(0.77,0,0.175,1)} 80% {transform: translate(282.23563px,300.022209px);animation-timing-function: cubic-bezier(0.77,0,0.175,1)} 85% {transform: translate(482.23563px,300.022209px)} 100% {transform: translate(482.23563px,300.022209px)}} #ekD7Y1Jnip519_to {animation: ekD7Y1Jnip519_to__to 10000ms linear infinite normal forwards}@keyframes ekD7Y1Jnip519_to__to { 0% {transform: translate(82.23563px,300.022209px)} 70% {transform: translate(82.23563px,300.022209px);animation-timing-function: cubic-bezier(0.77,0,0.175,1)} 75% {transform: translate(282.23563px,300.022209px);animation-timing-function: cubic-bezier(0.77,0,0.175,1)} 80% {transform: translate(482.23563px,300.022209px)} 100% {transform: translate(482.23563px,300.022209px)}} #ekD7Y1Jnip525_to {animation: ekD7Y1Jnip525_to__to 10000ms linear infinite normal forwards}@keyframes ekD7Y1Jnip525_to__to { 0% {transform: translate(182.668333px,512.8px)} 30% {transform: translate(182.668333px,512.8px);animation-timing-function: cubic-bezier(0.77,0,0.175,1)} 35% {transform: translate(332.668333px,362.8px);animation-timing-function: cubic-bezier(0.77,0,0.175,1)} 53% {transform: translate(302.668333px,392.8px);animation-timing-function: cubic-bezier(0.77,0,0.175,1)} 60% {transform: translate(492.668333px,202.8px)} 100% {transform: translate(492.668333px,202.8px)}} #ekD7Y1Jnip525 {animation: ekD7Y1Jnip525_c_o 10000ms linear infinite normal forwards}@keyframes ekD7Y1Jnip525_c_o { 0% {opacity: 0} 30% {opacity: 0;animation-timing-function: cubic-bezier(0.77,0,0.175,1)} 35% {opacity: 1;animation-timing-function: cubic-bezier(0.77,0,0.175,1)} 55% {opacity: 1;animation-timing-function: cubic-bezier(0.77,0,0.175,1)} 60% {opacity: 0} 100% {opacity: 0}} #ekD7Y1Jnip533 {animation: ekD7Y1Jnip533_s_do 10000ms linear infinite normal forwards}@keyframes ekD7Y1Jnip533_s_do { 0% {stroke-dashoffset: 118.74} 30% {stroke-dashoffset: 118.74;animation-timing-function: cubic-bezier(0.77,0,0.175,1)} 35% {stroke-dashoffset: 0;animation-timing-function: cubic-bezier(0.77,0,0.175,1)} 53% {stroke-dashoffset: 100} 57% {stroke-dashoffset: 0} 100% {stroke-dashoffset: 0}} #ekD7Y1Jnip534 {animation: ekD7Y1Jnip534_s_do 10000ms linear infinite normal forwards}@keyframes ekD7Y1Jnip534_s_do { 0% {stroke-dashoffset: 173.73} 30% {stroke-dashoffset: 173.73;animation-timing-function: cubic-bezier(0.77,0,0.175,1)} 35% {stroke-dashoffset: 0;animation-timing-function: cubic-bezier(0.77,0,0.175,1)} 53% {stroke-dashoffset: 120} 57% {stroke-dashoffset: 0} 100% {stroke-dashoffset: 0}} #ekD7Y1Jnip535 {animation: ekD7Y1Jnip535_s_do 10000ms linear infinite normal forwards}@keyframes ekD7Y1Jnip535_s_do { 0% {stroke-dashoffset: 170.76} 30% {stroke-dashoffset: 170.76;animation-timing-function: cubic-bezier(0.77,0,0.175,1)} 35% {stroke-dashoffset: 0;animation-timing-function: cubic-bezier(0.77,0,0.175,1)} 53% {stroke-dashoffset: 120} 57% {stroke-dashoffset: 0} 100% {stroke-dashoffset: 0}} #ekD7Y1Jnip581_to {animation: ekD7Y1Jnip581_to__to 10000ms linear infinite normal forwards}@keyframes ekD7Y1Jnip581_to__to { 0% {transform: translate(67.450005px,13.21256px)} 69% {transform: translate(67.450005px,13.21256px);animation-timing-function: cubic-bezier(0.77,0,0.175,1)} 74% {transform: translate(67.450005px,5.270396px);animation-timing-function: cubic-bezier(0.77,0,0.175,1)} 94% {transform: translate(67.450005px,5.270396px);animation-timing-function: cubic-bezier(0.77,0,0.175,1)} 99% {transform: translate(67.450005px,-2.671768px)} 100% {transform: translate(67.450005px,-2.671768px)}} #ekD7Y1Jnip581 {animation: ekD7Y1Jnip581_c_o 10000ms linear infinite normal forwards}@keyframes ekD7Y1Jnip581_c_o { 0% {opacity: 0} 69% {opacity: 0;animation-timing-function: cubic-bezier(0.77,0,0.175,1)} 74% {opacity: 1;animation-timing-function: cubic-bezier(0.77,0,0.175,1)} 94% {opacity: 1;animation-timing-function: cubic-bezier(0.77,0,0.175,1)} 99% {opacity: 0} 100% {opacity: 0}} #ekD7Y1Jnip597_to {animation: ekD7Y1Jnip597_to__to 10000ms linear infinite normal forwards}@keyframes ekD7Y1Jnip597_to__to { 0% {transform: translate(68.850006px,12.757279px)} 36% {transform: translate(68.850006px,12.757279px);animation-timing-function: cubic-bezier(0.77,0,0.175,1)} 41% {transform: translate(68.850006px,5.65895px);animation-timing-function: cubic-bezier(0.77,0,0.175,1)} 61% {transform: translate(68.850006px,5.65895px);animation-timing-function: cubic-bezier(0.77,0,0.175,1)} 66% {transform: translate(68.850006px,-3.027799px)} 100% {transform: translate(68.850006px,-3.027799px)}} #ekD7Y1Jnip597 {animation: ekD7Y1Jnip597_c_o 10000ms linear infinite normal forwards}@keyframes ekD7Y1Jnip597_c_o { 0% {opacity: 0} 36% {opacity: 0;animation-timing-function: cubic-bezier(0.77,0,0.175,1)} 41% {opacity: 1;animation-timing-function: cubic-bezier(0.77,0,0.175,1)} 61% {opacity: 1;animation-timing-function: cubic-bezier(0.77,0,0.175,1)} 66% {opacity: 0} 100% {opacity: 0}} #ekD7Y1Jnip5112_to {animation: ekD7Y1Jnip5112_to__to 10000ms linear infinite normal forwards}@keyframes ekD7Y1Jnip5112_to__to { 0% {transform: translate(83.900002px,13.742164px)} 3% {transform: translate(83.900002px,13.742164px);animation-timing-function: cubic-bezier(0.77,0,0.175,1)} 8% {transform: translate(83.900002px,5.8px);animation-timing-function: cubic-bezier(0.77,0,0.175,1)} 26% {transform: translate(83.900002px,5.8px);animation-timing-function: cubic-bezier(0.77,0,0.175,1)} 31% {transform: translate(83.900002px,-2.142164px)} 100% {transform: translate(83.900002px,-2.142164px)}} #ekD7Y1Jnip5112 {animation: ekD7Y1Jnip5112_c_o 10000ms linear infinite normal forwards}@keyframes ekD7Y1Jnip5112_c_o { 0% {opacity: 0} 3% {opacity: 0;animation-timing-function: cubic-bezier(0.77,0,0.175,1)} 8% {opacity: 1;animation-timing-function: cubic-bezier(0.77,0,0.175,1)} 26% {opacity: 1;animation-timing-function: cubic-bezier(0.77,0,0.175,1)} 31% {opacity: 0} 100% {opacity: 0}} #ekD7Y1Jnip5130_to {animation: ekD7Y1Jnip5130_to__to 10000ms linear infinite normal forwards}@keyframes ekD7Y1Jnip5130_to__to { 0% {transform: translate(339.571753px,360px)} 68% {transform: translate(339.571753px,360px);animation-timing-function: cubic-bezier(0.77,0,0.175,1)} 89% {transform: translate(339.571753px,360px);animation-timing-function: cubic-bezier(0.77,0,0.175,1)} 95% {transform: translate(339.571753px,200px)} 100% {transform: translate(339.571753px,200px)}} #ekD7Y1Jnip5130 {animation: ekD7Y1Jnip5130_c_o 10000ms linear infinite normal forwards}@keyframes ekD7Y1Jnip5130_c_o { 0% {opacity: 1} 89% {opacity: 1;animation-timing-function: cubic-bezier(0.77,0,0.175,1)} 95% {opacity: 0} 100% {opacity: 0}} #ekD7Y1Jnip5131 {animation: ekD7Y1Jnip5131_c_o 10000ms linear infinite normal forwards}@keyframes ekD7Y1Jnip5131_c_o { 0% {opacity: 0} 68% {opacity: 0;animation-timing-function: cubic-bezier(0.165,0.84,0.44,1)} 73% {opacity: 1} 100% {opacity: 1}} #ekD7Y1Jnip5132 {animation: ekD7Y1Jnip5132_s_do 10000ms linear infinite normal forwards}@keyframes ekD7Y1Jnip5132_s_do { 0% {stroke-dashoffset: 32.31} 68% {stroke-dashoffset: 32.31;animation-timing-function: cubic-bezier(0.77,0,0.175,1)} 80% {stroke-dashoffset: 0;animation-timing-function: cubic-bezier(0.77,0,0.175,1)} 89% {stroke-dashoffset: 0;animation-timing-function: cubic-bezier(0.77,0,0.175,1)} 95% {stroke-dashoffset: 12.333558} 100% {stroke-dashoffset: 12.333558}} #ekD7Y1Jnip5133 {animation: ekD7Y1Jnip5133_s_do 10000ms linear infinite normal forwards}@keyframes ekD7Y1Jnip5133_s_do { 0% {stroke-dashoffset: 37.31} 68% {stroke-dashoffset: 37.31;animation-timing-function: cubic-bezier(0.77,0,0.175,1)} 80% {stroke-dashoffset: 0;animation-timing-function: cubic-bezier(0.77,0,0.175,1)} 89% {stroke-dashoffset: 0;animation-timing-function: cubic-bezier(0.77,0,0.175,1)} 95% {stroke-dashoffset: 14.242187} 100% {stroke-dashoffset: 14.242187}} #ekD7Y1Jnip5134 {animation: ekD7Y1Jnip5134_s_do 10000ms linear infinite normal forwards}@keyframes ekD7Y1Jnip5134_s_do { 0% {stroke-dashoffset: 47.31} 68% {stroke-dashoffset: 47.31;animation-timing-function: cubic-bezier(0.77,0,0.175,1)} 80% {stroke-dashoffset: 0;animation-timing-function: cubic-bezier(0.77,0,0.175,1)} 89% {stroke-dashoffset: 0;animation-timing-function: cubic-bezier(0.77,0,0.175,1)} 95% {stroke-dashoffset: 18.059444} 100% {stroke-dashoffset: 18.059444}} #ekD7Y1Jnip5135 {animation: ekD7Y1Jnip5135_s_do 10000ms linear infinite normal forwards}@keyframes ekD7Y1Jnip5135_s_do { 0% {stroke-dashoffset: 63.31} 68% {stroke-dashoffset: 63.31;animation-timing-function: cubic-bezier(0.77,0,0.175,1)} 80% {stroke-dashoffset: 0;animation-timing-function: cubic-bezier(0.77,0,0.175,1)} 89% {stroke-dashoffset: 0;animation-timing-function: cubic-bezier(0.77,0,0.175,1)} 95% {stroke-dashoffset: 24.167056} 100% {stroke-dashoffset: 24.167056}} #ekD7Y1Jnip5136 {animation: ekD7Y1Jnip5136_s_do 10000ms linear infinite normal forwards}@keyframes ekD7Y1Jnip5136_s_do { 0% {stroke-dashoffset: 88.31} 68% {stroke-dashoffset: 88.31;animation-timing-function: cubic-bezier(0.77,0,0.175,1)} 80% {stroke-dashoffset: 0;animation-timing-function: cubic-bezier(0.77,0,0.175,1)} 89% {stroke-dashoffset: 0;animation-timing-function: cubic-bezier(0.77,0,0.175,1)} 95% {stroke-dashoffset: 33.710199} 100% {stroke-dashoffset: 33.710199}} #ekD7Y1Jnip5137 {animation: ekD7Y1Jnip5137_s_do 10000ms linear infinite normal forwards}@keyframes ekD7Y1Jnip5137_s_do { 0% {stroke-dashoffset: 128.31} 68% {stroke-dashoffset: 128.31;animation-timing-function: cubic-bezier(0.77,0,0.175,1)} 80% {stroke-dashoffset: 0;animation-timing-function: cubic-bezier(0.77,0,0.175,1)} 89% {stroke-dashoffset: 0;animation-timing-function: cubic-bezier(0.77,0,0.175,1)} 95% {stroke-dashoffset: 48.979228} 100% {stroke-dashoffset: 48.979228}} #ekD7Y1Jnip5138 {animation: ekD7Y1Jnip5138_s_do 10000ms linear infinite normal forwards}@keyframes ekD7Y1Jnip5138_s_do { 0% {stroke-dashoffset: 186.3} 68% {stroke-dashoffset: 186.3;animation-timing-function: cubic-bezier(0.77,0,0.175,1)} 80% {stroke-dashoffset: 0;animation-timing-function: cubic-bezier(0.77,0,0.175,1)} 89% {stroke-dashoffset: 0;animation-timing-function: cubic-bezier(0.77,0,0.175,1)} 95% {stroke-dashoffset: 71.115503} 100% {stroke-dashoffset: 71.115503}} #ekD7Y1Jnip5139 {animation: ekD7Y1Jnip5139_s_do 10000ms linear infinite normal forwards}@keyframes ekD7Y1Jnip5139_s_do { 0% {stroke-dashoffset: 287.3} 68% {stroke-dashoffset: 287.3;animation-timing-function: cubic-bezier(0.77,0,0.175,1)} 80% {stroke-dashoffset: 0;animation-timing-function: cubic-bezier(0.77,0,0.175,1)} 89% {stroke-dashoffset: 0;animation-timing-function: cubic-bezier(0.77,0,0.175,1)} 95% {stroke-dashoffset: 109.669802} 100% {stroke-dashoffset: 109.669802}} #ekD7Y1Jnip5140 {animation: ekD7Y1Jnip5140_s_do 10000ms linear infinite normal forwards}@keyframes ekD7Y1Jnip5140_s_do { 0% {stroke-dashoffset: 437.3} 68% {stroke-dashoffset: 437.3;animation-timing-function: cubic-bezier(0.77,0,0.175,1)} 80% {stroke-dashoffset: 0;animation-timing-function: cubic-bezier(0.77,0,0.175,1)} 89% {stroke-dashoffset: 0;animation-timing-function: cubic-bezier(0.77,0,0.175,1)} 95% {stroke-dashoffset: 166.928661} 100% {stroke-dashoffset: 166.928661}} #ekD7Y1Jnip5142 {animation-name: ekD7Y1Jnip5142_c_o, ekD7Y1Jnip5142_s_do;animation-duration: 10000ms;animation-fill-mode: forwards;animation-timing-function: linear;animation-direction: normal;animation-iteration-count: infinite;}@keyframes ekD7Y1Jnip5142_c_o { 0% {opacity: 0} 65% {opacity: 0} 67% {opacity: 1} 100% {opacity: 1}}@keyframes ekD7Y1Jnip5142_s_do { 0% {stroke-dashoffset: 402} 65% {stroke-dashoffset: 402;animation-timing-function: cubic-bezier(0.77,0,0.175,1)} 70% {stroke-dashoffset: 0;animation-timing-function: cubic-bezier(0.77,0,0.175,1)} 89% {stroke-dashoffset: 0;animation-timing-function: cubic-bezier(0.77,0,0.175,1)} 95% {stroke-dashoffset: 58.476154} 100% {stroke-dashoffset: 58.476154}} #ekD7Y1Jnip5143_to {animation: ekD7Y1Jnip5143_to__to 10000ms linear infinite normal forwards}@keyframes ekD7Y1Jnip5143_to__to { 0% {transform: translate(-762.069092px,493.059414px)} 65% {transform: translate(-762.069092px,493.059414px);animation-timing-function: cubic-bezier(0.77,0,0.175,1)} 70% {transform: translate(-762.069092px,113.059414px);animation-timing-function: cubic-bezier(0.77,0,0.175,1)} 89% {transform: translate(-762.069092px,113.059414px);animation-timing-function: cubic-bezier(0.77,0,0.175,1)} 95% {transform: translate(-762.069092px,172.059414px)} 100% {transform: translate(-762.069092px,172.059414px)}} #ekD7Y1Jnip5143 {animation: ekD7Y1Jnip5143_c_o 10000ms linear infinite normal forwards}@keyframes ekD7Y1Jnip5143_c_o { 0% {opacity: 0} 65% {opacity: 0} 67% {opacity: 1} 100% {opacity: 1}} #ekD7Y1Jnip5145 {animation-name: ekD7Y1Jnip5145_c_o, ekD7Y1Jnip5145_s_do;animation-duration: 10000ms;animation-fill-mode: forwards;animation-timing-function: linear;animation-direction: normal;animation-iteration-count: infinite;}@keyframes ekD7Y1Jnip5145_c_o { 0% {opacity: 0} 65% {opacity: 0} 67% {opacity: 1} 100% {opacity: 1}}@keyframes ekD7Y1Jnip5145_s_do { 0% {stroke-dashoffset: 602.1} 67% {stroke-dashoffset: 602.1;animation-timing-function: cubic-bezier(0.165,0.84,0.44,1)} 72% {stroke-dashoffset: 0} 100% {stroke-dashoffset: 0}} #ekD7Y1Jnip5146_to {animation: ekD7Y1Jnip5146_to__to 10000ms linear infinite normal forwards}@keyframes ekD7Y1Jnip5146_to__to { 0% {transform: translate(-746.069092px,530.059414px)} 67% {transform: translate(-746.069092px,530.059414px);animation-timing-function: cubic-bezier(0.165,0.84,0.44,1)} 72% {transform: translate(-146.069092px,530.059414px)} 100% {transform: translate(-146.069092px,530.059414px)}} #ekD7Y1Jnip5146 {animation: ekD7Y1Jnip5146_c_o 10000ms linear infinite normal forwards}@keyframes ekD7Y1Jnip5146_c_o { 0% {opacity: 0} 67% {opacity: 0} 69% {opacity: 1} 100% {opacity: 1}}
]]></style>
<g id="ekD7Y1Jnip52_to" transform="translate(2002.843476,477.892196)"><g transform="translate(-1962.843475,-477.892196)"><g id="ekD7Y1Jnip53_to" transform="translate(296.999989,359.999989)"><g id="ekD7Y1Jnip53" transform="translate(-296.999989,-299.999989)"><g id="ekD7Y1Jnip54_tr" transform="translate(296.999989,300.966847) rotate(-120)"><path id="ekD7Y1Jnip54" d="M297,30.7c148.7,0,269.3,120.6,269.3,269.3s-120.6,269.3-269.3,269.3-269.3-120.6-269.3-269.3s120.6-269.3,269.3-269.3" transform="translate(-296.999989,-299.999989)" fill="none" stroke="#fff" stroke-width="40" stroke-linecap="round" stroke-miterlimit="10" stroke-dashoffset="1692.25" stroke-dasharray="1692.25"/></g><g id="ekD7Y1Jnip55_tr" transform="translate(304.450005,287.549995) rotate(-45)"><g transform="translate(-295.450005,-278.549995)"><path id="ekD7Y1Jnip56" d="M487.5,333.6c-11.5,56.1-46.2,103.6-93.7,132.2" fill="none" stroke="#fff" stroke-width="20" stroke-linecap="round" stroke-linejoin="round" stroke-dashoffset="166.75" stroke-dasharray="166.75"/><path id="ekD7Y1Jnip57" d="M103.4,216.4C133.5,143,205.7,91.3,290,91.3s154.6,50.4,185.4,122.3" fill="none" stroke="#fff" stroke-width="20" stroke-linecap="round" stroke-linejoin="round" stroke-dashoffset="473.65" stroke-dasharray="473.65"/></g></g><g id="ekD7Y1Jnip58_tr" transform="translate(296.100014,300.399994) rotate(-20)"><g id="ekD7Y1Jnip58_ts" transform="scale(0.75,0.75)"><g id="ekD7Y1Jnip58" transform="translate(-296.100014,-300.399994)" opacity="0"><path d="M253.5,282.8h31.9v-36.7h-31.9c-10.8,0-14.7,5.8-14.7,15v7.5c0,9.4,4.4,14.2,14.7,14.2Zm54.7,28.6v41.1h32.5c10.6,0,14.7-5.8,14.7-15.3v-10.8c0-9.7-4.4-15-14.7-15h-32.5Zm-5-135.2c3.3,0,5,1.7,5,5v30.8h65c3.3,0,5,1.9,5,5.6v23c0,3.6-1.7,5.6-5,5.6h-65v36.7h43.6c30.3,0,43,14.7,43,43v17.2c0,25.8-10.8,43.6-43.3,43.6h-43.3v32.2c0,3.3-1.7,5-5,5h-12.8c-3.3,0-5-1.7-5-5v-32.2h-71.1c-3.3,0-5.3-1.9-5.3-5.6v-23c0-3.6,1.9-5.6,5.3-5.6h71.1v-41.1h-43c-30,0-43.3-14.4-43.3-42.5v-13.6c0-25.5,11.1-43.3,43.3-43.3h43v-30.8c0-3.3,1.7-5,5-5h12.8Zm87.4,52.9c0,9.4-7.6,17.1-17.1,17.1s-7.1-7.6-7.1-17.1-2.4-17.1,7.1-17.1s17.1,7.6,17.1,17.1ZM221.8,369.6c0,9.5,2.3,17.2-7.2,17.2s-17.2-7.7-17.2-17.2s7.7-17.2,17.2-17.2s7.2,7.7,7.2,17.2Zm86.4-189.7c0,6.3-5.1,11.4-11.4,11.4s-11.4-5.1-11.4-11.4s5.1-11.4,11.4-11.4s11.4,5.1,11.4,11.4Zm0,241c0,6.3-5.1,11.4-11.4,11.4s-11.4-5.1-11.4-11.4s5.1-11.4,11.4-11.4s11.4,5.1,11.4,11.4Z" fill="#fff"/></g></g></g></g></g><g id="ekD7Y1Jnip525_to" transform="translate(182.668333,512.8)"><g id="ekD7Y1Jnip525" transform="rotate(44.447633) translate(-296.999985,-295.000011)" opacity="0"><g><path d="M296.9,40.8c1.3,0,2.8-.2,4.1-.7c1.7-.8,1.5-.9,1.4-.7c0,0-.1,0-.1,0s-.3.2-.3.2-.6.4-.6.4C282,54.6,266.2,73.8,253.5,94.4c-26.2,42.8-37.1,93.6-35.6,143.5.4,12.3,1.4,25.3,3.1,37.6.5,3.4,1.3,9.1,1.9,12.5c7,41.8,20.3,82.1,37.3,121.1c0,0-18.5-12.5-18.5-12.5s111.1,0,111.1,0-18.4,12.1-18.4,12.1.5-1.2.5-1.2c.3-.6,1.5-3.5,1.8-4.2c45-112.6,69-269.5-35.4-356.6-2-1.7-4.1-3.3-6.2-5c.7.2,1.3-.2,1.8-1v0v.1Zm.6-20c3,.9,6.4,2.4,9.1,4.3c2.5,1.8,5.1,3.6,7.6,5.5c105.3,78.5,104.5,225.9,73.6,341.5-4.7,17.7-10,35.3-16.6,52.4c0,0-5.1,12.1-5.1,12.1s-13.3,0-13.3,0c-9.1-.2-118.9.4-125-.3c0,0-4.6-12.1-4.6-12.1-19.2-50.6-33.1-104.3-36-158.7-1-18.2-.6-36.8,1.2-54.9C195.3,138.9,229,67,288.7,24.5c2.5-1.7,5.2-3.8,8.8-3.6v0-.1Z" fill="#fff"/><path d="M391.7,217.9c0,0,57.7,13.6,62.3,56.7s-5.2,120.6-5.2,120.6l-73.2-32.5" fill="none" stroke="#fff" stroke-width="20" stroke-linecap="round" stroke-linejoin="round"/><path d="M202.3,217.9c0,0-57.7,13.6-62.3,56.7-4.6,43,5.2,120.6,5.2,120.6l73.2-32.5" fill="none" stroke="#fff" stroke-width="20" stroke-linecap="round" stroke-linejoin="round"/><ellipse rx="41.1" ry="36.6" transform="translate(298.4 158.1)" fill="none" stroke="#fff" stroke-width="20" stroke-linecap="round" stroke-linejoin="round"/><line x1="233.4" y1="364" x2="360.7" y2="364" fill="none" stroke="#fff" stroke-width="40" stroke-linecap="round" stroke-miterlimit="10"/></g><g transform="translate(-.081804 8.484888)"><line id="ekD7Y1Jnip533" x1="339.1" y1="449.7" x2="338.678384" y2="568.431563" fill="none" stroke="#fff" stroke-width="20" stroke-linecap="round" stroke-linejoin="round" stroke-dashoffset="118.74" stroke-dasharray="118.74"/><line id="ekD7Y1Jnip534" x1="299.1" y1="449.7" x2="298.577218" y2="623.424961" fill="none" stroke="#fff" stroke-width="20" stroke-linecap="round" stroke-linejoin="round" stroke-dashoffset="173.73" stroke-dasharray="173.73"/><line id="ekD7Y1Jnip535" x1="257.3" y1="448.3" x2="257.68687" y2="619.057589" transform="matrix(-1 0 0 0.804009 514.599976 92.605748)" fill="none" stroke="#fff" stroke-width="20" stroke-linecap="round" stroke-linejoin="round" stroke-dashoffset="170.76" stroke-dasharray="170.76"/></g></g></g><g transform="translate(0 60)"><g transform="matrix(1.305075 0 0 1.305077 2697.830475 111.380321)"><g transform="matrix(15.436341 0 0 15.436366-1518.599921 66.643756)"><g id="ekD7Y1Jnip581_to" transform="translate(67.450005,13.21256)"><g id="ekD7Y1Jnip581" transform="translate(-67.450005,-63.000002)" opacity="0"><path d="M5.9,57.8c.6,0,1,.2,1.4.9l4,7.2c0,.2,0,.3-.1.3h-1.5c-.2,0-.2,0-.3-.2l-.9-1.5h-5.6L2.1,66c0,.1-.1.2-.3.2h-1.6c-.2,0-.2-.1-.2-.3l3.9-7.2c.4-.7.8-.9,1.3-.9h.7ZM3.6,63.1h4.1L5.8,59.6c0,0,0,0-.1,0v0c0,0,0,0-.1,0L3.7,63.1h-.1Z" fill="#fff"/><path d="M19.3,59.6c.1,0,.2,0,.2.2v1c0,.2,0,.2-.2.2h-4.7c-1,0-1.3.3-1.3,1.3v1.1c0,1,.3,1.3,1.3,1.3h4.7c.1,0,.2,0,.2.2v1c0,.1,0,.2-.2.2h-4.8c-2.2,0-2.9-.7-2.9-2.4v-1.7c0-1.7.7-2.4,2.9-2.4h4.8Z" fill="#fff"/><path d="M28,59.6c.1,0,.2,0,.2.2v1c0,.2,0,.2-.2.2h-4.7c-1,0-1.3.3-1.3,1.3v1.1c0,1,.3,1.3,1.3,1.3h4.7c.1,0,.2,0,.2.2v1c0,.1,0,.2-.2.2h-4.8c-2.2,0-2.9-.7-2.9-2.4v-1.7c0-1.7.7-2.4,2.9-2.4h4.8Z" fill="#fff"/><path d="M35.5,59.6c1.6,0,2.1.5,2.1,2v1.1c0,.5-.2.7-.7.7h-6.1v.3c0,.8.3,1.1,1.3,1.1h5c.1,0,.2,0,.2.2v1c0,.1,0,.2-.2.2h-5.2c-2.2,0-2.9-.7-2.9-2.4v-1.7c0-1.7.7-2.4,2.9-2.4h3.5l.1-.1Zm-4.7,2.8h4.9c.1,0,.2,0,.2-.2v-.5c0-.5-.2-.7-.7-.7h-3c-1,0-1.3.3-1.3,1.1v.3h-.1Z" fill="#fff"/><path d="M40.3,57.2c.2,0,.3,0,.3.3v8.5c0,.2,0,.3-.3.3h-1.2c-.2,0-.3,0-.3-.3v-8.5c0-.2,0-.3.3-.3h1.2Z" fill="#fff"/><path d="M48.2,59.6c1.6,0,2.1.5,2.1,2v1.1c0,.5-.2.7-.7.7h-6.1v.3c0,.8.3,1.1,1.3,1.1h5c.1,0,.2,0,.2.2v1c0,.1,0,.2-.2.2h-5.2c-2.2,0-2.9-.7-2.9-2.4v-1.7c0-1.7.7-2.4,2.9-2.4h3.5l.1-.1Zm-4.6,2.8h4.9c.1,0,.2,0,.2-.2v-.5c0-.5-.2-.7-.7-.7h-3c-1,0-1.3.3-1.3,1.1v.3h-.1Z" fill="#fff"/><path d="M57.8,59.6c.1,0,.2,0,.2.2v1c0,.2,0,.2-.2.2h-3.2c-1,0-1.3.3-1.3,1.3v3.6c0,.2,0,.3-.3.3h-1.2c-.2,0-.3,0-.3-.3v-3.9c0-1.7.7-2.4,2.9-2.4h3.4Z" fill="#fff"/><path d="M64.3,59.6c2.2,0,2.9.7,2.9,2.4v3.2c0,.8-.2,1-.9,1h-5.7c-1.4,0-1.8-.5-1.8-1.7v-.6c0-1,.4-1.6,1.8-1.6h4.9v-.2c0-.8-.3-1.1-1.3-1.1h-5c-.1,0-.2,0-.2-.2v-1c0-.1,0-.2.2-.2h5.2-.1Zm1.1,4.9v-1.1h-4.4c-.5,0-.7.2-.7.6v.3c0,.4.2.6.7.6h4c.3,0,.3-.1.3-.4h.1Z" fill="#fff"/><path d="M69.2,59.6v-1.6c0-.2,0-.3.3-.3h1.2c.2,0,.3,0,.3.3v1.6h2.1c.2,0,.2,0,.2.2v1c0,.1,0,.2-.2.2h-2.1v2.8c0,.7.2,1,1,1h1.2c.2,0,.2,0,.2.2v1c0,.1,0,.2-.2.2h-1.5c-1.9,0-2.4-.7-2.4-2.4v-2.8h-1.1c-.1,0-.2,0-.2-.2v-1c0-.1,0-.2.2-.2h1.1-.1Z" fill="#fff"/><path d="M80.4,59.6c1.6,0,2.1.5,2.1,2v1.1c0,.5-.2.7-.7.7h-6.1v.3c0,.8.3,1.1,1.3,1.1h5c.1,0,.2,0,.2.2v1c0,.1,0,.2-.2.2h-5.2c-2.2,0-2.9-.7-2.9-2.4v-1.7c0-1.7.7-2.4,2.9-2.4h3.5l.1-.1Zm-4.7,2.8h4.9c.1,0,.2,0,.2-.2v-.5c0-.5-.2-.7-.7-.7h-3c-1,0-1.3.3-1.3,1.1v.3h-.1Z" fill="#fff"/><path d="M96.1,57.8c.2,0,.3,0,.3.3v1.1c0,.2,0,.3-.3.3h-6c-.5,0-.6.3-.6.7v.4c0,.4.2.7.6.7h4.5c1.4,0,2.1.7,2.1,2.1v1c0,1.2-.7,2-2.1,2h-6.6c-.2,0-.3,0-.3-.3v-1.1c0-.2,0-.3.3-.3h6.3c.5,0,.6-.3.6-.7v-.5c0-.4-.2-.7-.6-.7h-4.5c-1.4,0-2.1-.7-2.1-2.1v-.9c0-1.2.7-2,2.1-2h6.4-.1Z" fill="#fff"/><path d="M104.2,59.6c2.2,0,2.9.7,2.9,2.4v1.7c0,1.7-.7,2.4-2.9,2.4h-4.5v2.4c0,.2,0,.3-.3.3h-1.2c-.2,0-.3,0-.3-.3v-6.5c0-1.7.7-2.4,2.9-2.4h3.4Zm-4.5,5.2h4.3c1,0,1.3-.3,1.3-1.3v-1.1c0-1-.3-1.3-1.3-1.3h-3c-1,0-1.3.3-1.3,1.3v2.4Z" fill="#fff"/><path d="M113.8,59.6c2.2,0,2.9.7,2.9,2.4v3.2c0,.8-.2,1-.9,1h-5.7c-1.4,0-1.8-.5-1.8-1.7v-.6c0-1,.4-1.6,1.8-1.6h4.9v-.2c0-.8-.3-1.1-1.3-1.1h-5c-.1,0-.2,0-.2-.2v-1c0-.1,0-.2.2-.2h5.2-.1Zm1.2,4.9v-1.1h-4.4c-.5,0-.7.2-.7.6v.3c0,.4.2.6.7.6h4c.3,0,.3-.1.3-.4h.1Z" fill="#fff"/><path d="M125.4,59.6c.1,0,.2,0,.2.2v1c0,.2,0,.2-.2.2h-4.7c-1,0-1.3.3-1.3,1.3v1.1c0,1,.3,1.3,1.3,1.3h4.7c.1,0,.2,0,.2.2v1c0,.1,0,.2-.2.2h-4.8c-2.2,0-2.9-.7-2.9-2.4v-1.7c0-1.7.7-2.4,2.9-2.4h4.8Z" fill="#fff"/><path d="M132.8,59.6c1.6,0,2.1.5,2.1,2v1.1c0,.5-.2.7-.7.7h-6.1v.3c0,.8.3,1.1,1.3,1.1h5c.1,0,.2,0,.2.2v1c0,.1,0,.2-.2.2h-5.2c-2.2,0-2.9-.7-2.9-2.4v-1.7c0-1.7.7-2.4,2.9-2.4h3.5l.1-.1Zm-4.6,2.8h4.9c.1,0,.2,0,.2-.2v-.5c0-.5-.2-.7-.7-.7h-3c-1,0-1.3.3-1.3,1.1v.3h-.1Z" fill="#fff"/></g></g><g id="ekD7Y1Jnip597_to" transform="translate(68.850006,12.757279)"><g id="ekD7Y1Jnip597" transform="translate(-68.850006,-34.350004)" opacity="0"><path d="M9,29.2c.2,0,.3,0,.3.3v1.1c0,.2,0,.3-.3.3h-6.1c-.5,0-.6.3-.6.7v.4c0,.4.2.7.6.7h4.5c1.4,0,2.1.7,2.1,2.1v1c0,1.2-.7,2-2.1,2h-6.6c-.2,0-.3,0-.3-.3v-1.1c0-.2,0-.3.3-.3h6.3c.5,0,.6-.3.6-.7v-.5c0-.4-.2-.7-.6-.7h-4.5c-1.4,0-2.1-.7-2.1-2.1v-.9c0-1.2.7-2,2.1-2h6.4Z" fill="#fff"/><path d="M12.3,28.6c.2,0,.3,0,.3.3v2.1h4.5c2.2,0,2.9.7,2.9,2.4v3.9c0,.2,0,.3-.3.3h-1.2c-.2,0-.3,0-.3-.3v-3.5c0-1-.2-1.3-1.2-1.3h-4.4v4.8c0,.2,0,.3-.3.3h-1.2c-.2,0-.3,0-.3-.3v-8.5c0-.2,0-.3.3-.3h1.2v.1Z" fill="#fff"/><path d="M26.7,31c2.2,0,2.9.7,2.9,2.4v3.2c0,.8-.2,1-.9,1h-5.7c-1.4,0-1.8-.5-1.8-1.7v-.6c0-1,.4-1.6,1.8-1.6h4.9v-.2c0-.8-.3-1.1-1.3-1.1h-5c-.1,0-.2,0-.2-.2v-1c0-.1,0-.2.2-.2h5.2-.1Zm1.2,4.9v-1.1h-4.4c-.5,0-.7.2-.7.6v.3c0,.4.2.6.7.6h4c.3,0,.3-.1.3-.4h.1Z" fill="#fff"/><path d="M37.1,31c2.2,0,2.9.7,2.9,2.4v1.7c0,1.7-.7,2.4-2.9,2.4h-4.5v2.4c0,.2,0,.3-.3.3h-1.2c-.2,0-.3,0-.3-.3v-6.5c0-1.7.7-2.4,2.9-2.4h3.4Zm-4.5,5.2h4.3c1,0,1.3-.3,1.3-1.3v-1.1c0-1-.3-1.3-1.3-1.3h-3c-1,0-1.3.3-1.3,1.3v2.4Z" fill="#fff"/><path d="M47.4,31c1.6,0,2.1.5,2.1,2v1.1c0,.5-.2.7-.7.7h-6.1v.3c0,.8.3,1.1,1.3,1.1h5c.1,0,.2,0,.2.2v1c0,.1,0,.2-.2.2h-5.2c-2.2,0-2.9-.7-2.9-2.4v-1.7c0-1.7.7-2.4,2.9-2.4h3.5l.1-.1Zm-4.6,2.8h4.9c.1,0,.2,0,.2-.2v-.5c0-.5-.2-.7-.7-.7h-3c-1,0-1.3.3-1.3,1.1v.3h-.1Z" fill="#fff"/><path d="M55.6,31v-1.6c0-.2,0-.3.3-.3h1.2c.2,0,.3,0,.3.3v1.6h2.1c.2,0,.2,0,.2.2v1c0,.1,0,.2-.2.2h-2.1v2.8c0,.7.2,1,1,1h1.2c.2,0,.2,0,.2.2v1c0,.1,0,.2-.2.2h-1.5c-1.9,0-2.4-.7-2.4-2.4v-2.8h-1.1c-.1,0-.2,0-.2-.2v-1c0-.1,0-.2.2-.2h1.1-.1Z" fill="#fff"/><path d="M62.2,28.6c.2,0,.3,0,.3.3v2.1h4.5c2.2,0,2.9.7,2.9,2.4v3.9c0,.2,0,.3-.3.3h-1.2c-.2,0-.3,0-.3-.3v-3.5c0-1-.2-1.3-1.2-1.3h-4.4v4.8c0,.2,0,.3-.3.3h-1.2c-.2,0-.3,0-.3-.3v-8.5c0-.2,0-.3.3-.3h1.2v.1Z" fill="#fff"/><path d="M77.4,31c1.6,0,2.1.5,2.1,2v1.1c0,.5-.2.7-.7.7h-6.1v.3c0,.8.3,1.1,1.3,1.1h5c.1,0,.2,0,.2.2v1c0,.1,0,.2-.2.2h-5.2c-2.2,0-2.9-.7-2.9-2.4v-1.7c0-1.7.7-2.4,2.9-2.4h3.5l.1-.1Zm-4.7,2.8h4.9c.1,0,.2,0,.2-.2v-.5c0-.5-.2-.7-.7-.7h-3c-1,0-1.3.3-1.3,1.1v.3h-.1Z" fill="#fff"/><path d="M93.3,29.2c.2,0,.3,0,.3.3v1.1c0,.2,0,.3-.3.3h-5.2c-1.2,0-1.6.4-1.6,1.6v.2h6.7c.2,0,.3,0,.3.3v.9c0,.2,0,.3-.3.3h-6.7v3.1c0,.2,0,.3-.3.3h-1.3c-.2,0-.3,0-.3-.3v-5c0-2.3.9-3.2,3.4-3.2h5.3v.1Z" fill="#fff"/><path d="M96.2,31c.2,0,.3,0,.3.3v3.5c0,1,.2,1.3,1.2,1.3h3.1c1,0,1.3-.3,1.3-1.3v-3.5c0-.2,0-.3.3-.3h1.2c.2,0,.3,0,.3.3v3.9c0,1.7-.7,2.4-2.9,2.4h-3.3c-2.2,0-2.9-.7-2.9-2.4v-3.9c0-.2,0-.3.3-.3h1.2-.1Z" fill="#fff"/><path d="M106.1,31v-1.6c0-.2,0-.3.3-.3h1.2c.2,0,.3,0,.3.3v1.6h2.1c.2,0,.2,0,.2.2v1c0,.1,0,.2-.2.2h-2.1v2.8c0,.7.2,1,1,1h1.2c.2,0,.2,0,.2.2v1c0,.1,0,.2-.2.2h-1.5c-1.9,0-2.4-.7-2.4-2.4v-2.8h-1.1c-.1,0-.2,0-.2-.2v-1c0-.1,0-.2.2-.2h1.1-.1Z" fill="#fff"/><path d="M112.6,31c.2,0,.3,0,.3.3v3.5c0,1,.2,1.3,1.2,1.3h3.1c1,0,1.3-.3,1.3-1.3v-3.5c0-.2,0-.3.3-.3h1.2c.2,0,.3,0,.3.3v3.9c0,1.7-.7,2.4-2.9,2.4h-3.3c-2.2,0-2.9-.7-2.9-2.4v-3.9c0-.2,0-.3.3-.3h1.2-.1Z" fill="#fff"/><path d="M127.8,31c.1,0,.2,0,.2.2v1c0,.2,0,.2-.2.2h-3.2c-1,0-1.3.3-1.3,1.3v3.6c0,.2,0,.3-.3.3h-1.2c-.2,0-.3,0-.3-.3v-3.9c0-1.7.7-2.4,2.9-2.4h3.4Z" fill="#fff"/><path d="M135.1,31c1.6,0,2.1.5,2.1,2v1.1c0,.5-.2.7-.7.7h-6.1v.3c0,.8.3,1.1,1.3,1.1h5c.1,0,.2,0,.2.2v1c0,.1,0,.2-.2.2h-5.2c-2.2,0-2.9-.7-2.9-2.4v-1.7c0-1.7.7-2.4,2.9-2.4h3.5l.1-.1Zm-4.7,2.8h4.9c.1,0,.2,0,.2-.2v-.5c0-.5-.2-.7-.7-.7h-3c-1,0-1.3.3-1.3,1.1v.3h-.1Z" fill="#fff"/></g></g><g id="ekD7Y1Jnip5112_to" transform="translate(83.900002,13.742164)"><g id="ekD7Y1Jnip5112" transform="translate(-83.900002,-5.8)" opacity="0"><path d="M9.2,0.6c.2,0,.3,0,.3.3v1.1c0,.2,0,.3-.3.3h-5.2c-1.2,0-1.6.4-1.6,1.6v.2h6.7c.2,0,.3,0,.3.3v.9c0,.2,0,.3-.3.3h-6.7v3.1c0,.2,0,.3-.3.3h-1.3c-.2,0-.3,0-.3-.3v-4.9c0-2.3,1-3.2,3.4-3.2h5.3Z" fill="#fff"/><path d="M12,2.4c.2,0,.3,0,.3.3v3.5c0,1,.2,1.3,1.2,1.3h3.1c1,0,1.3-.3,1.3-1.3v-3.5c0-.2,0-.3.3-.3h1.2c.2,0,.3,0,.3.3v3.9C19.7,8.3,19,9,16.8,9h-3.3c-2.2,0-2.9-.7-2.9-2.4v-3.9c0-.2,0-.3.3-.3h1.2-.1Z" fill="#fff"/><path d="M27.4,2.4c2.2,0,2.9.7,2.9,2.4v3.9c0,.2,0,.3-.3.3h-1.2c-.2,0-.3,0-.3-.3v-3.5c0-1-.2-1.3-1.2-1.3h-3.2c-1,0-1.3.3-1.3,1.3v3.5c0,.2,0,.3-.3.3h-1.2c-.2,0-.3,0-.3-.3v-3.9c0-1.7.7-2.4,2.9-2.4h3.4.1Z" fill="#fff"/><path d="M39,2.4v-2.1c0-.2,0-.3.3-.3h1.2c.2,0,.3,0,.3.3v6.3c0,1.7-.7,2.4-2.9,2.4h-3.4c-2.2,0-2.9-.7-2.9-2.4v-1.7c0-1.7.7-2.4,2.9-2.4h4.5v-.1Zm0,3.9v-2.4h-4.3c-1,0-1.3.3-1.3,1.3v1.1c0,1,.3,1.3,1.3,1.3h3c1,0,1.3-.3,1.3-1.3Z" fill="#fff"/><path d="M54.6,0.6c.2,0,.3,0,.3.3v1.1c0,.2,0,.3-.3.3h-6c-.5,0-.6.3-.6.7v.4c0,.4.2.7.6.7h4.5c1.4,0,2.1.7,2.1,2.1v1c0,1.2-.7,2-2.1,2h-6.6c-.2,0-.3,0-.3-.3v-1.1c0-.2,0-.3.3-.3h6.3c.5,0,.6-.3.6-.7v-.5c0-.4-.2-.7-.6-.7h-4.5c-1.4,0-2.1-.7-2.1-2.1v-.9c0-1.2.7-2,2.1-2h6.4-.1Z" fill="#fff"/><path d="M62.6,2.4c2.2,0,2.9.7,2.9,2.4v1.7c0,1.7-.7,2.4-2.9,2.4h-4.5v2.4c0,.2,0,.3-.3.3h-1.2c-.2,0-.3,0-.3-.3v-6.5c0-1.7.7-2.4,2.9-2.4h3.4ZM58.1,7.6h4.3c1,0,1.3-.3,1.3-1.3v-1.1c0-1-.3-1.3-1.3-1.3h-3c-1,0-1.3.3-1.3,1.3v2.4Z" fill="#fff"/><path d="M72.2,2.4c2.2,0,2.9.7,2.9,2.4v3.2c0,.8-.2,1-.9,1h-5.7c-1.4,0-1.8-.5-1.8-1.7v-.6c0-1,.4-1.6,1.8-1.6h4.9v-.2c0-.8-.3-1.1-1.3-1.1h-5c-.1,0-.2,0-.2-.2v-1c0-.1,0-.2.2-.2h5.2-.1Zm1.2,4.9v-1.1h-4.4c-.5,0-.7.2-.7.6v.3c0,.4.2.6.7.6h4c.3,0,.3-.1.3-.4h.1Z" fill="#fff"/><path d="M83.8,2.4c.1,0,.2,0,.2.2v1c0,.2,0,.2-.2.2h-4.7c-1,0-1.3.3-1.3,1.3v1.1c0,1,.3,1.3,1.3,1.3h4.7c.1,0,.2,0,.2.2v1c0,.1,0,.2-.2.2h-4.8c-2.2,0-2.9-.7-2.9-2.4v-1.7c0-1.7.7-2.4,2.9-2.4h4.8Z" fill="#fff"/><path d="M91.2,2.4c1.6,0,2.1.5,2.1,2v1.1c0,.5-.2.7-.7.7h-6.1v.3c0,.8.3,1.1,1.3,1.1h5c.1,0,.2,0,.2.2v1c0,.1,0,.2-.2.2h-5.2c-2.2,0-2.9-.7-2.9-2.4v-1.7c0-1.7.7-2.4,2.9-2.4h3.5l.1-.1ZM86.6,5.2h4.9c.1,0,.2,0,.2-.2v-.5c0-.5-.2-.7-.7-.7h-3c-1,0-1.3.3-1.3,1.1v.3h-.1Z" fill="#fff"/><path d="M101,0.6c.7,0,1,.2,1.3.9l2.5,5.8c0,0,0,.1.2.1h.1c0,0,.1,0,.2-.1l2.5-5.8c.3-.8.6-.9,1.3-.9h1.3c.8,0,1.1.3,1.1,1.2v6.9c0,.2,0,.3-.3.3h-1.2c-.2,0-.3,0-.3-.3v-6.2c0,0,0-.1,0-.1h-.1c0,0-.1,0-.2,0L107,7.8c-.4.9-.7,1.2-1.5,1.2h-.6c-.8,0-1.1-.3-1.5-1.2L101,2.4c0,0,0,0-.2,0h-.1c0,0,0,0,0,.1v6.3c0,.2,0,.3-.3.3h-1.2c-.2,0-.3,0-.3-.3v-6.9c0-.9.2-1.2,1.1-1.2h1.3l-.3-.1Z" fill="#fff"/><path d="M114.4,0c.2,0,.3,0,.3.3v1.1c0,.2,0,.3-.3.3h-1.2c-.2,0-.3,0-.3-.3v-1.1c0-.2,0-.3.3-.3h1.2Zm0,2.4c.2,0,.3,0,.3.3v6c0,.2,0,.3-.3.3h-1.2c-.2,0-.3,0-.3-.3v-6c0-.2,0-.3.3-.3h1.2Z" fill="#fff"/><path d="M123.8,2.4c.1,0,.2,0,.2.2v1c0,.1,0,.2-.2.2h-5.4c-.5,0-.7.2-.7.5v.2c0,.3.2.5.7.5h4c1.3,0,1.9.6,1.9,1.6v.7c0,1.1-.5,1.7-1.9,1.7h-6.1c-.1,0-.2,0-.2-.2v-1c0-.1,0-.2.2-.2h5.7c.5,0,.7-.2.7-.6v-.3c0-.3-.2-.5-.7-.5h-4c-1.3,0-1.9-.6-1.9-1.6v-.5c0-1,.5-1.6,1.9-1.6h5.9l-.1-.1Z" fill="#fff"/><path d="M133.2,2.4c.1,0,.2,0,.2.2v1c0,.1,0,.2-.2.2h-5.4c-.5,0-.7.2-.7.5v.2c0,.3.2.5.7.5h4c1.3,0,1.9.6,1.9,1.6v.7c0,1.1-.5,1.7-1.9,1.7h-6.1c-.1,0-.2,0-.2-.2v-1c0-.1,0-.2.2-.2h5.7c.5,0,.7-.2.7-.6v-.3c0-.3-.2-.5-.7-.5h-4c-1.3,0-1.9-.6-1.9-1.6v-.5c0-1,.5-1.6,1.9-1.6h5.9l-.1-.1Z" fill="#fff"/><path d="M136.4,0c.2,0,.3,0,.3.3v1.1c0,.2,0,.3-.3.3h-1.2c-.2,0-.3,0-.3-.3v-1.1c0-.2,0-.3.3-.3h1.2Zm0,2.4c.2,0,.3,0,.3.3v6c0,.2,0,.3-.3.3h-1.2c-.2,0-.3,0-.3-.3v-6c0-.2,0-.3.3-.3h1.2Z" fill="#fff"/><path d="M144.4,2.4c2.2,0,2.9.7,2.9,2.4v1.7c0,1.7-.7,2.4-2.9,2.4h-3.4c-2.2,0-2.9-.7-2.9-2.4v-1.7c0-1.7.7-2.4,2.9-2.4h3.4Zm-4.6,3.9c0,1,.3,1.3,1.3,1.3h3.1c1,0,1.3-.3,1.3-1.3v-1.1c0-1-.3-1.3-1.3-1.3h-3.1c-1,0-1.3.3-1.3,1.3v1.1Z" fill="#fff"/><path d="M154.9,2.4c2.2,0,2.9.7,2.9,2.4v3.9c0,.2,0,.3-.3.3h-1.2c-.2,0-.3,0-.3-.3v-3.5c0-1-.2-1.3-1.2-1.3h-3.2c-1,0-1.3.3-1.3,1.3v3.5c0,.2,0,.3-.3.3h-1.2c-.2,0-.3,0-.3-.3v-3.9c0-1.7.7-2.4,2.9-2.4h3.4.1Z" fill="#fff"/><path d="M166.8,2.4c.1,0,.2,0,.2.2v1c0,.1,0,.2-.2.2h-5.4c-.5,0-.7.2-.7.5v.2c0,.3.2.5.7.5h4c1.3,0,1.9.6,1.9,1.6v.7c0,1.1-.5,1.7-1.9,1.7h-6.1c-.1,0-.2,0-.2-.2v-1c0-.1,0-.2.2-.2h5.7c.5,0,.7-.2.7-.6v-.3c0-.3-.2-.5-.7-.5h-4c-1.3,0-1.9-.6-1.9-1.6v-.5c0-1,.5-1.6,1.9-1.6h5.9l-.1-.1Z" fill="#fff"/></g></g></g></g></g><g id="ekD7Y1Jnip5130_to" transform="translate(339.571753,360)"><g id="ekD7Y1Jnip5130" transform="translate(456.966003,-300.69696)"><g id="ekD7Y1Jnip5131" opacity="0"><line id="ekD7Y1Jnip5132" x1="-704.3" y1="473.8" x2="-704.3" y2="441.5" fill="none" stroke="#fff" stroke-width="40" stroke-linecap="round" stroke-linejoin="round" stroke-dashoffset="32.31" stroke-dasharray="32.31"/><line id="ekD7Y1Jnip5133" x1="-644.3" y1="473.8" x2="-644.3" y2="436.5" fill="none" stroke="#fff" stroke-width="40" stroke-linecap="round" stroke-linejoin="round" stroke-dashoffset="37.31" stroke-dasharray="37.31"/><line id="ekD7Y1Jnip5134" x1="-584.3" y1="473.8" x2="-584.3" y2="426.5" fill="none" stroke="#fff" stroke-width="40" stroke-linecap="round" stroke-linejoin="round" stroke-dashoffset="47.31" stroke-dasharray="47.31"/><line id="ekD7Y1Jnip5135" x1="-524.3" y1="473.8" x2="-524.3" y2="410.5" fill="none" stroke="#fff" stroke-width="40" stroke-linecap="round" stroke-linejoin="round" stroke-dashoffset="63.31" stroke-dasharray="63.31"/><line id="ekD7Y1Jnip5136" x1="-464.3" y1="473.8" x2="-464.3" y2="385.5" fill="none" stroke="#fff" stroke-width="40" stroke-linecap="round" stroke-linejoin="round" stroke-dashoffset="88.31" stroke-dasharray="88.31"/><line id="ekD7Y1Jnip5137" x1="-404.3" y1="473.8" x2="-404.3" y2="345.5" fill="none" stroke="#fff" stroke-width="40" stroke-linecap="round" stroke-linejoin="round" stroke-dashoffset="128.31" stroke-dasharray="128.31"/><line id="ekD7Y1Jnip5138" x1="-344.3" y1="473.8" x2="-344.3" y2="287.5" fill="none" stroke="#fff" stroke-width="40" stroke-linecap="round" stroke-linejoin="round" stroke-dashoffset="186.3" stroke-dasharray="186.3"/><line id="ekD7Y1Jnip5139" x1="-284.3" y1="473.8" x2="-284.3" y2="186.5" fill="none" stroke="#fff" stroke-width="40" stroke-linecap="round" stroke-linejoin="round" stroke-dashoffset="287.3" stroke-dasharray="287.3"/><line id="ekD7Y1Jnip5140" x1="-224.3" y1="473.8" x2="-224.3" y2="36.5" fill="none" stroke="#fff" stroke-width="40" stroke-linecap="round" stroke-linejoin="round" stroke-dashoffset="437.3" stroke-dasharray="437.3"/></g><g><line id="ekD7Y1Jnip5142" x1="-762.1" y1="530.7" x2="-762.1" y2="128.6" opacity="0" fill="none" stroke="#fff" stroke-width="20" stroke-linecap="round" stroke-linejoin="round" stroke-dashoffset="402" stroke-dasharray="402.1"/><g id="ekD7Y1Jnip5143_to" transform="translate(-762.069092,493.059414)"><path id="ekD7Y1Jnip5143" d="M-767.4,85.5l-28,48.6c-2.9,5,2.3,10.8,7.6,8.5l22.4-10c1.5-.7,3.3-.7,4.8,0l24.3,10.4c5.3,2.3,10.4-3.5,7.6-8.5L-757,85.6c-2.3-4-8.1-4-10.4,0v-.1Z" transform="translate(762.069092,-113.059414)" opacity="0" fill="#fff" stroke-width="20" stroke-linecap="round" stroke-linejoin="round"/></g></g><g><line id="ekD7Y1Jnip5145" x1="-160" y1="530.7" x2="-762.1" y2="530.7" transform="matrix(-1 0 0-1-922.099976 1061.400024)" opacity="0" fill="none" stroke="#fff" stroke-width="20" stroke-linecap="round" stroke-linejoin="round" stroke-dashoffset="602.1" stroke-dasharray="602.1"/><g id="ekD7Y1Jnip5146_to" transform="translate(-746.069092,530.059414)"><path id="ekD7Y1Jnip5146" d="M-767.4,85.5l-28,48.6c-2.9,5,2.3,10.8,7.6,8.5l22.4-10c1.5-.7,3.3-.7,4.8,0l24.3,10.4c5.3,2.3,10.4-3.5,7.6-8.5L-757,85.6c-2.3-4-8.1-4-10.4,0v-.1Z" transform="rotate(90) translate(762.069092,-113.059414)" opacity="0" fill="#fff" stroke-width="20" stroke-linecap="round" stroke-linejoin="round"/></g></g></g></g></g></g></svg>
