<?xml version="1.0" encoding="UTF-8"?>
<svg id="Layer_1" xmlns="http://www.w3.org/2000/svg" version="1.1" viewBox="0 0 857.1 857.1">
  <!-- Generator: Adobe Illustrator 29.5.0, SVG Export Plug-In . SVG Version: 2.1.0 Build 137)  -->
  <defs>
    <style>
      .st0 {
        fill: #9c4eb4;
      }
    </style>
  </defs>
  <path class="st0" d="M306.4,388.7l-55.2,55.2,104.2,104.2h0c7.3,7.3,17.3,11.4,27.6,11.4s20.3-4.1,27.6-11.4l195.3-195.3-55.2-55.2-167.7,167.7-76.6-76.6Z"/>
  <path class="st0" d="M454.6,47.4l-26-9-26,9-260.4,91.1-52.1,18.4v313.8c0,58.3,17,115.4,48.7,164.3,31.7,49,76.8,87.7,130,111.7l127.9,57.5,32,14.5,32-14.5,127.9-57.5c53.2-24,98.3-62.8,130-111.8,31.7-49,48.6-106.1,48.6-164.4V156.7l-52.1-18.4L454.6,47.4ZM688.9,470.5c0,43.3-12.5,85.7-36,122-23.5,36.4-57,65.1-96.5,82.9l-127.9,57.5-127.9-57.5c-39.5-17.8-73-46.5-96.5-82.9-23.5-36.4-36-78.7-36-122V212.2l260.4-91.1,260.4,91.1v258.3Z"/>
</svg>