<?xml version="1.0" encoding="utf-8"?>
<!-- Generator: Adobe Illustrator 26.3.1, SVG Export Plug-In . SVG Version: 6.00 Build 0)  -->
<svg version="1.1" id="Layer_1" xmlns="http://www.w3.org/2000/svg" xmlns:xlink="http://www.w3.org/1999/xlink" x="0px" y="0px"
	 viewBox="0 0 150 150" style="enable-background:new 0 0 150 150;" xml:space="preserve">
<style type="text/css">
	.st0{fill:#FFFFFF;}
</style>
<g id="Social_Icons">
	<path id="Discord_Icon" class="st0" d="M122.8,31.5c0-0.1-0.1-0.1-0.2-0.2c-8.9-4.1-18.3-7-28-8.7c-0.2,0-0.4,0.1-0.4,0.2
		c-1.3,2.3-2.4,4.7-3.5,7.2c-10.4-1.6-21-1.6-31.4,0c-1-2.4-2.2-4.8-3.5-7.2c-0.1-0.2-0.3-0.2-0.4-0.2c-9.7,1.7-19.1,4.6-28,8.7
		c-0.1,0-0.1,0.1-0.2,0.2C9.3,58.1,4.4,84,6.8,109.7c0,0.1,0.1,0.2,0.2,0.3c10.4,7.7,22,13.6,34.3,17.4c0.2,0.1,0.4,0,0.5-0.2
		c2.7-3.6,5-7.4,7-11.4c0.1-0.2,0-0.5-0.2-0.6l0,0c-3.7-1.4-7.3-3.1-10.7-5.1c-0.2-0.1-0.3-0.4-0.2-0.6l0.1-0.1
		c0.7-0.5,1.4-1.1,2.1-1.7c0.1-0.1,0.3-0.1,0.4-0.1c22.5,10.3,46.9,10.3,69.1,0c0.1-0.1,0.3,0,0.4,0.1c0.7,0.6,1.4,1.1,2.1,1.7
		c0.2,0.1,0.2,0.4,0.1,0.6l-0.1,0.1c-3.4,2-7,3.7-10.7,5.1c-0.2,0.1-0.3,0.3-0.3,0.6l0,0c2.1,4,4.4,7.8,7,11.4
		c0.1,0.2,0.3,0.2,0.5,0.2c12.4-3.8,24-9.7,34.4-17.4c0.1-0.1,0.2-0.2,0.2-0.3C146,80.1,138.4,54.3,122.8,31.5z M52.2,94.1
		c-6.8,0-12.4-6.2-12.4-13.9s5.5-13.9,12.4-13.9s12.5,6.3,12.4,13.9C64.6,87.9,59.1,94.1,52.2,94.1z M97.9,94.1
		c-6.8,0-12.4-6.2-12.4-13.9S91,66.4,97.9,66.4s12.5,6.3,12.4,13.9C110.2,87.9,104.8,94.1,97.9,94.1z"/>
</g>
</svg>
