<?xml version="1.0" encoding="utf-8"?>
<!-- Generator: Adobe Illustrator 26.3.1, SVG Export Plug-In . SVG Version: 6.00 Build 0)  -->
<svg version="1.1" id="Layer_1" xmlns="http://www.w3.org/2000/svg" xmlns:xlink="http://www.w3.org/1999/xlink" x="0px" y="0px"
	 viewBox="0 0 589.4 165.7" style="enable-background:new 0 0 589.4 165.7;" xml:space="preserve">
<style type="text/css">
	.st0{fill:none;stroke:#F2F2F2;stroke-width:6;stroke-linecap:round;stroke-linejoin:round;stroke-miterlimit:10;}
	.st1{fill:#F2F2F2;}
</style>
<g id="Altered_Logo">
	<path class="st0" d="M155.2,138.1V27.7C133.1,11.6,106.4,3,79.1,3S25.1,11.6,3,27.7v110.4c22.1,16,48.8,24.7,76.1,24.7
		S133.1,154.1,155.2,138.1z"/>
	<path class="st1" d="M46.7,82.9C62.3,82.9,75,70.2,75,54.6S62.3,26.3,46.7,26.3S18.4,39,18.4,54.6S31.1,82.9,46.7,82.9z"/>
	<path class="st1" d="M155.2,138c-111-13-69.5-49.3-63.6-52.9C87.4,87.6,3,138,3,138l9.9,6.5c19.8,12.3,42.7,18.8,66,18.8
		s46.2-6.4,66-18.6L155.2,138L155.2,138z"/>
	<path class="st1" d="M200.2,55.1c1,0,2.1,0.1,3.1,0.2c0.8,0.1,1.6,0.5,2.3,0.9c0.7,0.5,1.3,1.1,1.8,1.9c0.6,1,1.1,2,1.6,3.1
		l16.9,39c0.1,0.2,0.2,0.4,0.5,0.6c0.2,0.1,0.4,0.2,0.7,0.2h1c0.2,0,0.5-0.1,0.7-0.2s0.4-0.3,0.5-0.5l16.9-39c0.4-1.1,1-2.1,1.6-3.1
		c0.5-0.7,1-1.4,1.7-1.9s1.4-0.8,2.2-0.9c1-0.2,2-0.3,3-0.2h8.7c2.8,0,4.7,0.6,5.7,1.9c1,1.2,1.5,3.5,1.5,6.5v46.7
		c0,1.2-0.6,1.8-1.9,1.8h-10.1V67.8c0-0.5-0.2-0.8-0.7-0.8h-0.7c-0.2,0-0.4,0-0.6,0.1s-0.3,0.3-0.4,0.5L239.8,104
		c-0.6,1.3-1.2,2.5-2,3.7c-0.6,0.9-1.4,1.8-2.2,2.5s-1.7,1.1-2.7,1.4c-1.2,0.3-2.3,0.4-3.5,0.4h-3.9c-1.2,0-2.4-0.1-3.5-0.4
		c-1-0.3-1.9-0.7-2.7-1.4c-0.8-0.7-1.6-1.6-2.2-2.5c-0.8-1.2-1.4-2.4-2-3.7l-16.4-36.4c-0.1-0.2-0.2-0.4-0.4-0.5s-0.4-0.2-0.6-0.1
		H197c-0.4,0-0.6,0.3-0.6,0.8v44.3h-10.1c-1.2,0-1.9-0.6-1.9-1.8V63.6c0-3.1,0.5-5.3,1.5-6.5c1-1.3,2.9-1.9,5.8-1.9L200.2,55.1
		L200.2,55.1z"/>
	<path class="st1" d="M328.5,55.1c3.5-0.1,7.1,0.3,10.5,1.2c2.6,0.6,5.1,1.9,7.1,3.7c1.9,1.8,3.3,4.1,3.9,6.6
		c0.9,3.2,1.3,6.6,1.2,9.9v14c0.1,3.4-0.4,6.7-1.2,9.9c-0.7,2.5-2.1,4.9-3.9,6.7c-2,1.8-4.4,3.1-7.1,3.7c-3.4,0.8-7,1.2-10.5,1.1
		h-25.1c-3.5,0.1-7.1-0.3-10.5-1.1c-2.6-0.6-5-1.9-7-3.7c-1.9-1.8-3.3-4.1-4-6.7c-0.9-3.2-1.3-6.6-1.2-9.9v-14
		c-0.1-3.4,0.3-6.7,1.2-9.9c0.7-2.5,2.1-4.8,4-6.6c2-1.8,4.4-3.1,7-3.7c3.4-0.9,7-1.2,10.5-1.2H328.5z M293,89.7
		c0,1.8,0.1,3.6,0.5,5.3c0.3,1.3,0.9,2.4,1.8,3.4c0.9,0.9,2.1,1.5,3.3,1.8c1.7,0.4,3.5,0.6,5.2,0.5H328c1.8,0,3.5-0.1,5.3-0.5
		c1.2-0.3,2.4-0.9,3.3-1.8c0.9-1,1.5-2.1,1.8-3.4c0.4-1.7,0.6-3.5,0.5-5.3V77.5c0-1.8-0.1-3.6-0.5-5.3c-0.3-1.3-0.9-2.5-1.8-3.4
		s-2-1.5-3.3-1.8c-1.7-0.4-3.5-0.6-5.3-0.5h-24.2c-1.8,0-3.5,0.1-5.2,0.5c-1.2,0.3-2.4,0.9-3.3,1.8c-0.9,1-1.5,2.2-1.8,3.4
		c-0.4,1.7-0.6,3.5-0.5,5.3V89.7z"/>
	<path class="st1" d="M408.6,55.1c3.5-0.1,7.1,0.3,10.5,1.2c2.6,0.6,5.1,1.9,7.1,3.7c1.9,1.8,3.3,4.1,3.9,6.6
		c0.9,3.2,1.3,6.6,1.2,9.9v14c0.1,3.4-0.4,6.7-1.2,9.9c-0.7,2.5-2.1,4.9-3.9,6.7c-2,1.8-4.4,3.1-7.1,3.7c-3.4,0.8-7,1.2-10.5,1.1
		h-25.1c-3.5,0.1-7.1-0.3-10.5-1.1c-2.6-0.6-5-1.9-7-3.7c-1.9-1.8-3.3-4.1-4-6.7c-0.9-3.2-1.3-6.6-1.2-9.9v-14
		c-0.1-3.4,0.3-6.7,1.2-9.9c0.7-2.5,2.1-4.8,4-6.6c2-1.8,4.4-3.1,7-3.7c3.4-0.9,7-1.2,10.5-1.2H408.6z M373.1,89.7
		c0,1.8,0.1,3.6,0.5,5.3c0.3,1.3,0.9,2.4,1.8,3.4c0.9,0.9,2.1,1.5,3.3,1.8c1.7,0.4,3.5,0.6,5.2,0.5h24.2c1.8,0,3.5-0.1,5.3-0.5
		c1.2-0.3,2.4-0.9,3.3-1.8c0.9-1,1.5-2.1,1.8-3.4c0.4-1.7,0.6-3.5,0.5-5.3V77.5c0-1.8-0.1-3.6-0.5-5.3c-0.3-1.3-0.9-2.5-1.8-3.4
		s-2-1.5-3.3-1.8c-1.7-0.4-3.5-0.6-5.3-0.5h-24.2c-1.8,0-3.5,0.1-5.2,0.5c-1.2,0.3-2.4,0.9-3.3,1.8c-0.9,1-1.5,2.2-1.8,3.4
		c-0.4,1.7-0.6,3.5-0.5,5.3V89.7z"/>
	<path class="st1" d="M455.9,55.1c1.1,0,2.2,0,3.3,0.2c0.8,0.1,1.6,0.3,2.3,0.7c0.7,0.4,1.3,0.9,1.9,1.5c0.7,0.8,1.4,1.6,2,2.5
		l30.3,39.7c0.1,0.2,0.3,0.3,0.4,0.4c0.2,0.1,0.4,0.1,0.6,0.1h0.7c0.4,0,0.6-0.3,0.6-0.8V55.1h12.1v48.5c0,3.3-0.6,5.5-1.8,6.7
		c-1.5,1.3-3.5,1.9-5.5,1.8h-7c-1,0-2.1,0-3.1-0.2c-0.8-0.1-1.5-0.3-2.2-0.6c-0.7-0.4-1.4-0.8-1.9-1.4c-0.8-0.8-1.5-1.7-2.2-2.6
		l-30.3-39.7c-0.1-0.2-0.3-0.3-0.5-0.4S455.2,67,455,67h-0.7c-0.4,0-0.6,0.3-0.6,0.8v44.3h-10.3c-1.2,0-1.9-0.6-1.9-1.8V63.6
		c0-3.3,0.6-5.5,1.8-6.7c1.5-1.3,3.5-1.9,5.5-1.8H455.9z"/>
	<path class="st1" d="M547.7,60.1l-2.4,5.6c0,0.1-0.1,0.1-0.2,0.2c-0.1,0-0.2,0.1-0.2,0.1H544c-0.2,0-0.3-0.1-0.2-0.4l9.3-21
		c0-0.1,0.1-0.1,0.2-0.2c0.1,0,0.1-0.1,0.2-0.1h0.1c0.1,0,0.2,0,0.2,0c0.1,0,0.1,0.1,0.2,0.2l9.2,21c0.1,0.2,0.1,0.4-0.3,0.4h-0.8
		c-0.1,0-0.2,0-0.2-0.1c-0.1,0-0.1-0.1-0.2-0.2l-2.5-5.6l-0.5-1.2l-5.2-12.2h-0.1l-5.3,12.2L547.7,60.1z M548.2,58.8l-0.5,1.2
		L548.2,58.8z"/>
	<path class="st1" d="M99,80.4c0,0,7.4-5.8,7.4-10c0.1-4.6-8.7-18.2-8.7-18.2c6.2,8.4,10.1,11.8,10.1,11.8
		c5.8,5.4,17.9-2.4,29.9-10.1c0,0-14.3,10.1-20.4,17.7c-2.6,3.2,0.1,9,2.5,12.9c0,0-5.1-7.7-10.2-8C105.1,76.3,99,80.4,99,80.4z"/>
	<path class="st1" d="M578.5,44.2c2.2,0,4.3,0.6,6.1,1.8s3.2,2.9,4,4.9s1.1,4.2,0.6,6.3c-0.4,2.1-1.4,4.1-3,5.6
		c-1.5,1.5-3.4,2.6-5.6,3c-2.1,0.4-4.3,0.2-6.3-0.6c-2-0.8-3.7-2.2-4.9-4s-1.8-3.9-1.8-6c0-2.9,1.1-5.6,3.1-7.7
		C572.8,45.4,575.6,44.3,578.5,44.2z M578.5,64.7c1.9,0,3.7-0.6,5.3-1.6s2.8-2.5,3.5-4.3c0.7-1.7,0.9-3.7,0.5-5.5
		c-0.4-1.9-1.3-3.5-2.6-4.9c-1.3-1.3-3-2.2-4.9-2.6c-1.8-0.4-3.8-0.2-5.5,0.6c-1.7,0.7-3.2,2-4.3,3.5c-1,1.6-1.6,3.4-1.6,5.3
		c0,1.3,0.3,2.5,0.7,3.7c0.5,1.2,1.2,2.2,2.1,3.1c0.9,0.9,1.9,1.6,3.1,2.1C576,64.4,577.2,64.7,578.5,64.7z"/>
	<path class="st1" d="M528.7,44.8h-6.4c-0.1,0-0.2,0-0.3,0.1s-0.1,0.2-0.1,0.3v0.9h6.5c2.5,0,4.8,1,6.6,2.7c1.7,1.7,2.7,4.1,2.7,6.6
		s-1,4.8-2.7,6.6c-1.7,1.7-4.1,2.7-6.6,2.7h-6.5v0.9c0,0.1,0,0.2,0.1,0.3c0.1,0.1,0.2,0.1,0.3,0.1h6.4c1.4,0.1,2.9-0.1,4.3-0.6
		c1.4-0.5,2.6-1.2,3.7-2.2c1.1-1,1.9-2.2,2.5-3.5s0.9-2.8,0.9-4.2s-0.3-2.9-0.9-4.2c-0.6-1.3-1.4-2.5-2.5-3.5s-2.3-1.8-3.7-2.2
		C531.6,44.9,530.1,44.7,528.7,44.8L528.7,44.8z"/>
</g>
</svg>
