<?xml version="1.0" encoding="utf-8"?>
<!-- Generator: Adobe Illustrator 27.7.0, SVG Export Plug-In . SVG Version: 6.00 Build 0)  -->
<svg version="1.1" xmlns="http://www.w3.org/2000/svg" xmlns:xlink="http://www.w3.org/1999/xlink" x="0px" y="0px"
	 viewBox="0 0 584.6 584.6" style="enable-background:new 0 0 584.6 584.6;" xml:space="preserve">
<style type="text/css">
	.st0{fill:#F2F2F2;}
	.st1{fill:#492B45;}
	.st2{fill:url(#SVGID_1_);}
	.st3{fill:none;}
	.st4{fill:url(#SVGID_00000048490276969712251710000001363003270345203369_);}
	.st5{fill:url(#SVGID_00000137843916701653005560000005073045371675959210_);}
	.st6{fill:url(#SVGID_00000003803866661055256390000017957302588717576859_);}
	.st7{fill:url(#SVGID_00000169540567356541650720000003283682608058374833_);}
	.st8{fill:url(#SVGID_00000021076908600719134600000004804831440475808912_);}
	.st9{fill:url(#SVGID_00000024687528185921040170000005509400625581859752_);}
	.st10{fill:url(#SVGID_00000183935900190066405030000008685643936881101957_);}
	.st11{fill:url(#SVGID_00000091705022604025335270000018248503413220371860_);}
	.st12{fill:url(#SVGID_00000080206988107393930450000013689564771559674008_);}
	.st13{fill:url(#SVGID_00000151534820720337968920000008538083788236873360_);}
	.st14{fill:url(#SVGID_00000039126517067913934160000013897622814326461364_);}
	.st15{fill:url(#SVGID_00000160166539406290044720000016201337799140406691_);}
	.st16{fill:url(#SVGID_00000152224807516995702300000018040382082741234575_);}
	.st17{fill:url(#SVGID_00000067925799937723075790000009349803336784830652_);}
	.st18{fill:url(#SVGID_00000102513575938348982710000009607133755581258390_);}
	.st19{fill:#FFFFFF;}
</style>
<g id="Layer_1">
	<path class="st0" d="M2261.1,1064.9c0,0,14.9-11.8,15-20.2c0.3-9.3-17.5-36.7-17.5-36.7c12.5,17,20.4,23.8,20.4,23.8
		c11.6,10.8,36-4.9,60.4-20.4c0,0-28.8,20.4-41.1,35.7c-5.2,6.5,0.2,18.2,5,26.1c0,0-10.2-15.5-20.5-16.1
		C2273.5,1056.7,2261.1,1064.9,2261.1,1064.9z"/>
	<path class="st1" d="M2912.5,1088.3v0.7c0,3.8-0.2,7.5-0.5,11.2c-0.1,1.7-0.3,3.4-0.6,5.1c-1.1,8.7-3.2,17.2-6.1,25.3
		c0,0.1-0.1,0.2-0.1,0.3c-6.3,17.7-16.6,33.7-29.6,46.8c-16.1,16.1-36.5,27.8-59.2,33.4c-9.4,2.3-19.3,3.5-29.4,3.5
		c-0.3,0-0.6,0-0.9,0c-61.8-0.4-113.3-46.1-123-105.3c-1.1-6.6-1.6-13.3-1.6-20.2v-0.7c0-2.2,0.1-4.3,0.2-6.5
		c1.8-31.7,15.5-60.3,36.7-81.4c19.2-19.2,44.4-32.2,72.5-35.8c5-0.7,10.1-1,15.3-1c0.3,0,0.6,0,0.9,0c10.1,0,20,1.2,29.4,3.5
		c22.8,5.5,43.2,17.3,59.2,33.4c19.8,19.8,33,46,36.1,75.2c0.1,0.7,0.1,1.5,0.2,2.2C2912.3,1081.3,2912.5,1084.8,2912.5,1088.3z"/>
	<path class="st1" d="M3162.5,1088.3h-501c0-2.2,0.1-4.3,0.2-6.5c1.8-31.7,15.5-60.3,36.7-81.4c19.2-19.2,44.4-32.2,72.5-35.8
		c5-0.7,10.1-1,15.3-1c0.3,0,0.6,0,0.9,0c10.1,0,20,1.2,29.4,3.5c22.8,5.5,43.2,17.3,59.2,33.4c19.8,19.8,33,46,36.1,75.2
		c0.1,0.1,0.3,0.3,0.4,0.4c3.1-29.4,16.4-55.8,36.2-75.6c22.7-22.7,54-36.8,88.5-36.9h0.2c34.5,0,65.9,14.1,88.6,36.9
		c3.8,3.8,7.4,7.9,10.8,12.2c0.4,0.5,0.7,1,1.1,1.4c4.2,5.5,7.9,11.5,11.1,17.7c0.3,0.5,0.5,1.1,0.8,1.6
		C3157.7,1050,3162.4,1068.7,3162.5,1088.3z"/>
	<path class="st1" d="M3164.6,1344.5c0,15.3-3.4,29.8-8.9,43.8c-6.6,16.7-16.6,31.3-29.6,43.6c-19,18-41.4,29.5-67.4,33.2
		c-7,1-14.1,1.1-21.1,1.6c-0.3,0-0.5,0-0.8,0V963.6h0.2c34.5,0,65.9,14.1,88.6,36.9c3.8,3.8,7.4,7.9,10.8,12.2
		c0.4,0.5,0.7,1,1.1,1.4c4.2,5.5,7.9,11.5,11.1,17.7c0.3,0.5,0.5,1.1,0.8,1.6c8.3,16.6,13,35.2,13.1,54.9v0.7c0,1.6,0,3.2-0.1,4.8v0
		c0,14.3-3,28.2-8.5,41.4c-18.7,44.7-52.1,71-99.9,78.9c-0.3,0.1-0.7,0.2-1,0.2c0,0.2,0,0.3,0,0.5c36.9,0.1,73.8,0.1,111.2,0.2
		c0.2,2.3,0.5,4.1,0.5,5.9c0,37.8,0,75.7,0,113.6C3164.6,1337.9,3164.6,1341.2,3164.6,1344.5z"/>
	<path class="st1" d="M2786.1,963.6v503.2c-9.2,0.1-18.3-1.2-27.2-3.3c-25.1-5.7-46.4-18.2-63.8-37c-17.5-18.9-28.3-41.3-32-66.9
		c-0.8-5.1-1.1-10.4-1.1-15.6c0-3.1,0-6.3,0-9.4c-0.1-37.8-0.1-75.7-0.1-113.5c0-1.7,0.1-3.3,0.2-5.5c2.4-0.2,4.5-0.5,6.6-0.5
		c31,0,62.1,0,93.1,0c2.2,0,4.4,0,6.6,0c0-0.3,0-0.6,0-0.9c-9.4-1.6-18.7-3.8-27.6-7.5c-17.8-7.3-33.4-17.9-46.4-32
		c-6.8-7.4-12.7-15.6-17.5-24.5c-7-12.8-11.8-26.3-13.8-40.8c-1.1-6.6-1.6-13.3-1.6-20.2v-0.7c0-2.2,0.1-4.3,0.2-6.5
		c1.8-31.7,15.5-60.3,36.7-81.4c19.2-19.2,44.4-32.2,72.5-35.8C2775.8,964,2780.9,963.6,2786.1,963.6z"/>
	<path class="st1" d="M3162.5,1088.3v0.7c0,1.6,0,3.2-0.1,4.8v0c-1.3,32.6-15.1,62.1-36.8,83.8c-22.8,22.7-54.1,36.9-88.6,36.9h-0.2
		c-37.1-0.1-70.6-16.5-93.6-42.4c-0.1-0.1-0.3-0.3-0.4-0.4c-0.2-0.2-0.3-0.4-0.5-0.6c-16-18.4-26.8-41.5-29.9-66.9
		c-0.1-0.7-0.1-1.3-0.2-2c-0.1-0.7-0.1-1.3-0.2-2c-0.3-3.7-0.5-7.4-0.5-11.2v-0.7c0-3.5,0.2-7,0.5-10.5c0.1-0.6,0.1-1.2,0.2-1.8
		c3.1-29.4,16.4-55.8,36.2-75.6c22.7-22.7,54-36.8,88.5-36.9h0.2c34.5,0,65.9,14.1,88.6,36.9c3.8,3.8,7.4,7.9,10.8,12.2
		c0.4,0.5,0.7,1,1.1,1.4c4.2,5.6,7.9,11.5,11.1,17.7c0.3,0.5,0.5,1.1,0.8,1.6C3157.7,1050,3162.4,1068.7,3162.5,1088.3z"/>
	<rect x="2654.6" y="867.2" class="st1" width="1427.1" height="221.9"/>
	<rect x="3561.2" y="1011.2" class="st1" width="260.4" height="956.6"/>
</g>
<g id="Layer_2">
	<linearGradient id="SVGID_1_" gradientUnits="userSpaceOnUse" x1="-60.4045" y1="1751.637" x2="-60.4045" y2="887.5105">
		<stop  offset="0.2263" style="stop-color:#000000"/>
		<stop  offset="1" style="stop-color:#333333"/>
	</linearGradient>
	<rect x="-539.3" y="847.8" class="st2" width="957.8" height="964.3"/>
	<path class="st3" d="M3164.6,1344.5c0,15.3-3.4,29.8-8.9,43.8c-6.6,16.7-16.6,31.3-29.6,43.6c-19,18-41.4,29.5-67.4,33.2
		c-7,1-14.1,1.1-21.1,1.6c-0.3,0-0.5,0-0.8,0c-1.9,0.1-3.8,0.2-5.8,0.2c-71.6,0-143.1,0-214.7,0v-500c22.8,5.5,43.2,17.3,59.2,33.4
		c19.8,19.8,33,46,36.1,75.2c0.1,0.1,0.3,0.3,0.4,0.4c3.1-29.4,16.4-55.8,36.2-75.6c22.7-22.7,54-36.8,88.5-36.9h0.2
		c34.5,0,65.9,14.1,88.6,36.9c3.8,3.8,7.4,7.9,10.8,12.2c0.4,0.5,0.7,1,1.1,1.4c4.2,5.5,7.9,11.5,11.1,17.7c0.3,0.5,0.5,1.1,0.8,1.6
		c8.3,16.6,13,35.2,13.1,54.9v0.7c0,1.6,0,3.2-0.1,4.8v0c0,14.3-3,28.2-8.5,41.4c-18.7,44.7-52.1,71-99.9,78.9
		c-0.3,0.1-0.7,0.2-1,0.2c0,0.2,0,0.3,0,0.5c36.9,0.1,73.8,0.1,111.2,0.2c0.2,2.3,0.5,4.1,0.5,5.9c0,37.8,0,75.7,0,113.6
		C3164.6,1337.9,3164.6,1341.2,3164.6,1344.5z"/>
	<rect x="3165.6" y="1517.7" class="st3" width="800" height="800"/>
	<path class="st3" d="M3164.6,1334.6h-502.7c-0.1-37.8-0.1-75.7-0.1-113.5c0-1.7,0.1-3.3,0.2-5.5c2.4-0.2,4.5-0.5,6.6-0.5
		c31,0,62.1,0,93.1,0c2.2,0,4.4,0,6.6,0c0-0.3,0-0.6,0-0.9c-9.4-1.6-18.7-3.8-27.6-7.5c-17.8-7.3-33.4-17.9-46.4-32
		c-6.8-7.4-12.7-15.6-17.5-24.5c-7-12.8-11.8-26.3-13.8-40.8c-1.1-6.6-1.6-13.3-1.6-20.2v-0.7c0-2.2,0.1-4.3,0.2-6.5
		c1.8-31.7,15.5-60.3,36.7-81.4c19.2-19.2,44.4-32.2,72.5-35.8c5-0.7,10.1-1,15.3-1c0.3,0,0.6,0,0.9,0c10.1,0,20,1.2,29.4,3.5
		c22.8,5.5,43.2,17.3,59.2,33.4c19.8,19.8,33,46,36.1,75.2c0.1,0.1,0.3,0.3,0.4,0.4c3.1-29.4,16.4-55.8,36.2-75.6
		c22.7-22.7,54-36.8,88.5-36.9h0.2c34.5,0,65.9,14.1,88.6,36.9c3.8,3.8,7.4,7.9,10.8,12.2c0.4,0.5,0.7,1,1.1,1.4
		c4.2,5.5,7.9,11.5,11.1,17.7c0.3,0.5,0.5,1.1,0.8,1.6c8.3,16.6,13,35.2,13.1,54.9v0.7c0,1.6,0,3.2-0.1,4.8v0
		c0,14.3-3,28.2-8.5,41.4c-18.7,44.7-52.1,71-99.9,78.9c-0.3,0.1-0.7,0.2-1,0.2c0,0.2,0,0.3,0,0.5c36.9,0.1,73.8,0.1,111.2,0.2
		c0.2,2.3,0.5,4.1,0.5,5.9C3164.6,1258.9,3164.5,1296.8,3164.6,1334.6z"/>
	<g>
		
			<linearGradient id="SVGID_00000010305475153726593850000008798663757024569001_" gradientUnits="userSpaceOnUse" x1="-567.8046" y1="1611.1516" x2="-690.6531" y2="914.5272" gradientTransform="matrix(1 0 0 -1 564 2586.8989)">
			<stop  offset="0" style="stop-color:#00156A"/>
			<stop  offset="0.19" style="stop-color:#032074"/>
			<stop  offset="0.72" style="stop-color:#0B3B8E"/>
		</linearGradient>
		<path style="fill:url(#SVGID_00000010305475153726593850000008798663757024569001_);" d="M268.6,1566.1V1082
			c-97.1-70.4-213.9-108.3-333.8-108.3S-302,1011.6-399.1,1082v484.2c97.1,70.4,213.9,108.3,333.8,108.3S171.5,1636.5,268.6,1566.1z
			"/>
		
			<linearGradient id="SVGID_00000037659796978128792580000000818429352719353262_" gradientUnits="userSpaceOnUse" x1="-895.4046" y1="1386.7959" x2="-647.4736" y2="1386.7959" gradientTransform="matrix(1 0 0 -1 564 2586.8989)">
			<stop  offset="0" style="stop-color:#F7931E"/>
			<stop  offset="0.47" style="stop-color:#F8A439"/>
			<stop  offset="1" style="stop-color:#F9B95C"/>
		</linearGradient>
		<path style="fill:url(#SVGID_00000037659796978128792580000000818429352719353262_);" d="M-207.4,1324.1c68.5,0,124-55.5,124-124
			c0-68.5-55.5-124-124-124c-68.5,0-124,55.5-124,124C-331.4,1268.6-275.9,1324.1-207.4,1324.1z"/>
		
			<linearGradient id="SVGID_00000053544663231999120220000014994479948279325096_" gradientUnits="userSpaceOnUse" x1="-714.2678" y1="873.5875" x2="-515.0784" y2="1218.6814" gradientTransform="matrix(1 0 0 -1 564 2586.8989)">
			<stop  offset="0" style="stop-color:#8A002D"/>
			<stop  offset="0.78" style="stop-color:#D7594F"/>
		</linearGradient>
		<path style="fill:url(#SVGID_00000053544663231999120220000014994479948279325096_);" d="M268.6,1566
			c-487-57-304.8-216.4-279.2-232.2c-18.2,10.9-388.5,232.1-388.5,232.1l43.6,28.6c87,53.7,187.1,82.3,289.4,82.4
			c102.2,0.2,202.5-28.1,289.6-81.6L268.6,1566L268.6,1566z"/>
		<path class="st0" d="M22,1313.1c0,0,32.4-25.7,32.7-43.9c0.5-20.2-38.1-79.9-38.1-79.9c27.2,37,44.4,51.7,44.4,51.7
			c25.3,23.5,78.4-10.6,131.3-44.4c0,0-62.5,44.4-89.3,77.7c-11.4,14.2,0.3,39.5,10.9,56.8c0,0-22.3-33.7-44.6-34.9
			C49,1295.1,22,1313.1,22,1313.1z"/>
	</g>
	<path class="st0" d="M2361.2,492.5c2.1,0,4.2,0.1,6.2,0.5c1.6,0.3,3.2,0.9,4.6,1.9c1.4,1,2.6,2.3,3.5,3.8c1.3,2,2.3,4.1,3.2,6.3
		l34.1,78.8c0.2,0.5,0.5,0.8,0.9,1.1c0.4,0.3,0.9,0.4,1.4,0.4h2c0.5,0,1-0.1,1.4-0.4c0.4-0.3,0.7-0.7,0.9-1.1l34.2-78.8
		c0.9-2.2,1.9-4.3,3.2-6.3c0.9-1.5,2.1-2.8,3.5-3.8c1.4-0.9,2.9-1.6,4.5-1.9c2-0.4,4.1-0.5,6.1-0.5h17.5c5.7,0,9.5,1.3,11.5,3.9
		c2,2.5,3,7,3,13.2v94.2c0,2.5-1.3,3.6-3.8,3.6H2479v-89.3c0-1.1-0.5-1.6-1.3-1.6h-1.5c-0.4-0.1-0.9,0-1.3,0.3
		c-0.4,0.2-0.7,0.6-0.8,1l-33.2,73.5c-1.1,2.6-2.5,5.1-4,7.5c-1.2,1.9-2.7,3.6-4.4,5c-1.6,1.3-3.4,2.3-5.4,2.8
		c-2.3,0.6-4.7,0.9-7.1,0.8h-7.9c-2.4,0-4.8-0.2-7.1-0.8c-2-0.5-3.8-1.5-5.4-2.8c-1.7-1.5-3.2-3.1-4.4-5c-1.5-2.4-2.9-4.9-4-7.5
		l-33.2-73.5c-0.2-0.4-0.5-0.8-0.8-1c-0.4-0.2-0.8-0.3-1.3-0.3h-1.5c-0.9,0-1.3,0.5-1.3,1.6v89.3h-20.4c-2.5,0-3.8-1.2-3.8-3.6
		v-94.2c0-6.2,1-10.6,3-13.2c2-2.6,5.9-3.9,11.7-3.9H2361.2z"/>
	<path class="st0" d="M2620.1,492.5c7.2-0.1,14.3,0.7,21.2,2.4c5.3,1.3,10.2,3.9,14.3,7.5c3.8,3.7,6.6,8.3,8,13.4
		c1.8,6.5,2.6,13.3,2.5,20V564c0.1,6.8-0.7,13.5-2.5,20c-1.4,5.1-4.1,9.8-8,13.5c-4.1,3.7-9,6.3-14.3,7.5c-7,1.7-14.1,2.4-21.2,2.3
		h-50.7c-7.1,0.1-14.2-0.6-21.2-2.3c-5.3-1.3-10.2-3.9-14.2-7.5c-3.8-3.7-6.6-8.4-8-13.5c-1.8-6.5-2.7-13.3-2.5-20v-28.2
		c-0.2-6.8,0.7-13.5,2.5-20c1.5-5.1,4.3-9.7,8.1-13.4c4-3.6,8.9-6.2,14.2-7.5c6.9-1.7,14-2.5,21.2-2.4L2620.1,492.5z M2548.5,562.2
		c-0.1,3.6,0.3,7.2,1.1,10.7c0.6,2.6,1.8,4.9,3.5,6.9c1.8,1.8,4.1,3.1,6.7,3.6c3.5,0.8,7,1.2,10.6,1.1h48.7
		c3.6,0.1,7.1-0.3,10.6-1.1c2.5-0.5,4.8-1.8,6.6-3.6c1.8-1.9,3-4.3,3.5-6.9c0.8-3.5,1.1-7.1,1.1-10.7v-24.6
		c0.1-3.6-0.3-7.2-1.1-10.7c-0.5-2.6-1.8-5-3.5-6.9c-1.8-1.8-4.1-3-6.6-3.6c-3.5-0.8-7-1.1-10.6-1.1h-48.7
		c-3.6-0.1-7.1,0.3-10.6,1.1c-2.5,0.6-4.8,1.8-6.7,3.6c-1.8,2-3,4.3-3.5,6.9c-0.8,3.5-1.1,7.1-1.1,10.7V562.2z"/>
	<path class="st0" d="M2781.8,492.5c7.2-0.1,14.3,0.7,21.2,2.4c5.3,1.3,10.2,3.9,14.3,7.5c3.8,3.7,6.6,8.3,8,13.4
		c1.8,6.5,2.6,13.3,2.5,20V564c0.1,6.8-0.7,13.5-2.5,20c-1.4,5.1-4.1,9.8-8,13.5c-4,3.7-9,6.3-14.3,7.5c-7,1.7-14.1,2.4-21.2,2.3
		H2731c-7.1,0.1-14.2-0.6-21.2-2.3c-5.3-1.3-10.2-3.9-14.2-7.5c-3.8-3.7-6.6-8.4-8-13.5c-1.8-6.5-2.7-13.3-2.5-20v-28.2
		c-0.2-6.8,0.7-13.5,2.5-20c1.5-5.1,4.2-9.7,8-13.4c4-3.6,8.9-6.2,14.2-7.5c6.9-1.7,14-2.5,21.2-2.4L2781.8,492.5z M2710.2,562.2
		c-0.1,3.6,0.3,7.2,1.1,10.7c0.6,2.6,1.8,4.9,3.5,6.9c1.8,1.8,4.1,3.1,6.7,3.6c3.5,0.8,7,1.2,10.6,1.1h48.7
		c3.6,0.1,7.1-0.3,10.6-1.1c2.5-0.5,4.8-1.8,6.6-3.6c1.8-1.9,3-4.3,3.5-6.9c0.8-3.5,1.2-7.1,1.1-10.7v-24.6
		c0.1-3.6-0.3-7.2-1.1-10.7c-0.5-2.6-1.8-5-3.5-6.9c-1.8-1.8-4.1-3-6.6-3.6c-3.5-0.8-7-1.1-10.6-1.1H2732c-3.6-0.1-7.1,0.3-10.6,1.1
		c-2.5,0.6-4.8,1.8-6.7,3.6c-1.8,2-3,4.3-3.5,6.9c-0.8,3.5-1.1,7.1-1.1,10.7L2710.2,562.2z"/>
	<path class="st0" d="M2877.3,492.5c2.2,0,4.4,0.1,6.6,0.3c1.6,0.2,3.2,0.6,4.6,1.4c1.4,0.8,2.7,1.8,3.8,3c1.5,1.6,2.8,3.3,4.1,5
		l61.1,80.2c0.2,0.4,0.5,0.7,0.9,0.9c0.4,0.2,0.8,0.3,1.2,0.3h1.5c0.9,0,1.3-0.6,1.3-1.7v-89.3h24.4v97.8c0,6.7-1.2,11.2-3.6,13.6
		c-3.1,2.6-7.1,3.9-11.2,3.5h-14.1c-2.1,0-4.2-0.1-6.3-0.4c-1.6-0.2-3.1-0.6-4.5-1.3c-1.4-0.7-2.7-1.7-3.9-2.9
		c-1.6-1.6-3-3.3-4.4-5.2l-61.2-80.2c-0.2-0.3-0.6-0.6-0.9-0.8s-0.8-0.3-1.2-0.3h-1.5c-0.9,0-1.3,0.5-1.3,1.6v89.3h-20.9
		c-2.5,0-3.8-1.2-3.8-3.6v-94.2c0-6.7,1.2-11.2,3.6-13.5c3.1-2.6,7.1-3.9,11.1-3.5H2877.3z"/>
	<path class="st0" d="M3062.3,502.5l-4.9,11.2c-0.1,0.2-0.2,0.3-0.3,0.4c-0.2,0.1-0.3,0.2-0.5,0.2h-1.7c-0.4,0-0.6-0.3-0.4-0.8
		l18.8-42.4c0.1-0.1,0.2-0.2,0.3-0.3c0.1-0.1,0.3-0.1,0.4-0.1h0.2c0.2,0,0.3,0,0.5,0.1c0.1,0.1,0.2,0.2,0.3,0.3l18.6,42.4
		c0.1,0.4,0.1,0.8-0.5,0.8h-1.6c-0.2,0-0.3-0.1-0.5-0.2c-0.1-0.1-0.3-0.2-0.4-0.4l-5-11.2l-1-2.5l-10.4-24.5h-0.1l-10.6,24.5
		L3062.3,502.5z M3063.4,500l-1.1,2.5L3063.4,500z"/>
	
		<linearGradient id="SVGID_00000044885554699028952760000010786088988305856940_" gradientUnits="userSpaceOnUse" x1="961.5443" y1="889.6002" x2="961.5443" y2="1802.674">
		<stop  offset="0" style="stop-color:#00156A"/>
		<stop  offset="0.19" style="stop-color:#032074"/>
		<stop  offset="0.72" style="stop-color:#0B3B8E"/>
	</linearGradient>
	
		<rect x="491.7" y="864.2" style="fill:url(#SVGID_00000044885554699028952760000010786088988305856940_);" width="939.7" height="954.4"/>
	<path class="st0" d="M3124.5,470.5c4.3,0,8.6,1.2,12.2,3.6c3.6,2.4,6.4,5.8,8.1,9.8c1.7,4,2.1,8.4,1.3,12.7
		c-0.8,4.3-2.9,8.2-6,11.3s-7,5.2-11.2,6.1c-4.3,0.9-8.7,0.4-12.7-1.2c-4-1.6-7.5-4.5-9.9-8.1c-2.4-3.6-3.7-7.8-3.7-12.2
		c0-5.8,2.3-11.4,6.4-15.5C3113.2,472.9,3118.7,470.5,3124.5,470.5z M3124.5,511.7c3.8,0,7.5-1.1,10.7-3.3s5.6-5.1,7.1-8.7
		c1.4-3.5,1.8-7.4,1.1-11.1c-0.8-3.7-2.6-7.2-5.3-9.8c-2.7-2.7-6.1-4.5-9.9-5.2s-7.6-0.3-11.1,1.1c-3.5,1.5-6.5,3.9-8.6,7.1
		c-2.1,3.2-3.2,6.9-3.2,10.7c0,2.5,0.5,5,1.5,7.4c1,2.3,2.4,4.5,4.2,6.2c1.8,1.8,3.9,3.2,6.3,4.2
		C3119.5,511.2,3122,511.7,3124.5,511.7z"/>
	<path class="st0" d="M3024,471.6h-12.9c-0.2,0-0.4,0.1-0.5,0.2c-0.1,0.1-0.2,0.3-0.2,0.5v1.8h13.2c5,0,9.7,2,13.2,5.5
		c3.5,3.5,5.5,8.3,5.5,13.2c0,5-2,9.7-5.5,13.2s-8.3,5.5-13.2,5.5h-13.2v1.8c0,0.2,0.1,0.4,0.2,0.5c0.1,0.1,0.3,0.2,0.5,0.3h12.9
		c2.9,0.2,5.8-0.2,8.6-1.2c2.8-1,5.3-2.5,7.4-4.5c2.1-2,3.8-4.4,5-7.1c1.2-2.7,1.8-5.6,1.8-8.5c0-2.9-0.6-5.8-1.8-8.5
		c-1.2-2.7-2.9-5.1-5-7.1c-2.1-2-4.7-3.5-7.4-4.5C3029.9,471.9,3027,471.5,3024,471.6L3024,471.6z"/>
	<path class="st0" d="M2212,1207.5c0,0,18.3-15.9,18.5-27.3c0.3-12.6-21.6-49.6-21.6-49.6c15.4,23,25.1,32.1,25.1,32.1
		c14.3,14.6,44.4-6.6,74.3-27.6c0,0-35.4,27.6-50.6,48.3c-6.4,8.8,0.2,24.6,6.2,35.3c0,0-12.6-20.9-25.2-21.7
		C2227.2,1196.4,2212,1207.5,2212,1207.5z"/>
	
		<image style="overflow:visible;" width="2100" height="1990" xlink:href="A4D4CAB7.jpg"  transform="matrix(0.4557 0 0 0.4557 1484.9879 864.1731)">
	</image>
	<g>
		<path class="st0" d="M713,1259.3h110.3v108.3c-0.7,0-1.4,0-2.1,0c-3.4,0-6.9-0.2-10.2-0.5c-50.2-4.8-90.7-44.1-97.2-93.8
			c0,0,0-0.1,0-0.1c-0.6-4.5-0.9-9.2-0.9-13.9v-2.4c0,0.4,0,0.7,0,1.1C712.9,1258.5,713,1258.9,713,1259.3z"/>
		<path class="st0" d="M929.5,1259.3c0,2.1-0.1,4.2-0.2,6.4v0c0,0.8-0.1,1.6-0.2,2.4v-8.8c0-2.1,0.1-4.1,0.2-6.1
			C929.4,1255.2,929.5,1257.3,929.5,1259.3z"/>
		<path class="st0" d="M929.5,1259.3h109.8v108.5c-0.6,0-1.2,0-1.8,0h0c-4.2,0-8.4-0.2-12.5-0.7c-0.6-0.1-1.2-0.1-1.7-0.2
			c-0.5-0.1-0.9-0.1-1.4-0.2c0,0,0,0,0,0c-2.9-0.4-5.8-1-8.7-1.6c-0.1,0-0.3-0.1-0.4-0.1c-43.9-10.4-77.8-47.7-82.9-93.4
			c-0.2-1.9-0.4-3.9-0.5-5.9v0c-0.1-2-0.2-4.1-0.2-6.1v-0.2c0-2.1,0.1-4.1,0.2-6.1C929.4,1255.2,929.5,1257.3,929.5,1259.3z"/>
		
			<linearGradient id="SVGID_00000089561391129822056600000006540509941330738054_" gradientUnits="userSpaceOnUse" x1="1093.4277" y1="1581.1222" x2="1093.4277" y2="1418.5371">
			<stop  offset="0.2263" style="stop-color:#000000"/>
			<stop  offset="1" style="stop-color:#333333"/>
		</linearGradient>
		<path style="fill:url(#SVGID_00000089561391129822056600000006540509941330738054_);" d="M1147.6,1367.9v110.8
			c-0.4,59.2-47.9,107.6-106,107.6h-2.3v-218.4H1147.6z"/>
		
			<linearGradient id="SVGID_00000091712984708180442130000016819789309474379412_" gradientUnits="userSpaceOnUse" x1="821.0967" y1="1257.5505" x2="821.0967" y2="1162.4088">
			<stop  offset="0" style="stop-color:#8A002D"/>
			<stop  offset="0.78" style="stop-color:#D7594F"/>
		</linearGradient>
		<path style="fill:url(#SVGID_00000091712984708180442130000016819789309474379412_);" d="M929.3,1253.2
			C929.3,1253.2,929.3,1253.2,929.3,1253.2c-0.1,2.1-0.2,4.1-0.2,6.2H713c0-0.4-0.1-0.9-0.1-1.3c0-0.4,0-0.7,0-1.1V1151h108.3
			c0.9,0,1.9,0,2.8,0c0.9,0,1.8,0.1,2.8,0.1c1.4,0.1,2.8,0.2,4.1,0.3c1.3,0.1,2.6,0.3,3.9,0.4c1.9,0.2,3.7,0.5,5.6,0.9
			c0.4,0.1,0.9,0.2,1.3,0.2c1.8,0.3,3.5,0.7,5.3,1.1c0.1,0,0.2,0.1,0.3,0.1c0.2,0.1,0.4,0.1,0.6,0.2c0.7,0.2,1.4,0.4,2.1,0.5
			c0.5,0.1,1,0.3,1.6,0.4c0.5,0.2,1,0.3,1.6,0.5c0.8,0.2,1.5,0.5,2.2,0.7c0.5,0.2,1,0.3,1.4,0.5c0.7,0.2,1.4,0.5,2.1,0.8
			c0.6,0.2,1.3,0.5,1.9,0.7c1.3,0.5,2.5,1,3.8,1.6c0.6,0.3,1.2,0.5,1.8,0.8c0.6,0.3,1.2,0.6,1.8,0.9c0.4,0.2,0.8,0.4,1.2,0.6
			c0.7,0.3,1.4,0.7,2.1,1.1c0.1,0,0.2,0.1,0.2,0.1c0.7,0.4,1.4,0.7,2,1.1c0.4,0.2,0.8,0.5,1.3,0.7c1.7,1,3.4,2,5.1,3.1
			c0.4,0.3,0.8,0.5,1.2,0.8c1.5,1,3,2.1,4.5,3.2c0.3,0.2,0.5,0.4,0.8,0.6c0.2,0.1,0.3,0.3,0.5,0.4c0.6,0.4,1.1,0.9,1.7,1.3
			c0.7,0.6,1.4,1.2,2.1,1.8c0.7,0.6,1.4,1.2,2.1,1.8c0,0,0.1,0.1,0.1,0.1c0.6,0.6,1.3,1.2,1.9,1.8c0.6,0.6,1.3,1.2,1.9,1.8
			c0.4,0.4,0.8,0.8,1.2,1.2c0.5,0.5,1,1,1.5,1.5c0.4,0.4,0.8,0.9,1.3,1.3c0.4,0.5,0.8,0.9,1.2,1.4c0.4,0.5,0.8,0.9,1.2,1.4
			c0.4,0.5,0.8,0.9,1.2,1.4c0.2,0.3,0.4,0.5,0.7,0.8c0.3,0.3,0.5,0.7,0.8,1c0.4,0.5,0.8,1,1.2,1.5c0.1,0.1,0.2,0.2,0.2,0.3
			c0.3,0.4,0.6,0.8,0.9,1.2c0.6,0.8,1.1,1.6,1.7,2.4c0.5,0.7,1,1.5,1.5,2.2c7.5,11.4,12.9,24.3,15.7,38.4c0.6,2.8,0.9,5.7,1.4,8.5
			l0.2,0.2c0,0,0,0,0,0C929,1248.9,929.2,1251,929.3,1253.2z"/>
		
			<linearGradient id="SVGID_00000170987452565492407230000005732555866083131013_" gradientUnits="userSpaceOnUse" x1="1037.4484" y1="1257.5505" x2="1037.4484" y2="1162.4088">
			<stop  offset="0" style="stop-color:#8A002D"/>
			<stop  offset="0.78" style="stop-color:#D7594F"/>
		</linearGradient>
		<path style="fill:url(#SVGID_00000170987452565492407230000005732555866083131013_);" d="M1145.6,1259.3H929.5
			c0-2.1-0.1-4.1-0.2-6.1c0,0,0,0,0,0c0.1-1.8,0.3-3.6,0.4-5.3c0.2,0.2,0.4,0.4,0.5,0.6c0.8-9,2.7-17.8,6.1-26.2
			c6.3-16,14.8-29.4,25.4-40.1c0,0,0.1-0.1,0.1-0.1c8.7-8.4,18.7-15.4,29.8-20.6c0.1-0.1,0.2-0.1,0.3-0.1c8.6-3.9,18.1-6.8,28.3-8.6
			c0.1,0,0.2,0,0.3-0.1c5.5-0.9,11.1-1.3,16.8-1.3h0c0.9,0,1.8,0,2.8,0c0.2,0,0.3,0,0.5,0c2.7,0.1,5.3,0.3,8,0.5l0.1,0
			c25.3,2.7,48,14.1,65.1,31.2c16.9,16.9,28.2,39.2,31.1,64c0,0,0,0.1,0,0.1c0.3,3.6,0.3,7.2,0.5,10.9c0,0.3,0,0.6,0,0.9
			C1145.6,1259.1,1145.6,1259.2,1145.6,1259.3z"/>
		
			<linearGradient id="SVGID_00000028313360706278413940000005238523400031611279_" gradientUnits="userSpaceOnUse" x1="1092.5212" y1="1581.1461" x2="1092.5212" y2="1419.3159">
			<stop  offset="0.2263" style="stop-color:#000000"/>
			<stop  offset="1" style="stop-color:#333333"/>
		</linearGradient>
		<path style="fill:url(#SVGID_00000028313360706278413940000005238523400031611279_);" d="M1147.6,1477.6v3.6
			c0,13.2-3,25.7-7.7,37.9c-5.7,14.5-14.3,27-25.6,37.7c-16.4,15.6-35.8,25.5-58.3,28.7c-6,0.9-12.1,1-18.2,1.4c-0.1,0-0.2,0-0.3,0
			h0v-109.4H1147.6z"/>
		<path class="st0" d="M1039.3,1367.9v219.1h0c-0.1,0-0.2,0-0.3,0c-1.7,0.1-3.3,0.2-5,0.2c-62.4,0-124.7,0-187.1,0h-20
			c-1.9,0-3.7-0.1-5.6-0.2v-219H1039.3z"/>
		
			<linearGradient id="SVGID_00000139251970128352349010000001047288339141258883_" gradientUnits="userSpaceOnUse" x1="767.1006" y1="1574.6742" x2="767.1006" y2="1492.6682">
			<stop  offset="0" style="stop-color:#F7931E"/>
			<stop  offset="0.47" style="stop-color:#F8A439"/>
			<stop  offset="1" style="stop-color:#F9B95C"/>
		</linearGradient>
		<path style="fill:url(#SVGID_00000139251970128352349010000001047288339141258883_);" d="M821.1,1477.6v109.4h0
			c-0.2,0-0.4,0-0.7,0c-8,0.1-15.8-1.1-23.5-2.8c-21.7-4.9-40.1-15.7-55.1-32c-15.2-16.4-24.4-35.7-27.7-57.9c-0.6-4.4-0.9-9-1-13.5
			c0-1.1,0-2.2,0-3.2H821.1z"/>
		<rect x="713.3" y="1367.7" class="st0" width="107.9" height="109.9"/>
		<path class="st0" d="M1133.3,1164.8c0,0,13.9-11,14.1-18.9c0.2-8.7-16.4-34.4-16.4-34.4c11.7,15.9,19.1,22.3,19.1,22.3
			c10.9,10.1,33.8-4.6,56.5-19.1c0,0-26.9,19.1-38.5,33.5c-4.9,6.1,0.1,17,4.7,24.5c0,0-9.6-14.5-19.2-15
			C1144.9,1157.1,1133.3,1164.8,1133.3,1164.8z"/>
		
			<linearGradient id="SVGID_00000090994748066883995010000017846641893045011076_" gradientUnits="userSpaceOnUse" x1="768.1916" y1="1781.7753" x2="768.1916" y2="1399.634">
			<stop  offset="0.2263" style="stop-color:#000000"/>
			<stop  offset="1" style="stop-color:#333333"/>
		</linearGradient>
		<path style="fill:url(#SVGID_00000090994748066883995010000017846641893045011076_);" d="M823.3,1679.8v106H713.1
			c1-58.4,49.1-106,107.8-106H823.3z"/>
		
			<linearGradient id="SVGID_00000181768352266070760070000007588916859408103856_" gradientUnits="userSpaceOnUse" x1="931.3816" y1="1781.7753" x2="931.3816" y2="1399.634">
			<stop  offset="0.2263" style="stop-color:#000000"/>
			<stop  offset="1" style="stop-color:#333333"/>
		</linearGradient>
		<path style="fill:url(#SVGID_00000181768352266070760070000007588916859408103856_);" d="M1039.5,1679.1v106.6H823.3v-106.7h0
			c0.1,0,0.2,0,0.3,0c1.7-0.1,3.3-0.2,5-0.2H1034C1035.8,1678.9,1037.7,1679,1039.5,1679.1z"/>
		
			<linearGradient id="SVGID_00000088814875375139861790000013121374088851231129_" gradientUnits="userSpaceOnUse" x1="1093.604" y1="1781.7753" x2="1093.604" y2="1399.634">
			<stop  offset="0.2263" style="stop-color:#000000"/>
			<stop  offset="1" style="stop-color:#333333"/>
		</linearGradient>
		<path style="fill:url(#SVGID_00000088814875375139861790000013121374088851231129_);" d="M1039.6,1788.4v-109.4h0
			c0.2,0,0.4,0,0.7,0c8-0.1,15.8,1.1,23.5,2.8c21.7,4.9,40.1,15.7,55.1,32c15.2,16.4,24.4,35.7,27.7,57.9c0.6,4.4,0.9,9,1,13.5
			c0,1.1,0,2.2,0,3.2H1039.6z"/>
		
			<linearGradient id="SVGID_00000179634924628506113630000005075367054503764123_" gradientUnits="userSpaceOnUse" x1="876.1966" y1="1259.1686" x2="876.1966" y2="1353.1367">
			<stop  offset="0" style="stop-color:#00156A"/>
			<stop  offset="0.19" style="stop-color:#032074"/>
			<stop  offset="0.72" style="stop-color:#0B3B8E"/>
		</linearGradient>
		<path style="fill:url(#SVGID_00000179634924628506113630000005075367054503764123_);" d="M929.1,1259.3v8.8
			c-0.1,1.6-0.3,3.2-0.5,4.8c0,0,0,0,0,0c-1.3,9.9-3.9,19.4-7.6,28.3c0,0,0,0.1-0.1,0.2l-1.1,2.4l-0.6,1.2
			c-5.4,11.5-12.8,21.9-21.7,30.8c-16.6,16.6-38.6,27.9-63,31c-1.1,0.1-2.2,0.3-3.3,0.4c-2.7,0.3-5.4,0.4-8.1,0.5v-108.3H929.1z"/>
		
			<linearGradient id="SVGID_00000164480395495494182700000017021667995587319971_" gradientUnits="userSpaceOnUse" x1="1145.0515" y1="1247.7959" x2="1145.1316" y2="1247.7959">
			<stop  offset="0" style="stop-color:#F7931E"/>
			<stop  offset="0.47" style="stop-color:#F8A439"/>
			<stop  offset="1" style="stop-color:#F9B95C"/>
		</linearGradient>
		<path style="fill:url(#SVGID_00000164480395495494182700000017021667995587319971_);" d="M1145.1,1247.9v0.4
			c0-0.4-0.1-0.8-0.1-1.2C1145.1,1247.4,1145.1,1247.7,1145.1,1247.9z"/>
		
			<linearGradient id="SVGID_00000013893678233638430430000007180834955962262159_" gradientUnits="userSpaceOnUse" x1="1092.1965" y1="1259.1686" x2="1092.1965" y2="1353.1367">
			<stop  offset="0" style="stop-color:#00156A"/>
			<stop  offset="0.19" style="stop-color:#032074"/>
			<stop  offset="0.72" style="stop-color:#0B3B8E"/>
		</linearGradient>
		<path style="fill:url(#SVGID_00000013893678233638430430000007180834955962262159_);" d="M1145.1,1259.3v11.8
			c-0.9,8.4-2.8,16.5-5.5,24.2c0,0,0,0,0,0.1c-3.9,11.1-9.6,21.4-16.7,30.5c-0.1,0.1-0.2,0.3-0.3,0.4c-2.7,3.4-5.6,6.7-8.6,9.7
			c-8,8-17.2,14.7-27.3,19.9c0,0,0,0-0.1,0c-10.9,5.6-22.8,9.4-35.3,11c0,0,0,0,0,0c-0.4,0.1-0.8,0.1-1.2,0.2
			c-3.5,0.4-7.1,0.6-10.7,0.7v-108.5H1145.1z"/>
	</g>
	<g>
		<path class="st19" d="M5.3,561.3c10.9-11.8,20.6-22.4,30.4-33c62.9-67.9,125.8-135.9,188.8-203.7c3.2-3.5,3.6-5.5,0.6-9.6
			C153.7,219.9,82.5,124.6,11.3,29.3c-1.2-1.6-2.3-3.1-3.4-4.7c1.3-2.1,3.3-1.3,4.9-1.3c53.2-0.1,106.5,0,159.7-0.1
			c3.9,0,6.3,1.1,8.7,4.3c46,61.7,92.1,123.2,138,184.8c3.2,4.3,4.7,4.9,8.7,0.6c56.9-61.8,114-123.3,171-185c3-3.3,6-4.8,10.6-4.7
			c12.3,0.3,24.7,0.1,37,0.1c1.9,0,3.7,0.2,6.8,0.4c-6.5,7.1-12.2,13.4-18,19.7c-61.4,66.3-122.8,132.7-184.4,198.9
			c-3.9,4.2-4.2,6.8-0.6,11.5C425.7,354.4,501,455.2,576.4,556c1,1.4,2,2.8,2.9,4.3c-1.9,1.8-3.9,1-5.7,1
			c-52.9,0.1-105.7,0-158.6,0.1c-4.1,0-6.7-1.1-9.2-4.5c-49.7-66.7-99.5-133.3-149.3-199.8c-1.6-2.2-3.3-4.3-5.2-6.9
			c-11,11.9-21.8,23.4-32.5,35.1C166,442.1,113.3,499,60.8,556c-3.6,3.9-7.2,5.6-12.6,5.5C34.5,561.1,20.9,561.3,5.3,561.3z
			 M82.1,60.2c0.1,2.9,1.8,4.1,3,5.6c23.6,31.7,47.3,63.3,71,95c89.6,119.8,179.3,239.7,268.8,359.5c2.1,2.8,4.3,3.8,7.8,3.8
			c22.7-0.1,45.4-0.1,68.1-0.1c1.4,0,3.1,0.8,4.5-1.2c-10.4-13.9-20.8-27.8-31.2-41.7c-67.3-89.9-134.5-179.8-201.8-269.7
			c-36.7-49-73.3-98.1-109.9-147.1c-1.6-2.2-3.1-4.2-6.5-4.2C131.4,60.3,106.9,60.2,82.1,60.2z"/>
	</g>
</g>
</svg>
